G04 #@! TF.GenerationSoftware,KiCad,Pcbnew,6.0.11-2627ca5db0~126~ubuntu22.04.1*
G04 #@! TF.CreationDate,2025-05-27T11:10:10+02:00*
G04 #@! TF.ProjectId,qPocketPCR_Main,71506f63-6b65-4745-9043-525f4d61696e,rev?*
G04 #@! TF.SameCoordinates,Original*
G04 #@! TF.FileFunction,Soldermask,Top*
G04 #@! TF.FilePolarity,Negative*
%FSLAX46Y46*%
G04 Gerber Fmt 4.6, Leading zero omitted, Abs format (unit mm)*
G04 Created by KiCad (PCBNEW 6.0.11-2627ca5db0~126~ubuntu22.04.1) date 2025-05-27 11:10:10*
%MOMM*%
%LPD*%
G01*
G04 APERTURE LIST*
G04 Aperture macros list*
%AMRoundRect*
0 Rectangle with rounded corners*
0 $1 Rounding radius*
0 $2 $3 $4 $5 $6 $7 $8 $9 X,Y pos of 4 corners*
0 Add a 4 corners polygon primitive as box body*
4,1,4,$2,$3,$4,$5,$6,$7,$8,$9,$2,$3,0*
0 Add four circle primitives for the rounded corners*
1,1,$1+$1,$2,$3*
1,1,$1+$1,$4,$5*
1,1,$1+$1,$6,$7*
1,1,$1+$1,$8,$9*
0 Add four rect primitives between the rounded corners*
20,1,$1+$1,$2,$3,$4,$5,0*
20,1,$1+$1,$4,$5,$6,$7,0*
20,1,$1+$1,$6,$7,$8,$9,0*
20,1,$1+$1,$8,$9,$2,$3,0*%
%AMFreePoly0*
4,1,22,0.500000,-0.750000,0.000000,-0.750000,0.000000,-0.745033,-0.079941,-0.743568,-0.215256,-0.701293,-0.333266,-0.622738,-0.424486,-0.514219,-0.481581,-0.384460,-0.499164,-0.250000,-0.500000,-0.250000,-0.500000,0.250000,-0.499164,0.250000,-0.499963,0.256109,-0.478152,0.396186,-0.417904,0.524511,-0.324060,0.630769,-0.204165,0.706417,-0.067858,0.745374,0.000000,0.744959,0.000000,0.750000,
0.500000,0.750000,0.500000,-0.750000,0.500000,-0.750000,$1*%
%AMFreePoly1*
4,1,20,0.000000,0.744959,0.073905,0.744508,0.209726,0.703889,0.328688,0.626782,0.421226,0.519385,0.479903,0.390333,0.500000,0.250000,0.500000,-0.250000,0.499851,-0.262216,0.476331,-0.402017,0.414519,-0.529596,0.319384,-0.634700,0.198574,-0.708877,0.061801,-0.746166,0.000000,-0.745033,0.000000,-0.750000,-0.500000,-0.750000,-0.500000,0.750000,0.000000,0.750000,0.000000,0.744959,
0.000000,0.744959,$1*%
G04 Aperture macros list end*
%ADD10C,0.010000*%
%ADD11R,2.000000X1.300000*%
%ADD12R,0.300000X1.000000*%
%ADD13C,0.650000*%
%ADD14O,0.950000X0.650000*%
%ADD15R,0.300000X0.700000*%
%ADD16O,0.800000X1.400000*%
%ADD17R,1.100000X0.300000*%
%ADD18R,3.100000X2.300000*%
%ADD19RoundRect,0.150000X-0.587500X-0.150000X0.587500X-0.150000X0.587500X0.150000X-0.587500X0.150000X0*%
%ADD20R,0.500000X0.800000*%
%ADD21RoundRect,0.200000X-0.200000X-0.275000X0.200000X-0.275000X0.200000X0.275000X-0.200000X0.275000X0*%
%ADD22RoundRect,0.200000X0.275000X-0.200000X0.275000X0.200000X-0.275000X0.200000X-0.275000X-0.200000X0*%
%ADD23RoundRect,0.200000X0.200000X0.275000X-0.200000X0.275000X-0.200000X-0.275000X0.200000X-0.275000X0*%
%ADD24RoundRect,0.200000X-0.275000X0.200000X-0.275000X-0.200000X0.275000X-0.200000X0.275000X0.200000X0*%
%ADD25C,3.200000*%
%ADD26C,2.540000*%
%ADD27RoundRect,0.250000X-0.325000X-0.650000X0.325000X-0.650000X0.325000X0.650000X-0.325000X0.650000X0*%
%ADD28RoundRect,0.225000X-0.225000X-0.250000X0.225000X-0.250000X0.225000X0.250000X-0.225000X0.250000X0*%
%ADD29RoundRect,0.225000X-0.250000X0.225000X-0.250000X-0.225000X0.250000X-0.225000X0.250000X0.225000X0*%
%ADD30RoundRect,0.250000X-0.250000X-0.475000X0.250000X-0.475000X0.250000X0.475000X-0.250000X0.475000X0*%
%ADD31RoundRect,0.250000X0.475000X-0.250000X0.475000X0.250000X-0.475000X0.250000X-0.475000X-0.250000X0*%
%ADD32RoundRect,0.225000X0.225000X0.250000X-0.225000X0.250000X-0.225000X-0.250000X0.225000X-0.250000X0*%
%ADD33RoundRect,0.250000X-0.475000X0.250000X-0.475000X-0.250000X0.475000X-0.250000X0.475000X0.250000X0*%
%ADD34RoundRect,0.150000X0.150000X-0.587500X0.150000X0.587500X-0.150000X0.587500X-0.150000X-0.587500X0*%
%ADD35R,3.400000X1.500000*%
%ADD36R,3.500000X1.000000*%
%ADD37RoundRect,0.218750X0.256250X-0.218750X0.256250X0.218750X-0.256250X0.218750X-0.256250X-0.218750X0*%
%ADD38RoundRect,0.150000X0.587500X0.150000X-0.587500X0.150000X-0.587500X-0.150000X0.587500X-0.150000X0*%
%ADD39FreePoly0,90.000000*%
%ADD40FreePoly1,90.000000*%
%ADD41R,1.000000X0.900000*%
%ADD42R,3.000000X3.000000*%
%ADD43C,2.600000*%
%ADD44C,0.800000*%
%ADD45R,2.000000X1.000000*%
%ADD46RoundRect,0.250000X0.650000X-0.325000X0.650000X0.325000X-0.650000X0.325000X-0.650000X-0.325000X0*%
%ADD47RoundRect,0.100000X0.637500X0.100000X-0.637500X0.100000X-0.637500X-0.100000X0.637500X-0.100000X0*%
%ADD48R,1.500000X0.900000*%
%ADD49R,0.900000X1.500000*%
%ADD50R,4.100000X4.100000*%
%ADD51R,2.032000X1.016000*%
%ADD52R,2.032000X3.657600*%
%ADD53RoundRect,0.150000X0.512500X0.150000X-0.512500X0.150000X-0.512500X-0.150000X0.512500X-0.150000X0*%
%ADD54RoundRect,0.062500X-0.062500X0.350000X-0.062500X-0.350000X0.062500X-0.350000X0.062500X0.350000X0*%
%ADD55RoundRect,0.062500X-0.350000X0.062500X-0.350000X-0.062500X0.350000X-0.062500X0.350000X0.062500X0*%
%ADD56R,2.600000X2.600000*%
%ADD57R,0.575000X0.300000*%
%ADD58R,0.575000X0.250000*%
%ADD59R,0.350000X0.630000*%
%ADD60R,3.600000X1.150000*%
%ADD61RoundRect,0.102000X0.300000X0.850000X-0.300000X0.850000X-0.300000X-0.850000X0.300000X-0.850000X0*%
%ADD62RoundRect,0.102000X1.250000X1.400000X-1.250000X1.400000X-1.250000X-1.400000X1.250000X-1.400000X0*%
%ADD63RoundRect,0.100000X-0.637500X-0.100000X0.637500X-0.100000X0.637500X0.100000X-0.637500X0.100000X0*%
%ADD64C,2.700000*%
G04 APERTURE END LIST*
G36*
X122603726Y-116646801D02*
G01*
X122513591Y-116515565D01*
X122326523Y-116193256D01*
X122177958Y-115857590D01*
X122067404Y-115511688D01*
X121994368Y-115158668D01*
X121958357Y-114801652D01*
X121958734Y-114544029D01*
X122281910Y-114544029D01*
X122293571Y-114887511D01*
X122342818Y-115229619D01*
X122428151Y-115565069D01*
X122548069Y-115888576D01*
X122701073Y-116194853D01*
X122885662Y-116478616D01*
X122993787Y-116615704D01*
X123089055Y-116728759D01*
X124186436Y-115631531D01*
X125283817Y-114534302D01*
X125283817Y-114533998D01*
X125601317Y-114533998D01*
X127792067Y-116726906D01*
X127874078Y-116635944D01*
X127926836Y-116572609D01*
X127989639Y-116490250D01*
X128049804Y-116405561D01*
X128055720Y-116396816D01*
X128243528Y-116080943D01*
X128392470Y-115751386D01*
X128502213Y-115411137D01*
X128572425Y-115063185D01*
X128602773Y-114710523D01*
X128592924Y-114356140D01*
X128542546Y-114003028D01*
X128451306Y-113654177D01*
X128382186Y-113461662D01*
X128228618Y-113129098D01*
X128041755Y-112821298D01*
X127823829Y-112540011D01*
X127577073Y-112286984D01*
X127303722Y-112063964D01*
X127006008Y-111872699D01*
X126686164Y-111714937D01*
X126346424Y-111592425D01*
X125989022Y-111506911D01*
X125856924Y-111485585D01*
X125764156Y-111472695D01*
X125687067Y-111462400D01*
X125635237Y-111455954D01*
X125618799Y-111454399D01*
X125615948Y-111475012D01*
X125613241Y-111534636D01*
X125610717Y-111629947D01*
X125608413Y-111757625D01*
X125606366Y-111914346D01*
X125604615Y-112096787D01*
X125603197Y-112301627D01*
X125602150Y-112525543D01*
X125601511Y-112765212D01*
X125601317Y-112994199D01*
X125601317Y-114533998D01*
X125283817Y-114533998D01*
X125283817Y-112994199D01*
X125283583Y-112743221D01*
X125282906Y-112504821D01*
X125281824Y-112282473D01*
X125280374Y-112079499D01*
X125278595Y-111899222D01*
X125276524Y-111744965D01*
X125274199Y-111620048D01*
X125271657Y-111527795D01*
X125268936Y-111471528D01*
X125266335Y-111454399D01*
X125239262Y-111457204D01*
X125179867Y-111464783D01*
X125097731Y-111475882D01*
X125028210Y-111485585D01*
X124665054Y-111557382D01*
X124319680Y-111666442D01*
X123994120Y-111810732D01*
X123690406Y-111988220D01*
X123410571Y-112196874D01*
X123156646Y-112434662D01*
X122930663Y-112699552D01*
X122734654Y-112989511D01*
X122570653Y-113302509D01*
X122440690Y-113636511D01*
X122346798Y-113989487D01*
X122309336Y-114204459D01*
X122281910Y-114544029D01*
X121958734Y-114544029D01*
X121958881Y-114443759D01*
X121995445Y-114088108D01*
X122067558Y-113737820D01*
X122174727Y-113396014D01*
X122316460Y-113065809D01*
X122492264Y-112750327D01*
X122701647Y-112452686D01*
X122944117Y-112176006D01*
X123219181Y-111923408D01*
X123241234Y-111905422D01*
X123546985Y-111684537D01*
X123870113Y-111500661D01*
X124207439Y-111353795D01*
X124555786Y-111243937D01*
X124911977Y-111171088D01*
X125272833Y-111135249D01*
X125635178Y-111136418D01*
X125995833Y-111174596D01*
X126351622Y-111249783D01*
X126699367Y-111361979D01*
X127035890Y-111511184D01*
X127358014Y-111697398D01*
X127643900Y-111905422D01*
X127919442Y-112155120D01*
X128167039Y-112434547D01*
X128384193Y-112739598D01*
X128568404Y-113066168D01*
X128717173Y-113410153D01*
X128828000Y-113767448D01*
X128858429Y-113899985D01*
X128915829Y-114274704D01*
X128932677Y-114645936D01*
X128910589Y-115011205D01*
X128851183Y-115368032D01*
X128756076Y-115713936D01*
X128626885Y-116046441D01*
X128465229Y-116363067D01*
X128272724Y-116661335D01*
X128050989Y-116938768D01*
X127801639Y-117192885D01*
X127526294Y-117421208D01*
X127226569Y-117621259D01*
X126904083Y-117790559D01*
X126560453Y-117926629D01*
X126197297Y-118026991D01*
X126160300Y-118034899D01*
X126085226Y-118048394D01*
X125987149Y-118062986D01*
X125874787Y-118077722D01*
X125756855Y-118091648D01*
X125642072Y-118103811D01*
X125539154Y-118113256D01*
X125456819Y-118119031D01*
X125403784Y-118120183D01*
X125391868Y-118118954D01*
X125366696Y-118116109D01*
X125308709Y-118110731D01*
X125227293Y-118103666D01*
X125156817Y-118097793D01*
X124774978Y-118045858D01*
X124406951Y-117954485D01*
X124054787Y-117824900D01*
X123720538Y-117658333D01*
X123406256Y-117456011D01*
X123113992Y-117219163D01*
X122864958Y-116968316D01*
X123334466Y-116968316D01*
X123425433Y-117050327D01*
X123599788Y-117189068D01*
X123806571Y-117322718D01*
X124035880Y-117446197D01*
X124277808Y-117554426D01*
X124522453Y-117642325D01*
X124652631Y-117679661D01*
X124758583Y-117704423D01*
X124882399Y-117729212D01*
X125010075Y-117751608D01*
X125127604Y-117769188D01*
X125220981Y-117779531D01*
X125236192Y-117780556D01*
X125283817Y-117783233D01*
X125283817Y-116402194D01*
X125601317Y-116402194D01*
X125601577Y-116639704D01*
X125602329Y-116864298D01*
X125603528Y-117072468D01*
X125605130Y-117260706D01*
X125607090Y-117425504D01*
X125609364Y-117563353D01*
X125611907Y-117670745D01*
X125614675Y-117744172D01*
X125617624Y-117780125D01*
X125618799Y-117783233D01*
X125645872Y-117780427D01*
X125705266Y-117772848D01*
X125787403Y-117761750D01*
X125856924Y-117752047D01*
X126161649Y-117693611D01*
X126462237Y-117606481D01*
X126751326Y-117493881D01*
X127021549Y-117359036D01*
X127265543Y-117205171D01*
X127459701Y-117050327D01*
X127550668Y-116968316D01*
X126575992Y-115994735D01*
X125601317Y-115021155D01*
X125601317Y-116402194D01*
X125283817Y-116402194D01*
X125283817Y-115021155D01*
X124309141Y-115994735D01*
X123334466Y-116968316D01*
X122864958Y-116968316D01*
X122845798Y-116949017D01*
X122603726Y-116646801D01*
G37*
D10*
X122603726Y-116646801D02*
X122513591Y-116515565D01*
X122326523Y-116193256D01*
X122177958Y-115857590D01*
X122067404Y-115511688D01*
X121994368Y-115158668D01*
X121958357Y-114801652D01*
X121958734Y-114544029D01*
X122281910Y-114544029D01*
X122293571Y-114887511D01*
X122342818Y-115229619D01*
X122428151Y-115565069D01*
X122548069Y-115888576D01*
X122701073Y-116194853D01*
X122885662Y-116478616D01*
X122993787Y-116615704D01*
X123089055Y-116728759D01*
X124186436Y-115631531D01*
X125283817Y-114534302D01*
X125283817Y-114533998D01*
X125601317Y-114533998D01*
X127792067Y-116726906D01*
X127874078Y-116635944D01*
X127926836Y-116572609D01*
X127989639Y-116490250D01*
X128049804Y-116405561D01*
X128055720Y-116396816D01*
X128243528Y-116080943D01*
X128392470Y-115751386D01*
X128502213Y-115411137D01*
X128572425Y-115063185D01*
X128602773Y-114710523D01*
X128592924Y-114356140D01*
X128542546Y-114003028D01*
X128451306Y-113654177D01*
X128382186Y-113461662D01*
X128228618Y-113129098D01*
X128041755Y-112821298D01*
X127823829Y-112540011D01*
X127577073Y-112286984D01*
X127303722Y-112063964D01*
X127006008Y-111872699D01*
X126686164Y-111714937D01*
X126346424Y-111592425D01*
X125989022Y-111506911D01*
X125856924Y-111485585D01*
X125764156Y-111472695D01*
X125687067Y-111462400D01*
X125635237Y-111455954D01*
X125618799Y-111454399D01*
X125615948Y-111475012D01*
X125613241Y-111534636D01*
X125610717Y-111629947D01*
X125608413Y-111757625D01*
X125606366Y-111914346D01*
X125604615Y-112096787D01*
X125603197Y-112301627D01*
X125602150Y-112525543D01*
X125601511Y-112765212D01*
X125601317Y-112994199D01*
X125601317Y-114533998D01*
X125283817Y-114533998D01*
X125283817Y-112994199D01*
X125283583Y-112743221D01*
X125282906Y-112504821D01*
X125281824Y-112282473D01*
X125280374Y-112079499D01*
X125278595Y-111899222D01*
X125276524Y-111744965D01*
X125274199Y-111620048D01*
X125271657Y-111527795D01*
X125268936Y-111471528D01*
X125266335Y-111454399D01*
X125239262Y-111457204D01*
X125179867Y-111464783D01*
X125097731Y-111475882D01*
X125028210Y-111485585D01*
X124665054Y-111557382D01*
X124319680Y-111666442D01*
X123994120Y-111810732D01*
X123690406Y-111988220D01*
X123410571Y-112196874D01*
X123156646Y-112434662D01*
X122930663Y-112699552D01*
X122734654Y-112989511D01*
X122570653Y-113302509D01*
X122440690Y-113636511D01*
X122346798Y-113989487D01*
X122309336Y-114204459D01*
X122281910Y-114544029D01*
X121958734Y-114544029D01*
X121958881Y-114443759D01*
X121995445Y-114088108D01*
X122067558Y-113737820D01*
X122174727Y-113396014D01*
X122316460Y-113065809D01*
X122492264Y-112750327D01*
X122701647Y-112452686D01*
X122944117Y-112176006D01*
X123219181Y-111923408D01*
X123241234Y-111905422D01*
X123546985Y-111684537D01*
X123870113Y-111500661D01*
X124207439Y-111353795D01*
X124555786Y-111243937D01*
X124911977Y-111171088D01*
X125272833Y-111135249D01*
X125635178Y-111136418D01*
X125995833Y-111174596D01*
X126351622Y-111249783D01*
X126699367Y-111361979D01*
X127035890Y-111511184D01*
X127358014Y-111697398D01*
X127643900Y-111905422D01*
X127919442Y-112155120D01*
X128167039Y-112434547D01*
X128384193Y-112739598D01*
X128568404Y-113066168D01*
X128717173Y-113410153D01*
X128828000Y-113767448D01*
X128858429Y-113899985D01*
X128915829Y-114274704D01*
X128932677Y-114645936D01*
X128910589Y-115011205D01*
X128851183Y-115368032D01*
X128756076Y-115713936D01*
X128626885Y-116046441D01*
X128465229Y-116363067D01*
X128272724Y-116661335D01*
X128050989Y-116938768D01*
X127801639Y-117192885D01*
X127526294Y-117421208D01*
X127226569Y-117621259D01*
X126904083Y-117790559D01*
X126560453Y-117926629D01*
X126197297Y-118026991D01*
X126160300Y-118034899D01*
X126085226Y-118048394D01*
X125987149Y-118062986D01*
X125874787Y-118077722D01*
X125756855Y-118091648D01*
X125642072Y-118103811D01*
X125539154Y-118113256D01*
X125456819Y-118119031D01*
X125403784Y-118120183D01*
X125391868Y-118118954D01*
X125366696Y-118116109D01*
X125308709Y-118110731D01*
X125227293Y-118103666D01*
X125156817Y-118097793D01*
X124774978Y-118045858D01*
X124406951Y-117954485D01*
X124054787Y-117824900D01*
X123720538Y-117658333D01*
X123406256Y-117456011D01*
X123113992Y-117219163D01*
X122864958Y-116968316D01*
X123334466Y-116968316D01*
X123425433Y-117050327D01*
X123599788Y-117189068D01*
X123806571Y-117322718D01*
X124035880Y-117446197D01*
X124277808Y-117554426D01*
X124522453Y-117642325D01*
X124652631Y-117679661D01*
X124758583Y-117704423D01*
X124882399Y-117729212D01*
X125010075Y-117751608D01*
X125127604Y-117769188D01*
X125220981Y-117779531D01*
X125236192Y-117780556D01*
X125283817Y-117783233D01*
X125283817Y-116402194D01*
X125601317Y-116402194D01*
X125601577Y-116639704D01*
X125602329Y-116864298D01*
X125603528Y-117072468D01*
X125605130Y-117260706D01*
X125607090Y-117425504D01*
X125609364Y-117563353D01*
X125611907Y-117670745D01*
X125614675Y-117744172D01*
X125617624Y-117780125D01*
X125618799Y-117783233D01*
X125645872Y-117780427D01*
X125705266Y-117772848D01*
X125787403Y-117761750D01*
X125856924Y-117752047D01*
X126161649Y-117693611D01*
X126462237Y-117606481D01*
X126751326Y-117493881D01*
X127021549Y-117359036D01*
X127265543Y-117205171D01*
X127459701Y-117050327D01*
X127550668Y-116968316D01*
X126575992Y-115994735D01*
X125601317Y-115021155D01*
X125601317Y-116402194D01*
X125283817Y-116402194D01*
X125283817Y-115021155D01*
X124309141Y-115994735D01*
X123334466Y-116968316D01*
X122864958Y-116968316D01*
X122845798Y-116949017D01*
X122603726Y-116646801D01*
D11*
X108050000Y-154389000D03*
X91950000Y-154389000D03*
D12*
X105750000Y-151689000D03*
X105250000Y-151689000D03*
X104750000Y-151689000D03*
X104250000Y-151689000D03*
X103750000Y-151689000D03*
X103250000Y-151689000D03*
X102750000Y-151689000D03*
X102250000Y-151689000D03*
X101750000Y-151689000D03*
X101250000Y-151689000D03*
X100750000Y-151689000D03*
X100250000Y-151689000D03*
X99750000Y-151689000D03*
X99250000Y-151689000D03*
X98750000Y-151689000D03*
X98250000Y-151689000D03*
X97750000Y-151689000D03*
X97250000Y-151689000D03*
X96750000Y-151689000D03*
X96250000Y-151689000D03*
X95750000Y-151689000D03*
X95250000Y-151689000D03*
X94750000Y-151689000D03*
X94250000Y-151689000D03*
D13*
X129080000Y-39550000D03*
D14*
X121880000Y-39550000D03*
D15*
X128230000Y-40210000D03*
X127730000Y-40210000D03*
X127230000Y-40210000D03*
X126730000Y-40210000D03*
X126230000Y-40210000D03*
X125730000Y-40210000D03*
X125230000Y-40210000D03*
X124730000Y-40210000D03*
X124230000Y-40210000D03*
X123730000Y-40210000D03*
X123230000Y-40210000D03*
X122730000Y-40210000D03*
X122980000Y-38510000D03*
X123480000Y-38510000D03*
X123980000Y-38510000D03*
X124480000Y-38510000D03*
X124980000Y-38510000D03*
X125480000Y-38510000D03*
X125980000Y-38510000D03*
X126480000Y-38510000D03*
X126980000Y-38510000D03*
X127480000Y-38510000D03*
X127980000Y-38510000D03*
X128480000Y-38510000D03*
D16*
X120990000Y-32350000D03*
X121350000Y-38300000D03*
X129610000Y-38300000D03*
X129970000Y-32350000D03*
D17*
X114900000Y-130990000D03*
X114900000Y-131490000D03*
X114900000Y-131990000D03*
X114900000Y-132490000D03*
X114900000Y-132990000D03*
X114900000Y-133490000D03*
X114900000Y-133990000D03*
X114900000Y-134490000D03*
X114900000Y-134990000D03*
X114900000Y-135490000D03*
X114900000Y-135990000D03*
X114900000Y-136490000D03*
X114900000Y-136990000D03*
X114900000Y-137490000D03*
X114900000Y-137990000D03*
X114900000Y-138490000D03*
X114900000Y-138990000D03*
X114900000Y-139490000D03*
X114900000Y-139990000D03*
X114900000Y-140490000D03*
X114900000Y-140990000D03*
X114900000Y-141490000D03*
X114900000Y-141990000D03*
X114900000Y-142490000D03*
X114900000Y-142990000D03*
X114900000Y-143490000D03*
X114900000Y-143990000D03*
X114900000Y-144490000D03*
X114900000Y-144990000D03*
X114900000Y-145490000D03*
X114900000Y-145990000D03*
X114900000Y-146490000D03*
X114900000Y-146990000D03*
X114900000Y-147490000D03*
X114900000Y-147990000D03*
X114900000Y-148490000D03*
X114900000Y-148990000D03*
X114900000Y-149490000D03*
X114900000Y-149990000D03*
X114900000Y-150490000D03*
X114900000Y-150990000D03*
X114900000Y-151490000D03*
X114900000Y-151990000D03*
X114900000Y-152490000D03*
X114900000Y-152990000D03*
X114900000Y-153490000D03*
X114900000Y-153990000D03*
X114900000Y-154490000D03*
X114900000Y-154990000D03*
X114900000Y-155490000D03*
D18*
X116600000Y-157160000D03*
X116600000Y-129320000D03*
D19*
X111508500Y-164833500D03*
X111508500Y-166733500D03*
X113383500Y-165783500D03*
D20*
X69250000Y-87698074D03*
X67750000Y-87698074D03*
X78250000Y-87698074D03*
X76750000Y-87698074D03*
X87250000Y-87698074D03*
X85750000Y-87698074D03*
X96250000Y-87698074D03*
X94750000Y-87698074D03*
X105250000Y-87698074D03*
X103750000Y-87698074D03*
X123250000Y-87698074D03*
X121750000Y-87698074D03*
X114250000Y-87698074D03*
X112750000Y-87698074D03*
D21*
X106896600Y-145720000D03*
X108546600Y-145720000D03*
D22*
X82880400Y-132461200D03*
X82880400Y-130811200D03*
X133147000Y-44818000D03*
X133147000Y-43168000D03*
D23*
X136639000Y-130025001D03*
X134989000Y-130025001D03*
X136639000Y-132258000D03*
X134989000Y-132258000D03*
X136639000Y-134544000D03*
X134989000Y-134544000D03*
D24*
X124257000Y-43168000D03*
X124257000Y-44818000D03*
D22*
X131369000Y-44818000D03*
X131369000Y-43168000D03*
D21*
X72747234Y-48269483D03*
X74397234Y-48269483D03*
D24*
X129591000Y-43168000D03*
X129591000Y-44818000D03*
D19*
X111524500Y-160769500D03*
X111524500Y-162669500D03*
X113399500Y-161719500D03*
D25*
X62750000Y-34000000D03*
X137250000Y-34000000D03*
X62750000Y-166000000D03*
X137250000Y-166000000D03*
X79967671Y-119703353D03*
X120003581Y-119703353D03*
D24*
X129768800Y-120726400D03*
X129768800Y-122376400D03*
X132054800Y-120726400D03*
X132054800Y-122376400D03*
D26*
X61750000Y-40000000D03*
X138250000Y-40000000D03*
X138250000Y-160000000D03*
X61750000Y-160000000D03*
D27*
X72284984Y-63751733D03*
X75234984Y-63751733D03*
D28*
X89877800Y-160706000D03*
X91427800Y-160706000D03*
D29*
X115494000Y-164676000D03*
X115494000Y-166226000D03*
D30*
X72301984Y-66291733D03*
X74201984Y-66291733D03*
D28*
X63078984Y-60954483D03*
X64628984Y-60954483D03*
D29*
X89992400Y-148704200D03*
X89992400Y-150254200D03*
D31*
X115684500Y-162606000D03*
X115684500Y-160706000D03*
X109398000Y-162672000D03*
X109398000Y-160772000D03*
X109398000Y-166733500D03*
X109398000Y-164833500D03*
D32*
X138180984Y-150038000D03*
X136630984Y-150038000D03*
D29*
X110795000Y-157137000D03*
X110795000Y-158687000D03*
D28*
X129882800Y-124472400D03*
X131432800Y-124472400D03*
X68999000Y-71139250D03*
X70549000Y-71139250D03*
D29*
X121336000Y-49441000D03*
X121336000Y-50991000D03*
D28*
X110401000Y-141148000D03*
X111951000Y-141148000D03*
D30*
X110226000Y-143434000D03*
X112126000Y-143434000D03*
D28*
X110401000Y-145720000D03*
X111951000Y-145720000D03*
X72349984Y-68482483D03*
X73899984Y-68482483D03*
D33*
X72743984Y-56623983D03*
X72743984Y-58523983D03*
D34*
X61211984Y-46465733D03*
X63111984Y-46465733D03*
X62161984Y-44590733D03*
D19*
X122562500Y-69266000D03*
X122562500Y-71166000D03*
X124437500Y-70216000D03*
D34*
X64252000Y-100302500D03*
X66152000Y-100302500D03*
X65202000Y-98427500D03*
D19*
X134876500Y-136642000D03*
X134876500Y-138542000D03*
X136751500Y-137592000D03*
D35*
X126162000Y-60884000D03*
X126162000Y-67584000D03*
D36*
X120612000Y-65234000D03*
X120612000Y-63234000D03*
D37*
X137338000Y-45860500D03*
X137338000Y-44285500D03*
D24*
X127813000Y-43168000D03*
X127813000Y-44818000D03*
D21*
X126607000Y-56566000D03*
X128257000Y-56566000D03*
D38*
X124559500Y-56500000D03*
X124559500Y-54600000D03*
X122684500Y-55550000D03*
D19*
X130304500Y-54600000D03*
X130304500Y-56500000D03*
X132179500Y-55550000D03*
D39*
X61415584Y-50225283D03*
D40*
X61415584Y-48925283D03*
D41*
X138497984Y-152400000D03*
X138497984Y-156500000D03*
X136897984Y-156500000D03*
X136897984Y-152400000D03*
D42*
X135941000Y-103302000D03*
X135941000Y-106985000D03*
X68885000Y-74727000D03*
X65075000Y-74727000D03*
D43*
X118000000Y-87698074D03*
X82000000Y-87698074D03*
D44*
X109500000Y-87698074D03*
X108500000Y-87698074D03*
D21*
X126607000Y-54534000D03*
X128257000Y-54534000D03*
D24*
X81229400Y-130811200D03*
X81229400Y-132461200D03*
D29*
X109144000Y-157137000D03*
X109144000Y-158687000D03*
D21*
X136580984Y-147752000D03*
X138230984Y-147752000D03*
D19*
X72613968Y-52634716D03*
X72613968Y-54534716D03*
X74488968Y-53584716D03*
D32*
X74347234Y-50555483D03*
X72797234Y-50555483D03*
D42*
X68885000Y-78283000D03*
X66211984Y-105328233D03*
D33*
X119304000Y-49393000D03*
X119304000Y-51293000D03*
D45*
X91942000Y-149022000D03*
X108052000Y-149022000D03*
D46*
X90348000Y-159133000D03*
X90348000Y-156183000D03*
D27*
X72617000Y-70885250D03*
X75567000Y-70885250D03*
D47*
X69986734Y-52886483D03*
X69986734Y-52236483D03*
X69986734Y-51586483D03*
X69986734Y-50936483D03*
X69986734Y-50286483D03*
X69986734Y-49636483D03*
X69986734Y-48986483D03*
X69986734Y-48336483D03*
X64261734Y-48336483D03*
X64261734Y-48986483D03*
X64261734Y-49636483D03*
X64261734Y-50286483D03*
X64261734Y-50936483D03*
X64261734Y-51586483D03*
X64261734Y-52236483D03*
X64261734Y-52886483D03*
D28*
X134988200Y-127139400D03*
X136538200Y-127139400D03*
D20*
X132250000Y-87698074D03*
X130750000Y-87698074D03*
D48*
X87617000Y-160490000D03*
X87617000Y-158990000D03*
X87617000Y-157490000D03*
X87617000Y-155990000D03*
X87617000Y-154490000D03*
X87617000Y-152990000D03*
X87617000Y-151490000D03*
X87617000Y-149990000D03*
X87617000Y-148490000D03*
X87617000Y-146990000D03*
X87617000Y-145490000D03*
X87617000Y-143990000D03*
X87617000Y-142490000D03*
X87617000Y-140990000D03*
X87617000Y-139490000D03*
X87617000Y-137990000D03*
D49*
X85742000Y-137240000D03*
X84242000Y-137240000D03*
X82742000Y-137240000D03*
X81242000Y-137240000D03*
X79742000Y-137240000D03*
X78242000Y-137240000D03*
X76742000Y-137240000D03*
X75242000Y-137240000D03*
X73742000Y-137240000D03*
X72242000Y-137240000D03*
D48*
X70367000Y-137890000D03*
X70367000Y-139390000D03*
X70367000Y-140890000D03*
X70367000Y-142390000D03*
X70367000Y-143890000D03*
X70367000Y-145390000D03*
X70367000Y-146890000D03*
X70367000Y-148390000D03*
X70367000Y-149890000D03*
X70367000Y-151390000D03*
X70367000Y-152890000D03*
X70367000Y-154390000D03*
X70367000Y-155890000D03*
X70367000Y-157490000D03*
X70367000Y-158990000D03*
X70367000Y-160390000D03*
D50*
X80182000Y-152450000D03*
D51*
X69695984Y-68577733D03*
D52*
X63091984Y-66291733D03*
D51*
X69695984Y-66291733D03*
X69695984Y-64005733D03*
D53*
X70325484Y-57840483D03*
X70325484Y-56890483D03*
X70325484Y-55940483D03*
X68050484Y-55940483D03*
X68050484Y-56890483D03*
X68050484Y-57840483D03*
D23*
X66036984Y-102528233D03*
X64386984Y-102528233D03*
D54*
X128428000Y-47643500D03*
X127928000Y-47643500D03*
X127428000Y-47643500D03*
X126928000Y-47643500D03*
X126428000Y-47643500D03*
X125928000Y-47643500D03*
D55*
X125240500Y-48331000D03*
X125240500Y-48831000D03*
X125240500Y-49331000D03*
X125240500Y-49831000D03*
X125240500Y-50331000D03*
X125240500Y-50831000D03*
D54*
X125928000Y-51518500D03*
X126428000Y-51518500D03*
X126928000Y-51518500D03*
X127428000Y-51518500D03*
X127928000Y-51518500D03*
X128428000Y-51518500D03*
D55*
X129115500Y-50831000D03*
X129115500Y-50331000D03*
X129115500Y-49831000D03*
X129115500Y-49331000D03*
X129115500Y-48831000D03*
X129115500Y-48331000D03*
D56*
X127178000Y-49581000D03*
D57*
X136451500Y-123215800D03*
D58*
X136451500Y-122715800D03*
X136451500Y-122215800D03*
D57*
X136451500Y-121715800D03*
D59*
X135814000Y-121605800D03*
D57*
X135176500Y-121715800D03*
D58*
X135176500Y-122215800D03*
X135176500Y-122715800D03*
D57*
X135176500Y-123215800D03*
D59*
X135814000Y-123325800D03*
D23*
X62336984Y-42728233D03*
X60686984Y-42728233D03*
D60*
X64615984Y-55415483D03*
X64615984Y-58365483D03*
D33*
X70711984Y-59938483D03*
X70711984Y-61838483D03*
D29*
X68425984Y-60113483D03*
X68425984Y-61663483D03*
D22*
X120111984Y-70978233D03*
X120111984Y-69328233D03*
D24*
X135052000Y-116573000D03*
X135052000Y-118223000D03*
D61*
X67411984Y-45508233D03*
X68411984Y-45508233D03*
X69411984Y-45508233D03*
X70411984Y-45508233D03*
X71411984Y-45508233D03*
X72411984Y-45508233D03*
D62*
X64661984Y-43058233D03*
X75161984Y-43058233D03*
D22*
X123114000Y-50978000D03*
X123114000Y-49328000D03*
X64705984Y-115477233D03*
X64705984Y-113827233D03*
D63*
X67050484Y-112934233D03*
X67050484Y-113584233D03*
X67050484Y-114234233D03*
X67050484Y-114884233D03*
X67050484Y-115534233D03*
X67050484Y-116184233D03*
X67050484Y-116834233D03*
X67050484Y-117484233D03*
X67050484Y-118134233D03*
X67050484Y-118784233D03*
X72775484Y-118784233D03*
X72775484Y-118134233D03*
X72775484Y-117484233D03*
X72775484Y-116834233D03*
X72775484Y-116184233D03*
X72775484Y-115534233D03*
X72775484Y-114884233D03*
X72775484Y-114234233D03*
X72775484Y-113584233D03*
X72775484Y-112934233D03*
D22*
X136728400Y-118223000D03*
X136728400Y-116573000D03*
D64*
X114500000Y-34192091D03*
X79500000Y-69192091D03*
X114500000Y-69192091D03*
X79500000Y-34192091D03*
D24*
X126035000Y-43168000D03*
X126035000Y-44818000D03*
X122479000Y-43168000D03*
X122479000Y-44818000D03*
M02*
