G04 #@! TF.GenerationSoftware,KiCad,Pcbnew,6.0.11-2627ca5db0~126~ubuntu22.04.1*
G04 #@! TF.CreationDate,2025-05-27T11:10:10+02:00*
G04 #@! TF.ProjectId,qPocketPCR_Main,71506f63-6b65-4745-9043-525f4d61696e,rev?*
G04 #@! TF.SameCoordinates,Original*
G04 #@! TF.FileFunction,Profile,NP*
%FSLAX46Y46*%
G04 Gerber Fmt 4.6, Leading zero omitted, Abs format (unit mm)*
G04 Created by KiCad (PCBNEW 6.0.11-2627ca5db0~126~ubuntu22.04.1) date 2025-05-27 11:10:10*
%MOMM*%
%LPD*%
G01*
G04 APERTURE LIST*
G04 #@! TA.AperFunction,Profile*
%ADD10C,0.150000*%
G04 #@! TD*
G04 #@! TA.AperFunction,Profile*
%ADD11C,0.150001*%
G04 #@! TD*
G04 APERTURE END LIST*
D10*
X70000000Y-162300000D02*
X88000000Y-162300000D01*
D11*
X72411984Y-82548251D02*
X63173309Y-82548251D01*
X72411984Y-83448251D02*
X63973309Y-83448074D01*
D10*
X72411984Y-91948075D02*
X72411984Y-92848075D01*
X73611984Y-82548251D02*
X73611984Y-83448074D01*
X126411984Y-82548251D02*
X126411984Y-83448074D01*
X73611984Y-91948075D02*
X73611984Y-92848075D01*
X126411984Y-91948075D02*
X126411984Y-92848075D01*
X127611984Y-91948075D02*
X127611984Y-92848075D01*
X127611984Y-82548251D02*
X127611984Y-83448074D01*
X135998276Y-91948075D02*
X135998276Y-83448074D01*
X136798276Y-82548251D02*
X136798276Y-92848075D01*
X73611984Y-83448074D02*
X99411984Y-83448074D01*
X88000000Y-162300000D02*
X88000000Y-169981846D01*
X141241405Y-33963397D02*
X141241405Y-165994786D01*
X58741177Y-165994786D02*
G75*
G03*
X62728467Y-169982023I3987323J86D01*
G01*
D11*
X70000000Y-169981846D02*
X62728467Y-169981669D01*
D10*
X100611984Y-82548251D02*
X100611984Y-83448074D01*
X100611984Y-91948075D02*
X100611984Y-92848075D01*
X100611984Y-91948075D02*
X126411984Y-91948075D01*
X99411984Y-91948075D02*
X99411984Y-92848075D01*
D11*
X63173309Y-82548251D02*
X63173309Y-92848075D01*
D10*
X72411984Y-82548251D02*
X72411984Y-83448074D01*
X62728467Y-29976507D02*
G75*
G03*
X58741407Y-33963574I-7J-3987053D01*
G01*
X73611984Y-92848075D02*
X99411984Y-92848075D01*
D11*
X63973309Y-83448074D02*
X63973309Y-91948075D01*
D10*
X127611984Y-83448074D02*
X135998276Y-83448074D01*
X127611984Y-82548251D02*
X136798276Y-82548251D01*
X63973309Y-91948075D02*
X72411984Y-91948075D01*
X70000000Y-169981846D02*
X70000000Y-162300000D01*
X100611984Y-82548251D02*
X126411984Y-82548251D01*
D11*
X137254168Y-29976514D02*
X62728467Y-29976514D01*
D10*
X141241340Y-33963397D02*
G75*
G03*
X137254168Y-29976160I-3987140J97D01*
G01*
X88000000Y-169981846D02*
X137254168Y-169981846D01*
X127611984Y-91948075D02*
X135998276Y-91948075D01*
X73611984Y-82548251D02*
X99411984Y-82548251D01*
X73611984Y-91948075D02*
X99411984Y-91948075D01*
X100611984Y-83448074D02*
X126411984Y-83448074D01*
X63173309Y-92848075D02*
X72411984Y-92848075D01*
X137254168Y-169981828D02*
G75*
G03*
X141241228Y-165994786I32J3987028D01*
G01*
X127611984Y-92848075D02*
X136798276Y-92848075D01*
X100611984Y-92848075D02*
X126411984Y-92848075D01*
X99411984Y-82548251D02*
X99411984Y-83448074D01*
D11*
X58741407Y-33963574D02*
X58741230Y-165994786D01*
M02*
