G04 #@! TF.GenerationSoftware,KiCad,Pcbnew,6.0.11-2627ca5db0~126~ubuntu22.04.1*
G04 #@! TF.CreationDate,2025-05-27T11:10:10+02:00*
G04 #@! TF.ProjectId,qPocketPCR_Main,71506f63-6b65-4745-9043-525f4d61696e,rev?*
G04 #@! TF.SameCoordinates,Original*
G04 #@! TF.FileFunction,Other,ECO2*
%FSLAX46Y46*%
G04 Gerber Fmt 4.6, Leading zero omitted, Abs format (unit mm)*
G04 Created by KiCad (PCBNEW 6.0.11-2627ca5db0~126~ubuntu22.04.1) date 2025-05-27 11:10:10*
%MOMM*%
%LPD*%
G01*
G04 APERTURE LIST*
%ADD10C,0.100000*%
%ADD11C,0.200000*%
G04 APERTURE END LIST*
D10*
X129221984Y-84918233D02*
X128741984Y-84808233D01*
X148431984Y-83398233D02*
X134211984Y-90538233D01*
X129161984Y-84628233D02*
X129221984Y-84918233D01*
X134521984Y-90248233D02*
X134701984Y-90538233D01*
X128771984Y-84788233D02*
X129161984Y-84628233D01*
X134701984Y-90538233D02*
X134131984Y-90568233D01*
X134211984Y-90538233D02*
X134521984Y-90248233D01*
X147961984Y-82918233D02*
X128771984Y-84788233D01*
D11*
X143654841Y-79667304D02*
X144511984Y-79667304D01*
X144083412Y-81167304D02*
X144083412Y-79667304D01*
X145011984Y-81167304D02*
X145011984Y-80167304D01*
X145011984Y-80453018D02*
X145083412Y-80310161D01*
X145154841Y-80238733D01*
X145297698Y-80167304D01*
X145440555Y-80167304D01*
X146583412Y-81167304D02*
X146583412Y-80381590D01*
X146511984Y-80238733D01*
X146369126Y-80167304D01*
X146083412Y-80167304D01*
X145940555Y-80238733D01*
X146583412Y-81095875D02*
X146440555Y-81167304D01*
X146083412Y-81167304D01*
X145940555Y-81095875D01*
X145869126Y-80953018D01*
X145869126Y-80810161D01*
X145940555Y-80667304D01*
X146083412Y-80595875D01*
X146440555Y-80595875D01*
X146583412Y-80524447D01*
X147940555Y-81095875D02*
X147797698Y-81167304D01*
X147511984Y-81167304D01*
X147369126Y-81095875D01*
X147297698Y-81024447D01*
X147226269Y-80881590D01*
X147226269Y-80453018D01*
X147297698Y-80310161D01*
X147369126Y-80238733D01*
X147511984Y-80167304D01*
X147797698Y-80167304D01*
X147940555Y-80238733D01*
X148583412Y-81167304D02*
X148583412Y-79667304D01*
X148726269Y-80595875D02*
X149154841Y-81167304D01*
X149154841Y-80167304D02*
X148583412Y-80738733D01*
X150869126Y-79595875D02*
X149583412Y-81524447D01*
X151297698Y-81095875D02*
X151511984Y-81167304D01*
X151869126Y-81167304D01*
X152011984Y-81095875D01*
X152083412Y-81024447D01*
X152154841Y-80881590D01*
X152154841Y-80738733D01*
X152083412Y-80595875D01*
X152011984Y-80524447D01*
X151869126Y-80453018D01*
X151583412Y-80381590D01*
X151440555Y-80310161D01*
X151369126Y-80238733D01*
X151297698Y-80095875D01*
X151297698Y-79953018D01*
X151369126Y-79810161D01*
X151440555Y-79738733D01*
X151583412Y-79667304D01*
X151940555Y-79667304D01*
X152154841Y-79738733D01*
X152797698Y-80167304D02*
X152797698Y-81667304D01*
X152797698Y-80238733D02*
X152940555Y-80167304D01*
X153226269Y-80167304D01*
X153369126Y-80238733D01*
X153440555Y-80310161D01*
X153511984Y-80453018D01*
X153511984Y-80881590D01*
X153440555Y-81024447D01*
X153369126Y-81095875D01*
X153226269Y-81167304D01*
X152940555Y-81167304D01*
X152797698Y-81095875D01*
X154797698Y-81167304D02*
X154797698Y-80381590D01*
X154726269Y-80238733D01*
X154583412Y-80167304D01*
X154297698Y-80167304D01*
X154154841Y-80238733D01*
X154797698Y-81095875D02*
X154654841Y-81167304D01*
X154297698Y-81167304D01*
X154154841Y-81095875D01*
X154083412Y-80953018D01*
X154083412Y-80810161D01*
X154154841Y-80667304D01*
X154297698Y-80595875D01*
X154654841Y-80595875D01*
X154797698Y-80524447D01*
X156154841Y-81095875D02*
X156011984Y-81167304D01*
X155726269Y-81167304D01*
X155583412Y-81095875D01*
X155511984Y-81024447D01*
X155440555Y-80881590D01*
X155440555Y-80453018D01*
X155511984Y-80310161D01*
X155583412Y-80238733D01*
X155726269Y-80167304D01*
X156011984Y-80167304D01*
X156154841Y-80238733D01*
X156797698Y-81167304D02*
X156797698Y-80167304D01*
X156797698Y-79667304D02*
X156726269Y-79738733D01*
X156797698Y-79810161D01*
X156869126Y-79738733D01*
X156797698Y-79667304D01*
X156797698Y-79810161D01*
X157511984Y-80167304D02*
X157511984Y-81167304D01*
X157511984Y-80310161D02*
X157583412Y-80238733D01*
X157726269Y-80167304D01*
X157940555Y-80167304D01*
X158083412Y-80238733D01*
X158154841Y-80381590D01*
X158154841Y-81167304D01*
X159511984Y-80167304D02*
X159511984Y-81381590D01*
X159440555Y-81524447D01*
X159369126Y-81595875D01*
X159226269Y-81667304D01*
X159011984Y-81667304D01*
X158869126Y-81595875D01*
X159511984Y-81095875D02*
X159369126Y-81167304D01*
X159083412Y-81167304D01*
X158940555Y-81095875D01*
X158869126Y-81024447D01*
X158797698Y-80881590D01*
X158797698Y-80453018D01*
X158869126Y-80310161D01*
X158940555Y-80238733D01*
X159083412Y-80167304D01*
X159369126Y-80167304D01*
X159511984Y-80238733D01*
X161369126Y-81167304D02*
X161369126Y-80167304D01*
X161369126Y-80310161D02*
X161440555Y-80238733D01*
X161583412Y-80167304D01*
X161797698Y-80167304D01*
X161940555Y-80238733D01*
X162011984Y-80381590D01*
X162011984Y-81167304D01*
X162011984Y-80381590D02*
X162083412Y-80238733D01*
X162226269Y-80167304D01*
X162440555Y-80167304D01*
X162583412Y-80238733D01*
X162654841Y-80381590D01*
X162654841Y-81167304D01*
X164011984Y-80167304D02*
X164011984Y-81167304D01*
X163369126Y-80167304D02*
X163369126Y-80953018D01*
X163440555Y-81095875D01*
X163583412Y-81167304D01*
X163797698Y-81167304D01*
X163940555Y-81095875D01*
X164011984Y-81024447D01*
X164654841Y-81095875D02*
X164797698Y-81167304D01*
X165083412Y-81167304D01*
X165226269Y-81095875D01*
X165297698Y-80953018D01*
X165297698Y-80881590D01*
X165226269Y-80738733D01*
X165083412Y-80667304D01*
X164869126Y-80667304D01*
X164726269Y-80595875D01*
X164654841Y-80453018D01*
X164654841Y-80381590D01*
X164726269Y-80238733D01*
X164869126Y-80167304D01*
X165083412Y-80167304D01*
X165226269Y-80238733D01*
X165726269Y-80167304D02*
X166297698Y-80167304D01*
X165940555Y-79667304D02*
X165940555Y-80953018D01*
X166011984Y-81095875D01*
X166154841Y-81167304D01*
X166297698Y-81167304D01*
X167940555Y-81167304D02*
X167940555Y-79667304D01*
X167940555Y-80238733D02*
X168083412Y-80167304D01*
X168369126Y-80167304D01*
X168511984Y-80238733D01*
X168583412Y-80310161D01*
X168654841Y-80453018D01*
X168654841Y-80881590D01*
X168583412Y-81024447D01*
X168511984Y-81095875D01*
X168369126Y-81167304D01*
X168083412Y-81167304D01*
X167940555Y-81095875D01*
X169869126Y-81095875D02*
X169726269Y-81167304D01*
X169440555Y-81167304D01*
X169297698Y-81095875D01*
X169226269Y-80953018D01*
X169226269Y-80381590D01*
X169297698Y-80238733D01*
X169440555Y-80167304D01*
X169726269Y-80167304D01*
X169869126Y-80238733D01*
X169940555Y-80381590D01*
X169940555Y-80524447D01*
X169226269Y-80667304D01*
X172440555Y-79667304D02*
X171726269Y-79667304D01*
X171654841Y-80381590D01*
X171726269Y-80310161D01*
X171869126Y-80238733D01*
X172226269Y-80238733D01*
X172369126Y-80310161D01*
X172440555Y-80381590D01*
X172511984Y-80524447D01*
X172511984Y-80881590D01*
X172440555Y-81024447D01*
X172369126Y-81095875D01*
X172226269Y-81167304D01*
X171869126Y-81167304D01*
X171726269Y-81095875D01*
X171654841Y-81024447D01*
X173154841Y-81167304D02*
X173154841Y-80167304D01*
X173154841Y-80310161D02*
X173226269Y-80238733D01*
X173369126Y-80167304D01*
X173583412Y-80167304D01*
X173726269Y-80238733D01*
X173797698Y-80381590D01*
X173797698Y-81167304D01*
X173797698Y-80381590D02*
X173869126Y-80238733D01*
X174011984Y-80167304D01*
X174226269Y-80167304D01*
X174369126Y-80238733D01*
X174440555Y-80381590D01*
X174440555Y-81167304D01*
X175154841Y-81167304D02*
X175154841Y-80167304D01*
X175154841Y-79667304D02*
X175083412Y-79738733D01*
X175154841Y-79810161D01*
X175226269Y-79738733D01*
X175154841Y-79667304D01*
X175154841Y-79810161D01*
X176083412Y-81167304D02*
X175940555Y-81095875D01*
X175869126Y-80953018D01*
X175869126Y-79667304D01*
X177726269Y-79595875D02*
X176440555Y-81524447D01*
X178940555Y-79667304D02*
X178226269Y-79667304D01*
X178154841Y-80381590D01*
X178226269Y-80310161D01*
X178369126Y-80238733D01*
X178726269Y-80238733D01*
X178869126Y-80310161D01*
X178940555Y-80381590D01*
X179011984Y-80524447D01*
X179011984Y-80881590D01*
X178940555Y-81024447D01*
X178869126Y-81095875D01*
X178726269Y-81167304D01*
X178369126Y-81167304D01*
X178226269Y-81095875D01*
X178154841Y-81024447D01*
X179654841Y-81167304D02*
X179654841Y-80167304D01*
X179654841Y-80310161D02*
X179726269Y-80238733D01*
X179869126Y-80167304D01*
X180083412Y-80167304D01*
X180226269Y-80238733D01*
X180297698Y-80381590D01*
X180297698Y-81167304D01*
X180297698Y-80381590D02*
X180369126Y-80238733D01*
X180511984Y-80167304D01*
X180726269Y-80167304D01*
X180869126Y-80238733D01*
X180940555Y-80381590D01*
X180940555Y-81167304D01*
X181654841Y-81167304D02*
X181654841Y-80167304D01*
X181654841Y-79667304D02*
X181583412Y-79738733D01*
X181654841Y-79810161D01*
X181726269Y-79738733D01*
X181654841Y-79667304D01*
X181654841Y-79810161D01*
X182583412Y-81167304D02*
X182440555Y-81095875D01*
X182369126Y-80953018D01*
X182369126Y-79667304D01*
X183154841Y-81024447D02*
X183226269Y-81095875D01*
X183154841Y-81167304D01*
X183083412Y-81095875D01*
X183154841Y-81024447D01*
X183154841Y-81167304D01*
X151440555Y-83582304D02*
X151440555Y-82082304D01*
X151797698Y-82082304D01*
X152011984Y-82153733D01*
X152154841Y-82296590D01*
X152226269Y-82439447D01*
X152297698Y-82725161D01*
X152297698Y-82939447D01*
X152226269Y-83225161D01*
X152154841Y-83368018D01*
X152011984Y-83510875D01*
X151797698Y-83582304D01*
X151440555Y-83582304D01*
X153226269Y-82082304D02*
X153511984Y-82082304D01*
X153654841Y-82153733D01*
X153797698Y-82296590D01*
X153869126Y-82582304D01*
X153869126Y-83082304D01*
X153797698Y-83368018D01*
X153654841Y-83510875D01*
X153511984Y-83582304D01*
X153226269Y-83582304D01*
X153083412Y-83510875D01*
X152940555Y-83368018D01*
X152869126Y-83082304D01*
X152869126Y-82582304D01*
X152940555Y-82296590D01*
X153083412Y-82153733D01*
X153226269Y-82082304D01*
X155654841Y-83582304D02*
X155654841Y-82082304D01*
X156511984Y-83582304D01*
X156511984Y-82082304D01*
X157511984Y-82082304D02*
X157797698Y-82082304D01*
X157940555Y-82153733D01*
X158083412Y-82296590D01*
X158154841Y-82582304D01*
X158154841Y-83082304D01*
X158083412Y-83368018D01*
X157940555Y-83510875D01*
X157797698Y-83582304D01*
X157511984Y-83582304D01*
X157369126Y-83510875D01*
X157226269Y-83368018D01*
X157154841Y-83082304D01*
X157154841Y-82582304D01*
X157226269Y-82296590D01*
X157369126Y-82153733D01*
X157511984Y-82082304D01*
X158583412Y-82082304D02*
X159440555Y-82082304D01*
X159011984Y-83582304D02*
X159011984Y-82082304D01*
X161940555Y-83439447D02*
X161869126Y-83510875D01*
X161654841Y-83582304D01*
X161511984Y-83582304D01*
X161297698Y-83510875D01*
X161154841Y-83368018D01*
X161083412Y-83225161D01*
X161011984Y-82939447D01*
X161011984Y-82725161D01*
X161083412Y-82439447D01*
X161154841Y-82296590D01*
X161297698Y-82153733D01*
X161511984Y-82082304D01*
X161654841Y-82082304D01*
X161869126Y-82153733D01*
X161940555Y-82225161D01*
X162583412Y-83582304D02*
X162583412Y-82082304D01*
X162583412Y-82796590D02*
X163440555Y-82796590D01*
X163440555Y-83582304D02*
X163440555Y-82082304D01*
X164083412Y-83153733D02*
X164797698Y-83153733D01*
X163940555Y-83582304D02*
X164440555Y-82082304D01*
X164940555Y-83582304D01*
X165440555Y-83582304D02*
X165440555Y-82082304D01*
X166297698Y-83582304D01*
X166297698Y-82082304D01*
X167797698Y-82153733D02*
X167654841Y-82082304D01*
X167440555Y-82082304D01*
X167226269Y-82153733D01*
X167083412Y-82296590D01*
X167011984Y-82439447D01*
X166940555Y-82725161D01*
X166940555Y-82939447D01*
X167011984Y-83225161D01*
X167083412Y-83368018D01*
X167226269Y-83510875D01*
X167440555Y-83582304D01*
X167583412Y-83582304D01*
X167797698Y-83510875D01*
X167869126Y-83439447D01*
X167869126Y-82939447D01*
X167583412Y-82939447D01*
X168511984Y-82796590D02*
X169011984Y-82796590D01*
X169226269Y-83582304D02*
X168511984Y-83582304D01*
X168511984Y-82082304D01*
X169226269Y-82082304D01*
X169869126Y-83439447D02*
X169940555Y-83510875D01*
X169869126Y-83582304D01*
X169797698Y-83510875D01*
X169869126Y-83439447D01*
X169869126Y-83582304D01*
M02*
