G04 #@! TF.GenerationSoftware,KiCad,Pcbnew,6.0.11-2627ca5db0~126~ubuntu22.04.1*
G04 #@! TF.CreationDate,2025-05-27T11:15:30+02:00*
G04 #@! TF.ProjectId,TopCoverQPCR,546f7043-6f76-4657-9251-5043522e6b69,rev?*
G04 #@! TF.SameCoordinates,Original*
G04 #@! TF.FileFunction,Legend,Top*
G04 #@! TF.FilePolarity,Positive*
%FSLAX46Y46*%
G04 Gerber Fmt 4.6, Leading zero omitted, Abs format (unit mm)*
G04 Created by KiCad (PCBNEW 6.0.11-2627ca5db0~126~ubuntu22.04.1) date 2025-05-27 11:15:30*
%MOMM*%
%LPD*%
G01*
G04 APERTURE LIST*
G04 APERTURE END LIST*
G36*
X139939958Y-150566176D02*
G01*
X139965483Y-150613417D01*
X139980717Y-150706983D01*
X139990024Y-150864112D01*
X139991802Y-150911530D01*
X140004100Y-151259799D01*
X141294028Y-151283191D01*
X141294028Y-151537615D01*
X140647367Y-151549321D01*
X140000706Y-151561026D01*
X140000706Y-151920356D01*
X139999549Y-152094659D01*
X139992994Y-152200950D01*
X139976420Y-152256021D01*
X139945200Y-152276664D01*
X139901763Y-152279686D01*
X139812710Y-152268724D01*
X139774551Y-152251416D01*
X139763834Y-152199629D01*
X139755855Y-152079335D01*
X139750523Y-151906791D01*
X139747749Y-151698250D01*
X139747440Y-151469969D01*
X139749507Y-151238201D01*
X139753859Y-151019202D01*
X139760406Y-150829227D01*
X139769056Y-150684531D01*
X139779719Y-150601369D01*
X139783815Y-150589954D01*
X139850936Y-150548905D01*
X139899777Y-150548019D01*
X139939958Y-150566176D01*
G37*
G36*
X126565871Y-31890863D02*
G01*
X126568189Y-31698285D01*
X126569824Y-31597883D01*
X126855464Y-31597883D01*
X127492433Y-31597883D01*
X127737096Y-31597466D01*
X127910508Y-31594884D01*
X128026229Y-31588138D01*
X128097816Y-31575230D01*
X128138827Y-31554162D01*
X128162820Y-31522935D01*
X128175260Y-31497236D01*
X128198512Y-31381540D01*
X128172859Y-31306418D01*
X128149853Y-31271660D01*
X128115097Y-31247199D01*
X128054945Y-31231235D01*
X127955751Y-31221965D01*
X127803871Y-31217588D01*
X127585656Y-31216301D01*
X127490032Y-31216247D01*
X126855464Y-31216247D01*
X126855464Y-31597883D01*
X126569824Y-31597883D01*
X126579838Y-30983025D01*
X127237100Y-30970242D01*
X127563477Y-30966152D01*
X127816803Y-30969117D01*
X128008649Y-30980585D01*
X128150586Y-31002007D01*
X128254186Y-31034832D01*
X128331020Y-31080510D01*
X128366130Y-31111706D01*
X128440113Y-31233206D01*
X128470302Y-31385069D01*
X128455486Y-31534762D01*
X128394451Y-31649752D01*
X128386470Y-31657451D01*
X128335917Y-31710484D01*
X128338072Y-31754221D01*
X128396854Y-31820872D01*
X128407672Y-31831711D01*
X128487433Y-31965006D01*
X128499945Y-32119223D01*
X128450440Y-32271255D01*
X128344150Y-32397992D01*
X128268577Y-32446030D01*
X128176212Y-32471716D01*
X128023063Y-32493007D01*
X127825763Y-32509600D01*
X127600946Y-32521194D01*
X127365247Y-32527488D01*
X127135298Y-32528180D01*
X126927735Y-32522969D01*
X126759192Y-32511552D01*
X126646301Y-32493629D01*
X126608477Y-32476127D01*
X126587746Y-32421505D01*
X126574009Y-32311055D01*
X126572584Y-32276347D01*
X126855464Y-32276347D01*
X127467293Y-32276347D01*
X127717976Y-32274748D01*
X127897276Y-32269077D01*
X128018573Y-32258018D01*
X128095247Y-32240258D01*
X128140678Y-32214483D01*
X128145757Y-32209712D01*
X128206703Y-32100981D01*
X128187143Y-31991334D01*
X128118149Y-31918317D01*
X128059388Y-31890212D01*
X127967945Y-31870928D01*
X127829871Y-31859110D01*
X127631216Y-31853399D01*
X127439685Y-31852307D01*
X126855464Y-31852307D01*
X126855464Y-32276347D01*
X126572584Y-32276347D01*
X126566855Y-32136825D01*
X126565871Y-31890863D01*
G37*
G36*
X125414851Y-30969030D02*
G01*
X125515583Y-30988116D01*
X125556249Y-31032323D01*
X125562142Y-31089035D01*
X125555578Y-31148418D01*
X125522699Y-31182963D01*
X125443728Y-31202574D01*
X125307717Y-31216413D01*
X125162415Y-31233314D01*
X125048341Y-31255055D01*
X125000288Y-31271921D01*
X124954421Y-31344503D01*
X124954045Y-31444435D01*
X124995940Y-31529644D01*
X125021490Y-31549005D01*
X125091241Y-31565519D01*
X125226334Y-31581731D01*
X125407317Y-31595780D01*
X125614738Y-31605803D01*
X125615137Y-31605816D01*
X125843763Y-31615645D01*
X126004875Y-31628551D01*
X126115766Y-31647382D01*
X126193731Y-31674984D01*
X126251197Y-31710539D01*
X126372196Y-31846148D01*
X126425913Y-32007976D01*
X126413260Y-32174594D01*
X126335153Y-32324578D01*
X126220877Y-32421309D01*
X126152394Y-32455064D01*
X126070543Y-32479720D01*
X125959947Y-32497228D01*
X125805230Y-32509537D01*
X125591015Y-32518596D01*
X125413802Y-32523635D01*
X125157894Y-32529050D01*
X124973620Y-32529603D01*
X124847896Y-32524361D01*
X124767640Y-32512391D01*
X124719767Y-32492760D01*
X124697318Y-32472537D01*
X124661125Y-32390116D01*
X124664450Y-32343445D01*
X124689545Y-32319381D01*
X124751159Y-32301272D01*
X124860370Y-32287945D01*
X125028251Y-32278227D01*
X125265879Y-32270945D01*
X125370486Y-32268698D01*
X125641697Y-32262156D01*
X125839635Y-32252544D01*
X125975836Y-32236318D01*
X126061833Y-32209931D01*
X126109160Y-32169837D01*
X126129352Y-32112492D01*
X126133944Y-32034350D01*
X126133946Y-32034016D01*
X126116781Y-31958562D01*
X126056896Y-31906026D01*
X125943528Y-31873030D01*
X125765917Y-31856196D01*
X125554328Y-31852070D01*
X125354811Y-31847477D01*
X125169382Y-31835371D01*
X125026494Y-31817931D01*
X124981015Y-31808206D01*
X124813626Y-31726331D01*
X124702323Y-31600398D01*
X124652789Y-31448690D01*
X124670708Y-31289489D01*
X124761760Y-31141076D01*
X124770774Y-31131809D01*
X124929029Y-31029153D01*
X125143298Y-30972842D01*
X125395838Y-30967360D01*
X125414851Y-30969030D01*
G37*
G36*
X140669570Y-152650721D02*
G01*
X140681173Y-153382190D01*
X140781484Y-153382190D01*
X140890987Y-153355288D01*
X140971074Y-153307983D01*
X141005226Y-153273943D01*
X141029768Y-153228373D01*
X141046603Y-153157373D01*
X141057632Y-153047047D01*
X141064758Y-152883496D01*
X141069882Y-152652822D01*
X141071181Y-152576514D01*
X141082008Y-151919252D01*
X141294028Y-151919252D01*
X141306883Y-152491706D01*
X141310993Y-152806394D01*
X141306290Y-153048645D01*
X141291140Y-153230527D01*
X141263906Y-153364106D01*
X141222954Y-153461448D01*
X141166647Y-153534622D01*
X141165347Y-153535928D01*
X141118513Y-153577849D01*
X141066116Y-153606183D01*
X140991520Y-153623576D01*
X140878088Y-153632677D01*
X140709184Y-153636133D01*
X140532683Y-153636614D01*
X140307275Y-153635280D01*
X140150566Y-153629821D01*
X140046472Y-153618050D01*
X139978907Y-153597778D01*
X139931784Y-153566818D01*
X139916976Y-153552884D01*
X139847895Y-153460529D01*
X139803232Y-153336976D01*
X139778733Y-153164372D01*
X139770246Y-152936948D01*
X139770320Y-152781892D01*
X139778445Y-152693148D01*
X139801049Y-152652235D01*
X139844561Y-152640672D01*
X139873494Y-152640120D01*
X139928145Y-152645163D01*
X139961913Y-152672230D01*
X139982248Y-152739226D01*
X139996606Y-152864059D01*
X140003833Y-152953254D01*
X140029275Y-153153390D01*
X140074473Y-153282570D01*
X140148684Y-153353990D01*
X140261163Y-153380848D01*
X140304637Y-153382190D01*
X140422743Y-153382190D01*
X140434346Y-152650721D01*
X140445948Y-151919252D01*
X140657968Y-151919252D01*
X140669570Y-152650721D01*
G37*
G36*
X139748534Y-158961262D02*
G01*
X139750427Y-158731786D01*
X139753370Y-158585894D01*
X139761247Y-158319159D01*
X139770919Y-158122521D01*
X139784163Y-157981268D01*
X139802756Y-157880689D01*
X139828476Y-157806072D01*
X139853297Y-157758658D01*
X139927574Y-157659879D01*
X140019070Y-157604403D01*
X140150478Y-157583890D01*
X140317279Y-157588146D01*
X140463626Y-157610421D01*
X140568955Y-157663294D01*
X140640212Y-157758628D01*
X140684346Y-157908287D01*
X140708303Y-158124135D01*
X140715131Y-158267530D01*
X140729889Y-158694479D01*
X140928494Y-158190338D01*
X141015900Y-157974651D01*
X141082302Y-157827838D01*
X141134075Y-157738507D01*
X141177594Y-157695264D01*
X141210564Y-157686196D01*
X141272173Y-157703563D01*
X141300364Y-157760311D01*
X141293774Y-157863412D01*
X141251039Y-158019836D01*
X141170798Y-158236554D01*
X141051687Y-158520539D01*
X141044041Y-158538112D01*
X140768524Y-159170337D01*
X141031276Y-159191539D01*
X141174849Y-159205008D01*
X141253427Y-159223322D01*
X141286593Y-159257543D01*
X141293933Y-159318733D01*
X141294028Y-159339953D01*
X141294028Y-159467165D01*
X140542409Y-159478740D01*
X139790791Y-159490315D01*
X139763591Y-159381943D01*
X139755337Y-159303540D01*
X139751429Y-159191539D01*
X140000706Y-159191539D01*
X140509554Y-159191539D01*
X140504537Y-158672090D01*
X140500390Y-158457991D01*
X140492860Y-158263819D01*
X140483035Y-158111535D01*
X140472515Y-158025429D01*
X140447726Y-157946641D01*
X140399993Y-157906794D01*
X140303208Y-157889487D01*
X140249805Y-157885517D01*
X140161656Y-157882149D01*
X140097358Y-157892740D01*
X140053133Y-157928604D01*
X140025201Y-158001054D01*
X140009786Y-158121406D01*
X140003107Y-158300972D01*
X140001387Y-158551067D01*
X140001285Y-158629686D01*
X140000706Y-159191539D01*
X139751429Y-159191539D01*
X139750244Y-159157580D01*
X139748534Y-158961262D01*
G37*
G36*
X141000199Y-153793095D02*
G01*
X141110645Y-153855998D01*
X141206640Y-153949710D01*
X141238658Y-153998698D01*
X141261775Y-154056020D01*
X141277423Y-154135525D01*
X141287031Y-154251060D01*
X141292032Y-154416476D01*
X141293858Y-154645618D01*
X141294028Y-154795116D01*
X141294028Y-155523592D01*
X141082008Y-155523592D01*
X141060806Y-154832880D01*
X141050843Y-154556164D01*
X141038240Y-154353455D01*
X141019707Y-154213957D01*
X140991953Y-154126870D01*
X140951689Y-154081398D01*
X140895624Y-154066741D01*
X140828645Y-154071012D01*
X140749453Y-154106232D01*
X140693335Y-154193945D01*
X140657779Y-154342802D01*
X140640274Y-154561453D01*
X140637391Y-154729879D01*
X140626909Y-155020989D01*
X140594909Y-155237905D01*
X140539140Y-155389026D01*
X140457350Y-155482749D01*
X140431123Y-155498977D01*
X140275865Y-155541438D01*
X140103121Y-155529382D01*
X139955140Y-155466275D01*
X139945648Y-155459134D01*
X139866092Y-155354871D01*
X139802038Y-155193842D01*
X139761206Y-155003733D01*
X139751312Y-154812229D01*
X139754112Y-154772054D01*
X139774379Y-154674888D01*
X139823385Y-154637352D01*
X139873494Y-154633108D01*
X139932693Y-154639747D01*
X139967655Y-154672752D01*
X139988343Y-154751754D01*
X140004167Y-154890629D01*
X140025650Y-155066978D01*
X140054230Y-155174537D01*
X140098179Y-155229318D01*
X140165772Y-155247330D01*
X140188834Y-155247966D01*
X140265402Y-155237260D01*
X140321712Y-155197392D01*
X140361822Y-155116736D01*
X140389787Y-154983666D01*
X140409666Y-154786557D01*
X140422261Y-154579081D01*
X140436859Y-154365466D01*
X140456396Y-154175908D01*
X140478390Y-154030214D01*
X140500354Y-153948191D01*
X140501721Y-153945538D01*
X140590297Y-153859646D01*
X140728535Y-153799973D01*
X140882800Y-153776806D01*
X141000199Y-153793095D01*
G37*
G36*
X124440888Y-30978720D02*
G01*
X124485996Y-31011117D01*
X124501764Y-31078649D01*
X124512934Y-31210813D01*
X124519560Y-31387565D01*
X124521696Y-31588857D01*
X124519396Y-31794642D01*
X124512713Y-31984875D01*
X124501702Y-32139507D01*
X124486416Y-32238493D01*
X124482661Y-32250353D01*
X124425049Y-32346670D01*
X124328679Y-32417601D01*
X124182583Y-32466635D01*
X123975794Y-32497265D01*
X123697345Y-32512981D01*
X123653961Y-32514143D01*
X123439093Y-32516329D01*
X123241311Y-32512983D01*
X123083990Y-32504819D01*
X122996699Y-32494029D01*
X122792243Y-32427770D01*
X122662146Y-32332488D01*
X122613033Y-32249806D01*
X122596913Y-32165222D01*
X122585053Y-32020752D01*
X122577504Y-31836444D01*
X122574317Y-31632345D01*
X122575542Y-31428502D01*
X122581231Y-31244964D01*
X122591432Y-31101777D01*
X122606198Y-31018989D01*
X122609907Y-31011117D01*
X122675553Y-30972370D01*
X122747071Y-30968713D01*
X122787731Y-30977047D01*
X122816021Y-30997661D01*
X122834550Y-31044214D01*
X122845930Y-31130366D01*
X122852770Y-31269775D01*
X122857681Y-31476101D01*
X122859215Y-31555479D01*
X122865157Y-31817869D01*
X122878972Y-32007373D01*
X122911983Y-32135842D01*
X122975511Y-32215126D01*
X123080880Y-32257076D01*
X123239413Y-32273545D01*
X123462433Y-32276382D01*
X123547951Y-32276347D01*
X123793656Y-32275350D01*
X123971303Y-32264460D01*
X124092215Y-32231825D01*
X124167716Y-32165593D01*
X124209128Y-32053915D01*
X124227774Y-31884938D01*
X124234977Y-31646812D01*
X124236688Y-31555479D01*
X124241531Y-31325723D01*
X124247497Y-31167104D01*
X124257196Y-31065961D01*
X124273238Y-31008635D01*
X124298235Y-30981467D01*
X124334796Y-30970799D01*
X124348832Y-30968713D01*
X124440888Y-30978720D01*
G37*
G36*
X140681220Y-157113742D02*
G01*
X140823417Y-157113742D01*
X140934800Y-157098087D01*
X141009946Y-157060169D01*
X141012064Y-157057773D01*
X141031114Y-156993086D01*
X141047589Y-156854696D01*
X141060582Y-156653689D01*
X141069185Y-156401154D01*
X141070261Y-156347506D01*
X141082008Y-155693208D01*
X141294028Y-155693208D01*
X141306883Y-156265662D01*
X141310993Y-156580351D01*
X141306290Y-156822602D01*
X141291140Y-157004484D01*
X141263906Y-157138062D01*
X141222954Y-157235405D01*
X141166647Y-157308579D01*
X141165347Y-157309884D01*
X141118434Y-157351863D01*
X141065939Y-157380213D01*
X140991188Y-157397597D01*
X140877511Y-157406673D01*
X140708235Y-157410103D01*
X140534335Y-157410570D01*
X140311847Y-157409546D01*
X140157839Y-157404807D01*
X140055990Y-157393861D01*
X139989981Y-157374209D01*
X139943493Y-157343358D01*
X139915909Y-157316005D01*
X139848067Y-157225461D01*
X139804552Y-157115469D01*
X139780439Y-156965583D01*
X139770809Y-156755355D01*
X139770246Y-156710904D01*
X139770320Y-156555849D01*
X139778445Y-156467105D01*
X139801049Y-156426192D01*
X139844561Y-156414629D01*
X139873494Y-156414076D01*
X139929267Y-156419442D01*
X139963212Y-156447778D01*
X139983299Y-156517439D01*
X139997498Y-156646783D01*
X140002717Y-156711656D01*
X140018713Y-156867757D01*
X140038511Y-156993068D01*
X140057876Y-157060911D01*
X140058225Y-157061490D01*
X140118097Y-157095079D01*
X140226088Y-157112883D01*
X140256607Y-157113742D01*
X140422695Y-157113742D01*
X140434322Y-156403475D01*
X140445948Y-155693208D01*
X140657968Y-155693208D01*
X140681220Y-157113742D01*
G37*
G36*
X103304089Y-80437005D02*
G01*
X103297709Y-80517179D01*
X103261001Y-80565941D01*
X103167614Y-80592785D01*
X102991196Y-80607206D01*
X102810730Y-80614745D01*
X102317372Y-80633338D01*
X102317372Y-82410439D01*
X101935417Y-82410439D01*
X101935417Y-80633338D01*
X101442059Y-80614745D01*
X101194266Y-80603349D01*
X101047391Y-80585973D01*
X100975083Y-80553123D01*
X100950990Y-80495306D01*
X100948700Y-80437005D01*
X100948700Y-80277857D01*
X103304089Y-80277857D01*
X103304089Y-80437005D01*
G37*
G36*
X87009086Y-81011764D02*
G01*
X87155997Y-80860458D01*
X87390994Y-80766565D01*
X87730994Y-80714266D01*
X87812799Y-80707427D01*
X88270048Y-80694895D01*
X88652408Y-80729571D01*
X88944034Y-80808907D01*
X89116640Y-80917203D01*
X89197878Y-81015892D01*
X89243643Y-81133233D01*
X89263526Y-81307647D01*
X89267247Y-81520502D01*
X89255025Y-81833624D01*
X89210297Y-82048461D01*
X89120969Y-82192399D01*
X88974947Y-82292824D01*
X88914042Y-82320339D01*
X88719633Y-82368759D01*
X88440546Y-82398220D01*
X88116988Y-82408843D01*
X87789163Y-82400749D01*
X87497278Y-82374058D01*
X87281539Y-82328892D01*
X87245584Y-82315327D01*
X87075655Y-82202136D01*
X86970320Y-82026290D01*
X86919855Y-81765487D01*
X86911858Y-81549891D01*
X86912040Y-81547241D01*
X87357472Y-81547241D01*
X87364131Y-81761892D01*
X87381455Y-81922745D01*
X87401937Y-81988070D01*
X87480354Y-82004795D01*
X87657412Y-82015114D01*
X87904545Y-82017971D01*
X88118103Y-82014594D01*
X88789803Y-81996654D01*
X88809018Y-81588666D01*
X88809702Y-81324902D01*
X88780091Y-81172501D01*
X88745359Y-81128112D01*
X88644988Y-81104157D01*
X88454433Y-81087089D01*
X88210666Y-81077363D01*
X87950660Y-81075436D01*
X87711385Y-81081763D01*
X87529816Y-81096801D01*
X87458168Y-81112237D01*
X87399058Y-81168481D01*
X87367516Y-81297065D01*
X87357521Y-81523988D01*
X87357472Y-81547241D01*
X86912040Y-81547241D01*
X86933346Y-81236302D01*
X87009086Y-81011764D01*
G37*
G36*
X98037834Y-81312318D02*
G01*
X98020380Y-82378609D01*
X97868431Y-82400093D01*
X97740121Y-82392333D01*
X97660059Y-82312860D01*
X97618963Y-82143357D01*
X97607570Y-81885251D01*
X97606595Y-81519210D01*
X95829956Y-81519210D01*
X95811133Y-81948910D01*
X95798366Y-82176989D01*
X95776664Y-82307431D01*
X95733236Y-82369859D01*
X95655291Y-82393893D01*
X95616885Y-82398787D01*
X95469086Y-82385390D01*
X95408263Y-82332455D01*
X95397865Y-82241312D01*
X95391120Y-82047173D01*
X95388381Y-81774317D01*
X95390002Y-81447021D01*
X95392710Y-81261901D01*
X95410355Y-80277857D01*
X95792309Y-80277857D01*
X95811133Y-80707556D01*
X95829956Y-81137256D01*
X97606595Y-81137256D01*
X97606595Y-80792337D01*
X97615220Y-80524226D01*
X97648559Y-80359450D01*
X97717812Y-80274747D01*
X97834177Y-80246854D01*
X97869582Y-80246028D01*
X98055288Y-80246028D01*
X98037834Y-81312318D01*
G37*
G36*
X90934743Y-80725868D02*
G01*
X91165170Y-80735644D01*
X91322412Y-80756679D01*
X91433512Y-80792851D01*
X91525514Y-80848041D01*
X91538393Y-80857494D01*
X91616503Y-80920596D01*
X91668619Y-80988455D01*
X91700851Y-81087265D01*
X91719310Y-81243221D01*
X91730105Y-81482519D01*
X91736165Y-81705411D01*
X91754206Y-82419306D01*
X91577017Y-82398957D01*
X91399828Y-82378609D01*
X91381251Y-81808992D01*
X91365583Y-81544853D01*
X91339570Y-81325093D01*
X91307802Y-81183998D01*
X91293883Y-81156485D01*
X91197969Y-81116380D01*
X91010411Y-81088705D01*
X90766291Y-81073627D01*
X90500689Y-81071312D01*
X90248689Y-81081925D01*
X90045372Y-81105630D01*
X89925820Y-81142595D01*
X89916570Y-81149987D01*
X89875749Y-81258732D01*
X89849769Y-81480378D01*
X89840199Y-81801203D01*
X89840179Y-81818408D01*
X89839056Y-82095018D01*
X89831312Y-82268412D01*
X89810387Y-82362696D01*
X89769720Y-82401974D01*
X89702750Y-82410349D01*
X89679033Y-82410439D01*
X89545226Y-82380854D01*
X89485613Y-82326333D01*
X89473555Y-82229433D01*
X89467483Y-82037568D01*
X89468027Y-81782982D01*
X89471696Y-81616835D01*
X89481978Y-81328420D01*
X89497437Y-81138536D01*
X89525579Y-81018416D01*
X89573906Y-80939293D01*
X89649924Y-80872401D01*
X89669785Y-80857456D01*
X89761287Y-80799312D01*
X89868130Y-80760724D01*
X90017357Y-80737812D01*
X90236011Y-80726699D01*
X90551134Y-80723507D01*
X90604089Y-80723471D01*
X90934743Y-80725868D01*
G37*
G36*
X121542435Y-80257955D02*
G01*
X121743249Y-80274065D01*
X121847813Y-80303499D01*
X121887165Y-80362132D01*
X121892560Y-80437005D01*
X121882447Y-80528741D01*
X121831394Y-80578663D01*
X121708329Y-80602357D01*
X121542435Y-80612655D01*
X121252268Y-80630548D01*
X121066472Y-80658476D01*
X120962100Y-80707300D01*
X120916206Y-80787883D01*
X120905846Y-80911086D01*
X120905843Y-80914003D01*
X120905843Y-81133939D01*
X122847447Y-81169085D01*
X122867590Y-81344148D01*
X122887734Y-81519210D01*
X120905843Y-81519210D01*
X120905843Y-81740805D01*
X120910290Y-81842674D01*
X120935334Y-81917045D01*
X120998531Y-81968710D01*
X121117433Y-82002456D01*
X121309597Y-82023075D01*
X121592576Y-82035356D01*
X121983926Y-82044088D01*
X122019878Y-82044766D01*
X122847447Y-82060313D01*
X122847447Y-82378609D01*
X121924390Y-82392903D01*
X121503435Y-82395034D01*
X121191513Y-82385731D01*
X120970753Y-82363812D01*
X120823284Y-82328094D01*
X120799452Y-82318509D01*
X120639538Y-82220445D01*
X120531170Y-82105605D01*
X120528901Y-82101508D01*
X120500289Y-81986251D01*
X120477516Y-81776910D01*
X120463418Y-81506688D01*
X120460229Y-81297695D01*
X120462308Y-80993014D01*
X120471994Y-80787475D01*
X120494459Y-80652928D01*
X120534875Y-80561219D01*
X120598414Y-80484196D01*
X120612265Y-80470160D01*
X120801832Y-80339803D01*
X121061103Y-80268849D01*
X121410842Y-80252558D01*
X121542435Y-80257955D01*
G37*
G36*
X107459903Y-81069549D02*
G01*
X107472560Y-81393944D01*
X107493301Y-81665041D01*
X107519616Y-81857686D01*
X107547272Y-81944863D01*
X107642434Y-81983909D01*
X107832567Y-82011740D01*
X108085818Y-82028356D01*
X108370334Y-82033757D01*
X108654262Y-82027942D01*
X108905749Y-82010912D01*
X109092944Y-81982667D01*
X109182711Y-81944863D01*
X109211981Y-81849204D01*
X109238045Y-81651382D01*
X109258390Y-81376551D01*
X109270079Y-81069549D01*
X109288049Y-80277857D01*
X109670004Y-80277857D01*
X109687824Y-81129607D01*
X109691543Y-81532188D01*
X109678873Y-81827403D01*
X109643115Y-82034833D01*
X109577572Y-82174061D01*
X109475546Y-82264670D01*
X109330341Y-82326240D01*
X109272736Y-82343266D01*
X109087547Y-82373526D01*
X108813416Y-82393064D01*
X108487414Y-82401960D01*
X108146614Y-82400294D01*
X107828085Y-82388145D01*
X107568901Y-82365592D01*
X107426350Y-82339304D01*
X107276539Y-82282718D01*
X107169128Y-82200001D01*
X107097964Y-82071778D01*
X107056895Y-81878675D01*
X107039766Y-81601319D01*
X107040425Y-81220335D01*
X107042159Y-81129607D01*
X107059979Y-80277857D01*
X107441933Y-80277857D01*
X107459903Y-81069549D01*
G37*
G36*
X84579647Y-80711342D02*
G01*
X84629222Y-80750774D01*
X84660528Y-80838811D01*
X84677350Y-80999108D01*
X84683471Y-81255317D01*
X84683788Y-81362250D01*
X84676593Y-81708467D01*
X84649052Y-81952108D01*
X84592235Y-82117399D01*
X84497209Y-82228569D01*
X84355042Y-82309847D01*
X84330583Y-82320339D01*
X84123896Y-82373380D01*
X83836063Y-82404735D01*
X83505620Y-82414879D01*
X83171099Y-82404282D01*
X82871033Y-82373419D01*
X82643956Y-82322762D01*
X82585835Y-82298936D01*
X82440459Y-82198357D01*
X82344380Y-82055982D01*
X82290789Y-81849360D01*
X82272875Y-81556040D01*
X82278033Y-81284085D01*
X82304943Y-80976786D01*
X82361321Y-80784442D01*
X82452983Y-80696907D01*
X82585743Y-80704034D01*
X82606213Y-80711342D01*
X82655985Y-80750994D01*
X82687334Y-80839533D01*
X82704089Y-81000707D01*
X82710082Y-81258265D01*
X82710355Y-81356852D01*
X82710974Y-81628189D01*
X82725895Y-81816171D01*
X82774711Y-81935272D01*
X82877015Y-81999969D01*
X83052401Y-82024738D01*
X83320460Y-82024055D01*
X83601583Y-82015317D01*
X84206344Y-81996654D01*
X84238174Y-81398533D01*
X84266023Y-81063515D01*
X84311747Y-80842186D01*
X84381865Y-80721421D01*
X84482899Y-80688099D01*
X84579647Y-80711342D01*
G37*
G36*
X86690704Y-80288507D02*
G01*
X86746575Y-80362880D01*
X86752710Y-80437005D01*
X86731052Y-80550644D01*
X86641177Y-80602192D01*
X86545381Y-80616134D01*
X86372807Y-80605113D01*
X86299848Y-80536560D01*
X86282738Y-80374366D01*
X86370450Y-80277537D01*
X86545381Y-80257876D01*
X86690704Y-80288507D01*
G37*
G36*
X86627238Y-80732988D02*
G01*
X86668020Y-80767422D01*
X86694480Y-80846980D01*
X86708539Y-80991979D01*
X86712118Y-81222735D01*
X86707138Y-81559565D01*
X86706812Y-81574474D01*
X86698179Y-81907383D01*
X86687121Y-82134038D01*
X86669859Y-82275499D01*
X86642612Y-82352823D01*
X86601599Y-82387068D01*
X86559113Y-82397209D01*
X86432619Y-82392950D01*
X86384051Y-82370684D01*
X86366677Y-82292967D01*
X86352405Y-82114233D01*
X86342676Y-81860773D01*
X86338931Y-81558877D01*
X86338926Y-81547241D01*
X86343040Y-81188041D01*
X86359127Y-80940139D01*
X86392803Y-80787673D01*
X86449684Y-80714779D01*
X86535387Y-80705597D01*
X86627238Y-80732988D01*
G37*
G36*
X119703160Y-80247790D02*
G01*
X119961093Y-80254477D01*
X120130537Y-80268185D01*
X120230890Y-80291011D01*
X120281552Y-80325051D01*
X120295369Y-80349585D01*
X120317155Y-80451973D01*
X120282666Y-80526524D01*
X120177595Y-80577318D01*
X119987631Y-80608436D01*
X119698467Y-80623961D01*
X119319302Y-80627982D01*
X118901761Y-80633395D01*
X118606504Y-80649878D01*
X118428945Y-80677802D01*
X118372209Y-80704373D01*
X118331059Y-80812473D01*
X118304837Y-81028662D01*
X118295818Y-81328233D01*
X118305160Y-81632485D01*
X118331667Y-81846914D01*
X118372209Y-81952093D01*
X118467253Y-81987446D01*
X118673879Y-82011651D01*
X118997538Y-82025132D01*
X119352115Y-82028484D01*
X119738703Y-82031482D01*
X120013550Y-82043625D01*
X120192154Y-82069635D01*
X120290017Y-82114236D01*
X120322638Y-82182150D01*
X120305516Y-82278100D01*
X120292273Y-82314950D01*
X120257512Y-82353514D01*
X120175378Y-82380022D01*
X120027064Y-82396277D01*
X119793763Y-82404079D01*
X119456670Y-82405229D01*
X119355298Y-82404697D01*
X119011141Y-82398468D01*
X118696430Y-82385405D01*
X118441203Y-82367268D01*
X118275497Y-82345818D01*
X118250926Y-82339957D01*
X118086944Y-82274294D01*
X117973589Y-82174070D01*
X117902204Y-82017721D01*
X117864133Y-81783683D01*
X117850721Y-81450393D01*
X117850204Y-81341713D01*
X117856661Y-81051935D01*
X117874059Y-80799590D01*
X117899442Y-80618514D01*
X117918987Y-80554749D01*
X118007360Y-80442139D01*
X118145967Y-80358823D01*
X118351278Y-80301217D01*
X118639761Y-80265736D01*
X119027886Y-80248795D01*
X119337339Y-80246028D01*
X119703160Y-80247790D01*
G37*
G36*
X93817380Y-81146730D02*
G01*
X94022059Y-81163087D01*
X94147260Y-81187697D01*
X94159350Y-81193603D01*
X94220958Y-81294362D01*
X94222272Y-81367691D01*
X94197814Y-81424168D01*
X94134380Y-81461259D01*
X94007859Y-81484234D01*
X93794142Y-81498364D01*
X93592178Y-81505447D01*
X93325502Y-81508849D01*
X93108376Y-81503135D01*
X92971112Y-81489538D01*
X92940409Y-81478922D01*
X92895749Y-81361740D01*
X92929243Y-81234413D01*
X92996513Y-81175896D01*
X93122792Y-81153208D01*
X93328116Y-81141187D01*
X93572856Y-81139229D01*
X93817380Y-81146730D01*
G37*
G36*
X85407484Y-80282459D02*
G01*
X85494141Y-80412259D01*
X85510382Y-80545082D01*
X85525707Y-80628137D01*
X85590996Y-80673787D01*
X85737446Y-80696846D01*
X85845568Y-80704230D01*
X86040677Y-80720682D01*
X86140197Y-80752139D01*
X86175840Y-80815526D01*
X86179778Y-80882619D01*
X86168817Y-80976159D01*
X86114791Y-81026660D01*
X85985986Y-81051049D01*
X85845568Y-81061008D01*
X85511357Y-81080250D01*
X85511357Y-81644649D01*
X85507166Y-81910435D01*
X85495982Y-82134580D01*
X85479886Y-82281251D01*
X85472717Y-82309743D01*
X85386940Y-82384172D01*
X85247793Y-82411586D01*
X85124017Y-82381001D01*
X85108182Y-82367999D01*
X85090006Y-82289848D01*
X85075719Y-82114286D01*
X85067242Y-81871208D01*
X85065743Y-81707003D01*
X85063561Y-81420345D01*
X85053803Y-81236308D01*
X85031651Y-81130225D01*
X84992288Y-81077428D01*
X84938425Y-81055151D01*
X84836259Y-80977875D01*
X84812171Y-80856781D01*
X84866732Y-80747347D01*
X84934876Y-80711015D01*
X85040918Y-80622699D01*
X85078109Y-80478253D01*
X85116493Y-80327800D01*
X85211181Y-80263712D01*
X85249521Y-80256373D01*
X85407484Y-80282459D01*
G37*
G36*
X105438103Y-80257574D02*
G01*
X105614911Y-80277826D01*
X105698362Y-80319417D01*
X105722418Y-80403727D01*
X105723136Y-80437005D01*
X105712741Y-80529065D01*
X105660806Y-80579521D01*
X105536211Y-80604362D01*
X105374941Y-80615879D01*
X105105406Y-80648058D01*
X104943412Y-80713606D01*
X104871446Y-80821981D01*
X104863738Y-80891989D01*
X104903507Y-80995962D01*
X105030302Y-81069155D01*
X105255357Y-81114593D01*
X105589905Y-81135299D01*
X105775025Y-81137354D01*
X106178428Y-81153116D01*
X106473935Y-81204727D01*
X106677592Y-81298916D01*
X106805446Y-81442409D01*
X106863014Y-81593463D01*
X106882794Y-81871744D01*
X106845237Y-82009012D01*
X106781571Y-82137448D01*
X106699548Y-82232717D01*
X106580154Y-82300279D01*
X106404379Y-82345597D01*
X106153212Y-82374131D01*
X105807640Y-82391344D01*
X105484562Y-82399905D01*
X105100991Y-82406741D01*
X104826064Y-82407066D01*
X104641206Y-82399464D01*
X104527843Y-82382521D01*
X104467403Y-82354820D01*
X104443290Y-82320540D01*
X104412501Y-82211016D01*
X104427848Y-82132601D01*
X104504964Y-82080221D01*
X104659480Y-82048805D01*
X104907029Y-82033280D01*
X105263243Y-82028573D01*
X105343369Y-82028484D01*
X105757680Y-82023283D01*
X106060088Y-82005474D01*
X106265670Y-81971746D01*
X106389499Y-81918789D01*
X106446653Y-81843292D01*
X106455217Y-81784339D01*
X106431473Y-81664656D01*
X106347544Y-81585571D01*
X106184386Y-81539801D01*
X105922956Y-81520059D01*
X105758149Y-81517692D01*
X105469893Y-81509917D01*
X105197168Y-81490690D01*
X104990394Y-81463817D01*
X104959227Y-81457365D01*
X104699070Y-81347614D01*
X104523799Y-81175264D01*
X104433888Y-80966120D01*
X104429807Y-80745992D01*
X104512029Y-80540687D01*
X104681028Y-80376012D01*
X104937274Y-80277775D01*
X104937632Y-80277708D01*
X105143367Y-80256498D01*
X105383330Y-80254586D01*
X105438103Y-80257574D01*
G37*
G36*
X98286393Y-80715633D02*
G01*
X98364120Y-80527976D01*
X98500345Y-80402850D01*
X98710882Y-80327831D01*
X99011541Y-80290495D01*
X99418137Y-80278417D01*
X99580029Y-80277857D01*
X99997792Y-80282924D01*
X100307486Y-80302076D01*
X100528099Y-80341242D01*
X100678617Y-80406352D01*
X100778029Y-80503335D01*
X100845321Y-80638119D01*
X100858954Y-80677210D01*
X100894693Y-80864043D01*
X100910236Y-81118911D01*
X100907400Y-81405560D01*
X100888007Y-81687735D01*
X100853874Y-81929180D01*
X100806823Y-82093640D01*
X100786133Y-82128170D01*
X100650291Y-82247767D01*
X100460940Y-82330485D01*
X100198141Y-82380855D01*
X99841956Y-82403408D01*
X99566159Y-82405413D01*
X99268789Y-82400709D01*
X99013201Y-82391812D01*
X98829464Y-82380068D01*
X98752460Y-82368928D01*
X98541054Y-82278968D01*
X98395640Y-82157321D01*
X98305015Y-81981087D01*
X98257971Y-81727371D01*
X98243304Y-81373273D01*
X98243187Y-81328233D01*
X98243209Y-81327310D01*
X98688801Y-81327310D01*
X98692763Y-81608709D01*
X98707738Y-81789240D01*
X98738357Y-81895194D01*
X98789252Y-81952861D01*
X98800204Y-81959725D01*
X98918850Y-81990449D01*
X99129375Y-82011502D01*
X99396702Y-82022818D01*
X99685755Y-82024334D01*
X99961457Y-82015984D01*
X100188733Y-81997705D01*
X100332505Y-81969430D01*
X100348124Y-81962585D01*
X100407760Y-81915689D01*
X100444561Y-81834834D01*
X100463796Y-81692861D01*
X100470738Y-81462611D01*
X100471257Y-81328233D01*
X100467815Y-81051524D01*
X100444395Y-80859416D01*
X100381349Y-80736471D01*
X100259033Y-80667256D01*
X100057802Y-80636333D01*
X99758009Y-80628267D01*
X99580029Y-80627982D01*
X99227854Y-80630692D01*
X98983352Y-80649099D01*
X98826877Y-80698618D01*
X98738784Y-80794664D01*
X98699428Y-80952653D01*
X98689163Y-81188000D01*
X98688801Y-81327310D01*
X98243209Y-81327310D01*
X98251353Y-80978244D01*
X98286393Y-80715633D01*
G37*
G36*
X79669557Y-81556543D02*
G01*
X79804449Y-81370200D01*
X79870207Y-81322305D01*
X79973169Y-81270769D01*
X80099441Y-81235943D01*
X80274770Y-81214770D01*
X80524902Y-81204195D01*
X80875582Y-81201160D01*
X80890764Y-81201153D01*
X81235456Y-81196310D01*
X81480479Y-81183205D01*
X81620672Y-81163627D01*
X81650877Y-81139368D01*
X81565933Y-81112220D01*
X81360682Y-81083973D01*
X81257161Y-81073953D01*
X81052367Y-81051002D01*
X80944261Y-81018324D01*
X80902375Y-80959775D01*
X80896069Y-80882619D01*
X80905084Y-80791512D01*
X80952903Y-80744219D01*
X81070684Y-80726685D01*
X81246194Y-80724670D01*
X81605861Y-80753631D01*
X81861804Y-80846054D01*
X82027009Y-81014522D01*
X82114461Y-81271617D01*
X82137422Y-81588225D01*
X82119595Y-81874524D01*
X82056143Y-82087843D01*
X81932109Y-82237939D01*
X81732536Y-82334564D01*
X81442465Y-82387474D01*
X81046941Y-82406424D01*
X80882199Y-82406845D01*
X80573484Y-82398281D01*
X80289210Y-82378056D01*
X80067817Y-82349535D01*
X79973243Y-82327272D01*
X79778117Y-82201831D01*
X79660033Y-82007881D01*
X79629521Y-81822738D01*
X80038048Y-81822738D01*
X80066890Y-81944429D01*
X80116244Y-81986323D01*
X80221362Y-82002948D01*
X80418850Y-82014584D01*
X80673857Y-82021148D01*
X80951527Y-82022556D01*
X81217010Y-82018725D01*
X81435452Y-82009572D01*
X81571999Y-81995015D01*
X81591113Y-81989843D01*
X81669627Y-81894294D01*
X81691808Y-81735207D01*
X81691808Y-81519210D01*
X80987372Y-81519210D01*
X80689130Y-81524981D01*
X80429099Y-81540598D01*
X80239210Y-81563519D01*
X80159804Y-81585109D01*
X80071029Y-81684454D01*
X80038048Y-81822738D01*
X79629521Y-81822738D01*
X79622633Y-81780944D01*
X79669557Y-81556543D01*
G37*
G36*
X111458052Y-80278856D02*
G01*
X111759174Y-80283253D01*
X111973938Y-80293145D01*
X112122819Y-80310628D01*
X112226295Y-80337802D01*
X112304842Y-80376763D01*
X112355108Y-80411539D01*
X112482988Y-80541142D01*
X112542685Y-80712725D01*
X112554768Y-80820218D01*
X112559581Y-81096235D01*
X112515916Y-81293524D01*
X112406861Y-81426791D01*
X112215505Y-81510744D01*
X111924934Y-81560090D01*
X111680843Y-81580189D01*
X111145317Y-81614699D01*
X111776332Y-81869336D01*
X112068557Y-81991916D01*
X112260054Y-82085915D01*
X112370722Y-82163485D01*
X112420458Y-82236783D01*
X112427689Y-82267205D01*
X112414918Y-82361772D01*
X112336305Y-82404365D01*
X112182508Y-82393198D01*
X111944188Y-82326483D01*
X111612002Y-82202431D01*
X111211691Y-82034495D01*
X110344420Y-81658551D01*
X110325507Y-82018580D01*
X110310337Y-82223460D01*
X110281352Y-82333673D01*
X110221878Y-82381837D01*
X110131171Y-82398787D01*
X109983372Y-82385390D01*
X109922549Y-82332455D01*
X109912151Y-82241312D01*
X109905406Y-82047173D01*
X109902667Y-81774317D01*
X109904287Y-81447021D01*
X109906957Y-81264574D01*
X110338425Y-81264574D01*
X111030718Y-81264574D01*
X111337594Y-81260876D01*
X111617052Y-81250896D01*
X111832171Y-81236302D01*
X111925186Y-81224139D01*
X112052942Y-81188872D01*
X112107008Y-81124444D01*
X112112658Y-80989098D01*
X112108206Y-80921758D01*
X112089051Y-80659812D01*
X110338425Y-80624390D01*
X110338425Y-81264574D01*
X109906957Y-81264574D01*
X109906996Y-81261901D01*
X109918427Y-80624390D01*
X109924640Y-80277857D01*
X111050095Y-80277857D01*
X111458052Y-80278856D01*
G37*
G36*
X113777452Y-80257574D02*
G01*
X113954259Y-80277826D01*
X114037710Y-80319417D01*
X114061767Y-80403727D01*
X114062485Y-80437005D01*
X114049155Y-80536264D01*
X113986534Y-80586542D01*
X113840672Y-80608689D01*
X113776019Y-80612941D01*
X113503302Y-80634005D01*
X113333799Y-80666685D01*
X113243407Y-80723646D01*
X113208028Y-80817552D01*
X113203086Y-80914003D01*
X113203086Y-81133939D01*
X115144690Y-81169085D01*
X115164834Y-81344148D01*
X115184977Y-81519210D01*
X113208904Y-81519210D01*
X113190080Y-81948910D01*
X113176889Y-82177440D01*
X113154577Y-82308170D01*
X113111288Y-82370585D01*
X113035165Y-82394173D01*
X113009727Y-82397446D01*
X112870672Y-82395748D01*
X112802834Y-82370922D01*
X112786091Y-82293714D01*
X112772136Y-82114179D01*
X112762232Y-81857298D01*
X112757643Y-81548052D01*
X112757472Y-81473877D01*
X112758650Y-81127982D01*
X112764596Y-80885483D01*
X112778936Y-80722465D01*
X112805290Y-80615012D01*
X112847281Y-80539208D01*
X112908533Y-80471136D01*
X112909508Y-80470160D01*
X113138966Y-80323737D01*
X113458832Y-80256268D01*
X113777452Y-80257574D01*
G37*
G36*
X79515711Y-80421090D02*
G01*
X79495568Y-80596153D01*
X78667999Y-80611700D01*
X78266461Y-80618205D01*
X77974609Y-80627806D01*
X77775067Y-80651680D01*
X77650457Y-80701001D01*
X77583405Y-80786947D01*
X77556534Y-80920694D01*
X77552468Y-81113417D01*
X77553964Y-81328233D01*
X77552301Y-81578922D01*
X77558897Y-81761279D01*
X77591127Y-81886479D01*
X77666368Y-81965698D01*
X77801996Y-82010114D01*
X78015388Y-82030901D01*
X78323918Y-82039236D01*
X78667999Y-82044766D01*
X79495568Y-82060313D01*
X79495568Y-82378609D01*
X78572510Y-82392903D01*
X78151555Y-82395034D01*
X77839634Y-82385731D01*
X77618874Y-82363812D01*
X77471404Y-82328094D01*
X77447572Y-82318509D01*
X77287659Y-82220445D01*
X77179290Y-82105605D01*
X77177021Y-82101508D01*
X77144371Y-81972963D01*
X77122551Y-81753626D01*
X77111558Y-81479561D01*
X77111390Y-81186832D01*
X77122045Y-80911504D01*
X77143520Y-80689640D01*
X77175812Y-80557307D01*
X77177133Y-80554749D01*
X77264671Y-80442760D01*
X77401612Y-80359767D01*
X77604431Y-80302211D01*
X77889601Y-80266535D01*
X78273598Y-80249180D01*
X78606523Y-80246028D01*
X79535854Y-80246028D01*
X79515711Y-80421090D01*
G37*
G36*
X115482691Y-81247548D02*
G01*
X115746947Y-80846980D01*
X115954680Y-80549757D01*
X116122753Y-80355185D01*
X116268030Y-80262569D01*
X116407375Y-80271215D01*
X116557652Y-80380428D01*
X116735723Y-80589514D01*
X116958454Y-80897777D01*
X117154506Y-81178695D01*
X117366517Y-81488806D01*
X117550447Y-81770645D01*
X117694353Y-82004863D01*
X117786291Y-82172108D01*
X117814724Y-82248444D01*
X117769188Y-82363609D01*
X117676797Y-82398734D01*
X117567153Y-82380892D01*
X117449494Y-82282163D01*
X117330333Y-82128183D01*
X117125445Y-81837506D01*
X115570166Y-81837506D01*
X115389258Y-82123859D01*
X115240184Y-82308076D01*
X115091256Y-82405804D01*
X114963845Y-82409056D01*
X114880819Y-82313838D01*
X114902077Y-82225494D01*
X114991083Y-82045569D01*
X115141203Y-81785815D01*
X115338413Y-81469826D01*
X115823721Y-81469826D01*
X115872534Y-81491951D01*
X116021054Y-81508952D01*
X116241697Y-81518236D01*
X116349319Y-81519210D01*
X116896137Y-81519210D01*
X116625176Y-81106751D01*
X116493301Y-80911859D01*
X116387804Y-80766769D01*
X116327680Y-80697329D01*
X116322385Y-80694772D01*
X116279048Y-80744063D01*
X116191407Y-80869510D01*
X116080695Y-81038113D01*
X115968142Y-81216873D01*
X115874981Y-81372788D01*
X115823721Y-81469826D01*
X115338413Y-81469826D01*
X115345804Y-81457983D01*
X115482691Y-81247548D01*
G37*
G36*
X106170175Y-112226479D02*
G01*
X107654962Y-112209379D01*
X108204511Y-112205336D01*
X108642909Y-112208758D01*
X108986216Y-112221875D01*
X109250490Y-112246921D01*
X109451793Y-112286129D01*
X109606183Y-112341730D01*
X109729720Y-112415958D01*
X109838464Y-112511044D01*
X109840635Y-112513211D01*
X109934310Y-112617735D01*
X109988589Y-112723203D01*
X110014067Y-112868164D01*
X110021338Y-113091170D01*
X110021554Y-113171585D01*
X110016209Y-113429758D01*
X109993661Y-113601019D01*
X109944138Y-113725559D01*
X109858314Y-113843040D01*
X109685324Y-113993492D01*
X109480986Y-114101825D01*
X109460444Y-114108612D01*
X109324257Y-114132636D01*
X109085012Y-114156847D01*
X108766953Y-114179531D01*
X108394325Y-114198974D01*
X107991374Y-114213462D01*
X107968546Y-114214088D01*
X106711278Y-114247993D01*
X106711278Y-114742330D01*
X106705797Y-115005331D01*
X106686210Y-115166323D01*
X106647802Y-115250266D01*
X106610583Y-115275307D01*
X106402752Y-115311817D01*
X106240541Y-115257268D01*
X106208584Y-115226386D01*
X106182692Y-115143822D01*
X106164356Y-114963151D01*
X106153322Y-114677350D01*
X106149340Y-114279395D01*
X106152154Y-113762263D01*
X106152599Y-113722469D01*
X106706129Y-113722469D01*
X107902312Y-113721530D01*
X108399896Y-113717411D01*
X108778647Y-113705602D01*
X109046846Y-113685606D01*
X109212776Y-113656927D01*
X109257644Y-113640382D01*
X109351384Y-113575872D01*
X109403301Y-113477569D01*
X109428877Y-113307165D01*
X109435768Y-113199585D01*
X109440749Y-113035174D01*
X109426300Y-112909481D01*
X109377619Y-112817266D01*
X109279907Y-112753291D01*
X109118363Y-112712316D01*
X108878184Y-112689105D01*
X108544571Y-112678417D01*
X108102724Y-112675015D01*
X107952631Y-112674644D01*
X106743107Y-112672093D01*
X106706129Y-113722469D01*
X106152599Y-113722469D01*
X106153045Y-113682652D01*
X106170175Y-112226479D01*
G37*
G36*
X97989975Y-112995694D02*
G01*
X97994132Y-113295816D01*
X98005491Y-113541281D01*
X98022384Y-113708909D01*
X98043141Y-113775520D01*
X98046124Y-113775518D01*
X98119203Y-113740409D01*
X98284941Y-113657073D01*
X98522961Y-113535869D01*
X98812884Y-113387157D01*
X99017072Y-113281911D01*
X99378548Y-113098302D01*
X99647227Y-112970200D01*
X99841173Y-112890501D01*
X99978448Y-112852102D01*
X100077117Y-112847902D01*
X100106787Y-112853424D01*
X100240659Y-112902776D01*
X100290814Y-112967900D01*
X100250997Y-113055149D01*
X100114955Y-113170877D01*
X99876434Y-113321434D01*
X99529178Y-113513174D01*
X99380036Y-113591582D01*
X98478367Y-114061264D01*
X99335496Y-114490705D01*
X99716256Y-114684692D01*
X99993173Y-114835238D01*
X100178295Y-114951611D01*
X100283676Y-115043080D01*
X100321364Y-115118914D01*
X100303411Y-115188380D01*
X100281704Y-115218459D01*
X100185802Y-115289569D01*
X100048645Y-115307751D01*
X99856244Y-115269241D01*
X99594610Y-115170272D01*
X99249756Y-115007079D01*
X98981079Y-114868334D01*
X98680717Y-114712179D01*
X98417761Y-114579924D01*
X98213766Y-114482069D01*
X98090287Y-114429113D01*
X98066278Y-114422719D01*
X98024474Y-114482855D01*
X97992654Y-114649416D01*
X97976968Y-114852419D01*
X97963845Y-115080729D01*
X97941840Y-115210769D01*
X97899270Y-115271559D01*
X97824448Y-115292114D01*
X97798997Y-115294393D01*
X97644262Y-115291296D01*
X97560275Y-115273174D01*
X97533694Y-115230503D01*
X97513236Y-115119837D01*
X97498305Y-114929512D01*
X97488305Y-114647863D01*
X97482640Y-114263226D01*
X97480712Y-113763938D01*
X97480701Y-113717164D01*
X97480701Y-112194649D01*
X97989975Y-112194649D01*
X97989975Y-112995694D01*
G37*
G36*
X100815677Y-109876343D02*
G01*
X100841071Y-109958495D01*
X100855790Y-110117149D01*
X100865787Y-110374927D01*
X100868196Y-110455819D01*
X100886466Y-111080614D01*
X101586027Y-111112444D01*
X101897681Y-111129173D01*
X102103884Y-111148437D01*
X102226491Y-111174576D01*
X102287358Y-111211934D01*
X102306861Y-111255677D01*
X102305201Y-111302828D01*
X102265436Y-111334498D01*
X102167412Y-111353709D01*
X101990971Y-111363486D01*
X101715958Y-111366851D01*
X101564175Y-111367080D01*
X101241143Y-111366072D01*
X101020392Y-111359876D01*
X100876884Y-111343738D01*
X100785582Y-111312902D01*
X100721450Y-111262613D01*
X100666042Y-111196503D01*
X100601289Y-111098651D01*
X100563124Y-110986039D01*
X100546475Y-110825982D01*
X100546272Y-110585795D01*
X100550018Y-110448508D01*
X100560728Y-110174736D01*
X100576371Y-110003113D01*
X100603643Y-109908485D01*
X100649240Y-109865696D01*
X100709048Y-109851057D01*
X100773653Y-109848070D01*
X100815677Y-109876343D01*
G37*
G36*
X98274633Y-110379316D02*
G01*
X98302575Y-110339672D01*
X98371585Y-110268716D01*
X98459359Y-110222498D01*
X98594819Y-110194209D01*
X98806892Y-110177040D01*
X99034655Y-110167326D01*
X99316379Y-110155864D01*
X99494559Y-110141504D01*
X99592907Y-110117274D01*
X99635132Y-110076204D01*
X99644944Y-110011321D01*
X99645112Y-109987836D01*
X99667649Y-109872018D01*
X99757287Y-109847253D01*
X99788345Y-109850748D01*
X99852577Y-109866200D01*
X99894028Y-109906314D01*
X99917676Y-109994653D01*
X99928498Y-110154780D01*
X99931471Y-110410259D01*
X99931579Y-110528851D01*
X99927801Y-110863195D01*
X99903225Y-111094198D01*
X99837987Y-111240962D01*
X99712224Y-111322593D01*
X99506072Y-111358195D01*
X99199667Y-111366870D01*
X99060013Y-111367080D01*
X98762477Y-111363758D01*
X98563647Y-111350574D01*
X98435011Y-111322696D01*
X98348057Y-111275298D01*
X98308270Y-111239762D01*
X98214252Y-111068844D01*
X98177091Y-110834618D01*
X98185726Y-110728180D01*
X98510837Y-110728180D01*
X98512560Y-110933729D01*
X98561102Y-111055401D01*
X98602579Y-111094220D01*
X98740931Y-111144113D01*
X98954317Y-111170215D01*
X99192531Y-111171655D01*
X99405368Y-111147560D01*
X99521979Y-111110204D01*
X99600209Y-111037420D01*
X99637286Y-110904831D01*
X99645112Y-110725771D01*
X99645112Y-110407236D01*
X99088095Y-110425630D01*
X98531077Y-110444023D01*
X98510837Y-110728180D01*
X98185726Y-110728180D01*
X98197111Y-110587852D01*
X98274633Y-110379316D01*
G37*
G36*
X96837702Y-92935723D02*
G01*
X96887970Y-92957494D01*
X96923761Y-92998622D01*
X96947528Y-93078362D01*
X96961721Y-93215971D01*
X96968796Y-93430705D01*
X96971203Y-93741821D01*
X96971428Y-93985612D01*
X96969807Y-94371980D01*
X96963768Y-94649361D01*
X96951550Y-94836059D01*
X96931391Y-94950376D01*
X96901530Y-95010616D01*
X96870733Y-95031698D01*
X96724802Y-95068158D01*
X96635183Y-95031097D01*
X96631913Y-95027899D01*
X96604359Y-94941878D01*
X96590043Y-94783007D01*
X96589473Y-94742808D01*
X96589473Y-94500155D01*
X95364035Y-94482866D01*
X94138596Y-94465577D01*
X94138596Y-92937757D01*
X94297744Y-92937757D01*
X94370758Y-92942280D01*
X94417955Y-92971511D01*
X94446031Y-93048947D01*
X94461685Y-93198082D01*
X94471615Y-93442414D01*
X94475131Y-93560000D01*
X94493370Y-94182242D01*
X95525507Y-94164761D01*
X96557644Y-94147281D01*
X96576262Y-93574828D01*
X96590275Y-93314440D01*
X96611991Y-93102703D01*
X96637659Y-92971759D01*
X96649428Y-92947828D01*
X96747175Y-92921246D01*
X96837702Y-92935723D01*
G37*
G36*
X104617202Y-112205842D02*
G01*
X104745930Y-112225714D01*
X104814242Y-112276626D01*
X104847676Y-112393484D01*
X104865163Y-112544775D01*
X104896992Y-112863070D01*
X105384527Y-112881558D01*
X105675645Y-112904247D01*
X105852626Y-112951096D01*
X105927653Y-113030352D01*
X105912909Y-113150264D01*
X105881241Y-113217807D01*
X105828409Y-113282182D01*
X105735689Y-113319546D01*
X105573063Y-113336709D01*
X105340366Y-113340514D01*
X104865163Y-113340514D01*
X104865163Y-114288590D01*
X104863380Y-114662240D01*
X104856748Y-114927459D01*
X104843344Y-115103103D01*
X104821243Y-115208025D01*
X104788521Y-115261080D01*
X104764467Y-115275307D01*
X104554347Y-115311543D01*
X104388484Y-115255099D01*
X104368621Y-115237557D01*
X104333324Y-115142705D01*
X104309137Y-114936471D01*
X104295633Y-114613347D01*
X104292230Y-114255267D01*
X104291424Y-113899304D01*
X104287045Y-113650745D01*
X104276155Y-113489674D01*
X104255813Y-113396180D01*
X104223079Y-113350349D01*
X104175015Y-113332267D01*
X104155498Y-113329027D01*
X104005766Y-113264298D01*
X103928680Y-113150597D01*
X103926380Y-113025926D01*
X104001002Y-112928286D01*
X104131084Y-112894900D01*
X104232655Y-112882296D01*
X104279545Y-112821157D01*
X104292724Y-112676487D01*
X104293205Y-112624349D01*
X104310292Y-112388078D01*
X104370389Y-112255084D01*
X104489938Y-112204128D01*
X104617202Y-112205842D01*
G37*
G36*
X78006667Y-92979167D02*
G01*
X78287012Y-92993097D01*
X78470246Y-93013863D01*
X78586575Y-93049038D01*
X78666203Y-93106194D01*
X78709964Y-93155464D01*
X78808142Y-93363775D01*
X78823003Y-93607474D01*
X78759287Y-93838797D01*
X78625435Y-94007267D01*
X78534340Y-94062137D01*
X78416996Y-94100937D01*
X78248427Y-94127539D01*
X78003657Y-94145815D01*
X77657708Y-94159637D01*
X77638718Y-94160237D01*
X77240767Y-94173284D01*
X76952409Y-94187312D01*
X76755997Y-94207741D01*
X76633882Y-94239992D01*
X76568418Y-94289482D01*
X76541956Y-94361633D01*
X76536848Y-94461862D01*
X76536842Y-94498619D01*
X76536842Y-94752043D01*
X77682706Y-94752043D01*
X78090070Y-94752646D01*
X78387402Y-94755735D01*
X78591987Y-94763232D01*
X78721109Y-94777056D01*
X78792055Y-94799128D01*
X78822110Y-94831368D01*
X78828557Y-94875698D01*
X78828571Y-94879361D01*
X78823744Y-94921700D01*
X78798588Y-94953439D01*
X78737089Y-94976102D01*
X78623234Y-94991215D01*
X78441010Y-95000303D01*
X78174402Y-95004891D01*
X77807398Y-95006504D01*
X77491729Y-95006679D01*
X76154887Y-95006679D01*
X76154887Y-94620539D01*
X76164858Y-94393031D01*
X76190646Y-94204630D01*
X76217202Y-94117962D01*
X76315637Y-94011994D01*
X76489447Y-93936467D01*
X76752586Y-93888350D01*
X77119009Y-93864615D01*
X77401595Y-93860815D01*
X77797700Y-93855479D01*
X78082802Y-93836049D01*
X78272901Y-93797388D01*
X78383998Y-93734358D01*
X78432091Y-93641825D01*
X78434738Y-93529147D01*
X78400896Y-93395606D01*
X78315914Y-93308556D01*
X78157744Y-93258209D01*
X77904342Y-93234776D01*
X77762280Y-93230569D01*
X77565932Y-93220880D01*
X77465777Y-93192827D01*
X77430808Y-93133421D01*
X77428070Y-93090571D01*
X77435282Y-93027777D01*
X77473083Y-92989931D01*
X77565722Y-92972364D01*
X77737447Y-92970407D01*
X78006667Y-92979167D01*
G37*
G36*
X100310417Y-110199761D02*
G01*
X100349474Y-110246874D01*
X100373049Y-110354707D01*
X100387148Y-110547244D01*
X100395395Y-110770545D01*
X100399841Y-111063281D01*
X100389531Y-111250024D01*
X100362124Y-111351493D01*
X100325963Y-111385332D01*
X100198097Y-111387296D01*
X100161895Y-111371722D01*
X100121460Y-111288380D01*
X100102110Y-111096232D01*
X100103073Y-110787100D01*
X100104009Y-110756935D01*
X100115250Y-110485878D01*
X100131514Y-110317887D01*
X100159034Y-110228716D01*
X100204041Y-110194118D01*
X100249874Y-110189386D01*
X100310417Y-110199761D01*
G37*
G36*
X104325438Y-110233688D02*
G01*
X104332891Y-110042275D01*
X104351397Y-109931050D01*
X104385931Y-109876448D01*
X104441472Y-109854908D01*
X104467293Y-109850748D01*
X104575578Y-109860139D01*
X104609692Y-109953817D01*
X104610526Y-109987836D01*
X104615591Y-110061055D01*
X104646697Y-110108216D01*
X104727704Y-110136427D01*
X104882477Y-110152796D01*
X105134879Y-110164431D01*
X105213118Y-110167326D01*
X105552634Y-110187155D01*
X105784946Y-110227565D01*
X105930060Y-110303846D01*
X106007979Y-110431290D01*
X106038708Y-110625187D01*
X106042857Y-110801553D01*
X106033560Y-111029239D01*
X105992540Y-111186265D01*
X105900102Y-111285593D01*
X105736550Y-111340183D01*
X105482188Y-111362994D01*
X105183458Y-111367080D01*
X104834271Y-111358476D01*
X104597450Y-111331531D01*
X104459139Y-111284545D01*
X104447630Y-111276846D01*
X104391168Y-111221346D01*
X104354871Y-111136833D01*
X104334455Y-110997385D01*
X104325639Y-110777078D01*
X104325323Y-110727326D01*
X104610526Y-110727326D01*
X104625502Y-110945219D01*
X104676346Y-111068962D01*
X104721929Y-111107345D01*
X104868937Y-111150287D01*
X105088617Y-111170519D01*
X105328333Y-111167877D01*
X105535450Y-111142196D01*
X105633257Y-111110204D01*
X105717668Y-111026244D01*
X105753021Y-110871438D01*
X105756391Y-110766890D01*
X105748716Y-110609291D01*
X105710722Y-110506873D01*
X105619954Y-110447811D01*
X105453958Y-110420282D01*
X105190279Y-110412464D01*
X105082763Y-110412193D01*
X104610526Y-110412193D01*
X104610526Y-110727326D01*
X104325323Y-110727326D01*
X104324060Y-110528851D01*
X104325438Y-110233688D01*
G37*
G36*
X116215255Y-112197506D02*
G01*
X116646021Y-112206349D01*
X116982154Y-112223980D01*
X117239967Y-112252850D01*
X117435774Y-112295407D01*
X117585886Y-112354100D01*
X117706617Y-112431377D01*
X117798868Y-112514050D01*
X117896129Y-112624285D01*
X117950410Y-112737242D01*
X117973938Y-112894783D01*
X117978947Y-113130475D01*
X117961619Y-113433222D01*
X117900026Y-113664901D01*
X117779759Y-113835522D01*
X117586404Y-113955099D01*
X117305550Y-114033642D01*
X116922787Y-114081163D01*
X116581117Y-114101569D01*
X115788048Y-114136253D01*
X116772094Y-114526434D01*
X117143837Y-114676101D01*
X117412272Y-114790803D01*
X117593703Y-114879198D01*
X117704437Y-114949942D01*
X117760775Y-115011694D01*
X117777624Y-115060338D01*
X117750839Y-115212550D01*
X117619084Y-115296880D01*
X117483651Y-115312973D01*
X117383675Y-115288682D01*
X117186851Y-115220236D01*
X116912677Y-115115181D01*
X116580652Y-114981063D01*
X116210275Y-114825430D01*
X116088060Y-114772845D01*
X115716288Y-114612986D01*
X115383557Y-114471857D01*
X115107698Y-114356861D01*
X114906540Y-114275401D01*
X114797912Y-114234882D01*
X114784985Y-114231742D01*
X114759512Y-114290126D01*
X114740816Y-114444259D01*
X114732470Y-114662612D01*
X114732330Y-114696454D01*
X114721726Y-114960070D01*
X114692701Y-115152059D01*
X114655939Y-115237557D01*
X114514876Y-115306278D01*
X114342961Y-115304615D01*
X114199742Y-115238199D01*
X114161638Y-115190814D01*
X114139207Y-115084639D01*
X114120693Y-114866730D01*
X114106809Y-114552633D01*
X114098269Y-114157893D01*
X114095739Y-113754298D01*
X114096349Y-113668545D01*
X114732330Y-113668545D01*
X115964063Y-113647762D01*
X116427701Y-113637514D01*
X116777855Y-113623741D01*
X117028337Y-113605324D01*
X117192957Y-113581147D01*
X117285529Y-113550093D01*
X117300905Y-113539611D01*
X117379215Y-113401428D01*
X117405982Y-113155183D01*
X117406015Y-113143982D01*
X117400873Y-112997968D01*
X117375312Y-112886222D01*
X117314125Y-112803691D01*
X117202106Y-112745318D01*
X117024047Y-112706048D01*
X116764744Y-112680827D01*
X116408991Y-112664599D01*
X115941579Y-112652309D01*
X115925939Y-112651955D01*
X114732330Y-112624943D01*
X114732330Y-113668545D01*
X114096349Y-113668545D01*
X114098963Y-113301222D01*
X114108161Y-112915050D01*
X114121971Y-112624943D01*
X114122619Y-112611326D01*
X114141625Y-112405596D01*
X114161638Y-112317783D01*
X114189484Y-112278109D01*
X114235707Y-112248003D01*
X114316407Y-112226156D01*
X114447688Y-112211262D01*
X114645651Y-112202012D01*
X114926398Y-112197098D01*
X115306031Y-112195214D01*
X115673543Y-112195004D01*
X116215255Y-112197506D01*
G37*
G36*
X97066917Y-113308684D02*
G01*
X95723746Y-113340514D01*
X95237166Y-113354267D01*
X94864957Y-113370260D01*
X94594179Y-113389558D01*
X94411888Y-113413226D01*
X94305145Y-113442330D01*
X94275500Y-113459712D01*
X94220433Y-113535354D01*
X94187699Y-113667405D01*
X94172753Y-113882548D01*
X94170426Y-114076779D01*
X94171508Y-114305942D01*
X94184795Y-114481148D01*
X94225345Y-114609636D01*
X94308215Y-114698644D01*
X94448465Y-114755410D01*
X94661152Y-114787172D01*
X94961336Y-114801168D01*
X95364074Y-114804637D01*
X95684765Y-114804674D01*
X96116739Y-114808098D01*
X96486047Y-114817814D01*
X96775537Y-114832988D01*
X96968054Y-114852783D01*
X97039272Y-114870573D01*
X97144427Y-114986839D01*
X97148219Y-115137509D01*
X97086015Y-115237557D01*
X96999318Y-115262049D01*
X96808918Y-115281448D01*
X96538332Y-115295649D01*
X96211076Y-115304550D01*
X95850669Y-115308050D01*
X95480627Y-115306044D01*
X95124467Y-115298432D01*
X94805707Y-115285111D01*
X94547863Y-115265977D01*
X94416893Y-115249186D01*
X94137725Y-115185644D01*
X93938485Y-115093045D01*
X93771942Y-114948667D01*
X93755929Y-114931238D01*
X93698356Y-114851852D01*
X93661150Y-114748248D01*
X93640082Y-114593029D01*
X93630922Y-114358794D01*
X93629323Y-114111033D01*
X93633940Y-113777628D01*
X93656361Y-113511421D01*
X93709439Y-113304865D01*
X93806030Y-113150411D01*
X93958987Y-113040510D01*
X94181165Y-112967613D01*
X94485417Y-112924172D01*
X94884600Y-112902638D01*
X95391566Y-112895462D01*
X95700234Y-112894900D01*
X97106813Y-112894900D01*
X97066917Y-113308684D01*
G37*
G36*
X130371256Y-94194255D02*
G01*
X130430650Y-94108446D01*
X130496735Y-94015254D01*
X130481198Y-93928880D01*
X130430650Y-93850547D01*
X130337529Y-93618598D01*
X130344556Y-93457396D01*
X130718343Y-93457396D01*
X130722655Y-93558393D01*
X130753415Y-93702395D01*
X130836180Y-93772925D01*
X130965413Y-93804690D01*
X131248496Y-93836014D01*
X131589846Y-93847339D01*
X131927988Y-93838430D01*
X132199493Y-93809402D01*
X132402993Y-93733564D01*
X132509135Y-93607856D01*
X132505819Y-93452343D01*
X132462287Y-93373673D01*
X132403004Y-93318515D01*
X132304304Y-93281191D01*
X132141112Y-93257032D01*
X131888354Y-93241368D01*
X131718643Y-93235203D01*
X131410344Y-93232708D01*
X131140409Y-93243909D01*
X130943920Y-93266807D01*
X130881803Y-93282906D01*
X130757476Y-93351536D01*
X130718343Y-93457396D01*
X130344556Y-93457396D01*
X130348327Y-93370901D01*
X130459595Y-93153370D01*
X130485076Y-93125841D01*
X130550014Y-93065873D01*
X130619872Y-93023613D01*
X130716774Y-92995965D01*
X130862847Y-92979836D01*
X131080216Y-92972128D01*
X131391006Y-92969747D01*
X131602005Y-92969587D01*
X131971506Y-92970395D01*
X132235816Y-92974884D01*
X132417060Y-92986148D01*
X132537364Y-93007283D01*
X132618853Y-93041385D01*
X132683654Y-93091548D01*
X132718933Y-93125841D01*
X132836838Y-93318012D01*
X132876528Y-93548982D01*
X132834613Y-93768082D01*
X132768916Y-93872729D01*
X132698993Y-93967030D01*
X132724837Y-94032144D01*
X132783384Y-94078445D01*
X132873376Y-94201980D01*
X132903952Y-94411940D01*
X132904124Y-94434314D01*
X132882770Y-94638545D01*
X132801022Y-94782937D01*
X132726958Y-94854288D01*
X132650718Y-94914422D01*
X132570082Y-94956070D01*
X132461468Y-94982446D01*
X132301293Y-94996766D01*
X132065975Y-95002247D01*
X131731933Y-95002102D01*
X131646199Y-95001654D01*
X131313455Y-94997458D01*
X131021825Y-94989398D01*
X130797230Y-94978516D01*
X130665590Y-94965853D01*
X130647117Y-94961517D01*
X130466079Y-94834547D01*
X130352745Y-94636715D01*
X130321456Y-94434223D01*
X130710777Y-94434223D01*
X130728101Y-94558277D01*
X130791654Y-94645341D01*
X130918805Y-94700764D01*
X131126924Y-94729896D01*
X131433382Y-94738088D01*
X131686825Y-94734862D01*
X131998777Y-94725541D01*
X132208464Y-94710400D01*
X132340932Y-94684998D01*
X132421225Y-94644898D01*
X132466650Y-94596643D01*
X132542865Y-94473761D01*
X132537334Y-94380345D01*
X132466638Y-94270852D01*
X132408117Y-94213411D01*
X132315509Y-94174780D01*
X132163163Y-94150006D01*
X131925428Y-94134137D01*
X131718643Y-94126431D01*
X131328232Y-94122021D01*
X131048184Y-94140558D01*
X130862848Y-94186823D01*
X130756571Y-94265594D01*
X130713702Y-94381652D01*
X130710777Y-94434223D01*
X130321456Y-94434223D01*
X130317631Y-94409470D01*
X130371256Y-94194255D01*
G37*
G36*
X113777443Y-112627191D02*
G01*
X112485486Y-112649642D01*
X112035113Y-112658831D01*
X111693854Y-112669759D01*
X111443506Y-112684110D01*
X111265865Y-112703565D01*
X111142727Y-112729808D01*
X111055888Y-112764519D01*
X111021325Y-112784964D01*
X110849122Y-112897835D01*
X110849122Y-113714070D01*
X110847942Y-114038770D01*
X110854115Y-114289264D01*
X110882207Y-114475382D01*
X110946787Y-114606955D01*
X111062423Y-114693811D01*
X111243683Y-114745781D01*
X111505134Y-114772695D01*
X111861346Y-114784382D01*
X112326886Y-114790672D01*
X112447130Y-114792333D01*
X113777443Y-114811821D01*
X113777443Y-115024244D01*
X113746628Y-115201604D01*
X113676748Y-115275307D01*
X113572084Y-115290142D01*
X113365330Y-115300098D01*
X113081614Y-115305442D01*
X112746058Y-115306438D01*
X112383790Y-115303352D01*
X112019935Y-115296448D01*
X111679617Y-115285991D01*
X111387963Y-115272247D01*
X111170098Y-115255482D01*
X111110909Y-115248232D01*
X110751428Y-115150175D01*
X110487727Y-114976281D01*
X110356702Y-114798538D01*
X110319046Y-114651551D01*
X110293143Y-114382981D01*
X110279383Y-113998053D01*
X110277129Y-113735222D01*
X110279011Y-113322617D01*
X110294221Y-112993380D01*
X110335691Y-112737876D01*
X110416350Y-112546472D01*
X110549129Y-112409532D01*
X110746959Y-112317424D01*
X111022771Y-112260511D01*
X111389495Y-112229159D01*
X111860061Y-112213736D01*
X112329198Y-112206261D01*
X113777443Y-112186043D01*
X113777443Y-112627191D01*
G37*
G36*
X89972283Y-113751613D02*
G01*
X89985877Y-113547148D01*
X90014972Y-113408329D01*
X90064835Y-113304368D01*
X90106929Y-113245896D01*
X90220473Y-113122439D01*
X90352669Y-113031096D01*
X90523680Y-112967297D01*
X90753667Y-112926475D01*
X91062793Y-112904059D01*
X91471219Y-112895481D01*
X91655889Y-112894900D01*
X92157319Y-112901288D01*
X92546358Y-112926442D01*
X92837559Y-112979351D01*
X93045473Y-113069001D01*
X93184652Y-113204381D01*
X93269647Y-113394477D01*
X93315010Y-113648277D01*
X93333691Y-113931145D01*
X93336821Y-114345608D01*
X93300541Y-114665265D01*
X93211219Y-114902577D01*
X93055219Y-115070003D01*
X92818907Y-115180004D01*
X92488650Y-115245041D01*
X92050814Y-115277573D01*
X91853395Y-115284005D01*
X91533777Y-115289360D01*
X91243955Y-115289299D01*
X91017182Y-115284132D01*
X90891980Y-115275013D01*
X90708944Y-115234319D01*
X90488704Y-115168075D01*
X90429095Y-115147156D01*
X90243146Y-115059688D01*
X90113554Y-114941347D01*
X90030997Y-114769962D01*
X89986157Y-114523363D01*
X89969712Y-114179378D01*
X89969047Y-114072594D01*
X90541854Y-114072594D01*
X90545735Y-114335822D01*
X90569086Y-114526931D01*
X90629472Y-114657462D01*
X90744457Y-114738957D01*
X90931606Y-114782960D01*
X91208484Y-114801013D01*
X91592655Y-114804657D01*
X91655889Y-114804674D01*
X92025118Y-114801149D01*
X92288636Y-114789115D01*
X92467893Y-114766386D01*
X92584340Y-114730778D01*
X92628442Y-114705576D01*
X92698478Y-114643908D01*
X92740784Y-114559311D01*
X92762168Y-114421320D01*
X92769441Y-114199473D01*
X92769924Y-114072594D01*
X92766044Y-113809366D01*
X92742693Y-113618258D01*
X92682307Y-113487727D01*
X92567322Y-113406231D01*
X92380172Y-113362228D01*
X92103294Y-113344176D01*
X91719124Y-113340531D01*
X91655889Y-113340514D01*
X91255325Y-113343064D01*
X90964508Y-113358409D01*
X90765874Y-113398091D01*
X90641859Y-113473653D01*
X90574898Y-113596637D01*
X90547427Y-113778585D01*
X90541881Y-114031040D01*
X90541854Y-114072594D01*
X89969047Y-114072594D01*
X89968922Y-114052511D01*
X89972283Y-113751613D01*
G37*
G36*
X106785652Y-110169557D02*
G01*
X106983863Y-110207411D01*
X107069607Y-110270572D01*
X107040978Y-110338193D01*
X106896069Y-110389427D01*
X106806767Y-110400532D01*
X106628713Y-110427994D01*
X106505066Y-110470937D01*
X106489003Y-110482757D01*
X106465675Y-110558295D01*
X106560189Y-110615796D01*
X106763995Y-110652552D01*
X107067452Y-110665855D01*
X107381357Y-110686562D01*
X107587224Y-110752143D01*
X107698754Y-110870199D01*
X107729824Y-111033335D01*
X107709546Y-111170244D01*
X107636788Y-111265149D01*
X107493667Y-111324960D01*
X107262297Y-111356586D01*
X106924794Y-111366936D01*
X106865879Y-111367080D01*
X106561827Y-111364122D01*
X106364391Y-111353272D01*
X106252963Y-111331564D01*
X106206935Y-111296037D01*
X106202005Y-111271592D01*
X106225430Y-111223385D01*
X106310603Y-111194094D01*
X106479867Y-111179684D01*
X106730940Y-111176103D01*
X107074141Y-111163423D01*
X107298454Y-111124834D01*
X107383447Y-111085370D01*
X107461245Y-111018590D01*
X107441966Y-110975139D01*
X107327810Y-110926222D01*
X107166468Y-110889074D01*
X106935902Y-110864228D01*
X106751695Y-110857807D01*
X106479392Y-110843368D01*
X106311002Y-110791660D01*
X106225537Y-110690100D01*
X106202005Y-110528247D01*
X106257572Y-110343606D01*
X106414042Y-110220315D01*
X106656064Y-110167808D01*
X106785652Y-110169557D01*
G37*
G36*
X93273161Y-109846972D02*
G01*
X93329159Y-109879195D01*
X93342739Y-109943637D01*
X93342857Y-109955836D01*
X93325962Y-110034352D01*
X93254883Y-110077963D01*
X93099026Y-110100457D01*
X93008646Y-110106485D01*
X92674436Y-110125727D01*
X92674436Y-111080614D01*
X93883960Y-111080614D01*
X93919912Y-110811245D01*
X93957366Y-110602779D01*
X94007781Y-110500398D01*
X94085780Y-110482879D01*
X94135851Y-110497820D01*
X94201440Y-110570483D01*
X94230994Y-110736773D01*
X94234085Y-110852200D01*
X94222187Y-111050075D01*
X94174319Y-111190190D01*
X94072221Y-111282246D01*
X93897635Y-111335945D01*
X93632300Y-111360989D01*
X93265033Y-111367080D01*
X92952945Y-111364380D01*
X92741345Y-111353486D01*
X92603468Y-111330208D01*
X92512548Y-111290358D01*
X92451629Y-111239762D01*
X92384561Y-111150639D01*
X92345541Y-111027775D01*
X92327779Y-110837863D01*
X92324310Y-110615338D01*
X92333098Y-110300404D01*
X92371214Y-110089690D01*
X92456289Y-109960632D01*
X92605952Y-109890671D01*
X92837833Y-109857246D01*
X92921376Y-109851267D01*
X93146611Y-109839989D01*
X93273161Y-109846972D01*
G37*
G36*
X96528971Y-110169539D02*
G01*
X96567297Y-110223607D01*
X96584871Y-110346941D01*
X96589433Y-110566720D01*
X96589473Y-110604746D01*
X96592698Y-110840480D01*
X96609172Y-110980740D01*
X96649095Y-111057336D01*
X96722664Y-111102075D01*
X96752765Y-111114019D01*
X96958291Y-111158615D01*
X97222451Y-111173871D01*
X97479578Y-111158009D01*
X97589452Y-111136673D01*
X97663715Y-111103905D01*
X97708430Y-111035352D01*
X97733145Y-110901464D01*
X97747410Y-110672690D01*
X97748600Y-110644184D01*
X97761977Y-110406528D01*
X97783599Y-110269392D01*
X97822063Y-110205978D01*
X97885966Y-110189486D01*
X97894486Y-110189386D01*
X97960226Y-110201934D01*
X98000708Y-110257060D01*
X98023971Y-110380991D01*
X98038057Y-110599952D01*
X98040856Y-110666830D01*
X98043491Y-110942318D01*
X98013285Y-111134457D01*
X97931635Y-111258124D01*
X97779937Y-111328196D01*
X97539589Y-111359550D01*
X97191987Y-111367063D01*
X97165220Y-111367080D01*
X96866549Y-111363380D01*
X96667962Y-111349377D01*
X96542360Y-111320722D01*
X96462649Y-111273064D01*
X96440192Y-111250664D01*
X96380516Y-111144369D01*
X96347077Y-110971558D01*
X96335087Y-110704746D01*
X96334837Y-110645902D01*
X96337716Y-110398461D01*
X96350894Y-110252177D01*
X96381178Y-110180939D01*
X96435375Y-110158636D01*
X96462155Y-110157557D01*
X96528971Y-110169539D01*
G37*
G36*
X104254822Y-92970994D02*
G01*
X104464373Y-92977646D01*
X104589545Y-92993191D01*
X104651805Y-93021275D01*
X104672615Y-93065545D01*
X104674185Y-93094427D01*
X104662749Y-93154943D01*
X104612184Y-93193682D01*
X104498108Y-93216913D01*
X104296137Y-93230908D01*
X104117168Y-93237660D01*
X103560150Y-93256053D01*
X103560150Y-93638008D01*
X104593022Y-93669837D01*
X105028628Y-93686300D01*
X105353991Y-93710435D01*
X105586187Y-93750254D01*
X105742290Y-93813768D01*
X105839377Y-93908989D01*
X105894521Y-94043930D01*
X105924798Y-94226602D01*
X105932191Y-94298195D01*
X105942947Y-94500081D01*
X105914332Y-94632451D01*
X105828614Y-94751255D01*
X105769106Y-94812780D01*
X105575207Y-95006679D01*
X104396373Y-95006679D01*
X103966725Y-95003291D01*
X103617480Y-94993578D01*
X103361575Y-94978214D01*
X103211947Y-94957878D01*
X103178195Y-94943020D01*
X103154819Y-94874578D01*
X103190399Y-94824050D01*
X103298450Y-94788940D01*
X103492484Y-94766749D01*
X103786014Y-94754980D01*
X104192555Y-94751134D01*
X104216413Y-94751104D01*
X104658759Y-94747331D01*
X104990175Y-94733805D01*
X105226951Y-94705797D01*
X105385375Y-94658578D01*
X105481737Y-94587419D01*
X105532326Y-94487592D01*
X105552717Y-94363176D01*
X105541585Y-94175152D01*
X105484452Y-94063849D01*
X105381917Y-94032894D01*
X105160463Y-94007360D01*
X104828402Y-93987890D01*
X104394041Y-93975124D01*
X104319453Y-93973809D01*
X103241854Y-93956303D01*
X103223262Y-93462945D01*
X103204669Y-92969587D01*
X103939427Y-92969587D01*
X104254822Y-92970994D01*
G37*
G36*
X102483729Y-110665996D02*
G01*
X102635959Y-110591311D01*
X102878704Y-110551853D01*
X103229058Y-110539563D01*
X103259776Y-110539511D01*
X103557144Y-110533195D01*
X103745331Y-110514845D01*
X103816498Y-110485361D01*
X103814787Y-110475852D01*
X103731320Y-110435162D01*
X103572996Y-110413356D01*
X103524563Y-110412193D01*
X103359476Y-110401172D01*
X103287187Y-110356789D01*
X103273684Y-110284875D01*
X103299169Y-110196478D01*
X103398131Y-110161323D01*
X103492347Y-110157557D01*
X103727810Y-110182978D01*
X103942744Y-110248752D01*
X104090694Y-110339142D01*
X104114897Y-110368431D01*
X104141533Y-110470405D01*
X104159409Y-110653320D01*
X104163937Y-110806453D01*
X104152782Y-111029385D01*
X104105246Y-111184547D01*
X104002329Y-111283904D01*
X103825030Y-111339422D01*
X103554349Y-111363066D01*
X103273684Y-111367080D01*
X102942602Y-111359924D01*
X102715203Y-111336435D01*
X102568548Y-111293579D01*
X102523939Y-111267982D01*
X102409625Y-111125571D01*
X102382456Y-110953296D01*
X102386162Y-110925372D01*
X102668965Y-110925372D01*
X102695640Y-111049499D01*
X102813266Y-111132083D01*
X102817575Y-111133265D01*
X103007486Y-111160498D01*
X103255560Y-111167580D01*
X103506589Y-111155749D01*
X103705366Y-111126241D01*
X103751397Y-111112341D01*
X103876837Y-111031398D01*
X103899004Y-110907089D01*
X103898775Y-110905449D01*
X103879067Y-110833828D01*
X103827023Y-110789506D01*
X103715765Y-110764304D01*
X103518417Y-110750040D01*
X103368607Y-110744077D01*
X103038037Y-110744434D01*
X102824325Y-110774019D01*
X102744465Y-110809416D01*
X102668965Y-110925372D01*
X102386162Y-110925372D01*
X102404926Y-110783971D01*
X102483729Y-110665996D01*
G37*
G36*
X87320073Y-92987639D02*
G01*
X87564066Y-93048398D01*
X87715636Y-93161764D01*
X87790079Y-93337637D01*
X87804511Y-93510763D01*
X87780460Y-93725926D01*
X87717221Y-93874088D01*
X87706749Y-93885824D01*
X87647224Y-93966577D01*
X87673929Y-94043232D01*
X87738578Y-94113178D01*
X87852880Y-94307313D01*
X87854169Y-94528565D01*
X87744612Y-94749798D01*
X87682089Y-94820599D01*
X87496009Y-95006679D01*
X86349004Y-95006679D01*
X85927156Y-95003201D01*
X85584714Y-94993245D01*
X85335088Y-94977531D01*
X85191691Y-94956780D01*
X85162656Y-94943020D01*
X85139375Y-94872046D01*
X85179314Y-94820366D01*
X85295995Y-94785265D01*
X85502936Y-94764025D01*
X85813656Y-94753932D01*
X86113343Y-94752043D01*
X86555975Y-94749596D01*
X86887954Y-94740318D01*
X87125885Y-94721303D01*
X87286375Y-94689644D01*
X87386028Y-94642435D01*
X87441450Y-94576768D01*
X87463465Y-94515725D01*
X87481489Y-94394472D01*
X87457119Y-94302242D01*
X87376075Y-94234411D01*
X87224077Y-94186358D01*
X86986843Y-94153460D01*
X86650095Y-94131096D01*
X86226852Y-94115451D01*
X85827965Y-94101875D01*
X85539820Y-94087330D01*
X85345847Y-94069832D01*
X85229473Y-94047399D01*
X85174128Y-94018048D01*
X85162656Y-93988133D01*
X85181065Y-93951671D01*
X85247372Y-93923760D01*
X85378196Y-93902396D01*
X85590155Y-93885573D01*
X85899868Y-93871287D01*
X86219382Y-93860633D01*
X86656010Y-93844256D01*
X86981085Y-93822604D01*
X87210368Y-93791666D01*
X87359618Y-93747433D01*
X87444595Y-93685897D01*
X87481059Y-93603047D01*
X87486215Y-93538334D01*
X87427408Y-93391462D01*
X87260151Y-93286973D01*
X86998193Y-93231503D01*
X86835459Y-93224223D01*
X86626971Y-93219215D01*
X86516052Y-93197366D01*
X86473123Y-93148435D01*
X86467669Y-93096905D01*
X86478466Y-93033035D01*
X86528067Y-92994966D01*
X86642284Y-92976134D01*
X86846931Y-92969974D01*
X86968357Y-92969587D01*
X87320073Y-92987639D01*
G37*
G36*
X113505711Y-92972448D02*
G01*
X113601490Y-92989183D01*
X113641669Y-93025302D01*
X113650107Y-93085247D01*
X113650125Y-93090760D01*
X113636578Y-93166675D01*
X113576028Y-93207894D01*
X113438612Y-93225825D01*
X113284085Y-93230569D01*
X112970492Y-93245603D01*
X112763193Y-93282770D01*
X112642003Y-93349593D01*
X112586740Y-93453594D01*
X112580024Y-93492958D01*
X112560299Y-93661170D01*
X113620143Y-93681418D01*
X114679987Y-93701667D01*
X114833477Y-93880279D01*
X114952289Y-94097406D01*
X114990744Y-94349773D01*
X114953931Y-94599818D01*
X114846936Y-94809981D01*
X114690486Y-94936000D01*
X114578499Y-94958228D01*
X114367569Y-94976325D01*
X114086016Y-94989961D01*
X113762160Y-94998805D01*
X113424318Y-95002526D01*
X113100812Y-95000795D01*
X112819959Y-94993280D01*
X112610079Y-94979650D01*
X112504260Y-94961517D01*
X112374685Y-94902759D01*
X112285700Y-94823298D01*
X112229836Y-94700284D01*
X112199620Y-94510869D01*
X112188838Y-94261276D01*
X112567919Y-94261276D01*
X112573391Y-94466517D01*
X112600268Y-94582218D01*
X112664242Y-94646031D01*
X112742982Y-94681331D01*
X112895764Y-94713216D01*
X113131184Y-94731944D01*
X113417650Y-94738388D01*
X113723569Y-94733419D01*
X114017348Y-94717910D01*
X114267395Y-94692732D01*
X114442117Y-94658758D01*
X114499765Y-94632845D01*
X114579783Y-94496508D01*
X114601351Y-94309194D01*
X114564012Y-94131768D01*
X114504169Y-94047348D01*
X114397103Y-94006753D01*
X114180414Y-93974690D01*
X113847883Y-93950480D01*
X113485623Y-93936047D01*
X112567919Y-93908438D01*
X112567919Y-94261276D01*
X112188838Y-94261276D01*
X112187582Y-94232205D01*
X112185965Y-93988133D01*
X112186796Y-93908438D01*
X112189839Y-93616448D01*
X112212553Y-93352680D01*
X112270744Y-93177448D01*
X112381051Y-93071370D01*
X112560111Y-93015065D01*
X112824561Y-92989151D01*
X113051920Y-92979356D01*
X113330474Y-92970654D01*
X113505711Y-92972448D01*
G37*
G36*
X68587529Y-92952204D02*
G01*
X68606786Y-93033547D01*
X68621067Y-93219705D01*
X68629507Y-93488242D01*
X68631241Y-93816721D01*
X68628865Y-94024012D01*
X68620163Y-94423954D01*
X68607096Y-94712121D01*
X68585206Y-94904057D01*
X68550037Y-95015304D01*
X68497132Y-95061406D01*
X68422034Y-95057907D01*
X68340726Y-95028911D01*
X68308393Y-94978567D01*
X68285280Y-94849641D01*
X68270393Y-94629146D01*
X68262741Y-94304093D01*
X68261153Y-93987118D01*
X68261922Y-93607845D01*
X68265863Y-93336647D01*
X68275422Y-93154285D01*
X68293047Y-93041516D01*
X68321184Y-92979100D01*
X68362281Y-92947798D01*
X68394879Y-92935723D01*
X68526093Y-92925539D01*
X68587529Y-92952204D01*
G37*
G36*
X85830026Y-112912625D02*
G01*
X85838068Y-112624201D01*
X85851014Y-112411432D01*
X85869152Y-112296868D01*
X85869718Y-112295345D01*
X85895645Y-112262818D01*
X85955339Y-112238032D01*
X86063953Y-112219981D01*
X86236643Y-112207658D01*
X86488562Y-112200059D01*
X86834864Y-112196176D01*
X87290705Y-112195006D01*
X87381622Y-112195004D01*
X87927152Y-112197411D01*
X88361576Y-112205936D01*
X88701054Y-112222975D01*
X88961745Y-112250921D01*
X89159808Y-112292170D01*
X89311401Y-112349118D01*
X89432683Y-112424159D01*
X89534206Y-112514050D01*
X89627474Y-112618273D01*
X89681510Y-112723818D01*
X89706863Y-112869196D01*
X89714079Y-113092917D01*
X89714285Y-113171585D01*
X89708941Y-113429758D01*
X89686392Y-113601019D01*
X89636870Y-113725559D01*
X89551046Y-113843040D01*
X89378056Y-113993492D01*
X89173718Y-114101825D01*
X89153176Y-114108612D01*
X89016989Y-114132636D01*
X88777744Y-114156847D01*
X88459684Y-114179531D01*
X88087057Y-114198974D01*
X87684106Y-114213462D01*
X87661278Y-114214088D01*
X86404010Y-114247993D01*
X86404010Y-114742330D01*
X86398529Y-115005331D01*
X86378942Y-115166323D01*
X86340534Y-115250266D01*
X86303314Y-115275307D01*
X86093194Y-115311543D01*
X85927332Y-115255099D01*
X85907468Y-115237557D01*
X85886704Y-115155704D01*
X85868527Y-114969104D01*
X85853229Y-114700307D01*
X85841097Y-114371863D01*
X85832421Y-114006323D01*
X85827491Y-113626236D01*
X85826815Y-113345303D01*
X86411723Y-113345303D01*
X86416799Y-113534329D01*
X86430714Y-113636579D01*
X86503769Y-113668322D01*
X86680050Y-113693324D01*
X86935643Y-113711549D01*
X87246632Y-113722960D01*
X87589103Y-113727522D01*
X87939140Y-113725199D01*
X88272829Y-113715954D01*
X88566254Y-113699751D01*
X88795500Y-113676554D01*
X88936652Y-113646327D01*
X88950376Y-113640382D01*
X89044116Y-113575872D01*
X89096033Y-113477569D01*
X89121608Y-113307165D01*
X89128499Y-113199585D01*
X89133481Y-113035174D01*
X89119031Y-112909481D01*
X89070351Y-112817266D01*
X88972639Y-112753291D01*
X88811094Y-112712316D01*
X88570916Y-112689105D01*
X88237303Y-112678417D01*
X87795455Y-112675015D01*
X87645363Y-112674644D01*
X86435839Y-112672093D01*
X86416797Y-113111391D01*
X86411723Y-113345303D01*
X85826815Y-113345303D01*
X85826596Y-113254154D01*
X85830026Y-112912625D01*
G37*
G36*
X100374672Y-109869101D02*
G01*
X100409022Y-109966579D01*
X100371722Y-110066417D01*
X100249874Y-110093897D01*
X100125077Y-110064058D01*
X100090726Y-109966579D01*
X100128026Y-109866741D01*
X100249874Y-109839261D01*
X100374672Y-109869101D01*
G37*
G36*
X100482700Y-113405667D02*
G01*
X100563442Y-113211561D01*
X100697306Y-113073530D01*
X100898707Y-112982213D01*
X101182060Y-112928254D01*
X101561781Y-112902292D01*
X102052286Y-112894971D01*
X102124486Y-112894900D01*
X102642626Y-112902676D01*
X103047480Y-112930912D01*
X103352405Y-112986974D01*
X103570761Y-113078227D01*
X103715903Y-113212033D01*
X103801190Y-113395760D01*
X103839978Y-113636769D01*
X103846616Y-113844386D01*
X103838969Y-114070354D01*
X103809862Y-114203299D01*
X103750047Y-114276928D01*
X103723483Y-114293161D01*
X103617288Y-114315610D01*
X103399436Y-114334137D01*
X103085551Y-114348026D01*
X102691254Y-114356556D01*
X102291152Y-114359060D01*
X101851608Y-114359592D01*
X101523222Y-114362203D01*
X101289836Y-114368423D01*
X101135290Y-114379776D01*
X101043426Y-114397791D01*
X100998084Y-114423994D01*
X100983107Y-114459912D01*
X100981955Y-114482769D01*
X101040361Y-114637179D01*
X101211499Y-114743074D01*
X101489245Y-114797585D01*
X101668725Y-114804674D01*
X101901927Y-114814789D01*
X102097412Y-114841045D01*
X102195663Y-114870573D01*
X102300818Y-114986839D01*
X102304610Y-115137509D01*
X102242406Y-115237557D01*
X102125512Y-115283685D01*
X101912241Y-115303298D01*
X101630795Y-115296155D01*
X101309375Y-115262016D01*
X101208826Y-115246383D01*
X100904211Y-115171466D01*
X100683951Y-115052601D01*
X100537273Y-114872701D01*
X100453409Y-114614679D01*
X100421587Y-114261446D01*
X100422913Y-113999533D01*
X100437668Y-113721595D01*
X100979943Y-113721595D01*
X101010674Y-113854635D01*
X101024394Y-113871007D01*
X101099000Y-113884863D01*
X101279387Y-113896824D01*
X101544022Y-113906093D01*
X101871373Y-113911871D01*
X102170259Y-113913446D01*
X103273684Y-113913446D01*
X103273684Y-113726079D01*
X103257739Y-113586930D01*
X103199062Y-113485043D01*
X103081387Y-113414947D01*
X102888448Y-113371167D01*
X102603982Y-113348231D01*
X102211722Y-113340666D01*
X102127819Y-113340514D01*
X101752566Y-113343780D01*
X101483400Y-113354966D01*
X101299223Y-113376153D01*
X101178937Y-113409422D01*
X101123437Y-113439612D01*
X101021925Y-113564115D01*
X100979943Y-113721595D01*
X100437668Y-113721595D01*
X100440662Y-113665204D01*
X100482700Y-113405667D01*
G37*
G36*
X94388993Y-110780447D02*
G01*
X94482217Y-110660247D01*
X94656753Y-110585145D01*
X94928282Y-110547593D01*
X95220802Y-110539511D01*
X95491278Y-110531749D01*
X95690642Y-110511566D01*
X95807736Y-110483626D01*
X95831400Y-110452586D01*
X95750475Y-110423108D01*
X95555012Y-110399939D01*
X95365905Y-110368887D01*
X95288143Y-110307936D01*
X95284461Y-110284875D01*
X95317033Y-110225929D01*
X95430843Y-110197317D01*
X95611710Y-110191729D01*
X95860486Y-110208259D01*
X96018134Y-110268645D01*
X96104487Y-110395544D01*
X96139376Y-110611613D01*
X96143859Y-110799703D01*
X96138068Y-111024504D01*
X96107603Y-111180455D01*
X96032827Y-111280117D01*
X95894103Y-111336050D01*
X95671792Y-111360816D01*
X95346258Y-111366975D01*
X95256816Y-111367080D01*
X94955403Y-111363944D01*
X94753201Y-111351438D01*
X94622191Y-111324919D01*
X94534353Y-111279742D01*
X94488721Y-111239762D01*
X94392410Y-111088106D01*
X94368668Y-110984883D01*
X94683760Y-110984883D01*
X94733642Y-111097987D01*
X94791102Y-111132221D01*
X94982489Y-111159792D01*
X95230741Y-111167571D01*
X95481188Y-111156622D01*
X95679158Y-111128009D01*
X95725931Y-111114019D01*
X95857801Y-111018847D01*
X95889223Y-110891212D01*
X95883892Y-110811182D01*
X95850491Y-110763421D01*
X95762907Y-110739603D01*
X95595028Y-110731401D01*
X95385156Y-110730489D01*
X95132928Y-110735181D01*
X94922581Y-110747599D01*
X94793005Y-110765260D01*
X94780394Y-110769129D01*
X94698754Y-110855247D01*
X94683760Y-110984883D01*
X94368668Y-110984883D01*
X94361403Y-110953296D01*
X94388993Y-110780447D01*
G37*
G36*
X82106359Y-113616767D02*
G01*
X82154333Y-113372707D01*
X82242718Y-113190212D01*
X82385953Y-113060532D01*
X82598478Y-112974913D01*
X82894733Y-112924603D01*
X83289157Y-112900849D01*
X83793985Y-112894900D01*
X84247106Y-112899058D01*
X84593300Y-112914262D01*
X84852768Y-112944605D01*
X85045711Y-112994181D01*
X85192330Y-113067083D01*
X85312827Y-113167406D01*
X85353634Y-113210947D01*
X85398192Y-113270274D01*
X85431617Y-113346927D01*
X85455938Y-113459663D01*
X85473182Y-113627234D01*
X85485378Y-113868397D01*
X85494555Y-114201907D01*
X85501617Y-114579107D01*
X85507710Y-115010828D01*
X85508629Y-115333148D01*
X85503247Y-115563919D01*
X85490434Y-115720994D01*
X85469061Y-115822225D01*
X85438000Y-115885466D01*
X85417496Y-115909412D01*
X85242706Y-116002220D01*
X85030432Y-115976349D01*
X85019423Y-115972038D01*
X84967818Y-115889005D01*
X84941684Y-115709817D01*
X84939849Y-115635080D01*
X84939849Y-115330232D01*
X83873559Y-115301482D01*
X83340452Y-115280580D01*
X82921520Y-115243306D01*
X82603782Y-115179717D01*
X82374257Y-115079871D01*
X82219964Y-114933826D01*
X82127923Y-114731642D01*
X82085153Y-114463374D01*
X82078672Y-114119083D01*
X82080078Y-114072594D01*
X82648120Y-114072594D01*
X82650526Y-114319915D01*
X82668642Y-114504128D01*
X82718811Y-114634529D01*
X82817381Y-114720414D01*
X82980697Y-114771077D01*
X83225102Y-114795813D01*
X83566944Y-114803918D01*
X83935467Y-114804674D01*
X84939849Y-114804674D01*
X84939849Y-114171693D01*
X84937509Y-113876437D01*
X84918937Y-113660967D01*
X84866813Y-113512717D01*
X84763811Y-113419121D01*
X84592608Y-113367612D01*
X84335881Y-113345625D01*
X83976307Y-113340593D01*
X83793985Y-113340514D01*
X83386937Y-113342796D01*
X83089882Y-113357019D01*
X82885499Y-113394250D01*
X82756464Y-113465556D01*
X82685455Y-113582005D01*
X82655150Y-113754663D01*
X82648227Y-113994598D01*
X82648120Y-114072594D01*
X82080078Y-114072594D01*
X82084354Y-113931145D01*
X82106359Y-113616767D01*
G37*
G36*
X122587632Y-92920377D02*
G01*
X122612575Y-92920711D01*
X123054230Y-92928556D01*
X123384188Y-92939016D01*
X123618063Y-92953418D01*
X123771469Y-92973088D01*
X123860021Y-92999352D01*
X123897231Y-93029816D01*
X123921177Y-93079800D01*
X123922895Y-93135771D01*
X123892799Y-93211705D01*
X123821300Y-93321581D01*
X123698813Y-93479375D01*
X123515748Y-93699065D01*
X123262520Y-93994629D01*
X123130751Y-94147281D01*
X122840550Y-94479526D01*
X122618181Y-94723468D01*
X122451231Y-94889646D01*
X122327282Y-94988601D01*
X122233921Y-95030873D01*
X122158730Y-95027001D01*
X122117745Y-95007269D01*
X122075912Y-94970826D01*
X122066181Y-94919991D01*
X122097661Y-94840809D01*
X122179457Y-94719324D01*
X122320678Y-94541582D01*
X122530430Y-94293627D01*
X122746995Y-94043051D01*
X122968650Y-93785264D01*
X123157261Y-93561325D01*
X123298453Y-93388668D01*
X123377852Y-93284728D01*
X123389975Y-93263226D01*
X123329811Y-93250258D01*
X123163294Y-93239114D01*
X122911384Y-93230573D01*
X122595042Y-93225411D01*
X122337601Y-93224223D01*
X121942399Y-93222749D01*
X121656485Y-93217205D01*
X121461849Y-93205911D01*
X121340482Y-93187184D01*
X121274375Y-93159343D01*
X121246119Y-93122310D01*
X121256315Y-93005669D01*
X121295861Y-92962031D01*
X121384908Y-92944700D01*
X121579921Y-92931201D01*
X121859587Y-92922202D01*
X122202595Y-92918371D01*
X122587632Y-92920377D01*
G37*
M02*
