G04 #@! TF.GenerationSoftware,KiCad,Pcbnew,6.0.11-2627ca5db0~126~ubuntu22.04.1*
G04 #@! TF.CreationDate,2025-05-27T11:15:30+02:00*
G04 #@! TF.ProjectId,TopCoverQPCR,546f7043-6f76-4657-9251-5043522e6b69,rev?*
G04 #@! TF.SameCoordinates,Original*
G04 #@! TF.FileFunction,Profile,NP*
%FSLAX46Y46*%
G04 Gerber Fmt 4.6, Leading zero omitted, Abs format (unit mm)*
G04 Created by KiCad (PCBNEW 6.0.11-2627ca5db0~126~ubuntu22.04.1) date 2025-05-27 11:15:30*
%MOMM*%
%LPD*%
G01*
G04 APERTURE LIST*
G04 #@! TA.AperFunction,Profile*
%ADD10C,0.150000*%
G04 #@! TD*
G04 #@! TA.AperFunction,Profile*
%ADD11C,0.100000*%
G04 #@! TD*
G04 APERTURE END LIST*
D10*
X65902273Y-152486820D02*
X67913114Y-152486820D01*
X137215445Y-28746360D02*
X62744009Y-28746360D01*
X67421982Y-40498308D02*
G75*
G03*
X67419187Y-39703785I11818J397308D01*
G01*
X67913107Y-152486820D02*
X67913107Y-134001270D01*
D11*
X116000000Y-51698074D02*
G75*
G03*
X116000000Y-51698074I-16000000J0D01*
G01*
D10*
X134094228Y-134001270D02*
X133106451Y-134001270D01*
X57487617Y-33967474D02*
X57487617Y-39703785D01*
X133106436Y-134001270D02*
X133106436Y-123241550D01*
X131465164Y-83920839D02*
X68494291Y-83920839D01*
X133106436Y-152486820D02*
X134094213Y-152486820D01*
X131465164Y-91435001D02*
G75*
G03*
X131465164Y-83920839I6J3757081D01*
G01*
X57487626Y-165977002D02*
G75*
G03*
X62749989Y-171248074I5266774J-4298D01*
G01*
X62744009Y-28746357D02*
G75*
G03*
X57487617Y-33967474I-17649J-5238743D01*
G01*
X133106436Y-163246555D02*
X133106436Y-152486820D01*
X57487617Y-40498233D02*
X57487617Y-165977002D01*
X67913107Y-134001270D02*
X65902273Y-134001270D01*
X134094228Y-152486820D02*
X134094228Y-134001270D01*
X128096990Y-163246555D02*
X133106436Y-163246555D01*
X65902281Y-134001270D02*
X65902273Y-152486820D01*
X142500000Y-33998174D02*
X142500000Y-165998177D01*
X57487617Y-40498233D02*
X67421984Y-40498233D01*
X137250000Y-171248074D02*
X62749989Y-171248074D01*
X137250000Y-171248080D02*
G75*
G03*
X142500000Y-165998177I80J5249920D01*
G01*
X142500041Y-33998174D02*
G75*
G03*
X137215445Y-28746360I-5268141J-16326D01*
G01*
X68494291Y-83920830D02*
G75*
G03*
X68494291Y-91435010I-1J-3757090D01*
G01*
X68494291Y-91435010D02*
X131465164Y-91435010D01*
X128096990Y-123241550D02*
X128096990Y-163246555D01*
X133106436Y-123241550D02*
X128096983Y-123241550D01*
X67419187Y-39703785D02*
X57487617Y-39703785D01*
M02*
