G04 #@! TF.GenerationSoftware,KiCad,Pcbnew,6.0.9-8da3e8f707~117~ubuntu22.04.1*
G04 #@! TF.CreationDate,2023-01-10T09:45:36+01:00*
G04 #@! TF.ProjectId,qCamPCR,7143616d-5043-4522-9e6b-696361645f70,rev?*
G04 #@! TF.SameCoordinates,Original*
G04 #@! TF.FileFunction,Legend,Top*
G04 #@! TF.FilePolarity,Positive*
%FSLAX46Y46*%
G04 Gerber Fmt 4.6, Leading zero omitted, Abs format (unit mm)*
G04 Created by KiCad (PCBNEW 6.0.9-8da3e8f707~117~ubuntu22.04.1) date 2023-01-10 09:45:36*
%MOMM*%
%LPD*%
G01*
G04 APERTURE LIST*
%ADD10C,0.150000*%
%ADD11C,0.150001*%
%ADD12C,0.100000*%
%ADD13C,0.300000*%
%ADD14C,0.120000*%
%ADD15C,0.050000*%
G04 APERTURE END LIST*
D10*
X121000000Y-156295501D02*
X127203655Y-156295501D01*
D11*
X65531004Y-94399227D02*
X61694028Y-94399227D01*
X93499077Y-141107068D02*
X93499077Y-134341770D01*
X104500748Y-139106538D02*
X104500748Y-135105834D01*
D12*
X96000000Y-146736000D02*
X96000000Y-141148000D01*
X96000000Y-165000000D02*
X104000000Y-165000000D01*
D11*
X80426570Y-115715503D02*
X65501593Y-94368916D01*
D10*
X100000000Y-48692091D02*
X100000000Y-54692091D01*
D11*
X95499252Y-135105834D02*
X95499252Y-139106893D01*
X133844561Y-93198909D02*
X138306326Y-93198909D01*
D12*
X96000000Y-152020000D02*
X96000000Y-165020000D01*
D11*
X93499077Y-134341770D02*
X83900187Y-120633378D01*
X103500660Y-139106538D02*
X103500660Y-141106713D01*
X61693674Y-93198909D02*
X66155793Y-93198909D01*
X95499252Y-139106538D02*
X104501102Y-139106538D01*
X138291803Y-94369115D02*
X134445606Y-94369104D01*
X134445748Y-94368998D02*
X119520771Y-115715584D01*
X106501277Y-134341770D02*
X106501277Y-141107068D01*
X106501277Y-141107068D02*
X93499077Y-141107068D01*
X78274273Y-117232705D02*
X80426570Y-115715503D01*
X96499694Y-139106538D02*
X96499694Y-141106713D01*
D10*
X97000000Y-51692091D02*
X103000000Y-51692091D01*
D11*
X116099919Y-120633272D02*
X106501029Y-134341664D01*
D12*
X104000000Y-141148000D02*
X104000000Y-146736000D01*
X104000000Y-152000000D02*
X104000000Y-165000000D01*
D11*
X66155793Y-93198909D02*
X95499394Y-135105834D01*
X104500748Y-135105834D02*
X133844561Y-93198909D01*
X119542106Y-115717533D02*
X121724398Y-117245665D01*
X118250710Y-122137301D02*
X116098403Y-120620099D01*
X93499077Y-134341770D02*
X85154513Y-122424746D01*
D10*
X121000000Y-130295501D02*
X127203655Y-130295501D01*
D11*
X83900435Y-120633272D02*
X81718143Y-122161403D01*
D10*
X63221984Y-106484880D02*
X63221984Y-105484880D01*
X63221984Y-105961071D02*
X63793412Y-105961071D01*
X63793412Y-106484880D02*
X63793412Y-105484880D01*
X64269603Y-105961071D02*
X64602936Y-105961071D01*
X64745793Y-106484880D02*
X64269603Y-106484880D01*
X64269603Y-105484880D01*
X64745793Y-105484880D01*
X65126745Y-106199166D02*
X65602936Y-106199166D01*
X65031507Y-106484880D02*
X65364841Y-105484880D01*
X65698174Y-106484880D01*
X65888650Y-105484880D02*
X66460079Y-105484880D01*
X66174364Y-106484880D02*
X66174364Y-105484880D01*
X66793412Y-105961071D02*
X67126745Y-105961071D01*
X67269603Y-106484880D02*
X66793412Y-106484880D01*
X66793412Y-105484880D01*
X67269603Y-105484880D01*
X68269603Y-106484880D02*
X67936269Y-106008690D01*
X67698174Y-106484880D02*
X67698174Y-105484880D01*
X68079126Y-105484880D01*
X68174364Y-105532500D01*
X68221984Y-105580119D01*
X68269603Y-105675357D01*
X68269603Y-105818214D01*
X68221984Y-105913452D01*
X68174364Y-105961071D01*
X68079126Y-106008690D01*
X67698174Y-106008690D01*
X131623095Y-106612000D02*
X131527857Y-106564380D01*
X131385000Y-106564380D01*
X131242142Y-106612000D01*
X131146904Y-106707238D01*
X131099285Y-106802476D01*
X131051666Y-106992952D01*
X131051666Y-107135809D01*
X131099285Y-107326285D01*
X131146904Y-107421523D01*
X131242142Y-107516761D01*
X131385000Y-107564380D01*
X131480238Y-107564380D01*
X131623095Y-107516761D01*
X131670714Y-107469142D01*
X131670714Y-107135809D01*
X131480238Y-107135809D01*
X132099285Y-107564380D02*
X132099285Y-106564380D01*
X132670714Y-107564380D01*
X132670714Y-106564380D01*
X133146904Y-107564380D02*
X133146904Y-106564380D01*
X133385000Y-106564380D01*
X133527857Y-106612000D01*
X133623095Y-106707238D01*
X133670714Y-106802476D01*
X133718333Y-106992952D01*
X133718333Y-107135809D01*
X133670714Y-107326285D01*
X133623095Y-107421523D01*
X133527857Y-107516761D01*
X133385000Y-107564380D01*
X133146904Y-107564380D01*
X130377023Y-103944880D02*
X130377023Y-102944880D01*
X130377023Y-103421071D02*
X130948452Y-103421071D01*
X130948452Y-103944880D02*
X130948452Y-102944880D01*
X131424642Y-103944880D02*
X131424642Y-102944880D01*
X131996071Y-103944880D01*
X131996071Y-102944880D01*
X132329404Y-102944880D02*
X132900833Y-102944880D01*
X132615119Y-103944880D02*
X132615119Y-102944880D01*
X133805595Y-103849642D02*
X133757976Y-103897261D01*
X133615119Y-103944880D01*
X133519880Y-103944880D01*
X133377023Y-103897261D01*
X133281785Y-103802023D01*
X133234166Y-103706785D01*
X133186547Y-103516309D01*
X133186547Y-103373452D01*
X133234166Y-103182976D01*
X133281785Y-103087738D01*
X133377023Y-102992500D01*
X133519880Y-102944880D01*
X133615119Y-102944880D01*
X133757976Y-102992500D01*
X133805595Y-103040119D01*
D13*
X98785714Y-72968857D02*
X98285714Y-72968857D01*
X98285714Y-73754571D02*
X98285714Y-72254571D01*
X99000000Y-72254571D01*
X99500000Y-73326000D02*
X100214285Y-73326000D01*
X99357142Y-73754571D02*
X99857142Y-72254571D01*
X100357142Y-73754571D01*
X100857142Y-73754571D02*
X100857142Y-72254571D01*
X101714285Y-73754571D01*
X101714285Y-72254571D01*
D10*
X62900079Y-72599661D02*
X63661984Y-72599661D01*
X63281031Y-72980613D02*
X63281031Y-72218709D01*
X64042936Y-71980613D02*
X64661984Y-71980613D01*
X64328650Y-72361566D01*
X64471507Y-72361566D01*
X64566745Y-72409185D01*
X64614364Y-72456804D01*
X64661984Y-72552042D01*
X64661984Y-72790137D01*
X64614364Y-72885375D01*
X64566745Y-72932994D01*
X64471507Y-72980613D01*
X64185793Y-72980613D01*
X64090555Y-72932994D01*
X64042936Y-72885375D01*
X64947698Y-71980613D02*
X65281031Y-72980613D01*
X65614364Y-71980613D01*
X65852460Y-71980613D02*
X66471507Y-71980613D01*
X66138174Y-72361566D01*
X66281031Y-72361566D01*
X66376269Y-72409185D01*
X66423888Y-72456804D01*
X66471507Y-72552042D01*
X66471507Y-72790137D01*
X66423888Y-72885375D01*
X66376269Y-72932994D01*
X66281031Y-72980613D01*
X65995317Y-72980613D01*
X65900079Y-72932994D01*
X65852460Y-72885375D01*
X64900079Y-77728233D02*
X64804841Y-77680613D01*
X64661984Y-77680613D01*
X64519126Y-77728233D01*
X64423888Y-77823471D01*
X64376269Y-77918709D01*
X64328650Y-78109185D01*
X64328650Y-78252042D01*
X64376269Y-78442518D01*
X64423888Y-78537756D01*
X64519126Y-78632994D01*
X64661984Y-78680613D01*
X64757222Y-78680613D01*
X64900079Y-78632994D01*
X64947698Y-78585375D01*
X64947698Y-78252042D01*
X64757222Y-78252042D01*
X65376269Y-78680613D02*
X65376269Y-77680613D01*
X65947698Y-78680613D01*
X65947698Y-77680613D01*
X66423888Y-78680613D02*
X66423888Y-77680613D01*
X66661984Y-77680613D01*
X66804841Y-77728233D01*
X66900079Y-77823471D01*
X66947698Y-77918709D01*
X66995317Y-78109185D01*
X66995317Y-78252042D01*
X66947698Y-78442518D01*
X66900079Y-78537756D01*
X66804841Y-78632994D01*
X66661984Y-78680613D01*
X66423888Y-78680613D01*
X136502460Y-47930613D02*
X136026269Y-47930613D01*
X136026269Y-46930613D01*
X136835793Y-47930613D02*
X136835793Y-46930613D01*
X137169126Y-46930613D02*
X137502460Y-47930613D01*
X137835793Y-46930613D01*
X138169126Y-47406804D02*
X138502460Y-47406804D01*
X138645317Y-47930613D02*
X138169126Y-47930613D01*
X138169126Y-46930613D01*
X138645317Y-46930613D01*
X67128650Y-72030613D02*
X67461984Y-73030613D01*
X67795317Y-72030613D01*
X68461984Y-72506804D02*
X68604841Y-72554423D01*
X68652460Y-72602042D01*
X68700079Y-72697280D01*
X68700079Y-72840137D01*
X68652460Y-72935375D01*
X68604841Y-72982994D01*
X68509603Y-73030613D01*
X68128650Y-73030613D01*
X68128650Y-72030613D01*
X68461984Y-72030613D01*
X68557222Y-72078233D01*
X68604841Y-72125852D01*
X68652460Y-72221090D01*
X68652460Y-72316328D01*
X68604841Y-72411566D01*
X68557222Y-72459185D01*
X68461984Y-72506804D01*
X68128650Y-72506804D01*
X69128650Y-72030613D02*
X69128650Y-72840137D01*
X69176269Y-72935375D01*
X69223888Y-72982994D01*
X69319126Y-73030613D01*
X69509603Y-73030613D01*
X69604841Y-72982994D01*
X69652460Y-72935375D01*
X69700079Y-72840137D01*
X69700079Y-72030613D01*
X70128650Y-72982994D02*
X70271507Y-73030613D01*
X70509603Y-73030613D01*
X70604841Y-72982994D01*
X70652460Y-72935375D01*
X70700079Y-72840137D01*
X70700079Y-72744899D01*
X70652460Y-72649661D01*
X70604841Y-72602042D01*
X70509603Y-72554423D01*
X70319126Y-72506804D01*
X70223888Y-72459185D01*
X70176269Y-72411566D01*
X70128650Y-72316328D01*
X70128650Y-72221090D01*
X70176269Y-72125852D01*
X70223888Y-72078233D01*
X70319126Y-72030613D01*
X70557222Y-72030613D01*
X70700079Y-72078233D01*
X89521507Y-152613947D02*
X89483412Y-152652042D01*
X89369126Y-152690137D01*
X89292936Y-152690137D01*
X89178650Y-152652042D01*
X89102460Y-152575852D01*
X89064364Y-152499661D01*
X89026269Y-152347280D01*
X89026269Y-152232994D01*
X89064364Y-152080613D01*
X89102460Y-152004423D01*
X89178650Y-151928233D01*
X89292936Y-151890137D01*
X89369126Y-151890137D01*
X89483412Y-151928233D01*
X89521507Y-151966328D01*
X89864364Y-152690137D02*
X89864364Y-151890137D01*
X90131031Y-152461566D01*
X90397698Y-151890137D01*
X90397698Y-152690137D01*
X91197698Y-152690137D02*
X90740555Y-152690137D01*
X90969126Y-152690137D02*
X90969126Y-151890137D01*
X90892936Y-152004423D01*
X90816745Y-152080613D01*
X90740555Y-152118709D01*
X131028650Y-34880613D02*
X131028650Y-35594899D01*
X130981031Y-35737756D01*
X130885793Y-35832994D01*
X130742936Y-35880613D01*
X130647698Y-35880613D01*
X132028650Y-35880613D02*
X131457222Y-35880613D01*
X131742936Y-35880613D02*
X131742936Y-34880613D01*
X131647698Y-35023471D01*
X131552460Y-35118709D01*
X131457222Y-35166328D01*
X117878650Y-158880613D02*
X117878650Y-159594899D01*
X117831031Y-159737756D01*
X117735793Y-159832994D01*
X117592936Y-159880613D01*
X117497698Y-159880613D01*
X118259603Y-158880613D02*
X118878650Y-158880613D01*
X118545317Y-159261566D01*
X118688174Y-159261566D01*
X118783412Y-159309185D01*
X118831031Y-159356804D01*
X118878650Y-159452042D01*
X118878650Y-159690137D01*
X118831031Y-159785375D01*
X118783412Y-159832994D01*
X118688174Y-159880613D01*
X118402460Y-159880613D01*
X118307222Y-159832994D01*
X118259603Y-159785375D01*
X111902460Y-167690137D02*
X111902460Y-168337756D01*
X111940555Y-168413947D01*
X111978650Y-168452042D01*
X112054841Y-168490137D01*
X112207222Y-168490137D01*
X112283412Y-168452042D01*
X112321507Y-168413947D01*
X112359603Y-168337756D01*
X112359603Y-167690137D01*
X113121507Y-167690137D02*
X112740555Y-167690137D01*
X112702460Y-168071090D01*
X112740555Y-168032994D01*
X112816745Y-167994899D01*
X113007222Y-167994899D01*
X113083412Y-168032994D01*
X113121507Y-168071090D01*
X113159603Y-168147280D01*
X113159603Y-168337756D01*
X113121507Y-168413947D01*
X113083412Y-168452042D01*
X113007222Y-168490137D01*
X112816745Y-168490137D01*
X112740555Y-168452042D01*
X112702460Y-168413947D01*
X67761904Y-82100880D02*
X67761904Y-81100880D01*
X68000000Y-81100880D01*
X68142857Y-81148500D01*
X68238095Y-81243738D01*
X68285714Y-81338976D01*
X68333333Y-81529452D01*
X68333333Y-81672309D01*
X68285714Y-81862785D01*
X68238095Y-81958023D01*
X68142857Y-82053261D01*
X68000000Y-82100880D01*
X67761904Y-82100880D01*
X69285714Y-82100880D02*
X68714285Y-82100880D01*
X69000000Y-82100880D02*
X69000000Y-81100880D01*
X68904761Y-81243738D01*
X68809523Y-81338976D01*
X68714285Y-81386595D01*
X76761904Y-82100880D02*
X76761904Y-81100880D01*
X77000000Y-81100880D01*
X77142857Y-81148500D01*
X77238095Y-81243738D01*
X77285714Y-81338976D01*
X77333333Y-81529452D01*
X77333333Y-81672309D01*
X77285714Y-81862785D01*
X77238095Y-81958023D01*
X77142857Y-82053261D01*
X77000000Y-82100880D01*
X76761904Y-82100880D01*
X77714285Y-81196119D02*
X77761904Y-81148500D01*
X77857142Y-81100880D01*
X78095238Y-81100880D01*
X78190476Y-81148500D01*
X78238095Y-81196119D01*
X78285714Y-81291357D01*
X78285714Y-81386595D01*
X78238095Y-81529452D01*
X77666666Y-82100880D01*
X78285714Y-82100880D01*
X85761904Y-82100880D02*
X85761904Y-81100880D01*
X86000000Y-81100880D01*
X86142857Y-81148500D01*
X86238095Y-81243738D01*
X86285714Y-81338976D01*
X86333333Y-81529452D01*
X86333333Y-81672309D01*
X86285714Y-81862785D01*
X86238095Y-81958023D01*
X86142857Y-82053261D01*
X86000000Y-82100880D01*
X85761904Y-82100880D01*
X86666666Y-81100880D02*
X87285714Y-81100880D01*
X86952380Y-81481833D01*
X87095238Y-81481833D01*
X87190476Y-81529452D01*
X87238095Y-81577071D01*
X87285714Y-81672309D01*
X87285714Y-81910404D01*
X87238095Y-82005642D01*
X87190476Y-82053261D01*
X87095238Y-82100880D01*
X86809523Y-82100880D01*
X86714285Y-82053261D01*
X86666666Y-82005642D01*
X94761904Y-82100880D02*
X94761904Y-81100880D01*
X95000000Y-81100880D01*
X95142857Y-81148500D01*
X95238095Y-81243738D01*
X95285714Y-81338976D01*
X95333333Y-81529452D01*
X95333333Y-81672309D01*
X95285714Y-81862785D01*
X95238095Y-81958023D01*
X95142857Y-82053261D01*
X95000000Y-82100880D01*
X94761904Y-82100880D01*
X96190476Y-81434214D02*
X96190476Y-82100880D01*
X95952380Y-81053261D02*
X95714285Y-81767547D01*
X96333333Y-81767547D01*
X103761904Y-82100880D02*
X103761904Y-81100880D01*
X104000000Y-81100880D01*
X104142857Y-81148500D01*
X104238095Y-81243738D01*
X104285714Y-81338976D01*
X104333333Y-81529452D01*
X104333333Y-81672309D01*
X104285714Y-81862785D01*
X104238095Y-81958023D01*
X104142857Y-82053261D01*
X104000000Y-82100880D01*
X103761904Y-82100880D01*
X105238095Y-81100880D02*
X104761904Y-81100880D01*
X104714285Y-81577071D01*
X104761904Y-81529452D01*
X104857142Y-81481833D01*
X105095238Y-81481833D01*
X105190476Y-81529452D01*
X105238095Y-81577071D01*
X105285714Y-81672309D01*
X105285714Y-81910404D01*
X105238095Y-82005642D01*
X105190476Y-82053261D01*
X105095238Y-82100880D01*
X104857142Y-82100880D01*
X104761904Y-82053261D01*
X104714285Y-82005642D01*
X121761904Y-82100880D02*
X121761904Y-81100880D01*
X122000000Y-81100880D01*
X122142857Y-81148500D01*
X122238095Y-81243738D01*
X122285714Y-81338976D01*
X122333333Y-81529452D01*
X122333333Y-81672309D01*
X122285714Y-81862785D01*
X122238095Y-81958023D01*
X122142857Y-82053261D01*
X122000000Y-82100880D01*
X121761904Y-82100880D01*
X122666666Y-81100880D02*
X123333333Y-81100880D01*
X122904761Y-82100880D01*
X112761904Y-82100880D02*
X112761904Y-81100880D01*
X113000000Y-81100880D01*
X113142857Y-81148500D01*
X113238095Y-81243738D01*
X113285714Y-81338976D01*
X113333333Y-81529452D01*
X113333333Y-81672309D01*
X113285714Y-81862785D01*
X113238095Y-81958023D01*
X113142857Y-82053261D01*
X113000000Y-82100880D01*
X112761904Y-82100880D01*
X114190476Y-81100880D02*
X114000000Y-81100880D01*
X113904761Y-81148500D01*
X113857142Y-81196119D01*
X113761904Y-81338976D01*
X113714285Y-81529452D01*
X113714285Y-81910404D01*
X113761904Y-82005642D01*
X113809523Y-82053261D01*
X113904761Y-82100880D01*
X114095238Y-82100880D01*
X114190476Y-82053261D01*
X114238095Y-82005642D01*
X114285714Y-81910404D01*
X114285714Y-81672309D01*
X114238095Y-81577071D01*
X114190476Y-81529452D01*
X114095238Y-81481833D01*
X113904761Y-81481833D01*
X113809523Y-81529452D01*
X113761904Y-81577071D01*
X113714285Y-81672309D01*
X107678650Y-144890137D02*
X107411984Y-144509185D01*
X107221507Y-144890137D02*
X107221507Y-144090137D01*
X107526269Y-144090137D01*
X107602460Y-144128233D01*
X107640555Y-144166328D01*
X107678650Y-144242518D01*
X107678650Y-144356804D01*
X107640555Y-144432994D01*
X107602460Y-144471090D01*
X107526269Y-144509185D01*
X107221507Y-144509185D01*
X107983412Y-144166328D02*
X108021507Y-144128233D01*
X108097698Y-144090137D01*
X108288174Y-144090137D01*
X108364364Y-144128233D01*
X108402460Y-144166328D01*
X108440555Y-144242518D01*
X108440555Y-144318709D01*
X108402460Y-144432994D01*
X107945317Y-144890137D01*
X108440555Y-144890137D01*
X84595317Y-131930613D02*
X84261984Y-131454423D01*
X84023888Y-131930613D02*
X84023888Y-130930613D01*
X84404841Y-130930613D01*
X84500079Y-130978233D01*
X84547698Y-131025852D01*
X84595317Y-131121090D01*
X84595317Y-131263947D01*
X84547698Y-131359185D01*
X84500079Y-131406804D01*
X84404841Y-131454423D01*
X84023888Y-131454423D01*
X84928650Y-130930613D02*
X85547698Y-130930613D01*
X85214364Y-131311566D01*
X85357222Y-131311566D01*
X85452460Y-131359185D01*
X85500079Y-131406804D01*
X85547698Y-131502042D01*
X85547698Y-131740137D01*
X85500079Y-131835375D01*
X85452460Y-131882994D01*
X85357222Y-131930613D01*
X85071507Y-131930613D01*
X84976269Y-131882994D01*
X84928650Y-131835375D01*
X133578650Y-46590137D02*
X133311984Y-46209185D01*
X133121507Y-46590137D02*
X133121507Y-45790137D01*
X133426269Y-45790137D01*
X133502460Y-45828233D01*
X133540555Y-45866328D01*
X133578650Y-45942518D01*
X133578650Y-46056804D01*
X133540555Y-46132994D01*
X133502460Y-46171090D01*
X133426269Y-46209185D01*
X133121507Y-46209185D01*
X133845317Y-45790137D02*
X134378650Y-45790137D01*
X134035793Y-46590137D01*
X132497698Y-130390137D02*
X132231031Y-130009185D01*
X132040555Y-130390137D02*
X132040555Y-129590137D01*
X132345317Y-129590137D01*
X132421507Y-129628233D01*
X132459603Y-129666328D01*
X132497698Y-129742518D01*
X132497698Y-129856804D01*
X132459603Y-129932994D01*
X132421507Y-129971090D01*
X132345317Y-130009185D01*
X132040555Y-130009185D01*
X132802460Y-129666328D02*
X132840555Y-129628233D01*
X132916745Y-129590137D01*
X133107222Y-129590137D01*
X133183412Y-129628233D01*
X133221507Y-129666328D01*
X133259603Y-129742518D01*
X133259603Y-129818709D01*
X133221507Y-129932994D01*
X132764364Y-130390137D01*
X133259603Y-130390137D01*
X133716745Y-129932994D02*
X133640555Y-129894899D01*
X133602460Y-129856804D01*
X133564364Y-129780613D01*
X133564364Y-129742518D01*
X133602460Y-129666328D01*
X133640555Y-129628233D01*
X133716745Y-129590137D01*
X133869126Y-129590137D01*
X133945317Y-129628233D01*
X133983412Y-129666328D01*
X134021507Y-129742518D01*
X134021507Y-129780613D01*
X133983412Y-129856804D01*
X133945317Y-129894899D01*
X133869126Y-129932994D01*
X133716745Y-129932994D01*
X133640555Y-129971090D01*
X133602460Y-130009185D01*
X133564364Y-130085375D01*
X133564364Y-130237756D01*
X133602460Y-130313947D01*
X133640555Y-130352042D01*
X133716745Y-130390137D01*
X133869126Y-130390137D01*
X133945317Y-130352042D01*
X133983412Y-130313947D01*
X134021507Y-130237756D01*
X134021507Y-130085375D01*
X133983412Y-130009185D01*
X133945317Y-129971090D01*
X133869126Y-129932994D01*
X132497698Y-132690137D02*
X132231031Y-132309185D01*
X132040555Y-132690137D02*
X132040555Y-131890137D01*
X132345317Y-131890137D01*
X132421507Y-131928233D01*
X132459603Y-131966328D01*
X132497698Y-132042518D01*
X132497698Y-132156804D01*
X132459603Y-132232994D01*
X132421507Y-132271090D01*
X132345317Y-132309185D01*
X132040555Y-132309185D01*
X132802460Y-131966328D02*
X132840555Y-131928233D01*
X132916745Y-131890137D01*
X133107222Y-131890137D01*
X133183412Y-131928233D01*
X133221507Y-131966328D01*
X133259603Y-132042518D01*
X133259603Y-132118709D01*
X133221507Y-132232994D01*
X132764364Y-132690137D01*
X133259603Y-132690137D01*
X133640555Y-132690137D02*
X133792936Y-132690137D01*
X133869126Y-132652042D01*
X133907222Y-132613947D01*
X133983412Y-132499661D01*
X134021507Y-132347280D01*
X134021507Y-132042518D01*
X133983412Y-131966328D01*
X133945317Y-131928233D01*
X133869126Y-131890137D01*
X133716745Y-131890137D01*
X133640555Y-131928233D01*
X133602460Y-131966328D01*
X133564364Y-132042518D01*
X133564364Y-132232994D01*
X133602460Y-132309185D01*
X133640555Y-132347280D01*
X133716745Y-132385375D01*
X133869126Y-132385375D01*
X133945317Y-132347280D01*
X133983412Y-132309185D01*
X134021507Y-132232994D01*
X132397698Y-134790137D02*
X132131031Y-134409185D01*
X131940555Y-134790137D02*
X131940555Y-133990137D01*
X132245317Y-133990137D01*
X132321507Y-134028233D01*
X132359603Y-134066328D01*
X132397698Y-134142518D01*
X132397698Y-134256804D01*
X132359603Y-134332994D01*
X132321507Y-134371090D01*
X132245317Y-134409185D01*
X131940555Y-134409185D01*
X132664364Y-133990137D02*
X133159603Y-133990137D01*
X132892936Y-134294899D01*
X133007222Y-134294899D01*
X133083412Y-134332994D01*
X133121507Y-134371090D01*
X133159603Y-134447280D01*
X133159603Y-134637756D01*
X133121507Y-134713947D01*
X133083412Y-134752042D01*
X133007222Y-134790137D01*
X132778650Y-134790137D01*
X132702460Y-134752042D01*
X132664364Y-134713947D01*
X133654841Y-133990137D02*
X133731031Y-133990137D01*
X133807222Y-134028233D01*
X133845317Y-134066328D01*
X133883412Y-134142518D01*
X133921507Y-134294899D01*
X133921507Y-134485375D01*
X133883412Y-134637756D01*
X133845317Y-134713947D01*
X133807222Y-134752042D01*
X133731031Y-134790137D01*
X133654841Y-134790137D01*
X133578650Y-134752042D01*
X133540555Y-134713947D01*
X133502460Y-134637756D01*
X133464364Y-134485375D01*
X133464364Y-134294899D01*
X133502460Y-134142518D01*
X133540555Y-134066328D01*
X133578650Y-134028233D01*
X133654841Y-133990137D01*
X123742714Y-42322904D02*
X123476047Y-41941952D01*
X123285571Y-42322904D02*
X123285571Y-41522904D01*
X123590333Y-41522904D01*
X123666523Y-41561000D01*
X123704619Y-41599095D01*
X123742714Y-41675285D01*
X123742714Y-41789571D01*
X123704619Y-41865761D01*
X123666523Y-41903857D01*
X123590333Y-41941952D01*
X123285571Y-41941952D01*
X124047476Y-41599095D02*
X124085571Y-41561000D01*
X124161761Y-41522904D01*
X124352238Y-41522904D01*
X124428428Y-41561000D01*
X124466523Y-41599095D01*
X124504619Y-41675285D01*
X124504619Y-41751476D01*
X124466523Y-41865761D01*
X124009380Y-42322904D01*
X124504619Y-42322904D01*
X125190333Y-41789571D02*
X125190333Y-42322904D01*
X124999857Y-41484809D02*
X124809380Y-42056238D01*
X125304619Y-42056238D01*
X130854714Y-42322904D02*
X130588047Y-41941952D01*
X130397571Y-42322904D02*
X130397571Y-41522904D01*
X130702333Y-41522904D01*
X130778523Y-41561000D01*
X130816619Y-41599095D01*
X130854714Y-41675285D01*
X130854714Y-41789571D01*
X130816619Y-41865761D01*
X130778523Y-41903857D01*
X130702333Y-41941952D01*
X130397571Y-41941952D01*
X131616619Y-42322904D02*
X131159476Y-42322904D01*
X131388047Y-42322904D02*
X131388047Y-41522904D01*
X131311857Y-41637190D01*
X131235666Y-41713380D01*
X131159476Y-41751476D01*
X132073761Y-41865761D02*
X131997571Y-41827666D01*
X131959476Y-41789571D01*
X131921380Y-41713380D01*
X131921380Y-41675285D01*
X131959476Y-41599095D01*
X131997571Y-41561000D01*
X132073761Y-41522904D01*
X132226142Y-41522904D01*
X132302333Y-41561000D01*
X132340428Y-41599095D01*
X132378523Y-41675285D01*
X132378523Y-41713380D01*
X132340428Y-41789571D01*
X132302333Y-41827666D01*
X132226142Y-41865761D01*
X132073761Y-41865761D01*
X131997571Y-41903857D01*
X131959476Y-41941952D01*
X131921380Y-42018142D01*
X131921380Y-42170523D01*
X131959476Y-42246714D01*
X131997571Y-42284809D01*
X132073761Y-42322904D01*
X132226142Y-42322904D01*
X132302333Y-42284809D01*
X132340428Y-42246714D01*
X132378523Y-42170523D01*
X132378523Y-42018142D01*
X132340428Y-41941952D01*
X132302333Y-41903857D01*
X132226142Y-41865761D01*
X73135964Y-46259904D02*
X72869297Y-45878952D01*
X72678821Y-46259904D02*
X72678821Y-45459904D01*
X72983583Y-45459904D01*
X73059773Y-45498000D01*
X73097869Y-45536095D01*
X73135964Y-45612285D01*
X73135964Y-45726571D01*
X73097869Y-45802761D01*
X73059773Y-45840857D01*
X72983583Y-45878952D01*
X72678821Y-45878952D01*
X73402630Y-45459904D02*
X73897869Y-45459904D01*
X73631202Y-45764666D01*
X73745488Y-45764666D01*
X73821678Y-45802761D01*
X73859773Y-45840857D01*
X73897869Y-45917047D01*
X73897869Y-46107523D01*
X73859773Y-46183714D01*
X73821678Y-46221809D01*
X73745488Y-46259904D01*
X73516916Y-46259904D01*
X73440726Y-46221809D01*
X73402630Y-46183714D01*
X74659773Y-46259904D02*
X74202630Y-46259904D01*
X74431202Y-46259904D02*
X74431202Y-45459904D01*
X74355011Y-45574190D01*
X74278821Y-45650380D01*
X74202630Y-45688476D01*
X129097698Y-46990137D02*
X128831031Y-46609185D01*
X128640555Y-46990137D02*
X128640555Y-46190137D01*
X128945317Y-46190137D01*
X129021507Y-46228233D01*
X129059603Y-46266328D01*
X129097698Y-46342518D01*
X129097698Y-46456804D01*
X129059603Y-46532994D01*
X129021507Y-46571090D01*
X128945317Y-46609185D01*
X128640555Y-46609185D01*
X129859603Y-46990137D02*
X129402460Y-46990137D01*
X129631031Y-46990137D02*
X129631031Y-46190137D01*
X129554841Y-46304423D01*
X129478650Y-46380613D01*
X129402460Y-46418709D01*
X130240555Y-46990137D02*
X130392936Y-46990137D01*
X130469126Y-46952042D01*
X130507222Y-46913947D01*
X130583412Y-46799661D01*
X130621507Y-46647280D01*
X130621507Y-46342518D01*
X130583412Y-46266328D01*
X130545317Y-46228233D01*
X130469126Y-46190137D01*
X130316745Y-46190137D01*
X130240555Y-46228233D01*
X130202460Y-46266328D01*
X130164364Y-46342518D01*
X130164364Y-46532994D01*
X130202460Y-46609185D01*
X130240555Y-46647280D01*
X130316745Y-46685375D01*
X130469126Y-46685375D01*
X130545317Y-46647280D01*
X130583412Y-46609185D01*
X130621507Y-46532994D01*
X111902460Y-159090137D02*
X111902460Y-159737756D01*
X111940555Y-159813947D01*
X111978650Y-159852042D01*
X112054841Y-159890137D01*
X112207222Y-159890137D01*
X112283412Y-159852042D01*
X112321507Y-159813947D01*
X112359603Y-159737756D01*
X112359603Y-159090137D01*
X113083412Y-159356804D02*
X113083412Y-159890137D01*
X112892936Y-159052042D02*
X112702460Y-159623471D01*
X113197698Y-159623471D01*
X129197698Y-119790137D02*
X128931031Y-119409185D01*
X128740555Y-119790137D02*
X128740555Y-118990137D01*
X129045317Y-118990137D01*
X129121507Y-119028233D01*
X129159603Y-119066328D01*
X129197698Y-119142518D01*
X129197698Y-119256804D01*
X129159603Y-119332994D01*
X129121507Y-119371090D01*
X129045317Y-119409185D01*
X128740555Y-119409185D01*
X129959603Y-119790137D02*
X129502460Y-119790137D01*
X129731031Y-119790137D02*
X129731031Y-118990137D01*
X129654841Y-119104423D01*
X129578650Y-119180613D01*
X129502460Y-119218709D01*
X130454841Y-118990137D02*
X130531031Y-118990137D01*
X130607222Y-119028233D01*
X130645317Y-119066328D01*
X130683412Y-119142518D01*
X130721507Y-119294899D01*
X130721507Y-119485375D01*
X130683412Y-119637756D01*
X130645317Y-119713947D01*
X130607222Y-119752042D01*
X130531031Y-119790137D01*
X130454841Y-119790137D01*
X130378650Y-119752042D01*
X130340555Y-119713947D01*
X130302460Y-119637756D01*
X130264364Y-119485375D01*
X130264364Y-119294899D01*
X130302460Y-119142518D01*
X130340555Y-119066328D01*
X130378650Y-119028233D01*
X130454841Y-118990137D01*
X131747698Y-119790137D02*
X131481031Y-119409185D01*
X131290555Y-119790137D02*
X131290555Y-118990137D01*
X131595317Y-118990137D01*
X131671507Y-119028233D01*
X131709603Y-119066328D01*
X131747698Y-119142518D01*
X131747698Y-119256804D01*
X131709603Y-119332994D01*
X131671507Y-119371090D01*
X131595317Y-119409185D01*
X131290555Y-119409185D01*
X132509603Y-119790137D02*
X132052460Y-119790137D01*
X132281031Y-119790137D02*
X132281031Y-118990137D01*
X132204841Y-119104423D01*
X132128650Y-119180613D01*
X132052460Y-119218709D01*
X133271507Y-119790137D02*
X132814364Y-119790137D01*
X133042936Y-119790137D02*
X133042936Y-118990137D01*
X132966745Y-119104423D01*
X132890555Y-119180613D01*
X132814364Y-119218709D01*
X73878650Y-61763947D02*
X73840555Y-61802042D01*
X73726269Y-61840137D01*
X73650079Y-61840137D01*
X73535793Y-61802042D01*
X73459603Y-61725852D01*
X73421507Y-61649661D01*
X73383412Y-61497280D01*
X73383412Y-61382994D01*
X73421507Y-61230613D01*
X73459603Y-61154423D01*
X73535793Y-61078233D01*
X73650079Y-61040137D01*
X73726269Y-61040137D01*
X73840555Y-61078233D01*
X73878650Y-61116328D01*
X74183412Y-61116328D02*
X74221507Y-61078233D01*
X74297698Y-61040137D01*
X74488174Y-61040137D01*
X74564364Y-61078233D01*
X74602460Y-61116328D01*
X74640555Y-61192518D01*
X74640555Y-61268709D01*
X74602460Y-61382994D01*
X74145317Y-61840137D01*
X74640555Y-61840137D01*
X93128650Y-160113947D02*
X93090555Y-160152042D01*
X92976269Y-160190137D01*
X92900079Y-160190137D01*
X92785793Y-160152042D01*
X92709603Y-160075852D01*
X92671507Y-159999661D01*
X92633412Y-159847280D01*
X92633412Y-159732994D01*
X92671507Y-159580613D01*
X92709603Y-159504423D01*
X92785793Y-159428233D01*
X92900079Y-159390137D01*
X92976269Y-159390137D01*
X93090555Y-159428233D01*
X93128650Y-159466328D01*
X93814364Y-159656804D02*
X93814364Y-160190137D01*
X93623888Y-159352042D02*
X93433412Y-159923471D01*
X93928650Y-159923471D01*
X115278650Y-168013947D02*
X115240555Y-168052042D01*
X115126269Y-168090137D01*
X115050079Y-168090137D01*
X114935793Y-168052042D01*
X114859603Y-167975852D01*
X114821507Y-167899661D01*
X114783412Y-167747280D01*
X114783412Y-167632994D01*
X114821507Y-167480613D01*
X114859603Y-167404423D01*
X114935793Y-167328233D01*
X115050079Y-167290137D01*
X115126269Y-167290137D01*
X115240555Y-167328233D01*
X115278650Y-167366328D01*
X116002460Y-167290137D02*
X115621507Y-167290137D01*
X115583412Y-167671090D01*
X115621507Y-167632994D01*
X115697698Y-167594899D01*
X115888174Y-167594899D01*
X115964364Y-167632994D01*
X116002460Y-167671090D01*
X116040555Y-167747280D01*
X116040555Y-167937756D01*
X116002460Y-168013947D01*
X115964364Y-168052042D01*
X115888174Y-168090137D01*
X115697698Y-168090137D01*
X115621507Y-168052042D01*
X115583412Y-168013947D01*
X75609666Y-65487714D02*
X75571571Y-65525809D01*
X75457285Y-65563904D01*
X75381095Y-65563904D01*
X75266809Y-65525809D01*
X75190619Y-65449619D01*
X75152523Y-65373428D01*
X75114428Y-65221047D01*
X75114428Y-65106761D01*
X75152523Y-64954380D01*
X75190619Y-64878190D01*
X75266809Y-64802000D01*
X75381095Y-64763904D01*
X75457285Y-64763904D01*
X75571571Y-64802000D01*
X75609666Y-64840095D01*
X76295380Y-64763904D02*
X76143000Y-64763904D01*
X76066809Y-64802000D01*
X76028714Y-64840095D01*
X75952523Y-64954380D01*
X75914428Y-65106761D01*
X75914428Y-65411523D01*
X75952523Y-65487714D01*
X75990619Y-65525809D01*
X76066809Y-65563904D01*
X76219190Y-65563904D01*
X76295380Y-65525809D01*
X76333476Y-65487714D01*
X76371571Y-65411523D01*
X76371571Y-65221047D01*
X76333476Y-65144857D01*
X76295380Y-65106761D01*
X76219190Y-65068666D01*
X76066809Y-65068666D01*
X75990619Y-65106761D01*
X75952523Y-65144857D01*
X75914428Y-65221047D01*
X63798666Y-59010714D02*
X63760571Y-59048809D01*
X63646285Y-59086904D01*
X63570095Y-59086904D01*
X63455809Y-59048809D01*
X63379619Y-58972619D01*
X63341523Y-58896428D01*
X63303428Y-58744047D01*
X63303428Y-58629761D01*
X63341523Y-58477380D01*
X63379619Y-58401190D01*
X63455809Y-58325000D01*
X63570095Y-58286904D01*
X63646285Y-58286904D01*
X63760571Y-58325000D01*
X63798666Y-58363095D01*
X64065333Y-58286904D02*
X64598666Y-58286904D01*
X64255809Y-59086904D01*
X89878650Y-147513947D02*
X89840555Y-147552042D01*
X89726269Y-147590137D01*
X89650079Y-147590137D01*
X89535793Y-147552042D01*
X89459603Y-147475852D01*
X89421507Y-147399661D01*
X89383412Y-147247280D01*
X89383412Y-147132994D01*
X89421507Y-146980613D01*
X89459603Y-146904423D01*
X89535793Y-146828233D01*
X89650079Y-146790137D01*
X89726269Y-146790137D01*
X89840555Y-146828233D01*
X89878650Y-146866328D01*
X90335793Y-147132994D02*
X90259603Y-147094899D01*
X90221507Y-147056804D01*
X90183412Y-146980613D01*
X90183412Y-146942518D01*
X90221507Y-146866328D01*
X90259603Y-146828233D01*
X90335793Y-146790137D01*
X90488174Y-146790137D01*
X90564364Y-146828233D01*
X90602460Y-146866328D01*
X90640555Y-146942518D01*
X90640555Y-146980613D01*
X90602460Y-147056804D01*
X90564364Y-147094899D01*
X90488174Y-147132994D01*
X90335793Y-147132994D01*
X90259603Y-147171090D01*
X90221507Y-147209185D01*
X90183412Y-147285375D01*
X90183412Y-147437756D01*
X90221507Y-147513947D01*
X90259603Y-147552042D01*
X90335793Y-147590137D01*
X90488174Y-147590137D01*
X90564364Y-147552042D01*
X90602460Y-147513947D01*
X90640555Y-147437756D01*
X90640555Y-147285375D01*
X90602460Y-147209185D01*
X90564364Y-147171090D01*
X90488174Y-147132994D01*
X115478650Y-159813947D02*
X115440555Y-159852042D01*
X115326269Y-159890137D01*
X115250079Y-159890137D01*
X115135793Y-159852042D01*
X115059603Y-159775852D01*
X115021507Y-159699661D01*
X114983412Y-159547280D01*
X114983412Y-159432994D01*
X115021507Y-159280613D01*
X115059603Y-159204423D01*
X115135793Y-159128233D01*
X115250079Y-159090137D01*
X115326269Y-159090137D01*
X115440555Y-159128233D01*
X115478650Y-159166328D01*
X115859603Y-159890137D02*
X116011984Y-159890137D01*
X116088174Y-159852042D01*
X116126269Y-159813947D01*
X116202460Y-159699661D01*
X116240555Y-159547280D01*
X116240555Y-159242518D01*
X116202460Y-159166328D01*
X116164364Y-159128233D01*
X116088174Y-159090137D01*
X115935793Y-159090137D01*
X115859603Y-159128233D01*
X115821507Y-159166328D01*
X115783412Y-159242518D01*
X115783412Y-159432994D01*
X115821507Y-159509185D01*
X115859603Y-159547280D01*
X115935793Y-159585375D01*
X116088174Y-159585375D01*
X116164364Y-159547280D01*
X116202460Y-159509185D01*
X116240555Y-159432994D01*
X106397698Y-161913947D02*
X106359603Y-161952042D01*
X106245317Y-161990137D01*
X106169126Y-161990137D01*
X106054841Y-161952042D01*
X105978650Y-161875852D01*
X105940555Y-161799661D01*
X105902460Y-161647280D01*
X105902460Y-161532994D01*
X105940555Y-161380613D01*
X105978650Y-161304423D01*
X106054841Y-161228233D01*
X106169126Y-161190137D01*
X106245317Y-161190137D01*
X106359603Y-161228233D01*
X106397698Y-161266328D01*
X107159603Y-161990137D02*
X106702460Y-161990137D01*
X106931031Y-161990137D02*
X106931031Y-161190137D01*
X106854841Y-161304423D01*
X106778650Y-161380613D01*
X106702460Y-161418709D01*
X107654841Y-161190137D02*
X107731031Y-161190137D01*
X107807222Y-161228233D01*
X107845317Y-161266328D01*
X107883412Y-161342518D01*
X107921507Y-161494899D01*
X107921507Y-161685375D01*
X107883412Y-161837756D01*
X107845317Y-161913947D01*
X107807222Y-161952042D01*
X107731031Y-161990137D01*
X107654841Y-161990137D01*
X107578650Y-161952042D01*
X107540555Y-161913947D01*
X107502460Y-161837756D01*
X107464364Y-161685375D01*
X107464364Y-161494899D01*
X107502460Y-161342518D01*
X107540555Y-161266328D01*
X107578650Y-161228233D01*
X107654841Y-161190137D01*
X108997698Y-168413947D02*
X108959603Y-168452042D01*
X108845317Y-168490137D01*
X108769126Y-168490137D01*
X108654841Y-168452042D01*
X108578650Y-168375852D01*
X108540555Y-168299661D01*
X108502460Y-168147280D01*
X108502460Y-168032994D01*
X108540555Y-167880613D01*
X108578650Y-167804423D01*
X108654841Y-167728233D01*
X108769126Y-167690137D01*
X108845317Y-167690137D01*
X108959603Y-167728233D01*
X108997698Y-167766328D01*
X109759603Y-168490137D02*
X109302460Y-168490137D01*
X109531031Y-168490137D02*
X109531031Y-167690137D01*
X109454841Y-167804423D01*
X109378650Y-167880613D01*
X109302460Y-167918709D01*
X110521507Y-168490137D02*
X110064364Y-168490137D01*
X110292936Y-168490137D02*
X110292936Y-167690137D01*
X110216745Y-167804423D01*
X110140555Y-167880613D01*
X110064364Y-167918709D01*
X133997698Y-150313947D02*
X133959603Y-150352042D01*
X133845317Y-150390137D01*
X133769126Y-150390137D01*
X133654841Y-150352042D01*
X133578650Y-150275852D01*
X133540555Y-150199661D01*
X133502460Y-150047280D01*
X133502460Y-149932994D01*
X133540555Y-149780613D01*
X133578650Y-149704423D01*
X133654841Y-149628233D01*
X133769126Y-149590137D01*
X133845317Y-149590137D01*
X133959603Y-149628233D01*
X133997698Y-149666328D01*
X134759603Y-150390137D02*
X134302460Y-150390137D01*
X134531031Y-150390137D02*
X134531031Y-149590137D01*
X134454841Y-149704423D01*
X134378650Y-149780613D01*
X134302460Y-149818709D01*
X135064364Y-149666328D02*
X135102460Y-149628233D01*
X135178650Y-149590137D01*
X135369126Y-149590137D01*
X135445317Y-149628233D01*
X135483412Y-149666328D01*
X135521507Y-149742518D01*
X135521507Y-149818709D01*
X135483412Y-149932994D01*
X135026269Y-150390137D01*
X135521507Y-150390137D01*
X112197698Y-158413947D02*
X112159603Y-158452042D01*
X112045317Y-158490137D01*
X111969126Y-158490137D01*
X111854841Y-158452042D01*
X111778650Y-158375852D01*
X111740555Y-158299661D01*
X111702460Y-158147280D01*
X111702460Y-158032994D01*
X111740555Y-157880613D01*
X111778650Y-157804423D01*
X111854841Y-157728233D01*
X111969126Y-157690137D01*
X112045317Y-157690137D01*
X112159603Y-157728233D01*
X112197698Y-157766328D01*
X112959603Y-158490137D02*
X112502460Y-158490137D01*
X112731031Y-158490137D02*
X112731031Y-157690137D01*
X112654841Y-157804423D01*
X112578650Y-157880613D01*
X112502460Y-157918709D01*
X113226269Y-157690137D02*
X113721507Y-157690137D01*
X113454841Y-157994899D01*
X113569126Y-157994899D01*
X113645317Y-158032994D01*
X113683412Y-158071090D01*
X113721507Y-158147280D01*
X113721507Y-158337756D01*
X113683412Y-158413947D01*
X113645317Y-158452042D01*
X113569126Y-158490137D01*
X113340555Y-158490137D01*
X113264364Y-158452042D01*
X113226269Y-158413947D01*
X129997698Y-126213947D02*
X129959603Y-126252042D01*
X129845317Y-126290137D01*
X129769126Y-126290137D01*
X129654841Y-126252042D01*
X129578650Y-126175852D01*
X129540555Y-126099661D01*
X129502460Y-125947280D01*
X129502460Y-125832994D01*
X129540555Y-125680613D01*
X129578650Y-125604423D01*
X129654841Y-125528233D01*
X129769126Y-125490137D01*
X129845317Y-125490137D01*
X129959603Y-125528233D01*
X129997698Y-125566328D01*
X130759603Y-126290137D02*
X130302460Y-126290137D01*
X130531031Y-126290137D02*
X130531031Y-125490137D01*
X130454841Y-125604423D01*
X130378650Y-125680613D01*
X130302460Y-125718709D01*
X131483412Y-125490137D02*
X131102460Y-125490137D01*
X131064364Y-125871090D01*
X131102460Y-125832994D01*
X131178650Y-125794899D01*
X131369126Y-125794899D01*
X131445317Y-125832994D01*
X131483412Y-125871090D01*
X131521507Y-125947280D01*
X131521507Y-126137756D01*
X131483412Y-126213947D01*
X131445317Y-126252042D01*
X131369126Y-126290137D01*
X131178650Y-126290137D01*
X131102460Y-126252042D01*
X131064364Y-126213947D01*
X66397698Y-70813947D02*
X66359603Y-70852042D01*
X66245317Y-70890137D01*
X66169126Y-70890137D01*
X66054841Y-70852042D01*
X65978650Y-70775852D01*
X65940555Y-70699661D01*
X65902460Y-70547280D01*
X65902460Y-70432994D01*
X65940555Y-70280613D01*
X65978650Y-70204423D01*
X66054841Y-70128233D01*
X66169126Y-70090137D01*
X66245317Y-70090137D01*
X66359603Y-70128233D01*
X66397698Y-70166328D01*
X66702460Y-70166328D02*
X66740555Y-70128233D01*
X66816745Y-70090137D01*
X67007222Y-70090137D01*
X67083412Y-70128233D01*
X67121507Y-70166328D01*
X67159603Y-70242518D01*
X67159603Y-70318709D01*
X67121507Y-70432994D01*
X66664364Y-70890137D01*
X67159603Y-70890137D01*
X67654841Y-70090137D02*
X67731031Y-70090137D01*
X67807222Y-70128233D01*
X67845317Y-70166328D01*
X67883412Y-70242518D01*
X67921507Y-70394899D01*
X67921507Y-70585375D01*
X67883412Y-70737756D01*
X67845317Y-70813947D01*
X67807222Y-70852042D01*
X67731031Y-70890137D01*
X67654841Y-70890137D01*
X67578650Y-70852042D01*
X67540555Y-70813947D01*
X67502460Y-70737756D01*
X67464364Y-70585375D01*
X67464364Y-70394899D01*
X67502460Y-70242518D01*
X67540555Y-70166328D01*
X67578650Y-70128233D01*
X67654841Y-70090137D01*
X120821714Y-52787714D02*
X120783619Y-52825809D01*
X120669333Y-52863904D01*
X120593142Y-52863904D01*
X120478857Y-52825809D01*
X120402666Y-52749619D01*
X120364571Y-52673428D01*
X120326476Y-52521047D01*
X120326476Y-52406761D01*
X120364571Y-52254380D01*
X120402666Y-52178190D01*
X120478857Y-52102000D01*
X120593142Y-52063904D01*
X120669333Y-52063904D01*
X120783619Y-52102000D01*
X120821714Y-52140095D01*
X121126476Y-52140095D02*
X121164571Y-52102000D01*
X121240761Y-52063904D01*
X121431238Y-52063904D01*
X121507428Y-52102000D01*
X121545523Y-52140095D01*
X121583619Y-52216285D01*
X121583619Y-52292476D01*
X121545523Y-52406761D01*
X121088380Y-52863904D01*
X121583619Y-52863904D01*
X122345523Y-52863904D02*
X121888380Y-52863904D01*
X122116952Y-52863904D02*
X122116952Y-52063904D01*
X122040761Y-52178190D01*
X121964571Y-52254380D01*
X121888380Y-52292476D01*
X109997698Y-140113947D02*
X109959603Y-140152042D01*
X109845317Y-140190137D01*
X109769126Y-140190137D01*
X109654841Y-140152042D01*
X109578650Y-140075852D01*
X109540555Y-139999661D01*
X109502460Y-139847280D01*
X109502460Y-139732994D01*
X109540555Y-139580613D01*
X109578650Y-139504423D01*
X109654841Y-139428233D01*
X109769126Y-139390137D01*
X109845317Y-139390137D01*
X109959603Y-139428233D01*
X109997698Y-139466328D01*
X110302460Y-139466328D02*
X110340555Y-139428233D01*
X110416745Y-139390137D01*
X110607222Y-139390137D01*
X110683412Y-139428233D01*
X110721507Y-139466328D01*
X110759603Y-139542518D01*
X110759603Y-139618709D01*
X110721507Y-139732994D01*
X110264364Y-140190137D01*
X110759603Y-140190137D01*
X111026269Y-139390137D02*
X111521507Y-139390137D01*
X111254841Y-139694899D01*
X111369126Y-139694899D01*
X111445317Y-139732994D01*
X111483412Y-139771090D01*
X111521507Y-139847280D01*
X111521507Y-140037756D01*
X111483412Y-140113947D01*
X111445317Y-140152042D01*
X111369126Y-140190137D01*
X111140555Y-140190137D01*
X111064364Y-140152042D01*
X111026269Y-140113947D01*
X107797698Y-142913947D02*
X107759603Y-142952042D01*
X107645317Y-142990137D01*
X107569126Y-142990137D01*
X107454841Y-142952042D01*
X107378650Y-142875852D01*
X107340555Y-142799661D01*
X107302460Y-142647280D01*
X107302460Y-142532994D01*
X107340555Y-142380613D01*
X107378650Y-142304423D01*
X107454841Y-142228233D01*
X107569126Y-142190137D01*
X107645317Y-142190137D01*
X107759603Y-142228233D01*
X107797698Y-142266328D01*
X108102460Y-142266328D02*
X108140555Y-142228233D01*
X108216745Y-142190137D01*
X108407222Y-142190137D01*
X108483412Y-142228233D01*
X108521507Y-142266328D01*
X108559603Y-142342518D01*
X108559603Y-142418709D01*
X108521507Y-142532994D01*
X108064364Y-142990137D01*
X108559603Y-142990137D01*
X109245317Y-142456804D02*
X109245317Y-142990137D01*
X109054841Y-142152042D02*
X108864364Y-142723471D01*
X109359603Y-142723471D01*
X110597698Y-147313947D02*
X110559603Y-147352042D01*
X110445317Y-147390137D01*
X110369126Y-147390137D01*
X110254841Y-147352042D01*
X110178650Y-147275852D01*
X110140555Y-147199661D01*
X110102460Y-147047280D01*
X110102460Y-146932994D01*
X110140555Y-146780613D01*
X110178650Y-146704423D01*
X110254841Y-146628233D01*
X110369126Y-146590137D01*
X110445317Y-146590137D01*
X110559603Y-146628233D01*
X110597698Y-146666328D01*
X110902460Y-146666328D02*
X110940555Y-146628233D01*
X111016745Y-146590137D01*
X111207222Y-146590137D01*
X111283412Y-146628233D01*
X111321507Y-146666328D01*
X111359603Y-146742518D01*
X111359603Y-146818709D01*
X111321507Y-146932994D01*
X110864364Y-147390137D01*
X111359603Y-147390137D01*
X112083412Y-146590137D02*
X111702460Y-146590137D01*
X111664364Y-146971090D01*
X111702460Y-146932994D01*
X111778650Y-146894899D01*
X111969126Y-146894899D01*
X112045317Y-146932994D01*
X112083412Y-146971090D01*
X112121507Y-147047280D01*
X112121507Y-147237756D01*
X112083412Y-147313947D01*
X112045317Y-147352042D01*
X111969126Y-147390137D01*
X111778650Y-147390137D01*
X111702460Y-147352042D01*
X111664364Y-147313947D01*
X75228714Y-68313947D02*
X75190619Y-68352042D01*
X75076333Y-68390137D01*
X75000142Y-68390137D01*
X74885857Y-68352042D01*
X74809666Y-68275852D01*
X74771571Y-68199661D01*
X74733476Y-68047280D01*
X74733476Y-67932994D01*
X74771571Y-67780613D01*
X74809666Y-67704423D01*
X74885857Y-67628233D01*
X75000142Y-67590137D01*
X75076333Y-67590137D01*
X75190619Y-67628233D01*
X75228714Y-67666328D01*
X75533476Y-67666328D02*
X75571571Y-67628233D01*
X75647761Y-67590137D01*
X75838238Y-67590137D01*
X75914428Y-67628233D01*
X75952523Y-67666328D01*
X75990619Y-67742518D01*
X75990619Y-67818709D01*
X75952523Y-67932994D01*
X75495380Y-68390137D01*
X75990619Y-68390137D01*
X76257285Y-67590137D02*
X76790619Y-67590137D01*
X76447761Y-68390137D01*
X74593714Y-56851714D02*
X74555619Y-56889809D01*
X74441333Y-56927904D01*
X74365142Y-56927904D01*
X74250857Y-56889809D01*
X74174666Y-56813619D01*
X74136571Y-56737428D01*
X74098476Y-56585047D01*
X74098476Y-56470761D01*
X74136571Y-56318380D01*
X74174666Y-56242190D01*
X74250857Y-56166000D01*
X74365142Y-56127904D01*
X74441333Y-56127904D01*
X74555619Y-56166000D01*
X74593714Y-56204095D01*
X74898476Y-56204095D02*
X74936571Y-56166000D01*
X75012761Y-56127904D01*
X75203238Y-56127904D01*
X75279428Y-56166000D01*
X75317523Y-56204095D01*
X75355619Y-56280285D01*
X75355619Y-56356476D01*
X75317523Y-56470761D01*
X74860380Y-56927904D01*
X75355619Y-56927904D01*
X75812761Y-56470761D02*
X75736571Y-56432666D01*
X75698476Y-56394571D01*
X75660380Y-56318380D01*
X75660380Y-56280285D01*
X75698476Y-56204095D01*
X75736571Y-56166000D01*
X75812761Y-56127904D01*
X75965142Y-56127904D01*
X76041333Y-56166000D01*
X76079428Y-56204095D01*
X76117523Y-56280285D01*
X76117523Y-56318380D01*
X76079428Y-56394571D01*
X76041333Y-56432666D01*
X75965142Y-56470761D01*
X75812761Y-56470761D01*
X75736571Y-56508857D01*
X75698476Y-56546952D01*
X75660380Y-56623142D01*
X75660380Y-56775523D01*
X75698476Y-56851714D01*
X75736571Y-56889809D01*
X75812761Y-56927904D01*
X75965142Y-56927904D01*
X76041333Y-56889809D01*
X76079428Y-56851714D01*
X76117523Y-56775523D01*
X76117523Y-56623142D01*
X76079428Y-56546952D01*
X76041333Y-56508857D01*
X75965142Y-56470761D01*
X66392666Y-38746380D02*
X66392666Y-39460666D01*
X66345047Y-39603523D01*
X66249809Y-39698761D01*
X66106952Y-39746380D01*
X66011714Y-39746380D01*
X67297428Y-38746380D02*
X67106952Y-38746380D01*
X67011714Y-38794000D01*
X66964095Y-38841619D01*
X66868857Y-38984476D01*
X66821238Y-39174952D01*
X66821238Y-39555904D01*
X66868857Y-39651142D01*
X66916476Y-39698761D01*
X67011714Y-39746380D01*
X67202190Y-39746380D01*
X67297428Y-39698761D01*
X67345047Y-39651142D01*
X67392666Y-39555904D01*
X67392666Y-39317809D01*
X67345047Y-39222571D01*
X67297428Y-39174952D01*
X67202190Y-39127333D01*
X67011714Y-39127333D01*
X66916476Y-39174952D01*
X66868857Y-39222571D01*
X66821238Y-39317809D01*
X62435793Y-43866328D02*
X62359603Y-43828233D01*
X62283412Y-43752042D01*
X62169126Y-43637756D01*
X62092936Y-43599661D01*
X62016745Y-43599661D01*
X62054841Y-43790137D02*
X61978650Y-43752042D01*
X61902460Y-43675852D01*
X61864364Y-43523471D01*
X61864364Y-43256804D01*
X61902460Y-43104423D01*
X61978650Y-43028233D01*
X62054841Y-42990137D01*
X62207222Y-42990137D01*
X62283412Y-43028233D01*
X62359603Y-43104423D01*
X62397698Y-43256804D01*
X62397698Y-43523471D01*
X62359603Y-43675852D01*
X62283412Y-43752042D01*
X62207222Y-43790137D01*
X62054841Y-43790137D01*
X62664364Y-42990137D02*
X63159603Y-42990137D01*
X62892936Y-43294899D01*
X63007222Y-43294899D01*
X63083412Y-43332994D01*
X63121507Y-43371090D01*
X63159603Y-43447280D01*
X63159603Y-43637756D01*
X63121507Y-43713947D01*
X63083412Y-43752042D01*
X63007222Y-43790137D01*
X62778650Y-43790137D01*
X62702460Y-43752042D01*
X62664364Y-43713947D01*
X126193761Y-71782119D02*
X126098523Y-71734500D01*
X126003285Y-71639261D01*
X125860428Y-71496404D01*
X125765190Y-71448785D01*
X125669952Y-71448785D01*
X125717571Y-71686880D02*
X125622333Y-71639261D01*
X125527095Y-71544023D01*
X125479476Y-71353547D01*
X125479476Y-71020214D01*
X125527095Y-70829738D01*
X125622333Y-70734500D01*
X125717571Y-70686880D01*
X125908047Y-70686880D01*
X126003285Y-70734500D01*
X126098523Y-70829738D01*
X126146142Y-71020214D01*
X126146142Y-71353547D01*
X126098523Y-71544023D01*
X126003285Y-71639261D01*
X125908047Y-71686880D01*
X125717571Y-71686880D01*
X127003285Y-71020214D02*
X127003285Y-71686880D01*
X126765190Y-70639261D02*
X126527095Y-71353547D01*
X127146142Y-71353547D01*
X63266745Y-97875852D02*
X63171507Y-97828233D01*
X63076269Y-97732994D01*
X62933412Y-97590137D01*
X62838174Y-97542518D01*
X62742936Y-97542518D01*
X62790555Y-97780613D02*
X62695317Y-97732994D01*
X62600079Y-97637756D01*
X62552460Y-97447280D01*
X62552460Y-97113947D01*
X62600079Y-96923471D01*
X62695317Y-96828233D01*
X62790555Y-96780613D01*
X62981031Y-96780613D01*
X63076269Y-96828233D01*
X63171507Y-96923471D01*
X63219126Y-97113947D01*
X63219126Y-97447280D01*
X63171507Y-97637756D01*
X63076269Y-97732994D01*
X62981031Y-97780613D01*
X62790555Y-97780613D01*
X64123888Y-96780613D02*
X63647698Y-96780613D01*
X63600079Y-97256804D01*
X63647698Y-97209185D01*
X63742936Y-97161566D01*
X63981031Y-97161566D01*
X64076269Y-97209185D01*
X64123888Y-97256804D01*
X64171507Y-97352042D01*
X64171507Y-97590137D01*
X64123888Y-97685375D01*
X64076269Y-97732994D01*
X63981031Y-97780613D01*
X63742936Y-97780613D01*
X63647698Y-97732994D01*
X63600079Y-97685375D01*
X135716745Y-140775852D02*
X135621507Y-140728233D01*
X135526269Y-140632994D01*
X135383412Y-140490137D01*
X135288174Y-140442518D01*
X135192936Y-140442518D01*
X135240555Y-140680613D02*
X135145317Y-140632994D01*
X135050079Y-140537756D01*
X135002460Y-140347280D01*
X135002460Y-140013947D01*
X135050079Y-139823471D01*
X135145317Y-139728233D01*
X135240555Y-139680613D01*
X135431031Y-139680613D01*
X135526269Y-139728233D01*
X135621507Y-139823471D01*
X135669126Y-140013947D01*
X135669126Y-140347280D01*
X135621507Y-140537756D01*
X135526269Y-140632994D01*
X135431031Y-140680613D01*
X135240555Y-140680613D01*
X136240555Y-140109185D02*
X136145317Y-140061566D01*
X136097698Y-140013947D01*
X136050079Y-139918709D01*
X136050079Y-139871090D01*
X136097698Y-139775852D01*
X136145317Y-139728233D01*
X136240555Y-139680613D01*
X136431031Y-139680613D01*
X136526269Y-139728233D01*
X136573888Y-139775852D01*
X136621507Y-139871090D01*
X136621507Y-139918709D01*
X136573888Y-140013947D01*
X136526269Y-140061566D01*
X136431031Y-140109185D01*
X136240555Y-140109185D01*
X136145317Y-140156804D01*
X136097698Y-140204423D01*
X136050079Y-140299661D01*
X136050079Y-140490137D01*
X136097698Y-140585375D01*
X136145317Y-140632994D01*
X136240555Y-140680613D01*
X136431031Y-140680613D01*
X136526269Y-140632994D01*
X136573888Y-140585375D01*
X136621507Y-140490137D01*
X136621507Y-140299661D01*
X136573888Y-140204423D01*
X136526269Y-140156804D01*
X136431031Y-140109185D01*
X66392666Y-32269380D02*
X66392666Y-32983666D01*
X66345047Y-33126523D01*
X66249809Y-33221761D01*
X66106952Y-33269380D01*
X66011714Y-33269380D01*
X67345047Y-32269380D02*
X66868857Y-32269380D01*
X66821238Y-32745571D01*
X66868857Y-32697952D01*
X66964095Y-32650333D01*
X67202190Y-32650333D01*
X67297428Y-32697952D01*
X67345047Y-32745571D01*
X67392666Y-32840809D01*
X67392666Y-33078904D01*
X67345047Y-33174142D01*
X67297428Y-33221761D01*
X67202190Y-33269380D01*
X66964095Y-33269380D01*
X66868857Y-33221761D01*
X66821238Y-33174142D01*
X119178650Y-68730613D02*
X119178650Y-69444899D01*
X119131031Y-69587756D01*
X119035793Y-69682994D01*
X118892936Y-69730613D01*
X118797698Y-69730613D01*
X119607222Y-68825852D02*
X119654841Y-68778233D01*
X119750079Y-68730613D01*
X119988174Y-68730613D01*
X120083412Y-68778233D01*
X120131031Y-68825852D01*
X120178650Y-68921090D01*
X120178650Y-69016328D01*
X120131031Y-69159185D01*
X119559603Y-69730613D01*
X120178650Y-69730613D01*
X134971507Y-45640137D02*
X134971507Y-44840137D01*
X135161984Y-44840137D01*
X135276269Y-44878233D01*
X135352460Y-44954423D01*
X135390555Y-45030613D01*
X135428650Y-45182994D01*
X135428650Y-45297280D01*
X135390555Y-45449661D01*
X135352460Y-45525852D01*
X135276269Y-45602042D01*
X135161984Y-45640137D01*
X134971507Y-45640137D01*
X135809603Y-45640137D02*
X135961984Y-45640137D01*
X136038174Y-45602042D01*
X136076269Y-45563947D01*
X136152460Y-45449661D01*
X136190555Y-45297280D01*
X136190555Y-44992518D01*
X136152460Y-44916328D01*
X136114364Y-44878233D01*
X136038174Y-44840137D01*
X135885793Y-44840137D01*
X135809603Y-44878233D01*
X135771507Y-44916328D01*
X135733412Y-44992518D01*
X135733412Y-45182994D01*
X135771507Y-45259185D01*
X135809603Y-45297280D01*
X135885793Y-45335375D01*
X136038174Y-45335375D01*
X136114364Y-45297280D01*
X136152460Y-45259185D01*
X136190555Y-45182994D01*
X127298714Y-42322904D02*
X127032047Y-41941952D01*
X126841571Y-42322904D02*
X126841571Y-41522904D01*
X127146333Y-41522904D01*
X127222523Y-41561000D01*
X127260619Y-41599095D01*
X127298714Y-41675285D01*
X127298714Y-41789571D01*
X127260619Y-41865761D01*
X127222523Y-41903857D01*
X127146333Y-41941952D01*
X126841571Y-41941952D01*
X127603476Y-41599095D02*
X127641571Y-41561000D01*
X127717761Y-41522904D01*
X127908238Y-41522904D01*
X127984428Y-41561000D01*
X128022523Y-41599095D01*
X128060619Y-41675285D01*
X128060619Y-41751476D01*
X128022523Y-41865761D01*
X127565380Y-42322904D01*
X128060619Y-42322904D01*
X128784428Y-41522904D02*
X128403476Y-41522904D01*
X128365380Y-41903857D01*
X128403476Y-41865761D01*
X128479666Y-41827666D01*
X128670142Y-41827666D01*
X128746333Y-41865761D01*
X128784428Y-41903857D01*
X128822523Y-41980047D01*
X128822523Y-42170523D01*
X128784428Y-42246714D01*
X128746333Y-42284809D01*
X128670142Y-42322904D01*
X128479666Y-42322904D01*
X128403476Y-42284809D01*
X128365380Y-42246714D01*
X126917714Y-58655104D02*
X126651047Y-58274152D01*
X126460571Y-58655104D02*
X126460571Y-57855104D01*
X126765333Y-57855104D01*
X126841523Y-57893200D01*
X126879619Y-57931295D01*
X126917714Y-58007485D01*
X126917714Y-58121771D01*
X126879619Y-58197961D01*
X126841523Y-58236057D01*
X126765333Y-58274152D01*
X126460571Y-58274152D01*
X127222476Y-57931295D02*
X127260571Y-57893200D01*
X127336761Y-57855104D01*
X127527238Y-57855104D01*
X127603428Y-57893200D01*
X127641523Y-57931295D01*
X127679619Y-58007485D01*
X127679619Y-58083676D01*
X127641523Y-58197961D01*
X127184380Y-58655104D01*
X127679619Y-58655104D01*
X127946285Y-57855104D02*
X128441523Y-57855104D01*
X128174857Y-58159866D01*
X128289142Y-58159866D01*
X128365333Y-58197961D01*
X128403428Y-58236057D01*
X128441523Y-58312247D01*
X128441523Y-58502723D01*
X128403428Y-58578914D01*
X128365333Y-58617009D01*
X128289142Y-58655104D01*
X128060571Y-58655104D01*
X127984380Y-58617009D01*
X127946285Y-58578914D01*
X121129761Y-55145119D02*
X121034523Y-55097500D01*
X120939285Y-55002261D01*
X120796428Y-54859404D01*
X120701190Y-54811785D01*
X120605952Y-54811785D01*
X120653571Y-55049880D02*
X120558333Y-55002261D01*
X120463095Y-54907023D01*
X120415476Y-54716547D01*
X120415476Y-54383214D01*
X120463095Y-54192738D01*
X120558333Y-54097500D01*
X120653571Y-54049880D01*
X120844047Y-54049880D01*
X120939285Y-54097500D01*
X121034523Y-54192738D01*
X121082142Y-54383214D01*
X121082142Y-54716547D01*
X121034523Y-54907023D01*
X120939285Y-55002261D01*
X120844047Y-55049880D01*
X120653571Y-55049880D01*
X121939285Y-54049880D02*
X121748809Y-54049880D01*
X121653571Y-54097500D01*
X121605952Y-54145119D01*
X121510714Y-54287976D01*
X121463095Y-54478452D01*
X121463095Y-54859404D01*
X121510714Y-54954642D01*
X121558333Y-55002261D01*
X121653571Y-55049880D01*
X121844047Y-55049880D01*
X121939285Y-55002261D01*
X121986904Y-54954642D01*
X122034523Y-54859404D01*
X122034523Y-54621309D01*
X121986904Y-54526071D01*
X121939285Y-54478452D01*
X121844047Y-54430833D01*
X121653571Y-54430833D01*
X121558333Y-54478452D01*
X121510714Y-54526071D01*
X121463095Y-54621309D01*
X131165809Y-58782095D02*
X131089619Y-58744000D01*
X131013428Y-58667809D01*
X130899142Y-58553523D01*
X130822952Y-58515428D01*
X130746761Y-58515428D01*
X130784857Y-58705904D02*
X130708666Y-58667809D01*
X130632476Y-58591619D01*
X130594380Y-58439238D01*
X130594380Y-58172571D01*
X130632476Y-58020190D01*
X130708666Y-57944000D01*
X130784857Y-57905904D01*
X130937238Y-57905904D01*
X131013428Y-57944000D01*
X131089619Y-58020190D01*
X131127714Y-58172571D01*
X131127714Y-58439238D01*
X131089619Y-58591619D01*
X131013428Y-58667809D01*
X130937238Y-58705904D01*
X130784857Y-58705904D01*
X131394380Y-57905904D02*
X131927714Y-57905904D01*
X131584857Y-58705904D01*
X60660266Y-50623180D02*
X60660266Y-51337466D01*
X60612647Y-51480323D01*
X60517409Y-51575561D01*
X60374552Y-51623180D01*
X60279314Y-51623180D01*
X61136457Y-51623180D02*
X61136457Y-50623180D01*
X61517409Y-50623180D01*
X61612647Y-50670800D01*
X61660266Y-50718419D01*
X61707885Y-50813657D01*
X61707885Y-50956514D01*
X61660266Y-51051752D01*
X61612647Y-51099371D01*
X61517409Y-51146990D01*
X61136457Y-51146990D01*
X62660266Y-51623180D02*
X62088838Y-51623180D01*
X62374552Y-51623180D02*
X62374552Y-50623180D01*
X62279314Y-50766038D01*
X62184076Y-50861276D01*
X62088838Y-50908895D01*
X133028650Y-154982994D02*
X133171507Y-155030613D01*
X133409603Y-155030613D01*
X133504841Y-154982994D01*
X133552460Y-154935375D01*
X133600079Y-154840137D01*
X133600079Y-154744899D01*
X133552460Y-154649661D01*
X133504841Y-154602042D01*
X133409603Y-154554423D01*
X133219126Y-154506804D01*
X133123888Y-154459185D01*
X133076269Y-154411566D01*
X133028650Y-154316328D01*
X133028650Y-154221090D01*
X133076269Y-154125852D01*
X133123888Y-154078233D01*
X133219126Y-154030613D01*
X133457222Y-154030613D01*
X133600079Y-154078233D01*
X133933412Y-154030613D02*
X134171507Y-155030613D01*
X134361984Y-154316328D01*
X134552460Y-155030613D01*
X134790555Y-154030613D01*
X135695317Y-155030613D02*
X135123888Y-155030613D01*
X135409603Y-155030613D02*
X135409603Y-154030613D01*
X135314364Y-154173471D01*
X135219126Y-154268709D01*
X135123888Y-154316328D01*
X116761904Y-82100880D02*
X116761904Y-81100880D01*
X116761904Y-81577071D02*
X117333333Y-81577071D01*
X117333333Y-82100880D02*
X117333333Y-81100880D01*
X118333333Y-82100880D02*
X117761904Y-82100880D01*
X118047619Y-82100880D02*
X118047619Y-81100880D01*
X117952380Y-81243738D01*
X117857142Y-81338976D01*
X117761904Y-81386595D01*
X118714285Y-81196119D02*
X118761904Y-81148500D01*
X118857142Y-81100880D01*
X119095238Y-81100880D01*
X119190476Y-81148500D01*
X119238095Y-81196119D01*
X119285714Y-81291357D01*
X119285714Y-81386595D01*
X119238095Y-81529452D01*
X118666666Y-82100880D01*
X119285714Y-82100880D01*
X80761904Y-82100880D02*
X80761904Y-81100880D01*
X80761904Y-81577071D02*
X81333333Y-81577071D01*
X81333333Y-82100880D02*
X81333333Y-81100880D01*
X82333333Y-82100880D02*
X81761904Y-82100880D01*
X82047619Y-82100880D02*
X82047619Y-81100880D01*
X81952380Y-81243738D01*
X81857142Y-81338976D01*
X81761904Y-81386595D01*
X83285714Y-82100880D02*
X82714285Y-82100880D01*
X83000000Y-82100880D02*
X83000000Y-81100880D01*
X82904761Y-81243738D01*
X82809523Y-81338976D01*
X82714285Y-81386595D01*
X108914285Y-81100880D02*
X109485714Y-81100880D01*
X109200000Y-82100880D02*
X109200000Y-81100880D01*
X109819047Y-82100880D02*
X109819047Y-81100880D01*
X109819047Y-81577071D02*
X110390476Y-81577071D01*
X110390476Y-82100880D02*
X110390476Y-81100880D01*
X111390476Y-82100880D02*
X110819047Y-82100880D01*
X111104761Y-82100880D02*
X111104761Y-81100880D01*
X111009523Y-81243738D01*
X110914285Y-81338976D01*
X110819047Y-81386595D01*
X126917714Y-53465904D02*
X126651047Y-53084952D01*
X126460571Y-53465904D02*
X126460571Y-52665904D01*
X126765333Y-52665904D01*
X126841523Y-52704000D01*
X126879619Y-52742095D01*
X126917714Y-52818285D01*
X126917714Y-52932571D01*
X126879619Y-53008761D01*
X126841523Y-53046857D01*
X126765333Y-53084952D01*
X126460571Y-53084952D01*
X127222476Y-52742095D02*
X127260571Y-52704000D01*
X127336761Y-52665904D01*
X127527238Y-52665904D01*
X127603428Y-52704000D01*
X127641523Y-52742095D01*
X127679619Y-52818285D01*
X127679619Y-52894476D01*
X127641523Y-53008761D01*
X127184380Y-53465904D01*
X127679619Y-53465904D01*
X127984380Y-52742095D02*
X128022476Y-52704000D01*
X128098666Y-52665904D01*
X128289142Y-52665904D01*
X128365333Y-52704000D01*
X128403428Y-52742095D01*
X128441523Y-52818285D01*
X128441523Y-52894476D01*
X128403428Y-53008761D01*
X127946285Y-53465904D01*
X128441523Y-53465904D01*
X79345317Y-131930613D02*
X79011984Y-131454423D01*
X78773888Y-131930613D02*
X78773888Y-130930613D01*
X79154841Y-130930613D01*
X79250079Y-130978233D01*
X79297698Y-131025852D01*
X79345317Y-131121090D01*
X79345317Y-131263947D01*
X79297698Y-131359185D01*
X79250079Y-131406804D01*
X79154841Y-131454423D01*
X78773888Y-131454423D01*
X80202460Y-131263947D02*
X80202460Y-131930613D01*
X79964364Y-130882994D02*
X79726269Y-131597280D01*
X80345317Y-131597280D01*
X106097698Y-158613947D02*
X106059603Y-158652042D01*
X105945317Y-158690137D01*
X105869126Y-158690137D01*
X105754841Y-158652042D01*
X105678650Y-158575852D01*
X105640555Y-158499661D01*
X105602460Y-158347280D01*
X105602460Y-158232994D01*
X105640555Y-158080613D01*
X105678650Y-158004423D01*
X105754841Y-157928233D01*
X105869126Y-157890137D01*
X105945317Y-157890137D01*
X106059603Y-157928233D01*
X106097698Y-157966328D01*
X106859603Y-158690137D02*
X106402460Y-158690137D01*
X106631031Y-158690137D02*
X106631031Y-157890137D01*
X106554841Y-158004423D01*
X106478650Y-158080613D01*
X106402460Y-158118709D01*
X107545317Y-158156804D02*
X107545317Y-158690137D01*
X107354841Y-157852042D02*
X107164364Y-158423471D01*
X107659603Y-158423471D01*
X134678650Y-148090137D02*
X134411984Y-147709185D01*
X134221507Y-148090137D02*
X134221507Y-147290137D01*
X134526269Y-147290137D01*
X134602460Y-147328233D01*
X134640555Y-147366328D01*
X134678650Y-147442518D01*
X134678650Y-147556804D01*
X134640555Y-147632994D01*
X134602460Y-147671090D01*
X134526269Y-147709185D01*
X134221507Y-147709185D01*
X135135793Y-147632994D02*
X135059603Y-147594899D01*
X135021507Y-147556804D01*
X134983412Y-147480613D01*
X134983412Y-147442518D01*
X135021507Y-147366328D01*
X135059603Y-147328233D01*
X135135793Y-147290137D01*
X135288174Y-147290137D01*
X135364364Y-147328233D01*
X135402460Y-147366328D01*
X135440555Y-147442518D01*
X135440555Y-147480613D01*
X135402460Y-147556804D01*
X135364364Y-147594899D01*
X135288174Y-147632994D01*
X135135793Y-147632994D01*
X135059603Y-147671090D01*
X135021507Y-147709185D01*
X134983412Y-147785375D01*
X134983412Y-147937756D01*
X135021507Y-148013947D01*
X135059603Y-148052042D01*
X135135793Y-148090137D01*
X135288174Y-148090137D01*
X135364364Y-148052042D01*
X135402460Y-148013947D01*
X135440555Y-147937756D01*
X135440555Y-147785375D01*
X135402460Y-147709185D01*
X135364364Y-147671090D01*
X135288174Y-147632994D01*
X75385793Y-51466328D02*
X75309603Y-51428233D01*
X75233412Y-51352042D01*
X75119126Y-51237756D01*
X75042936Y-51199661D01*
X74966745Y-51199661D01*
X75004841Y-51390137D02*
X74928650Y-51352042D01*
X74852460Y-51275852D01*
X74814364Y-51123471D01*
X74814364Y-50856804D01*
X74852460Y-50704423D01*
X74928650Y-50628233D01*
X75004841Y-50590137D01*
X75157222Y-50590137D01*
X75233412Y-50628233D01*
X75309603Y-50704423D01*
X75347698Y-50856804D01*
X75347698Y-51123471D01*
X75309603Y-51275852D01*
X75233412Y-51352042D01*
X75157222Y-51390137D01*
X75004841Y-51390137D01*
X75728650Y-51390137D02*
X75881031Y-51390137D01*
X75957222Y-51352042D01*
X75995317Y-51313947D01*
X76071507Y-51199661D01*
X76109603Y-51047280D01*
X76109603Y-50742518D01*
X76071507Y-50666328D01*
X76033412Y-50628233D01*
X75957222Y-50590137D01*
X75804841Y-50590137D01*
X75728650Y-50628233D01*
X75690555Y-50666328D01*
X75652460Y-50742518D01*
X75652460Y-50932994D01*
X75690555Y-51009185D01*
X75728650Y-51047280D01*
X75804841Y-51085375D01*
X75957222Y-51085375D01*
X76033412Y-51047280D01*
X76071507Y-51009185D01*
X76109603Y-50932994D01*
X73069714Y-48723714D02*
X73031619Y-48761809D01*
X72917333Y-48799904D01*
X72841142Y-48799904D01*
X72726857Y-48761809D01*
X72650666Y-48685619D01*
X72612571Y-48609428D01*
X72574476Y-48457047D01*
X72574476Y-48342761D01*
X72612571Y-48190380D01*
X72650666Y-48114190D01*
X72726857Y-48038000D01*
X72841142Y-47999904D01*
X72917333Y-47999904D01*
X73031619Y-48038000D01*
X73069714Y-48076095D01*
X73374476Y-48076095D02*
X73412571Y-48038000D01*
X73488761Y-47999904D01*
X73679238Y-47999904D01*
X73755428Y-48038000D01*
X73793523Y-48076095D01*
X73831619Y-48152285D01*
X73831619Y-48228476D01*
X73793523Y-48342761D01*
X73336380Y-48799904D01*
X73831619Y-48799904D01*
X74136380Y-48076095D02*
X74174476Y-48038000D01*
X74250666Y-47999904D01*
X74441142Y-47999904D01*
X74517333Y-48038000D01*
X74555428Y-48076095D01*
X74593523Y-48152285D01*
X74593523Y-48228476D01*
X74555428Y-48342761D01*
X74098285Y-48799904D01*
X74593523Y-48799904D01*
X118688114Y-48215714D02*
X118650019Y-48253809D01*
X118535733Y-48291904D01*
X118459542Y-48291904D01*
X118345257Y-48253809D01*
X118269066Y-48177619D01*
X118230971Y-48101428D01*
X118192876Y-47949047D01*
X118192876Y-47834761D01*
X118230971Y-47682380D01*
X118269066Y-47606190D01*
X118345257Y-47530000D01*
X118459542Y-47491904D01*
X118535733Y-47491904D01*
X118650019Y-47530000D01*
X118688114Y-47568095D01*
X119450019Y-48291904D02*
X118992876Y-48291904D01*
X119221447Y-48291904D02*
X119221447Y-47491904D01*
X119145257Y-47606190D01*
X119069066Y-47682380D01*
X118992876Y-47720476D01*
X119907161Y-47834761D02*
X119830971Y-47796666D01*
X119792876Y-47758571D01*
X119754780Y-47682380D01*
X119754780Y-47644285D01*
X119792876Y-47568095D01*
X119830971Y-47530000D01*
X119907161Y-47491904D01*
X120059542Y-47491904D01*
X120135733Y-47530000D01*
X120173828Y-47568095D01*
X120211923Y-47644285D01*
X120211923Y-47682380D01*
X120173828Y-47758571D01*
X120135733Y-47796666D01*
X120059542Y-47834761D01*
X119907161Y-47834761D01*
X119830971Y-47872857D01*
X119792876Y-47910952D01*
X119754780Y-47987142D01*
X119754780Y-48139523D01*
X119792876Y-48215714D01*
X119830971Y-48253809D01*
X119907161Y-48291904D01*
X120059542Y-48291904D01*
X120135733Y-48253809D01*
X120173828Y-48215714D01*
X120211923Y-48139523D01*
X120211923Y-47987142D01*
X120173828Y-47910952D01*
X120135733Y-47872857D01*
X120059542Y-47834761D01*
X92178650Y-158013947D02*
X92140555Y-158052042D01*
X92026269Y-158090137D01*
X91950079Y-158090137D01*
X91835793Y-158052042D01*
X91759603Y-157975852D01*
X91721507Y-157899661D01*
X91683412Y-157747280D01*
X91683412Y-157632994D01*
X91721507Y-157480613D01*
X91759603Y-157404423D01*
X91835793Y-157328233D01*
X91950079Y-157290137D01*
X92026269Y-157290137D01*
X92140555Y-157328233D01*
X92178650Y-157366328D01*
X92445317Y-157290137D02*
X92940555Y-157290137D01*
X92673888Y-157594899D01*
X92788174Y-157594899D01*
X92864364Y-157632994D01*
X92902460Y-157671090D01*
X92940555Y-157747280D01*
X92940555Y-157937756D01*
X92902460Y-158013947D01*
X92864364Y-158052042D01*
X92788174Y-158090137D01*
X92559603Y-158090137D01*
X92483412Y-158052042D01*
X92445317Y-158013947D01*
X73497698Y-73013947D02*
X73459603Y-73052042D01*
X73345317Y-73090137D01*
X73269126Y-73090137D01*
X73154841Y-73052042D01*
X73078650Y-72975852D01*
X73040555Y-72899661D01*
X73002460Y-72747280D01*
X73002460Y-72632994D01*
X73040555Y-72480613D01*
X73078650Y-72404423D01*
X73154841Y-72328233D01*
X73269126Y-72290137D01*
X73345317Y-72290137D01*
X73459603Y-72328233D01*
X73497698Y-72366328D01*
X74259603Y-73090137D02*
X73802460Y-73090137D01*
X74031031Y-73090137D02*
X74031031Y-72290137D01*
X73954841Y-72404423D01*
X73878650Y-72480613D01*
X73802460Y-72518709D01*
X74640555Y-73090137D02*
X74792936Y-73090137D01*
X74869126Y-73052042D01*
X74907222Y-73013947D01*
X74983412Y-72899661D01*
X75021507Y-72747280D01*
X75021507Y-72442518D01*
X74983412Y-72366328D01*
X74945317Y-72328233D01*
X74869126Y-72290137D01*
X74716745Y-72290137D01*
X74640555Y-72328233D01*
X74602460Y-72366328D01*
X74564364Y-72442518D01*
X74564364Y-72632994D01*
X74602460Y-72709185D01*
X74640555Y-72747280D01*
X74716745Y-72785375D01*
X74869126Y-72785375D01*
X74945317Y-72747280D01*
X74983412Y-72709185D01*
X75021507Y-72632994D01*
X68321507Y-45640137D02*
X68321507Y-46287756D01*
X68359603Y-46363947D01*
X68397698Y-46402042D01*
X68473888Y-46440137D01*
X68626269Y-46440137D01*
X68702460Y-46402042D01*
X68740555Y-46363947D01*
X68778650Y-46287756D01*
X68778650Y-45640137D01*
X69578650Y-46440137D02*
X69121507Y-46440137D01*
X69350079Y-46440137D02*
X69350079Y-45640137D01*
X69273888Y-45754423D01*
X69197698Y-45830613D01*
X69121507Y-45868709D01*
X70264364Y-45906804D02*
X70264364Y-46440137D01*
X70073888Y-45602042D02*
X69883412Y-46173471D01*
X70378650Y-46173471D01*
X132497698Y-127463947D02*
X132459603Y-127502042D01*
X132345317Y-127540137D01*
X132269126Y-127540137D01*
X132154841Y-127502042D01*
X132078650Y-127425852D01*
X132040555Y-127349661D01*
X132002460Y-127197280D01*
X132002460Y-127082994D01*
X132040555Y-126930613D01*
X132078650Y-126854423D01*
X132154841Y-126778233D01*
X132269126Y-126740137D01*
X132345317Y-126740137D01*
X132459603Y-126778233D01*
X132497698Y-126816328D01*
X132764364Y-126740137D02*
X133259603Y-126740137D01*
X132992936Y-127044899D01*
X133107222Y-127044899D01*
X133183412Y-127082994D01*
X133221507Y-127121090D01*
X133259603Y-127197280D01*
X133259603Y-127387756D01*
X133221507Y-127463947D01*
X133183412Y-127502042D01*
X133107222Y-127540137D01*
X132878650Y-127540137D01*
X132802460Y-127502042D01*
X132764364Y-127463947D01*
X133754841Y-126740137D02*
X133831031Y-126740137D01*
X133907222Y-126778233D01*
X133945317Y-126816328D01*
X133983412Y-126892518D01*
X134021507Y-127044899D01*
X134021507Y-127235375D01*
X133983412Y-127387756D01*
X133945317Y-127463947D01*
X133907222Y-127502042D01*
X133831031Y-127540137D01*
X133754841Y-127540137D01*
X133678650Y-127502042D01*
X133640555Y-127463947D01*
X133602460Y-127387756D01*
X133564364Y-127235375D01*
X133564364Y-127044899D01*
X133602460Y-126892518D01*
X133640555Y-126816328D01*
X133678650Y-126778233D01*
X133754841Y-126740137D01*
X130761904Y-82100880D02*
X130761904Y-81100880D01*
X131000000Y-81100880D01*
X131142857Y-81148500D01*
X131238095Y-81243738D01*
X131285714Y-81338976D01*
X131333333Y-81529452D01*
X131333333Y-81672309D01*
X131285714Y-81862785D01*
X131238095Y-81958023D01*
X131142857Y-82053261D01*
X131000000Y-82100880D01*
X130761904Y-82100880D01*
X131904761Y-81529452D02*
X131809523Y-81481833D01*
X131761904Y-81434214D01*
X131714285Y-81338976D01*
X131714285Y-81291357D01*
X131761904Y-81196119D01*
X131809523Y-81148500D01*
X131904761Y-81100880D01*
X132095238Y-81100880D01*
X132190476Y-81148500D01*
X132238095Y-81196119D01*
X132285714Y-81291357D01*
X132285714Y-81338976D01*
X132238095Y-81434214D01*
X132190476Y-81481833D01*
X132095238Y-81529452D01*
X131904761Y-81529452D01*
X131809523Y-81577071D01*
X131761904Y-81624690D01*
X131714285Y-81719928D01*
X131714285Y-81910404D01*
X131761904Y-82005642D01*
X131809523Y-82053261D01*
X131904761Y-82100880D01*
X132095238Y-82100880D01*
X132190476Y-82053261D01*
X132238095Y-82005642D01*
X132285714Y-81910404D01*
X132285714Y-81719928D01*
X132238095Y-81624690D01*
X132190476Y-81577071D01*
X132095238Y-81529452D01*
X74600079Y-134530613D02*
X74600079Y-135340137D01*
X74647698Y-135435375D01*
X74695317Y-135482994D01*
X74790555Y-135530613D01*
X74981031Y-135530613D01*
X75076269Y-135482994D01*
X75123888Y-135435375D01*
X75171507Y-135340137D01*
X75171507Y-134530613D01*
X75600079Y-134625852D02*
X75647698Y-134578233D01*
X75742936Y-134530613D01*
X75981031Y-134530613D01*
X76076269Y-134578233D01*
X76123888Y-134625852D01*
X76171507Y-134721090D01*
X76171507Y-134816328D01*
X76123888Y-134959185D01*
X75552460Y-135530613D01*
X76171507Y-135530613D01*
X62433476Y-61461904D02*
X62433476Y-62109523D01*
X62471571Y-62185714D01*
X62509666Y-62223809D01*
X62585857Y-62261904D01*
X62738238Y-62261904D01*
X62814428Y-62223809D01*
X62852523Y-62185714D01*
X62890619Y-62109523D01*
X62890619Y-61461904D01*
X63614428Y-61461904D02*
X63462047Y-61461904D01*
X63385857Y-61500000D01*
X63347761Y-61538095D01*
X63271571Y-61652380D01*
X63233476Y-61804761D01*
X63233476Y-62109523D01*
X63271571Y-62185714D01*
X63309666Y-62223809D01*
X63385857Y-62261904D01*
X63538238Y-62261904D01*
X63614428Y-62223809D01*
X63652523Y-62185714D01*
X63690619Y-62109523D01*
X63690619Y-61919047D01*
X63652523Y-61842857D01*
X63614428Y-61804761D01*
X63538238Y-61766666D01*
X63385857Y-61766666D01*
X63309666Y-61804761D01*
X63271571Y-61842857D01*
X63233476Y-61919047D01*
X68852460Y-53090137D02*
X68852460Y-53737756D01*
X68890555Y-53813947D01*
X68928650Y-53852042D01*
X69004841Y-53890137D01*
X69157222Y-53890137D01*
X69233412Y-53852042D01*
X69271507Y-53813947D01*
X69309603Y-53737756D01*
X69309603Y-53090137D01*
X69614364Y-53090137D02*
X70109603Y-53090137D01*
X69842936Y-53394899D01*
X69957222Y-53394899D01*
X70033412Y-53432994D01*
X70071507Y-53471090D01*
X70109603Y-53547280D01*
X70109603Y-53737756D01*
X70071507Y-53813947D01*
X70033412Y-53852042D01*
X69957222Y-53890137D01*
X69728650Y-53890137D01*
X69652460Y-53852042D01*
X69614364Y-53813947D01*
X130221507Y-49740137D02*
X130221507Y-50387756D01*
X130259603Y-50463947D01*
X130297698Y-50502042D01*
X130373888Y-50540137D01*
X130526269Y-50540137D01*
X130602460Y-50502042D01*
X130640555Y-50463947D01*
X130678650Y-50387756D01*
X130678650Y-49740137D01*
X131478650Y-50540137D02*
X131021507Y-50540137D01*
X131250079Y-50540137D02*
X131250079Y-49740137D01*
X131173888Y-49854423D01*
X131097698Y-49930613D01*
X131021507Y-49968709D01*
X131783412Y-49816328D02*
X131821507Y-49778233D01*
X131897698Y-49740137D01*
X132088174Y-49740137D01*
X132164364Y-49778233D01*
X132202460Y-49816328D01*
X132240555Y-49892518D01*
X132240555Y-49968709D01*
X132202460Y-50082994D01*
X131745317Y-50540137D01*
X132240555Y-50540137D01*
X135102460Y-119690137D02*
X135102460Y-120337756D01*
X135140555Y-120413947D01*
X135178650Y-120452042D01*
X135254841Y-120490137D01*
X135407222Y-120490137D01*
X135483412Y-120452042D01*
X135521507Y-120413947D01*
X135559603Y-120337756D01*
X135559603Y-119690137D01*
X136054841Y-120032994D02*
X135978650Y-119994899D01*
X135940555Y-119956804D01*
X135902460Y-119880613D01*
X135902460Y-119842518D01*
X135940555Y-119766328D01*
X135978650Y-119728233D01*
X136054841Y-119690137D01*
X136207222Y-119690137D01*
X136283412Y-119728233D01*
X136321507Y-119766328D01*
X136359603Y-119842518D01*
X136359603Y-119880613D01*
X136321507Y-119956804D01*
X136283412Y-119994899D01*
X136207222Y-120032994D01*
X136054841Y-120032994D01*
X135978650Y-120071090D01*
X135940555Y-120109185D01*
X135902460Y-120185375D01*
X135902460Y-120337756D01*
X135940555Y-120413947D01*
X135978650Y-120452042D01*
X136054841Y-120490137D01*
X136207222Y-120490137D01*
X136283412Y-120452042D01*
X136321507Y-120413947D01*
X136359603Y-120337756D01*
X136359603Y-120185375D01*
X136321507Y-120109185D01*
X136283412Y-120071090D01*
X136207222Y-120032994D01*
X63036666Y-53371904D02*
X62655714Y-53371904D01*
X62655714Y-52571904D01*
X63722380Y-53371904D02*
X63265238Y-53371904D01*
X63493809Y-53371904D02*
X63493809Y-52571904D01*
X63417619Y-52686190D01*
X63341428Y-52762380D01*
X63265238Y-52800476D01*
X72561714Y-59899714D02*
X72523619Y-59937809D01*
X72409333Y-59975904D01*
X72333142Y-59975904D01*
X72218857Y-59937809D01*
X72142666Y-59861619D01*
X72104571Y-59785428D01*
X72066476Y-59633047D01*
X72066476Y-59518761D01*
X72104571Y-59366380D01*
X72142666Y-59290190D01*
X72218857Y-59214000D01*
X72333142Y-59175904D01*
X72409333Y-59175904D01*
X72523619Y-59214000D01*
X72561714Y-59252095D01*
X73323619Y-59975904D02*
X72866476Y-59975904D01*
X73095047Y-59975904D02*
X73095047Y-59175904D01*
X73018857Y-59290190D01*
X72942666Y-59366380D01*
X72866476Y-59404476D01*
X74009333Y-59175904D02*
X73856952Y-59175904D01*
X73780761Y-59214000D01*
X73742666Y-59252095D01*
X73666476Y-59366380D01*
X73628380Y-59518761D01*
X73628380Y-59823523D01*
X73666476Y-59899714D01*
X73704571Y-59937809D01*
X73780761Y-59975904D01*
X73933142Y-59975904D01*
X74009333Y-59937809D01*
X74047428Y-59899714D01*
X74085523Y-59823523D01*
X74085523Y-59633047D01*
X74047428Y-59556857D01*
X74009333Y-59518761D01*
X73933142Y-59480666D01*
X73780761Y-59480666D01*
X73704571Y-59518761D01*
X73666476Y-59556857D01*
X73628380Y-59633047D01*
X66047698Y-61113947D02*
X66009603Y-61152042D01*
X65895317Y-61190137D01*
X65819126Y-61190137D01*
X65704841Y-61152042D01*
X65628650Y-61075852D01*
X65590555Y-60999661D01*
X65552460Y-60847280D01*
X65552460Y-60732994D01*
X65590555Y-60580613D01*
X65628650Y-60504423D01*
X65704841Y-60428233D01*
X65819126Y-60390137D01*
X65895317Y-60390137D01*
X66009603Y-60428233D01*
X66047698Y-60466328D01*
X66809603Y-61190137D02*
X66352460Y-61190137D01*
X66581031Y-61190137D02*
X66581031Y-60390137D01*
X66504841Y-60504423D01*
X66428650Y-60580613D01*
X66352460Y-60618709D01*
X67076269Y-60390137D02*
X67609603Y-60390137D01*
X67266745Y-61190137D01*
X133428650Y-117790137D02*
X133161984Y-117409185D01*
X132971507Y-117790137D02*
X132971507Y-116990137D01*
X133276269Y-116990137D01*
X133352460Y-117028233D01*
X133390555Y-117066328D01*
X133428650Y-117142518D01*
X133428650Y-117256804D01*
X133390555Y-117332994D01*
X133352460Y-117371090D01*
X133276269Y-117409185D01*
X132971507Y-117409185D01*
X134152460Y-116990137D02*
X133771507Y-116990137D01*
X133733412Y-117371090D01*
X133771507Y-117332994D01*
X133847698Y-117294899D01*
X134038174Y-117294899D01*
X134114364Y-117332994D01*
X134152460Y-117371090D01*
X134190555Y-117447280D01*
X134190555Y-117637756D01*
X134152460Y-117713947D01*
X134114364Y-117752042D01*
X134038174Y-117790137D01*
X133847698Y-117790137D01*
X133771507Y-117752042D01*
X133733412Y-117713947D01*
X123285466Y-52813104D02*
X123018800Y-52432152D01*
X122828323Y-52813104D02*
X122828323Y-52013104D01*
X123133085Y-52013104D01*
X123209276Y-52051200D01*
X123247371Y-52089295D01*
X123285466Y-52165485D01*
X123285466Y-52279771D01*
X123247371Y-52355961D01*
X123209276Y-52394057D01*
X123133085Y-52432152D01*
X122828323Y-52432152D01*
X123971180Y-52013104D02*
X123818800Y-52013104D01*
X123742609Y-52051200D01*
X123704514Y-52089295D01*
X123628323Y-52203580D01*
X123590228Y-52355961D01*
X123590228Y-52660723D01*
X123628323Y-52736914D01*
X123666419Y-52775009D01*
X123742609Y-52813104D01*
X123894990Y-52813104D01*
X123971180Y-52775009D01*
X124009276Y-52736914D01*
X124047371Y-52660723D01*
X124047371Y-52470247D01*
X124009276Y-52394057D01*
X123971180Y-52355961D01*
X123894990Y-52317866D01*
X123742609Y-52317866D01*
X123666419Y-52355961D01*
X123628323Y-52394057D01*
X123590228Y-52470247D01*
X63697698Y-112840137D02*
X63431031Y-112459185D01*
X63240555Y-112840137D02*
X63240555Y-112040137D01*
X63545317Y-112040137D01*
X63621507Y-112078233D01*
X63659603Y-112116328D01*
X63697698Y-112192518D01*
X63697698Y-112306804D01*
X63659603Y-112382994D01*
X63621507Y-112421090D01*
X63545317Y-112459185D01*
X63240555Y-112459185D01*
X64459603Y-112840137D02*
X64002460Y-112840137D01*
X64231031Y-112840137D02*
X64231031Y-112040137D01*
X64154841Y-112154423D01*
X64078650Y-112230613D01*
X64002460Y-112268709D01*
X64726269Y-112040137D02*
X65221507Y-112040137D01*
X64954841Y-112344899D01*
X65069126Y-112344899D01*
X65145317Y-112382994D01*
X65183412Y-112421090D01*
X65221507Y-112497280D01*
X65221507Y-112687756D01*
X65183412Y-112763947D01*
X65145317Y-112802042D01*
X65069126Y-112840137D01*
X64840555Y-112840137D01*
X64764364Y-112802042D01*
X64726269Y-112763947D01*
X68550079Y-110780613D02*
X68550079Y-111590137D01*
X68597698Y-111685375D01*
X68645317Y-111732994D01*
X68740555Y-111780613D01*
X68931031Y-111780613D01*
X69026269Y-111732994D01*
X69073888Y-111685375D01*
X69121507Y-111590137D01*
X69121507Y-110780613D01*
X69645317Y-111780613D02*
X69835793Y-111780613D01*
X69931031Y-111732994D01*
X69978650Y-111685375D01*
X70073888Y-111542518D01*
X70121507Y-111352042D01*
X70121507Y-110971090D01*
X70073888Y-110875852D01*
X70026269Y-110828233D01*
X69931031Y-110780613D01*
X69740555Y-110780613D01*
X69645317Y-110828233D01*
X69597698Y-110875852D01*
X69550079Y-110971090D01*
X69550079Y-111209185D01*
X69597698Y-111304423D01*
X69645317Y-111352042D01*
X69740555Y-111399661D01*
X69931031Y-111399661D01*
X70026269Y-111352042D01*
X70073888Y-111304423D01*
X70121507Y-111209185D01*
X138147698Y-117840137D02*
X137881031Y-117459185D01*
X137690555Y-117840137D02*
X137690555Y-117040137D01*
X137995317Y-117040137D01*
X138071507Y-117078233D01*
X138109603Y-117116328D01*
X138147698Y-117192518D01*
X138147698Y-117306804D01*
X138109603Y-117382994D01*
X138071507Y-117421090D01*
X137995317Y-117459185D01*
X137690555Y-117459185D01*
X138909603Y-117840137D02*
X138452460Y-117840137D01*
X138681031Y-117840137D02*
X138681031Y-117040137D01*
X138604841Y-117154423D01*
X138528650Y-117230613D01*
X138452460Y-117268709D01*
X139214364Y-117116328D02*
X139252460Y-117078233D01*
X139328650Y-117040137D01*
X139519126Y-117040137D01*
X139595317Y-117078233D01*
X139633412Y-117116328D01*
X139671507Y-117192518D01*
X139671507Y-117268709D01*
X139633412Y-117382994D01*
X139176269Y-117840137D01*
X139671507Y-117840137D01*
X80540476Y-29594471D02*
X80540476Y-28594471D01*
X80873809Y-29308757D01*
X81207142Y-28594471D01*
X81207142Y-29594471D01*
X82207142Y-29594471D02*
X81635714Y-29594471D01*
X81921428Y-29594471D02*
X81921428Y-28594471D01*
X81826190Y-28737329D01*
X81730952Y-28832567D01*
X81635714Y-28880186D01*
X125447698Y-46990137D02*
X125181031Y-46609185D01*
X124990555Y-46990137D02*
X124990555Y-46190137D01*
X125295317Y-46190137D01*
X125371507Y-46228233D01*
X125409603Y-46266328D01*
X125447698Y-46342518D01*
X125447698Y-46456804D01*
X125409603Y-46532994D01*
X125371507Y-46571090D01*
X125295317Y-46609185D01*
X124990555Y-46609185D01*
X126209603Y-46990137D02*
X125752460Y-46990137D01*
X125981031Y-46990137D02*
X125981031Y-46190137D01*
X125904841Y-46304423D01*
X125828650Y-46380613D01*
X125752460Y-46418709D01*
X126895317Y-46456804D02*
X126895317Y-46990137D01*
X126704841Y-46152042D02*
X126514364Y-46723471D01*
X127009603Y-46723471D01*
X119958114Y-44532704D02*
X119691447Y-44151752D01*
X119500971Y-44532704D02*
X119500971Y-43732704D01*
X119805733Y-43732704D01*
X119881923Y-43770800D01*
X119920019Y-43808895D01*
X119958114Y-43885085D01*
X119958114Y-43999371D01*
X119920019Y-44075561D01*
X119881923Y-44113657D01*
X119805733Y-44151752D01*
X119500971Y-44151752D01*
X120720019Y-44532704D02*
X120262876Y-44532704D01*
X120491447Y-44532704D02*
X120491447Y-43732704D01*
X120415257Y-43846990D01*
X120339066Y-43923180D01*
X120262876Y-43961276D01*
X121443828Y-43732704D02*
X121062876Y-43732704D01*
X121024780Y-44113657D01*
X121062876Y-44075561D01*
X121139066Y-44037466D01*
X121329542Y-44037466D01*
X121405733Y-44075561D01*
X121443828Y-44113657D01*
X121481923Y-44189847D01*
X121481923Y-44380323D01*
X121443828Y-44456514D01*
X121405733Y-44494609D01*
X121329542Y-44532704D01*
X121139066Y-44532704D01*
X121062876Y-44494609D01*
X121024780Y-44456514D01*
X107900000Y-151589000D02*
X107900000Y-151189000D01*
X108350000Y-151189000D02*
X108350000Y-155189000D01*
X108350000Y-155189000D02*
X107550000Y-155189000D01*
X91700000Y-151189000D02*
X92100000Y-151189000D01*
X107550000Y-156489000D02*
X92450000Y-156489000D01*
X91650000Y-151189000D02*
X91650000Y-155189000D01*
X92100000Y-151589000D02*
X92100000Y-151189000D01*
X92100000Y-151589000D02*
X107900000Y-151589000D01*
X91650000Y-155189000D02*
X92450000Y-155189000D01*
X107550000Y-155189000D02*
X107550000Y-156489000D01*
X108300000Y-151189000D02*
X107900000Y-151189000D01*
X92450000Y-155189000D02*
X92450000Y-156489000D01*
D14*
X122230000Y-40560000D02*
X120730000Y-40560000D01*
X130230000Y-40560000D02*
X130230000Y-33300000D01*
X120730000Y-40560000D02*
X120730000Y-33300000D01*
X130230000Y-40560000D02*
X128730000Y-40560000D01*
X118290000Y-127915000D02*
X118890000Y-127915000D01*
X118290000Y-158455000D02*
X118290000Y-158565000D01*
X115700000Y-131190000D02*
X116100000Y-130990000D01*
X118290000Y-158565000D02*
X118890000Y-158565000D01*
X118290000Y-128025000D02*
X118290000Y-127915000D01*
X116100000Y-130990000D02*
X115700000Y-130790000D01*
X115700000Y-130790000D02*
X115700000Y-131190000D01*
X112446000Y-167343500D02*
X113096000Y-167343500D01*
X112446000Y-164223500D02*
X113096000Y-164223500D01*
X112446000Y-167343500D02*
X111796000Y-167343500D01*
X112446000Y-164223500D02*
X110771000Y-164223500D01*
D15*
X68150000Y-87698074D02*
X68850000Y-87698074D01*
D12*
X68800000Y-88048074D02*
X68950000Y-88048074D01*
D14*
X69300000Y-88098074D02*
X69300000Y-87298074D01*
D15*
X68500000Y-88048074D02*
X68500000Y-87348074D01*
D14*
X67700000Y-88098074D02*
X67700000Y-87298074D01*
D12*
X68950000Y-88048074D02*
X68950000Y-87848074D01*
X68850000Y-87698074D02*
G75*
G03*
X68850000Y-87698074I-350000J0D01*
G01*
D14*
X78300000Y-88098074D02*
X78300000Y-87298074D01*
D12*
X77800000Y-88048074D02*
X77950000Y-88048074D01*
X77950000Y-88048074D02*
X77950000Y-87848074D01*
D15*
X77150000Y-87698074D02*
X77850000Y-87698074D01*
D14*
X76700000Y-88098074D02*
X76700000Y-87298074D01*
D15*
X77500000Y-88048074D02*
X77500000Y-87348074D01*
D12*
X77850000Y-87698074D02*
G75*
G03*
X77850000Y-87698074I-350000J0D01*
G01*
X86800000Y-88048074D02*
X86950000Y-88048074D01*
X86950000Y-88048074D02*
X86950000Y-87848074D01*
D14*
X85700000Y-88098074D02*
X85700000Y-87298074D01*
D15*
X86500000Y-88048074D02*
X86500000Y-87348074D01*
X86150000Y-87698074D02*
X86850000Y-87698074D01*
D14*
X87300000Y-88098074D02*
X87300000Y-87298074D01*
D12*
X86850000Y-87698074D02*
G75*
G03*
X86850000Y-87698074I-350000J0D01*
G01*
D15*
X95500000Y-88048074D02*
X95500000Y-87348074D01*
X95150000Y-87698074D02*
X95850000Y-87698074D01*
D12*
X95800000Y-88048074D02*
X95950000Y-88048074D01*
D14*
X94700000Y-88098074D02*
X94700000Y-87298074D01*
X96300000Y-88098074D02*
X96300000Y-87298074D01*
D12*
X95950000Y-88048074D02*
X95950000Y-87848074D01*
X95850000Y-87698074D02*
G75*
G03*
X95850000Y-87698074I-350000J0D01*
G01*
X104800000Y-88048074D02*
X104950000Y-88048074D01*
D14*
X105300000Y-88098074D02*
X105300000Y-87298074D01*
D15*
X104150000Y-87698074D02*
X104850000Y-87698074D01*
X104500000Y-88048074D02*
X104500000Y-87348074D01*
D14*
X103700000Y-88098074D02*
X103700000Y-87298074D01*
D12*
X104950000Y-88048074D02*
X104950000Y-87848074D01*
X104850000Y-87698074D02*
G75*
G03*
X104850000Y-87698074I-350000J0D01*
G01*
D15*
X122150000Y-87698074D02*
X122850000Y-87698074D01*
X122500000Y-88048074D02*
X122500000Y-87348074D01*
D14*
X121700000Y-88098074D02*
X121700000Y-87298074D01*
X123300000Y-88098074D02*
X123300000Y-87298074D01*
D12*
X122950000Y-88048074D02*
X122950000Y-87848074D01*
X122800000Y-88048074D02*
X122950000Y-88048074D01*
X122850000Y-87698074D02*
G75*
G03*
X122850000Y-87698074I-350000J0D01*
G01*
X113950000Y-88048074D02*
X113950000Y-87848074D01*
X113800000Y-88048074D02*
X113950000Y-88048074D01*
D14*
X114300000Y-88098074D02*
X114300000Y-87298074D01*
D15*
X113500000Y-88048074D02*
X113500000Y-87348074D01*
X113150000Y-87698074D02*
X113850000Y-87698074D01*
D14*
X112700000Y-88098074D02*
X112700000Y-87298074D01*
D12*
X113850000Y-87698074D02*
G75*
G03*
X113850000Y-87698074I-350000J0D01*
G01*
D14*
X107484342Y-145197500D02*
X107958858Y-145197500D01*
X107484342Y-146242500D02*
X107958858Y-146242500D01*
X83402900Y-131873458D02*
X83402900Y-131398942D01*
X82357900Y-131873458D02*
X82357900Y-131398942D01*
X132624500Y-44230258D02*
X132624500Y-43755742D01*
X133669500Y-44230258D02*
X133669500Y-43755742D01*
X136051258Y-129502501D02*
X135576742Y-129502501D01*
X136051258Y-130547501D02*
X135576742Y-130547501D01*
X136051258Y-132780500D02*
X135576742Y-132780500D01*
X136051258Y-131735500D02*
X135576742Y-131735500D01*
X136051258Y-135066500D02*
X135576742Y-135066500D01*
X136051258Y-134021500D02*
X135576742Y-134021500D01*
X124779500Y-43755742D02*
X124779500Y-44230258D01*
X123734500Y-43755742D02*
X123734500Y-44230258D01*
X131891500Y-44230258D02*
X131891500Y-43755742D01*
X130846500Y-44230258D02*
X130846500Y-43755742D01*
X73412992Y-47705500D02*
X73887508Y-47705500D01*
X73412992Y-46660500D02*
X73887508Y-46660500D01*
X129068500Y-43755742D02*
X129068500Y-44230258D01*
X130113500Y-43755742D02*
X130113500Y-44230258D01*
X112462000Y-160159500D02*
X110787000Y-160159500D01*
X112462000Y-163279500D02*
X111812000Y-163279500D01*
X112462000Y-160159500D02*
X113112000Y-160159500D01*
X112462000Y-163279500D02*
X113112000Y-163279500D01*
X130291300Y-121314142D02*
X130291300Y-121788658D01*
X129246300Y-121314142D02*
X129246300Y-121788658D01*
X131532300Y-121314142D02*
X131532300Y-121788658D01*
X132577300Y-121314142D02*
X132577300Y-121788658D01*
X73126748Y-62355250D02*
X74549252Y-62355250D01*
X73126748Y-64175250D02*
X74549252Y-64175250D01*
X90512220Y-161216000D02*
X90793380Y-161216000D01*
X90512220Y-160196000D02*
X90793380Y-160196000D01*
X116004000Y-165310420D02*
X116004000Y-165591580D01*
X114984000Y-165310420D02*
X114984000Y-165591580D01*
X73068748Y-65070250D02*
X73591252Y-65070250D01*
X73068748Y-66540250D02*
X73591252Y-66540250D01*
X63791420Y-60378000D02*
X64072580Y-60378000D01*
X63791420Y-59358000D02*
X64072580Y-59358000D01*
X89482400Y-149338620D02*
X89482400Y-149619780D01*
X90502400Y-149338620D02*
X90502400Y-149619780D01*
X116419500Y-161917252D02*
X116419500Y-161394748D01*
X114949500Y-161917252D02*
X114949500Y-161394748D01*
X110133000Y-161983252D02*
X110133000Y-161460748D01*
X108663000Y-161983252D02*
X108663000Y-161460748D01*
X108663000Y-166044752D02*
X108663000Y-165522248D01*
X110133000Y-166044752D02*
X110133000Y-165522248D01*
X137546564Y-150548000D02*
X137265404Y-150548000D01*
X137546564Y-149528000D02*
X137265404Y-149528000D01*
X110285000Y-157771420D02*
X110285000Y-158052580D01*
X111305000Y-157771420D02*
X111305000Y-158052580D01*
X130517220Y-124982400D02*
X130798380Y-124982400D01*
X130517220Y-123962400D02*
X130798380Y-123962400D01*
X69633420Y-71649250D02*
X69914580Y-71649250D01*
X69633420Y-70629250D02*
X69914580Y-70629250D01*
X120826000Y-50075420D02*
X120826000Y-50356580D01*
X121846000Y-50075420D02*
X121846000Y-50356580D01*
X111035420Y-140638000D02*
X111316580Y-140638000D01*
X111035420Y-141658000D02*
X111316580Y-141658000D01*
X110914748Y-142699000D02*
X111437252Y-142699000D01*
X110914748Y-144169000D02*
X111437252Y-144169000D01*
X111035420Y-146230000D02*
X111316580Y-146230000D01*
X111035420Y-145210000D02*
X111316580Y-145210000D01*
X73062420Y-68506000D02*
X73343580Y-68506000D01*
X73062420Y-67486000D02*
X73343580Y-67486000D01*
X72087000Y-56226248D02*
X72087000Y-56748752D01*
X73557000Y-56226248D02*
X73557000Y-56748752D01*
D10*
X67996000Y-44817000D02*
X69854000Y-44817000D01*
X74779000Y-43542000D02*
X75362000Y-43542000D01*
X73504000Y-44817000D02*
X75429000Y-44817000D01*
X69854000Y-44755000D02*
X69854000Y-44292000D01*
X67929000Y-39017000D02*
X75429000Y-39017000D01*
X67929000Y-44292000D02*
X67929000Y-44817000D01*
X73504000Y-44755000D02*
X73504000Y-44292000D01*
X75429000Y-44292000D02*
X75429000Y-44817000D01*
X68579000Y-39542000D02*
X74779000Y-39542000D01*
X68579000Y-43542000D02*
X68579000Y-39542000D01*
X75429000Y-43542000D02*
X75429000Y-39017000D01*
X67929000Y-43542000D02*
X68579000Y-43542000D01*
X67929000Y-43542000D02*
X67929000Y-39017000D01*
X73504000Y-44292000D02*
X75429000Y-44292000D01*
X67929000Y-44292000D02*
X69854000Y-44292000D01*
X74779000Y-43542000D02*
X74779000Y-39542000D01*
D14*
X63642000Y-43739000D02*
X63642000Y-43089000D01*
X63642000Y-43739000D02*
X63642000Y-45414000D01*
X66762000Y-43739000D02*
X66762000Y-44389000D01*
X66762000Y-43739000D02*
X66762000Y-43089000D01*
X123500000Y-71776000D02*
X122850000Y-71776000D01*
X123500000Y-68656000D02*
X124150000Y-68656000D01*
X123500000Y-71776000D02*
X124150000Y-71776000D01*
X123500000Y-68656000D02*
X121825000Y-68656000D01*
X63642000Y-99365000D02*
X63642000Y-101040000D01*
X66762000Y-99365000D02*
X66762000Y-98715000D01*
X63642000Y-99365000D02*
X63642000Y-98715000D01*
X66762000Y-99365000D02*
X66762000Y-100015000D01*
X135814000Y-136032000D02*
X136464000Y-136032000D01*
X135814000Y-139152000D02*
X135164000Y-139152000D01*
X135814000Y-136032000D02*
X134139000Y-136032000D01*
X135814000Y-139152000D02*
X136464000Y-139152000D01*
D10*
X67929000Y-36684000D02*
X67929000Y-32159000D01*
X68579000Y-32684000D02*
X74779000Y-32684000D01*
X69854000Y-37897000D02*
X69854000Y-37434000D01*
X73504000Y-37959000D02*
X75429000Y-37959000D01*
X74779000Y-36684000D02*
X74779000Y-32684000D01*
X67929000Y-37434000D02*
X69854000Y-37434000D01*
X75429000Y-37434000D02*
X75429000Y-37959000D01*
X67929000Y-37434000D02*
X67929000Y-37959000D01*
X74779000Y-36684000D02*
X75362000Y-36684000D01*
X68579000Y-36684000D02*
X68579000Y-32684000D01*
X67996000Y-37959000D02*
X69854000Y-37959000D01*
X73504000Y-37434000D02*
X75429000Y-37434000D01*
X67929000Y-36684000D02*
X68579000Y-36684000D01*
X73504000Y-37897000D02*
X73504000Y-37434000D01*
X67929000Y-32159000D02*
X75429000Y-32159000D01*
X75429000Y-36684000D02*
X75429000Y-32159000D01*
D14*
X120962000Y-68284000D02*
X120962000Y-60184000D01*
X127262000Y-66234000D02*
X127862000Y-65634000D01*
X127862000Y-66834000D02*
X127262000Y-66234000D01*
X119512000Y-68284000D02*
X127912000Y-68284000D01*
X127912000Y-68284000D02*
X127912000Y-60184000D01*
X127912000Y-60184000D02*
X119512000Y-60184000D01*
X119512000Y-60184000D02*
X119512000Y-68284000D01*
X138073000Y-46558000D02*
X138073000Y-44273000D01*
X136603000Y-46558000D02*
X138073000Y-46558000D01*
X136603000Y-44273000D02*
X136603000Y-46558000D01*
X128335500Y-43755742D02*
X128335500Y-44230258D01*
X127290500Y-43755742D02*
X127290500Y-44230258D01*
X127194742Y-57088500D02*
X127669258Y-57088500D01*
X127194742Y-56043500D02*
X127669258Y-56043500D01*
X123622000Y-57110000D02*
X125297000Y-57110000D01*
X123622000Y-57110000D02*
X122972000Y-57110000D01*
X123622000Y-53990000D02*
X124272000Y-53990000D01*
X123622000Y-53990000D02*
X122972000Y-53990000D01*
X131242000Y-53990000D02*
X131892000Y-53990000D01*
X131242000Y-53990000D02*
X129567000Y-53990000D01*
X131242000Y-57110000D02*
X131892000Y-57110000D01*
X131242000Y-57110000D02*
X130592000Y-57110000D01*
X61793600Y-49888800D02*
X61193600Y-49888800D01*
X60493600Y-49188800D02*
X60493600Y-47788800D01*
X61193600Y-47088800D02*
X61793600Y-47088800D01*
X62493600Y-47788800D02*
X62493600Y-49188800D01*
X60493600Y-49188800D02*
G75*
G03*
X61193600Y-49888800I699999J-1D01*
G01*
X62493600Y-47788800D02*
G75*
G03*
X61793600Y-47088800I-700000J0D01*
G01*
X61193600Y-47088800D02*
G75*
G03*
X60493600Y-47788800I0J-700000D01*
G01*
X61793600Y-49888800D02*
G75*
G03*
X62493600Y-49188800I1J699999D01*
G01*
X139847984Y-153200000D02*
X139247984Y-153200000D01*
X137647984Y-156650000D02*
X137747984Y-156650000D01*
X137647984Y-152250000D02*
X137747984Y-152250000D01*
X139847984Y-153200000D02*
X139847984Y-155700000D01*
X139247984Y-153200000D02*
X139247984Y-152250000D01*
X139847984Y-155700000D02*
X139247984Y-155700000D01*
X136147984Y-152250000D02*
X136147984Y-156650000D01*
X139247984Y-156650000D02*
X139247984Y-155700000D01*
X110307836Y-88058074D02*
X110092164Y-88058074D01*
X110307836Y-87338074D02*
X110092164Y-87338074D01*
X127194742Y-55056500D02*
X127669258Y-55056500D01*
X127194742Y-54011500D02*
X127669258Y-54011500D01*
X80706900Y-131398942D02*
X80706900Y-131873458D01*
X81751900Y-131398942D02*
X81751900Y-131873458D01*
X109654000Y-157771420D02*
X109654000Y-158052580D01*
X108634000Y-157771420D02*
X108634000Y-158052580D01*
X137168726Y-147229500D02*
X137643242Y-147229500D01*
X137168726Y-148274500D02*
X137643242Y-148274500D01*
X73650250Y-54077000D02*
X74300250Y-54077000D01*
X73650250Y-50957000D02*
X71975250Y-50957000D01*
X73650250Y-54077000D02*
X73000250Y-54077000D01*
X73650250Y-50957000D02*
X74300250Y-50957000D01*
X73790830Y-48959000D02*
X73509670Y-48959000D01*
X73790830Y-49979000D02*
X73509670Y-49979000D01*
X120039000Y-50081748D02*
X120039000Y-50604252D01*
X118569000Y-50081748D02*
X118569000Y-50604252D01*
X91258000Y-158369252D02*
X91258000Y-156946748D01*
X89438000Y-158369252D02*
X89438000Y-156946748D01*
X73380748Y-69975250D02*
X74803252Y-69975250D01*
X73380748Y-71795250D02*
X74803252Y-71795250D01*
X67202250Y-46790000D02*
X65002250Y-46790000D01*
X67202250Y-52260000D02*
X70802250Y-52260000D01*
X67202250Y-46790000D02*
X69402250Y-46790000D01*
X67202250Y-52260000D02*
X65002250Y-52260000D01*
X135622620Y-127649400D02*
X135903780Y-127649400D01*
X135622620Y-126629400D02*
X135903780Y-126629400D01*
X130700000Y-88098074D02*
X130700000Y-87298074D01*
D15*
X131500000Y-88048074D02*
X131500000Y-87348074D01*
X131150000Y-87698074D02*
X131850000Y-87698074D01*
D12*
X131800000Y-88048074D02*
X131950000Y-88048074D01*
X131950000Y-88048074D02*
X131950000Y-87848074D01*
D14*
X132300000Y-88098074D02*
X132300000Y-87298074D01*
D12*
X131850000Y-87698074D02*
G75*
G03*
X131850000Y-87698074I-350000J0D01*
G01*
D14*
X88112000Y-136915000D02*
X86452000Y-136915000D01*
X69872000Y-136915000D02*
X71532000Y-136915000D01*
X88102000Y-161085000D02*
X88492000Y-161085000D01*
X69862000Y-161745000D02*
X69862000Y-168165000D01*
X88117000Y-168165000D02*
X69862000Y-168165000D01*
X88112000Y-137275000D02*
X88112000Y-136915000D01*
X69872000Y-137175000D02*
X69872000Y-136915000D01*
X88102000Y-161085000D02*
X88117000Y-168165000D01*
D10*
X64186000Y-69361250D02*
X61900000Y-67837250D01*
X71044000Y-62249250D02*
X67996000Y-62249250D01*
X61900000Y-67837250D02*
X61900000Y-63773250D01*
X64948000Y-69361250D02*
X64186000Y-69361250D01*
X67996000Y-69361250D02*
X71044000Y-69361250D01*
X71044000Y-69361250D02*
X71044000Y-62249250D01*
X64186000Y-62249250D02*
X64948000Y-62249250D01*
X61900000Y-63773250D02*
X64186000Y-62249250D01*
D14*
X69266000Y-54244000D02*
X68466000Y-54244000D01*
X69266000Y-57364000D02*
X71066000Y-57364000D01*
X69266000Y-57364000D02*
X68466000Y-57364000D01*
X69266000Y-54244000D02*
X70066000Y-54244000D01*
X129288000Y-51216000D02*
X129288000Y-51691000D01*
X125068000Y-47946000D02*
X125068000Y-47471000D01*
X129288000Y-51691000D02*
X128813000Y-51691000D01*
X129288000Y-47946000D02*
X129288000Y-47471000D01*
X125068000Y-51691000D02*
X125543000Y-51691000D01*
X125068000Y-47471000D02*
X125543000Y-47471000D01*
X125068000Y-51216000D02*
X125068000Y-51691000D01*
X136314000Y-121265800D02*
X136714000Y-121265800D01*
X134914000Y-123665800D02*
X135314000Y-123665800D01*
X134914000Y-121265800D02*
X135314000Y-121265800D01*
X62584000Y-57804000D02*
X62584000Y-53804000D01*
X66804000Y-53804000D02*
X66804000Y-57804000D01*
X70055000Y-59540748D02*
X70055000Y-60063252D01*
X71525000Y-59540748D02*
X71525000Y-60063252D01*
X67994000Y-59661420D02*
X67994000Y-59942580D01*
X69014000Y-59661420D02*
X69014000Y-59942580D01*
X134529500Y-117160742D02*
X134529500Y-117635258D01*
X135574500Y-117160742D02*
X135574500Y-117635258D01*
X122591500Y-50390258D02*
X122591500Y-49915742D01*
X123636500Y-50390258D02*
X123636500Y-49915742D01*
X65228484Y-114889491D02*
X65228484Y-114414975D01*
X64183484Y-114889491D02*
X64183484Y-114414975D01*
X69912984Y-112474233D02*
X66312984Y-112474233D01*
X69912984Y-119244233D02*
X72112984Y-119244233D01*
X69912984Y-119244233D02*
X67712984Y-119244233D01*
X69912984Y-112474233D02*
X72112984Y-112474233D01*
X137250900Y-117635258D02*
X137250900Y-117160742D01*
X136205900Y-117635258D02*
X136205900Y-117160742D01*
D11*
X116441976Y-32286790D02*
X116124425Y-32039809D01*
X82004854Y-71698858D02*
X79005761Y-71698574D01*
X116300968Y-57232437D02*
X116336099Y-57232391D01*
X117006540Y-33698143D02*
X116971236Y-33310019D01*
X117006203Y-66688568D02*
X117006249Y-60549123D01*
X116265664Y-57267741D02*
X116300968Y-57232437D01*
X117006207Y-56844277D02*
X117006249Y-36697640D01*
X76994600Y-36697285D02*
X79499780Y-36697285D01*
X116653412Y-57197412D02*
X116724155Y-57197306D01*
X115418758Y-31722258D02*
X114995347Y-31686950D01*
X116971236Y-33310019D02*
X116865387Y-32921895D01*
X116794767Y-57162002D02*
X116865380Y-57126694D01*
X76994707Y-36697569D02*
X76994600Y-33698440D01*
X116900684Y-57091390D02*
X116971296Y-57020778D01*
X76994646Y-66688568D02*
X76994600Y-36697285D01*
X79006027Y-31686946D02*
X82004961Y-31687280D01*
X117006249Y-36697285D02*
X114501069Y-36697285D01*
X116336099Y-57232391D02*
X116371403Y-57197086D01*
X116230356Y-57303049D02*
X116265664Y-57267741D01*
X82004914Y-31686996D02*
X111995889Y-31687280D01*
X76994618Y-69687434D02*
X76994600Y-66688568D01*
X117006320Y-66688320D02*
X114501069Y-66688568D01*
X116971296Y-57020778D02*
X116971165Y-56985381D01*
X115771595Y-31828103D02*
X115418758Y-31722258D01*
X117006508Y-33698111D02*
X117006249Y-36697285D01*
X116195052Y-57338353D02*
X116230356Y-57303049D01*
X116371403Y-57197086D02*
X116406977Y-57196952D01*
X82004819Y-31687280D02*
X82004961Y-34192105D01*
X111995889Y-31686571D02*
X111995889Y-34191751D01*
X116477348Y-57197171D02*
X116653632Y-57197306D01*
X116865387Y-32921895D02*
X116688968Y-32569068D01*
X111995960Y-31686996D02*
X114995088Y-31686925D01*
X111996017Y-71698213D02*
X111995889Y-69193040D01*
X116406977Y-57196952D02*
X116477500Y-57196952D01*
X117006469Y-56914868D02*
X117006604Y-56844334D01*
X117006281Y-66688274D02*
X117006249Y-69687413D01*
X115172003Y-59772659D02*
X116195232Y-57373370D01*
X116194945Y-57373725D02*
X116195052Y-57338353D01*
X116971165Y-56985381D02*
X117006469Y-56914868D01*
X116688968Y-32569068D02*
X116441976Y-32286790D01*
X116653490Y-60196055D02*
X115454023Y-60196151D01*
X116865380Y-57126694D02*
X116900684Y-57091390D01*
X114995078Y-71698585D02*
X111996244Y-71698574D01*
X116724155Y-57197306D02*
X116794767Y-57162002D01*
X116124425Y-32039809D02*
X115771595Y-31828103D01*
X82004854Y-71698610D02*
X111996244Y-71698574D01*
D14*
X115000000Y-51692091D02*
G75*
G03*
X115000000Y-51692091I-15000000J0D01*
G01*
X126557500Y-43755742D02*
X126557500Y-44230258D01*
X125512500Y-43755742D02*
X125512500Y-44230258D01*
X121956500Y-43755742D02*
X121956500Y-44230258D01*
X123001500Y-43755742D02*
X123001500Y-44230258D01*
M02*
