M48
; DRILL file {KiCad 6.0.9-8da3e8f707~117~ubuntu22.04.1} date Di 10 Jan 2023 09:45:38
; FORMAT={-:-/ absolute / inch / decimal}
; #@! TF.CreationDate,2023-01-10T09:45:38+01:00
; #@! TF.GenerationSoftware,Kicad,Pcbnew,6.0.9-8da3e8f707~117~ubuntu22.04.1
; #@! TF.FileFunction,Plated,1,2,PTH
FMAT,2
INCH
; #@! TA.AperFunction,Plated,PTH,ViaDrill
T1C0.0118
; #@! TA.AperFunction,Plated,PTH,ViaDrill
T2C0.0157
; #@! TA.AperFunction,Plated,PTH,ComponentDrill
T3C0.0197
; #@! TA.AperFunction,Plated,PTH,ViaDrill
T4C0.0236
; #@! TA.AperFunction,Plated,PTH,ComponentDrill
T5C0.0394
%
G90
G05
T1
X4.2554Y-3.4578
X4.3473Y-3.4527
T2
X2.4546Y-1.7876
X2.5075Y-4.1314
X2.5103Y-4.6547
X2.5595Y-4.7925
X2.5792Y-5.068
X2.587Y-2.357
X2.6087Y-5.0188
X2.612Y-1.582
X2.626Y-3.4527
X2.6383Y-5.6094
X2.6596Y-1.9026
X2.667Y-2.267
X2.6996Y-1.9076
X2.7677Y-3.4527
X2.77Y-4.1089
X2.7704Y-4.9795
X2.7975Y-4.1614
X2.8025Y-4.1214
X2.8347Y-5.5161
X2.8351Y-4.7334
X2.8475Y-4.1714
X2.865Y-5.544
X2.9335Y-4.448
X2.9335Y-4.6251
X2.9675Y-4.5214
X2.9739Y-3.4914
X2.9803Y-3.4527
X2.9879Y-5.6208
X2.997Y-1.937
X2.9975Y-4.4364
X2.9975Y-4.4814
X3.0025Y-4.4014
X3.0221Y-1.9086
X3.0221Y-5.1074
X3.0654Y-5.546
X3.0812Y-5.0385
X3.1107Y-4.9302
X3.1107Y-5.6684
X3.1394Y-5.3428
X3.143Y-5.879
X3.1698Y-1.9676
X3.2288Y-5.3141
X3.309Y-5.793
X3.313Y-6.117
X3.347Y-5.759
X3.3715Y-3.4106
X3.379Y-5.883
X3.379Y-5.921
X3.4764Y-3.4514
X3.5044Y-5.1468
X3.5233Y-5.5487
X3.5414Y-5.6117
X3.5434Y-5.507
X3.6339Y-5.5893
X3.689Y-3.4527
X3.823Y-5.883
X3.8306Y-3.4527
X3.9375Y-3.4914
X3.947Y-5.921
X4.017Y-5.905
X4.0433Y-3.4527
X4.057Y-6.023
X4.085Y-5.883
X4.125Y-5.909
X4.149Y-5.737
X4.269Y-5.567
X4.319Y-6.0523
X4.375Y-6.113
X4.417Y-5.332
X4.4406Y-3.4133
X4.4717Y-3.4972
X4.749Y-6.011
X4.751Y-5.363
X4.7908Y-3.4932
X4.8325Y-1.8064
X4.9276Y-1.627
X4.933Y-1.321
X4.9476Y-1.472
X4.957Y-5.257
X4.9775Y-3.4864
X4.9876Y-1.4445
X4.989Y-1.355
X4.9925Y-1.8064
X5.097Y-1.662
X5.1063Y-3.4527
X5.147Y-1.927
X5.152Y-2.022
X5.1876Y-1.492
X5.248Y-3.4527
X5.2662Y-2.7944
X5.277Y-4.7895
X5.287Y-3.767
X5.287Y-4.7075
X5.3056Y-2.8338
X5.3056Y-4.9106
X5.312Y-3.737
X5.3377Y-6.011
X5.345Y-4.9302
X5.3942Y-3.8673
X5.4099Y-3.7885
X5.4237Y-3.9204
X5.4296Y-3.8239
T4
X2.402Y-2.1448
X2.402Y-2.4401
X2.402Y-2.7058
X2.402Y-6.1999
X2.452Y-3.042
X2.5021Y-6.114
X2.5103Y-5.2058
X2.5521Y-6.114
X2.5635Y-4.2649
X2.572Y-3.137
X2.5792Y-4.3003
X2.5792Y-6.2196
X2.6028Y-4.2649
X2.607Y-3.992
X2.617Y-4.9283
X2.627Y-1.667
X2.627Y-2.507
X2.6346Y-1.7926
X2.6383Y-4.3791
X2.6473Y-6.2717
X2.6481Y-2.1153
X2.6623Y-6.3317
X2.667Y-3.912
X2.667Y-3.952
X2.667Y-3.992
X2.669Y-2.5054
X2.6875Y-2.1153
X2.717Y-4.8023
X2.7367Y-2.4401
X2.7675Y-4.3814
X2.772Y-2.7458
X2.7761Y-4.8613
X2.807Y-2.6758
X2.807Y-2.7158
X2.8196Y-1.9176
X2.8196Y-1.9626
X2.8253Y-5.3239
X2.8524Y-2.3897
X2.8548Y-6.1507
X2.872Y-3.077
X2.8745Y-4.2708
X2.8843Y-5.3239
X2.9056Y-5.9858
X2.9631Y-2.322
X2.992Y-2.6008
X2.9926Y-5.9145
X2.9926Y-6.0523
X2.9946Y-5.6846
X3.0024Y-6.1802
X3.007Y-2.467
X3.007Y-2.502
X3.022Y-2.5708
X3.022Y-2.8208
X3.0615Y-2.4078
X3.1698Y-6.1802
X3.2288Y-5.1665
X3.2321Y-6.259
X3.2871Y-6.259
X3.2977Y-6.0326
X3.3221Y-6.314
X3.3347Y-5.6661
X3.345Y-5.849
X3.3671Y-6.314
X3.437Y-2.407
X3.557Y-6.199
X3.631Y-6.269
X3.649Y-6.325
X3.8883Y-6.072
X4.0324Y-6.1468
X4.1245Y-6.6133
X4.1442Y-6.2688
X4.157Y-2.792
X4.2524Y-6.2196
X4.2524Y-6.259
X4.2524Y-6.446
X4.302Y-5.967
X4.313Y-5.699
X4.3509Y-6.3673
X4.3509Y-6.446
X4.369Y-5.697
X4.397Y-5.941
X4.412Y-5.482
X4.421Y-6.111
X4.4296Y-6.446
X4.461Y-6.113
X4.581Y-5.989
X4.587Y-5.317
X4.587Y-5.412
X4.587Y-5.567
X4.5871Y-6.0972
X4.6265Y-4.9736
X4.6363Y-6.3476
X4.6658Y-4.9736
X4.7052Y-4.9736
X4.7176Y-1.567
X4.7276Y-1.527
X4.7345Y-2.827
X4.767Y-2.802
X4.777Y-2.757
X4.811Y-1.913
X4.8126Y-1.447
X4.8376Y-1.472
X4.942Y-4.357
X5.007Y-1.952
X5.0576Y-1.437
X5.0576Y-1.477
X5.0694Y-1.8003
X5.133Y-1.889
X5.1383Y-1.8003
X5.172Y-6.607
X5.1726Y-1.572
X5.1726Y-1.607
X5.2072Y-1.8003
X5.234Y-4.8955
X5.3397Y-5.952
X5.347Y-4.357
X5.4575Y-4.8114
X5.4997Y-5.862
X5.5024Y-2.8239
T5
X2.772Y-1.397
X2.772Y-1.667
X2.872Y-1.397
X2.872Y-1.667
T3
G00X4.7634Y-1.2854
M15
G01X4.7634Y-1.2618
M16
G05
G00X4.7776Y-1.5197
M15
G01X4.7776Y-1.4961
M16
G05
G00X5.1028Y-1.5197
M15
G01X5.1028Y-1.4961
M16
G05
G00X5.1169Y-1.2854
M15
G01X5.1169Y-1.2618
M16
G05
T0
M30
