%TF.GenerationSoftware,KiCad,Pcbnew,6.0.11-2627ca5db0~126~ubuntu22.04.1*%
%TF.CreationDate,2025-05-27T11:14:05+02:00*%
%TF.ProjectId,qPocketPCR_Lid,71506f63-6b65-4745-9043-525f4c69642e,rev?*%
%TF.SameCoordinates,Original*%
%TF.FileFunction,Copper,L2,Bot*%
%TF.FilePolarity,Positive*%
%FSLAX46Y46*%
G04 Gerber Fmt 4.6, Leading zero omitted, Abs format (unit mm)*
G04 Created by KiCad (PCBNEW 6.0.11-2627ca5db0~126~ubuntu22.04.1) date 2025-05-27 11:14:05*
%MOMM*%
%LPD*%
G01*
G04 APERTURE LIST*
G04 Aperture macros list*
%AMRoundRect*
0 Rectangle with rounded corners*
0 $1 Rounding radius*
0 $2 $3 $4 $5 $6 $7 $8 $9 X,Y pos of 4 corners*
0 Add a 4 corners polygon primitive as box body*
4,1,4,$2,$3,$4,$5,$6,$7,$8,$9,$2,$3,0*
0 Add four circle primitives for the rounded corners*
1,1,$1+$1,$2,$3*
1,1,$1+$1,$4,$5*
1,1,$1+$1,$6,$7*
1,1,$1+$1,$8,$9*
0 Add four rect primitives between the rounded corners*
20,1,$1+$1,$2,$3,$4,$5,0*
20,1,$1+$1,$4,$5,$6,$7,0*
20,1,$1+$1,$6,$7,$8,$9,0*
20,1,$1+$1,$8,$9,$2,$3,0*%
G04 Aperture macros list end*
%TA.AperFunction,SMDPad,CuDef*%
%ADD10R,0.800000X3.000000*%
%TD*%
%TA.AperFunction,SMDPad,CuDef*%
%ADD11C,0.500000*%
%TD*%
%TA.AperFunction,SMDPad,CuDef*%
%ADD12RoundRect,0.135000X0.135000X0.185000X-0.135000X0.185000X-0.135000X-0.185000X0.135000X-0.185000X0*%
%TD*%
%TA.AperFunction,ViaPad*%
%ADD13C,0.800000*%
%TD*%
%TA.AperFunction,Conductor*%
%ADD14C,0.250000*%
%TD*%
%TA.AperFunction,Conductor*%
%ADD15C,0.170000*%
%TD*%
G04 APERTURE END LIST*
D10*
%TO.P,X7,1,1*%
%TO.N,Net-(X3-Pad1)*%
X56336000Y-104900810D03*
%TD*%
D11*
%TO.P,FID2,*%
%TO.N,*%
X62250000Y-106000000D03*
%TD*%
%TO.P,FID1,*%
%TO.N,*%
X92250000Y-94000000D03*
%TD*%
D12*
%TO.P,TH1,1*%
%TO.N,Net-(TH1-Pad1)*%
X77760000Y-100000000D03*
%TO.P,TH1,2*%
%TO.N,Net-(TH1-Pad2)*%
X76740000Y-100000000D03*
%TD*%
D10*
%TO.P,X3,1,1*%
%TO.N,Net-(X3-Pad1)*%
X53336000Y-104900810D03*
%TD*%
%TO.P,X4,1,1*%
%TO.N,Net-(X3-Pad1)*%
X55336000Y-104900810D03*
%TD*%
%TO.P,X2,1,1*%
%TO.N,Net-(TH1-Pad2)*%
X57336000Y-104900810D03*
%TD*%
%TO.P,X6,1,1*%
%TO.N,Net-(X3-Pad1)*%
X54336000Y-104900810D03*
%TD*%
%TO.P,X1,1,1*%
%TO.N,Net-(TH1-Pad1)*%
X58336000Y-104900810D03*
%TD*%
D13*
%TO.N,Net-(X3-Pad1)*%
X52510000Y-102600000D03*
X53350000Y-106600000D03*
%TD*%
D14*
%TO.N,Net-(TH1-Pad1)*%
X79550000Y-101020000D02*
X59480000Y-101020000D01*
X77760000Y-100600000D02*
X77340000Y-101020000D01*
X77760000Y-100000000D02*
X77760000Y-100600000D01*
X58336000Y-102164000D02*
X58336000Y-104900810D01*
X59480000Y-101020000D02*
X58336000Y-102164000D01*
%TO.N,Net-(TH1-Pad2)*%
X59100000Y-100000000D02*
X76740000Y-100000000D01*
X57336000Y-104900810D02*
X57336000Y-101764000D01*
X57336000Y-101764000D02*
X59100000Y-100000000D01*
%TO.N,Net-(X3-Pad1)*%
X54336000Y-104900810D02*
X54336000Y-106364000D01*
X54336000Y-106364000D02*
X54100000Y-106600000D01*
X53336000Y-104900810D02*
X53336000Y-106536000D01*
X54900000Y-102600000D02*
X55400000Y-102600000D01*
D15*
X55400000Y-102600000D02*
X55336000Y-102664000D01*
D14*
X56100000Y-102600000D02*
X56336000Y-102836000D01*
X54100000Y-106600000D02*
X53350000Y-106600000D01*
X52510000Y-102600000D02*
X54900000Y-102600000D01*
X53336000Y-106536000D02*
X53400000Y-106600000D01*
X55400000Y-102600000D02*
X56100000Y-102600000D01*
X56336000Y-102836000D02*
X56336000Y-104900810D01*
X55336000Y-102664000D02*
X55336000Y-104900810D01*
%TD*%
M02*
