%TF.GenerationSoftware,KiCad,Pcbnew,6.0.11-2627ca5db0~126~ubuntu22.04.1*%
%TF.CreationDate,2025-05-27T11:14:05+02:00*%
%TF.ProjectId,qPocketPCR_Lid,71506f63-6b65-4745-9043-525f4c69642e,rev?*%
%TF.SameCoordinates,Original*%
%TF.FileFunction,AssemblyDrawing,Top*%
%FSLAX46Y46*%
G04 Gerber Fmt 4.6, Leading zero omitted, Abs format (unit mm)*
G04 Created by KiCad (PCBNEW 6.0.11-2627ca5db0~126~ubuntu22.04.1) date 2025-05-27 11:14:05*
%MOMM*%
%LPD*%
G01*
G04 APERTURE LIST*
%ADD10C,0.200000*%
%ADD11C,0.300000*%
G04 APERTURE END LIST*
D10*
X72060000Y-88450000D02*
X69530000Y-93330000D01*
D11*
X69792857Y-85571071D02*
X70650000Y-85571071D01*
X70221428Y-87071071D02*
X70221428Y-85571071D01*
X71150000Y-87071071D02*
X71150000Y-86071071D01*
X71150000Y-86356785D02*
X71221428Y-86213928D01*
X71292857Y-86142500D01*
X71435714Y-86071071D01*
X71578571Y-86071071D01*
X72721428Y-87071071D02*
X72721428Y-86285357D01*
X72650000Y-86142500D01*
X72507142Y-86071071D01*
X72221428Y-86071071D01*
X72078571Y-86142500D01*
X72721428Y-86999642D02*
X72578571Y-87071071D01*
X72221428Y-87071071D01*
X72078571Y-86999642D01*
X72007142Y-86856785D01*
X72007142Y-86713928D01*
X72078571Y-86571071D01*
X72221428Y-86499642D01*
X72578571Y-86499642D01*
X72721428Y-86428214D01*
X74078571Y-86999642D02*
X73935714Y-87071071D01*
X73650000Y-87071071D01*
X73507142Y-86999642D01*
X73435714Y-86928214D01*
X73364285Y-86785357D01*
X73364285Y-86356785D01*
X73435714Y-86213928D01*
X73507142Y-86142500D01*
X73650000Y-86071071D01*
X73935714Y-86071071D01*
X74078571Y-86142500D01*
X74721428Y-87071071D02*
X74721428Y-85571071D01*
X74864285Y-86499642D02*
X75292857Y-87071071D01*
X75292857Y-86071071D02*
X74721428Y-86642500D01*
X76935714Y-86071071D02*
X77221428Y-87071071D01*
X77507142Y-86356785D01*
X77792857Y-87071071D01*
X78078571Y-86071071D01*
X78650000Y-87071071D02*
X78650000Y-86071071D01*
X78650000Y-85571071D02*
X78578571Y-85642500D01*
X78650000Y-85713928D01*
X78721428Y-85642500D01*
X78650000Y-85571071D01*
X78650000Y-85713928D01*
X80007142Y-87071071D02*
X80007142Y-85571071D01*
X80007142Y-86999642D02*
X79864285Y-87071071D01*
X79578571Y-87071071D01*
X79435714Y-86999642D01*
X79364285Y-86928214D01*
X79292857Y-86785357D01*
X79292857Y-86356785D01*
X79364285Y-86213928D01*
X79435714Y-86142500D01*
X79578571Y-86071071D01*
X79864285Y-86071071D01*
X80007142Y-86142500D01*
X80507142Y-86071071D02*
X81078571Y-86071071D01*
X80721428Y-85571071D02*
X80721428Y-86856785D01*
X80792857Y-86999642D01*
X80935714Y-87071071D01*
X81078571Y-87071071D01*
X81578571Y-87071071D02*
X81578571Y-85571071D01*
X82221428Y-87071071D02*
X82221428Y-86285357D01*
X82150000Y-86142500D01*
X82007142Y-86071071D01*
X81792857Y-86071071D01*
X81650000Y-86142500D01*
X81578571Y-86213928D01*
X84078571Y-87071071D02*
X84078571Y-86071071D01*
X84078571Y-86213928D02*
X84150000Y-86142500D01*
X84292857Y-86071071D01*
X84507142Y-86071071D01*
X84650000Y-86142500D01*
X84721428Y-86285357D01*
X84721428Y-87071071D01*
X84721428Y-86285357D02*
X84792857Y-86142500D01*
X84935714Y-86071071D01*
X85150000Y-86071071D01*
X85292857Y-86142500D01*
X85364285Y-86285357D01*
X85364285Y-87071071D01*
X86721428Y-86071071D02*
X86721428Y-87071071D01*
X86078571Y-86071071D02*
X86078571Y-86856785D01*
X86150000Y-86999642D01*
X86292857Y-87071071D01*
X86507142Y-87071071D01*
X86650000Y-86999642D01*
X86721428Y-86928214D01*
X87364285Y-86999642D02*
X87507142Y-87071071D01*
X87792857Y-87071071D01*
X87935714Y-86999642D01*
X88007142Y-86856785D01*
X88007142Y-86785357D01*
X87935714Y-86642500D01*
X87792857Y-86571071D01*
X87578571Y-86571071D01*
X87435714Y-86499642D01*
X87364285Y-86356785D01*
X87364285Y-86285357D01*
X87435714Y-86142500D01*
X87578571Y-86071071D01*
X87792857Y-86071071D01*
X87935714Y-86142500D01*
X88435714Y-86071071D02*
X89007142Y-86071071D01*
X88650000Y-85571071D02*
X88650000Y-86856785D01*
X88721428Y-86999642D01*
X88864285Y-87071071D01*
X89007142Y-87071071D01*
X90650000Y-87071071D02*
X90650000Y-85571071D01*
X90650000Y-86142500D02*
X90792857Y-86071071D01*
X91078571Y-86071071D01*
X91221428Y-86142500D01*
X91292857Y-86213928D01*
X91364285Y-86356785D01*
X91364285Y-86785357D01*
X91292857Y-86928214D01*
X91221428Y-86999642D01*
X91078571Y-87071071D01*
X90792857Y-87071071D01*
X90650000Y-86999642D01*
X92578571Y-86999642D02*
X92435714Y-87071071D01*
X92150000Y-87071071D01*
X92007142Y-86999642D01*
X91935714Y-86856785D01*
X91935714Y-86285357D01*
X92007142Y-86142500D01*
X92150000Y-86071071D01*
X92435714Y-86071071D01*
X92578571Y-86142500D01*
X92650000Y-86285357D01*
X92650000Y-86428214D01*
X91935714Y-86571071D01*
X95078571Y-85571071D02*
X94792857Y-85571071D01*
X94650000Y-85642500D01*
X94578571Y-85713928D01*
X94435714Y-85928214D01*
X94364285Y-86213928D01*
X94364285Y-86785357D01*
X94435714Y-86928214D01*
X94507142Y-86999642D01*
X94650000Y-87071071D01*
X94935714Y-87071071D01*
X95078571Y-86999642D01*
X95150000Y-86928214D01*
X95221428Y-86785357D01*
X95221428Y-86428214D01*
X95150000Y-86285357D01*
X95078571Y-86213928D01*
X94935714Y-86142500D01*
X94650000Y-86142500D01*
X94507142Y-86213928D01*
X94435714Y-86285357D01*
X94364285Y-86428214D01*
X95864285Y-86928214D02*
X95935714Y-86999642D01*
X95864285Y-87071071D01*
X95792857Y-86999642D01*
X95864285Y-86928214D01*
X95864285Y-87071071D01*
X96435714Y-85571071D02*
X97435714Y-85571071D01*
X96792857Y-87071071D01*
X98007142Y-87071071D02*
X98007142Y-86071071D01*
X98007142Y-86213928D02*
X98078571Y-86142500D01*
X98221428Y-86071071D01*
X98435714Y-86071071D01*
X98578571Y-86142500D01*
X98650000Y-86285357D01*
X98650000Y-87071071D01*
X98650000Y-86285357D02*
X98721428Y-86142500D01*
X98864285Y-86071071D01*
X99078571Y-86071071D01*
X99221428Y-86142500D01*
X99292857Y-86285357D01*
X99292857Y-87071071D01*
X100007142Y-87071071D02*
X100007142Y-86071071D01*
X100007142Y-85571071D02*
X99935714Y-85642500D01*
X100007142Y-85713928D01*
X100078571Y-85642500D01*
X100007142Y-85571071D01*
X100007142Y-85713928D01*
X100935714Y-87071071D02*
X100792857Y-86999642D01*
X100721428Y-86856785D01*
X100721428Y-85571071D01*
X73328571Y-89486071D02*
X73328571Y-87986071D01*
X73685714Y-87986071D01*
X73900000Y-88057500D01*
X74042857Y-88200357D01*
X74114285Y-88343214D01*
X74185714Y-88628928D01*
X74185714Y-88843214D01*
X74114285Y-89128928D01*
X74042857Y-89271785D01*
X73900000Y-89414642D01*
X73685714Y-89486071D01*
X73328571Y-89486071D01*
X75114285Y-87986071D02*
X75400000Y-87986071D01*
X75542857Y-88057500D01*
X75685714Y-88200357D01*
X75757142Y-88486071D01*
X75757142Y-88986071D01*
X75685714Y-89271785D01*
X75542857Y-89414642D01*
X75400000Y-89486071D01*
X75114285Y-89486071D01*
X74971428Y-89414642D01*
X74828571Y-89271785D01*
X74757142Y-88986071D01*
X74757142Y-88486071D01*
X74828571Y-88200357D01*
X74971428Y-88057500D01*
X75114285Y-87986071D01*
X77542857Y-89486071D02*
X77542857Y-87986071D01*
X78400000Y-89486071D01*
X78400000Y-87986071D01*
X79400000Y-87986071D02*
X79685714Y-87986071D01*
X79828571Y-88057500D01*
X79971428Y-88200357D01*
X80042857Y-88486071D01*
X80042857Y-88986071D01*
X79971428Y-89271785D01*
X79828571Y-89414642D01*
X79685714Y-89486071D01*
X79400000Y-89486071D01*
X79257142Y-89414642D01*
X79114285Y-89271785D01*
X79042857Y-88986071D01*
X79042857Y-88486071D01*
X79114285Y-88200357D01*
X79257142Y-88057500D01*
X79400000Y-87986071D01*
X80471428Y-87986071D02*
X81328571Y-87986071D01*
X80900000Y-89486071D02*
X80900000Y-87986071D01*
X83828571Y-89343214D02*
X83757142Y-89414642D01*
X83542857Y-89486071D01*
X83400000Y-89486071D01*
X83185714Y-89414642D01*
X83042857Y-89271785D01*
X82971428Y-89128928D01*
X82900000Y-88843214D01*
X82900000Y-88628928D01*
X82971428Y-88343214D01*
X83042857Y-88200357D01*
X83185714Y-88057500D01*
X83400000Y-87986071D01*
X83542857Y-87986071D01*
X83757142Y-88057500D01*
X83828571Y-88128928D01*
X84471428Y-89486071D02*
X84471428Y-87986071D01*
X84471428Y-88700357D02*
X85328571Y-88700357D01*
X85328571Y-89486071D02*
X85328571Y-87986071D01*
X85971428Y-89057500D02*
X86685714Y-89057500D01*
X85828571Y-89486071D02*
X86328571Y-87986071D01*
X86828571Y-89486071D01*
X87328571Y-89486071D02*
X87328571Y-87986071D01*
X88185714Y-89486071D01*
X88185714Y-87986071D01*
X89685714Y-88057500D02*
X89542857Y-87986071D01*
X89328571Y-87986071D01*
X89114285Y-88057500D01*
X88971428Y-88200357D01*
X88900000Y-88343214D01*
X88828571Y-88628928D01*
X88828571Y-88843214D01*
X88900000Y-89128928D01*
X88971428Y-89271785D01*
X89114285Y-89414642D01*
X89328571Y-89486071D01*
X89471428Y-89486071D01*
X89685714Y-89414642D01*
X89757142Y-89343214D01*
X89757142Y-88843214D01*
X89471428Y-88843214D01*
X90400000Y-88700357D02*
X90900000Y-88700357D01*
X91114285Y-89486071D02*
X90400000Y-89486071D01*
X90400000Y-87986071D01*
X91114285Y-87986071D01*
X91757142Y-89343214D02*
X91828571Y-89414642D01*
X91757142Y-89486071D01*
X91685714Y-89414642D01*
X91757142Y-89343214D01*
X91757142Y-89486071D01*
M02*
