%TF.GenerationSoftware,KiCad,Pcbnew,6.0.11-2627ca5db0~126~ubuntu22.04.1*%
%TF.CreationDate,2025-05-27T11:14:05+02:00*%
%TF.ProjectId,qPocketPCR_Lid,71506f63-6b65-4745-9043-525f4c69642e,rev?*%
%TF.SameCoordinates,Original*%
%TF.FileFunction,Copper,L1,Top*%
%TF.FilePolarity,Positive*%
%FSLAX46Y46*%
G04 Gerber Fmt 4.6, Leading zero omitted, Abs format (unit mm)*
G04 Created by KiCad (PCBNEW 6.0.11-2627ca5db0~126~ubuntu22.04.1) date 2025-05-27 11:14:05*
%MOMM*%
%LPD*%
G01*
G04 APERTURE LIST*
%TA.AperFunction,ViaPad*%
%ADD10C,0.800000*%
%TD*%
%TA.AperFunction,Conductor*%
%ADD11C,0.170000*%
%TD*%
G04 APERTURE END LIST*
D10*
%TO.N,Net-(X3-Pad1)*%
X52510000Y-102600000D03*
X53350000Y-106600000D03*
%TD*%
D11*
%TO.N,Net-(X3-Pad1)*%
X129600000Y-99000000D02*
X53200000Y-99000000D01*
X129600000Y-97400000D02*
X53200000Y-97400000D01*
X129600000Y-99400000D02*
X129600000Y-99000000D01*
X129600000Y-101400000D02*
X53200000Y-101400000D01*
X129600000Y-95800000D02*
X53200000Y-95800000D01*
X129600000Y-98600000D02*
X129600000Y-98200000D01*
X129600000Y-106600000D02*
X129600000Y-106200000D01*
X129600000Y-104200000D02*
X129600000Y-103800000D01*
X129600000Y-103000000D02*
X53200000Y-103000000D01*
X129600000Y-102600000D02*
X129600000Y-102200000D01*
X129600000Y-105000000D02*
X129600000Y-104600000D01*
X129600000Y-98200000D02*
X53200000Y-98200000D01*
X129600000Y-105800000D02*
X129600000Y-105400000D01*
X129600000Y-96200000D02*
X129600000Y-95800000D01*
X53200000Y-104600000D02*
X53200000Y-104200000D01*
X54000000Y-105800000D02*
X129600000Y-105800000D01*
X129600000Y-93800000D02*
X129600000Y-93400000D01*
X129600000Y-101000000D02*
X129600000Y-100600000D01*
X53200000Y-95800000D02*
X53200000Y-95400000D01*
X53200000Y-97400000D02*
X53200000Y-97000000D01*
X53200000Y-101400000D02*
X53200000Y-101000000D01*
X129600000Y-99800000D02*
X53200000Y-99800000D01*
X53200000Y-97000000D02*
X129600000Y-97000000D01*
X53200000Y-95400000D02*
X129600000Y-95400000D01*
X129600000Y-95400000D02*
X129600000Y-95000000D01*
X53200000Y-95000000D02*
X53200000Y-94600000D01*
X129600000Y-105400000D02*
X53200000Y-105400000D01*
X129600000Y-94200000D02*
X53200000Y-94200000D01*
X129600000Y-103400000D02*
X129600000Y-103000000D01*
X52520000Y-102590000D02*
X52510000Y-102600000D01*
X53200000Y-99800000D02*
X53200000Y-99400000D01*
X53200000Y-102600000D02*
X129600000Y-102600000D01*
X53200000Y-98200000D02*
X53200000Y-97800000D01*
X129600000Y-96600000D02*
X53200000Y-96600000D01*
X129600000Y-103800000D02*
X53200000Y-103800000D01*
X53200000Y-101800000D02*
X129600000Y-101800000D01*
X129600000Y-95000000D02*
X53200000Y-95000000D01*
X53200000Y-103400000D02*
X129600000Y-103400000D01*
X53200000Y-99000000D02*
X53200000Y-98600000D01*
X53200000Y-101000000D02*
X129600000Y-101000000D01*
X53200000Y-99400000D02*
X129600000Y-99400000D01*
X53200000Y-104200000D02*
X129600000Y-104200000D01*
X53200000Y-103800000D02*
X53200000Y-103400000D01*
X129600000Y-106200000D02*
X54000000Y-106200000D01*
X53200000Y-96200000D02*
X129600000Y-96200000D01*
X53200000Y-97800000D02*
X129600000Y-97800000D01*
X129600000Y-104600000D02*
X53200000Y-104600000D01*
X53200000Y-100600000D02*
X53200000Y-100200000D01*
X53200000Y-100200000D02*
X129600000Y-100200000D01*
X53200000Y-105000000D02*
X129600000Y-105000000D01*
X53200000Y-103000000D02*
X53200000Y-102600000D01*
X129600000Y-106600000D02*
X53400000Y-106600000D01*
X52800000Y-102590000D02*
X52520000Y-102590000D01*
X129600000Y-101800000D02*
X129600000Y-101400000D01*
X129600000Y-93400000D02*
X53000000Y-93400000D01*
X129600000Y-102200000D02*
X53200000Y-102200000D01*
X129600000Y-97800000D02*
X129600000Y-97400000D01*
X53200000Y-94200000D02*
X53200000Y-93800000D01*
X53000000Y-93400000D02*
X52800000Y-93600000D01*
X129600000Y-100200000D02*
X129600000Y-99800000D01*
X53200000Y-96600000D02*
X53200000Y-96200000D01*
X53200000Y-102200000D02*
X53200000Y-101800000D01*
X53200000Y-105400000D02*
X53200000Y-105000000D01*
X53200000Y-93800000D02*
X129600000Y-93800000D01*
X52800000Y-93600000D02*
X52800000Y-102590000D01*
X54000000Y-106200000D02*
X54000000Y-105800000D01*
X53200000Y-94600000D02*
X129600000Y-94600000D01*
X129600000Y-100600000D02*
X53200000Y-100600000D01*
X129600000Y-94600000D02*
X129600000Y-94200000D01*
X129600000Y-97000000D02*
X129600000Y-96600000D01*
X53200000Y-98600000D02*
X129600000Y-98600000D01*
%TD*%
M02*
