%TF.GenerationSoftware,KiCad,Pcbnew,6.0.11-2627ca5db0~126~ubuntu22.04.1*%
%TF.CreationDate,2025-05-27T11:14:05+02:00*%
%TF.ProjectId,qPocketPCR_Lid,71506f63-6b65-4745-9043-525f4c69642e,rev?*%
%TF.SameCoordinates,Original*%
%TF.FileFunction,Legend,Bot*%
%TF.FilePolarity,Positive*%
%FSLAX46Y46*%
G04 Gerber Fmt 4.6, Leading zero omitted, Abs format (unit mm)*
G04 Created by KiCad (PCBNEW 6.0.11-2627ca5db0~126~ubuntu22.04.1) date 2025-05-27 11:14:05*
%MOMM*%
%LPD*%
G01*
G04 APERTURE LIST*
%ADD10C,0.250000*%
%ADD11C,0.150000*%
%ADD12C,0.120000*%
G04 APERTURE END LIST*
D10*
X107670000Y-105332857D02*
X107670000Y-104132857D01*
X107670000Y-104704285D02*
X106984285Y-104704285D01*
X106984285Y-105332857D02*
X106984285Y-104132857D01*
X105955714Y-105275714D02*
X106070000Y-105332857D01*
X106298571Y-105332857D01*
X106412857Y-105275714D01*
X106470000Y-105161428D01*
X106470000Y-104704285D01*
X106412857Y-104590000D01*
X106298571Y-104532857D01*
X106070000Y-104532857D01*
X105955714Y-104590000D01*
X105898571Y-104704285D01*
X105898571Y-104818571D01*
X106470000Y-104932857D01*
X104870000Y-105332857D02*
X104870000Y-104704285D01*
X104927142Y-104590000D01*
X105041428Y-104532857D01*
X105270000Y-104532857D01*
X105384285Y-104590000D01*
X104870000Y-105275714D02*
X104984285Y-105332857D01*
X105270000Y-105332857D01*
X105384285Y-105275714D01*
X105441428Y-105161428D01*
X105441428Y-105047142D01*
X105384285Y-104932857D01*
X105270000Y-104875714D01*
X104984285Y-104875714D01*
X104870000Y-104818571D01*
X104470000Y-104532857D02*
X104012857Y-104532857D01*
X104298571Y-104132857D02*
X104298571Y-105161428D01*
X104241428Y-105275714D01*
X104127142Y-105332857D01*
X104012857Y-105332857D01*
X103155714Y-105275714D02*
X103270000Y-105332857D01*
X103498571Y-105332857D01*
X103612857Y-105275714D01*
X103670000Y-105161428D01*
X103670000Y-104704285D01*
X103612857Y-104590000D01*
X103498571Y-104532857D01*
X103270000Y-104532857D01*
X103155714Y-104590000D01*
X103098571Y-104704285D01*
X103098571Y-104818571D01*
X103670000Y-104932857D01*
X102070000Y-105332857D02*
X102070000Y-104132857D01*
X102070000Y-105275714D02*
X102184285Y-105332857D01*
X102412857Y-105332857D01*
X102527142Y-105275714D01*
X102584285Y-105218571D01*
X102641428Y-105104285D01*
X102641428Y-104761428D01*
X102584285Y-104647142D01*
X102527142Y-104590000D01*
X102412857Y-104532857D01*
X102184285Y-104532857D01*
X102070000Y-104590000D01*
X100012857Y-105332857D02*
X100584285Y-105332857D01*
X100584285Y-104132857D01*
X99612857Y-105332857D02*
X99612857Y-104532857D01*
X99612857Y-104132857D02*
X99670000Y-104190000D01*
X99612857Y-104247142D01*
X99555714Y-104190000D01*
X99612857Y-104132857D01*
X99612857Y-104247142D01*
X98527142Y-105332857D02*
X98527142Y-104132857D01*
X98527142Y-105275714D02*
X98641428Y-105332857D01*
X98870000Y-105332857D01*
X98984285Y-105275714D01*
X99041428Y-105218571D01*
X99098571Y-105104285D01*
X99098571Y-104761428D01*
X99041428Y-104647142D01*
X98984285Y-104590000D01*
X98870000Y-104532857D01*
X98641428Y-104532857D01*
X98527142Y-104590000D01*
X97041428Y-105332857D02*
X97041428Y-104132857D01*
X96584285Y-104132857D01*
X96470000Y-104190000D01*
X96412857Y-104247142D01*
X96355714Y-104361428D01*
X96355714Y-104532857D01*
X96412857Y-104647142D01*
X96470000Y-104704285D01*
X96584285Y-104761428D01*
X97041428Y-104761428D01*
X95155714Y-105218571D02*
X95212857Y-105275714D01*
X95384285Y-105332857D01*
X95498571Y-105332857D01*
X95670000Y-105275714D01*
X95784285Y-105161428D01*
X95841428Y-105047142D01*
X95898571Y-104818571D01*
X95898571Y-104647142D01*
X95841428Y-104418571D01*
X95784285Y-104304285D01*
X95670000Y-104190000D01*
X95498571Y-104132857D01*
X95384285Y-104132857D01*
X95212857Y-104190000D01*
X95155714Y-104247142D01*
X94241428Y-104704285D02*
X94070000Y-104761428D01*
X94012857Y-104818571D01*
X93955714Y-104932857D01*
X93955714Y-105104285D01*
X94012857Y-105218571D01*
X94070000Y-105275714D01*
X94184285Y-105332857D01*
X94641428Y-105332857D01*
X94641428Y-104132857D01*
X94241428Y-104132857D01*
X94127142Y-104190000D01*
X94070000Y-104247142D01*
X94012857Y-104361428D01*
X94012857Y-104475714D01*
X94070000Y-104590000D01*
X94127142Y-104647142D01*
X94241428Y-104704285D01*
X94641428Y-104704285D01*
X92527142Y-104875714D02*
X91612857Y-104875714D01*
X89498571Y-104190000D02*
X89612857Y-104132857D01*
X89784285Y-104132857D01*
X89955714Y-104190000D01*
X90070000Y-104304285D01*
X90127142Y-104418571D01*
X90184285Y-104647142D01*
X90184285Y-104818571D01*
X90127142Y-105047142D01*
X90070000Y-105161428D01*
X89955714Y-105275714D01*
X89784285Y-105332857D01*
X89670000Y-105332857D01*
X89498571Y-105275714D01*
X89441428Y-105218571D01*
X89441428Y-104818571D01*
X89670000Y-104818571D01*
X88412857Y-105332857D02*
X88412857Y-104704285D01*
X88470000Y-104590000D01*
X88584285Y-104532857D01*
X88812857Y-104532857D01*
X88927142Y-104590000D01*
X88412857Y-105275714D02*
X88527142Y-105332857D01*
X88812857Y-105332857D01*
X88927142Y-105275714D01*
X88984285Y-105161428D01*
X88984285Y-105047142D01*
X88927142Y-104932857D01*
X88812857Y-104875714D01*
X88527142Y-104875714D01*
X88412857Y-104818571D01*
X87327142Y-104532857D02*
X87327142Y-105332857D01*
X87841428Y-104532857D02*
X87841428Y-105161428D01*
X87784285Y-105275714D01*
X87670000Y-105332857D01*
X87498571Y-105332857D01*
X87384285Y-105275714D01*
X87327142Y-105218571D01*
X86241428Y-105332857D02*
X86241428Y-104132857D01*
X86241428Y-105275714D02*
X86355714Y-105332857D01*
X86584285Y-105332857D01*
X86698571Y-105275714D01*
X86755714Y-105218571D01*
X86812857Y-105104285D01*
X86812857Y-104761428D01*
X86755714Y-104647142D01*
X86698571Y-104590000D01*
X86584285Y-104532857D01*
X86355714Y-104532857D01*
X86241428Y-104590000D01*
X85670000Y-105332857D02*
X85670000Y-104532857D01*
X85670000Y-104132857D02*
X85727142Y-104190000D01*
X85670000Y-104247142D01*
X85612857Y-104190000D01*
X85670000Y-104132857D01*
X85670000Y-104247142D01*
X84527142Y-105332857D02*
X85098571Y-105332857D01*
X85098571Y-104132857D01*
X83612857Y-105332857D02*
X83612857Y-104704285D01*
X83670000Y-104590000D01*
X83784285Y-104532857D01*
X84012857Y-104532857D01*
X84127142Y-104590000D01*
X83612857Y-105275714D02*
X83727142Y-105332857D01*
X84012857Y-105332857D01*
X84127142Y-105275714D01*
X84184285Y-105161428D01*
X84184285Y-105047142D01*
X84127142Y-104932857D01*
X84012857Y-104875714D01*
X83727142Y-104875714D01*
X83612857Y-104818571D01*
X83041428Y-105332857D02*
X83041428Y-104132857D01*
X83041428Y-104590000D02*
X82927142Y-104532857D01*
X82698571Y-104532857D01*
X82584285Y-104590000D01*
X82527142Y-104647142D01*
X82470000Y-104761428D01*
X82470000Y-105104285D01*
X82527142Y-105218571D01*
X82584285Y-105275714D01*
X82698571Y-105332857D01*
X82927142Y-105332857D01*
X83041428Y-105275714D01*
X82012857Y-105275714D02*
X81898571Y-105332857D01*
X81670000Y-105332857D01*
X81555714Y-105275714D01*
X81498571Y-105161428D01*
X81498571Y-105104285D01*
X81555714Y-104990000D01*
X81670000Y-104932857D01*
X81841428Y-104932857D01*
X81955714Y-104875714D01*
X82012857Y-104761428D01*
X82012857Y-104704285D01*
X81955714Y-104590000D01*
X81841428Y-104532857D01*
X81670000Y-104532857D01*
X81555714Y-104590000D01*
X80127142Y-104247142D02*
X80070000Y-104190000D01*
X79955714Y-104132857D01*
X79670000Y-104132857D01*
X79555714Y-104190000D01*
X79498571Y-104247142D01*
X79441428Y-104361428D01*
X79441428Y-104475714D01*
X79498571Y-104647142D01*
X80184285Y-105332857D01*
X79441428Y-105332857D01*
X78698571Y-104132857D02*
X78584285Y-104132857D01*
X78470000Y-104190000D01*
X78412857Y-104247142D01*
X78355714Y-104361428D01*
X78298571Y-104590000D01*
X78298571Y-104875714D01*
X78355714Y-105104285D01*
X78412857Y-105218571D01*
X78470000Y-105275714D01*
X78584285Y-105332857D01*
X78698571Y-105332857D01*
X78812857Y-105275714D01*
X78870000Y-105218571D01*
X78927142Y-105104285D01*
X78984285Y-104875714D01*
X78984285Y-104590000D01*
X78927142Y-104361428D01*
X78870000Y-104247142D01*
X78812857Y-104190000D01*
X78698571Y-104132857D01*
X77841428Y-104247142D02*
X77784285Y-104190000D01*
X77670000Y-104132857D01*
X77384285Y-104132857D01*
X77270000Y-104190000D01*
X77212857Y-104247142D01*
X77155714Y-104361428D01*
X77155714Y-104475714D01*
X77212857Y-104647142D01*
X77898571Y-105332857D01*
X77155714Y-105332857D01*
X76070000Y-104132857D02*
X76641428Y-104132857D01*
X76698571Y-104704285D01*
X76641428Y-104647142D01*
X76527142Y-104590000D01*
X76241428Y-104590000D01*
X76127142Y-104647142D01*
X76070000Y-104704285D01*
X76012857Y-104818571D01*
X76012857Y-105104285D01*
X76070000Y-105218571D01*
X76127142Y-105275714D01*
X76241428Y-105332857D01*
X76527142Y-105332857D01*
X76641428Y-105275714D01*
X76698571Y-105218571D01*
D11*
%TO.C,X7*%
X57093380Y-109133476D02*
X58093380Y-109800142D01*
X57093380Y-109800142D02*
X58093380Y-109133476D01*
X57093380Y-110085857D02*
X57093380Y-110752523D01*
X58093380Y-110323952D01*
%TO.C,FID2*%
X63321428Y-104428571D02*
X63654761Y-104428571D01*
X63654761Y-104952380D02*
X63654761Y-103952380D01*
X63178571Y-103952380D01*
X62797619Y-104952380D02*
X62797619Y-103952380D01*
X62321428Y-104952380D02*
X62321428Y-103952380D01*
X62083333Y-103952380D01*
X61940476Y-104000000D01*
X61845238Y-104095238D01*
X61797619Y-104190476D01*
X61750000Y-104380952D01*
X61750000Y-104523809D01*
X61797619Y-104714285D01*
X61845238Y-104809523D01*
X61940476Y-104904761D01*
X62083333Y-104952380D01*
X62321428Y-104952380D01*
X61369047Y-104047619D02*
X61321428Y-104000000D01*
X61226190Y-103952380D01*
X60988095Y-103952380D01*
X60892857Y-104000000D01*
X60845238Y-104047619D01*
X60797619Y-104142857D01*
X60797619Y-104238095D01*
X60845238Y-104380952D01*
X61416666Y-104952380D01*
X60797619Y-104952380D01*
%TO.C,FID1*%
X93161428Y-95648571D02*
X93494761Y-95648571D01*
X93494761Y-96172380D02*
X93494761Y-95172380D01*
X93018571Y-95172380D01*
X92637619Y-96172380D02*
X92637619Y-95172380D01*
X92161428Y-96172380D02*
X92161428Y-95172380D01*
X91923333Y-95172380D01*
X91780476Y-95220000D01*
X91685238Y-95315238D01*
X91637619Y-95410476D01*
X91590000Y-95600952D01*
X91590000Y-95743809D01*
X91637619Y-95934285D01*
X91685238Y-96029523D01*
X91780476Y-96124761D01*
X91923333Y-96172380D01*
X92161428Y-96172380D01*
X90637619Y-96172380D02*
X91209047Y-96172380D01*
X90923333Y-96172380D02*
X90923333Y-95172380D01*
X91018571Y-95315238D01*
X91113809Y-95410476D01*
X91209047Y-95458095D01*
%TO.C,TH1*%
X78535714Y-98282380D02*
X77964285Y-98282380D01*
X78250000Y-99282380D02*
X78250000Y-98282380D01*
X77630952Y-99282380D02*
X77630952Y-98282380D01*
X77630952Y-98758571D02*
X77059523Y-98758571D01*
X77059523Y-99282380D02*
X77059523Y-98282380D01*
X76059523Y-99282380D02*
X76630952Y-99282380D01*
X76345238Y-99282380D02*
X76345238Y-98282380D01*
X76440476Y-98425238D01*
X76535714Y-98520476D01*
X76630952Y-98568095D01*
%TO.C,X6*%
X50052380Y-109090476D02*
X51052380Y-109757142D01*
X50052380Y-109757142D02*
X51052380Y-109090476D01*
X50052380Y-110566666D02*
X50052380Y-110376190D01*
X50100000Y-110280952D01*
X50147619Y-110233333D01*
X50290476Y-110138095D01*
X50480952Y-110090476D01*
X50861904Y-110090476D01*
X50957142Y-110138095D01*
X51004761Y-110185714D01*
X51052380Y-110280952D01*
X51052380Y-110471428D01*
X51004761Y-110566666D01*
X50957142Y-110614285D01*
X50861904Y-110661904D01*
X50623809Y-110661904D01*
X50528571Y-110614285D01*
X50480952Y-110566666D01*
X50433333Y-110471428D01*
X50433333Y-110280952D01*
X50480952Y-110185714D01*
X50528571Y-110138095D01*
X50623809Y-110090476D01*
D12*
%TO.C,TH1*%
X77403641Y-99620000D02*
X77096359Y-99620000D01*
X77403641Y-100380000D02*
X77096359Y-100380000D01*
%TD*%
M02*
