%TF.GenerationSoftware,KiCad,Pcbnew,6.0.11-2627ca5db0~126~ubuntu22.04.1*%
%TF.CreationDate,2025-05-27T11:14:05+02:00*%
%TF.ProjectId,qPocketPCR_Lid,71506f63-6b65-4745-9043-525f4c69642e,rev?*%
%TF.SameCoordinates,Original*%
%TF.FileFunction,Profile,NP*%
%FSLAX46Y46*%
G04 Gerber Fmt 4.6, Leading zero omitted, Abs format (unit mm)*
G04 Created by KiCad (PCBNEW 6.0.11-2627ca5db0~126~ubuntu22.04.1) date 2025-05-27 11:14:05*
%MOMM*%
%LPD*%
G01*
G04 APERTURE LIST*
%TA.AperFunction,Profile*%
%ADD10C,0.099999*%
%TD*%
G04 APERTURE END LIST*
D10*
X130420736Y-106593418D02*
X130420736Y-106551083D01*
X130166738Y-106974423D02*
X130187902Y-106953251D01*
X52358068Y-92898587D02*
X52358068Y-92898587D01*
X52633237Y-107228421D02*
X52675573Y-107228421D01*
X52675573Y-107228421D02*
X52717901Y-107228421D01*
X129722234Y-107228421D02*
X129722234Y-107228421D01*
X129891576Y-107164921D02*
X129891576Y-107164921D01*
X130357244Y-93300755D02*
X130336065Y-93258419D01*
X130293737Y-106805088D02*
X130314901Y-106783917D01*
X130272573Y-93152584D02*
X130272573Y-93152584D01*
X130124410Y-106995587D02*
X130166738Y-106974423D01*
X51977071Y-93343083D02*
X51977071Y-93343083D01*
X51934736Y-106593418D02*
X51955899Y-106614590D01*
X51892400Y-93660588D02*
X51892400Y-93702915D01*
X130420736Y-106551083D02*
X130441900Y-106508755D01*
X129595235Y-107249584D02*
X129637578Y-107228421D01*
X130463079Y-106339421D02*
X130463079Y-106297085D01*
X52760236Y-107249584D02*
X52802572Y-107249584D01*
X52442739Y-92856251D02*
X52400403Y-92877415D01*
X52802572Y-92750416D02*
X52802572Y-92750416D01*
X52675573Y-92771588D02*
X52675573Y-92771588D01*
X52082906Y-106847416D02*
X52082906Y-106847416D01*
X130230245Y-106910923D02*
X130230245Y-106910923D01*
X129891576Y-92835087D02*
X129891576Y-92835087D01*
X52019407Y-93258419D02*
X52019407Y-93258419D01*
X52167569Y-106932087D02*
X52167569Y-106932087D01*
X130166738Y-93025585D02*
X130166738Y-93025585D01*
X52294568Y-107059086D02*
X52315740Y-107080250D01*
X130399572Y-93385418D02*
X130378408Y-93343083D01*
X52442739Y-92856251D02*
X52442739Y-92856251D01*
X130336065Y-93258419D02*
X130336065Y-93258419D01*
X130060903Y-107059086D02*
X130060903Y-107059086D01*
X52844907Y-92750416D02*
X52802572Y-92750416D01*
X52040570Y-93237255D02*
X52019407Y-93258419D01*
X130420736Y-93427754D02*
X130399572Y-93385418D01*
X129806905Y-92813916D02*
X129806905Y-92813916D01*
X52336904Y-92919751D02*
X52294568Y-92940922D01*
X51892400Y-93745251D02*
X51892400Y-106254750D01*
X52125234Y-106910923D02*
X52125234Y-106910923D01*
X52633237Y-92792752D02*
X52633237Y-92792752D01*
X129510564Y-107249584D02*
X129552907Y-107249584D01*
X129806905Y-107186085D02*
X129806905Y-107186085D01*
X129891576Y-92835087D02*
X129849233Y-92835087D01*
X130060903Y-92940922D02*
X130039739Y-92919751D01*
X51955899Y-93385418D02*
X51955899Y-93385418D01*
X52188733Y-106974423D02*
X52188733Y-106974423D01*
X129468236Y-107249584D02*
X129510564Y-107249584D01*
X129997411Y-107101422D02*
X130039739Y-107080250D01*
X129764577Y-107207257D02*
X129764577Y-107207257D01*
X130399572Y-93385418D02*
X130399572Y-93385418D01*
X51913572Y-106508755D02*
X51934736Y-106551083D01*
X51892400Y-93618252D02*
X51892400Y-93618252D01*
X51913572Y-106466420D02*
X51913572Y-106466420D01*
X130314901Y-106783917D02*
X130336065Y-106741589D01*
X52548574Y-107186085D02*
X52548574Y-107186085D01*
X52400403Y-92877415D02*
X52400403Y-92877415D01*
X52040570Y-106783917D02*
X52040570Y-106783917D01*
X52040570Y-93237255D02*
X52040570Y-93237255D01*
X130399572Y-106635754D02*
X130399572Y-106635754D01*
X52188733Y-93025585D02*
X52167569Y-93067921D01*
X130441900Y-106508755D02*
X130441900Y-106508755D01*
X129849233Y-107186085D02*
X129849233Y-107186085D01*
X130039739Y-92919751D02*
X129997411Y-92898587D01*
X130103231Y-107037922D02*
X130103231Y-107037922D01*
X130378408Y-106656918D02*
X130378408Y-106656918D01*
X51913572Y-93533589D02*
X51913572Y-93533589D01*
X51892400Y-93618252D02*
X51892400Y-93660588D01*
X51934736Y-93427754D02*
X51934736Y-93448918D01*
X51892400Y-106297085D02*
X51892400Y-106339421D01*
X52760236Y-92771588D02*
X52760236Y-92771588D01*
X129468236Y-92750416D02*
X52887235Y-92750416D01*
X130187902Y-93067921D02*
X130187902Y-93067921D01*
X51892400Y-93575917D02*
X51892400Y-93575917D01*
X52717901Y-92771588D02*
X52675573Y-92771588D01*
X129764577Y-107207257D02*
X129806905Y-107186085D01*
X129764577Y-92792752D02*
X129722234Y-92792752D01*
X130124410Y-93004422D02*
X130124410Y-93004422D01*
X130251409Y-93131420D02*
X130230245Y-93089085D01*
X130378408Y-106656918D02*
X130399572Y-106635754D01*
X130272573Y-106847416D02*
X130272573Y-106847416D01*
X130272573Y-93152584D02*
X130251409Y-93131420D01*
X129933904Y-92856251D02*
X129933904Y-92856251D01*
X130166738Y-93025585D02*
X130124410Y-93004422D01*
X130463079Y-106297085D02*
X130463079Y-106297085D01*
X130357244Y-93300755D02*
X130357244Y-93300755D01*
X130187902Y-106953251D02*
X130230245Y-106910923D01*
X52082906Y-93152584D02*
X52082906Y-93152584D01*
X51892400Y-106254750D02*
X51892400Y-106297085D01*
X129849233Y-92835087D02*
X129806905Y-92813916D01*
X130441900Y-106508755D02*
X130441900Y-106466420D01*
X130463079Y-93618252D02*
X130463079Y-93618252D01*
X129552907Y-92750416D02*
X129510564Y-92750416D01*
X129679906Y-107228421D02*
X129722234Y-107228421D01*
X51892400Y-93660588D02*
X51892400Y-93660588D01*
X52463903Y-107164921D02*
X52463903Y-107164921D01*
X130060903Y-92940922D02*
X130060903Y-92940922D01*
X51892400Y-93575917D02*
X51892400Y-93618252D01*
X129849233Y-107186085D02*
X129891576Y-107164921D01*
X52506238Y-92835087D02*
X52463903Y-92835087D01*
X52463903Y-107164921D02*
X52506238Y-107186085D01*
X130463079Y-93660588D02*
X130463079Y-93660588D01*
X130230245Y-106910923D02*
X130251409Y-106889752D01*
X52104070Y-106868588D02*
X52104070Y-106868588D01*
X129806905Y-107186085D02*
X129849233Y-107186085D01*
X130103231Y-92983250D02*
X130103231Y-92983250D01*
X130463079Y-106424084D02*
X130463079Y-106424084D01*
X52400403Y-92877415D02*
X52358068Y-92898587D01*
X52019407Y-106741589D02*
X52019407Y-106741589D01*
X52717901Y-107228421D02*
X52717901Y-107228421D01*
X52717901Y-92771588D02*
X52717901Y-92771588D01*
X51892400Y-93702915D02*
X51892400Y-93745251D01*
X130441900Y-106466420D02*
X130441900Y-106466420D01*
X130314901Y-106783917D02*
X130314901Y-106783917D01*
X130293737Y-93194920D02*
X130272573Y-93152584D01*
X130103231Y-107037922D02*
X130124410Y-106995587D01*
X52400403Y-107122586D02*
X52442739Y-107143750D01*
X51977071Y-106656918D02*
X51977071Y-106656918D01*
X52231069Y-93004422D02*
X52231069Y-93004422D01*
X129637578Y-107228421D02*
X129637578Y-107228421D01*
X130124410Y-93004422D02*
X130103231Y-92983250D01*
X52146405Y-93089085D02*
X52146405Y-93089085D01*
X51998235Y-93300755D02*
X51977071Y-93343083D01*
X51977071Y-106656918D02*
X51998235Y-106699253D01*
X51955899Y-106614590D02*
X51977071Y-106656918D01*
X130420736Y-106593418D02*
X130420736Y-106593418D01*
X52358068Y-107101422D02*
X52358068Y-107101422D01*
X129552907Y-92750416D02*
X129552907Y-92750416D01*
X52463903Y-92835087D02*
X52442739Y-92856251D01*
X130463079Y-106339421D02*
X130463079Y-106339421D01*
X52019407Y-93258419D02*
X51998235Y-93300755D01*
X130441900Y-93533589D02*
X130441900Y-93533589D01*
X51913572Y-93491253D02*
X51913572Y-93533589D01*
X130420736Y-106551083D02*
X130420736Y-106551083D01*
X52104070Y-106868588D02*
X52125234Y-106910923D01*
X52252233Y-107037922D02*
X52294568Y-107059086D01*
X52400403Y-107122586D02*
X52400403Y-107122586D01*
X130124410Y-106995587D02*
X130124410Y-106995587D01*
X51934736Y-93448918D02*
X51913572Y-93491253D01*
X52231069Y-106995587D02*
X52231069Y-106995587D01*
X130463079Y-93745251D02*
X130463079Y-93702915D01*
X52040570Y-106783917D02*
X52061734Y-106805088D01*
X52252233Y-107037922D02*
X52252233Y-107037922D01*
X52887235Y-92750416D02*
X52844907Y-92750416D01*
X51892400Y-106339421D02*
X51892400Y-106339421D01*
X130463079Y-93575917D02*
X130463079Y-93575917D01*
X52548574Y-92813916D02*
X52548574Y-92813916D01*
X130463079Y-93702915D02*
X130463079Y-93660588D01*
X51892400Y-93702915D02*
X51892400Y-93702915D01*
X130187902Y-93067921D02*
X130166738Y-93025585D01*
X52019407Y-106741589D02*
X52040570Y-106783917D01*
X52125234Y-106910923D02*
X52167569Y-106932087D01*
X129637578Y-107228421D02*
X129679906Y-107228421D01*
X51955899Y-93385418D02*
X51934736Y-93427754D01*
X51934736Y-93427754D02*
X51934736Y-93427754D01*
X52760236Y-107249584D02*
X52760236Y-107249584D01*
X130039739Y-107080250D02*
X130039739Y-107080250D01*
X129849233Y-92835087D02*
X129849233Y-92835087D01*
X52675573Y-92771588D02*
X52633237Y-92792752D01*
X130314901Y-93237255D02*
X130293737Y-93194920D01*
X130187902Y-106953251D02*
X130187902Y-106953251D01*
X129933904Y-92856251D02*
X129891576Y-92835087D01*
X130251409Y-106889752D02*
X130251409Y-106889752D01*
X129764577Y-92792752D02*
X129764577Y-92792752D01*
X52315740Y-107080250D02*
X52358068Y-107101422D01*
X51913572Y-106466420D02*
X51913572Y-106508755D01*
X52061734Y-106805088D02*
X52061734Y-106805088D01*
X52802572Y-92750416D02*
X52760236Y-92771588D01*
X130441900Y-93533589D02*
X130441900Y-93512417D01*
X51934736Y-93448918D02*
X51934736Y-93448918D01*
X51998235Y-106699253D02*
X51998235Y-106699253D01*
X129955068Y-92877415D02*
X129933904Y-92856251D01*
X52336904Y-92919751D02*
X52336904Y-92919751D01*
X52061734Y-106805088D02*
X52082906Y-106847416D01*
X52294568Y-92940922D02*
X52294568Y-92940922D01*
X129722234Y-92792752D02*
X129679906Y-92771588D01*
X129806905Y-92813916D02*
X129764577Y-92792752D01*
X52167569Y-106932087D02*
X52188733Y-106974423D01*
X52887235Y-107249584D02*
X129468236Y-107249584D01*
X52590902Y-92792752D02*
X52548574Y-92813916D01*
X130039739Y-107080250D02*
X130060903Y-107059086D01*
X52633237Y-107228421D02*
X52633237Y-107228421D01*
X51934736Y-106593418D02*
X51934736Y-106593418D01*
X129891576Y-107164921D02*
X129912740Y-107143750D01*
X130463079Y-93618252D02*
X130463079Y-93575917D01*
X51934736Y-106551083D02*
X51934736Y-106593418D01*
X52082906Y-93152584D02*
X52061734Y-93194920D01*
X129679906Y-107228421D02*
X129679906Y-107228421D01*
X130293737Y-106805088D02*
X130293737Y-106805088D01*
X52506238Y-107186085D02*
X52506238Y-107186085D01*
X52358068Y-107101422D02*
X52400403Y-107122586D01*
X52061734Y-93194920D02*
X52040570Y-93237255D01*
X52231069Y-106995587D02*
X52252233Y-107037922D01*
X130420736Y-93427754D02*
X130420736Y-93427754D01*
X129679906Y-92771588D02*
X129637578Y-92771588D01*
X129955068Y-92877415D02*
X129955068Y-92877415D01*
X52082906Y-106847416D02*
X52104070Y-106868588D01*
X52252233Y-92983250D02*
X52252233Y-92983250D01*
X130463079Y-106381756D02*
X130463079Y-106339421D01*
X130463079Y-106381756D02*
X130463079Y-106381756D01*
X52506238Y-92835087D02*
X52506238Y-92835087D01*
X130060903Y-107059086D02*
X130103231Y-107037922D01*
X52146405Y-93089085D02*
X52104070Y-93131420D01*
X51892400Y-106339421D02*
X51892400Y-106381756D01*
X129595235Y-92771588D02*
X129552907Y-92750416D01*
X130293737Y-93194920D02*
X130293737Y-93194920D01*
X130463079Y-106254750D02*
X130463079Y-93745251D01*
X51998235Y-93300755D02*
X51998235Y-93300755D01*
X130251409Y-93131420D02*
X130251409Y-93131420D01*
X52188733Y-93025585D02*
X52188733Y-93025585D01*
X129722234Y-107228421D02*
X129764577Y-107207257D01*
X51892400Y-106297085D02*
X51892400Y-106297085D01*
X130166738Y-106974423D02*
X130166738Y-106974423D01*
X52358068Y-92898587D02*
X52336904Y-92919751D01*
X130336065Y-93258419D02*
X130314901Y-93237255D01*
X52844907Y-107249584D02*
X52887235Y-107249584D01*
X129722234Y-92792752D02*
X129722234Y-92792752D01*
X52104070Y-93131420D02*
X52082906Y-93152584D01*
X130420736Y-93470082D02*
X130420736Y-93470082D01*
X130420736Y-93470082D02*
X130420736Y-93427754D01*
X130039739Y-92919751D02*
X130039739Y-92919751D01*
X52802572Y-107249584D02*
X52802572Y-107249584D01*
X52717901Y-107228421D02*
X52760236Y-107249584D01*
X51955899Y-106614590D02*
X51955899Y-106614590D01*
X129679906Y-92771588D02*
X129679906Y-92771588D01*
X52252233Y-92983250D02*
X52231069Y-93004422D01*
X51892400Y-106381756D02*
X51892400Y-106424084D01*
X51913572Y-93533589D02*
X51892400Y-93575917D01*
X52548574Y-107186085D02*
X52590902Y-107207257D01*
X129552907Y-107249584D02*
X129552907Y-107249584D01*
X130336065Y-106741589D02*
X130357244Y-106699253D01*
X130314901Y-93237255D02*
X130314901Y-93237255D01*
X130441900Y-93512417D02*
X130441900Y-93512417D01*
X52590902Y-107207257D02*
X52590902Y-107207257D01*
X52844907Y-107249584D02*
X52844907Y-107249584D01*
X129510564Y-92750416D02*
X129468236Y-92750416D01*
X130251409Y-106889752D02*
X130272573Y-106847416D01*
X52315740Y-107080250D02*
X52315740Y-107080250D01*
X52188733Y-106974423D02*
X52231069Y-106995587D01*
X130103231Y-92983250D02*
X130060903Y-92940922D01*
X129595235Y-92771588D02*
X129595235Y-92771588D01*
X129552907Y-107249584D02*
X129595235Y-107249584D01*
X129955068Y-107122586D02*
X129997411Y-107101422D01*
X52675573Y-107228421D02*
X52675573Y-107228421D01*
X130336065Y-106741589D02*
X130336065Y-106741589D01*
X52590902Y-92792752D02*
X52590902Y-92792752D01*
X130230245Y-93089085D02*
X130230245Y-93089085D01*
X51913572Y-93491253D02*
X51913572Y-93491253D01*
X52802572Y-107249584D02*
X52844907Y-107249584D01*
X52104070Y-93131420D02*
X52104070Y-93131420D01*
X130357244Y-106699253D02*
X130378408Y-106656918D01*
X52590902Y-107207257D02*
X52633237Y-107228421D01*
X130463079Y-106424084D02*
X130463079Y-106381756D01*
X129595235Y-107249584D02*
X129595235Y-107249584D01*
X130463079Y-106297085D02*
X130463079Y-106254750D01*
X52294568Y-107059086D02*
X52294568Y-107059086D01*
X51913572Y-106508755D02*
X51913572Y-106508755D01*
X52760236Y-92771588D02*
X52717901Y-92771588D01*
X129637578Y-92771588D02*
X129637578Y-92771588D01*
X52294568Y-92940922D02*
X52252233Y-92983250D01*
X130441900Y-106466420D02*
X130463079Y-106424084D01*
X129997411Y-92898587D02*
X129997411Y-92898587D01*
X51998235Y-106699253D02*
X52019407Y-106741589D01*
X51934736Y-106551083D02*
X51934736Y-106551083D01*
X130463079Y-93575917D02*
X130441900Y-93533589D01*
X52231069Y-93004422D02*
X52188733Y-93025585D01*
X129997411Y-107101422D02*
X129997411Y-107101422D01*
X51892400Y-106424084D02*
X51892400Y-106424084D01*
X130378408Y-93343083D02*
X130378408Y-93343083D01*
X52844907Y-92750416D02*
X52844907Y-92750416D01*
X52548574Y-92813916D02*
X52506238Y-92835087D01*
X130378408Y-93343083D02*
X130357244Y-93300755D01*
X52442739Y-107143750D02*
X52442739Y-107143750D01*
X52506238Y-107186085D02*
X52548574Y-107186085D01*
X130272573Y-106847416D02*
X130293737Y-106805088D01*
X130357244Y-106699253D02*
X130357244Y-106699253D01*
X51892400Y-106381756D02*
X51892400Y-106381756D01*
X129912740Y-107143750D02*
X129912740Y-107143750D01*
X130463079Y-93702915D02*
X130463079Y-93702915D01*
X52463903Y-92835087D02*
X52463903Y-92835087D01*
X129955068Y-107122586D02*
X129955068Y-107122586D01*
X129912740Y-107143750D02*
X129955068Y-107122586D01*
X52633237Y-92792752D02*
X52590902Y-92792752D01*
X52167569Y-93067921D02*
X52146405Y-93089085D01*
X52442739Y-107143750D02*
X52463903Y-107164921D01*
X130230245Y-93089085D02*
X130187902Y-93067921D01*
X51892400Y-106424084D02*
X51913572Y-106466420D01*
X52167569Y-93067921D02*
X52167569Y-93067921D01*
X130441900Y-93512417D02*
X130420736Y-93470082D01*
X130463079Y-93660588D02*
X130463079Y-93618252D01*
X129510564Y-107249584D02*
X129510564Y-107249584D01*
X51977071Y-93343083D02*
X51955899Y-93385418D01*
X129510564Y-92750416D02*
X129510564Y-92750416D01*
X129637578Y-92771588D02*
X129595235Y-92771588D01*
X129997411Y-92898587D02*
X129955068Y-92877415D01*
X52061734Y-93194920D02*
X52061734Y-93194920D01*
X130399572Y-106635754D02*
X130420736Y-106593418D01*
M02*
