%TF.GenerationSoftware,KiCad,Pcbnew,6.0.11-2627ca5db0~126~ubuntu22.04.1*%
%TF.CreationDate,2025-05-27T11:14:05+02:00*%
%TF.ProjectId,qPocketPCR_Lid,71506f63-6b65-4745-9043-525f4c69642e,rev?*%
%TF.SameCoordinates,Original*%
%TF.FileFunction,Legend,Top*%
%TF.FilePolarity,Positive*%
%FSLAX46Y46*%
G04 Gerber Fmt 4.6, Leading zero omitted, Abs format (unit mm)*
G04 Created by KiCad (PCBNEW 6.0.11-2627ca5db0~126~ubuntu22.04.1) date 2025-05-27 11:14:05*
%MOMM*%
%LPD*%
G01*
G04 APERTURE LIST*
%ADD10C,0.300000*%
%ADD11C,0.010000*%
G04 APERTURE END LIST*
D10*
X73984285Y-100535714D02*
X73912857Y-100607142D01*
X73698571Y-100678571D01*
X73555714Y-100678571D01*
X73341428Y-100607142D01*
X73198571Y-100464285D01*
X73127142Y-100321428D01*
X73055714Y-100035714D01*
X73055714Y-99821428D01*
X73127142Y-99535714D01*
X73198571Y-99392857D01*
X73341428Y-99250000D01*
X73555714Y-99178571D01*
X73698571Y-99178571D01*
X73912857Y-99250000D01*
X73984285Y-99321428D01*
X75270000Y-100678571D02*
X75270000Y-99892857D01*
X75198571Y-99750000D01*
X75055714Y-99678571D01*
X74770000Y-99678571D01*
X74627142Y-99750000D01*
X75270000Y-100607142D02*
X75127142Y-100678571D01*
X74770000Y-100678571D01*
X74627142Y-100607142D01*
X74555714Y-100464285D01*
X74555714Y-100321428D01*
X74627142Y-100178571D01*
X74770000Y-100107142D01*
X75127142Y-100107142D01*
X75270000Y-100035714D01*
X76627142Y-99678571D02*
X76627142Y-100678571D01*
X75984285Y-99678571D02*
X75984285Y-100464285D01*
X76055714Y-100607142D01*
X76198571Y-100678571D01*
X76412857Y-100678571D01*
X76555714Y-100607142D01*
X76627142Y-100535714D01*
X77127142Y-99678571D02*
X77698571Y-99678571D01*
X77341428Y-99178571D02*
X77341428Y-100464285D01*
X77412857Y-100607142D01*
X77555714Y-100678571D01*
X77698571Y-100678571D01*
X78198571Y-100678571D02*
X78198571Y-99678571D01*
X78198571Y-99178571D02*
X78127142Y-99250000D01*
X78198571Y-99321428D01*
X78270000Y-99250000D01*
X78198571Y-99178571D01*
X78198571Y-99321428D01*
X79127142Y-100678571D02*
X78984285Y-100607142D01*
X78912857Y-100535714D01*
X78841428Y-100392857D01*
X78841428Y-99964285D01*
X78912857Y-99821428D01*
X78984285Y-99750000D01*
X79127142Y-99678571D01*
X79341428Y-99678571D01*
X79484285Y-99750000D01*
X79555714Y-99821428D01*
X79627142Y-99964285D01*
X79627142Y-100392857D01*
X79555714Y-100535714D01*
X79484285Y-100607142D01*
X79341428Y-100678571D01*
X79127142Y-100678571D01*
X80270000Y-99678571D02*
X80270000Y-100678571D01*
X80270000Y-99821428D02*
X80341428Y-99750000D01*
X80484285Y-99678571D01*
X80698571Y-99678571D01*
X80841428Y-99750000D01*
X80912857Y-99892857D01*
X80912857Y-100678571D01*
X82770000Y-100107142D02*
X83912857Y-100107142D01*
X85770000Y-100678571D02*
X85770000Y-99178571D01*
X85770000Y-99892857D02*
X86627142Y-99892857D01*
X86627142Y-100678571D02*
X86627142Y-99178571D01*
X87627142Y-99178571D02*
X87912857Y-99178571D01*
X88055714Y-99250000D01*
X88198571Y-99392857D01*
X88270000Y-99678571D01*
X88270000Y-100178571D01*
X88198571Y-100464285D01*
X88055714Y-100607142D01*
X87912857Y-100678571D01*
X87627142Y-100678571D01*
X87484285Y-100607142D01*
X87341428Y-100464285D01*
X87270000Y-100178571D01*
X87270000Y-99678571D01*
X87341428Y-99392857D01*
X87484285Y-99250000D01*
X87627142Y-99178571D01*
X88698571Y-99178571D02*
X89555714Y-99178571D01*
X89127142Y-100678571D02*
X89127142Y-99178571D01*
X91127142Y-100607142D02*
X91341428Y-100678571D01*
X91698571Y-100678571D01*
X91841428Y-100607142D01*
X91912857Y-100535714D01*
X91984285Y-100392857D01*
X91984285Y-100250000D01*
X91912857Y-100107142D01*
X91841428Y-100035714D01*
X91698571Y-99964285D01*
X91412857Y-99892857D01*
X91270000Y-99821428D01*
X91198571Y-99750000D01*
X91127142Y-99607142D01*
X91127142Y-99464285D01*
X91198571Y-99321428D01*
X91270000Y-99250000D01*
X91412857Y-99178571D01*
X91770000Y-99178571D01*
X91984285Y-99250000D01*
X92627142Y-99178571D02*
X92627142Y-100392857D01*
X92698571Y-100535714D01*
X92770000Y-100607142D01*
X92912857Y-100678571D01*
X93198571Y-100678571D01*
X93341428Y-100607142D01*
X93412857Y-100535714D01*
X93484285Y-100392857D01*
X93484285Y-99178571D01*
X95055714Y-100678571D02*
X94555714Y-99964285D01*
X94198571Y-100678571D02*
X94198571Y-99178571D01*
X94770000Y-99178571D01*
X94912857Y-99250000D01*
X94984285Y-99321428D01*
X95055714Y-99464285D01*
X95055714Y-99678571D01*
X94984285Y-99821428D01*
X94912857Y-99892857D01*
X94770000Y-99964285D01*
X94198571Y-99964285D01*
X96198571Y-99892857D02*
X95698571Y-99892857D01*
X95698571Y-100678571D02*
X95698571Y-99178571D01*
X96412857Y-99178571D01*
X96912857Y-100250000D02*
X97627142Y-100250000D01*
X96770000Y-100678571D02*
X97270000Y-99178571D01*
X97770000Y-100678571D01*
X99127142Y-100535714D02*
X99055714Y-100607142D01*
X98841428Y-100678571D01*
X98698571Y-100678571D01*
X98484285Y-100607142D01*
X98341428Y-100464285D01*
X98270000Y-100321428D01*
X98198571Y-100035714D01*
X98198571Y-99821428D01*
X98270000Y-99535714D01*
X98341428Y-99392857D01*
X98484285Y-99250000D01*
X98698571Y-99178571D01*
X98841428Y-99178571D01*
X99055714Y-99250000D01*
X99127142Y-99321428D01*
X99770000Y-99892857D02*
X100270000Y-99892857D01*
X100484285Y-100678571D02*
X99770000Y-100678571D01*
X99770000Y-99178571D01*
X100484285Y-99178571D01*
%TO.C,X5*%
G36*
X103887638Y-101150677D02*
G01*
X104025528Y-100902300D01*
X104176280Y-100631349D01*
X104337534Y-100342034D01*
X104506932Y-100038563D01*
X104682115Y-99725145D01*
X104860723Y-99405990D01*
X105040398Y-99085306D01*
X105218780Y-98767301D01*
X105393511Y-98456185D01*
X105562232Y-98156168D01*
X105722583Y-97871456D01*
X105872206Y-97606260D01*
X106008742Y-97364789D01*
X106129831Y-97151250D01*
X106233115Y-96969854D01*
X106316234Y-96824808D01*
X106376830Y-96720323D01*
X106412544Y-96660606D01*
X106421040Y-96648023D01*
X106468027Y-96610429D01*
X106510901Y-96616237D01*
X106540480Y-96634198D01*
X106564208Y-96665504D01*
X106612546Y-96741366D01*
X106681507Y-96854814D01*
X106767106Y-96998875D01*
X106865356Y-97166576D01*
X106972271Y-97350945D01*
X107083864Y-97545010D01*
X107196151Y-97741798D01*
X107305143Y-97934336D01*
X107406856Y-98115653D01*
X107497303Y-98278777D01*
X107572497Y-98416733D01*
X107628453Y-98522551D01*
X107661184Y-98589258D01*
X107667540Y-98605569D01*
X107654805Y-98639129D01*
X107614505Y-98712142D01*
X107552540Y-98815552D01*
X107474812Y-98940304D01*
X107387220Y-99077343D01*
X107295664Y-99217612D01*
X107206046Y-99352056D01*
X107124266Y-99471619D01*
X107056225Y-99567246D01*
X107007822Y-99629881D01*
X106986803Y-99650319D01*
X106946610Y-99659468D01*
X106855730Y-99676572D01*
X106721677Y-99700332D01*
X106551966Y-99729449D01*
X106354110Y-99762623D01*
X106135625Y-99798554D01*
X106039018Y-99814236D01*
X105811296Y-99851086D01*
X105598505Y-99885575D01*
X105408676Y-99916398D01*
X105249841Y-99942248D01*
X105130031Y-99961820D01*
X105057276Y-99973807D01*
X105043515Y-99976123D01*
X104969738Y-100003690D01*
X104944362Y-100046451D01*
X104961871Y-100095802D01*
X105016752Y-100143137D01*
X105103491Y-100179852D01*
X105183777Y-100195006D01*
X105337793Y-100210858D01*
X105083838Y-100357322D01*
X104976599Y-100421130D01*
X104891755Y-100475344D01*
X104840269Y-100512740D01*
X104829884Y-100524615D01*
X104852113Y-100557976D01*
X104904508Y-100603623D01*
X104965629Y-100645376D01*
X105014038Y-100667060D01*
X105019358Y-100667587D01*
X105055210Y-100652900D01*
X105131585Y-100612397D01*
X105238976Y-100551412D01*
X105367881Y-100475281D01*
X105443303Y-100429619D01*
X105594019Y-100340177D01*
X105715403Y-100273004D01*
X105804211Y-100228880D01*
X105857202Y-100208583D01*
X105871133Y-100212895D01*
X105842763Y-100242593D01*
X105768848Y-100298457D01*
X105647152Y-100380613D01*
X105501888Y-100481769D01*
X105389617Y-100578186D01*
X105289531Y-100689176D01*
X105226558Y-100770952D01*
X105138587Y-100897937D01*
X105091533Y-100987828D01*
X105084519Y-101045079D01*
X105116666Y-101074140D01*
X105165562Y-101080116D01*
X105251200Y-101054647D01*
X105348390Y-100984522D01*
X105445261Y-100879160D01*
X105480779Y-100829975D01*
X105536790Y-100766886D01*
X105628096Y-100695204D01*
X105761687Y-100609919D01*
X105893956Y-100533949D01*
X106025618Y-100462900D01*
X106142665Y-100403902D01*
X106233635Y-100362439D01*
X106287067Y-100343997D01*
X106291752Y-100343546D01*
X106345791Y-100349022D01*
X106437592Y-100363469D01*
X106552808Y-100384066D01*
X106677092Y-100407990D01*
X106796096Y-100432418D01*
X106895474Y-100454529D01*
X106960877Y-100471499D01*
X106978634Y-100478672D01*
X106972471Y-100509597D01*
X106943612Y-100580917D01*
X106897072Y-100681013D01*
X106854927Y-100765354D01*
X106796296Y-100885454D01*
X106749856Y-100991754D01*
X106721566Y-101069961D01*
X106715731Y-101099266D01*
X106733343Y-101169652D01*
X106776038Y-101234437D01*
X106828607Y-101275673D01*
X106868342Y-101279352D01*
X106893690Y-101251379D01*
X106946576Y-101179141D01*
X107023208Y-101068289D01*
X107119793Y-100924471D01*
X107232538Y-100753338D01*
X107357649Y-100560539D01*
X107491333Y-100351723D01*
X107494993Y-100345968D01*
X107627957Y-100137314D01*
X107751271Y-99944716D01*
X107861313Y-99773761D01*
X107954463Y-99630034D01*
X108027100Y-99519123D01*
X108075603Y-99446612D01*
X108096351Y-99418088D01*
X108096551Y-99417942D01*
X108114038Y-99440665D01*
X108157100Y-99510227D01*
X108222970Y-99621795D01*
X108308883Y-99770537D01*
X108412072Y-99951620D01*
X108529771Y-100160213D01*
X108659212Y-100391483D01*
X108797631Y-100640598D01*
X108829942Y-100698998D01*
X109000958Y-101009098D01*
X109144745Y-101271941D01*
X109263115Y-101491553D01*
X109357881Y-101671958D01*
X109430855Y-101817179D01*
X109483850Y-101931241D01*
X109518679Y-102018168D01*
X109537153Y-102081985D01*
X109541086Y-102126714D01*
X109532291Y-102156382D01*
X109512578Y-102175011D01*
X109497892Y-102181952D01*
X109462409Y-102184459D01*
X109372835Y-102186736D01*
X109233985Y-102188787D01*
X109050673Y-102190611D01*
X108827713Y-102192209D01*
X108569921Y-102193584D01*
X108282112Y-102194737D01*
X107969098Y-102195668D01*
X107635697Y-102196380D01*
X107286721Y-102196872D01*
X106926986Y-102197148D01*
X106561306Y-102197208D01*
X106194496Y-102197052D01*
X105831370Y-102196684D01*
X105476744Y-102196103D01*
X105135431Y-102195312D01*
X104812247Y-102194311D01*
X104512006Y-102193102D01*
X104239523Y-102191686D01*
X103999612Y-102190064D01*
X103797088Y-102188238D01*
X103636765Y-102186209D01*
X103523459Y-102183978D01*
X103461984Y-102181547D01*
X103452332Y-102180322D01*
X103421123Y-102138761D01*
X103420575Y-102060712D01*
X103431240Y-102023551D01*
X104682552Y-102023551D01*
X106266369Y-102015929D01*
X107850186Y-102008306D01*
X107859092Y-101853608D01*
X107867999Y-101698909D01*
X104682552Y-101698909D01*
X104682552Y-102023551D01*
X103431240Y-102023551D01*
X103449658Y-101959373D01*
X103473677Y-101906653D01*
X103511874Y-101834276D01*
X103574728Y-101718280D01*
X103585342Y-101698909D01*
X103659879Y-101562876D01*
X103674699Y-101535995D01*
X105097749Y-101535995D01*
X105106516Y-101571350D01*
X105138988Y-101580848D01*
X105150248Y-101581044D01*
X105198013Y-101566430D01*
X105212817Y-101512727D01*
X105212947Y-101503489D01*
X105218495Y-101476099D01*
X105388996Y-101476099D01*
X105398771Y-101544363D01*
X105434958Y-101579312D01*
X105448678Y-101581044D01*
X105493116Y-101565787D01*
X105506657Y-101513608D01*
X105654942Y-101513608D01*
X105671494Y-101568091D01*
X105713875Y-101581044D01*
X105760289Y-101563541D01*
X105761982Y-101556064D01*
X105955120Y-101556064D01*
X105982250Y-101578540D01*
X106008538Y-101581044D01*
X106054976Y-101563514D01*
X106058417Y-101548326D01*
X106249333Y-101548326D01*
X106255506Y-101574017D01*
X106279018Y-101580791D01*
X106296769Y-101581044D01*
X106339769Y-101557959D01*
X106351782Y-101534140D01*
X106544348Y-101534140D01*
X106551954Y-101570567D01*
X106582394Y-101580758D01*
X106595275Y-101581044D01*
X106633781Y-101573006D01*
X106641546Y-101558282D01*
X107104248Y-101558282D01*
X107126922Y-101579229D01*
X107152486Y-101581044D01*
X107193654Y-101569117D01*
X107218256Y-101523787D01*
X107230909Y-101460358D01*
X107363991Y-101460358D01*
X107368643Y-101538516D01*
X107387677Y-101573575D01*
X107423485Y-101581044D01*
X107465539Y-101570221D01*
X107468990Y-101526955D01*
X107465193Y-101510178D01*
X107470894Y-101421130D01*
X107514645Y-101322484D01*
X107555449Y-101241996D01*
X107566266Y-101179255D01*
X107551371Y-101104059D01*
X107547458Y-101090754D01*
X107503350Y-100972971D01*
X107457175Y-100902037D01*
X107412605Y-100882535D01*
X107390525Y-100894974D01*
X107372337Y-100930399D01*
X107381908Y-100986055D01*
X107408563Y-101051475D01*
X107440639Y-101129521D01*
X107446981Y-101180520D01*
X107428206Y-101230139D01*
X107413479Y-101255897D01*
X107380682Y-101341916D01*
X107364387Y-101444435D01*
X107363991Y-101460358D01*
X107230909Y-101460358D01*
X107231816Y-101455812D01*
X107242343Y-101341724D01*
X107241116Y-101234765D01*
X107229462Y-101150672D01*
X107208711Y-101105178D01*
X107201926Y-101101600D01*
X107182689Y-101124273D01*
X107163776Y-101189870D01*
X107152903Y-101256914D01*
X107137871Y-101364905D01*
X107121127Y-101461346D01*
X107112635Y-101500011D01*
X107104248Y-101558282D01*
X106641546Y-101558282D01*
X106651878Y-101538693D01*
X106656759Y-101462808D01*
X106656798Y-101450184D01*
X106651128Y-101367240D01*
X106636846Y-101311966D01*
X106629368Y-101302372D01*
X106602797Y-101296886D01*
X106582777Y-101325742D01*
X106564571Y-101398643D01*
X106554475Y-101455812D01*
X106544348Y-101534140D01*
X106351782Y-101534140D01*
X106376854Y-101484434D01*
X106388400Y-101448515D01*
X106410192Y-101331437D01*
X106410867Y-101219319D01*
X106408911Y-101205417D01*
X106394185Y-101104458D01*
X106383915Y-101010719D01*
X106383579Y-101006450D01*
X106364907Y-100937825D01*
X106332668Y-100918051D01*
X106301707Y-100943740D01*
X106282094Y-101006985D01*
X106276484Y-101087055D01*
X106287529Y-101163219D01*
X106297935Y-101189367D01*
X106308641Y-101264380D01*
X106287579Y-101384322D01*
X106286207Y-101389513D01*
X106259799Y-101491048D01*
X106249333Y-101548326D01*
X106058417Y-101548326D01*
X106067471Y-101508378D01*
X106080249Y-101432013D01*
X106111349Y-101343882D01*
X106114721Y-101336626D01*
X106142910Y-101255082D01*
X106147101Y-101164239D01*
X106136821Y-101079536D01*
X106118073Y-100993380D01*
X106096310Y-100938143D01*
X106082204Y-100926553D01*
X106064334Y-100956104D01*
X106046917Y-101028194D01*
X106034946Y-101116344D01*
X106019651Y-101234444D01*
X105998868Y-101345203D01*
X105983380Y-101404051D01*
X105955999Y-101501438D01*
X105955120Y-101556064D01*
X105761982Y-101556064D01*
X105772808Y-101508274D01*
X105787194Y-101435147D01*
X105822704Y-101347528D01*
X105831740Y-101330580D01*
X105883558Y-101194537D01*
X105880555Y-101071245D01*
X105859728Y-101018421D01*
X105823736Y-100977161D01*
X105794040Y-100989556D01*
X105775925Y-101050335D01*
X105772808Y-101105091D01*
X105758671Y-101204029D01*
X105723700Y-101309771D01*
X105713875Y-101330580D01*
X105676783Y-101418464D01*
X105656335Y-101496317D01*
X105654942Y-101513608D01*
X105506657Y-101513608D01*
X105507432Y-101510624D01*
X105507610Y-101499201D01*
X105522009Y-101415208D01*
X105547339Y-101359236D01*
X105588229Y-101275073D01*
X105607472Y-101185394D01*
X105602162Y-101111688D01*
X105584681Y-101082942D01*
X105539027Y-101066123D01*
X105512494Y-101102700D01*
X105507416Y-101151326D01*
X105491370Y-101217322D01*
X105452605Y-101295047D01*
X105448678Y-101301113D01*
X105405631Y-101389891D01*
X105388996Y-101476099D01*
X105218495Y-101476099D01*
X105228488Y-101426770D01*
X105266628Y-101339636D01*
X105273951Y-101327229D01*
X105312020Y-101244531D01*
X105311115Y-101188686D01*
X105272147Y-101168515D01*
X105230845Y-101194041D01*
X105183660Y-101259113D01*
X105140401Y-101346472D01*
X105110880Y-101438859D01*
X105107079Y-101458914D01*
X105097749Y-101535995D01*
X103674699Y-101535995D01*
X103764969Y-101372272D01*
X103887638Y-101150677D01*
G37*
D11*
X103887638Y-101150677D02*
X104025528Y-100902300D01*
X104176280Y-100631349D01*
X104337534Y-100342034D01*
X104506932Y-100038563D01*
X104682115Y-99725145D01*
X104860723Y-99405990D01*
X105040398Y-99085306D01*
X105218780Y-98767301D01*
X105393511Y-98456185D01*
X105562232Y-98156168D01*
X105722583Y-97871456D01*
X105872206Y-97606260D01*
X106008742Y-97364789D01*
X106129831Y-97151250D01*
X106233115Y-96969854D01*
X106316234Y-96824808D01*
X106376830Y-96720323D01*
X106412544Y-96660606D01*
X106421040Y-96648023D01*
X106468027Y-96610429D01*
X106510901Y-96616237D01*
X106540480Y-96634198D01*
X106564208Y-96665504D01*
X106612546Y-96741366D01*
X106681507Y-96854814D01*
X106767106Y-96998875D01*
X106865356Y-97166576D01*
X106972271Y-97350945D01*
X107083864Y-97545010D01*
X107196151Y-97741798D01*
X107305143Y-97934336D01*
X107406856Y-98115653D01*
X107497303Y-98278777D01*
X107572497Y-98416733D01*
X107628453Y-98522551D01*
X107661184Y-98589258D01*
X107667540Y-98605569D01*
X107654805Y-98639129D01*
X107614505Y-98712142D01*
X107552540Y-98815552D01*
X107474812Y-98940304D01*
X107387220Y-99077343D01*
X107295664Y-99217612D01*
X107206046Y-99352056D01*
X107124266Y-99471619D01*
X107056225Y-99567246D01*
X107007822Y-99629881D01*
X106986803Y-99650319D01*
X106946610Y-99659468D01*
X106855730Y-99676572D01*
X106721677Y-99700332D01*
X106551966Y-99729449D01*
X106354110Y-99762623D01*
X106135625Y-99798554D01*
X106039018Y-99814236D01*
X105811296Y-99851086D01*
X105598505Y-99885575D01*
X105408676Y-99916398D01*
X105249841Y-99942248D01*
X105130031Y-99961820D01*
X105057276Y-99973807D01*
X105043515Y-99976123D01*
X104969738Y-100003690D01*
X104944362Y-100046451D01*
X104961871Y-100095802D01*
X105016752Y-100143137D01*
X105103491Y-100179852D01*
X105183777Y-100195006D01*
X105337793Y-100210858D01*
X105083838Y-100357322D01*
X104976599Y-100421130D01*
X104891755Y-100475344D01*
X104840269Y-100512740D01*
X104829884Y-100524615D01*
X104852113Y-100557976D01*
X104904508Y-100603623D01*
X104965629Y-100645376D01*
X105014038Y-100667060D01*
X105019358Y-100667587D01*
X105055210Y-100652900D01*
X105131585Y-100612397D01*
X105238976Y-100551412D01*
X105367881Y-100475281D01*
X105443303Y-100429619D01*
X105594019Y-100340177D01*
X105715403Y-100273004D01*
X105804211Y-100228880D01*
X105857202Y-100208583D01*
X105871133Y-100212895D01*
X105842763Y-100242593D01*
X105768848Y-100298457D01*
X105647152Y-100380613D01*
X105501888Y-100481769D01*
X105389617Y-100578186D01*
X105289531Y-100689176D01*
X105226558Y-100770952D01*
X105138587Y-100897937D01*
X105091533Y-100987828D01*
X105084519Y-101045079D01*
X105116666Y-101074140D01*
X105165562Y-101080116D01*
X105251200Y-101054647D01*
X105348390Y-100984522D01*
X105445261Y-100879160D01*
X105480779Y-100829975D01*
X105536790Y-100766886D01*
X105628096Y-100695204D01*
X105761687Y-100609919D01*
X105893956Y-100533949D01*
X106025618Y-100462900D01*
X106142665Y-100403902D01*
X106233635Y-100362439D01*
X106287067Y-100343997D01*
X106291752Y-100343546D01*
X106345791Y-100349022D01*
X106437592Y-100363469D01*
X106552808Y-100384066D01*
X106677092Y-100407990D01*
X106796096Y-100432418D01*
X106895474Y-100454529D01*
X106960877Y-100471499D01*
X106978634Y-100478672D01*
X106972471Y-100509597D01*
X106943612Y-100580917D01*
X106897072Y-100681013D01*
X106854927Y-100765354D01*
X106796296Y-100885454D01*
X106749856Y-100991754D01*
X106721566Y-101069961D01*
X106715731Y-101099266D01*
X106733343Y-101169652D01*
X106776038Y-101234437D01*
X106828607Y-101275673D01*
X106868342Y-101279352D01*
X106893690Y-101251379D01*
X106946576Y-101179141D01*
X107023208Y-101068289D01*
X107119793Y-100924471D01*
X107232538Y-100753338D01*
X107357649Y-100560539D01*
X107491333Y-100351723D01*
X107494993Y-100345968D01*
X107627957Y-100137314D01*
X107751271Y-99944716D01*
X107861313Y-99773761D01*
X107954463Y-99630034D01*
X108027100Y-99519123D01*
X108075603Y-99446612D01*
X108096351Y-99418088D01*
X108096551Y-99417942D01*
X108114038Y-99440665D01*
X108157100Y-99510227D01*
X108222970Y-99621795D01*
X108308883Y-99770537D01*
X108412072Y-99951620D01*
X108529771Y-100160213D01*
X108659212Y-100391483D01*
X108797631Y-100640598D01*
X108829942Y-100698998D01*
X109000958Y-101009098D01*
X109144745Y-101271941D01*
X109263115Y-101491553D01*
X109357881Y-101671958D01*
X109430855Y-101817179D01*
X109483850Y-101931241D01*
X109518679Y-102018168D01*
X109537153Y-102081985D01*
X109541086Y-102126714D01*
X109532291Y-102156382D01*
X109512578Y-102175011D01*
X109497892Y-102181952D01*
X109462409Y-102184459D01*
X109372835Y-102186736D01*
X109233985Y-102188787D01*
X109050673Y-102190611D01*
X108827713Y-102192209D01*
X108569921Y-102193584D01*
X108282112Y-102194737D01*
X107969098Y-102195668D01*
X107635697Y-102196380D01*
X107286721Y-102196872D01*
X106926986Y-102197148D01*
X106561306Y-102197208D01*
X106194496Y-102197052D01*
X105831370Y-102196684D01*
X105476744Y-102196103D01*
X105135431Y-102195312D01*
X104812247Y-102194311D01*
X104512006Y-102193102D01*
X104239523Y-102191686D01*
X103999612Y-102190064D01*
X103797088Y-102188238D01*
X103636765Y-102186209D01*
X103523459Y-102183978D01*
X103461984Y-102181547D01*
X103452332Y-102180322D01*
X103421123Y-102138761D01*
X103420575Y-102060712D01*
X103431240Y-102023551D01*
X104682552Y-102023551D01*
X106266369Y-102015929D01*
X107850186Y-102008306D01*
X107859092Y-101853608D01*
X107867999Y-101698909D01*
X104682552Y-101698909D01*
X104682552Y-102023551D01*
X103431240Y-102023551D01*
X103449658Y-101959373D01*
X103473677Y-101906653D01*
X103511874Y-101834276D01*
X103574728Y-101718280D01*
X103585342Y-101698909D01*
X103659879Y-101562876D01*
X103674699Y-101535995D01*
X105097749Y-101535995D01*
X105106516Y-101571350D01*
X105138988Y-101580848D01*
X105150248Y-101581044D01*
X105198013Y-101566430D01*
X105212817Y-101512727D01*
X105212947Y-101503489D01*
X105218495Y-101476099D01*
X105388996Y-101476099D01*
X105398771Y-101544363D01*
X105434958Y-101579312D01*
X105448678Y-101581044D01*
X105493116Y-101565787D01*
X105506657Y-101513608D01*
X105654942Y-101513608D01*
X105671494Y-101568091D01*
X105713875Y-101581044D01*
X105760289Y-101563541D01*
X105761982Y-101556064D01*
X105955120Y-101556064D01*
X105982250Y-101578540D01*
X106008538Y-101581044D01*
X106054976Y-101563514D01*
X106058417Y-101548326D01*
X106249333Y-101548326D01*
X106255506Y-101574017D01*
X106279018Y-101580791D01*
X106296769Y-101581044D01*
X106339769Y-101557959D01*
X106351782Y-101534140D01*
X106544348Y-101534140D01*
X106551954Y-101570567D01*
X106582394Y-101580758D01*
X106595275Y-101581044D01*
X106633781Y-101573006D01*
X106641546Y-101558282D01*
X107104248Y-101558282D01*
X107126922Y-101579229D01*
X107152486Y-101581044D01*
X107193654Y-101569117D01*
X107218256Y-101523787D01*
X107230909Y-101460358D01*
X107363991Y-101460358D01*
X107368643Y-101538516D01*
X107387677Y-101573575D01*
X107423485Y-101581044D01*
X107465539Y-101570221D01*
X107468990Y-101526955D01*
X107465193Y-101510178D01*
X107470894Y-101421130D01*
X107514645Y-101322484D01*
X107555449Y-101241996D01*
X107566266Y-101179255D01*
X107551371Y-101104059D01*
X107547458Y-101090754D01*
X107503350Y-100972971D01*
X107457175Y-100902037D01*
X107412605Y-100882535D01*
X107390525Y-100894974D01*
X107372337Y-100930399D01*
X107381908Y-100986055D01*
X107408563Y-101051475D01*
X107440639Y-101129521D01*
X107446981Y-101180520D01*
X107428206Y-101230139D01*
X107413479Y-101255897D01*
X107380682Y-101341916D01*
X107364387Y-101444435D01*
X107363991Y-101460358D01*
X107230909Y-101460358D01*
X107231816Y-101455812D01*
X107242343Y-101341724D01*
X107241116Y-101234765D01*
X107229462Y-101150672D01*
X107208711Y-101105178D01*
X107201926Y-101101600D01*
X107182689Y-101124273D01*
X107163776Y-101189870D01*
X107152903Y-101256914D01*
X107137871Y-101364905D01*
X107121127Y-101461346D01*
X107112635Y-101500011D01*
X107104248Y-101558282D01*
X106641546Y-101558282D01*
X106651878Y-101538693D01*
X106656759Y-101462808D01*
X106656798Y-101450184D01*
X106651128Y-101367240D01*
X106636846Y-101311966D01*
X106629368Y-101302372D01*
X106602797Y-101296886D01*
X106582777Y-101325742D01*
X106564571Y-101398643D01*
X106554475Y-101455812D01*
X106544348Y-101534140D01*
X106351782Y-101534140D01*
X106376854Y-101484434D01*
X106388400Y-101448515D01*
X106410192Y-101331437D01*
X106410867Y-101219319D01*
X106408911Y-101205417D01*
X106394185Y-101104458D01*
X106383915Y-101010719D01*
X106383579Y-101006450D01*
X106364907Y-100937825D01*
X106332668Y-100918051D01*
X106301707Y-100943740D01*
X106282094Y-101006985D01*
X106276484Y-101087055D01*
X106287529Y-101163219D01*
X106297935Y-101189367D01*
X106308641Y-101264380D01*
X106287579Y-101384322D01*
X106286207Y-101389513D01*
X106259799Y-101491048D01*
X106249333Y-101548326D01*
X106058417Y-101548326D01*
X106067471Y-101508378D01*
X106080249Y-101432013D01*
X106111349Y-101343882D01*
X106114721Y-101336626D01*
X106142910Y-101255082D01*
X106147101Y-101164239D01*
X106136821Y-101079536D01*
X106118073Y-100993380D01*
X106096310Y-100938143D01*
X106082204Y-100926553D01*
X106064334Y-100956104D01*
X106046917Y-101028194D01*
X106034946Y-101116344D01*
X106019651Y-101234444D01*
X105998868Y-101345203D01*
X105983380Y-101404051D01*
X105955999Y-101501438D01*
X105955120Y-101556064D01*
X105761982Y-101556064D01*
X105772808Y-101508274D01*
X105787194Y-101435147D01*
X105822704Y-101347528D01*
X105831740Y-101330580D01*
X105883558Y-101194537D01*
X105880555Y-101071245D01*
X105859728Y-101018421D01*
X105823736Y-100977161D01*
X105794040Y-100989556D01*
X105775925Y-101050335D01*
X105772808Y-101105091D01*
X105758671Y-101204029D01*
X105723700Y-101309771D01*
X105713875Y-101330580D01*
X105676783Y-101418464D01*
X105656335Y-101496317D01*
X105654942Y-101513608D01*
X105506657Y-101513608D01*
X105507432Y-101510624D01*
X105507610Y-101499201D01*
X105522009Y-101415208D01*
X105547339Y-101359236D01*
X105588229Y-101275073D01*
X105607472Y-101185394D01*
X105602162Y-101111688D01*
X105584681Y-101082942D01*
X105539027Y-101066123D01*
X105512494Y-101102700D01*
X105507416Y-101151326D01*
X105491370Y-101217322D01*
X105452605Y-101295047D01*
X105448678Y-101301113D01*
X105405631Y-101389891D01*
X105388996Y-101476099D01*
X105218495Y-101476099D01*
X105228488Y-101426770D01*
X105266628Y-101339636D01*
X105273951Y-101327229D01*
X105312020Y-101244531D01*
X105311115Y-101188686D01*
X105272147Y-101168515D01*
X105230845Y-101194041D01*
X105183660Y-101259113D01*
X105140401Y-101346472D01*
X105110880Y-101438859D01*
X105107079Y-101458914D01*
X105097749Y-101535995D01*
X103674699Y-101535995D01*
X103764969Y-101372272D01*
X103887638Y-101150677D01*
G36*
X102716669Y-101816775D02*
G01*
X102742138Y-101765943D01*
X102793979Y-101668933D01*
X102869868Y-101529859D01*
X102967480Y-101352834D01*
X103084490Y-101141971D01*
X103218574Y-100901385D01*
X103367406Y-100635187D01*
X103528662Y-100347493D01*
X103700018Y-100042415D01*
X103879147Y-99724066D01*
X104063727Y-99396561D01*
X104251432Y-99064013D01*
X104439936Y-98730535D01*
X104626917Y-98400241D01*
X104810047Y-98077244D01*
X104987004Y-97765657D01*
X105155462Y-97469595D01*
X105313096Y-97193170D01*
X105457582Y-96940497D01*
X105586595Y-96715688D01*
X105697810Y-96522857D01*
X105788903Y-96366117D01*
X105857548Y-96249582D01*
X105901420Y-96177366D01*
X105916440Y-96155031D01*
X106059086Y-96029047D01*
X106234210Y-95944614D01*
X106429373Y-95905131D01*
X106632135Y-95913997D01*
X106722683Y-95934707D01*
X106770570Y-95948562D01*
X106814264Y-95962605D01*
X106855585Y-95979671D01*
X106896349Y-96002595D01*
X106938374Y-96034212D01*
X106983477Y-96077358D01*
X107033476Y-96134867D01*
X107090189Y-96209575D01*
X107155432Y-96304317D01*
X107231024Y-96421928D01*
X107318781Y-96565243D01*
X107420522Y-96737098D01*
X107538064Y-96940327D01*
X107673224Y-97177765D01*
X107827819Y-97452249D01*
X108003669Y-97766612D01*
X108202589Y-98123691D01*
X108426397Y-98526320D01*
X108676912Y-98977334D01*
X108701079Y-99020844D01*
X108986864Y-99536171D01*
X109244549Y-100002547D01*
X109474007Y-100419735D01*
X109675110Y-100787499D01*
X109847731Y-101105601D01*
X109991742Y-101373805D01*
X110107014Y-101591873D01*
X110193421Y-101759570D01*
X110250834Y-101876657D01*
X110279126Y-101942898D01*
X110281671Y-101951652D01*
X110296793Y-102141234D01*
X110262909Y-102329873D01*
X110186701Y-102507695D01*
X110074856Y-102664822D01*
X109934056Y-102791379D01*
X109770988Y-102877489D01*
X109632900Y-102910195D01*
X109589919Y-102911623D01*
X109491979Y-102912732D01*
X109343049Y-102913523D01*
X109147103Y-102914002D01*
X108908112Y-102914173D01*
X108630047Y-102914038D01*
X108316881Y-102913601D01*
X107972585Y-102912868D01*
X107601131Y-102911841D01*
X107206490Y-102910524D01*
X106792634Y-102908921D01*
X106363535Y-102907036D01*
X106362135Y-102907030D01*
X105854567Y-102904776D01*
X105402541Y-102902855D01*
X105002667Y-102901046D01*
X104651557Y-102899127D01*
X104345821Y-102896877D01*
X104082071Y-102894074D01*
X103856918Y-102890496D01*
X103666973Y-102885921D01*
X103508848Y-102880128D01*
X103379152Y-102872895D01*
X103274498Y-102864001D01*
X103191496Y-102853223D01*
X103126759Y-102840340D01*
X103076896Y-102825129D01*
X103038519Y-102807371D01*
X103008239Y-102786842D01*
X102982667Y-102763321D01*
X102958415Y-102736587D01*
X102932093Y-102706417D01*
X102908658Y-102681094D01*
X102792126Y-102525242D01*
X102712173Y-102344479D01*
X102672065Y-102153513D01*
X102672653Y-102116986D01*
X102978048Y-102116986D01*
X103009807Y-102283031D01*
X103091316Y-102426379D01*
X103220785Y-102541328D01*
X103341833Y-102602966D01*
X103372307Y-102608891D01*
X103433457Y-102614114D01*
X103527748Y-102618660D01*
X103657644Y-102622550D01*
X103825611Y-102625809D01*
X104034115Y-102628458D01*
X104285620Y-102630520D01*
X104582591Y-102632018D01*
X104927494Y-102632976D01*
X105322794Y-102633415D01*
X105770956Y-102633359D01*
X106274446Y-102632830D01*
X106526360Y-102632433D01*
X109622488Y-102627100D01*
X109747873Y-102544118D01*
X109869871Y-102429892D01*
X109950131Y-102282731D01*
X109984981Y-102114693D01*
X109970749Y-101937833D01*
X109952364Y-101872738D01*
X109933221Y-101832468D01*
X109887730Y-101744939D01*
X109818223Y-101614377D01*
X109727031Y-101445007D01*
X109616486Y-101241053D01*
X109488920Y-101006741D01*
X109346666Y-100746295D01*
X109192054Y-100463939D01*
X109027418Y-100163900D01*
X108855088Y-99850401D01*
X108677397Y-99527668D01*
X108496678Y-99199925D01*
X108315260Y-98871397D01*
X108135478Y-98546310D01*
X107959662Y-98228887D01*
X107790145Y-97923354D01*
X107629258Y-97633936D01*
X107479333Y-97364858D01*
X107342703Y-97120343D01*
X107221699Y-96904618D01*
X107118653Y-96721907D01*
X107035897Y-96576435D01*
X106975764Y-96472427D01*
X106940584Y-96414108D01*
X106934487Y-96405125D01*
X106806029Y-96278092D01*
X106657164Y-96201507D01*
X106497948Y-96175372D01*
X106338438Y-96199685D01*
X106188689Y-96274447D01*
X106058758Y-96399658D01*
X106054563Y-96405125D01*
X106032417Y-96441012D01*
X105984010Y-96524178D01*
X105911709Y-96650391D01*
X105817881Y-96815418D01*
X105704894Y-97015026D01*
X105575115Y-97244984D01*
X105430911Y-97501058D01*
X105274650Y-97779016D01*
X105108699Y-98074625D01*
X104935425Y-98383653D01*
X104757196Y-98701867D01*
X104576379Y-99025035D01*
X104395340Y-99348923D01*
X104216449Y-99669300D01*
X104042071Y-99981933D01*
X103874574Y-100282589D01*
X103716326Y-100567036D01*
X103569694Y-100831040D01*
X103437044Y-101070371D01*
X103320746Y-101280794D01*
X103223164Y-101458078D01*
X103146668Y-101597989D01*
X103093624Y-101696296D01*
X103070938Y-101739621D01*
X102997828Y-101933948D01*
X102978048Y-102116986D01*
X102672653Y-102116986D01*
X102675071Y-101967053D01*
X102716669Y-101816775D01*
G37*
X102716669Y-101816775D02*
X102742138Y-101765943D01*
X102793979Y-101668933D01*
X102869868Y-101529859D01*
X102967480Y-101352834D01*
X103084490Y-101141971D01*
X103218574Y-100901385D01*
X103367406Y-100635187D01*
X103528662Y-100347493D01*
X103700018Y-100042415D01*
X103879147Y-99724066D01*
X104063727Y-99396561D01*
X104251432Y-99064013D01*
X104439936Y-98730535D01*
X104626917Y-98400241D01*
X104810047Y-98077244D01*
X104987004Y-97765657D01*
X105155462Y-97469595D01*
X105313096Y-97193170D01*
X105457582Y-96940497D01*
X105586595Y-96715688D01*
X105697810Y-96522857D01*
X105788903Y-96366117D01*
X105857548Y-96249582D01*
X105901420Y-96177366D01*
X105916440Y-96155031D01*
X106059086Y-96029047D01*
X106234210Y-95944614D01*
X106429373Y-95905131D01*
X106632135Y-95913997D01*
X106722683Y-95934707D01*
X106770570Y-95948562D01*
X106814264Y-95962605D01*
X106855585Y-95979671D01*
X106896349Y-96002595D01*
X106938374Y-96034212D01*
X106983477Y-96077358D01*
X107033476Y-96134867D01*
X107090189Y-96209575D01*
X107155432Y-96304317D01*
X107231024Y-96421928D01*
X107318781Y-96565243D01*
X107420522Y-96737098D01*
X107538064Y-96940327D01*
X107673224Y-97177765D01*
X107827819Y-97452249D01*
X108003669Y-97766612D01*
X108202589Y-98123691D01*
X108426397Y-98526320D01*
X108676912Y-98977334D01*
X108701079Y-99020844D01*
X108986864Y-99536171D01*
X109244549Y-100002547D01*
X109474007Y-100419735D01*
X109675110Y-100787499D01*
X109847731Y-101105601D01*
X109991742Y-101373805D01*
X110107014Y-101591873D01*
X110193421Y-101759570D01*
X110250834Y-101876657D01*
X110279126Y-101942898D01*
X110281671Y-101951652D01*
X110296793Y-102141234D01*
X110262909Y-102329873D01*
X110186701Y-102507695D01*
X110074856Y-102664822D01*
X109934056Y-102791379D01*
X109770988Y-102877489D01*
X109632900Y-102910195D01*
X109589919Y-102911623D01*
X109491979Y-102912732D01*
X109343049Y-102913523D01*
X109147103Y-102914002D01*
X108908112Y-102914173D01*
X108630047Y-102914038D01*
X108316881Y-102913601D01*
X107972585Y-102912868D01*
X107601131Y-102911841D01*
X107206490Y-102910524D01*
X106792634Y-102908921D01*
X106363535Y-102907036D01*
X106362135Y-102907030D01*
X105854567Y-102904776D01*
X105402541Y-102902855D01*
X105002667Y-102901046D01*
X104651557Y-102899127D01*
X104345821Y-102896877D01*
X104082071Y-102894074D01*
X103856918Y-102890496D01*
X103666973Y-102885921D01*
X103508848Y-102880128D01*
X103379152Y-102872895D01*
X103274498Y-102864001D01*
X103191496Y-102853223D01*
X103126759Y-102840340D01*
X103076896Y-102825129D01*
X103038519Y-102807371D01*
X103008239Y-102786842D01*
X102982667Y-102763321D01*
X102958415Y-102736587D01*
X102932093Y-102706417D01*
X102908658Y-102681094D01*
X102792126Y-102525242D01*
X102712173Y-102344479D01*
X102672065Y-102153513D01*
X102672653Y-102116986D01*
X102978048Y-102116986D01*
X103009807Y-102283031D01*
X103091316Y-102426379D01*
X103220785Y-102541328D01*
X103341833Y-102602966D01*
X103372307Y-102608891D01*
X103433457Y-102614114D01*
X103527748Y-102618660D01*
X103657644Y-102622550D01*
X103825611Y-102625809D01*
X104034115Y-102628458D01*
X104285620Y-102630520D01*
X104582591Y-102632018D01*
X104927494Y-102632976D01*
X105322794Y-102633415D01*
X105770956Y-102633359D01*
X106274446Y-102632830D01*
X106526360Y-102632433D01*
X109622488Y-102627100D01*
X109747873Y-102544118D01*
X109869871Y-102429892D01*
X109950131Y-102282731D01*
X109984981Y-102114693D01*
X109970749Y-101937833D01*
X109952364Y-101872738D01*
X109933221Y-101832468D01*
X109887730Y-101744939D01*
X109818223Y-101614377D01*
X109727031Y-101445007D01*
X109616486Y-101241053D01*
X109488920Y-101006741D01*
X109346666Y-100746295D01*
X109192054Y-100463939D01*
X109027418Y-100163900D01*
X108855088Y-99850401D01*
X108677397Y-99527668D01*
X108496678Y-99199925D01*
X108315260Y-98871397D01*
X108135478Y-98546310D01*
X107959662Y-98228887D01*
X107790145Y-97923354D01*
X107629258Y-97633936D01*
X107479333Y-97364858D01*
X107342703Y-97120343D01*
X107221699Y-96904618D01*
X107118653Y-96721907D01*
X107035897Y-96576435D01*
X106975764Y-96472427D01*
X106940584Y-96414108D01*
X106934487Y-96405125D01*
X106806029Y-96278092D01*
X106657164Y-96201507D01*
X106497948Y-96175372D01*
X106338438Y-96199685D01*
X106188689Y-96274447D01*
X106058758Y-96399658D01*
X106054563Y-96405125D01*
X106032417Y-96441012D01*
X105984010Y-96524178D01*
X105911709Y-96650391D01*
X105817881Y-96815418D01*
X105704894Y-97015026D01*
X105575115Y-97244984D01*
X105430911Y-97501058D01*
X105274650Y-97779016D01*
X105108699Y-98074625D01*
X104935425Y-98383653D01*
X104757196Y-98701867D01*
X104576379Y-99025035D01*
X104395340Y-99348923D01*
X104216449Y-99669300D01*
X104042071Y-99981933D01*
X103874574Y-100282589D01*
X103716326Y-100567036D01*
X103569694Y-100831040D01*
X103437044Y-101070371D01*
X103320746Y-101280794D01*
X103223164Y-101458078D01*
X103146668Y-101597989D01*
X103093624Y-101696296D01*
X103070938Y-101739621D01*
X102997828Y-101933948D01*
X102978048Y-102116986D01*
X102672653Y-102116986D01*
X102675071Y-101967053D01*
X102716669Y-101816775D01*
%TD*%
M02*
