<?xml version="1.0" encoding="UTF-8" standalone="no"?>
<!-- Created with Inkscape (http://www.inkscape.org/) -->

<svg
   version="1.1"
   id="svg1003"
   xml:space="preserve"
   width="793.70135"
   height="1122.52"
   viewBox="0 0 793.70135 1122.52"
   sodipodi:docname="LidHeatGuideSheet2.svg"
   inkscape:version="1.1.2 (0a00cf5339, 2022-02-04)"
   xmlns:inkscape="http://www.inkscape.org/namespaces/inkscape"
   xmlns:sodipodi="http://sodipodi.sourceforge.net/DTD/sodipodi-0.dtd"
   xmlns="http://www.w3.org/2000/svg"
   xmlns:svg="http://www.w3.org/2000/svg"><defs
     id="defs1007" /><sodipodi:namedview
     id="namedview1005"
     pagecolor="#ffffff"
     bordercolor="#000000"
     borderopacity="0.25"
     inkscape:pageshadow="2"
     inkscape:pageopacity="0.0"
     inkscape:pagecheckerboard="0"
     showgrid="false"
     inkscape:zoom="1.4142136"
     inkscape:cx="389.61583"
     inkscape:cy="899.79338"
     inkscape:window-width="1850"
     inkscape:window-height="1016"
     inkscape:window-x="0"
     inkscape:window-y="0"
     inkscape:window-maximized="1"
     inkscape:current-layer="g1009" /><g
     id="g1009"
     inkscape:groupmode="layer"
     inkscape:label="LidHeatGuideSheet2"
     transform="matrix(1.3333333,0,0,-1.3333333,0,1122.52)"><rect
       style="fill:none;stroke:#ffffff;stroke-width:0.850395;stroke-linecap:round;stroke-miterlimit:10;stroke-dasharray:none;stroke-opacity:1;paint-order:stroke fill markers;stop-color:#000000"
       id="rect12225"
       width="328.86035"
       height="379.24512"
       x="114.25488"
       y="-447.68005"
       transform="scale(1,-1)"
       inkscape:export-filename="/home/gaudi/Documents/Projekte/qPocketPCR/PCB/LaserLid/LaserLid/LaserLid2.png"
       inkscape:export-xdpi="400"
       inkscape:export-ydpi="400" /><path
       id="path1363-7"
       style="color:#000000;fill:#ff0000;stroke-width:0.0283465;stroke-linecap:round;stroke-linejoin:round;stroke-miterlimit:10;stroke-dasharray:none"
       d="m 252.16059,815.57937 c -0.84051,-0.009 -1.66893,-0.20551 -2.42431,-0.57421 -0.78014,-0.27207 -1.49189,-0.71185 -2.08448,-1.2876 l -0.19921,-0.19923 -0.20069,-0.20067 c -0.43099,-0.43062 -0.78926,-0.92886 -1.06201,-1.47364 l -0.0996,-0.19922 c -0.11971,-0.24047 -0.22312,-0.48914 -0.30762,-0.74414 l -0.10107,-0.29883 c -0.19206,-0.57824 -0.28918,-1.18366 -0.28858,-1.79297 v -0.30029 -26.23096 h -26.23242 -0.29883 c -0.6094,-2e-5 -1.21483,-0.0973 -1.79296,-0.29004 l -0.30176,-0.0996 c -0.25439,-0.0852 -0.50143,-0.18879 -0.74121,-0.30909 l -0.19922,-0.0996 c -0.54534,-0.27197 -1.04375,-0.63008 -1.4751,-1.06055 l -0.19921,-0.20068 -0.19923,-0.19922 c -0.43116,-0.43119 -0.78944,-0.92962 -1.06201,-1.4751 l -0.0996,-0.19921 c -0.1203,-0.23978 -0.22388,-0.48829 -0.30908,-0.74268 l -0.0996,-0.30029 c -0.19271,-0.57813 -0.29149,-1.18356 -0.2915,-1.79297 v -0.29883 -218.30127 -0.19922 c 1e-5,-0.60941 0.0988,-1.21484 0.2915,-1.79297 l 0.0996,-0.30029 c 0.0852,-0.2544 0.18878,-0.5029 0.30908,-0.74268 l 0.0996,-0.20068 c 0.10509,-0.21026 0.22268,-0.41378 0.35303,-0.60938 l 0.19922,-0.29883 c 0.41836,-0.52859 0.92812,-0.97882 1.50439,-1.32861 0.86873,-0.71352 1.92355,-1.11341 2.81836,-1.35059 0.1432,-0.0295 0.42826,-0.0898 0.57422,-0.1289 0.307,-0.0313 0.50079,-0.0636 0.82031,-0.11573 h 26.23242 v -26.23242 -0.19922 c -6e-4,-0.60931 0.0965,-1.21472 0.28858,-1.79297 l 0.10107,-0.30029 c 0.0845,-0.25433 0.18799,-0.50284 0.30762,-0.74268 l 0.0996,-0.19921 c 0.10509,-0.21025 0.22268,-0.41378 0.35303,-0.60938 l 0.20068,-0.30029 c 0.54136,-0.80376 1.2797,-1.45535 2.14453,-1.89258 0.71252,-0.3984 1.50363,-0.63823 2.31738,-0.70313 0.13182,0.005 0.26292,0.0149 0.39405,0.0293 0.27681,-0.14259 0.56489,-0.26212 0.86133,-0.35742 h 35.40088 c 0.23308,0.0312 0.46399,0.0763 0.69141,0.13623 0.16179,0.0591 0.32033,0.12562 0.47607,0.19922 0.12661,-0.0134 0.25364,-0.0228 0.38085,-0.0278 0.67805,0.2002 1.31217,0.52594 1.87062,0.95947 0.27156,0.0893 0.53599,0.19896 0.79101,0.32812 0.57697,0.34961 1.08692,0.79985 1.50586,1.32862 l 0.19922,0.30029 c 0.13035,0.1956 0.2494,0.39913 0.35449,0.60938 l 0.10107,0.19921 c 0.11963,0.23984 0.22166,0.48835 0.30616,0.74268 l 0.0996,0.30029 c 0.19272,0.57813 0.29148,1.18356 0.2915,1.79297 v 0.19922 26.23242 h 26.23096 c 0.23307,0.0312 0.46399,0.0763 0.6914,0.13623 0.1611,0.0586 0.31947,0.12486 0.47461,0.19776 0.12726,-0.0134 0.25445,-0.0228 0.38232,-0.0278 0.68039,0.20071 1.31657,0.5283 1.87647,0.96386 0.27084,0.0887 0.5351,0.1968 0.78955,0.3252 0.57627,0.34979 1.08604,0.80002 1.5044,1.32861 l 0.19921,0.29883 c 0.13035,0.1956 0.24794,0.39912 0.35303,0.60938 l 0.0996,0.20068 c 0.0907,0.18877 0.17093,0.38243 0.24023,0.58008 l -0.0395,-0.0791 c 0.0194,0.0654 0.0387,0.1302 0.0557,0.19629 0.12909,0.3396 0.22521,0.69084 0.28711,1.04883 0.10778,0.3553 0.1804,0.72035 0.21679,1.08985 0.0142,0.0662 0.0263,0.13262 0.0381,0.19922 v 218.30127 c -0.0296,0.0755 -0.0609,0.14992 -0.0937,0.22412 0.008,0.52943 -0.0576,1.05784 -0.19629,1.56885 l -0.0996,0.29883 -0.0996,0.30029 c -0.0852,0.25439 -0.18878,0.5029 -0.30908,0.74268 l -0.0996,0.19921 c -0.27257,0.54548 -0.63085,1.04391 -1.06201,1.4751 l -0.19922,0.19922 -0.19922,0.20068 c -0.43135,0.43047 -0.92976,0.78858 -1.47509,1.06055 l -0.19922,0.0996 c -0.23979,0.1203 -0.48829,0.22389 -0.74268,0.30909 l -0.3003,0.0996 c -0.57812,0.19272 -1.18355,0.29002 -1.79296,0.29004 h -0.30029 -26.23096 v 26.23096 0.30029 c -2e-5,0.60941 -0.0988,1.21484 -0.2915,1.79297 l -0.0996,0.29883 c -0.0845,0.255 -0.18644,0.50367 -0.30616,0.74414 l -0.10107,0.19922 c -0.27215,0.54464 -0.63026,1.04287 -1.06055,1.47364 l -0.20215,0.20067 -0.19921,0.19923 c -0.43062,0.43098 -0.92739,0.78926 -1.47217,1.062 l -0.20069,0.0996 c -0.23978,0.1203 -0.48828,0.22388 -0.74268,0.30908 l -0.30029,0.0996 c -0.57813,0.19271 -1.18355,0.29148 -1.79296,0.2915 h -0.29883 -35.40088 z m 0,-5.67041 h 0.3003 35.39941 0.3003 l 0.32079,-0.0674 0.27833,-0.12305 0.21386,-0.18018 0.10547,-0.19921 0.12012,-0.21973 0.0615,-0.31055 v -0.30029 -31.89991 h 31.8999 0.30029 l 0.30029,-0.06 0.23584,-0.10693 0.19189,-0.18165 0.19044,-0.21826 0.13037,-0.20068 0.12598,-0.33545 0.0249,-0.2959 v -218.3013 l -0.004,-0.28125 -0.0762,-0.33838 -0.14209,-0.26954 -0.2168,-0.19189 -0.22998,-0.10986 -0.22998,-0.1084 -0.30029,-0.0806 -0.30029,-0.019 h -31.8999 v -31.89991 l -0.0117,-0.22265 -0.0513,-0.29443 -0.12158,-0.25635 -0.20215,-0.26661 -0.16113,-0.13476 -0.25195,-0.12597 -0.28125,-0.082 -0.31934,-0.0176 h -35.39941 l -0.30176,0.0395 -0.19776,0.0601 -0.31201,0.14062 -0.18896,0.15967 -0.19922,0.30029 -0.0996,0.19922 -0.10108,0.30029 v 0.20068 31.89991 h -31.8999 l -0.28418,0.0132 -0.31494,0.0864 -0.20947,0.10547 -0.23291,0.20068 -0.19336,0.27539 -0.12597,0.2754 -0.0396,0.24316 v 0.19922 218.30127 0.29883 l 0.10108,0.30029 0.0996,0.20069 0.20068,0.19921 0.19922,0.20069 0.20068,0.0996 0.29883,0.0996 h 0.30029 31.8999 v 31.89991 0.30029 l 0.10108,0.3003 0.0996,0.19921 0.1626,0.24464 0.2373,0.15673 0.23731,0.12598 z" /><path
       d="m 290.16088,555.50909 v 221.1 m -39.9,0 v -221.1 m 0.8,-0.9 h 38.2 m 0,223 h -38.2"
       style="fill:none;stroke:#808080;stroke-width:0.51;stroke-linecap:round;stroke-linejoin:round;stroke-miterlimit:10;stroke-dasharray:none;stroke-opacity:1"
       id="path1267" /><g
       id="g11094"
       transform="translate(-47.539121,333.90253)"><path
         style="fill:#ffffff;stroke:#000000;stroke-width:2.83465;stroke-linecap:round;stroke-miterlimit:10;stroke-dasharray:none;stroke-opacity:1;paint-order:stroke fill markers;stop-color:#000000"
         d="M 240.51124,422.96837 H 406.3755"
         id="path10427" /><path
         style="fill:#ffffff;stroke:#000000;stroke-width:2.83465;stroke-linecap:round;stroke-miterlimit:10;stroke-dasharray:none;stroke-opacity:1;paint-order:stroke fill markers;stop-color:#000000"
         d="M 221.31446,468.3739 H 387.17872"
         id="path10427-3" /><path
         style="fill:#ffffff;stroke:#000000;stroke-width:2.83465;stroke-linecap:round;stroke-miterlimit:10;stroke-dasharray:none;stroke-opacity:1;paint-order:stroke fill markers;stop-color:#000000"
         d="M 228.56691,195.9407 H 394.43117"
         id="path10427-3-8" /><path
         style="fill:#ffffff;stroke:#000000;stroke-width:2.83465;stroke-linecap:round;stroke-miterlimit:10;stroke-dasharray:none;stroke-opacity:1;paint-order:stroke fill markers;stop-color:#000000"
         d="M 238.61573,377.56283 H 404.47999"
         id="path10427-4" /><path
         style="fill:#ffffff;stroke:#000000;stroke-width:2.83465;stroke-linecap:round;stroke-miterlimit:10;stroke-dasharray:none;stroke-opacity:1;paint-order:stroke fill markers;stop-color:#000000"
         d="M 241.77979,332.1573 H 407.64405"
         id="path10427-4-1" /><path
         style="fill:#ffffff;stroke:#000000;stroke-width:2.83465;stroke-linecap:round;stroke-miterlimit:10;stroke-dasharray:none;stroke-opacity:1;paint-order:stroke fill markers;stop-color:#000000"
         d="M 240.65186,286.75177 H 406.51612"
         id="path10427-4-1-8" /><path
         style="fill:#ffffff;stroke:#000000;stroke-width:2.83465;stroke-linecap:round;stroke-miterlimit:10;stroke-dasharray:none;stroke-opacity:1;paint-order:stroke fill markers;stop-color:#000000"
         d="M 224.01856,241.34623 H 389.88282"
         id="path10427-4-1-8-5" /></g><g
       id="g11098"
       transform="translate(-47.990297,333.90909)"><path
         style="fill:#ffffff;stroke:#000000;stroke-width:2.83465;stroke-linecap:round;stroke-miterlimit:10;stroke-dasharray:none;stroke-opacity:1;paint-order:stroke fill markers;stop-color:#000000"
         d="M 282.27833,471.26111 V 197.79235"
         id="path10790" /><path
         style="fill:#ffffff;stroke:#000000;stroke-width:2.83465;stroke-linecap:round;stroke-miterlimit:10;stroke-dasharray:none;stroke-opacity:1;paint-order:stroke fill markers;stop-color:#000000"
         d="M 354.12306,465.94079 V 192.47203"
         id="path10790-7" /></g><path
       style="fill:#ffffff;stroke:#000000;stroke-width:2.83465;stroke-linecap:round;stroke-miterlimit:10;stroke-dasharray:none;stroke-opacity:1;paint-order:stroke fill markers;stop-color:#000000"
       d="M 270.2104,837.2503 V 491.42994"
       id="path10790-7-8" /><path
       id="path1363-7-3"
       style="color:#000000;fill:#000000;stroke-width:0.0283465;stroke-linecap:round;stroke-linejoin:round;stroke-miterlimit:10;stroke-dasharray:none"
       d="m 257.66919,403.81903 c -0.84052,-0.009 -1.66893,-0.2055 -2.42432,-0.57421 -0.78014,-0.27207 -1.49189,-0.71185 -2.08447,-1.2876 l -0.19922,-0.19922 -0.20068,-0.20068 c -0.431,-0.43061 -0.78927,-0.92885 -1.06202,-1.47364 l -0.0996,-0.19921 c -0.1197,-0.24048 -0.22311,-0.48915 -0.30762,-0.74415 l -0.10107,-0.29883 c -0.19206,-0.57823 -0.28918,-1.18365 -0.28857,-1.79296 v -0.30029 -26.23096 h -26.23242 -0.29883 c -0.60941,-3e-5 -1.21484,-0.0973 -1.79297,-0.29004 l -0.30176,-0.0996 c -0.25439,-0.0852 -0.50143,-0.18878 -0.74121,-0.30908 l -0.19922,-0.0996 c -0.54534,-0.27196 -1.04375,-0.63008 -1.4751,-1.06054 l -0.19921,-0.20069 -0.19922,-0.19921 c -0.43116,-0.4312 -0.78945,-0.92963 -1.06202,-1.4751 l -0.0996,-0.19922 c -0.1203,-0.23978 -0.22388,-0.48829 -0.30908,-0.74268 l -0.0996,-0.30029 c -0.19271,-0.57813 -0.29148,-1.18356 -0.2915,-1.79297 v -0.29883 -218.30127 -0.19922 c 2e-5,-0.60941 0.0988,-1.21484 0.2915,-1.79297 l 0.0996,-0.30029 c 0.0852,-0.25439 0.18878,-0.5029 0.30908,-0.74268 l 0.0996,-0.20068 c 0.10509,-0.21025 0.22268,-0.41377 0.35303,-0.60937 l 0.19922,-0.29883 c 0.41836,-0.5286 0.92812,-0.97883 1.50439,-1.32862 0.86873,-0.71351 1.92355,-1.11341 2.81836,-1.35059 0.14321,-0.0295 0.42827,-0.0898 0.57422,-0.1289 0.307,-0.0313 0.50079,-0.0636 0.82032,-0.11572 h 26.23242 v -26.23242 -0.19923 c -6.1e-4,-0.6093 0.0965,-1.21472 0.28857,-1.79296 l 0.10107,-0.30029 c 0.0845,-0.25434 0.18799,-0.50284 0.30762,-0.74268 l 0.0996,-0.19922 c 0.10509,-0.21025 0.22268,-0.41377 0.35303,-0.60937 l 0.20068,-0.3003 c 0.54137,-0.80376 1.2797,-1.45535 2.14454,-1.89258 0.71251,-0.3984 1.42403,-0.65109 2.18005,-0.79861 0.13181,0.005 0.59873,-0.0855 0.72986,-0.0711 0.27681,-0.14259 0.3664,-0.0662 0.66284,-0.1615 h 35.40088 c 0.23308,0.0312 0.48681,0.0215 0.71423,0.0814 0.1618,0.0591 0.30049,0.0809 0.45623,0.15448 0.12661,-0.0134 0.25066,0.0767 0.37788,0.0718 0.67804,0.2002 1.237,0.43534 1.87899,0.81303 0.27157,0.0893 0.52761,0.3454 0.78263,0.47456 0.57697,0.34961 1.08692,0.79985 1.50586,1.32862 l 0.19922,0.30029 c 0.13035,0.1956 0.2494,0.39913 0.35449,0.60938 l 0.10107,0.19921 c 0.11964,0.23985 0.22166,0.48835 0.30616,0.74268 l 0.0996,0.3003 c 0.19272,0.57813 0.29148,1.18356 0.2915,1.79296 v 0.19922 26.23242 h 26.23096 c 0.23308,0.0312 0.50363,0.0582 0.73104,0.1181 0.1611,0.0586 0.66215,0.11519 0.8173,0.18809 0.12726,-0.0134 -0.12788,0.005 0,0 0.68038,0.20071 1.34879,0.39591 1.9087,0.83147 0.27084,0.0887 0.50286,0.32919 0.75731,0.45759 0.57627,0.34979 1.08604,0.80002 1.5044,1.32861 l 0.19921,0.29883 c 0.13035,0.1956 0.24795,0.39912 0.35304,0.60938 l 0.0996,0.20068 c 0.0907,0.18877 0.17094,0.38243 0.24024,0.58008 l -0.0395,-0.0791 c 0.0194,0.0654 0.0386,0.1302 0.0556,0.19629 0.12909,0.3396 0.22521,0.69084 0.28711,1.04883 0.10778,0.3553 0.1804,0.72035 0.21679,1.08985 0.0142,0.0661 0.0263,0.13262 0.0381,0.19922 v 218.30117 c -0.0296,0.0755 -0.061,0.14992 -0.0937,0.22413 0.008,0.52942 -0.0576,1.05783 -0.19629,1.56884 l -0.0996,0.29883 -0.0996,0.30029 c -0.0852,0.25439 -0.18878,0.5029 -0.30908,0.74268 l -0.0996,0.19922 c -0.27257,0.54547 -0.63086,1.0439 -1.06202,1.4751 l -0.19921,0.19921 -0.19922,0.20069 c -0.43135,0.43046 -0.92976,0.78858 -1.4751,1.06054 l -0.19922,0.0996 c -0.23978,0.1203 -0.48829,0.22388 -0.74267,0.30908 l -0.3003,0.0996 c -0.57815,0.19272 -1.18358,0.29001 -1.79299,0.29004 h -0.30029 -26.23096 v 26.23096 0.30029 c -2e-5,0.6094 -0.0988,1.21483 -0.2915,1.79296 l -0.0996,0.29883 c -0.0845,0.255 -0.18644,0.50367 -0.30616,0.74415 l -0.10107,0.19921 c -0.27215,0.54464 -0.63026,1.04288 -1.06055,1.47364 l -0.20215,0.20068 -0.19921,0.19922 c -0.43061,0.43099 -0.92739,0.78926 -1.47217,1.06201 l -0.20068,0.0996 c -0.23979,0.1203 -0.48829,0.22388 -0.74268,0.30908 l -0.3003,0.0996 c -0.57813,0.19271 -1.18355,0.29148 -1.79296,0.2915 h -0.29883 -35.40088 z m 0,-5.67041 h 0.30029 35.39942 0.30029 l 0.3208,-0.0674 0.27832,-0.12304 0.21386,-0.18018 0.10548,-0.19922 0.12012,-0.21973 0.0615,-0.31054 v -0.30029 -31.89991 h 31.89992 0.30029 l 0.30029,-0.0601 0.23584,-0.10693 0.1919,-0.18165 0.19043,-0.21826 0.13037,-0.20068 0.12598,-0.33545 0.0249,-0.2959 V 145.14813 l -0.004,-0.28125 -0.0762,-0.33838 -0.1421,-0.26953 -0.21679,-0.1919 -0.22998,-0.10986 -0.22998,-0.1084 -0.30029,-0.0806 -0.3003,-0.019 h -31.8999 V 111.8493 l -0.0117,-0.22265 -0.0513,-0.29444 -0.12158,-0.25635 -0.20215,-0.2666 -0.16113,-0.13476 -0.25195,-0.12598 -0.28125,-0.082 -0.31934,-0.0175 h -35.3993 l -0.30176,0.0395 -0.19776,0.0601 -0.312,0.14062 -0.18897,0.15967 -0.19922,0.30029 -0.0996,0.19922 -0.10107,0.30029 v 0.20069 31.8999 h -31.8999 l -0.28419,0.0132 -0.31494,0.0864 -0.20947,0.10547 -0.23291,0.20068 -0.19336,0.2754 -0.12597,0.27539 -0.0395,0.24316 v 0.19919 218.30127 0.29883 l 0.10108,0.3003 0.0996,0.20068 0.20068,0.19922 0.19922,0.20068 0.20068,0.0996 0.29883,0.0996 h 0.3003 31.8999 v 31.89991 0.30029 l 0.10107,0.30029 0.0996,0.19922 0.1626,0.24463 0.2373,0.15674 0.23731,0.12597 z"
       sodipodi:nodetypes="cccccccccccccsccccccsscccsccsccccscccccccccccsccccccccccccccccccscccccccccsccccccccccccccssccccccscccssccccccccccscccccccccccccccccccccccccccccccccccccccccccccccccccccccccccccccccccccccccccccccc"
       inkscape:export-filename="/home/gaudi/Documents/Projekte/qPocketPCR/PCB/LaserLid/LaserLid/LaserLid2.png"
       inkscape:export-xdpi="400"
       inkscape:export-ydpi="400" /><g
       id="path10427-9"
       style="fill:#ffffff"
       transform="translate(161.43994,-73.231129)"
       inkscape:export-filename="/home/gaudi/Documents/Projekte/qPocketPCR/PCB/LaserLid/LaserLid/LaserLid2.png"
       inkscape:export-xdpi="400"
       inkscape:export-ydpi="400"><path
         style="color:#000000;fill:#ffffff;stroke-linecap:round;stroke-miterlimit:10;-inkscape-stroke:none;paint-order:stroke fill markers"
         d="m 37.041016,416.92383 a 1.417325,1.417325 0 0 0 -1.417969,1.41797 1.417325,1.417325 0 0 0 1.417969,1.41797 H 202.9043 a 1.417325,1.417325 0 0 0 1.41797,-1.41797 1.417325,1.417325 0 0 0 -1.41797,-1.41797 z"
         id="path11258" /><path
         style="color:#000000;fill:#ffffff;stroke-width:2.83465;stroke-linecap:round;stroke-miterlimit:10;-inkscape-stroke:none;paint-order:stroke fill markers"
         d="M 37.04078,418.3417 H 202.90504"
         id="path11260" /></g><g
       id="path10427-3-6"
       style="fill:#ffffff"
       transform="translate(161.43994,-73.231129)"
       inkscape:export-filename="/home/gaudi/Documents/Projekte/qPocketPCR/PCB/LaserLid/LaserLid/LaserLid2.png"
       inkscape:export-xdpi="400"
       inkscape:export-ydpi="400"><path
         style="color:#000000;fill:#ffffff;stroke-linecap:round;stroke-miterlimit:10;-inkscape-stroke:none;paint-order:stroke fill markers"
         d="m 17.84375,462.33008 a 1.417325,1.417325 0 0 0 -1.417969,1.41797 1.417325,1.417325 0 0 0 1.417969,1.41601 h 165.86523 a 1.417325,1.417325 0 0 0 1.41602,-1.41601 1.417325,1.417325 0 0 0 -1.41602,-1.41797 z"
         id="path11252" /><path
         style="color:#000000;fill:#ffffff;stroke-width:2.83465;stroke-linecap:round;stroke-miterlimit:10;-inkscape-stroke:none;paint-order:stroke fill markers"
         d="M 17.844,463.74723 H 183.70826"
         id="path11254" /></g><g
       id="path10427-3-8-4"
       style="fill:#ffffff"
       transform="translate(161.43994,-73.231129)"
       inkscape:export-filename="/home/gaudi/Documents/Projekte/qPocketPCR/PCB/LaserLid/LaserLid/LaserLid2.png"
       inkscape:export-xdpi="400"
       inkscape:export-ydpi="400"><path
         style="color:#000000;fill:#ffffff;stroke-linecap:round;stroke-miterlimit:10;-inkscape-stroke:none;paint-order:stroke fill markers"
         d="m 25.095703,189.89648 a 1.417325,1.417325 0 0 0 -1.416016,1.41797 1.417325,1.417325 0 0 0 1.416016,1.41602 H 190.96094 a 1.417325,1.417325 0 0 0 1.41797,-1.41602 1.417325,1.417325 0 0 0 -1.41797,-1.41797 z"
         id="path11246" /><path
         style="color:#000000;fill:#ffffff;stroke-width:2.83465;stroke-linecap:round;stroke-miterlimit:10;-inkscape-stroke:none;paint-order:stroke fill markers"
         d="M 25.09645,191.31403 H 190.96071"
         id="path11248" /></g><g
       id="path10427-4-3"
       style="fill:#ffffff"
       transform="translate(161.43994,-73.231129)"
       inkscape:export-filename="/home/gaudi/Documents/Projekte/qPocketPCR/PCB/LaserLid/LaserLid/LaserLid2.png"
       inkscape:export-xdpi="400"
       inkscape:export-ydpi="400"><path
         style="color:#000000;fill:#ffffff;stroke-linecap:round;stroke-miterlimit:10;-inkscape-stroke:none;paint-order:stroke fill markers"
         d="m 35.144531,371.51953 a 1.417325,1.417325 0 0 0 -1.416015,1.41602 1.417325,1.417325 0 0 0 1.416015,1.41797 H 201.00977 a 1.417325,1.417325 0 0 0 1.41796,-1.41797 1.417325,1.417325 0 0 0 -1.41796,-1.41602 z"
         id="path11240" /><path
         style="color:#000000;fill:#ffffff;stroke-width:2.83465;stroke-linecap:round;stroke-miterlimit:10;-inkscape-stroke:none;paint-order:stroke fill markers"
         d="M 35.14527,372.93616 H 201.00953"
         id="path11242" /></g><g
       id="path10427-4-1-3"
       style="fill:#ffffff"
       transform="translate(161.43994,-73.231129)"
       inkscape:export-filename="/home/gaudi/Documents/Projekte/qPocketPCR/PCB/LaserLid/LaserLid/LaserLid2.png"
       inkscape:export-xdpi="400"
       inkscape:export-ydpi="400"><path
         style="color:#000000;fill:#ffffff;stroke-linecap:round;stroke-miterlimit:10;-inkscape-stroke:none;paint-order:stroke fill markers"
         d="m 38.308594,326.11328 a 1.417325,1.417325 0 0 0 -1.416016,1.41797 1.417325,1.417325 0 0 0 1.416016,1.41602 H 204.17383 a 1.417325,1.417325 0 0 0 1.41797,-1.41602 1.417325,1.417325 0 0 0 -1.41797,-1.41797 z"
         id="path11234" /><path
         style="color:#000000;fill:#ffffff;stroke-width:2.83465;stroke-linecap:round;stroke-miterlimit:10;-inkscape-stroke:none;paint-order:stroke fill markers"
         d="M 38.30933,327.53063 H 204.17359"
         id="path11236" /></g><g
       id="path10427-4-1-8-3"
       style="fill:#ffffff"
       transform="translate(161.43994,-73.231129)"
       inkscape:export-filename="/home/gaudi/Documents/Projekte/qPocketPCR/PCB/LaserLid/LaserLid/LaserLid2.png"
       inkscape:export-xdpi="400"
       inkscape:export-ydpi="400"><path
         style="color:#000000;fill:#ffffff;stroke-linecap:round;stroke-miterlimit:10;-inkscape-stroke:none;paint-order:stroke fill markers"
         d="m 37.181641,280.70703 a 1.417325,1.417325 0 0 0 -1.417969,1.41797 1.417325,1.417325 0 0 0 1.417969,1.41797 H 203.04492 a 1.417325,1.417325 0 0 0 1.41797,-1.41797 1.417325,1.417325 0 0 0 -1.41797,-1.41797 z"
         id="path11228" /><path
         style="color:#000000;fill:#ffffff;stroke-width:2.83465;stroke-linecap:round;stroke-miterlimit:10;-inkscape-stroke:none;paint-order:stroke fill markers"
         d="M 37.1814,282.1251 H 203.04566"
         id="path11230" /></g><g
       id="path10427-4-1-8-5-8"
       style="fill:#ffffff"
       transform="translate(161.43994,-73.231129)"
       inkscape:export-filename="/home/gaudi/Documents/Projekte/qPocketPCR/PCB/LaserLid/LaserLid/LaserLid2.png"
       inkscape:export-xdpi="400"
       inkscape:export-ydpi="400"><path
         style="color:#000000;fill:#ffffff;stroke-linecap:round;stroke-miterlimit:10;-inkscape-stroke:none;paint-order:stroke fill markers"
         d="m 20.548828,235.30273 a 1.417325,1.417325 0 0 0 -1.417969,1.41602 1.417325,1.417325 0 0 0 1.417969,1.41797 H 186.41211 a 1.417325,1.417325 0 0 0 1.41797,-1.41797 1.417325,1.417325 0 0 0 -1.41797,-1.41602 z"
         id="path11222" /><path
         style="color:#000000;fill:#ffffff;stroke-width:2.83465;stroke-linecap:round;stroke-miterlimit:10;-inkscape-stroke:none;paint-order:stroke fill markers"
         d="M 20.5481,236.71956 H 186.41236"
         id="path11224" /></g><g
       id="path10790-0"
       style="fill:#ffffff"
       transform="translate(161.43994,-73.231129)"
       inkscape:export-filename="/home/gaudi/Documents/Projekte/qPocketPCR/PCB/LaserLid/LaserLid/LaserLid2.png"
       inkscape:export-xdpi="400"
       inkscape:export-ydpi="400"><path
         style="color:#000000;fill:#ffffff;stroke-linecap:round;stroke-miterlimit:10;-inkscape-stroke:none;paint-order:stroke fill markers"
         d="m 78.357422,191.75586 a 1.417325,1.417325 0 0 0 -1.417969,1.41601 v 273.46875 a 1.417325,1.417325 0 0 0 1.417969,1.41797 1.417325,1.417325 0 0 0 1.416015,-1.41797 V 193.17187 a 1.417325,1.417325 0 0 0 -1.416015,-1.41601 z"
         id="path11270" /><path
         style="color:#000000;fill:#ffffff;stroke-width:2.83465;stroke-linecap:round;stroke-miterlimit:10;-inkscape-stroke:none;paint-order:stroke fill markers"
         d="M 78.35669,466.64099 V 193.17223"
         id="path11272" /></g><g
       id="path10790-7-4"
       style="fill:#ffffff"
       transform="translate(161.43994,-73.231129)"
       inkscape:export-filename="/home/gaudi/Documents/Projekte/qPocketPCR/PCB/LaserLid/LaserLid/LaserLid2.png"
       inkscape:export-xdpi="400"
       inkscape:export-ydpi="400"><path
         style="color:#000000;fill:#ffffff;stroke-linecap:round;stroke-miterlimit:10;-inkscape-stroke:none;paint-order:stroke fill markers"
         d="m 150.20117,186.43555 a 1.417325,1.417325 0 0 0 -1.41797,1.41601 v 273.46875 a 1.417325,1.417325 0 0 0 1.41797,1.41797 1.417325,1.417325 0 0 0 1.41797,-1.41797 V 187.85156 a 1.417325,1.417325 0 0 0 -1.41797,-1.41601 z"
         id="path11264" /><path
         style="color:#000000;fill:#ffffff;stroke-width:2.83465;stroke-linecap:round;stroke-miterlimit:10;-inkscape-stroke:none;paint-order:stroke fill markers"
         d="M 150.20142,461.32067 V 187.85191"
         id="path11266" /></g><g
       id="path10790-7-8-8"
       style="fill:#ffffff"
       transform="translate(161.43994,-73.231129)"
       inkscape:export-filename="/home/gaudi/Documents/Projekte/qPocketPCR/PCB/LaserLid/LaserLid/LaserLid2.png"
       inkscape:export-xdpi="400"
       inkscape:export-ydpi="400"><path
         style="color:#000000;fill:#ffffff;stroke-linecap:round;stroke-miterlimit:10;-inkscape-stroke:none;paint-order:stroke fill markers"
         d="m 114.2793,151.48437 a 1.417325,1.417325 0 0 0 -1.41797,1.41602 V 498.7207 a 1.417325,1.417325 0 0 0 1.41797,1.41797 1.417325,1.417325 0 0 0 1.41797,-1.41797 V 152.90039 a 1.417325,1.417325 0 0 0 -1.41797,-1.41602 z"
         id="path11216" /><path
         style="color:#000000;fill:#ffffff;stroke-width:2.83465;stroke-linecap:round;stroke-miterlimit:10;-inkscape-stroke:none;paint-order:stroke fill markers"
         d="M 114.27905,498.72109 V 152.90073"
         id="path11218" /></g><path
       d="m 295.66947,143.74875 v 221.1 m -39.9,0 v -221.1 m 0.8,-0.9 h 38.2 m 0,223 h -38.2"
       style="fill:none;stroke:#808080;stroke-width:0.850394;stroke-linecap:round;stroke-linejoin:round;stroke-miterlimit:10;stroke-dasharray:none;stroke-opacity:1"
       id="path1267-1"
       inkscape:export-filename="/home/gaudi/Documents/Projekte/qPocketPCR/PCB/LaserLid/LaserLid/LaserLidHalve2.png"
       inkscape:export-xdpi="400"
       inkscape:export-ydpi="400" /></g></svg>
