  0
SECTION
  2
HEADER
  9
$ACADVER
  1
AC1014
  9
$HANDSEED
  5
FFFF
  9
$MEASUREMENT
 70
     1
  0
ENDSEC
  0
SECTION
  2
TABLES
  0
TABLE
  2
VPORT
  5
8
330
0
100
AcDbSymbolTable
 70
     4
  0
VPORT
  5
2E
330
8
100
AcDbSymbolTableRecord
100
AcDbViewportTableRecord
  2
*ACTIVE
 70
     0
 10
0.0
 20
0.0
 11
1.0
 21
1.0
 12
210.0
 22
148.5
 13
0.0
 23
0.0
 14
10.0
 24
10.0
 15
10.0
 25
10.0
 16
0.0
 26
0.0
 36
1.0
 17
0.0
 27
0.0
 37
0.0
 40
341.0
 41
1.24
 42
50.0
 43
0.0
 44
0.0
 50
0.0
 51
0.0
 71
     0
 72
   100
 73
     1
 74
     3
 75
     0
 76
     0
 77
     0
 78
     0
  0
ENDTAB
  0
TABLE
  2
LTYPE
  5
5
330
0
100
AcDbSymbolTable
 70
     1
  0
LTYPE
  5
14
330
5
100
AcDbSymbolTableRecord
100
AcDbLinetypeTableRecord
  2
BYBLOCK
 70
     0
  3

 72
    65
 73
     0
 40
0.0
  0
LTYPE
  5
15
330
5
100
AcDbSymbolTableRecord
100
AcDbLinetypeTableRecord
  2
BYLAYER
 70
     0
  3

 72
    65
 73
     0
 40
0.0
  0
LTYPE
  5
16
330
5
100
AcDbSymbolTableRecord
100
AcDbLinetypeTableRecord
  2
CONTINUOUS
 70
     0
  3
Solid line
 72
    65
 73
     0
 40
0.0
  0
ENDTAB
  0
TABLE
  2
LAYER
  5
2
100
AcDbSymbolTable
 70
5
  0
LAYER
  5
50
100
AcDbSymbolTableRecord
100
AcDbLayerTableRecord
  2
0
 70
0
  6
CONTINUOUS
  0
LAYER
  5
51
100
AcDbSymbolTableRecord
100
AcDbLayerTableRecord
  2
Layer_1
 70
0
  6
CONTINUOUS
  0
LAYER
  5
52
100
AcDbSymbolTableRecord
100
AcDbLayerTableRecord
  2
Layer_2
 70
0
  6
CONTINUOUS
  0
LAYER
  5
53
100
AcDbSymbolTableRecord
100
AcDbLayerTableRecord
  2
Layer_3
 70
0
  6
CONTINUOUS
  0
LAYER
  5
54
100
AcDbSymbolTableRecord
100
AcDbLayerTableRecord
  2
Layer_4
 70
0
  6
CONTINUOUS
  0
ENDTAB
  0
TABLE
  2
STYLE
  5
3
330
0
100
AcDbSymbolTable
 70
     1
  0
STYLE
  5
11
330
3
100
AcDbSymbolTableRecord
100
AcDbTextStyleTableRecord
  2
STANDARD
 70
     0
 40
0.0
 41
1.0
 50
0.0
 71
     0
 42
2.5
  3
txt
  4

  0
ENDTAB
  0
TABLE
  2
VIEW
  5
6
330
0
100
AcDbSymbolTable
 70
     0
  0
ENDTAB
  0
TABLE
  2
UCS
  5
7
330
0
100
AcDbSymbolTable
 70
     0
  0
ENDTAB
  0
TABLE
  2
APPID
  5
9
330
0
100
AcDbSymbolTable
 70
     2
  0
APPID
  5
12
330
9
100
AcDbSymbolTableRecord
100
AcDbRegAppTableRecord
  2
ACAD
 70
     0
  0
ENDTAB
  0
TABLE
  2
DIMSTYLE
  5
A
330
0
100
AcDbSymbolTable
 70
     1
  0
DIMSTYLE
105
27
330
A
100
AcDbSymbolTableRecord
100
AcDbDimStyleTableRecord
  2
ISO-25
 70
     0
  3

  4

  5

  6

  7

 40
1.0
 41
2.5
 42
0.625
 43
3.75
 44
1.25
 45
0.0
 46
0.0
 47
0.0
 48
0.0
140
2.5
141
2.5
142
0.0
143
0.03937007874016
144
1.0
145
0.0
146
1.0
147
0.625
 71
     0
 72
     0
 73
     0
 74
     0
 75
     0
 76
     0
 77
     1
 78
     8
170
     0
171
     3
172
     1
173
     0
174
     0
175
     0
176
     0
177
     0
178
     0
270
     2
271
     2
272
     2
273
     2
274
     3
340
11
275
     0
280
     0
281
     0
282
     0
283
     0
284
     8
285
     0
286
     0
287
     3
288
     0
  0
ENDTAB
  0
TABLE
  2
BLOCK_RECORD
  5
1
330
0
100
AcDbSymbolTable
 70
     1
  0
BLOCK_RECORD
  5
1F
330
1
100
AcDbSymbolTableRecord
100
AcDbBlockTableRecord
  2
*MODEL_SPACE
  0
BLOCK_RECORD
  5
1B
330
1
100
AcDbSymbolTableRecord
100
AcDbBlockTableRecord
  2
*PAPER_SPACE
  0
ENDTAB
  0
ENDSEC
  0
SECTION
  2
BLOCKS
  0
BLOCK
  5
20
330
1F
100
AcDbEntity
  8
0
100
AcDbBlockBegin
  2
*MODEL_SPACE
 70
     0
 10
0.0
 20
0.0
 30
0.0
  3
*MODEL_SPACE
  1

  0
ENDBLK
  5
21
330
1F
100
AcDbEntity
  8
0
100
AcDbBlockEnd
  0
BLOCK
  5
1C
330
1B
100
AcDbEntity
 67
     1
  8
0
100
AcDbBlockBegin
  2
*PAPER_SPACE
  1

  0
ENDBLK
  5
1D
330
1B
100
AcDbEntity
 67
     1
  8
0
100
AcDbBlockEnd
  0
ENDSEC
  0
SECTION
  2
ENTITIES
  0
SPLINE
  5
100
100
AcDbEntity
  8
Layer_3
 62
7
100
AcDbSpline
 70
8
 71
3
 72
8
 73
4
 74
0
 40
0
 40
0
 40
0
 40
0
 40
1
 40
1
 40
1
 40
1
 10
62.750059
 20
-32.399241
 30
0.0
 10
62.102919
 20
-32.399241
 30
0.0
 10
61.519500
 20
-32.789069
 30
0.0
 10
61.271851
 20
-33.386948
 30
0.0
  0
SPLINE
  5
101
100
AcDbEntity
  8
Layer_3
 62
7
100
AcDbSpline
 70
8
 71
3
 72
8
 73
4
 74
0
 40
0
 40
0
 40
0
 40
0
 40
1
 40
1
 40
1
 40
1
 10
61.271851
 20
-33.386948
 30
0.0
 10
61.024201
 20
-33.984828
 30
0.0
 10
61.161090
 20
-34.673017
 30
0.0
 10
61.618687
 20
-35.130614
 30
0.0
  0
SPLINE
  5
102
100
AcDbEntity
  8
Layer_3
 62
7
100
AcDbSpline
 70
8
 71
3
 72
8
 73
4
 74
0
 40
0
 40
0
 40
0
 40
0
 40
1
 40
1
 40
1
 40
1
 10
61.618687
 20
-35.130614
 30
0.0
 10
62.076284
 20
-35.588211
 30
0.0
 10
62.764473
 20
-35.725100
 30
0.0
 10
63.362353
 20
-35.477450
 30
0.0
  0
SPLINE
  5
103
100
AcDbEntity
  8
Layer_3
 62
7
100
AcDbSpline
 70
8
 71
3
 72
8
 73
4
 74
0
 40
0
 40
0
 40
0
 40
0
 40
1
 40
1
 40
1
 40
1
 10
63.362353
 20
-35.477450
 30
0.0
 10
63.960232
 20
-35.229801
 30
0.0
 10
64.350060
 20
-34.646382
 30
0.0
 10
64.350060
 20
-33.999242
 30
0.0
  0
SPLINE
  5
104
100
AcDbEntity
  8
Layer_3
 62
7
100
AcDbSpline
 70
8
 71
3
 72
8
 73
4
 74
0
 40
0
 40
0
 40
0
 40
0
 40
1
 40
1
 40
1
 40
1
 10
64.350060
 20
-33.999242
 30
0.0
 10
64.350060
 20
-33.574895
 30
0.0
 10
64.181489
 20
-33.167929
 30
0.0
 10
63.881430
 20
-32.867871
 30
0.0
  0
SPLINE
  5
105
100
AcDbEntity
  8
Layer_3
 62
7
100
AcDbSpline
 70
8
 71
3
 72
8
 73
4
 74
0
 40
0
 40
0
 40
0
 40
0
 40
1
 40
1
 40
1
 40
1
 10
63.881430
 20
-32.867871
 30
0.0
 10
63.581372
 20
-32.567812
 30
0.0
 10
63.174405
 20
-32.399241
 30
0.0
 10
62.750059
 20
-32.399241
 30
0.0
  0
SPLINE
  5
106
100
AcDbEntity
  8
Layer_3
 62
7
100
AcDbSpline
 70
8
 71
3
 72
8
 73
4
 74
0
 40
0
 40
0
 40
0
 40
0
 40
1
 40
1
 40
1
 40
1
 10
137.250130
 20
-32.399241
 30
0.0
 10
136.602990
 20
-32.399241
 30
0.0
 10
136.019571
 20
-32.789069
 30
0.0
 10
135.771922
 20
-33.386948
 30
0.0
  0
SPLINE
  5
107
100
AcDbEntity
  8
Layer_3
 62
7
100
AcDbSpline
 70
8
 71
3
 72
8
 73
4
 74
0
 40
0
 40
0
 40
0
 40
0
 40
1
 40
1
 40
1
 40
1
 10
135.771922
 20
-33.386948
 30
0.0
 10
135.524272
 20
-33.984828
 30
0.0
 10
135.661161
 20
-34.673017
 30
0.0
 10
136.118758
 20
-35.130614
 30
0.0
  0
SPLINE
  5
108
100
AcDbEntity
  8
Layer_3
 62
7
100
AcDbSpline
 70
8
 71
3
 72
8
 73
4
 74
0
 40
0
 40
0
 40
0
 40
0
 40
1
 40
1
 40
1
 40
1
 10
136.118758
 20
-35.130614
 30
0.0
 10
136.576355
 20
-35.588211
 30
0.0
 10
137.264544
 20
-35.725100
 30
0.0
 10
137.862424
 20
-35.477450
 30
0.0
  0
SPLINE
  5
109
100
AcDbEntity
  8
Layer_3
 62
7
100
AcDbSpline
 70
8
 71
3
 72
8
 73
4
 74
0
 40
0
 40
0
 40
0
 40
0
 40
1
 40
1
 40
1
 40
1
 10
137.862424
 20
-35.477450
 30
0.0
 10
138.460303
 20
-35.229801
 30
0.0
 10
138.850131
 20
-34.646382
 30
0.0
 10
138.850131
 20
-33.999242
 30
0.0
  0
SPLINE
  5
10a
100
AcDbEntity
  8
Layer_3
 62
7
100
AcDbSpline
 70
8
 71
3
 72
8
 73
4
 74
0
 40
0
 40
0
 40
0
 40
0
 40
1
 40
1
 40
1
 40
1
 10
138.850131
 20
-33.999242
 30
0.0
 10
138.850131
 20
-33.574895
 30
0.0
 10
138.681560
 20
-33.167929
 30
0.0
 10
138.381501
 20
-32.867871
 30
0.0
  0
SPLINE
  5
10b
100
AcDbEntity
  8
Layer_3
 62
7
100
AcDbSpline
 70
8
 71
3
 72
8
 73
4
 74
0
 40
0
 40
0
 40
0
 40
0
 40
1
 40
1
 40
1
 40
1
 10
138.381501
 20
-32.867871
 30
0.0
 10
138.081443
 20
-32.567812
 30
0.0
 10
137.674476
 20
-32.399241
 30
0.0
 10
137.250130
 20
-32.399241
 30
0.0
  0
LWPOLYLINE
  5
10c
100
AcDbEntity
  8
Layer_3
 62
7
100
AcDbPolyline
 90
1
 70
1
 10
62.750059
 20
-32.399241
 30
0.0
  0
SPLINE
  5
10d
100
AcDbEntity
  8
Layer_3
 62
7
100
AcDbSpline
 70
8
 71
3
 72
8
 73
4
 74
0
 40
0
 40
0
 40
0
 40
0
 40
1
 40
1
 40
1
 40
1
 10
62.750059
 20
-164.399367
 30
0.0
 10
62.102919
 20
-164.399367
 30
0.0
 10
61.519500
 20
-164.789195
 30
0.0
 10
61.271851
 20
-165.387074
 30
0.0
  0
SPLINE
  5
10e
100
AcDbEntity
  8
Layer_3
 62
7
100
AcDbSpline
 70
8
 71
3
 72
8
 73
4
 74
0
 40
0
 40
0
 40
0
 40
0
 40
1
 40
1
 40
1
 40
1
 10
61.271851
 20
-165.387074
 30
0.0
 10
61.024201
 20
-165.984953
 30
0.0
 10
61.161090
 20
-166.673142
 30
0.0
 10
61.618687
 20
-167.130739
 30
0.0
  0
SPLINE
  5
10f
100
AcDbEntity
  8
Layer_3
 62
7
100
AcDbSpline
 70
8
 71
3
 72
8
 73
4
 74
0
 40
0
 40
0
 40
0
 40
0
 40
1
 40
1
 40
1
 40
1
 10
61.618687
 20
-167.130739
 30
0.0
 10
62.076284
 20
-167.588336
 30
0.0
 10
62.764473
 20
-167.725226
 30
0.0
 10
63.362353
 20
-167.477576
 30
0.0
  0
SPLINE
  5
110
100
AcDbEntity
  8
Layer_3
 62
7
100
AcDbSpline
 70
8
 71
3
 72
8
 73
4
 74
0
 40
0
 40
0
 40
0
 40
0
 40
1
 40
1
 40
1
 40
1
 10
63.362353
 20
-167.477576
 30
0.0
 10
63.960232
 20
-167.229926
 30
0.0
 10
64.350060
 20
-166.646508
 30
0.0
 10
64.350060
 20
-165.999368
 30
0.0
  0
SPLINE
  5
111
100
AcDbEntity
  8
Layer_3
 62
7
100
AcDbSpline
 70
8
 71
3
 72
8
 73
4
 74
0
 40
0
 40
0
 40
0
 40
0
 40
1
 40
1
 40
1
 40
1
 10
64.350060
 20
-165.999368
 30
0.0
 10
64.350060
 20
-165.575021
 30
0.0
 10
64.181489
 20
-165.168055
 30
0.0
 10
63.881430
 20
-164.867996
 30
0.0
  0
SPLINE
  5
112
100
AcDbEntity
  8
Layer_3
 62
7
100
AcDbSpline
 70
8
 71
3
 72
8
 73
4
 74
0
 40
0
 40
0
 40
0
 40
0
 40
1
 40
1
 40
1
 40
1
 10
63.881430
 20
-164.867996
 30
0.0
 10
63.581372
 20
-164.567938
 30
0.0
 10
63.174405
 20
-164.399367
 30
0.0
 10
62.750059
 20
-164.399367
 30
0.0
  0
LWPOLYLINE
  5
113
100
AcDbEntity
  8
Layer_3
 62
7
100
AcDbPolyline
 90
1
 70
1
 10
137.250130
 20
-32.399241
 30
0.0
  0
SPLINE
  5
114
100
AcDbEntity
  8
Layer_3
 62
7
100
AcDbSpline
 70
8
 71
3
 72
8
 73
4
 74
0
 40
0
 40
0
 40
0
 40
0
 40
1
 40
1
 40
1
 40
1
 10
137.250130
 20
-164.399367
 30
0.0
 10
136.602990
 20
-164.399367
 30
0.0
 10
136.019571
 20
-164.789195
 30
0.0
 10
135.771922
 20
-165.387074
 30
0.0
  0
SPLINE
  5
115
100
AcDbEntity
  8
Layer_3
 62
7
100
AcDbSpline
 70
8
 71
3
 72
8
 73
4
 74
0
 40
0
 40
0
 40
0
 40
0
 40
1
 40
1
 40
1
 40
1
 10
135.771922
 20
-165.387074
 30
0.0
 10
135.524272
 20
-165.984953
 30
0.0
 10
135.661161
 20
-166.673142
 30
0.0
 10
136.118758
 20
-167.130739
 30
0.0
  0
SPLINE
  5
116
100
AcDbEntity
  8
Layer_3
 62
7
100
AcDbSpline
 70
8
 71
3
 72
8
 73
4
 74
0
 40
0
 40
0
 40
0
 40
0
 40
1
 40
1
 40
1
 40
1
 10
136.118758
 20
-167.130739
 30
0.0
 10
136.576355
 20
-167.588336
 30
0.0
 10
137.264544
 20
-167.725226
 30
0.0
 10
137.862424
 20
-167.477576
 30
0.0
  0
SPLINE
  5
117
100
AcDbEntity
  8
Layer_3
 62
7
100
AcDbSpline
 70
8
 71
3
 72
8
 73
4
 74
0
 40
0
 40
0
 40
0
 40
0
 40
1
 40
1
 40
1
 40
1
 10
137.862424
 20
-167.477576
 30
0.0
 10
138.460303
 20
-167.229926
 30
0.0
 10
138.850131
 20
-166.646508
 30
0.0
 10
138.850131
 20
-165.999368
 30
0.0
  0
SPLINE
  5
118
100
AcDbEntity
  8
Layer_3
 62
7
100
AcDbSpline
 70
8
 71
3
 72
8
 73
4
 74
0
 40
0
 40
0
 40
0
 40
0
 40
1
 40
1
 40
1
 40
1
 10
138.850131
 20
-165.999368
 30
0.0
 10
138.850131
 20
-165.575021
 30
0.0
 10
138.681560
 20
-165.168055
 30
0.0
 10
138.381501
 20
-164.867996
 30
0.0
  0
SPLINE
  5
119
100
AcDbEntity
  8
Layer_3
 62
7
100
AcDbSpline
 70
8
 71
3
 72
8
 73
4
 74
0
 40
0
 40
0
 40
0
 40
0
 40
1
 40
1
 40
1
 40
1
 10
138.381501
 20
-164.867996
 30
0.0
 10
138.081443
 20
-164.567938
 30
0.0
 10
137.674476
 20
-164.399367
 30
0.0
 10
137.250130
 20
-164.399367
 30
0.0
  0
LWPOLYLINE
  5
11a
100
AcDbEntity
  8
Layer_3
 62
7
100
AcDbPolyline
 90
1
 70
1
 10
62.750059
 20
-164.399367
 30
0.0
  0
SPLINE
  5
11b
100
AcDbEntity
  8
Layer_3
 62
7
100
AcDbSpline
 70
8
 71
3
 72
8
 73
4
 74
0
 40
0
 40
0
 40
0
 40
0
 40
1
 40
1
 40
1
 40
1
 10
79.967747
 20
-118.102675
 30
0.0
 10
79.320607
 20
-118.102675
 30
0.0
 10
78.737189
 20
-118.492502
 30
0.0
 10
78.489539
 20
-119.090382
 30
0.0
  0
SPLINE
  5
11c
100
AcDbEntity
  8
Layer_3
 62
7
100
AcDbSpline
 70
8
 71
3
 72
8
 73
4
 74
0
 40
0
 40
0
 40
0
 40
0
 40
1
 40
1
 40
1
 40
1
 10
78.489539
 20
-119.090382
 30
0.0
 10
78.241889
 20
-119.688261
 30
0.0
 10
78.378779
 20
-120.376450
 30
0.0
 10
78.836376
 20
-120.834047
 30
0.0
  0
SPLINE
  5
11d
100
AcDbEntity
  8
Layer_3
 62
7
100
AcDbSpline
 70
8
 71
3
 72
8
 73
4
 74
0
 40
0
 40
0
 40
0
 40
0
 40
1
 40
1
 40
1
 40
1
 10
78.836376
 20
-120.834047
 30
0.0
 10
79.293973
 20
-121.291644
 30
0.0
 10
79.982162
 20
-121.428534
 30
0.0
 10
80.580041
 20
-121.180884
 30
0.0
  0
SPLINE
  5
11e
100
AcDbEntity
  8
Layer_3
 62
7
100
AcDbSpline
 70
8
 71
3
 72
8
 73
4
 74
0
 40
0
 40
0
 40
0
 40
0
 40
1
 40
1
 40
1
 40
1
 10
80.580041
 20
-121.180884
 30
0.0
 10
81.177921
 20
-120.933234
 30
0.0
 10
81.567748
 20
-120.349816
 30
0.0
 10
81.567748
 20
-119.702676
 30
0.0
  0
SPLINE
  5
11f
100
AcDbEntity
  8
Layer_3
 62
7
100
AcDbSpline
 70
8
 71
3
 72
8
 73
4
 74
0
 40
0
 40
0
 40
0
 40
0
 40
1
 40
1
 40
1
 40
1
 10
81.567748
 20
-119.702676
 30
0.0
 10
81.567748
 20
-118.819020
 30
0.0
 10
80.851403
 20
-118.102675
 30
0.0
 10
79.967747
 20
-118.102675
 30
0.0
  0
LWPOLYLINE
  5
120
100
AcDbEntity
  8
Layer_3
 62
7
100
AcDbPolyline
 90
1
 70
1
 10
137.250130
 20
-164.399367
 30
0.0
  0
SPLINE
  5
121
100
AcDbEntity
  8
Layer_3
 62
7
100
AcDbSpline
 70
8
 71
3
 72
8
 73
4
 74
0
 40
0
 40
0
 40
0
 40
0
 40
1
 40
1
 40
1
 40
1
 10
120.003697
 20
-118.102675
 30
0.0
 10
119.356557
 20
-118.102675
 30
0.0
 10
118.773139
 20
-118.492502
 30
0.0
 10
118.525489
 20
-119.090382
 30
0.0
  0
SPLINE
  5
122
100
AcDbEntity
  8
Layer_3
 62
7
100
AcDbSpline
 70
8
 71
3
 72
8
 73
4
 74
0
 40
0
 40
0
 40
0
 40
0
 40
1
 40
1
 40
1
 40
1
 10
118.525489
 20
-119.090382
 30
0.0
 10
118.277839
 20
-119.688261
 30
0.0
 10
118.414729
 20
-120.376450
 30
0.0
 10
118.872326
 20
-120.834047
 30
0.0
  0
SPLINE
  5
123
100
AcDbEntity
  8
Layer_3
 62
7
100
AcDbSpline
 70
8
 71
3
 72
8
 73
4
 74
0
 40
0
 40
0
 40
0
 40
0
 40
1
 40
1
 40
1
 40
1
 10
118.872326
 20
-120.834047
 30
0.0
 10
119.329923
 20
-121.291644
 30
0.0
 10
120.018112
 20
-121.428534
 30
0.0
 10
120.615991
 20
-121.180884
 30
0.0
  0
SPLINE
  5
124
100
AcDbEntity
  8
Layer_3
 62
7
100
AcDbSpline
 70
8
 71
3
 72
8
 73
4
 74
0
 40
0
 40
0
 40
0
 40
0
 40
1
 40
1
 40
1
 40
1
 10
120.615991
 20
-121.180884
 30
0.0
 10
121.213871
 20
-120.933234
 30
0.0
 10
121.603698
 20
-120.349816
 30
0.0
 10
121.603698
 20
-119.702676
 30
0.0
  0
SPLINE
  5
125
100
AcDbEntity
  8
Layer_3
 62
7
100
AcDbSpline
 70
8
 71
3
 72
8
 73
4
 74
0
 40
0
 40
0
 40
0
 40
0
 40
1
 40
1
 40
1
 40
1
 10
121.603698
 20
-119.702676
 30
0.0
 10
121.603698
 20
-119.278329
 30
0.0
 10
121.435127
 20
-118.871363
 30
0.0
 10
121.135069
 20
-118.571304
 30
0.0
  0
SPLINE
  5
126
100
AcDbEntity
  8
Layer_3
 62
7
100
AcDbSpline
 70
8
 71
3
 72
8
 73
4
 74
0
 40
0
 40
0
 40
0
 40
0
 40
1
 40
1
 40
1
 40
1
 10
121.135069
 20
-118.571304
 30
0.0
 10
120.835011
 20
-118.271246
 30
0.0
 10
120.428044
 20
-118.102675
 30
0.0
 10
120.003697
 20
-118.102675
 30
0.0
  0
LWPOLYLINE
  5
127
100
AcDbEntity
  8
Layer_3
 62
7
100
AcDbPolyline
 90
1
 70
1
 10
79.967747
 20
-118.102675
 30
0.0
  0
SPLINE
  5
128
100
AcDbEntity
  8
Layer_3
 62
7
100
AcDbSpline
 70
8
 71
3
 72
8
 73
4
 74
0
 40
0
 40
0
 40
0
 40
0
 40
1
 40
1
 40
1
 40
1
 10
118.000111
 20
-86.397365
 30
0.0
 10
117.474310
 20
-86.397365
 30
0.0
 10
117.000283
 20
-86.714100
 30
0.0
 10
116.799067
 20
-87.199877
 30
0.0
  0
SPLINE
  5
129
100
AcDbEntity
  8
Layer_3
 62
7
100
AcDbSpline
 70
8
 71
3
 72
8
 73
4
 74
0
 40
0
 40
0
 40
0
 40
0
 40
1
 40
1
 40
1
 40
1
 10
116.799067
 20
-87.199877
 30
0.0
 10
116.597852
 20
-87.685653
 30
0.0
 10
116.709075
 20
-88.244807
 30
0.0
 10
117.080872
 20
-88.616605
 30
0.0
  0
SPLINE
  5
12a
100
AcDbEntity
  8
Layer_3
 62
7
100
AcDbSpline
 70
8
 71
3
 72
8
 73
4
 74
0
 40
0
 40
0
 40
0
 40
0
 40
1
 40
1
 40
1
 40
1
 10
117.080872
 20
-88.616605
 30
0.0
 10
117.452670
 20
-88.988402
 30
0.0
 10
118.011823
 20
-89.099625
 30
0.0
 10
118.497600
 20
-88.898409
 30
0.0
  0
SPLINE
  5
12b
100
AcDbEntity
  8
Layer_3
 62
7
100
AcDbSpline
 70
8
 71
3
 72
8
 73
4
 74
0
 40
0
 40
0
 40
0
 40
0
 40
1
 40
1
 40
1
 40
1
 10
118.497600
 20
-88.898409
 30
0.0
 10
118.983377
 20
-88.697194
 30
0.0
 10
119.300112
 20
-88.223166
 30
0.0
 10
119.300112
 20
-87.697365
 30
0.0
  0
SPLINE
  5
12c
100
AcDbEntity
  8
Layer_3
 62
7
100
AcDbSpline
 70
8
 71
3
 72
8
 73
4
 74
0
 40
0
 40
0
 40
0
 40
0
 40
1
 40
1
 40
1
 40
1
 10
119.300112
 20
-87.697365
 30
0.0
 10
119.300112
 20
-87.352584
 30
0.0
 10
119.163148
 20
-87.021923
 30
0.0
 10
118.919351
 20
-86.778126
 30
0.0
  0
SPLINE
  5
12d
100
AcDbEntity
  8
Layer_3
 62
7
100
AcDbSpline
 70
8
 71
3
 72
8
 73
4
 74
0
 40
0
 40
0
 40
0
 40
0
 40
1
 40
1
 40
1
 40
1
 10
118.919351
 20
-86.778126
 30
0.0
 10
118.675553
 20
-86.534328
 30
0.0
 10
118.344893
 20
-86.397365
 30
0.0
 10
118.000111
 20
-86.397365
 30
0.0
  0
LWPOLYLINE
  5
12e
100
AcDbEntity
  8
Layer_3
 62
7
100
AcDbPolyline
 90
1
 70
1
 10
120.003697
 20
-118.102675
 30
0.0
  0
SPLINE
  5
12f
100
AcDbEntity
  8
Layer_3
 62
7
100
AcDbSpline
 70
8
 71
3
 72
8
 73
4
 74
0
 40
0
 40
0
 40
0
 40
0
 40
1
 40
1
 40
1
 40
1
 10
82.000077
 20
-86.397365
 30
0.0
 10
81.474276
 20
-86.397365
 30
0.0
 10
81.000249
 20
-86.714100
 30
0.0
 10
80.799033
 20
-87.199877
 30
0.0
  0
SPLINE
  5
130
100
AcDbEntity
  8
Layer_3
 62
7
100
AcDbSpline
 70
8
 71
3
 72
8
 73
4
 74
0
 40
0
 40
0
 40
0
 40
0
 40
1
 40
1
 40
1
 40
1
 10
80.799033
 20
-87.199877
 30
0.0
 10
80.597818
 20
-87.685653
 30
0.0
 10
80.709040
 20
-88.244807
 30
0.0
 10
81.080838
 20
-88.616605
 30
0.0
  0
SPLINE
  5
131
100
AcDbEntity
  8
Layer_3
 62
7
100
AcDbSpline
 70
8
 71
3
 72
8
 73
4
 74
0
 40
0
 40
0
 40
0
 40
0
 40
1
 40
1
 40
1
 40
1
 10
81.080838
 20
-88.616605
 30
0.0
 10
81.452635
 20
-88.988402
 30
0.0
 10
82.011789
 20
-89.099625
 30
0.0
 10
82.497566
 20
-88.898409
 30
0.0
  0
SPLINE
  5
132
100
AcDbEntity
  8
Layer_3
 62
7
100
AcDbSpline
 70
8
 71
3
 72
8
 73
4
 74
0
 40
0
 40
0
 40
0
 40
0
 40
1
 40
1
 40
1
 40
1
 10
82.497566
 20
-88.898409
 30
0.0
 10
82.983343
 20
-88.697194
 30
0.0
 10
83.300078
 20
-88.223166
 30
0.0
 10
83.300078
 20
-87.697365
 30
0.0
  0
SPLINE
  5
133
100
AcDbEntity
  8
Layer_3
 62
7
100
AcDbSpline
 70
8
 71
3
 72
8
 73
4
 74
0
 40
0
 40
0
 40
0
 40
0
 40
1
 40
1
 40
1
 40
1
 10
83.300078
 20
-87.697365
 30
0.0
 10
83.300078
 20
-86.979395
 30
0.0
 10
82.718048
 20
-86.397365
 30
0.0
 10
82.000077
 20
-86.397365
 30
0.0
  0
LWPOLYLINE
  5
134
100
AcDbEntity
  8
Layer_3
 62
7
100
AcDbPolyline
 90
1
 70
1
 10
118.000111
 20
-86.397365
 30
0.0
  0
LWPOLYLINE
  5
135
100
AcDbEntity
  8
Layer_3
 62
7
100
AcDbPolyline
 90
1
 70
1
 10
82.000077
 20
-86.397365
 30
0.0
  0
LWPOLYLINE
  5
136
100
AcDbEntity
  8
Layer_3
 62
7
100
AcDbPolyline
 90
2
 70
0
 10
70.000066
 20
-162.299364
 30
0.0
 10
88.000083
 20
-162.299364
 30
0.0
  0
LWPOLYLINE
  5
137
100
AcDbEntity
  8
Layer_3
 62
7
100
AcDbPolyline
 90
2
 70
0
 10
72.412052
 20
-82.547539
 30
0.0
 10
63.173368
 20
-82.547539
 30
0.0
  0
LWPOLYLINE
  5
138
100
AcDbEntity
  8
Layer_3
 62
7
100
AcDbPolyline
 90
2
 70
0
 10
72.412052
 20
-83.447540
 30
0.0
 10
63.973369
 20
-83.447363
 30
0.0
  0
LWPOLYLINE
  5
139
100
AcDbEntity
  8
Layer_3
 62
7
100
AcDbPolyline
 90
2
 70
0
 10
72.412052
 20
-91.947372
 30
0.0
 10
72.412052
 20
-92.847373
 30
0.0
  0
LWPOLYLINE
  5
13a
100
AcDbEntity
  8
Layer_3
 62
7
100
AcDbPolyline
 90
2
 70
0
 10
73.612053
 20
-82.547539
 30
0.0
 10
73.612053
 20
-83.447363
 30
0.0
  0
LWPOLYLINE
  5
13b
100
AcDbEntity
  8
Layer_3
 62
7
100
AcDbPolyline
 90
2
 70
0
 10
126.412099
 20
-82.547539
 30
0.0
 10
126.412099
 20
-83.447363
 30
0.0
  0
LWPOLYLINE
  5
13c
100
AcDbEntity
  8
Layer_3
 62
7
100
AcDbPolyline
 90
2
 70
0
 10
73.612053
 20
-91.947372
 30
0.0
 10
73.612053
 20
-92.847373
 30
0.0
  0
LWPOLYLINE
  5
13d
100
AcDbEntity
  8
Layer_3
 62
7
100
AcDbPolyline
 90
2
 70
0
 10
126.412099
 20
-91.947372
 30
0.0
 10
126.412099
 20
-92.847373
 30
0.0
  0
LWPOLYLINE
  5
13e
100
AcDbEntity
  8
Layer_3
 62
7
100
AcDbPolyline
 90
2
 70
0
 10
127.612101
 20
-91.947372
 30
0.0
 10
127.612101
 20
-92.847373
 30
0.0
  0
LWPOLYLINE
  5
13f
100
AcDbEntity
  8
Layer_3
 62
7
100
AcDbPolyline
 90
2
 70
0
 10
127.612101
 20
-82.547539
 30
0.0
 10
127.612101
 20
-83.447363
 30
0.0
  0
LWPOLYLINE
  5
140
100
AcDbEntity
  8
Layer_3
 62
7
100
AcDbPolyline
 90
2
 70
0
 10
135.998409
 20
-91.947372
 30
0.0
 10
135.998409
 20
-83.447363
 30
0.0
  0
LWPOLYLINE
  5
141
100
AcDbEntity
  8
Layer_3
 62
7
100
AcDbPolyline
 90
2
 70
0
 10
136.798409
 20
-82.547539
 30
0.0
 10
136.798409
 20
-92.847373
 30
0.0
  0
LWPOLYLINE
  5
142
100
AcDbEntity
  8
Layer_3
 62
7
100
AcDbPolyline
 90
2
 70
0
 10
73.612053
 20
-83.447363
 30
0.0
 10
99.412078
 20
-83.447363
 30
0.0
  0
LWPOLYLINE
  5
143
100
AcDbEntity
  8
Layer_3
 62
7
100
AcDbPolyline
 90
2
 70
0
 10
88.000083
 20
-162.299364
 30
0.0
 10
88.000083
 20
-169.981222
 30
0.0
  0
SPLINE
  5
144
100
AcDbEntity
  8
Layer_3
 62
7
100
AcDbSpline
 70
8
 71
3
 72
8
 73
4
 74
0
 40
0
 40
0
 40
0
 40
0
 40
1
 40
1
 40
1
 40
1
 10
58.741232
 20
-165.994158
 30
0.0
 10
58.741283
 20
-168.196248
 30
0.0
 10
60.526435
 20
-169.981373
 30
0.0
 10
62.728526
 20
-169.981392
 30
0.0
  0
LWPOLYLINE
  5
145
100
AcDbEntity
  8
Layer_3
 62
7
100
AcDbPolyline
 90
2
 70
0
 10
141.241544
 20
-33.962639
 30
0.0
 10
141.241544
 20
-165.994158
 30
0.0
  0
LWPOLYLINE
  5
146
100
AcDbEntity
  8
Layer_3
 62
7
100
AcDbPolyline
 90
2
 70
0
 10
107.450101
 20
-86.433525
 30
0.0
 10
111.850106
 20
-86.433525
 30
0.0
  0
LWPOLYLINE
  5
147
100
AcDbEntity
  8
Layer_3
 62
7
100
AcDbPolyline
 90
2
 70
0
 10
107.450101
 20
-88.361209
 30
0.0
 10
111.250105
 20
-88.361209
 30
0.0
  0
LWPOLYLINE
  5
148
100
AcDbEntity
  8
Layer_3
 62
7
100
AcDbPolyline
 90
2
 70
0
 10
70.000066
 20
-169.981222
 30
0.0
 10
62.728526
 20
-169.981042
 30
0.0
  0
LWPOLYLINE
  5
149
100
AcDbEntity
  8
Layer_3
 62
7
100
AcDbPolyline
 90
2
 70
0
 10
100.612075
 20
-82.547539
 30
0.0
 10
100.612075
 20
-83.447363
 30
0.0
  0
LWPOLYLINE
  5
14a
100
AcDbEntity
  8
Layer_3
 62
7
100
AcDbPolyline
 90
2
 70
0
 10
100.612075
 20
-91.947372
 30
0.0
 10
100.612075
 20
-92.847373
 30
0.0
  0
LWPOLYLINE
  5
14b
100
AcDbEntity
  8
Layer_3
 62
7
100
AcDbPolyline
 90
2
 70
0
 10
100.612075
 20
-91.947372
 30
0.0
 10
126.412099
 20
-91.947372
 30
0.0
  0
LWPOLYLINE
  5
14c
100
AcDbEntity
  8
Layer_3
 62
7
100
AcDbPolyline
 90
2
 70
0
 10
99.412078
 20
-91.947372
 30
0.0
 10
99.412078
 20
-92.847373
 30
0.0
  0
LWPOLYLINE
  5
14d
100
AcDbEntity
  8
Layer_3
 62
7
100
AcDbPolyline
 90
2
 70
0
 10
63.173368
 20
-82.547539
 30
0.0
 10
63.173368
 20
-92.847373
 30
0.0
  0
SPLINE
  5
14e
100
AcDbEntity
  8
Layer_3
 62
7
100
AcDbSpline
 70
8
 71
3
 72
8
 73
4
 74
0
 40
0
 40
0
 40
0
 40
0
 40
1
 40
1
 40
1
 40
1
 10
62.728526
 20
-29.975745
 30
0.0
 10
61.671089
 20
-29.975743
 30
0.0
 10
60.656962
 20
-30.395808
 30
0.0
 10
59.909241
 20
-31.143530
 30
0.0
  0
SPLINE
  5
14f
100
AcDbEntity
  8
Layer_3
 62
7
100
AcDbSpline
 70
8
 71
3
 72
8
 73
4
 74
0
 40
0
 40
0
 40
0
 40
0
 40
1
 40
1
 40
1
 40
1
 10
59.909241
 20
-31.143530
 30
0.0
 10
59.161521
 20
-31.891251
 30
0.0
 10
58.741458
 20
-32.905379
 30
0.0
 10
58.741462
 20
-33.962816
 30
0.0
  0
LWPOLYLINE
  5
150
100
AcDbEntity
  8
Layer_3
 62
7
100
AcDbPolyline
 90
2
 70
0
 10
72.412052
 20
-82.547539
 30
0.0
 10
72.412052
 20
-83.447363
 30
0.0
  0
LWPOLYLINE
  5
151
100
AcDbEntity
  8
Layer_3
 62
7
100
AcDbPolyline
 90
2
 70
0
 10
73.612053
 20
-92.847373
 30
0.0
 10
99.412078
 20
-92.847373
 30
0.0
  0
LWPOLYLINE
  5
152
100
AcDbEntity
  8
Layer_3
 62
7
100
AcDbPolyline
 90
2
 70
0
 10
111.850106
 20
-86.433525
 30
0.0
 10
111.850106
 20
-88.961209
 30
0.0
  0
LWPOLYLINE
  5
153
100
AcDbEntity
  8
Layer_3
 62
7
100
AcDbPolyline
 90
2
 70
0
 10
107.450101
 20
-88.361209
 30
0.0
 10
107.450101
 20
-88.961209
 30
0.0
  0
LWPOLYLINE
  5
154
100
AcDbEntity
  8
Layer_3
 62
7
100
AcDbPolyline
 90
2
 70
0
 10
106.150100
 20
-88.961209
 30
0.0
 10
106.750101
 20
-88.961209
 30
0.0
  0
LWPOLYLINE
  5
155
100
AcDbEntity
  8
Layer_3
 62
7
100
AcDbPolyline
 90
2
 70
0
 10
107.450101
 20
-87.033526
 30
0.0
 10
111.250105
 20
-87.033526
 30
0.0
  0
LWPOLYLINE
  5
156
100
AcDbEntity
  8
Layer_3
 62
7
100
AcDbPolyline
 90
2
 70
0
 10
106.750101
 20
-86.433525
 30
0.0
 10
106.750101
 20
-88.961209
 30
0.0
  0
LWPOLYLINE
  5
157
100
AcDbEntity
  8
Layer_3
 62
7
100
AcDbPolyline
 90
2
 70
0
 10
107.450101
 20
-86.433525
 30
0.0
 10
107.450101
 20
-87.033526
 30
0.0
  0
LWPOLYLINE
  5
158
100
AcDbEntity
  8
Layer_3
 62
7
100
AcDbPolyline
 90
2
 70
0
 10
63.973369
 20
-83.447363
 30
0.0
 10
63.973369
 20
-91.947372
 30
0.0
  0
LWPOLYLINE
  5
159
100
AcDbEntity
  8
Layer_3
 62
7
100
AcDbPolyline
 90
2
 70
0
 10
127.612101
 20
-83.447363
 30
0.0
 10
135.998409
 20
-83.447363
 30
0.0
  0
LWPOLYLINE
  5
15a
100
AcDbEntity
  8
Layer_3
 62
7
100
AcDbPolyline
 90
2
 70
0
 10
127.612101
 20
-82.547539
 30
0.0
 10
136.798409
 20
-82.547539
 30
0.0
  0
LWPOLYLINE
  5
15b
100
AcDbEntity
  8
Layer_3
 62
7
100
AcDbPolyline
 90
2
 70
0
 10
63.973369
 20
-91.947372
 30
0.0
 10
72.412052
 20
-91.947372
 30
0.0
  0
LWPOLYLINE
  5
15c
100
AcDbEntity
  8
Layer_3
 62
7
100
AcDbPolyline
 90
2
 70
0
 10
70.000066
 20
-169.981222
 30
0.0
 10
70.000066
 20
-162.299364
 30
0.0
  0
LWPOLYLINE
  5
15d
100
AcDbEntity
  8
Layer_3
 62
7
100
AcDbPolyline
 90
2
 70
0
 10
106.150100
 20
-86.433525
 30
0.0
 10
106.150100
 20
-88.961209
 30
0.0
  0
LWPOLYLINE
  5
15e
100
AcDbEntity
  8
Layer_3
 62
7
100
AcDbPolyline
 90
2
 70
0
 10
100.612075
 20
-82.547539
 30
0.0
 10
126.412099
 20
-82.547539
 30
0.0
  0
SPLINE
  5
15f
100
AcDbEntity
  8
Layer_3
 62
7
100
AcDbSpline
 70
8
 71
3
 72
8
 73
4
 74
0
 40
0
 40
0
 40
0
 40
0
 40
1
 40
1
 40
1
 40
1
 10
141.241474
 20
-33.962639
 30
0.0
 10
141.241499
 20
-32.905161
 30
0.0
 10
140.821434
 20
-31.890986
 30
0.0
 10
140.073690
 20
-31.143229
 30
0.0
  0
SPLINE
  5
160
100
AcDbEntity
  8
Layer_3
 62
7
100
AcDbSpline
 70
8
 71
3
 72
8
 73
4
 74
0
 40
0
 40
0
 40
0
 40
0
 40
1
 40
1
 40
1
 40
1
 10
140.073690
 20
-31.143229
 30
0.0
 10
139.325946
 20
-30.395473
 30
0.0
 10
138.311778
 20
-29.975390
 30
0.0
 10
137.254300
 20
-29.975398
 30
0.0
  0
LWPOLYLINE
  5
161
100
AcDbEntity
  8
Layer_3
 62
7
100
AcDbPolyline
 90
2
 70
0
 10
137.254300
 20
-29.975752
 30
0.0
 10
62.728526
 20
-29.975752
 30
0.0
  0
LWPOLYLINE
  5
162
100
AcDbEntity
  8
Layer_3
 62
7
100
AcDbPolyline
 90
2
 70
0
 10
88.000083
 20
-169.981222
 30
0.0
 10
137.254300
 20
-169.981222
 30
0.0
  0
LWPOLYLINE
  5
163
100
AcDbEntity
  8
Layer_3
 62
7
100
AcDbPolyline
 90
2
 70
0
 10
127.612101
 20
-91.947372
 30
0.0
 10
135.998409
 20
-91.947372
 30
0.0
  0
LWPOLYLINE
  5
164
100
AcDbEntity
  8
Layer_3
 62
7
100
AcDbPolyline
 90
2
 70
0
 10
111.250105
 20
-87.033526
 30
0.0
 10
111.250105
 20
-88.361209
 30
0.0
  0
LWPOLYLINE
  5
165
100
AcDbEntity
  8
Layer_3
 62
7
100
AcDbPolyline
 90
2
 70
0
 10
107.450101
 20
-88.961209
 30
0.0
 10
111.850106
 20
-88.961209
 30
0.0
  0
LWPOLYLINE
  5
166
100
AcDbEntity
  8
Layer_3
 62
7
100
AcDbPolyline
 90
2
 70
0
 10
73.612053
 20
-82.547539
 30
0.0
 10
99.412078
 20
-82.547539
 30
0.0
  0
LWPOLYLINE
  5
167
100
AcDbEntity
  8
Layer_3
 62
7
100
AcDbPolyline
 90
2
 70
0
 10
106.150100
 20
-86.433525
 30
0.0
 10
106.750101
 20
-86.433525
 30
0.0
  0
LWPOLYLINE
  5
168
100
AcDbEntity
  8
Layer_3
 62
7
100
AcDbPolyline
 90
2
 70
0
 10
73.612053
 20
-91.947372
 30
0.0
 10
99.412078
 20
-91.947372
 30
0.0
  0
LWPOLYLINE
  5
169
100
AcDbEntity
  8
Layer_3
 62
7
100
AcDbPolyline
 90
2
 70
0
 10
100.612075
 20
-83.447363
 30
0.0
 10
126.412099
 20
-83.447363
 30
0.0
  0
SPLINE
  5
16a
100
AcDbEntity
  8
Layer_3
 62
7
100
AcDbSpline
 70
8
 71
3
 72
8
 73
4
 74
0
 40
0
 40
0
 40
0
 40
0
 40
1
 40
1
 40
1
 40
1
 10
137.254300
 20
-169.981202
 30
0.0
 10
138.311734
 20
-169.981210
 30
0.0
 10
139.325861
 20
-169.561151
 30
0.0
 10
140.073582
 20
-168.813434
 30
0.0
  0
SPLINE
  5
16b
100
AcDbEntity
  8
Layer_3
 62
7
100
AcDbSpline
 70
8
 71
3
 72
8
 73
4
 74
0
 40
0
 40
0
 40
0
 40
0
 40
1
 40
1
 40
1
 40
1
 10
140.073582
 20
-168.813434
 30
0.0
 10
140.821303
 20
-168.065717
 30
0.0
 10
141.241367
 20
-167.051592
 30
0.0
 10
141.241364
 20
-165.994158
 30
0.0
  0
LWPOLYLINE
  5
16c
100
AcDbEntity
  8
Layer_3
 62
7
100
AcDbPolyline
 90
2
 70
0
 10
63.173368
 20
-92.847373
 30
0.0
 10
72.412052
 20
-92.847373
 30
0.0
  0
LWPOLYLINE
  5
16d
100
AcDbEntity
  8
Layer_3
 62
7
100
AcDbPolyline
 90
2
 70
0
 10
127.612101
 20
-92.847373
 30
0.0
 10
136.798409
 20
-92.847373
 30
0.0
  0
LWPOLYLINE
  5
16e
100
AcDbEntity
  8
Layer_3
 62
7
100
AcDbPolyline
 90
2
 70
0
 10
100.612075
 20
-92.847373
 30
0.0
 10
126.412099
 20
-92.847373
 30
0.0
  0
LWPOLYLINE
  5
16f
100
AcDbEntity
  8
Layer_3
 62
7
100
AcDbPolyline
 90
2
 70
0
 10
99.412078
 20
-82.547539
 30
0.0
 10
99.412078
 20
-83.447363
 30
0.0
  0
SPLINE
  5
170
100
AcDbEntity
  8
Layer_3
 62
4
100
AcDbSpline
 70
8
 71
3
 72
8
 73
4
 74
0
 40
0
 40
0
 40
0
 40
0
 40
1
 40
1
 40
1
 40
1
 10
95.500091
 20
-86.347353
 30
0.0
 10
94.954066
 20
-86.347353
 30
0.0
 10
94.461807
 20
-86.676270
 30
0.0
 10
94.252852
 20
-87.180731
 30
0.0
  0
SPLINE
  5
171
100
AcDbEntity
  8
Layer_3
 62
4
100
AcDbSpline
 70
8
 71
3
 72
8
 73
4
 74
0
 40
0
 40
0
 40
0
 40
0
 40
1
 40
1
 40
1
 40
1
 10
94.252852
 20
-87.180731
 30
0.0
 10
94.043898
 20
-87.685192
 30
0.0
 10
94.159398
 20
-88.265851
 30
0.0
 10
94.545496
 20
-88.651949
 30
0.0
  0
SPLINE
  5
172
100
AcDbEntity
  8
Layer_3
 62
4
100
AcDbSpline
 70
8
 71
3
 72
8
 73
4
 74
0
 40
0
 40
0
 40
0
 40
0
 40
1
 40
1
 40
1
 40
1
 10
94.545496
 20
-88.651949
 30
0.0
 10
94.931594
 20
-89.038047
 30
0.0
 10
95.512253
 20
-89.153547
 30
0.0
 10
96.016714
 20
-88.944592
 30
0.0
  0
SPLINE
  5
173
100
AcDbEntity
  8
Layer_3
 62
4
100
AcDbSpline
 70
8
 71
3
 72
8
 73
4
 74
0
 40
0
 40
0
 40
0
 40
0
 40
1
 40
1
 40
1
 40
1
 10
96.016714
 20
-88.944592
 30
0.0
 10
96.521175
 20
-88.735638
 30
0.0
 10
96.850092
 20
-88.243378
 30
0.0
 10
96.850092
 20
-87.697354
 30
0.0
  0
SPLINE
  5
174
100
AcDbEntity
  8
Layer_3
 62
4
100
AcDbSpline
 70
8
 71
3
 72
8
 73
4
 74
0
 40
0
 40
0
 40
0
 40
0
 40
1
 40
1
 40
1
 40
1
 10
96.850092
 20
-87.697354
 30
0.0
 10
96.850092
 20
-87.339311
 30
0.0
 10
96.707860
 20
-86.995933
 30
0.0
 10
96.454686
 20
-86.742759
 30
0.0
  0
SPLINE
  5
175
100
AcDbEntity
  8
Layer_3
 62
4
100
AcDbSpline
 70
8
 71
3
 72
8
 73
4
 74
0
 40
0
 40
0
 40
0
 40
0
 40
1
 40
1
 40
1
 40
1
 10
96.454686
 20
-86.742759
 30
0.0
 10
96.201512
 20
-86.489584
 30
0.0
 10
95.858134
 20
-86.347353
 30
0.0
 10
95.500091
 20
-86.347353
 30
0.0
  0
LWPOLYLINE
  5
176
100
AcDbEntity
  8
Layer_3
 62
7
100
AcDbPolyline
 90
2
 70
0
 10
58.741462
 20
-33.962816
 30
0.0
 10
58.741285
 20
-165.994158
 30
0.0
  0
SPLINE
  5
177
100
AcDbEntity
  8
Layer_3
 62
4
100
AcDbSpline
 70
8
 71
3
 72
8
 73
4
 74
0
 40
0
 40
0
 40
0
 40
0
 40
1
 40
1
 40
1
 40
1
 10
104.500100
 20
-86.347353
 30
0.0
 10
103.954075
 20
-86.347353
 30
0.0
 10
103.461816
 20
-86.676270
 30
0.0
 10
103.252861
 20
-87.180731
 30
0.0
  0
SPLINE
  5
178
100
AcDbEntity
  8
Layer_3
 62
4
100
AcDbSpline
 70
8
 71
3
 72
8
 73
4
 74
0
 40
0
 40
0
 40
0
 40
0
 40
1
 40
1
 40
1
 40
1
 10
103.252861
 20
-87.180731
 30
0.0
 10
103.043906
 20
-87.685192
 30
0.0
 10
103.159407
 20
-88.265851
 30
0.0
 10
103.545504
 20
-88.651949
 30
0.0
  0
SPLINE
  5
179
100
AcDbEntity
  8
Layer_3
 62
4
100
AcDbSpline
 70
8
 71
3
 72
8
 73
4
 74
0
 40
0
 40
0
 40
0
 40
0
 40
1
 40
1
 40
1
 40
1
 10
103.545504
 20
-88.651949
 30
0.0
 10
103.931602
 20
-89.038047
 30
0.0
 10
104.512262
 20
-89.153547
 30
0.0
 10
105.016723
 20
-88.944592
 30
0.0
  0
SPLINE
  5
17a
100
AcDbEntity
  8
Layer_3
 62
4
100
AcDbSpline
 70
8
 71
3
 72
8
 73
4
 74
0
 40
0
 40
0
 40
0
 40
0
 40
1
 40
1
 40
1
 40
1
 10
105.016723
 20
-88.944592
 30
0.0
 10
105.521184
 20
-88.735638
 30
0.0
 10
105.850101
 20
-88.243378
 30
0.0
 10
105.850101
 20
-87.697354
 30
0.0
  0
SPLINE
  5
17b
100
AcDbEntity
  8
Layer_3
 62
4
100
AcDbSpline
 70
8
 71
3
 72
8
 73
4
 74
0
 40
0
 40
0
 40
0
 40
0
 40
1
 40
1
 40
1
 40
1
 10
105.850101
 20
-87.697354
 30
0.0
 10
105.850101
 20
-87.339311
 30
0.0
 10
105.707869
 20
-86.995933
 30
0.0
 10
105.454695
 20
-86.742759
 30
0.0
  0
SPLINE
  5
17c
100
AcDbEntity
  8
Layer_3
 62
4
100
AcDbSpline
 70
8
 71
3
 72
8
 73
4
 74
0
 40
0
 40
0
 40
0
 40
0
 40
1
 40
1
 40
1
 40
1
 10
105.454695
 20
-86.742759
 30
0.0
 10
105.201520
 20
-86.489584
 30
0.0
 10
104.858142
 20
-86.347353
 30
0.0
 10
104.500100
 20
-86.347353
 30
0.0
  0
LWPOLYLINE
  5
17d
100
AcDbEntity
  8
Layer_3
 62
4
100
AcDbPolyline
 90
1
 70
1
 10
95.500091
 20
-86.347353
 30
0.0
  0
SPLINE
  5
17e
100
AcDbEntity
  8
Layer_3
 62
4
100
AcDbSpline
 70
8
 71
3
 72
8
 73
4
 74
0
 40
0
 40
0
 40
0
 40
0
 40
1
 40
1
 40
1
 40
1
 10
68.500065
 20
-86.347353
 30
0.0
 10
67.954041
 20
-86.347353
 30
0.0
 10
67.461781
 20
-86.676270
 30
0.0
 10
67.252827
 20
-87.180731
 30
0.0
  0
SPLINE
  5
17f
100
AcDbEntity
  8
Layer_3
 62
4
100
AcDbSpline
 70
8
 71
3
 72
8
 73
4
 74
0
 40
0
 40
0
 40
0
 40
0
 40
1
 40
1
 40
1
 40
1
 10
67.252827
 20
-87.180731
 30
0.0
 10
67.043872
 20
-87.685192
 30
0.0
 10
67.159373
 20
-88.265851
 30
0.0
 10
67.545470
 20
-88.651949
 30
0.0
  0
SPLINE
  5
180
100
AcDbEntity
  8
Layer_3
 62
4
100
AcDbSpline
 70
8
 71
3
 72
8
 73
4
 74
0
 40
0
 40
0
 40
0
 40
0
 40
1
 40
1
 40
1
 40
1
 10
67.545470
 20
-88.651949
 30
0.0
 10
67.931568
 20
-89.038047
 30
0.0
 10
68.512227
 20
-89.153547
 30
0.0
 10
69.016688
 20
-88.944592
 30
0.0
  0
SPLINE
  5
181
100
AcDbEntity
  8
Layer_3
 62
4
100
AcDbSpline
 70
8
 71
3
 72
8
 73
4
 74
0
 40
0
 40
0
 40
0
 40
0
 40
1
 40
1
 40
1
 40
1
 10
69.016688
 20
-88.944592
 30
0.0
 10
69.521149
 20
-88.735638
 30
0.0
 10
69.850067
 20
-88.243378
 30
0.0
 10
69.850067
 20
-87.697354
 30
0.0
  0
SPLINE
  5
182
100
AcDbEntity
  8
Layer_3
 62
4
100
AcDbSpline
 70
8
 71
3
 72
8
 73
4
 74
0
 40
0
 40
0
 40
0
 40
0
 40
1
 40
1
 40
1
 40
1
 10
69.850067
 20
-87.697354
 30
0.0
 10
69.850067
 20
-87.339311
 30
0.0
 10
69.707835
 20
-86.995933
 30
0.0
 10
69.454660
 20
-86.742759
 30
0.0
  0
SPLINE
  5
183
100
AcDbEntity
  8
Layer_3
 62
4
100
AcDbSpline
 70
8
 71
3
 72
8
 73
4
 74
0
 40
0
 40
0
 40
0
 40
0
 40
1
 40
1
 40
1
 40
1
 10
69.454660
 20
-86.742759
 30
0.0
 10
69.201486
 20
-86.489584
 30
0.0
 10
68.858108
 20
-86.347353
 30
0.0
 10
68.500065
 20
-86.347353
 30
0.0
  0
LWPOLYLINE
  5
184
100
AcDbEntity
  8
Layer_3
 62
4
100
AcDbPolyline
 90
1
 70
1
 10
104.500100
 20
-86.347353
 30
0.0
  0
SPLINE
  5
185
100
AcDbEntity
  8
Layer_3
 62
4
100
AcDbSpline
 70
8
 71
3
 72
8
 73
4
 74
0
 40
0
 40
0
 40
0
 40
0
 40
1
 40
1
 40
1
 40
1
 10
86.500082
 20
-86.347353
 30
0.0
 10
85.954058
 20
-86.347353
 30
0.0
 10
85.461798
 20
-86.676270
 30
0.0
 10
85.252844
 20
-87.180731
 30
0.0
  0
SPLINE
  5
186
100
AcDbEntity
  8
Layer_3
 62
4
100
AcDbSpline
 70
8
 71
3
 72
8
 73
4
 74
0
 40
0
 40
0
 40
0
 40
0
 40
1
 40
1
 40
1
 40
1
 10
85.252844
 20
-87.180731
 30
0.0
 10
85.043889
 20
-87.685192
 30
0.0
 10
85.159390
 20
-88.265851
 30
0.0
 10
85.545487
 20
-88.651949
 30
0.0
  0
SPLINE
  5
187
100
AcDbEntity
  8
Layer_3
 62
4
100
AcDbSpline
 70
8
 71
3
 72
8
 73
4
 74
0
 40
0
 40
0
 40
0
 40
0
 40
1
 40
1
 40
1
 40
1
 10
85.545487
 20
-88.651949
 30
0.0
 10
85.931585
 20
-89.038047
 30
0.0
 10
86.512245
 20
-89.153547
 30
0.0
 10
87.016706
 20
-88.944592
 30
0.0
  0
SPLINE
  5
188
100
AcDbEntity
  8
Layer_3
 62
4
100
AcDbSpline
 70
8
 71
3
 72
8
 73
4
 74
0
 40
0
 40
0
 40
0
 40
0
 40
1
 40
1
 40
1
 40
1
 10
87.016706
 20
-88.944592
 30
0.0
 10
87.521166
 20
-88.735638
 30
0.0
 10
87.850084
 20
-88.243378
 30
0.0
 10
87.850084
 20
-87.697354
 30
0.0
  0
SPLINE
  5
189
100
AcDbEntity
  8
Layer_3
 62
4
100
AcDbSpline
 70
8
 71
3
 72
8
 73
4
 74
0
 40
0
 40
0
 40
0
 40
0
 40
1
 40
1
 40
1
 40
1
 10
87.850084
 20
-87.697354
 30
0.0
 10
87.850084
 20
-87.339311
 30
0.0
 10
87.707852
 20
-86.995933
 30
0.0
 10
87.454677
 20
-86.742759
 30
0.0
  0
SPLINE
  5
18a
100
AcDbEntity
  8
Layer_3
 62
4
100
AcDbSpline
 70
8
 71
3
 72
8
 73
4
 74
0
 40
0
 40
0
 40
0
 40
0
 40
1
 40
1
 40
1
 40
1
 10
87.454677
 20
-86.742759
 30
0.0
 10
87.201503
 20
-86.489584
 30
0.0
 10
86.858125
 20
-86.347353
 30
0.0
 10
86.500082
 20
-86.347353
 30
0.0
  0
LWPOLYLINE
  5
18b
100
AcDbEntity
  8
Layer_3
 62
4
100
AcDbPolyline
 90
1
 70
1
 10
68.500065
 20
-86.347353
 30
0.0
  0
SPLINE
  5
18c
100
AcDbEntity
  8
Layer_3
 62
4
100
AcDbSpline
 70
8
 71
3
 72
8
 73
4
 74
0
 40
0
 40
0
 40
0
 40
0
 40
1
 40
1
 40
1
 40
1
 10
122.500117
 20
-86.347353
 30
0.0
 10
121.954092
 20
-86.347353
 30
0.0
 10
121.461833
 20
-86.676270
 30
0.0
 10
121.252878
 20
-87.180731
 30
0.0
  0
SPLINE
  5
18d
100
AcDbEntity
  8
Layer_3
 62
4
100
AcDbSpline
 70
8
 71
3
 72
8
 73
4
 74
0
 40
0
 40
0
 40
0
 40
0
 40
1
 40
1
 40
1
 40
1
 10
121.252878
 20
-87.180731
 30
0.0
 10
121.043924
 20
-87.685192
 30
0.0
 10
121.159424
 20
-88.265851
 30
0.0
 10
121.545522
 20
-88.651949
 30
0.0
  0
SPLINE
  5
18e
100
AcDbEntity
  8
Layer_3
 62
4
100
AcDbSpline
 70
8
 71
3
 72
8
 73
4
 74
0
 40
0
 40
0
 40
0
 40
0
 40
1
 40
1
 40
1
 40
1
 10
121.545522
 20
-88.651949
 30
0.0
 10
121.931619
 20
-89.038047
 30
0.0
 10
122.512279
 20
-89.153547
 30
0.0
 10
123.016740
 20
-88.944592
 30
0.0
  0
SPLINE
  5
18f
100
AcDbEntity
  8
Layer_3
 62
4
100
AcDbSpline
 70
8
 71
3
 72
8
 73
4
 74
0
 40
0
 40
0
 40
0
 40
0
 40
1
 40
1
 40
1
 40
1
 10
123.016740
 20
-88.944592
 30
0.0
 10
123.521201
 20
-88.735638
 30
0.0
 10
123.850118
 20
-88.243378
 30
0.0
 10
123.850118
 20
-87.697354
 30
0.0
  0
SPLINE
  5
190
100
AcDbEntity
  8
Layer_3
 62
4
100
AcDbSpline
 70
8
 71
3
 72
8
 73
4
 74
0
 40
0
 40
0
 40
0
 40
0
 40
1
 40
1
 40
1
 40
1
 10
123.850118
 20
-87.697354
 30
0.0
 10
123.850118
 20
-87.339311
 30
0.0
 10
123.707886
 20
-86.995933
 30
0.0
 10
123.454712
 20
-86.742759
 30
0.0
  0
SPLINE
  5
191
100
AcDbEntity
  8
Layer_3
 62
4
100
AcDbSpline
 70
8
 71
3
 72
8
 73
4
 74
0
 40
0
 40
0
 40
0
 40
0
 40
1
 40
1
 40
1
 40
1
 10
123.454712
 20
-86.742759
 30
0.0
 10
123.201537
 20
-86.489584
 30
0.0
 10
122.858159
 20
-86.347353
 30
0.0
 10
122.500117
 20
-86.347353
 30
0.0
  0
LWPOLYLINE
  5
192
100
AcDbEntity
  8
Layer_3
 62
4
100
AcDbPolyline
 90
1
 70
1
 10
86.500082
 20
-86.347353
 30
0.0
  0
SPLINE
  5
193
100
AcDbEntity
  8
Layer_3
 62
4
100
AcDbSpline
 70
8
 71
3
 72
8
 73
4
 74
0
 40
0
 40
0
 40
0
 40
0
 40
1
 40
1
 40
1
 40
1
 10
77.500074
 20
-86.347353
 30
0.0
 10
76.954049
 20
-86.347353
 30
0.0
 10
76.461790
 20
-86.676270
 30
0.0
 10
76.252835
 20
-87.180731
 30
0.0
  0
SPLINE
  5
194
100
AcDbEntity
  8
Layer_3
 62
4
100
AcDbSpline
 70
8
 71
3
 72
8
 73
4
 74
0
 40
0
 40
0
 40
0
 40
0
 40
1
 40
1
 40
1
 40
1
 10
76.252835
 20
-87.180731
 30
0.0
 10
76.043881
 20
-87.685192
 30
0.0
 10
76.159381
 20
-88.265851
 30
0.0
 10
76.545479
 20
-88.651949
 30
0.0
  0
SPLINE
  5
195
100
AcDbEntity
  8
Layer_3
 62
4
100
AcDbSpline
 70
8
 71
3
 72
8
 73
4
 74
0
 40
0
 40
0
 40
0
 40
0
 40
1
 40
1
 40
1
 40
1
 10
76.545479
 20
-88.651949
 30
0.0
 10
76.931576
 20
-89.038047
 30
0.0
 10
77.512236
 20
-89.153547
 30
0.0
 10
78.016697
 20
-88.944592
 30
0.0
  0
SPLINE
  5
196
100
AcDbEntity
  8
Layer_3
 62
4
100
AcDbSpline
 70
8
 71
3
 72
8
 73
4
 74
0
 40
0
 40
0
 40
0
 40
0
 40
1
 40
1
 40
1
 40
1
 10
78.016697
 20
-88.944592
 30
0.0
 10
78.521158
 20
-88.735638
 30
0.0
 10
78.850075
 20
-88.243378
 30
0.0
 10
78.850075
 20
-87.697354
 30
0.0
  0
SPLINE
  5
197
100
AcDbEntity
  8
Layer_3
 62
4
100
AcDbSpline
 70
8
 71
3
 72
8
 73
4
 74
0
 40
0
 40
0
 40
0
 40
0
 40
1
 40
1
 40
1
 40
1
 10
78.850075
 20
-87.697354
 30
0.0
 10
78.850075
 20
-87.339311
 30
0.0
 10
78.707843
 20
-86.995933
 30
0.0
 10
78.454669
 20
-86.742759
 30
0.0
  0
SPLINE
  5
198
100
AcDbEntity
  8
Layer_3
 62
4
100
AcDbSpline
 70
8
 71
3
 72
8
 73
4
 74
0
 40
0
 40
0
 40
0
 40
0
 40
1
 40
1
 40
1
 40
1
 10
78.454669
 20
-86.742759
 30
0.0
 10
78.201495
 20
-86.489584
 30
0.0
 10
77.858116
 20
-86.347353
 30
0.0
 10
77.500074
 20
-86.347353
 30
0.0
  0
LWPOLYLINE
  5
199
100
AcDbEntity
  8
Layer_3
 62
4
100
AcDbPolyline
 90
1
 70
1
 10
122.500117
 20
-86.347353
 30
0.0
  0
SPLINE
  5
19a
100
AcDbEntity
  8
Layer_3
 62
4
100
AcDbSpline
 70
8
 71
3
 72
8
 73
4
 74
0
 40
0
 40
0
 40
0
 40
0
 40
1
 40
1
 40
1
 40
1
 10
113.500108
 20
-86.347353
 30
0.0
 10
112.954084
 20
-86.347353
 30
0.0
 10
112.461824
 20
-86.676270
 30
0.0
 10
112.252870
 20
-87.180731
 30
0.0
  0
SPLINE
  5
19b
100
AcDbEntity
  8
Layer_3
 62
4
100
AcDbSpline
 70
8
 71
3
 72
8
 73
4
 74
0
 40
0
 40
0
 40
0
 40
0
 40
1
 40
1
 40
1
 40
1
 10
112.252870
 20
-87.180731
 30
0.0
 10
112.043915
 20
-87.685192
 30
0.0
 10
112.159415
 20
-88.265851
 30
0.0
 10
112.545513
 20
-88.651949
 30
0.0
  0
SPLINE
  5
19c
100
AcDbEntity
  8
Layer_3
 62
4
100
AcDbSpline
 70
8
 71
3
 72
8
 73
4
 74
0
 40
0
 40
0
 40
0
 40
0
 40
1
 40
1
 40
1
 40
1
 10
112.545513
 20
-88.651949
 30
0.0
 10
112.931611
 20
-89.038047
 30
0.0
 10
113.512270
 20
-89.153547
 30
0.0
 10
114.016731
 20
-88.944592
 30
0.0
  0
SPLINE
  5
19d
100
AcDbEntity
  8
Layer_3
 62
4
100
AcDbSpline
 70
8
 71
3
 72
8
 73
4
 74
0
 40
0
 40
0
 40
0
 40
0
 40
1
 40
1
 40
1
 40
1
 10
114.016731
 20
-88.944592
 30
0.0
 10
114.521192
 20
-88.735638
 30
0.0
 10
114.850109
 20
-88.243378
 30
0.0
 10
114.850109
 20
-87.697354
 30
0.0
  0
SPLINE
  5
19e
100
AcDbEntity
  8
Layer_3
 62
4
100
AcDbSpline
 70
8
 71
3
 72
8
 73
4
 74
0
 40
0
 40
0
 40
0
 40
0
 40
1
 40
1
 40
1
 40
1
 10
114.850109
 20
-87.697354
 30
0.0
 10
114.850109
 20
-87.339311
 30
0.0
 10
114.707878
 20
-86.995933
 30
0.0
 10
114.454703
 20
-86.742759
 30
0.0
  0
SPLINE
  5
19f
100
AcDbEntity
  8
Layer_3
 62
4
100
AcDbSpline
 70
8
 71
3
 72
8
 73
4
 74
0
 40
0
 40
0
 40
0
 40
0
 40
1
 40
1
 40
1
 40
1
 10
114.454703
 20
-86.742759
 30
0.0
 10
114.201529
 20
-86.489584
 30
0.0
 10
113.858151
 20
-86.347353
 30
0.0
 10
113.500108
 20
-86.347353
 30
0.0
  0
LWPOLYLINE
  5
1a0
100
AcDbEntity
  8
Layer_3
 62
4
100
AcDbPolyline
 90
1
 70
1
 10
77.500074
 20
-86.347353
 30
0.0
  0
SPLINE
  5
1a1
100
AcDbEntity
  8
Layer_3
 62
4
100
AcDbSpline
 70
8
 71
3
 72
8
 73
4
 74
0
 40
0
 40
0
 40
0
 40
0
 40
1
 40
1
 40
1
 40
1
 10
131.500125
 20
-86.347353
 30
0.0
 10
130.954101
 20
-86.347353
 30
0.0
 10
130.461841
 20
-86.676270
 30
0.0
 10
130.252887
 20
-87.180731
 30
0.0
  0
SPLINE
  5
1a2
100
AcDbEntity
  8
Layer_3
 62
4
100
AcDbSpline
 70
8
 71
3
 72
8
 73
4
 74
0
 40
0
 40
0
 40
0
 40
0
 40
1
 40
1
 40
1
 40
1
 10
130.252887
 20
-87.180731
 30
0.0
 10
130.043932
 20
-87.685192
 30
0.0
 10
130.159433
 20
-88.265851
 30
0.0
 10
130.545530
 20
-88.651949
 30
0.0
  0
SPLINE
  5
1a3
100
AcDbEntity
  8
Layer_3
 62
4
100
AcDbSpline
 70
8
 71
3
 72
8
 73
4
 74
0
 40
0
 40
0
 40
0
 40
0
 40
1
 40
1
 40
1
 40
1
 10
130.545530
 20
-88.651949
 30
0.0
 10
130.931628
 20
-89.038047
 30
0.0
 10
131.512287
 20
-89.153547
 30
0.0
 10
132.016748
 20
-88.944592
 30
0.0
  0
SPLINE
  5
1a4
100
AcDbEntity
  8
Layer_3
 62
4
100
AcDbSpline
 70
8
 71
3
 72
8
 73
4
 74
0
 40
0
 40
0
 40
0
 40
0
 40
1
 40
1
 40
1
 40
1
 10
132.016748
 20
-88.944592
 30
0.0
 10
132.521209
 20
-88.735638
 30
0.0
 10
132.850127
 20
-88.243378
 30
0.0
 10
132.850127
 20
-87.697354
 30
0.0
  0
SPLINE
  5
1a5
100
AcDbEntity
  8
Layer_3
 62
4
100
AcDbSpline
 70
8
 71
3
 72
8
 73
4
 74
0
 40
0
 40
0
 40
0
 40
0
 40
1
 40
1
 40
1
 40
1
 10
132.850127
 20
-87.697354
 30
0.0
 10
132.850127
 20
-87.339311
 30
0.0
 10
132.707895
 20
-86.995933
 30
0.0
 10
132.454720
 20
-86.742759
 30
0.0
  0
SPLINE
  5
1a6
100
AcDbEntity
  8
Layer_3
 62
4
100
AcDbSpline
 70
8
 71
3
 72
8
 73
4
 74
0
 40
0
 40
0
 40
0
 40
0
 40
1
 40
1
 40
1
 40
1
 10
132.454720
 20
-86.742759
 30
0.0
 10
132.201546
 20
-86.489584
 30
0.0
 10
131.858168
 20
-86.347353
 30
0.0
 10
131.500125
 20
-86.347353
 30
0.0
  0
LWPOLYLINE
  5
1a7
100
AcDbEntity
  8
Layer_3
 62
4
100
AcDbPolyline
 90
1
 70
1
 10
113.500108
 20
-86.347353
 30
0.0
  0
LWPOLYLINE
  5
1a8
100
AcDbEntity
  8
Layer_3
 62
4
100
AcDbPolyline
 90
1
 70
1
 10
131.500125
 20
-86.347353
 30
0.0
  0
LWPOLYLINE
  5
1a9
100
AcDbEntity
  8
Layer_3
 62
1
100
AcDbPolyline
 90
2
 70
0
 10
135.684909
 20
-83.760359
 30
0.0
 10
73.000071
 20
-83.760359
 30
0.0
  0
LWPOLYLINE
  5
1aa
100
AcDbEntity
  8
Layer_3
 62
1
100
AcDbPolyline
 90
2
 70
0
 10
73.000071
 20
-91.634367
 30
0.0
 10
135.684909
 20
-91.634367
 30
0.0
  0
LWPOLYLINE
  5
1ab
100
AcDbEntity
  8
Layer_3
 62
1
100
AcDbPolyline
 90
2
 70
0
 10
70.458360
 20
-86.046361
 30
0.0
 10
64.286871
 20
-86.046361
 30
0.0
  0
LWPOLYLINE
  5
1ac
100
AcDbEntity
  8
Layer_3
 62
7
100
AcDbPolyline
 90
2
 70
0
 10
70.712360
 20
-86.046362
 30
0.0
 10
135.684910
 20
-86.046362
 30
0.0
  0
LWPOLYLINE
  5
1ad
100
AcDbEntity
  8
Layer_3
 62
1
100
AcDbPolyline
 90
2
 70
0
 10
64.286871
 20
-89.348364
 30
0.0
 10
70.458360
 20
-89.348364
 30
0.0
  0
LWPOLYLINE
  5
1ae
100
AcDbEntity
  8
Layer_3
 62
1
100
AcDbPolyline
 90
2
 70
0
 10
72.744362
 20
-91.634367
 30
0.0
 10
64.286871
 20
-91.634367
 30
0.0
  0
LWPOLYLINE
  5
1af
100
AcDbEntity
  8
Layer_3
 62
1
100
AcDbPolyline
 90
2
 70
0
 10
135.684909
 20
-89.348364
 30
0.0
 10
70.712360
 20
-89.348364
 30
0.0
  0
LWPOLYLINE
  5
1b0
100
AcDbEntity
  8
Layer_3
 62
1
100
AcDbPolyline
 90
2
 70
0
 10
64.286871
 20
-83.760359
 30
0.0
 10
72.744362
 20
-83.760359
 30
0.0
  0
LWPOLYLINE
  5
1b1
100
AcDbEntity
  8
Layer_3
 62
1
100
AcDbPolyline
 90
4
 70
1
 10
69.500067
 20
-87.297362
 30
0.0
 10
69.500067
 20
-88.097362
 30
0.0
 10
69.000066
 20
-88.097362
 30
0.0
 10
69.000066
 20
-87.297362
 30
0.0
  0
LWPOLYLINE
  5
1b2
100
AcDbEntity
  8
Layer_3
 62
1
100
AcDbPolyline
 90
4
 70
1
 10
68.000065
 20
-87.297362
 30
0.0
 10
68.000065
 20
-88.097362
 30
0.0
 10
67.500065
 20
-88.097362
 30
0.0
 10
67.500065
 20
-87.297362
 30
0.0
  0
LWPOLYLINE
  5
1b3
100
AcDbEntity
  8
Layer_3
 62
1
100
AcDbPolyline
 90
4
 70
1
 10
78.500075
 20
-87.297362
 30
0.0
 10
78.500075
 20
-88.097362
 30
0.0
 10
78.000075
 20
-88.097362
 30
0.0
 10
78.000075
 20
-87.297362
 30
0.0
  0
LWPOLYLINE
  5
1b4
100
AcDbEntity
  8
Layer_3
 62
1
100
AcDbPolyline
 90
4
 70
1
 10
77.000074
 20
-87.297362
 30
0.0
 10
77.000074
 20
-88.097362
 30
0.0
 10
76.500073
 20
-88.097362
 30
0.0
 10
76.500073
 20
-87.297362
 30
0.0
  0
LWPOLYLINE
  5
1b5
100
AcDbEntity
  8
Layer_3
 62
1
100
AcDbPolyline
 90
4
 70
1
 10
87.500084
 20
-87.297362
 30
0.0
 10
87.500084
 20
-88.097362
 30
0.0
 10
87.000083
 20
-88.097362
 30
0.0
 10
87.000083
 20
-87.297362
 30
0.0
  0
LWPOLYLINE
  5
1b6
100
AcDbEntity
  8
Layer_3
 62
1
100
AcDbPolyline
 90
4
 70
1
 10
86.000083
 20
-87.297362
 30
0.0
 10
86.000083
 20
-88.097362
 30
0.0
 10
85.500082
 20
-88.097362
 30
0.0
 10
85.500082
 20
-87.297362
 30
0.0
  0
LWPOLYLINE
  5
1b7
100
AcDbEntity
  8
Layer_3
 62
1
100
AcDbPolyline
 90
4
 70
1
 10
96.500093
 20
-87.297362
 30
0.0
 10
96.500093
 20
-88.097362
 30
0.0
 10
96.000092
 20
-88.097362
 30
0.0
 10
96.000092
 20
-87.297362
 30
0.0
  0
LWPOLYLINE
  5
1b8
100
AcDbEntity
  8
Layer_3
 62
1
100
AcDbPolyline
 90
4
 70
1
 10
95.000091
 20
-87.297362
 30
0.0
 10
95.000091
 20
-88.097362
 30
0.0
 10
94.500091
 20
-88.097362
 30
0.0
 10
94.500091
 20
-87.297362
 30
0.0
  0
LWPOLYLINE
  5
1b9
100
AcDbEntity
  8
Layer_3
 62
1
100
AcDbPolyline
 90
4
 70
1
 10
105.500101
 20
-87.297362
 30
0.0
 10
105.500101
 20
-88.097362
 30
0.0
 10
105.000101
 20
-88.097362
 30
0.0
 10
105.000101
 20
-87.297362
 30
0.0
  0
LWPOLYLINE
  5
1ba
100
AcDbEntity
  8
Layer_3
 62
1
100
AcDbPolyline
 90
4
 70
1
 10
104.000100
 20
-87.297362
 30
0.0
 10
104.000100
 20
-88.097362
 30
0.0
 10
103.500099
 20
-88.097362
 30
0.0
 10
103.500099
 20
-87.297362
 30
0.0
  0
LWPOLYLINE
  5
1bb
100
AcDbEntity
  8
Layer_3
 62
1
100
AcDbPolyline
 90
4
 70
1
 10
123.500118
 20
-87.297362
 30
0.0
 10
123.500118
 20
-88.097362
 30
0.0
 10
123.000118
 20
-88.097362
 30
0.0
 10
123.000118
 20
-87.297362
 30
0.0
  0
LWPOLYLINE
  5
1bc
100
AcDbEntity
  8
Layer_3
 62
1
100
AcDbPolyline
 90
4
 70
1
 10
122.000117
 20
-87.297362
 30
0.0
 10
122.000117
 20
-88.097362
 30
0.0
 10
121.500116
 20
-88.097362
 30
0.0
 10
121.500116
 20
-87.297362
 30
0.0
  0
LWPOLYLINE
  5
1bd
100
AcDbEntity
  8
Layer_3
 62
1
100
AcDbPolyline
 90
4
 70
1
 10
114.500110
 20
-87.297362
 30
0.0
 10
114.500110
 20
-88.097362
 30
0.0
 10
114.000109
 20
-88.097362
 30
0.0
 10
114.000109
 20
-87.297362
 30
0.0
  0
LWPOLYLINE
  5
1be
100
AcDbEntity
  8
Layer_3
 62
1
100
AcDbPolyline
 90
4
 70
1
 10
113.000108
 20
-87.297362
 30
0.0
 10
113.000108
 20
-88.097362
 30
0.0
 10
112.500108
 20
-88.097362
 30
0.0
 10
112.500108
 20
-87.297362
 30
0.0
  0
LWPOLYLINE
  5
1bf
100
AcDbEntity
  8
Layer_3
 62
1
100
AcDbPolyline
 90
20
 70
1
 10
110.960106
 20
-87.867362
 30
0.0
 10
110.949446
 20
-87.920938
 30
0.0
 10
110.919106
 20
-87.966357
 30
0.0
 10
110.873686
 20
-87.996705
 30
0.0
 10
110.820106
 20
-88.007362
 30
0.0
 10
110.540106
 20
-88.007362
 30
0.0
 10
110.486526
 20
-87.996705
 30
0.0
 10
110.441116
 20
-87.966357
 30
0.0
 10
110.410766
 20
-87.920938
 30
0.0
 10
110.400106
 20
-87.867362
 30
0.0
 10
110.400106
 20
-87.527362
 30
0.0
 10
110.410766
 20
-87.473786
 30
0.0
 10
110.441116
 20
-87.428367
 30
0.0
 10
110.486526
 20
-87.398019
 30
0.0
 10
110.540106
 20
-87.387362
 30
0.0
 10
110.820106
 20
-87.387362
 30
0.0
 10
110.873686
 20
-87.398019
 30
0.0
 10
110.919106
 20
-87.428367
 30
0.0
 10
110.949446
 20
-87.473786
 30
0.0
 10
110.960106
 20
-87.527362
 30
0.0
  0
LWPOLYLINE
  5
1c0
100
AcDbEntity
  8
Layer_3
 62
1
100
AcDbPolyline
 90
20
 70
1
 10
110.000105
 20
-87.867362
 30
0.0
 10
109.989445
 20
-87.920938
 30
0.0
 10
109.959105
 20
-87.966357
 30
0.0
 10
109.913685
 20
-87.996705
 30
0.0
 10
109.860105
 20
-88.007362
 30
0.0
 10
109.580105
 20
-88.007362
 30
0.0
 10
109.526525
 20
-87.996705
 30
0.0
 10
109.481115
 20
-87.966357
 30
0.0
 10
109.450765
 20
-87.920938
 30
0.0
 10
109.440105
 20
-87.867362
 30
0.0
 10
109.440105
 20
-87.527362
 30
0.0
 10
109.450765
 20
-87.473786
 30
0.0
 10
109.481115
 20
-87.428367
 30
0.0
 10
109.526525
 20
-87.398019
 30
0.0
 10
109.580105
 20
-87.387362
 30
0.0
 10
109.860105
 20
-87.387362
 30
0.0
 10
109.913685
 20
-87.398019
 30
0.0
 10
109.959105
 20
-87.428367
 30
0.0
 10
109.989445
 20
-87.473786
 30
0.0
 10
110.000105
 20
-87.527362
 30
0.0
  0
LWPOLYLINE
  5
1c1
100
AcDbEntity
  8
Layer_3
 62
1
100
AcDbPolyline
 90
4
 70
1
 10
132.500127
 20
-87.297362
 30
0.0
 10
132.500127
 20
-88.097362
 30
0.0
 10
132.000126
 20
-88.097362
 30
0.0
 10
132.000126
 20
-87.297362
 30
0.0
  0
SPLINE
  5
1c2
100
AcDbEntity
  8
Layer_3
 62
4
100
AcDbSpline
 70
8
 71
3
 72
8
 73
4
 74
0
 40
0
 40
0
 40
0
 40
0
 40
1
 40
1
 40
1
 40
1
 10
117.986496
 20
-86.138551
 30
0.0
 10
117.362468
 20
-86.138551
 30
0.0
 10
116.799886
 20
-86.514457
 30
0.0
 10
116.561081
 20
-87.090983
 30
0.0
  0
SPLINE
  5
1c3
100
AcDbEntity
  8
Layer_3
 62
4
100
AcDbSpline
 70
8
 71
3
 72
8
 73
4
 74
0
 40
0
 40
0
 40
0
 40
0
 40
1
 40
1
 40
1
 40
1
 10
116.561081
 20
-87.090983
 30
0.0
 10
116.322276
 20
-87.667510
 30
0.0
 10
116.454276
 20
-88.331121
 30
0.0
 10
116.895531
 20
-88.772375
 30
0.0
  0
SPLINE
  5
1c4
100
AcDbEntity
  8
Layer_3
 62
4
100
AcDbSpline
 70
8
 71
3
 72
8
 73
4
 74
0
 40
0
 40
0
 40
0
 40
0
 40
1
 40
1
 40
1
 40
1
 10
116.895531
 20
-88.772375
 30
0.0
 10
117.336785
 20
-89.213630
 30
0.0
 10
118.000396
 20
-89.345630
 30
0.0
 10
118.576923
 20
-89.106825
 30
0.0
  0
SPLINE
  5
1c5
100
AcDbEntity
  8
Layer_3
 62
4
100
AcDbSpline
 70
8
 71
3
 72
8
 73
4
 74
0
 40
0
 40
0
 40
0
 40
0
 40
1
 40
1
 40
1
 40
1
 10
118.576923
 20
-89.106825
 30
0.0
 10
119.153450
 20
-88.868020
 30
0.0
 10
119.529355
 20
-88.305438
 30
0.0
 10
119.529355
 20
-87.681410
 30
0.0
  0
SPLINE
  5
1c6
100
AcDbEntity
  8
Layer_3
 62
4
100
AcDbSpline
 70
8
 71
3
 72
8
 73
4
 74
0
 40
0
 40
0
 40
0
 40
0
 40
1
 40
1
 40
1
 40
1
 10
119.529355
 20
-87.681410
 30
0.0
 10
119.529355
 20
-87.272218
 30
0.0
 10
119.366804
 20
-86.879786
 30
0.0
 10
119.077462
 20
-86.590444
 30
0.0
  0
SPLINE
  5
1c7
100
AcDbEntity
  8
Layer_3
 62
4
100
AcDbSpline
 70
8
 71
3
 72
8
 73
4
 74
0
 40
0
 40
0
 40
0
 40
0
 40
1
 40
1
 40
1
 40
1
 10
119.077462
 20
-86.590444
 30
0.0
 10
118.788120
 20
-86.301102
 30
0.0
 10
118.395688
 20
-86.138551
 30
0.0
 10
117.986496
 20
-86.138551
 30
0.0
  0
LWPOLYLINE
  5
1c8
100
AcDbEntity
  8
Layer_3
 62
1
100
AcDbPolyline
 90
4
 70
1
 10
131.000125
 20
-87.297362
 30
0.0
 10
131.000125
 20
-88.097362
 30
0.0
 10
130.500125
 20
-88.097362
 30
0.0
 10
130.500125
 20
-87.297362
 30
0.0
  0
SPLINE
  5
1c9
100
AcDbEntity
  8
Layer_3
 62
4
100
AcDbSpline
 70
8
 71
3
 72
8
 73
4
 74
0
 40
0
 40
0
 40
0
 40
0
 40
1
 40
1
 40
1
 40
1
 10
81.979190
 20
-86.138511
 30
0.0
 10
81.355162
 20
-86.138511
 30
0.0
 10
80.792580
 20
-86.514417
 30
0.0
 10
80.553775
 20
-87.090943
 30
0.0
  0
SPLINE
  5
1ca
100
AcDbEntity
  8
Layer_3
 62
4
100
AcDbSpline
 70
8
 71
3
 72
8
 73
4
 74
0
 40
0
 40
0
 40
0
 40
0
 40
1
 40
1
 40
1
 40
1
 10
80.553775
 20
-87.090943
 30
0.0
 10
80.314969
 20
-87.667470
 30
0.0
 10
80.446970
 20
-88.331081
 30
0.0
 10
80.888224
 20
-88.772335
 30
0.0
  0
SPLINE
  5
1cb
100
AcDbEntity
  8
Layer_3
 62
4
100
AcDbSpline
 70
8
 71
3
 72
8
 73
4
 74
0
 40
0
 40
0
 40
0
 40
0
 40
1
 40
1
 40
1
 40
1
 10
80.888224
 20
-88.772335
 30
0.0
 10
81.329479
 20
-89.213590
 30
0.0
 10
81.993090
 20
-89.345590
 30
0.0
 10
82.569617
 20
-89.106785
 30
0.0
  0
SPLINE
  5
1cc
100
AcDbEntity
  8
Layer_3
 62
4
100
AcDbSpline
 70
8
 71
3
 72
8
 73
4
 74
0
 40
0
 40
0
 40
0
 40
0
 40
1
 40
1
 40
1
 40
1
 10
82.569617
 20
-89.106785
 30
0.0
 10
83.146143
 20
-88.867980
 30
0.0
 10
83.522049
 20
-88.305398
 30
0.0
 10
83.522049
 20
-87.681370
 30
0.0
  0
SPLINE
  5
1cd
100
AcDbEntity
  8
Layer_3
 62
4
100
AcDbSpline
 70
8
 71
3
 72
8
 73
4
 74
0
 40
0
 40
0
 40
0
 40
0
 40
1
 40
1
 40
1
 40
1
 10
83.522049
 20
-87.681370
 30
0.0
 10
83.522049
 20
-87.272178
 30
0.0
 10
83.359498
 20
-86.879746
 30
0.0
 10
83.070156
 20
-86.590404
 30
0.0
  0
SPLINE
  5
1ce
100
AcDbEntity
  8
Layer_3
 62
4
100
AcDbSpline
 70
8
 71
3
 72
8
 73
4
 74
0
 40
0
 40
0
 40
0
 40
0
 40
1
 40
1
 40
1
 40
1
 10
83.070156
 20
-86.590404
 30
0.0
 10
82.780814
 20
-86.301062
 30
0.0
 10
82.388382
 20
-86.138511
 30
0.0
 10
81.979190
 20
-86.138511
 30
0.0
  0
LWPOLYLINE
  5
1cf
100
AcDbEntity
  8
Layer_3
 62
4
100
AcDbPolyline
 90
1
 70
1
 10
117.986496
 20
-86.138551
 30
0.0
  0
SPLINE
  5
1d0
100
AcDbEntity
  8
Layer_3
 62
5
100
AcDbSpline
 70
8
 71
3
 72
8
 73
4
 74
0
 40
0
 40
0
 40
0
 40
0
 40
1
 40
1
 40
1
 40
1
 10
114.500107
 20
-32.841334
 30
0.0
 10
113.954083
 20
-32.841334
 30
0.0
 10
113.461824
 20
-33.170251
 30
0.0
 10
113.252869
 20
-33.674712
 30
0.0
  0
SPLINE
  5
1d1
100
AcDbEntity
  8
Layer_3
 62
5
100
AcDbSpline
 70
8
 71
3
 72
8
 73
4
 74
0
 40
0
 40
0
 40
0
 40
0
 40
1
 40
1
 40
1
 40
1
 10
113.252869
 20
-33.674712
 30
0.0
 10
113.043915
 20
-34.179173
 30
0.0
 10
113.159415
 20
-34.759832
 30
0.0
 10
113.545513
 20
-35.145930
 30
0.0
  0
SPLINE
  5
1d2
100
AcDbEntity
  8
Layer_3
 62
5
100
AcDbSpline
 70
8
 71
3
 72
8
 73
4
 74
0
 40
0
 40
0
 40
0
 40
0
 40
1
 40
1
 40
1
 40
1
 10
113.545513
 20
-35.145930
 30
0.0
 10
113.931610
 20
-35.532027
 30
0.0
 10
114.512270
 20
-35.647527
 30
0.0
 10
115.016730
 20
-35.438573
 30
0.0
  0
SPLINE
  5
1d3
100
AcDbEntity
  8
Layer_3
 62
5
100
AcDbSpline
 70
8
 71
3
 72
8
 73
4
 74
0
 40
0
 40
0
 40
0
 40
0
 40
1
 40
1
 40
1
 40
1
 10
115.016730
 20
-35.438573
 30
0.0
 10
115.521191
 20
-35.229619
 30
0.0
 10
115.850108
 20
-34.737359
 30
0.0
 10
115.850108
 20
-34.191335
 30
0.0
  0
SPLINE
  5
1d4
100
AcDbEntity
  8
Layer_3
 62
5
100
AcDbSpline
 70
8
 71
3
 72
8
 73
4
 74
0
 40
0
 40
0
 40
0
 40
0
 40
1
 40
1
 40
1
 40
1
 10
115.850108
 20
-34.191335
 30
0.0
 10
115.850108
 20
-33.833292
 30
0.0
 10
115.707876
 20
-33.489914
 30
0.0
 10
115.454702
 20
-33.236740
 30
0.0
  0
SPLINE
  5
1d5
100
AcDbEntity
  8
Layer_3
 62
5
100
AcDbSpline
 70
8
 71
3
 72
8
 73
4
 74
0
 40
0
 40
0
 40
0
 40
0
 40
1
 40
1
 40
1
 40
1
 10
115.454702
 20
-33.236740
 30
0.0
 10
115.201528
 20
-32.983566
 30
0.0
 10
114.858150
 20
-32.841334
 30
0.0
 10
114.500107
 20
-32.841334
 30
0.0
  0
LWPOLYLINE
  5
1d6
100
AcDbEntity
  8
Layer_3
 62
4
100
AcDbPolyline
 90
1
 70
1
 10
81.979190
 20
-86.138511
 30
0.0
  0
SPLINE
  5
1d7
100
AcDbEntity
  8
Layer_3
 62
5
100
AcDbSpline
 70
8
 71
3
 72
8
 73
4
 74
0
 40
0
 40
0
 40
0
 40
0
 40
1
 40
1
 40
1
 40
1
 10
79.500074
 20
-67.841363
 30
0.0
 10
78.954050
 20
-67.841363
 30
0.0
 10
78.461790
 20
-68.170281
 30
0.0
 10
78.252836
 20
-68.674741
 30
0.0
  0
SPLINE
  5
1d8
100
AcDbEntity
  8
Layer_3
 62
5
100
AcDbSpline
 70
8
 71
3
 72
8
 73
4
 74
0
 40
0
 40
0
 40
0
 40
0
 40
1
 40
1
 40
1
 40
1
 10
78.252836
 20
-68.674741
 30
0.0
 10
78.043881
 20
-69.179202
 30
0.0
 10
78.159382
 20
-69.759861
 30
0.0
 10
78.545479
 20
-70.145959
 30
0.0
  0
SPLINE
  5
1d9
100
AcDbEntity
  8
Layer_3
 62
5
100
AcDbSpline
 70
8
 71
3
 72
8
 73
4
 74
0
 40
0
 40
0
 40
0
 40
0
 40
1
 40
1
 40
1
 40
1
 10
78.545479
 20
-70.145959
 30
0.0
 10
78.931577
 20
-70.532056
 30
0.0
 10
79.512236
 20
-70.647557
 30
0.0
 10
80.016697
 20
-70.438602
 30
0.0
  0
SPLINE
  5
1da
100
AcDbEntity
  8
Layer_3
 62
5
100
AcDbSpline
 70
8
 71
3
 72
8
 73
4
 74
0
 40
0
 40
0
 40
0
 40
0
 40
1
 40
1
 40
1
 40
1
 10
80.016697
 20
-70.438602
 30
0.0
 10
80.521158
 20
-70.229648
 30
0.0
 10
80.850075
 20
-69.737389
 30
0.0
 10
80.850075
 20
-69.191364
 30
0.0
  0
SPLINE
  5
1db
100
AcDbEntity
  8
Layer_3
 62
5
100
AcDbSpline
 70
8
 71
3
 72
8
 73
4
 74
0
 40
0
 40
0
 40
0
 40
0
 40
1
 40
1
 40
1
 40
1
 10
80.850075
 20
-69.191364
 30
0.0
 10
80.850075
 20
-68.833322
 30
0.0
 10
80.707843
 20
-68.489944
 30
0.0
 10
80.454669
 20
-68.236770
 30
0.0
  0
SPLINE
  5
1dc
100
AcDbEntity
  8
Layer_3
 62
5
100
AcDbSpline
 70
8
 71
3
 72
8
 73
4
 74
0
 40
0
 40
0
 40
0
 40
0
 40
1
 40
1
 40
1
 40
1
 10
80.454669
 20
-68.236770
 30
0.0
 10
80.201494
 20
-67.983595
 30
0.0
 10
79.858116
 20
-67.841363
 30
0.0
 10
79.500074
 20
-67.841363
 30
0.0
  0
LWPOLYLINE
  5
1dd
100
AcDbEntity
  8
Layer_3
 62
5
100
AcDbPolyline
 90
1
 70
1
 10
114.500107
 20
-32.841334
 30
0.0
  0
SPLINE
  5
1de
100
AcDbEntity
  8
Layer_3
 62
5
100
AcDbSpline
 70
8
 71
3
 72
8
 73
4
 74
0
 40
0
 40
0
 40
0
 40
0
 40
1
 40
1
 40
1
 40
1
 10
114.500107
 20
-67.841363
 30
0.0
 10
113.954083
 20
-67.841363
 30
0.0
 10
113.461824
 20
-68.170281
 30
0.0
 10
113.252869
 20
-68.674741
 30
0.0
  0
SPLINE
  5
1df
100
AcDbEntity
  8
Layer_3
 62
5
100
AcDbSpline
 70
8
 71
3
 72
8
 73
4
 74
0
 40
0
 40
0
 40
0
 40
0
 40
1
 40
1
 40
1
 40
1
 10
113.252869
 20
-68.674741
 30
0.0
 10
113.043915
 20
-69.179202
 30
0.0
 10
113.159415
 20
-69.759861
 30
0.0
 10
113.545513
 20
-70.145959
 30
0.0
  0
SPLINE
  5
1e0
100
AcDbEntity
  8
Layer_3
 62
5
100
AcDbSpline
 70
8
 71
3
 72
8
 73
4
 74
0
 40
0
 40
0
 40
0
 40
0
 40
1
 40
1
 40
1
 40
1
 10
113.545513
 20
-70.145959
 30
0.0
 10
113.931610
 20
-70.532056
 30
0.0
 10
114.512270
 20
-70.647557
 30
0.0
 10
115.016730
 20
-70.438602
 30
0.0
  0
SPLINE
  5
1e1
100
AcDbEntity
  8
Layer_3
 62
5
100
AcDbSpline
 70
8
 71
3
 72
8
 73
4
 74
0
 40
0
 40
0
 40
0
 40
0
 40
1
 40
1
 40
1
 40
1
 10
115.016730
 20
-70.438602
 30
0.0
 10
115.521191
 20
-70.229648
 30
0.0
 10
115.850108
 20
-69.737389
 30
0.0
 10
115.850108
 20
-69.191364
 30
0.0
  0
SPLINE
  5
1e2
100
AcDbEntity
  8
Layer_3
 62
5
100
AcDbSpline
 70
8
 71
3
 72
8
 73
4
 74
0
 40
0
 40
0
 40
0
 40
0
 40
1
 40
1
 40
1
 40
1
 10
115.850108
 20
-69.191364
 30
0.0
 10
115.850108
 20
-68.833322
 30
0.0
 10
115.707876
 20
-68.489944
 30
0.0
 10
115.454702
 20
-68.236770
 30
0.0
  0
SPLINE
  5
1e3
100
AcDbEntity
  8
Layer_3
 62
5
100
AcDbSpline
 70
8
 71
3
 72
8
 73
4
 74
0
 40
0
 40
0
 40
0
 40
0
 40
1
 40
1
 40
1
 40
1
 10
115.454702
 20
-68.236770
 30
0.0
 10
115.201528
 20
-67.983595
 30
0.0
 10
114.858150
 20
-67.841363
 30
0.0
 10
114.500107
 20
-67.841363
 30
0.0
  0
LWPOLYLINE
  5
1e4
100
AcDbEntity
  8
Layer_3
 62
5
100
AcDbPolyline
 90
1
 70
1
 10
79.500074
 20
-67.841363
 30
0.0
  0
SPLINE
  5
1e5
100
AcDbEntity
  8
Layer_3
 62
5
100
AcDbSpline
 70
8
 71
3
 72
8
 73
4
 74
0
 40
0
 40
0
 40
0
 40
0
 40
1
 40
1
 40
1
 40
1
 10
79.500074
 20
-32.841334
 30
0.0
 10
78.954050
 20
-32.841334
 30
0.0
 10
78.461790
 20
-33.170251
 30
0.0
 10
78.252836
 20
-33.674712
 30
0.0
  0
SPLINE
  5
1e6
100
AcDbEntity
  8
Layer_3
 62
5
100
AcDbSpline
 70
8
 71
3
 72
8
 73
4
 74
0
 40
0
 40
0
 40
0
 40
0
 40
1
 40
1
 40
1
 40
1
 10
78.252836
 20
-33.674712
 30
0.0
 10
78.043881
 20
-34.179173
 30
0.0
 10
78.159382
 20
-34.759832
 30
0.0
 10
78.545479
 20
-35.145930
 30
0.0
  0
SPLINE
  5
1e7
100
AcDbEntity
  8
Layer_3
 62
5
100
AcDbSpline
 70
8
 71
3
 72
8
 73
4
 74
0
 40
0
 40
0
 40
0
 40
0
 40
1
 40
1
 40
1
 40
1
 10
78.545479
 20
-35.145930
 30
0.0
 10
78.931577
 20
-35.532027
 30
0.0
 10
79.512236
 20
-35.647527
 30
0.0
 10
80.016697
 20
-35.438573
 30
0.0
  0
SPLINE
  5
1e8
100
AcDbEntity
  8
Layer_3
 62
5
100
AcDbSpline
 70
8
 71
3
 72
8
 73
4
 74
0
 40
0
 40
0
 40
0
 40
0
 40
1
 40
1
 40
1
 40
1
 10
80.016697
 20
-35.438573
 30
0.0
 10
80.521158
 20
-35.229619
 30
0.0
 10
80.850075
 20
-34.737359
 30
0.0
 10
80.850075
 20
-34.191335
 30
0.0
  0
SPLINE
  5
1e9
100
AcDbEntity
  8
Layer_3
 62
5
100
AcDbSpline
 70
8
 71
3
 72
8
 73
4
 74
0
 40
0
 40
0
 40
0
 40
0
 40
1
 40
1
 40
1
 40
1
 10
80.850075
 20
-34.191335
 30
0.0
 10
80.850075
 20
-33.833292
 30
0.0
 10
80.707843
 20
-33.489914
 30
0.0
 10
80.454669
 20
-33.236740
 30
0.0
  0
SPLINE
  5
1ea
100
AcDbEntity
  8
Layer_3
 62
5
100
AcDbSpline
 70
8
 71
3
 72
8
 73
4
 74
0
 40
0
 40
0
 40
0
 40
0
 40
1
 40
1
 40
1
 40
1
 10
80.454669
 20
-33.236740
 30
0.0
 10
80.201494
 20
-32.983566
 30
0.0
 10
79.858116
 20
-32.841334
 30
0.0
 10
79.500074
 20
-32.841334
 30
0.0
  0
LWPOLYLINE
  5
1eb
100
AcDbEntity
  8
Layer_3
 62
5
100
AcDbPolyline
 90
1
 70
1
 10
114.500107
 20
-67.841363
 30
0.0
  0
SPLINE
  5
1ec
100
AcDbEntity
  8
Layer_3
 62
5
100
AcDbSpline
 70
8
 71
3
 72
8
 73
4
 74
0
 40
0
 40
0
 40
0
 40
0
 40
1
 40
1
 40
1
 40
1
 10
99.989143
 20
-38.270477
 30
0.0
 10
94.560565
 20
-38.270477
 30
0.0
 10
89.666519
 20
-41.540574
 30
0.0
 10
87.589092
 20
-46.555926
 30
0.0
  0
SPLINE
  5
1ed
100
AcDbEntity
  8
Layer_3
 62
5
100
AcDbSpline
 70
8
 71
3
 72
8
 73
4
 74
0
 40
0
 40
0
 40
0
 40
0
 40
1
 40
1
 40
1
 40
1
 10
87.589092
 20
-46.555926
 30
0.0
 10
85.511665
 20
-51.571279
 30
0.0
 10
86.659970
 20
-57.344199
 30
0.0
 10
90.498555
 20
-61.182784
 30
0.0
  0
SPLINE
  5
1ee
100
AcDbEntity
  8
Layer_3
 62
5
100
AcDbSpline
 70
8
 71
3
 72
8
 73
4
 74
0
 40
0
 40
0
 40
0
 40
0
 40
1
 40
1
 40
1
 40
1
 10
90.498555
 20
-61.182784
 30
0.0
 10
94.337140
 20
-65.021369
 30
0.0
 10
100.110060
 20
-66.169674
 30
0.0
 10
105.125413
 20
-64.092247
 30
0.0
  0
SPLINE
  5
1ef
100
AcDbEntity
  8
Layer_3
 62
5
100
AcDbSpline
 70
8
 71
3
 72
8
 73
4
 74
0
 40
0
 40
0
 40
0
 40
0
 40
1
 40
1
 40
1
 40
1
 10
105.125413
 20
-64.092247
 30
0.0
 10
110.140765
 20
-62.014820
 30
0.0
 10
113.410862
 20
-57.120774
 30
0.0
 10
113.410862
 20
-51.692196
 30
0.0
  0
SPLINE
  5
1f0
100
AcDbEntity
  8
Layer_3
 62
5
100
AcDbSpline
 70
8
 71
3
 72
8
 73
4
 74
0
 40
0
 40
0
 40
0
 40
0
 40
1
 40
1
 40
1
 40
1
 10
113.410862
 20
-51.692196
 30
0.0
 10
113.410862
 20
-48.132534
 30
0.0
 10
111.996792
 20
-44.718668
 30
0.0
 10
109.479732
 20
-42.201607
 30
0.0
  0
SPLINE
  5
1f1
100
AcDbEntity
  8
Layer_3
 62
5
100
AcDbSpline
 70
8
 71
3
 72
8
 73
4
 74
0
 40
0
 40
0
 40
0
 40
0
 40
1
 40
1
 40
1
 40
1
 10
109.479732
 20
-42.201607
 30
0.0
 10
106.962671
 20
-39.684547
 30
0.0
 10
103.548804
 20
-38.270477
 30
0.0
 10
99.989143
 20
-38.270477
 30
0.0
  0
LWPOLYLINE
  5
1f2
100
AcDbEntity
  8
Layer_3
 62
5
100
AcDbPolyline
 90
1
 70
1
 10
79.500074
 20
-32.841334
 30
0.0
  0
LWPOLYLINE
  5
1f3
100
AcDbEntity
  8
Layer_3
 62
5
100
AcDbPolyline
 90
1
 70
1
 10
99.989143
 20
-38.270477
 30
0.0
  0
LWPOLYLINE
  5
1f4
100
AcDbEntity
  8
Layer_3
 62
4
100
AcDbPolyline
 90
2
 70
0
 10
129.458773
 20
-38.055624
 30
0.0
 10
129.458843
 20
-31.175355
 30
0.0
  0
LWPOLYLINE
  5
1f5
100
AcDbEntity
  8
Layer_3
 62
4
100
AcDbPolyline
 90
2
 70
0
 10
121.484366
 20
-38.055730
 30
0.0
 10
121.484366
 20
-31.175355
 30
0.0
  0
LWPOLYLINE
  5
1f6
100
AcDbEntity
  8
Layer_3
 62
4
100
AcDbPolyline
 90
2
 70
0
 10
140.056813
 20
-33.988502
 30
0.0
 10
140.056813
 20
-166.010454
 30
0.0
  0
LWPOLYLINE
  5
1f7
100
AcDbEntity
  8
Layer_3
 62
4
100
AcDbPolyline
 90
2
 70
0
 10
137.256071
 20
-168.810847
 30
0.0
 10
62.744474
 20
-168.810847
 30
0.0
  0
LWPOLYLINE
  5
1f8
100
AcDbEntity
  8
Layer_3
 62
4
100
AcDbPolyline
 90
2
 70
0
 10
137.256071
 20
-31.188112
 30
0.0
 10
62.744474
 20
-31.188112
 30
0.0
  0
LWPOLYLINE
  5
1f9
100
AcDbEntity
  8
Layer_3
 62
4
100
AcDbPolyline
 90
2
 70
0
 10
59.943730
 20
-33.988502
 30
0.0
 10
59.943730
 20
-166.010454
 30
0.0
  0
LWPOLYLINE
  5
1fa
100
AcDbEntity
  8
Layer_3
 62
1
100
AcDbPolyline
 90
4
 70
1
 10
137.998111
 20
-151.949349
 30
0.0
 10
138.998112
 20
-151.949349
 30
0.0
 10
138.998112
 20
-152.849350
 30
0.0
 10
137.998111
 20
-152.849350
 30
0.0
  0
LWPOLYLINE
  5
1fb
100
AcDbEntity
  8
Layer_3
 62
1
100
AcDbPolyline
 90
4
 70
1
 10
137.998111
 20
-156.049353
 30
0.0
 10
138.998112
 20
-156.049353
 30
0.0
 10
138.998112
 20
-156.949354
 30
0.0
 10
137.998111
 20
-156.949354
 30
0.0
  0
LWPOLYLINE
  5
1fc
100
AcDbEntity
  8
Layer_3
 62
1
100
AcDbPolyline
 90
4
 70
1
 10
136.398110
 20
-156.049353
 30
0.0
 10
137.398111
 20
-156.049353
 30
0.0
 10
137.398111
 20
-156.949354
 30
0.0
 10
136.398110
 20
-156.949354
 30
0.0
  0
LWPOLYLINE
  5
1fd
100
AcDbEntity
  8
Layer_3
 62
1
100
AcDbPolyline
 90
4
 70
1
 10
136.398110
 20
-151.949349
 30
0.0
 10
137.398111
 20
-151.949349
 30
0.0
 10
137.398111
 20
-152.849350
 30
0.0
 10
136.398110
 20
-152.849350
 30
0.0
  0
LWPOLYLINE
  5
1fe
100
AcDbEntity
  8
Layer_3
 62
4
100
AcDbPolyline
 90
2
 70
0
 10
74.880069
 20
-163.389362
 30
0.0
 10
74.880069
 20
-123.089323
 30
0.0
  0
LWPOLYLINE
  5
1ff
100
AcDbEntity
  8
Layer_3
 62
4
100
AcDbPolyline
 90
2
 70
0
 10
129.240123
 20
-123.089323
 30
0.0
 10
74.880069
 20
-123.089323
 30
0.0
  0
LWPOLYLINE
  5
200
100
AcDbEntity
  8
Layer_3
 62
4
100
AcDbPolyline
 90
2
 70
0
 10
129.240123
 20
-163.389362
 30
0.0
 10
74.880069
 20
-163.389362
 30
0.0
  0
LWPOLYLINE
  5
201
100
AcDbEntity
  8
Layer_3
 62
4
100
AcDbPolyline
 90
2
 70
0
 10
129.240123
 20
-123.089323
 30
0.0
 10
129.240123
 20
-163.389362
 30
0.0
  0
LWPOLYLINE
  5
202
100
AcDbEntity
  8
Layer_3
 62
4
100
AcDbPolyline
 90
2
 70
0
 10
131.500125
 20
-124.499325
 30
0.0
 10
131.500125
 20
-161.999361
 30
0.0
  0
LWPOLYLINE
  5
203
100
AcDbEntity
  8
Layer_3
 62
4
100
AcDbPolyline
 90
2
 70
0
 10
77.180072
 20
-160.499359
 30
0.0
 10
77.180072
 20
-125.999326
 30
0.0
  0
LWPOLYLINE
  5
204
100
AcDbEntity
  8
Layer_3
 62
4
100
AcDbPolyline
 90
2
 70
0
 10
122.820117
 20
-125.999326
 30
0.0
 10
122.820117
 20
-160.499359
 30
0.0
  0
SPLINE
  5
205
100
AcDbEntity
  8
Layer_3
 62
4
100
AcDbSpline
 70
8
 71
3
 72
8
 73
4
 74
0
 40
0
 40
0
 40
0
 40
0
 40
1
 40
1
 40
1
 40
1
 10
131.500125
 20
-124.499325
 30
0.0
 10
131.500125
 20
-124.142059
 30
0.0
 10
131.309526
 20
-123.811932
 30
0.0
 10
131.000125
 20
-123.633299
 30
0.0
  0
SPLINE
  5
206
100
AcDbEntity
  8
Layer_3
 62
4
100
AcDbSpline
 70
8
 71
3
 72
8
 73
4
 74
0
 40
0
 40
0
 40
0
 40
0
 40
1
 40
1
 40
1
 40
1
 10
131.000125
 20
-123.633299
 30
0.0
 10
130.690723
 20
-123.454666
 30
0.0
 10
130.309525
 20
-123.454666
 30
0.0
 10
130.000124
 20
-123.633299
 30
0.0
  0
SPLINE
  5
207
100
AcDbEntity
  8
Layer_3
 62
4
100
AcDbSpline
 70
8
 71
3
 72
8
 73
4
 74
0
 40
0
 40
0
 40
0
 40
0
 40
1
 40
1
 40
1
 40
1
 10
130.000124
 20
-123.633299
 30
0.0
 10
129.690722
 20
-123.811932
 30
0.0
 10
129.500123
 20
-124.142059
 30
0.0
 10
129.500123
 20
-124.499325
 30
0.0
  0
LWPOLYLINE
  5
208
100
AcDbEntity
  8
Layer_3
 62
4
100
AcDbPolyline
 90
2
 70
0
 10
122.820117
 20
-125.999326
 30
0.0
 10
77.180072
 20
-125.999326
 30
0.0
  0
SPLINE
  5
209
100
AcDbEntity
  8
Layer_3
 62
4
100
AcDbSpline
 70
8
 71
3
 72
8
 73
4
 74
0
 40
0
 40
0
 40
0
 40
0
 40
1
 40
1
 40
1
 40
1
 10
129.500123
 20
-161.999361
 30
0.0
 10
129.500123
 20
-162.356626
 30
0.0
 10
129.690722
 20
-162.686754
 30
0.0
 10
130.000124
 20
-162.865387
 30
0.0
  0
SPLINE
  5
20a
100
AcDbEntity
  8
Layer_3
 62
4
100
AcDbSpline
 70
8
 71
3
 72
8
 73
4
 74
0
 40
0
 40
0
 40
0
 40
0
 40
1
 40
1
 40
1
 40
1
 10
130.000124
 20
-162.865387
 30
0.0
 10
130.309525
 20
-163.044020
 30
0.0
 10
130.690723
 20
-163.044020
 30
0.0
 10
131.000125
 20
-162.865387
 30
0.0
  0
SPLINE
  5
20b
100
AcDbEntity
  8
Layer_3
 62
4
100
AcDbSpline
 70
8
 71
3
 72
8
 73
4
 74
0
 40
0
 40
0
 40
0
 40
0
 40
1
 40
1
 40
1
 40
1
 10
131.000125
 20
-162.865387
 30
0.0
 10
131.309526
 20
-162.686754
 30
0.0
 10
131.500125
 20
-162.356626
 30
0.0
 10
131.500125
 20
-161.999361
 30
0.0
  0
LWPOLYLINE
  5
20c
100
AcDbEntity
  8
Layer_3
 62
4
100
AcDbPolyline
 90
2
 70
0
 10
129.500123
 20
-124.499325
 30
0.0
 10
129.500123
 20
-161.999361
 30
0.0
  0
LWPOLYLINE
  5
20d
100
AcDbEntity
  8
Layer_3
 62
4
100
AcDbPolyline
 90
2
 70
0
 10
122.820117
 20
-160.479359
 30
0.0
 10
77.180072
 20
-160.479359
 30
0.0
  0
LWPOLYLINE
  5
20e
100
AcDbEntity
  8
Layer_3
 62
1
100
AcDbPolyline
 90
4
 70
1
 10
107.050103
 20
-155.038354
 30
0.0
 10
107.050103
 20
-153.738352
 30
0.0
 10
109.050105
 20
-153.738352
 30
0.0
 10
109.050105
 20
-155.038354
 30
0.0
  0
LWPOLYLINE
  5
20f
100
AcDbEntity
  8
Layer_3
 62
1
100
AcDbPolyline
 90
4
 70
1
 10
90.950088
 20
-155.038354
 30
0.0
 10
90.950088
 20
-153.738352
 30
0.0
 10
92.950090
 20
-153.738352
 30
0.0
 10
92.950090
 20
-155.038354
 30
0.0
  0
LWPOLYLINE
  5
210
100
AcDbEntity
  8
Layer_3
 62
1
100
AcDbPolyline
 90
4
 70
1
 10
105.600102
 20
-152.188351
 30
0.0
 10
105.600102
 20
-151.188350
 30
0.0
 10
105.900102
 20
-151.188350
 30
0.0
 10
105.900102
 20
-152.188351
 30
0.0
  0
LWPOLYLINE
  5
211
100
AcDbEntity
  8
Layer_3
 62
1
100
AcDbPolyline
 90
4
 70
1
 10
105.100101
 20
-152.188351
 30
0.0
 10
105.100101
 20
-151.188350
 30
0.0
 10
105.400102
 20
-151.188350
 30
0.0
 10
105.400102
 20
-152.188351
 30
0.0
  0
LWPOLYLINE
  5
212
100
AcDbEntity
  8
Layer_3
 62
1
100
AcDbPolyline
 90
4
 70
1
 10
104.600101
 20
-152.188351
 30
0.0
 10
104.600101
 20
-151.188350
 30
0.0
 10
104.900101
 20
-151.188350
 30
0.0
 10
104.900101
 20
-152.188351
 30
0.0
  0
LWPOLYLINE
  5
213
100
AcDbEntity
  8
Layer_3
 62
1
100
AcDbPolyline
 90
4
 70
1
 10
104.100100
 20
-152.188351
 30
0.0
 10
104.100100
 20
-151.188350
 30
0.0
 10
104.400101
 20
-151.188350
 30
0.0
 10
104.400101
 20
-152.188351
 30
0.0
  0
LWPOLYLINE
  5
214
100
AcDbEntity
  8
Layer_3
 62
1
100
AcDbPolyline
 90
4
 70
1
 10
103.600100
 20
-152.188351
 30
0.0
 10
103.600100
 20
-151.188350
 30
0.0
 10
103.900100
 20
-151.188350
 30
0.0
 10
103.900100
 20
-152.188351
 30
0.0
  0
LWPOLYLINE
  5
215
100
AcDbEntity
  8
Layer_3
 62
1
100
AcDbPolyline
 90
4
 70
1
 10
103.100099
 20
-152.188351
 30
0.0
 10
103.100099
 20
-151.188350
 30
0.0
 10
103.400100
 20
-151.188350
 30
0.0
 10
103.400100
 20
-152.188351
 30
0.0
  0
LWPOLYLINE
  5
216
100
AcDbEntity
  8
Layer_3
 62
1
100
AcDbPolyline
 90
4
 70
1
 10
102.600099
 20
-152.188351
 30
0.0
 10
102.600099
 20
-151.188350
 30
0.0
 10
102.900099
 20
-151.188350
 30
0.0
 10
102.900099
 20
-152.188351
 30
0.0
  0
LWPOLYLINE
  5
217
100
AcDbEntity
  8
Layer_3
 62
1
100
AcDbPolyline
 90
4
 70
1
 10
102.100098
 20
-152.188351
 30
0.0
 10
102.100098
 20
-151.188350
 30
0.0
 10
102.400099
 20
-151.188350
 30
0.0
 10
102.400099
 20
-152.188351
 30
0.0
  0
LWPOLYLINE
  5
218
100
AcDbEntity
  8
Layer_3
 62
1
100
AcDbPolyline
 90
4
 70
1
 10
101.600098
 20
-152.188351
 30
0.0
 10
101.600098
 20
-151.188350
 30
0.0
 10
101.900098
 20
-151.188350
 30
0.0
 10
101.900098
 20
-152.188351
 30
0.0
  0
LWPOLYLINE
  5
219
100
AcDbEntity
  8
Layer_3
 62
1
100
AcDbPolyline
 90
4
 70
1
 10
101.100098
 20
-152.188351
 30
0.0
 10
101.100098
 20
-151.188350
 30
0.0
 10
101.400098
 20
-151.188350
 30
0.0
 10
101.400098
 20
-152.188351
 30
0.0
  0
LWPOLYLINE
  5
21a
100
AcDbEntity
  8
Layer_3
 62
1
100
AcDbPolyline
 90
4
 70
1
 10
100.600097
 20
-152.188351
 30
0.0
 10
100.600097
 20
-151.188350
 30
0.0
 10
100.900097
 20
-151.188350
 30
0.0
 10
100.900097
 20
-152.188351
 30
0.0
  0
LWPOLYLINE
  5
21b
100
AcDbEntity
  8
Layer_3
 62
1
100
AcDbPolyline
 90
4
 70
1
 10
100.100097
 20
-152.188351
 30
0.0
 10
100.100097
 20
-151.188350
 30
0.0
 10
100.400097
 20
-151.188350
 30
0.0
 10
100.400097
 20
-152.188351
 30
0.0
  0
LWPOLYLINE
  5
21c
100
AcDbEntity
  8
Layer_3
 62
1
100
AcDbPolyline
 90
4
 70
1
 10
99.600096
 20
-152.188351
 30
0.0
 10
99.600096
 20
-151.188350
 30
0.0
 10
99.900096
 20
-151.188350
 30
0.0
 10
99.900096
 20
-152.188351
 30
0.0
  0
LWPOLYLINE
  5
21d
100
AcDbEntity
  8
Layer_3
 62
1
100
AcDbPolyline
 90
4
 70
1
 10
99.100096
 20
-152.188351
 30
0.0
 10
99.100096
 20
-151.188350
 30
0.0
 10
99.400096
 20
-151.188350
 30
0.0
 10
99.400096
 20
-152.188351
 30
0.0
  0
LWPOLYLINE
  5
21e
100
AcDbEntity
  8
Layer_3
 62
1
100
AcDbPolyline
 90
4
 70
1
 10
98.600095
 20
-152.188351
 30
0.0
 10
98.600095
 20
-151.188350
 30
0.0
 10
98.900095
 20
-151.188350
 30
0.0
 10
98.900095
 20
-152.188351
 30
0.0
  0
LWPOLYLINE
  5
21f
100
AcDbEntity
  8
Layer_3
 62
1
100
AcDbPolyline
 90
4
 70
1
 10
98.100095
 20
-152.188351
 30
0.0
 10
98.100095
 20
-151.188350
 30
0.0
 10
98.400095
 20
-151.188350
 30
0.0
 10
98.400095
 20
-152.188351
 30
0.0
  0
LWPOLYLINE
  5
220
100
AcDbEntity
  8
Layer_3
 62
1
100
AcDbPolyline
 90
4
 70
1
 10
97.600094
 20
-152.188351
 30
0.0
 10
97.600094
 20
-151.188350
 30
0.0
 10
97.900094
 20
-151.188350
 30
0.0
 10
97.900094
 20
-152.188351
 30
0.0
  0
LWPOLYLINE
  5
221
100
AcDbEntity
  8
Layer_3
 62
1
100
AcDbPolyline
 90
4
 70
1
 10
97.100094
 20
-152.188351
 30
0.0
 10
97.100094
 20
-151.188350
 30
0.0
 10
97.400094
 20
-151.188350
 30
0.0
 10
97.400094
 20
-152.188351
 30
0.0
  0
LWPOLYLINE
  5
222
100
AcDbEntity
  8
Layer_3
 62
1
100
AcDbPolyline
 90
4
 70
1
 10
96.600093
 20
-152.188351
 30
0.0
 10
96.600093
 20
-151.188350
 30
0.0
 10
96.900094
 20
-151.188350
 30
0.0
 10
96.900094
 20
-152.188351
 30
0.0
  0
LWPOLYLINE
  5
223
100
AcDbEntity
  8
Layer_3
 62
1
100
AcDbPolyline
 90
4
 70
1
 10
96.100093
 20
-152.188351
 30
0.0
 10
96.100093
 20
-151.188350
 30
0.0
 10
96.400093
 20
-151.188350
 30
0.0
 10
96.400093
 20
-152.188351
 30
0.0
  0
LWPOLYLINE
  5
224
100
AcDbEntity
  8
Layer_3
 62
1
100
AcDbPolyline
 90
4
 70
1
 10
95.600092
 20
-152.188351
 30
0.0
 10
95.600092
 20
-151.188350
 30
0.0
 10
95.900093
 20
-151.188350
 30
0.0
 10
95.900093
 20
-152.188351
 30
0.0
  0
LWPOLYLINE
  5
225
100
AcDbEntity
  8
Layer_3
 62
1
100
AcDbPolyline
 90
4
 70
1
 10
95.100092
 20
-152.188351
 30
0.0
 10
95.100092
 20
-151.188350
 30
0.0
 10
95.400092
 20
-151.188350
 30
0.0
 10
95.400092
 20
-152.188351
 30
0.0
  0
LWPOLYLINE
  5
226
100
AcDbEntity
  8
Layer_3
 62
1
100
AcDbPolyline
 90
4
 70
1
 10
94.600091
 20
-152.188351
 30
0.0
 10
94.600091
 20
-151.188350
 30
0.0
 10
94.900092
 20
-151.188350
 30
0.0
 10
94.900092
 20
-152.188351
 30
0.0
  0
LWPOLYLINE
  5
227
100
AcDbEntity
  8
Layer_3
 62
1
100
AcDbPolyline
 90
4
 70
1
 10
94.100091
 20
-152.188351
 30
0.0
 10
94.100091
 20
-151.188350
 30
0.0
 10
94.400091
 20
-151.188350
 30
0.0
 10
94.400091
 20
-152.188351
 30
0.0
  0
LWPOLYLINE
  5
228
100
AcDbEntity
  8
Layer_3
 62
1
100
AcDbPolyline
 90
20
 70
1
 10
137.081881
 20
-46.297250
 30
0.0
 10
136.998171
 20
-46.280599
 30
0.0
 10
136.927201
 20
-46.233180
 30
0.0
 10
136.879781
 20
-46.162212
 30
0.0
 10
136.863131
 20
-46.078500
 30
0.0
 10
136.863131
 20
-45.640999
 30
0.0
 10
136.879781
 20
-45.557287
 30
0.0
 10
136.927201
 20
-45.486319
 30
0.0
 10
136.998171
 20
-45.438900
 30
0.0
 10
137.081881
 20
-45.422249
 30
0.0
 10
137.594382
 20
-45.422249
 30
0.0
 10
137.678092
 20
-45.438900
 30
0.0
 10
137.749062
 20
-45.486319
 30
0.0
 10
137.796482
 20
-45.557287
 30
0.0
 10
137.813132
 20
-45.640999
 30
0.0
 10
137.813132
 20
-46.078500
 30
0.0
 10
137.796482
 20
-46.162212
 30
0.0
 10
137.749062
 20
-46.233180
 30
0.0
 10
137.678092
 20
-46.280599
 30
0.0
 10
137.594382
 20
-46.297250
 30
0.0
  0
LWPOLYLINE
  5
229
100
AcDbEntity
  8
Layer_3
 62
1
100
AcDbPolyline
 90
20
 70
1
 10
137.081881
 20
-44.722248
 30
0.0
 10
136.998171
 20
-44.705597
 30
0.0
 10
136.927201
 20
-44.658178
 30
0.0
 10
136.879781
 20
-44.587210
 30
0.0
 10
136.863131
 20
-44.503498
 30
0.0
 10
136.863131
 20
-44.065998
 30
0.0
 10
136.879781
 20
-43.982286
 30
0.0
 10
136.927201
 20
-43.911318
 30
0.0
 10
136.998171
 20
-43.863899
 30
0.0
 10
137.081881
 20
-43.847248
 30
0.0
 10
137.594382
 20
-43.847248
 30
0.0
 10
137.678092
 20
-43.863899
 30
0.0
 10
137.749062
 20
-43.911318
 30
0.0
 10
137.796482
 20
-43.982286
 30
0.0
 10
137.813132
 20
-44.065998
 30
0.0
 10
137.813132
 20
-44.503498
 30
0.0
 10
137.796482
 20
-44.587210
 30
0.0
 10
137.749062
 20
-44.658178
 30
0.0
 10
137.678092
 20
-44.705597
 30
0.0
 10
137.594382
 20
-44.722248
 30
0.0
  0
LWPOLYLINE
  5
22a
100
AcDbEntity
  8
Layer_3
 62
1
100
AcDbPolyline
 90
4
 70
1
 10
127.862123
 20
-61.633263
 30
0.0
 10
124.462120
 20
-61.633263
 30
0.0
 10
124.462120
 20
-60.133262
 30
0.0
 10
127.862123
 20
-60.133262
 30
0.0
  0
LWPOLYLINE
  5
22b
100
AcDbEntity
  8
Layer_3
 62
1
100
AcDbPolyline
 90
4
 70
1
 10
127.862123
 20
-68.333269
 30
0.0
 10
124.462120
 20
-68.333269
 30
0.0
 10
124.462120
 20
-66.833268
 30
0.0
 10
127.862123
 20
-66.833268
 30
0.0
  0
LWPOLYLINE
  5
22c
100
AcDbEntity
  8
Layer_3
 62
1
100
AcDbPolyline
 90
4
 70
1
 10
122.362118
 20
-65.733267
 30
0.0
 10
118.862115
 20
-65.733267
 30
0.0
 10
118.862115
 20
-64.733266
 30
0.0
 10
122.362118
 20
-64.733266
 30
0.0
  0
LWPOLYLINE
  5
22d
100
AcDbEntity
  8
Layer_3
 62
1
100
AcDbPolyline
 90
4
 70
1
 10
122.362118
 20
-63.733265
 30
0.0
 10
118.862115
 20
-63.733265
 30
0.0
 10
118.862115
 20
-62.733264
 30
0.0
 10
122.362118
 20
-62.733264
 30
0.0
  0
LWPOLYLINE
  5
22e
100
AcDbEntity
  8
Layer_3
 62
4
100
AcDbPolyline
 90
3
 70
0
 10
106.501381
 20
-141.106411
 30
0.0
 10
103.500759
 20
-141.106411
 30
0.0
 10
96.499431
 20
-141.106411
 30
0.0
  0
LWPOLYLINE
  5
22f
100
AcDbEntity
  8
Layer_3
 62
4
100
AcDbPolyline
 90
2
 70
0
 10
138.306812
 20
-94.398518
 30
0.0
 10
134.469478
 20
-94.398518
 30
0.0
  0
LWPOLYLINE
  5
230
100
AcDbEntity
  8
Layer_3
 62
4
100
AcDbPolyline
 90
2
 70
0
 10
93.499166
 20
-141.106411
 30
0.0
 10
93.499166
 20
-134.341104
 30
0.0
  0
LWPOLYLINE
  5
231
100
AcDbEntity
  8
Layer_3
 62
4
100
AcDbPolyline
 90
2
 70
0
 10
95.499343
 20
-139.105879
 30
0.0
 10
96.499786
 20
-139.105879
 30
0.0
  0
LWPOLYLINE
  5
232
100
AcDbEntity
  8
Layer_3
 62
4
100
AcDbPolyline
 90
3
 70
0
 10
61.693733
 20
-93.198199
 30
0.0
 10
66.155856
 20
-93.198199
 30
0.0
 10
95.499485
 20
-135.105165
 30
0.0
  0
LWPOLYLINE
  5
233
100
AcDbEntity
  8
Layer_3
 62
4
100
AcDbPolyline
 90
2
 70
0
 10
103.500759
 20
-139.105879
 30
0.0
 10
96.499431
 20
-139.105879
 30
0.0
  0
LWPOLYLINE
  5
234
100
AcDbEntity
  8
Layer_3
 62
4
100
AcDbPolyline
 90
2
 70
0
 10
106.501381
 20
-134.341104
 30
0.0
 10
106.501381
 20
-141.106411
 30
0.0
  0
LWPOLYLINE
  5
235
100
AcDbEntity
  8
Layer_3
 62
4
100
AcDbPolyline
 90
2
 70
0
 10
103.500759
 20
-139.105879
 30
0.0
 10
104.501200
 20
-139.105879
 30
0.0
  0
LWPOLYLINE
  5
236
100
AcDbEntity
  8
Layer_3
 62
4
100
AcDbPolyline
 90
2
 70
0
 10
104.500850
 20
-135.105165
 30
0.0
 10
133.844687
 20
-93.198199
 30
0.0
  0
LWPOLYLINE
  5
237
100
AcDbEntity
  8
Layer_3
 62
4
100
AcDbPolyline
 90
2
 70
0
 10
80.458326
 20
-115.716846
 30
0.0
 10
65.531066
 20
-94.398518
 30
0.0
  0
LWPOLYLINE
  5
238
100
AcDbEntity
  8
Layer_3
 62
4
100
AcDbPolyline
 90
2
 70
0
 10
133.844687
 20
-93.198199
 30
0.0
 10
138.306462
 20
-93.198199
 30
0.0
  0
LWPOLYLINE
  5
239
100
AcDbEntity
  8
Layer_3
 62
4
100
AcDbPolyline
 90
2
 70
0
 10
95.499343
 20
-135.105165
 30
0.0
 10
95.499343
 20
-139.106229
 30
0.0
  0
LWPOLYLINE
  5
23a
100
AcDbEntity
  8
Layer_3
 62
4
100
AcDbPolyline
 90
2
 70
0
 10
134.469478
 20
-94.398518
 30
0.0
 10
119.542364
 20
-115.716566
 30
0.0
  0
LWPOLYLINE
  5
23b
100
AcDbEntity
  8
Layer_3
 62
4
100
AcDbPolyline
 90
2
 70
0
 10
104.500850
 20
-139.105879
 30
0.0
 10
104.500850
 20
-135.105165
 30
0.0
  0
LWPOLYLINE
  5
23c
100
AcDbEntity
  8
Layer_3
 62
4
100
AcDbPolyline
 90
2
 70
0
 10
65.501655
 20
-94.368207
 30
0.0
 10
61.690898
 20
-94.368395
 30
0.0
  0
LWPOLYLINE
  5
23d
100
AcDbEntity
  8
Layer_3
 62
4
100
AcDbPolyline
 90
2
 70
0
 10
96.499786
 20
-141.106411
 30
0.0
 10
93.499166
 20
-141.106411
 30
0.0
  0
ENDSEC
  0
SECTION
  2
OBJECTS
  0
DICTIONARY
  5
C
330
0
100
AcDbDictionary
  3
ACAD_GROUP
350
D
  3
ACAD_MLINESTYLE
350
17
  0
DICTIONARY
  5
D
330
C
100
AcDbDictionary
  0
DICTIONARY
  5
1A
330
C
100
AcDbDictionary
  0
DICTIONARY
  5
17
330
C
100
AcDbDictionary
  3
STANDARD
350
18
  0
DICTIONARY
  5
19
330
C
100
AcDbDictionary
  0
ENDSEC
  0
EOF
