999
"DXF R12 Output" (www.mydxf.blogspot.com)
 0 
SECTION
 2 
HEADER
 9 
$ACADVER
 1 
AC1009
 9 
$EXTMIN
 10 
 0 
 20 
 0 
 9 
$EXTMAX
 10 
 8.5 
 20 
 11 
 0 
ENDSEC
 0 
SECTION
 2 
ENTITIES
0
LINE
8
Layer 1
10
882.522000
20
-1463.040000
11
882.522000
21
-1531.900000
0
LINE
8
Layer 1
10
882.522000
20
-1531.900000
11
882.507889
21
-1531.914111
0
LINE
8
Layer 1
10
882.507889
20
-1531.914111
11
882.493778
21
-1531.900000
0
LINE
8
Layer 1
10
882.493778
20
-1531.900000
11
882.494000
21
-1463.040000
0
LINE
8
Layer 1
10
882.494000
20
-1463.040000
11
882.508111
21
-1463.025889
0
LINE
8
Layer 1
10
882.508111
20
-1463.025889
11
882.522222
21
-1463.040000
0
LINE
8
Layer 1
10
882.522222
20
-1463.040000
11
882.522000
21
-1463.040000
0
LINE
8
Layer 1
10
882.508000
20
-1463.020000
11
962.377000
21
-1463.020000
0
LINE
8
Layer 1
10
962.377000
20
-1463.020000
11
962.391111
21
-1463.034111
0
LINE
8
Layer 1
10
962.391111
20
-1463.034111
11
962.377000
21
-1463.048222
0
LINE
8
Layer 1
10
962.377000
20
-1463.048222
11
882.508000
21
-1463.050000
0
LINE
8
Layer 1
10
882.508000
20
-1463.050000
11
882.493889
21
-1463.035889
0
LINE
8
Layer 1
10
882.493889
20
-1463.035889
11
882.508000
21
-1463.021778
0
LINE
8
Layer 1
10
882.508000
20
-1463.021778
11
882.508000
21
-1463.020000
0
LINE
8
Layer 1
10
962.391000
20
-1463.040000
11
962.391000
21
-1535.570000
0
LINE
8
Layer 1
10
962.391000
20
-1535.570000
11
962.376889
21
-1535.584111
0
LINE
8
Layer 1
10
962.376889
20
-1535.584111
11
962.362778
21
-1535.570000
0
LINE
8
Layer 1
10
962.362778
20
-1535.570000
11
962.363000
21
-1463.040000
0
LINE
8
Layer 1
10
962.363000
20
-1463.040000
11
962.377111
21
-1463.025889
0
LINE
8
Layer 1
10
962.377111
20
-1463.025889
11
962.391222
21
-1463.040000
0
LINE
8
Layer 1
10
962.391222
20
-1463.040000
11
962.391000
21
-1463.040000
0
LINE
8
Layer 1
10
1926.170000
20
-1522.310000
11
1926.170000
21
-1355.510000
0
LINE
8
Layer 1
10
1912.900000
20
-1535.570000
11
1913.470000
21
-1535.570000
0
LINE
8
Layer 1
10
1913.470000
20
-1535.570000
11
1914.030000
21
-1535.570000
0
LINE
8
Layer 1
10
1914.030000
20
-1535.570000
11
1914.590000
21
-1535.570000
0
LINE
8
Layer 1
10
1914.590000
20
-1535.570000
11
1915.154444
21
-1535.287778
0
LINE
8
Layer 1
10
1915.154444
20
-1535.287778
11
1915.720000
21
-1535.290000
0
LINE
8
Layer 1
10
1915.720000
20
-1535.290000
11
1916.290000
21
-1535.290000
0
LINE
8
Layer 1
10
1916.290000
20
-1535.290000
11
1916.854444
21
-1535.007778
0
LINE
8
Layer 1
10
1916.854444
20
-1535.007778
11
1917.418888
21
-1534.725556
0
LINE
8
Layer 1
10
1917.418888
20
-1534.725556
11
1917.980000
21
-1534.720000
0
LINE
8
Layer 1
10
1917.980000
20
-1534.720000
11
1918.544444
21
-1534.437778
0
LINE
8
Layer 1
10
1918.544444
20
-1534.437778
11
1918.826666
21
-1534.155556
0
LINE
8
Layer 1
10
1918.826666
20
-1534.155556
11
1919.391110
21
-1533.873334
0
LINE
8
Layer 1
10
1919.391110
20
-1533.873334
11
1919.955554
21
-1533.591112
0
LINE
8
Layer 1
10
1919.955554
20
-1533.591112
11
1920.519998
21
-1533.308890
0
LINE
8
Layer 1
10
1920.519998
20
-1533.308890
11
1920.802220
21
-1533.026668
0
LINE
8
Layer 1
10
1920.802220
20
-1533.026668
11
1921.366664
21
-1532.744446
0
LINE
8
Layer 1
10
1921.366664
20
-1532.744446
11
1921.648886
21
-1532.180002
0
LINE
8
Layer 1
10
1921.648886
20
-1532.180002
11
1922.213330
21
-1531.897780
0
LINE
8
Layer 1
10
1922.213330
20
-1531.897780
11
1922.495552
21
-1531.615558
0
LINE
8
Layer 1
10
1922.495552
20
-1531.615558
11
1923.059996
21
-1531.051114
0
LINE
8
Layer 1
10
1923.059996
20
-1531.051114
11
1923.342218
21
-1530.768892
0
LINE
8
Layer 1
10
1923.342218
20
-1530.768892
11
1923.624440
21
-1530.204448
0
LINE
8
Layer 1
10
1923.624440
20
-1530.204448
11
1923.906662
21
-1529.640004
0
LINE
8
Layer 1
10
1923.906662
20
-1529.640004
11
1924.188884
21
-1529.357782
0
LINE
8
Layer 1
10
1924.188884
20
-1529.357782
11
1924.471106
21
-1528.793338
0
LINE
8
Layer 1
10
1924.471106
20
-1528.793338
11
1924.753328
21
-1528.228894
0
LINE
8
Layer 1
10
1924.753328
20
-1528.228894
11
1925.035550
21
-1527.664450
0
LINE
8
Layer 1
10
1925.035550
20
-1527.664450
11
1925.317772
21
-1527.382228
0
LINE
8
Layer 1
10
1925.317772
20
-1527.382228
11
1925.599994
21
-1526.817784
0
LINE
8
Layer 1
10
1925.599994
20
-1526.817784
11
1925.600000
21
-1526.260000
0
LINE
8
Layer 1
10
1925.600000
20
-1526.260000
11
1925.882222
21
-1525.695556
0
LINE
8
Layer 1
10
1925.882222
20
-1525.695556
11
1925.880000
21
-1525.130000
0
LINE
8
Layer 1
10
1925.880000
20
-1525.130000
11
1926.162222
21
-1524.565556
0
LINE
8
Layer 1
10
1926.162222
20
-1524.565556
11
1926.170000
21
-1524.000000
0
LINE
8
Layer 1
10
1926.170000
20
-1524.000000
11
1926.170000
21
-1523.430000
0
LINE
8
Layer 1
10
1926.170000
20
-1523.430000
11
1926.170000
21
-1522.870000
0
LINE
8
Layer 1
10
1926.170000
20
-1522.870000
11
1926.170000
21
-1522.310000
0
LINE
8
Layer 1
10
891.822000
20
-1535.570000
11
1912.900000
21
-1535.570000
0
LINE
8
Layer 1
10
878.557000
20
-1522.310000
11
878.557000
21
-1522.870000
0
LINE
8
Layer 1
10
878.557000
20
-1522.870000
11
878.557000
21
-1523.430000
0
LINE
8
Layer 1
10
878.557000
20
-1523.430000
11
878.557000
21
-1524.000000
0
LINE
8
Layer 1
10
878.557000
20
-1524.000000
11
878.557000
21
-1524.560000
0
LINE
8
Layer 1
10
878.557000
20
-1524.560000
11
878.839222
21
-1525.124444
0
LINE
8
Layer 1
10
878.839222
20
-1525.124444
11
878.839000
21
-1525.690000
0
LINE
8
Layer 1
10
878.839000
20
-1525.690000
11
879.121222
21
-1526.254444
0
LINE
8
Layer 1
10
879.121222
20
-1526.254444
11
879.122000
21
-1526.820000
0
LINE
8
Layer 1
10
879.122000
20
-1526.820000
11
879.404222
21
-1527.102222
0
LINE
8
Layer 1
10
879.404222
20
-1527.102222
11
879.686444
21
-1527.666666
0
LINE
8
Layer 1
10
879.686444
20
-1527.666666
11
879.968666
21
-1528.231110
0
LINE
8
Layer 1
10
879.968666
20
-1528.231110
11
880.250888
21
-1528.795554
0
LINE
8
Layer 1
10
880.250888
20
-1528.795554
11
880.533110
21
-1529.359998
0
LINE
8
Layer 1
10
880.533110
20
-1529.359998
11
880.815332
21
-1529.642220
0
LINE
8
Layer 1
10
880.815332
20
-1529.642220
11
881.097554
21
-1530.206664
0
LINE
8
Layer 1
10
881.097554
20
-1530.206664
11
881.379776
21
-1530.488886
0
LINE
8
Layer 1
10
881.379776
20
-1530.488886
11
881.661998
21
-1531.053330
0
LINE
8
Layer 1
10
881.661998
20
-1531.053330
11
882.226442
21
-1531.335552
0
LINE
8
Layer 1
10
882.226442
20
-1531.335552
11
882.508664
21
-1531.899996
0
LINE
8
Layer 1
10
882.508664
20
-1531.899996
11
883.073108
21
-1532.182218
0
LINE
8
Layer 1
10
883.073108
20
-1532.182218
11
883.355330
21
-1532.746662
0
LINE
8
Layer 1
10
883.355330
20
-1532.746662
11
883.919774
21
-1533.028884
0
LINE
8
Layer 1
10
883.919774
20
-1533.028884
11
884.201996
21
-1533.311106
0
LINE
8
Layer 1
10
884.201996
20
-1533.311106
11
884.766440
21
-1533.593328
0
LINE
8
Layer 1
10
884.766440
20
-1533.593328
11
885.330884
21
-1533.875550
0
LINE
8
Layer 1
10
885.330884
20
-1533.875550
11
885.895328
21
-1534.157772
0
LINE
8
Layer 1
10
885.895328
20
-1534.157772
11
886.177550
21
-1534.439994
0
LINE
8
Layer 1
10
886.177550
20
-1534.439994
11
886.741994
21
-1534.722216
0
LINE
8
Layer 1
10
886.741994
20
-1534.722216
11
887.306000
21
-1534.720000
0
LINE
8
Layer 1
10
887.306000
20
-1534.720000
11
887.870444
21
-1535.002222
0
LINE
8
Layer 1
10
887.870444
20
-1535.002222
11
888.434888
21
-1535.284444
0
LINE
8
Layer 1
10
888.434888
20
-1535.284444
11
888.999000
21
-1535.290000
0
LINE
8
Layer 1
10
888.999000
20
-1535.290000
11
889.564000
21
-1535.290000
0
LINE
8
Layer 1
10
889.564000
20
-1535.290000
11
890.128444
21
-1535.572222
0
LINE
8
Layer 1
10
890.128444
20
-1535.572222
11
890.693000
21
-1535.570000
0
LINE
8
Layer 1
10
890.693000
20
-1535.570000
11
891.257000
21
-1535.570000
0
LINE
8
Layer 1
10
891.257000
20
-1535.570000
11
891.822000
21
-1535.570000
0
LINE
8
Layer 1
10
878.557000
20
-1355.510000
11
878.557000
21
-1522.310000
0
LINE
8
Layer 1
10
891.822000
20
-1342.250000
11
891.257000
21
-1342.250000
0
LINE
8
Layer 1
10
891.257000
20
-1342.250000
11
890.693000
21
-1342.250000
0
LINE
8
Layer 1
10
890.693000
20
-1342.250000
11
890.128556
21
-1342.532222
0
LINE
8
Layer 1
10
890.128556
20
-1342.532222
11
889.564000
21
-1342.530000
0
LINE
8
Layer 1
10
889.564000
20
-1342.530000
11
888.999000
21
-1342.530000
0
LINE
8
Layer 1
10
888.999000
20
-1342.530000
11
888.434556
21
-1342.812222
0
LINE
8
Layer 1
10
888.434556
20
-1342.812222
11
887.870000
21
-1342.810000
0
LINE
8
Layer 1
10
887.870000
20
-1342.810000
11
887.305556
21
-1343.092222
0
LINE
8
Layer 1
10
887.305556
20
-1343.092222
11
886.741112
21
-1343.374444
0
LINE
8
Layer 1
10
886.741112
20
-1343.374444
11
886.177000
21
-1343.380000
0
LINE
8
Layer 1
10
886.177000
20
-1343.380000
11
885.894778
21
-1343.662222
0
LINE
8
Layer 1
10
885.894778
20
-1343.662222
11
885.330334
21
-1343.944444
0
LINE
8
Layer 1
10
885.330334
20
-1343.944444
11
884.765890
21
-1344.226666
0
LINE
8
Layer 1
10
884.765890
20
-1344.226666
11
884.483668
21
-1344.508888
0
LINE
8
Layer 1
10
884.483668
20
-1344.508888
11
883.919224
21
-1344.791110
0
LINE
8
Layer 1
10
883.919224
20
-1344.791110
11
883.354780
21
-1345.355554
0
LINE
8
Layer 1
10
883.354780
20
-1345.355554
11
883.072558
21
-1345.637776
0
LINE
8
Layer 1
10
883.072558
20
-1345.637776
11
882.508114
21
-1345.919998
0
LINE
8
Layer 1
10
882.508114
20
-1345.919998
11
882.225892
21
-1346.484442
0
LINE
8
Layer 1
10
882.225892
20
-1346.484442
11
881.943670
21
-1346.766664
0
LINE
8
Layer 1
10
881.943670
20
-1346.766664
11
881.379226
21
-1347.331108
0
LINE
8
Layer 1
10
881.379226
20
-1347.331108
11
881.097004
21
-1347.613330
0
LINE
8
Layer 1
10
881.097004
20
-1347.613330
11
880.814782
21
-1348.177774
0
LINE
8
Layer 1
10
880.814782
20
-1348.177774
11
880.532560
21
-1348.742218
0
LINE
8
Layer 1
10
880.532560
20
-1348.742218
11
880.250338
21
-1349.024440
0
LINE
8
Layer 1
10
880.250338
20
-1349.024440
11
879.968116
21
-1349.588884
0
LINE
8
Layer 1
10
879.968116
20
-1349.588884
11
879.685894
21
-1350.153328
0
LINE
8
Layer 1
10
879.685894
20
-1350.153328
11
879.403672
21
-1350.717772
0
LINE
8
Layer 1
10
879.403672
20
-1350.717772
11
879.121450
21
-1351.282216
0
LINE
8
Layer 1
10
879.121450
20
-1351.282216
11
879.122000
21
-1351.560000
0
LINE
8
Layer 1
10
879.122000
20
-1351.560000
11
878.839778
21
-1352.124444
0
LINE
8
Layer 1
10
878.839778
20
-1352.124444
11
878.839000
21
-1352.690000
0
LINE
8
Layer 1
10
878.839000
20
-1352.690000
11
878.556778
21
-1353.254444
0
LINE
8
Layer 1
10
878.556778
20
-1353.254444
11
878.557000
21
-1353.820000
0
LINE
8
Layer 1
10
878.557000
20
-1353.820000
11
878.557000
21
-1354.380000
0
LINE
8
Layer 1
10
878.557000
20
-1354.380000
11
878.557000
21
-1354.950000
0
LINE
8
Layer 1
10
878.557000
20
-1354.950000
11
878.557000
21
-1355.510000
0
LINE
8
Layer 1
10
1912.900000
20
-1342.250000
11
891.822000
21
-1342.250000
0
LINE
8
Layer 1
10
1926.170000
20
-1355.510000
11
1926.170000
21
-1354.950000
0
LINE
8
Layer 1
10
1926.170000
20
-1354.950000
11
1926.170000
21
-1354.380000
0
LINE
8
Layer 1
10
1926.170000
20
-1354.380000
11
1926.170000
21
-1353.820000
0
LINE
8
Layer 1
10
1926.170000
20
-1353.820000
11
1926.170000
21
-1353.250000
0
LINE
8
Layer 1
10
1926.170000
20
-1353.250000
11
1925.887778
21
-1352.685556
0
LINE
8
Layer 1
10
1925.887778
20
-1352.685556
11
1925.880000
21
-1352.410000
0
LINE
8
Layer 1
10
1925.880000
20
-1352.410000
11
1925.597778
21
-1351.845556
0
LINE
8
Layer 1
10
1925.597778
20
-1351.845556
11
1925.600000
21
-1351.280000
0
LINE
8
Layer 1
10
1925.600000
20
-1351.280000
11
1925.317778
21
-1350.715556
0
LINE
8
Layer 1
10
1925.317778
20
-1350.715556
11
1925.035556
21
-1350.151112
0
LINE
8
Layer 1
10
1925.035556
20
-1350.151112
11
1924.753334
21
-1349.586668
0
LINE
8
Layer 1
10
1924.753334
20
-1349.586668
11
1924.471112
21
-1349.022224
0
LINE
8
Layer 1
10
1924.471112
20
-1349.022224
11
1924.188890
21
-1348.740002
0
LINE
8
Layer 1
10
1924.188890
20
-1348.740002
11
1923.906668
21
-1348.175558
0
LINE
8
Layer 1
10
1923.906668
20
-1348.175558
11
1923.624446
21
-1347.611114
0
LINE
8
Layer 1
10
1923.624446
20
-1347.611114
11
1923.342224
21
-1347.328892
0
LINE
8
Layer 1
10
1923.342224
20
-1347.328892
11
1923.060002
21
-1346.764448
0
LINE
8
Layer 1
10
1923.060002
20
-1346.764448
11
1922.495558
21
-1346.482226
0
LINE
8
Layer 1
10
1922.495558
20
-1346.482226
11
1922.213336
21
-1345.917782
0
LINE
8
Layer 1
10
1922.213336
20
-1345.917782
11
1921.648892
21
-1345.635560
0
LINE
8
Layer 1
10
1921.648892
20
-1345.635560
11
1921.366670
21
-1345.353338
0
LINE
8
Layer 1
10
1921.366670
20
-1345.353338
11
1920.802226
21
-1344.788894
0
LINE
8
Layer 1
10
1920.802226
20
-1344.788894
11
1920.520004
21
-1344.506672
0
LINE
8
Layer 1
10
1920.520004
20
-1344.506672
11
1919.955560
21
-1344.224450
0
LINE
8
Layer 1
10
1919.955560
20
-1344.224450
11
1919.391116
21
-1343.942228
0
LINE
8
Layer 1
10
1919.391116
20
-1343.942228
11
1919.108894
21
-1343.660006
0
LINE
8
Layer 1
10
1919.108894
20
-1343.660006
11
1918.544450
21
-1343.377784
0
LINE
8
Layer 1
10
1918.544450
20
-1343.377784
11
1917.980000
21
-1343.380000
0
LINE
8
Layer 1
10
1917.980000
20
-1343.380000
11
1917.415556
21
-1343.097778
0
LINE
8
Layer 1
10
1917.415556
20
-1343.097778
11
1916.851112
21
-1342.815556
0
LINE
8
Layer 1
10
1916.851112
20
-1342.815556
11
1916.290000
21
-1342.810000
0
LINE
8
Layer 1
10
1916.290000
20
-1342.810000
11
1915.725556
21
-1342.527778
0
LINE
8
Layer 1
10
1915.725556
20
-1342.527778
11
1915.160000
21
-1342.530000
0
LINE
8
Layer 1
10
1915.160000
20
-1342.530000
11
1914.590000
21
-1342.530000
0
LINE
8
Layer 1
10
1914.590000
20
-1342.530000
11
1914.025556
21
-1342.247778
0
LINE
8
Layer 1
10
1914.025556
20
-1342.247778
11
1913.470000
21
-1342.250000
0
LINE
8
Layer 1
10
1913.470000
20
-1342.250000
11
1912.900000
21
-1342.250000
 0 
ENDSEC
 0 
EOF