%TF.GenerationSoftware,KiCad,Pcbnew,6.0.11-2627ca5db0~126~ubuntu22.04.1*%
%TF.CreationDate,2025-08-28T10:11:21+02:00*%
%TF.ProjectId,LaserLid,4c617365-724c-4696-942e-6b696361645f,rev?*%
%TF.SameCoordinates,Original*%
%TF.FileFunction,Other,ECO1*%
%FSLAX46Y46*%
G04 Gerber Fmt 4.6, Leading zero omitted, Abs format (unit mm)*
G04 Created by KiCad (PCBNEW 6.0.11-2627ca5db0~126~ubuntu22.04.1) date 2025-08-28 10:11:21*
%MOMM*%
%LPD*%
G01*
G04 APERTURE LIST*
G04 APERTURE END LIST*
%TO.C,G\u002A\u002A\u002A*%
G36*
X142462865Y-285775181D02*
G01*
X144664585Y-285775252D01*
X146753683Y-285775389D01*
X148733100Y-285775609D01*
X150605775Y-285775930D01*
X152374646Y-285776370D01*
X154042654Y-285776948D01*
X155612738Y-285777682D01*
X157087837Y-285778588D01*
X158470891Y-285779687D01*
X159764839Y-285780995D01*
X160972620Y-285782531D01*
X162097175Y-285784312D01*
X163141441Y-285786357D01*
X164108360Y-285788684D01*
X165000870Y-285791311D01*
X165821910Y-285794255D01*
X166574420Y-285797535D01*
X167261340Y-285801170D01*
X167885609Y-285805176D01*
X168450166Y-285809572D01*
X168957950Y-285814377D01*
X169411902Y-285819607D01*
X169814960Y-285825281D01*
X170170065Y-285831418D01*
X170480154Y-285838035D01*
X170748169Y-285845150D01*
X170977047Y-285852781D01*
X171169729Y-285860947D01*
X171329154Y-285869665D01*
X171458262Y-285878954D01*
X171559991Y-285888831D01*
X171637282Y-285899314D01*
X171693073Y-285910422D01*
X171730305Y-285922173D01*
X171751916Y-285934584D01*
X171760846Y-285947674D01*
X171760034Y-285961460D01*
X171752420Y-285975961D01*
X171740944Y-285991195D01*
X171728543Y-286007180D01*
X171722519Y-286016096D01*
X171694546Y-286021588D01*
X171615953Y-286026811D01*
X171484299Y-286031771D01*
X171297140Y-286036471D01*
X171052034Y-286040915D01*
X170746540Y-286045107D01*
X170378214Y-286049050D01*
X169944615Y-286052749D01*
X169443301Y-286056206D01*
X168871828Y-286059427D01*
X168227755Y-286062415D01*
X167508640Y-286065173D01*
X166712040Y-286067706D01*
X165835513Y-286070017D01*
X164876616Y-286072110D01*
X163832908Y-286073990D01*
X162701946Y-286075659D01*
X161481287Y-286077122D01*
X160168491Y-286078382D01*
X158761113Y-286079444D01*
X157256712Y-286080310D01*
X155652846Y-286080986D01*
X153947073Y-286081474D01*
X152136949Y-286081779D01*
X150220034Y-286081905D01*
X148193883Y-286081855D01*
X146056057Y-286081633D01*
X143804111Y-286081242D01*
X141435603Y-286080688D01*
X138948093Y-286079973D01*
X136339136Y-286079102D01*
X133606291Y-286078077D01*
X132465253Y-286077621D01*
X129775380Y-286076504D01*
X127209925Y-286075392D01*
X124765985Y-286074276D01*
X122440659Y-286073146D01*
X120231046Y-286071995D01*
X118134245Y-286070815D01*
X116147355Y-286069595D01*
X114267473Y-286068330D01*
X112491699Y-286067009D01*
X110817132Y-286065624D01*
X109240870Y-286064167D01*
X107760011Y-286062629D01*
X106371655Y-286061002D01*
X105072900Y-286059278D01*
X103860845Y-286057447D01*
X102732588Y-286055502D01*
X101685229Y-286053433D01*
X100715865Y-286051234D01*
X99821596Y-286048894D01*
X98999521Y-286046406D01*
X98246737Y-286043761D01*
X97560343Y-286040950D01*
X96937439Y-286037966D01*
X96375123Y-286034799D01*
X95870493Y-286031441D01*
X95420649Y-286027884D01*
X95022689Y-286024119D01*
X94673711Y-286020138D01*
X94370815Y-286015933D01*
X94111098Y-286011494D01*
X93891661Y-286006813D01*
X93709600Y-286001883D01*
X93562016Y-285996693D01*
X93446007Y-285991237D01*
X93358671Y-285985505D01*
X93297107Y-285979489D01*
X93258413Y-285973180D01*
X93239690Y-285966571D01*
X93236891Y-285963061D01*
X93244736Y-285849896D01*
X93262544Y-285819828D01*
X93328186Y-285817289D01*
X93517704Y-285814786D01*
X93827659Y-285812323D01*
X94254607Y-285809904D01*
X94795109Y-285807532D01*
X95445722Y-285805213D01*
X96203005Y-285802950D01*
X97063518Y-285800746D01*
X98023818Y-285798605D01*
X99080464Y-285796533D01*
X100230015Y-285794531D01*
X101469030Y-285792605D01*
X102794067Y-285790759D01*
X104201685Y-285788995D01*
X105688442Y-285787319D01*
X107250898Y-285785734D01*
X108885610Y-285784243D01*
X110589138Y-285782852D01*
X112358041Y-285781563D01*
X114188876Y-285780381D01*
X116078203Y-285779310D01*
X118022580Y-285778353D01*
X120018566Y-285777514D01*
X122062719Y-285776798D01*
X124151599Y-285776208D01*
X126281763Y-285775749D01*
X128449771Y-285775423D01*
X130652181Y-285775236D01*
X132470985Y-285775188D01*
X135152584Y-285775179D01*
X137709804Y-285775162D01*
X140145584Y-285775157D01*
X142462865Y-285775181D01*
G37*
G36*
X135211004Y-271706545D02*
G01*
X137793719Y-271706635D01*
X140254773Y-271706792D01*
X142596992Y-271707025D01*
X144823207Y-271707338D01*
X146936243Y-271707738D01*
X148938931Y-271708233D01*
X150834097Y-271708828D01*
X152624571Y-271709531D01*
X154313180Y-271710347D01*
X155902753Y-271711284D01*
X157396117Y-271712347D01*
X158796101Y-271713544D01*
X160105533Y-271714880D01*
X161327242Y-271716363D01*
X162464055Y-271717999D01*
X163518800Y-271719795D01*
X164494306Y-271721756D01*
X165393402Y-271723891D01*
X166218914Y-271726204D01*
X166973672Y-271728704D01*
X167660503Y-271731395D01*
X168282236Y-271734286D01*
X168841699Y-271737382D01*
X169341720Y-271740689D01*
X169785127Y-271744216D01*
X170174749Y-271747967D01*
X170513413Y-271751950D01*
X170803948Y-271756171D01*
X171049182Y-271760637D01*
X171251943Y-271765354D01*
X171415059Y-271770328D01*
X171541359Y-271775567D01*
X171633671Y-271781077D01*
X171694822Y-271786865D01*
X171727642Y-271792936D01*
X171735269Y-271797351D01*
X171723411Y-271911709D01*
X171687751Y-271956550D01*
X171637587Y-271961651D01*
X171498739Y-271966496D01*
X171269769Y-271971086D01*
X170949240Y-271975423D01*
X170535714Y-271979511D01*
X170027753Y-271983349D01*
X169423920Y-271986941D01*
X168722778Y-271990289D01*
X167922887Y-271993393D01*
X167022812Y-271996257D01*
X166021115Y-271998881D01*
X164916356Y-272001269D01*
X163707100Y-272003421D01*
X162391909Y-272005340D01*
X160969344Y-272007028D01*
X159437969Y-272008486D01*
X157796345Y-272009717D01*
X156043035Y-272010723D01*
X154176602Y-272011504D01*
X152195607Y-272012064D01*
X150098614Y-272012405D01*
X147884184Y-272012527D01*
X145550880Y-272012433D01*
X143097264Y-272012126D01*
X140521899Y-272011606D01*
X137823347Y-272010876D01*
X135000171Y-272009938D01*
X132430627Y-272008949D01*
X129741970Y-272007832D01*
X127177728Y-272006720D01*
X124734999Y-272005602D01*
X122410881Y-272004472D01*
X120202471Y-272003321D01*
X118106865Y-272002140D01*
X116121163Y-272000920D01*
X114242461Y-271999653D01*
X112467856Y-271998331D01*
X110794446Y-271996946D01*
X109219328Y-271995488D01*
X107739600Y-271993949D01*
X106352359Y-271992321D01*
X105054703Y-271990595D01*
X103843728Y-271988763D01*
X102716533Y-271986816D01*
X101670214Y-271984746D01*
X100701870Y-271982544D01*
X99808597Y-271980202D01*
X98987492Y-271977711D01*
X98235654Y-271975063D01*
X97550180Y-271972250D01*
X96928167Y-271969262D01*
X96366712Y-271966092D01*
X95862913Y-271962731D01*
X95413868Y-271959170D01*
X95016673Y-271955401D01*
X94668426Y-271951416D01*
X94366224Y-271947205D01*
X94107165Y-271942761D01*
X93888347Y-271938076D01*
X93706866Y-271933139D01*
X93559821Y-271927944D01*
X93444307Y-271922481D01*
X93357424Y-271916742D01*
X93296268Y-271910719D01*
X93257936Y-271904403D01*
X93239527Y-271897785D01*
X93236891Y-271894390D01*
X93244736Y-271781224D01*
X93262544Y-271751157D01*
X93328185Y-271748618D01*
X93517704Y-271746116D01*
X93827662Y-271743654D01*
X94254618Y-271741236D01*
X94795134Y-271738866D01*
X95445768Y-271736547D01*
X96203081Y-271734284D01*
X97063633Y-271732081D01*
X98023984Y-271729942D01*
X99080694Y-271727870D01*
X100230324Y-271725869D01*
X101469433Y-271723943D01*
X102794582Y-271722097D01*
X104202330Y-271720334D01*
X105689239Y-271718658D01*
X107251867Y-271717072D01*
X108886775Y-271715582D01*
X110590524Y-271714190D01*
X112359672Y-271712901D01*
X114190781Y-271711719D01*
X116080411Y-271710647D01*
X118025121Y-271709689D01*
X120021471Y-271708850D01*
X122066023Y-271708133D01*
X124155335Y-271707542D01*
X126285969Y-271707081D01*
X128454483Y-271706755D01*
X130657439Y-271706566D01*
X132503799Y-271706517D01*
X135211004Y-271706545D01*
G37*
G36*
X172043264Y-272010282D02*
G01*
X172050303Y-272079865D01*
X172056775Y-272268457D01*
X172062635Y-272567751D01*
X172067838Y-272969439D01*
X172072339Y-273465214D01*
X172076093Y-274046768D01*
X172079056Y-274705792D01*
X172081183Y-275433980D01*
X172082429Y-276223024D01*
X172082750Y-277064616D01*
X172082101Y-277950448D01*
X172080436Y-278872212D01*
X172080363Y-278903471D01*
X172077773Y-279983940D01*
X172075319Y-280944182D01*
X172072852Y-281791288D01*
X172070224Y-282532348D01*
X172067285Y-283174454D01*
X172063888Y-283724697D01*
X172059882Y-284190167D01*
X172055119Y-284577956D01*
X172049452Y-284895153D01*
X172042729Y-285148851D01*
X172034804Y-285346140D01*
X172025527Y-285494111D01*
X172014749Y-285599855D01*
X172002321Y-285670463D01*
X171988096Y-285713026D01*
X171971923Y-285734634D01*
X171953655Y-285742379D01*
X171936842Y-285743359D01*
X171916743Y-285741727D01*
X171898860Y-285732110D01*
X171883043Y-285707422D01*
X171869144Y-285660579D01*
X171857016Y-285584498D01*
X171846509Y-285472092D01*
X171837475Y-285316278D01*
X171829767Y-285109972D01*
X171823234Y-284846088D01*
X171817730Y-284517543D01*
X171813105Y-284117252D01*
X171809212Y-283638131D01*
X171805901Y-283073094D01*
X171803025Y-282415058D01*
X171800435Y-281656938D01*
X171797983Y-280791650D01*
X171795521Y-279812109D01*
X171793324Y-278891005D01*
X171790861Y-277805706D01*
X171788959Y-276840664D01*
X171787712Y-275988822D01*
X171787212Y-275243120D01*
X171787550Y-274596499D01*
X171788820Y-274041899D01*
X171791114Y-273572263D01*
X171794524Y-273180530D01*
X171799143Y-272859641D01*
X171805063Y-272602538D01*
X171812376Y-272402160D01*
X171821175Y-272251450D01*
X171831552Y-272143348D01*
X171843600Y-272070795D01*
X171857410Y-272026732D01*
X171873076Y-272004099D01*
X171883543Y-271997816D01*
X172000797Y-271988772D01*
X172043264Y-272010282D01*
G37*
G36*
X93121356Y-271999696D02*
G01*
X93137451Y-272014214D01*
X93151711Y-272049360D01*
X93164223Y-272112138D01*
X93175074Y-272209556D01*
X93184350Y-272348618D01*
X93192139Y-272536329D01*
X93198527Y-272779695D01*
X93203600Y-273085721D01*
X93207446Y-273461414D01*
X93210152Y-273913778D01*
X93211803Y-274449819D01*
X93212487Y-275076541D01*
X93212291Y-275800952D01*
X93211301Y-276630056D01*
X93209603Y-277570858D01*
X93207285Y-278630365D01*
X93206675Y-278891005D01*
X93204088Y-279972514D01*
X93201637Y-280933789D01*
X93199173Y-281781916D01*
X93196548Y-282523977D01*
X93193615Y-283167059D01*
X93190223Y-283718244D01*
X93186225Y-284184619D01*
X93181473Y-284573267D01*
X93175819Y-284891272D01*
X93169113Y-285145720D01*
X93161207Y-285343694D01*
X93151954Y-285492279D01*
X93141204Y-285598560D01*
X93128809Y-285669620D01*
X93114622Y-285712546D01*
X93098493Y-285734420D01*
X93080274Y-285742327D01*
X93063157Y-285743359D01*
X93043063Y-285741728D01*
X93025183Y-285732113D01*
X93009368Y-285707431D01*
X92995472Y-285660599D01*
X92983344Y-285584535D01*
X92972838Y-285472155D01*
X92963804Y-285316376D01*
X92956095Y-285110116D01*
X92949562Y-284846292D01*
X92944056Y-284517820D01*
X92939431Y-284117618D01*
X92935537Y-283638603D01*
X92932226Y-283073693D01*
X92929349Y-282415803D01*
X92926759Y-281657851D01*
X92924307Y-280792754D01*
X92921846Y-279813430D01*
X92919639Y-278888018D01*
X92917703Y-277842250D01*
X92916959Y-276863026D01*
X92917372Y-275956192D01*
X92918907Y-275127594D01*
X92921529Y-274383075D01*
X92925201Y-273728480D01*
X92929887Y-273169655D01*
X92935554Y-272712444D01*
X92942163Y-272362692D01*
X92949681Y-272126244D01*
X92958071Y-272008944D01*
X92961639Y-271996709D01*
X93065713Y-271985480D01*
X93121356Y-271999696D01*
G37*
G36*
X58050104Y-158244736D02*
G01*
X58080172Y-158262544D01*
X58082711Y-158328186D01*
X58085214Y-158517704D01*
X58087677Y-158827659D01*
X58090096Y-159254607D01*
X58092468Y-159795109D01*
X58094787Y-160445722D01*
X58097050Y-161203005D01*
X58099254Y-162063518D01*
X58101395Y-163023818D01*
X58103467Y-164080464D01*
X58105469Y-165230015D01*
X58107395Y-166469030D01*
X58109241Y-167794067D01*
X58111005Y-169201685D01*
X58112681Y-170688442D01*
X58114266Y-172250898D01*
X58115757Y-173885610D01*
X58117148Y-175589138D01*
X58118437Y-177358041D01*
X58119619Y-179188876D01*
X58120690Y-181078203D01*
X58121647Y-183022580D01*
X58122486Y-185018566D01*
X58123202Y-187062719D01*
X58123792Y-189151599D01*
X58124251Y-191281763D01*
X58124577Y-193449771D01*
X58124764Y-195652181D01*
X58124812Y-197470985D01*
X58124821Y-200152584D01*
X58124838Y-202709804D01*
X58124843Y-205145584D01*
X58124819Y-207462865D01*
X58124748Y-209664585D01*
X58124611Y-211753683D01*
X58124391Y-213733100D01*
X58124070Y-215605775D01*
X58123630Y-217374646D01*
X58123052Y-219042654D01*
X58122318Y-220612738D01*
X58121412Y-222087837D01*
X58120313Y-223470891D01*
X58119005Y-224764839D01*
X58117469Y-225972620D01*
X58115688Y-227097175D01*
X58113643Y-228141441D01*
X58111316Y-229108360D01*
X58108689Y-230000870D01*
X58105745Y-230821910D01*
X58102465Y-231574420D01*
X58098830Y-232261340D01*
X58094824Y-232885609D01*
X58090428Y-233450166D01*
X58085623Y-233957950D01*
X58080393Y-234411902D01*
X58074719Y-234814960D01*
X58068582Y-235170065D01*
X58061965Y-235480154D01*
X58054850Y-235748169D01*
X58047219Y-235977047D01*
X58039053Y-236169729D01*
X58030335Y-236329154D01*
X58021046Y-236458262D01*
X58011169Y-236559991D01*
X58000686Y-236637282D01*
X57989578Y-236693073D01*
X57977827Y-236730305D01*
X57965416Y-236751916D01*
X57952326Y-236760846D01*
X57938540Y-236760034D01*
X57924039Y-236752420D01*
X57908805Y-236740944D01*
X57892820Y-236728543D01*
X57883904Y-236722519D01*
X57878412Y-236694546D01*
X57873189Y-236615953D01*
X57868229Y-236484299D01*
X57863529Y-236297140D01*
X57859085Y-236052034D01*
X57854893Y-235746540D01*
X57850950Y-235378214D01*
X57847251Y-234944615D01*
X57843794Y-234443301D01*
X57840573Y-233871828D01*
X57837585Y-233227755D01*
X57834827Y-232508640D01*
X57832294Y-231712040D01*
X57829983Y-230835513D01*
X57827890Y-229876616D01*
X57826010Y-228832908D01*
X57824341Y-227701946D01*
X57822878Y-226481287D01*
X57821618Y-225168491D01*
X57820556Y-223761113D01*
X57819690Y-222256712D01*
X57819014Y-220652846D01*
X57818526Y-218947073D01*
X57818221Y-217136949D01*
X57818095Y-215220034D01*
X57818145Y-213193883D01*
X57818367Y-211056057D01*
X57818758Y-208804111D01*
X57819312Y-206435603D01*
X57820027Y-203948093D01*
X57820898Y-201339136D01*
X57821923Y-198606291D01*
X57822379Y-197465253D01*
X57823496Y-194775380D01*
X57824608Y-192209925D01*
X57825724Y-189765985D01*
X57826854Y-187440659D01*
X57828005Y-185231046D01*
X57829185Y-183134245D01*
X57830405Y-181147355D01*
X57831670Y-179267473D01*
X57832991Y-177491699D01*
X57834376Y-175817132D01*
X57835833Y-174240870D01*
X57837371Y-172760011D01*
X57838998Y-171371655D01*
X57840722Y-170072900D01*
X57842553Y-168860845D01*
X57844498Y-167732588D01*
X57846567Y-166685229D01*
X57848766Y-165715865D01*
X57851106Y-164821596D01*
X57853594Y-163999521D01*
X57856239Y-163246737D01*
X57859050Y-162560343D01*
X57862034Y-161937439D01*
X57865201Y-161375123D01*
X57868559Y-160870493D01*
X57872116Y-160420649D01*
X57875881Y-160022689D01*
X57879862Y-159673711D01*
X57884067Y-159370815D01*
X57888506Y-159111098D01*
X57893187Y-158891661D01*
X57898117Y-158709600D01*
X57903307Y-158562016D01*
X57908763Y-158446007D01*
X57914495Y-158358671D01*
X57920511Y-158297107D01*
X57926820Y-158258413D01*
X57933429Y-158239690D01*
X57936939Y-158236891D01*
X58050104Y-158244736D01*
G37*
G36*
X72118776Y-158244736D02*
G01*
X72148843Y-158262544D01*
X72151382Y-158328185D01*
X72153884Y-158517704D01*
X72156346Y-158827662D01*
X72158764Y-159254618D01*
X72161134Y-159795134D01*
X72163453Y-160445768D01*
X72165716Y-161203081D01*
X72167919Y-162063633D01*
X72170058Y-163023984D01*
X72172130Y-164080694D01*
X72174131Y-165230324D01*
X72176057Y-166469433D01*
X72177903Y-167794582D01*
X72179666Y-169202330D01*
X72181342Y-170689239D01*
X72182928Y-172251867D01*
X72184418Y-173886775D01*
X72185810Y-175590524D01*
X72187099Y-177359672D01*
X72188281Y-179190781D01*
X72189353Y-181080411D01*
X72190311Y-183025121D01*
X72191150Y-185021471D01*
X72191867Y-187066023D01*
X72192458Y-189155335D01*
X72192919Y-191285969D01*
X72193245Y-193454483D01*
X72193434Y-195657439D01*
X72193483Y-197503799D01*
X72193455Y-200211004D01*
X72193365Y-202793719D01*
X72193208Y-205254773D01*
X72192975Y-207596992D01*
X72192662Y-209823207D01*
X72192262Y-211936243D01*
X72191767Y-213938931D01*
X72191172Y-215834097D01*
X72190469Y-217624571D01*
X72189653Y-219313180D01*
X72188716Y-220902753D01*
X72187653Y-222396117D01*
X72186456Y-223796101D01*
X72185120Y-225105533D01*
X72183637Y-226327242D01*
X72182001Y-227464055D01*
X72180205Y-228518800D01*
X72178244Y-229494306D01*
X72176109Y-230393402D01*
X72173796Y-231218914D01*
X72171296Y-231973672D01*
X72168605Y-232660503D01*
X72165714Y-233282236D01*
X72162618Y-233841699D01*
X72159311Y-234341720D01*
X72155784Y-234785127D01*
X72152033Y-235174749D01*
X72148050Y-235513413D01*
X72143829Y-235803948D01*
X72139363Y-236049182D01*
X72134646Y-236251943D01*
X72129672Y-236415059D01*
X72124433Y-236541359D01*
X72118923Y-236633671D01*
X72113135Y-236694822D01*
X72107064Y-236727642D01*
X72102649Y-236735269D01*
X71988291Y-236723411D01*
X71943450Y-236687751D01*
X71938349Y-236637587D01*
X71933504Y-236498739D01*
X71928914Y-236269769D01*
X71924577Y-235949240D01*
X71920489Y-235535714D01*
X71916651Y-235027753D01*
X71913059Y-234423920D01*
X71909711Y-233722778D01*
X71906607Y-232922887D01*
X71903743Y-232022812D01*
X71901119Y-231021115D01*
X71898731Y-229916356D01*
X71896579Y-228707100D01*
X71894660Y-227391909D01*
X71892972Y-225969344D01*
X71891514Y-224437969D01*
X71890283Y-222796345D01*
X71889277Y-221043035D01*
X71888496Y-219176602D01*
X71887936Y-217195607D01*
X71887595Y-215098614D01*
X71887473Y-212884184D01*
X71887567Y-210550880D01*
X71887874Y-208097264D01*
X71888394Y-205521899D01*
X71889124Y-202823347D01*
X71890062Y-200000171D01*
X71891051Y-197430627D01*
X71892168Y-194741970D01*
X71893280Y-192177728D01*
X71894398Y-189734999D01*
X71895528Y-187410881D01*
X71896679Y-185202471D01*
X71897860Y-183106865D01*
X71899080Y-181121163D01*
X71900347Y-179242461D01*
X71901669Y-177467856D01*
X71903054Y-175794446D01*
X71904512Y-174219328D01*
X71906051Y-172739600D01*
X71907679Y-171352359D01*
X71909405Y-170054703D01*
X71911237Y-168843728D01*
X71913184Y-167716533D01*
X71915254Y-166670214D01*
X71917456Y-165701870D01*
X71919798Y-164808597D01*
X71922289Y-163987492D01*
X71924937Y-163235654D01*
X71927750Y-162550180D01*
X71930738Y-161928167D01*
X71933908Y-161366712D01*
X71937269Y-160862913D01*
X71940830Y-160413868D01*
X71944599Y-160016673D01*
X71948584Y-159668426D01*
X71952795Y-159366224D01*
X71957239Y-159107165D01*
X71961924Y-158888347D01*
X71966861Y-158706866D01*
X71972056Y-158559821D01*
X71977519Y-158444307D01*
X71983258Y-158357424D01*
X71989281Y-158296268D01*
X71995597Y-158257936D01*
X72002215Y-158239527D01*
X72005610Y-158236891D01*
X72118776Y-158244736D01*
G37*
G36*
X69303501Y-236787550D02*
G01*
X69858101Y-236788820D01*
X70327737Y-236791114D01*
X70719470Y-236794524D01*
X71040359Y-236799143D01*
X71297462Y-236805063D01*
X71497840Y-236812376D01*
X71648550Y-236821175D01*
X71756652Y-236831552D01*
X71829205Y-236843600D01*
X71873268Y-236857410D01*
X71895901Y-236873076D01*
X71902184Y-236883543D01*
X71911228Y-237000797D01*
X71889718Y-237043264D01*
X71820135Y-237050303D01*
X71631543Y-237056775D01*
X71332249Y-237062635D01*
X70930561Y-237067838D01*
X70434786Y-237072339D01*
X69853232Y-237076093D01*
X69194208Y-237079056D01*
X68466020Y-237081183D01*
X67676976Y-237082429D01*
X66835384Y-237082750D01*
X65949552Y-237082101D01*
X65027788Y-237080436D01*
X64996529Y-237080363D01*
X63916060Y-237077773D01*
X62955818Y-237075319D01*
X62108712Y-237072852D01*
X61367652Y-237070224D01*
X60725546Y-237067285D01*
X60175303Y-237063888D01*
X59709833Y-237059882D01*
X59322044Y-237055119D01*
X59004847Y-237049452D01*
X58751149Y-237042729D01*
X58553860Y-237034804D01*
X58405889Y-237025527D01*
X58300145Y-237014749D01*
X58229537Y-237002321D01*
X58186974Y-236988096D01*
X58165366Y-236971923D01*
X58157621Y-236953655D01*
X58156641Y-236936842D01*
X58158273Y-236916743D01*
X58167890Y-236898860D01*
X58192578Y-236883043D01*
X58239421Y-236869144D01*
X58315502Y-236857016D01*
X58427908Y-236846509D01*
X58583722Y-236837475D01*
X58790028Y-236829767D01*
X59053912Y-236823234D01*
X59382457Y-236817730D01*
X59782748Y-236813105D01*
X60261869Y-236809212D01*
X60826906Y-236805901D01*
X61484942Y-236803025D01*
X62243062Y-236800435D01*
X63108350Y-236797983D01*
X64087891Y-236795521D01*
X65008995Y-236793324D01*
X66094294Y-236790861D01*
X67059336Y-236788959D01*
X67911178Y-236787712D01*
X68656880Y-236787212D01*
X69303501Y-236787550D01*
G37*
G36*
X67943808Y-157917372D02*
G01*
X68772406Y-157918907D01*
X69516925Y-157921529D01*
X70171520Y-157925201D01*
X70730345Y-157929887D01*
X71187556Y-157935554D01*
X71537308Y-157942163D01*
X71773756Y-157949681D01*
X71891056Y-157958071D01*
X71903291Y-157961639D01*
X71914520Y-158065713D01*
X71900304Y-158121356D01*
X71885786Y-158137451D01*
X71850640Y-158151711D01*
X71787862Y-158164223D01*
X71690444Y-158175074D01*
X71551382Y-158184350D01*
X71363671Y-158192139D01*
X71120305Y-158198527D01*
X70814279Y-158203600D01*
X70438586Y-158207446D01*
X69986222Y-158210152D01*
X69450181Y-158211803D01*
X68823459Y-158212487D01*
X68099048Y-158212291D01*
X67269944Y-158211301D01*
X66329142Y-158209603D01*
X65269635Y-158207285D01*
X65008995Y-158206675D01*
X63927486Y-158204088D01*
X62966211Y-158201637D01*
X62118084Y-158199173D01*
X61376023Y-158196548D01*
X60732941Y-158193615D01*
X60181756Y-158190223D01*
X59715381Y-158186225D01*
X59326733Y-158181473D01*
X59008728Y-158175819D01*
X58754280Y-158169113D01*
X58556306Y-158161207D01*
X58407721Y-158151954D01*
X58301440Y-158141204D01*
X58230380Y-158128809D01*
X58187454Y-158114622D01*
X58165580Y-158098493D01*
X58157673Y-158080274D01*
X58156641Y-158063157D01*
X58158272Y-158043063D01*
X58167887Y-158025183D01*
X58192569Y-158009368D01*
X58239401Y-157995472D01*
X58315465Y-157983344D01*
X58427845Y-157972838D01*
X58583624Y-157963804D01*
X58789884Y-157956095D01*
X59053708Y-157949562D01*
X59382180Y-157944056D01*
X59782382Y-157939431D01*
X60261397Y-157935537D01*
X60826307Y-157932226D01*
X61484197Y-157929349D01*
X62242149Y-157926759D01*
X63107246Y-157924307D01*
X64086570Y-157921846D01*
X65011982Y-157919639D01*
X66057750Y-157917703D01*
X67036974Y-157916959D01*
X67943808Y-157917372D01*
G37*
G36*
X103050104Y-158244736D02*
G01*
X103080172Y-158262544D01*
X103082711Y-158328186D01*
X103085214Y-158517704D01*
X103087677Y-158827659D01*
X103090096Y-159254607D01*
X103092468Y-159795109D01*
X103094787Y-160445722D01*
X103097050Y-161203005D01*
X103099254Y-162063518D01*
X103101395Y-163023818D01*
X103103467Y-164080464D01*
X103105469Y-165230015D01*
X103107395Y-166469030D01*
X103109241Y-167794067D01*
X103111005Y-169201685D01*
X103112681Y-170688442D01*
X103114266Y-172250898D01*
X103115757Y-173885610D01*
X103117148Y-175589138D01*
X103118437Y-177358041D01*
X103119619Y-179188876D01*
X103120690Y-181078203D01*
X103121647Y-183022580D01*
X103122486Y-185018566D01*
X103123202Y-187062719D01*
X103123792Y-189151599D01*
X103124251Y-191281763D01*
X103124577Y-193449771D01*
X103124764Y-195652181D01*
X103124812Y-197470985D01*
X103124821Y-200152584D01*
X103124838Y-202709804D01*
X103124843Y-205145584D01*
X103124819Y-207462865D01*
X103124748Y-209664585D01*
X103124611Y-211753683D01*
X103124391Y-213733100D01*
X103124070Y-215605775D01*
X103123630Y-217374646D01*
X103123052Y-219042654D01*
X103122318Y-220612738D01*
X103121412Y-222087837D01*
X103120313Y-223470891D01*
X103119005Y-224764839D01*
X103117469Y-225972620D01*
X103115688Y-227097175D01*
X103113643Y-228141441D01*
X103111316Y-229108360D01*
X103108689Y-230000870D01*
X103105745Y-230821910D01*
X103102465Y-231574420D01*
X103098830Y-232261340D01*
X103094824Y-232885609D01*
X103090428Y-233450166D01*
X103085623Y-233957950D01*
X103080393Y-234411902D01*
X103074719Y-234814960D01*
X103068582Y-235170065D01*
X103061965Y-235480154D01*
X103054850Y-235748169D01*
X103047219Y-235977047D01*
X103039053Y-236169729D01*
X103030335Y-236329154D01*
X103021046Y-236458262D01*
X103011169Y-236559991D01*
X103000686Y-236637282D01*
X102989578Y-236693073D01*
X102977827Y-236730305D01*
X102965416Y-236751916D01*
X102952326Y-236760846D01*
X102938540Y-236760034D01*
X102924039Y-236752420D01*
X102908805Y-236740944D01*
X102892820Y-236728543D01*
X102883904Y-236722519D01*
X102878412Y-236694546D01*
X102873189Y-236615953D01*
X102868229Y-236484299D01*
X102863529Y-236297140D01*
X102859085Y-236052034D01*
X102854893Y-235746540D01*
X102850950Y-235378214D01*
X102847251Y-234944615D01*
X102843794Y-234443301D01*
X102840573Y-233871828D01*
X102837585Y-233227755D01*
X102834827Y-232508640D01*
X102832294Y-231712040D01*
X102829983Y-230835513D01*
X102827890Y-229876616D01*
X102826010Y-228832908D01*
X102824341Y-227701946D01*
X102822878Y-226481287D01*
X102821618Y-225168491D01*
X102820556Y-223761113D01*
X102819690Y-222256712D01*
X102819014Y-220652846D01*
X102818526Y-218947073D01*
X102818221Y-217136949D01*
X102818095Y-215220034D01*
X102818145Y-213193883D01*
X102818367Y-211056057D01*
X102818758Y-208804111D01*
X102819312Y-206435603D01*
X102820027Y-203948093D01*
X102820898Y-201339136D01*
X102821923Y-198606291D01*
X102822379Y-197465253D01*
X102823496Y-194775380D01*
X102824608Y-192209925D01*
X102825724Y-189765985D01*
X102826854Y-187440659D01*
X102828005Y-185231046D01*
X102829185Y-183134245D01*
X102830405Y-181147355D01*
X102831670Y-179267473D01*
X102832991Y-177491699D01*
X102834376Y-175817132D01*
X102835833Y-174240870D01*
X102837371Y-172760011D01*
X102838998Y-171371655D01*
X102840722Y-170072900D01*
X102842553Y-168860845D01*
X102844498Y-167732588D01*
X102846567Y-166685229D01*
X102848766Y-165715865D01*
X102851106Y-164821596D01*
X102853594Y-163999521D01*
X102856239Y-163246737D01*
X102859050Y-162560343D01*
X102862034Y-161937439D01*
X102865201Y-161375123D01*
X102868559Y-160870493D01*
X102872116Y-160420649D01*
X102875881Y-160022689D01*
X102879862Y-159673711D01*
X102884067Y-159370815D01*
X102888506Y-159111098D01*
X102893187Y-158891661D01*
X102898117Y-158709600D01*
X102903307Y-158562016D01*
X102908763Y-158446007D01*
X102914495Y-158358671D01*
X102920511Y-158297107D01*
X102926820Y-158258413D01*
X102933429Y-158239690D01*
X102936939Y-158236891D01*
X103050104Y-158244736D01*
G37*
G36*
X117118776Y-158244736D02*
G01*
X117148843Y-158262544D01*
X117151382Y-158328185D01*
X117153884Y-158517704D01*
X117156346Y-158827662D01*
X117158764Y-159254618D01*
X117161134Y-159795134D01*
X117163453Y-160445768D01*
X117165716Y-161203081D01*
X117167919Y-162063633D01*
X117170058Y-163023984D01*
X117172130Y-164080694D01*
X117174131Y-165230324D01*
X117176057Y-166469433D01*
X117177903Y-167794582D01*
X117179666Y-169202330D01*
X117181342Y-170689239D01*
X117182928Y-172251867D01*
X117184418Y-173886775D01*
X117185810Y-175590524D01*
X117187099Y-177359672D01*
X117188281Y-179190781D01*
X117189353Y-181080411D01*
X117190311Y-183025121D01*
X117191150Y-185021471D01*
X117191867Y-187066023D01*
X117192458Y-189155335D01*
X117192919Y-191285969D01*
X117193245Y-193454483D01*
X117193434Y-195657439D01*
X117193483Y-197503799D01*
X117193455Y-200211004D01*
X117193365Y-202793719D01*
X117193208Y-205254773D01*
X117192975Y-207596992D01*
X117192662Y-209823207D01*
X117192262Y-211936243D01*
X117191767Y-213938931D01*
X117191172Y-215834097D01*
X117190469Y-217624571D01*
X117189653Y-219313180D01*
X117188716Y-220902753D01*
X117187653Y-222396117D01*
X117186456Y-223796101D01*
X117185120Y-225105533D01*
X117183637Y-226327242D01*
X117182001Y-227464055D01*
X117180205Y-228518800D01*
X117178244Y-229494306D01*
X117176109Y-230393402D01*
X117173796Y-231218914D01*
X117171296Y-231973672D01*
X117168605Y-232660503D01*
X117165714Y-233282236D01*
X117162618Y-233841699D01*
X117159311Y-234341720D01*
X117155784Y-234785127D01*
X117152033Y-235174749D01*
X117148050Y-235513413D01*
X117143829Y-235803948D01*
X117139363Y-236049182D01*
X117134646Y-236251943D01*
X117129672Y-236415059D01*
X117124433Y-236541359D01*
X117118923Y-236633671D01*
X117113135Y-236694822D01*
X117107064Y-236727642D01*
X117102649Y-236735269D01*
X116988291Y-236723411D01*
X116943450Y-236687751D01*
X116938349Y-236637587D01*
X116933504Y-236498739D01*
X116928914Y-236269769D01*
X116924577Y-235949240D01*
X116920489Y-235535714D01*
X116916651Y-235027753D01*
X116913059Y-234423920D01*
X116909711Y-233722778D01*
X116906607Y-232922887D01*
X116903743Y-232022812D01*
X116901119Y-231021115D01*
X116898731Y-229916356D01*
X116896579Y-228707100D01*
X116894660Y-227391909D01*
X116892972Y-225969344D01*
X116891514Y-224437969D01*
X116890283Y-222796345D01*
X116889277Y-221043035D01*
X116888496Y-219176602D01*
X116887936Y-217195607D01*
X116887595Y-215098614D01*
X116887473Y-212884184D01*
X116887567Y-210550880D01*
X116887874Y-208097264D01*
X116888394Y-205521899D01*
X116889124Y-202823347D01*
X116890062Y-200000171D01*
X116891051Y-197430627D01*
X116892168Y-194741970D01*
X116893280Y-192177728D01*
X116894398Y-189734999D01*
X116895528Y-187410881D01*
X116896679Y-185202471D01*
X116897860Y-183106865D01*
X116899080Y-181121163D01*
X116900347Y-179242461D01*
X116901669Y-177467856D01*
X116903054Y-175794446D01*
X116904512Y-174219328D01*
X116906051Y-172739600D01*
X116907679Y-171352359D01*
X116909405Y-170054703D01*
X116911237Y-168843728D01*
X116913184Y-167716533D01*
X116915254Y-166670214D01*
X116917456Y-165701870D01*
X116919798Y-164808597D01*
X116922289Y-163987492D01*
X116924937Y-163235654D01*
X116927750Y-162550180D01*
X116930738Y-161928167D01*
X116933908Y-161366712D01*
X116937269Y-160862913D01*
X116940830Y-160413868D01*
X116944599Y-160016673D01*
X116948584Y-159668426D01*
X116952795Y-159366224D01*
X116957239Y-159107165D01*
X116961924Y-158888347D01*
X116966861Y-158706866D01*
X116972056Y-158559821D01*
X116977519Y-158444307D01*
X116983258Y-158357424D01*
X116989281Y-158296268D01*
X116995597Y-158257936D01*
X117002215Y-158239527D01*
X117005610Y-158236891D01*
X117118776Y-158244736D01*
G37*
G36*
X114303501Y-236787550D02*
G01*
X114858101Y-236788820D01*
X115327737Y-236791114D01*
X115719470Y-236794524D01*
X116040359Y-236799143D01*
X116297462Y-236805063D01*
X116497840Y-236812376D01*
X116648550Y-236821175D01*
X116756652Y-236831552D01*
X116829205Y-236843600D01*
X116873268Y-236857410D01*
X116895901Y-236873076D01*
X116902184Y-236883543D01*
X116911228Y-237000797D01*
X116889718Y-237043264D01*
X116820135Y-237050303D01*
X116631543Y-237056775D01*
X116332249Y-237062635D01*
X115930561Y-237067838D01*
X115434786Y-237072339D01*
X114853232Y-237076093D01*
X114194208Y-237079056D01*
X113466020Y-237081183D01*
X112676976Y-237082429D01*
X111835384Y-237082750D01*
X110949552Y-237082101D01*
X110027788Y-237080436D01*
X109996529Y-237080363D01*
X108916060Y-237077773D01*
X107955818Y-237075319D01*
X107108712Y-237072852D01*
X106367652Y-237070224D01*
X105725546Y-237067285D01*
X105175303Y-237063888D01*
X104709833Y-237059882D01*
X104322044Y-237055119D01*
X104004847Y-237049452D01*
X103751149Y-237042729D01*
X103553860Y-237034804D01*
X103405889Y-237025527D01*
X103300145Y-237014749D01*
X103229537Y-237002321D01*
X103186974Y-236988096D01*
X103165366Y-236971923D01*
X103157621Y-236953655D01*
X103156641Y-236936842D01*
X103158273Y-236916743D01*
X103167890Y-236898860D01*
X103192578Y-236883043D01*
X103239421Y-236869144D01*
X103315502Y-236857016D01*
X103427908Y-236846509D01*
X103583722Y-236837475D01*
X103790028Y-236829767D01*
X104053912Y-236823234D01*
X104382457Y-236817730D01*
X104782748Y-236813105D01*
X105261869Y-236809212D01*
X105826906Y-236805901D01*
X106484942Y-236803025D01*
X107243062Y-236800435D01*
X108108350Y-236797983D01*
X109087891Y-236795521D01*
X110008995Y-236793324D01*
X111094294Y-236790861D01*
X112059336Y-236788959D01*
X112911178Y-236787712D01*
X113656880Y-236787212D01*
X114303501Y-236787550D01*
G37*
G36*
X112943808Y-157917372D02*
G01*
X113772406Y-157918907D01*
X114516925Y-157921529D01*
X115171520Y-157925201D01*
X115730345Y-157929887D01*
X116187556Y-157935554D01*
X116537308Y-157942163D01*
X116773756Y-157949681D01*
X116891056Y-157958071D01*
X116903291Y-157961639D01*
X116914520Y-158065713D01*
X116900304Y-158121356D01*
X116885786Y-158137451D01*
X116850640Y-158151711D01*
X116787862Y-158164223D01*
X116690444Y-158175074D01*
X116551382Y-158184350D01*
X116363671Y-158192139D01*
X116120305Y-158198527D01*
X115814279Y-158203600D01*
X115438586Y-158207446D01*
X114986222Y-158210152D01*
X114450181Y-158211803D01*
X113823459Y-158212487D01*
X113099048Y-158212291D01*
X112269944Y-158211301D01*
X111329142Y-158209603D01*
X110269635Y-158207285D01*
X110008995Y-158206675D01*
X108927486Y-158204088D01*
X107966211Y-158201637D01*
X107118084Y-158199173D01*
X106376023Y-158196548D01*
X105732941Y-158193615D01*
X105181756Y-158190223D01*
X104715381Y-158186225D01*
X104326733Y-158181473D01*
X104008728Y-158175819D01*
X103754280Y-158169113D01*
X103556306Y-158161207D01*
X103407721Y-158151954D01*
X103301440Y-158141204D01*
X103230380Y-158128809D01*
X103187454Y-158114622D01*
X103165580Y-158098493D01*
X103157673Y-158080274D01*
X103156641Y-158063157D01*
X103158272Y-158043063D01*
X103167887Y-158025183D01*
X103192569Y-158009368D01*
X103239401Y-157995472D01*
X103315465Y-157983344D01*
X103427845Y-157972838D01*
X103583624Y-157963804D01*
X103789884Y-157956095D01*
X104053708Y-157949562D01*
X104382180Y-157944056D01*
X104782382Y-157939431D01*
X105261397Y-157935537D01*
X105826307Y-157932226D01*
X106484197Y-157929349D01*
X107242149Y-157926759D01*
X108107246Y-157924307D01*
X109086570Y-157921846D01*
X110011982Y-157919639D01*
X111057750Y-157917703D01*
X112036974Y-157916959D01*
X112943808Y-157917372D01*
G37*
G36*
X148050104Y-158244736D02*
G01*
X148080172Y-158262544D01*
X148082711Y-158328186D01*
X148085214Y-158517704D01*
X148087677Y-158827659D01*
X148090096Y-159254607D01*
X148092468Y-159795109D01*
X148094787Y-160445722D01*
X148097050Y-161203005D01*
X148099254Y-162063518D01*
X148101395Y-163023818D01*
X148103467Y-164080464D01*
X148105469Y-165230015D01*
X148107395Y-166469030D01*
X148109241Y-167794067D01*
X148111005Y-169201685D01*
X148112681Y-170688442D01*
X148114266Y-172250898D01*
X148115757Y-173885610D01*
X148117148Y-175589138D01*
X148118437Y-177358041D01*
X148119619Y-179188876D01*
X148120690Y-181078203D01*
X148121647Y-183022580D01*
X148122486Y-185018566D01*
X148123202Y-187062719D01*
X148123792Y-189151599D01*
X148124251Y-191281763D01*
X148124577Y-193449771D01*
X148124764Y-195652181D01*
X148124812Y-197470985D01*
X148124821Y-200152584D01*
X148124838Y-202709804D01*
X148124843Y-205145584D01*
X148124819Y-207462865D01*
X148124748Y-209664585D01*
X148124611Y-211753683D01*
X148124391Y-213733100D01*
X148124070Y-215605775D01*
X148123630Y-217374646D01*
X148123052Y-219042654D01*
X148122318Y-220612738D01*
X148121412Y-222087837D01*
X148120313Y-223470891D01*
X148119005Y-224764839D01*
X148117469Y-225972620D01*
X148115688Y-227097175D01*
X148113643Y-228141441D01*
X148111316Y-229108360D01*
X148108689Y-230000870D01*
X148105745Y-230821910D01*
X148102465Y-231574420D01*
X148098830Y-232261340D01*
X148094824Y-232885609D01*
X148090428Y-233450166D01*
X148085623Y-233957950D01*
X148080393Y-234411902D01*
X148074719Y-234814960D01*
X148068582Y-235170065D01*
X148061965Y-235480154D01*
X148054850Y-235748169D01*
X148047219Y-235977047D01*
X148039053Y-236169729D01*
X148030335Y-236329154D01*
X148021046Y-236458262D01*
X148011169Y-236559991D01*
X148000686Y-236637282D01*
X147989578Y-236693073D01*
X147977827Y-236730305D01*
X147965416Y-236751916D01*
X147952326Y-236760846D01*
X147938540Y-236760034D01*
X147924039Y-236752420D01*
X147908805Y-236740944D01*
X147892820Y-236728543D01*
X147883904Y-236722519D01*
X147878412Y-236694546D01*
X147873189Y-236615953D01*
X147868229Y-236484299D01*
X147863529Y-236297140D01*
X147859085Y-236052034D01*
X147854893Y-235746540D01*
X147850950Y-235378214D01*
X147847251Y-234944615D01*
X147843794Y-234443301D01*
X147840573Y-233871828D01*
X147837585Y-233227755D01*
X147834827Y-232508640D01*
X147832294Y-231712040D01*
X147829983Y-230835513D01*
X147827890Y-229876616D01*
X147826010Y-228832908D01*
X147824341Y-227701946D01*
X147822878Y-226481287D01*
X147821618Y-225168491D01*
X147820556Y-223761113D01*
X147819690Y-222256712D01*
X147819014Y-220652846D01*
X147818526Y-218947073D01*
X147818221Y-217136949D01*
X147818095Y-215220034D01*
X147818145Y-213193883D01*
X147818367Y-211056057D01*
X147818758Y-208804111D01*
X147819312Y-206435603D01*
X147820027Y-203948093D01*
X147820898Y-201339136D01*
X147821923Y-198606291D01*
X147822379Y-197465253D01*
X147823496Y-194775380D01*
X147824608Y-192209925D01*
X147825724Y-189765985D01*
X147826854Y-187440659D01*
X147828005Y-185231046D01*
X147829185Y-183134245D01*
X147830405Y-181147355D01*
X147831670Y-179267473D01*
X147832991Y-177491699D01*
X147834376Y-175817132D01*
X147835833Y-174240870D01*
X147837371Y-172760011D01*
X147838998Y-171371655D01*
X147840722Y-170072900D01*
X147842553Y-168860845D01*
X147844498Y-167732588D01*
X147846567Y-166685229D01*
X147848766Y-165715865D01*
X147851106Y-164821596D01*
X147853594Y-163999521D01*
X147856239Y-163246737D01*
X147859050Y-162560343D01*
X147862034Y-161937439D01*
X147865201Y-161375123D01*
X147868559Y-160870493D01*
X147872116Y-160420649D01*
X147875881Y-160022689D01*
X147879862Y-159673711D01*
X147884067Y-159370815D01*
X147888506Y-159111098D01*
X147893187Y-158891661D01*
X147898117Y-158709600D01*
X147903307Y-158562016D01*
X147908763Y-158446007D01*
X147914495Y-158358671D01*
X147920511Y-158297107D01*
X147926820Y-158258413D01*
X147933429Y-158239690D01*
X147936939Y-158236891D01*
X148050104Y-158244736D01*
G37*
G36*
X162118776Y-158244736D02*
G01*
X162148843Y-158262544D01*
X162151382Y-158328185D01*
X162153884Y-158517704D01*
X162156346Y-158827662D01*
X162158764Y-159254618D01*
X162161134Y-159795134D01*
X162163453Y-160445768D01*
X162165716Y-161203081D01*
X162167919Y-162063633D01*
X162170058Y-163023984D01*
X162172130Y-164080694D01*
X162174131Y-165230324D01*
X162176057Y-166469433D01*
X162177903Y-167794582D01*
X162179666Y-169202330D01*
X162181342Y-170689239D01*
X162182928Y-172251867D01*
X162184418Y-173886775D01*
X162185810Y-175590524D01*
X162187099Y-177359672D01*
X162188281Y-179190781D01*
X162189353Y-181080411D01*
X162190311Y-183025121D01*
X162191150Y-185021471D01*
X162191867Y-187066023D01*
X162192458Y-189155335D01*
X162192919Y-191285969D01*
X162193245Y-193454483D01*
X162193434Y-195657439D01*
X162193483Y-197503799D01*
X162193455Y-200211004D01*
X162193365Y-202793719D01*
X162193208Y-205254773D01*
X162192975Y-207596992D01*
X162192662Y-209823207D01*
X162192262Y-211936243D01*
X162191767Y-213938931D01*
X162191172Y-215834097D01*
X162190469Y-217624571D01*
X162189653Y-219313180D01*
X162188716Y-220902753D01*
X162187653Y-222396117D01*
X162186456Y-223796101D01*
X162185120Y-225105533D01*
X162183637Y-226327242D01*
X162182001Y-227464055D01*
X162180205Y-228518800D01*
X162178244Y-229494306D01*
X162176109Y-230393402D01*
X162173796Y-231218914D01*
X162171296Y-231973672D01*
X162168605Y-232660503D01*
X162165714Y-233282236D01*
X162162618Y-233841699D01*
X162159311Y-234341720D01*
X162155784Y-234785127D01*
X162152033Y-235174749D01*
X162148050Y-235513413D01*
X162143829Y-235803948D01*
X162139363Y-236049182D01*
X162134646Y-236251943D01*
X162129672Y-236415059D01*
X162124433Y-236541359D01*
X162118923Y-236633671D01*
X162113135Y-236694822D01*
X162107064Y-236727642D01*
X162102649Y-236735269D01*
X161988291Y-236723411D01*
X161943450Y-236687751D01*
X161938349Y-236637587D01*
X161933504Y-236498739D01*
X161928914Y-236269769D01*
X161924577Y-235949240D01*
X161920489Y-235535714D01*
X161916651Y-235027753D01*
X161913059Y-234423920D01*
X161909711Y-233722778D01*
X161906607Y-232922887D01*
X161903743Y-232022812D01*
X161901119Y-231021115D01*
X161898731Y-229916356D01*
X161896579Y-228707100D01*
X161894660Y-227391909D01*
X161892972Y-225969344D01*
X161891514Y-224437969D01*
X161890283Y-222796345D01*
X161889277Y-221043035D01*
X161888496Y-219176602D01*
X161887936Y-217195607D01*
X161887595Y-215098614D01*
X161887473Y-212884184D01*
X161887567Y-210550880D01*
X161887874Y-208097264D01*
X161888394Y-205521899D01*
X161889124Y-202823347D01*
X161890062Y-200000171D01*
X161891051Y-197430627D01*
X161892168Y-194741970D01*
X161893280Y-192177728D01*
X161894398Y-189734999D01*
X161895528Y-187410881D01*
X161896679Y-185202471D01*
X161897860Y-183106865D01*
X161899080Y-181121163D01*
X161900347Y-179242461D01*
X161901669Y-177467856D01*
X161903054Y-175794446D01*
X161904512Y-174219328D01*
X161906051Y-172739600D01*
X161907679Y-171352359D01*
X161909405Y-170054703D01*
X161911237Y-168843728D01*
X161913184Y-167716533D01*
X161915254Y-166670214D01*
X161917456Y-165701870D01*
X161919798Y-164808597D01*
X161922289Y-163987492D01*
X161924937Y-163235654D01*
X161927750Y-162550180D01*
X161930738Y-161928167D01*
X161933908Y-161366712D01*
X161937269Y-160862913D01*
X161940830Y-160413868D01*
X161944599Y-160016673D01*
X161948584Y-159668426D01*
X161952795Y-159366224D01*
X161957239Y-159107165D01*
X161961924Y-158888347D01*
X161966861Y-158706866D01*
X161972056Y-158559821D01*
X161977519Y-158444307D01*
X161983258Y-158357424D01*
X161989281Y-158296268D01*
X161995597Y-158257936D01*
X162002215Y-158239527D01*
X162005610Y-158236891D01*
X162118776Y-158244736D01*
G37*
G36*
X159303501Y-236787550D02*
G01*
X159858101Y-236788820D01*
X160327737Y-236791114D01*
X160719470Y-236794524D01*
X161040359Y-236799143D01*
X161297462Y-236805063D01*
X161497840Y-236812376D01*
X161648550Y-236821175D01*
X161756652Y-236831552D01*
X161829205Y-236843600D01*
X161873268Y-236857410D01*
X161895901Y-236873076D01*
X161902184Y-236883543D01*
X161911228Y-237000797D01*
X161889718Y-237043264D01*
X161820135Y-237050303D01*
X161631543Y-237056775D01*
X161332249Y-237062635D01*
X160930561Y-237067838D01*
X160434786Y-237072339D01*
X159853232Y-237076093D01*
X159194208Y-237079056D01*
X158466020Y-237081183D01*
X157676976Y-237082429D01*
X156835384Y-237082750D01*
X155949552Y-237082101D01*
X155027788Y-237080436D01*
X154996529Y-237080363D01*
X153916060Y-237077773D01*
X152955818Y-237075319D01*
X152108712Y-237072852D01*
X151367652Y-237070224D01*
X150725546Y-237067285D01*
X150175303Y-237063888D01*
X149709833Y-237059882D01*
X149322044Y-237055119D01*
X149004847Y-237049452D01*
X148751149Y-237042729D01*
X148553860Y-237034804D01*
X148405889Y-237025527D01*
X148300145Y-237014749D01*
X148229537Y-237002321D01*
X148186974Y-236988096D01*
X148165366Y-236971923D01*
X148157621Y-236953655D01*
X148156641Y-236936842D01*
X148158273Y-236916743D01*
X148167890Y-236898860D01*
X148192578Y-236883043D01*
X148239421Y-236869144D01*
X148315502Y-236857016D01*
X148427908Y-236846509D01*
X148583722Y-236837475D01*
X148790028Y-236829767D01*
X149053912Y-236823234D01*
X149382457Y-236817730D01*
X149782748Y-236813105D01*
X150261869Y-236809212D01*
X150826906Y-236805901D01*
X151484942Y-236803025D01*
X152243062Y-236800435D01*
X153108350Y-236797983D01*
X154087891Y-236795521D01*
X155008995Y-236793324D01*
X156094294Y-236790861D01*
X157059336Y-236788959D01*
X157911178Y-236787712D01*
X158656880Y-236787212D01*
X159303501Y-236787550D01*
G37*
G36*
X157943808Y-157917372D02*
G01*
X158772406Y-157918907D01*
X159516925Y-157921529D01*
X160171520Y-157925201D01*
X160730345Y-157929887D01*
X161187556Y-157935554D01*
X161537308Y-157942163D01*
X161773756Y-157949681D01*
X161891056Y-157958071D01*
X161903291Y-157961639D01*
X161914520Y-158065713D01*
X161900304Y-158121356D01*
X161885786Y-158137451D01*
X161850640Y-158151711D01*
X161787862Y-158164223D01*
X161690444Y-158175074D01*
X161551382Y-158184350D01*
X161363671Y-158192139D01*
X161120305Y-158198527D01*
X160814279Y-158203600D01*
X160438586Y-158207446D01*
X159986222Y-158210152D01*
X159450181Y-158211803D01*
X158823459Y-158212487D01*
X158099048Y-158212291D01*
X157269944Y-158211301D01*
X156329142Y-158209603D01*
X155269635Y-158207285D01*
X155008995Y-158206675D01*
X153927486Y-158204088D01*
X152966211Y-158201637D01*
X152118084Y-158199173D01*
X151376023Y-158196548D01*
X150732941Y-158193615D01*
X150181756Y-158190223D01*
X149715381Y-158186225D01*
X149326733Y-158181473D01*
X149008728Y-158175819D01*
X148754280Y-158169113D01*
X148556306Y-158161207D01*
X148407721Y-158151954D01*
X148301440Y-158141204D01*
X148230380Y-158128809D01*
X148187454Y-158114622D01*
X148165580Y-158098493D01*
X148157673Y-158080274D01*
X148156641Y-158063157D01*
X148158272Y-158043063D01*
X148167887Y-158025183D01*
X148192569Y-158009368D01*
X148239401Y-157995472D01*
X148315465Y-157983344D01*
X148427845Y-157972838D01*
X148583624Y-157963804D01*
X148789884Y-157956095D01*
X149053708Y-157949562D01*
X149382180Y-157944056D01*
X149782382Y-157939431D01*
X150261397Y-157935537D01*
X150826307Y-157932226D01*
X151484197Y-157929349D01*
X152242149Y-157926759D01*
X153107246Y-157924307D01*
X154086570Y-157921846D01*
X155011982Y-157919639D01*
X156057750Y-157917703D01*
X157036974Y-157916959D01*
X157943808Y-157917372D01*
G37*
G36*
X193050104Y-158244736D02*
G01*
X193080172Y-158262544D01*
X193082711Y-158328186D01*
X193085214Y-158517704D01*
X193087677Y-158827659D01*
X193090096Y-159254607D01*
X193092468Y-159795109D01*
X193094787Y-160445722D01*
X193097050Y-161203005D01*
X193099254Y-162063518D01*
X193101395Y-163023818D01*
X193103467Y-164080464D01*
X193105469Y-165230015D01*
X193107395Y-166469030D01*
X193109241Y-167794067D01*
X193111005Y-169201685D01*
X193112681Y-170688442D01*
X193114266Y-172250898D01*
X193115757Y-173885610D01*
X193117148Y-175589138D01*
X193118437Y-177358041D01*
X193119619Y-179188876D01*
X193120690Y-181078203D01*
X193121647Y-183022580D01*
X193122486Y-185018566D01*
X193123202Y-187062719D01*
X193123792Y-189151599D01*
X193124251Y-191281763D01*
X193124577Y-193449771D01*
X193124764Y-195652181D01*
X193124812Y-197470985D01*
X193124821Y-200152584D01*
X193124838Y-202709804D01*
X193124843Y-205145584D01*
X193124819Y-207462865D01*
X193124748Y-209664585D01*
X193124611Y-211753683D01*
X193124391Y-213733100D01*
X193124070Y-215605775D01*
X193123630Y-217374646D01*
X193123052Y-219042654D01*
X193122318Y-220612738D01*
X193121412Y-222087837D01*
X193120313Y-223470891D01*
X193119005Y-224764839D01*
X193117469Y-225972620D01*
X193115688Y-227097175D01*
X193113643Y-228141441D01*
X193111316Y-229108360D01*
X193108689Y-230000870D01*
X193105745Y-230821910D01*
X193102465Y-231574420D01*
X193098830Y-232261340D01*
X193094824Y-232885609D01*
X193090428Y-233450166D01*
X193085623Y-233957950D01*
X193080393Y-234411902D01*
X193074719Y-234814960D01*
X193068582Y-235170065D01*
X193061965Y-235480154D01*
X193054850Y-235748169D01*
X193047219Y-235977047D01*
X193039053Y-236169729D01*
X193030335Y-236329154D01*
X193021046Y-236458262D01*
X193011169Y-236559991D01*
X193000686Y-236637282D01*
X192989578Y-236693073D01*
X192977827Y-236730305D01*
X192965416Y-236751916D01*
X192952326Y-236760846D01*
X192938540Y-236760034D01*
X192924039Y-236752420D01*
X192908805Y-236740944D01*
X192892820Y-236728543D01*
X192883904Y-236722519D01*
X192878412Y-236694546D01*
X192873189Y-236615953D01*
X192868229Y-236484299D01*
X192863529Y-236297140D01*
X192859085Y-236052034D01*
X192854893Y-235746540D01*
X192850950Y-235378214D01*
X192847251Y-234944615D01*
X192843794Y-234443301D01*
X192840573Y-233871828D01*
X192837585Y-233227755D01*
X192834827Y-232508640D01*
X192832294Y-231712040D01*
X192829983Y-230835513D01*
X192827890Y-229876616D01*
X192826010Y-228832908D01*
X192824341Y-227701946D01*
X192822878Y-226481287D01*
X192821618Y-225168491D01*
X192820556Y-223761113D01*
X192819690Y-222256712D01*
X192819014Y-220652846D01*
X192818526Y-218947073D01*
X192818221Y-217136949D01*
X192818095Y-215220034D01*
X192818145Y-213193883D01*
X192818367Y-211056057D01*
X192818758Y-208804111D01*
X192819312Y-206435603D01*
X192820027Y-203948093D01*
X192820898Y-201339136D01*
X192821923Y-198606291D01*
X192822379Y-197465253D01*
X192823496Y-194775380D01*
X192824608Y-192209925D01*
X192825724Y-189765985D01*
X192826854Y-187440659D01*
X192828005Y-185231046D01*
X192829185Y-183134245D01*
X192830405Y-181147355D01*
X192831670Y-179267473D01*
X192832991Y-177491699D01*
X192834376Y-175817132D01*
X192835833Y-174240870D01*
X192837371Y-172760011D01*
X192838998Y-171371655D01*
X192840722Y-170072900D01*
X192842553Y-168860845D01*
X192844498Y-167732588D01*
X192846567Y-166685229D01*
X192848766Y-165715865D01*
X192851106Y-164821596D01*
X192853594Y-163999521D01*
X192856239Y-163246737D01*
X192859050Y-162560343D01*
X192862034Y-161937439D01*
X192865201Y-161375123D01*
X192868559Y-160870493D01*
X192872116Y-160420649D01*
X192875881Y-160022689D01*
X192879862Y-159673711D01*
X192884067Y-159370815D01*
X192888506Y-159111098D01*
X192893187Y-158891661D01*
X192898117Y-158709600D01*
X192903307Y-158562016D01*
X192908763Y-158446007D01*
X192914495Y-158358671D01*
X192920511Y-158297107D01*
X192926820Y-158258413D01*
X192933429Y-158239690D01*
X192936939Y-158236891D01*
X193050104Y-158244736D01*
G37*
G36*
X207118776Y-158244736D02*
G01*
X207148843Y-158262544D01*
X207151382Y-158328185D01*
X207153884Y-158517704D01*
X207156346Y-158827662D01*
X207158764Y-159254618D01*
X207161134Y-159795134D01*
X207163453Y-160445768D01*
X207165716Y-161203081D01*
X207167919Y-162063633D01*
X207170058Y-163023984D01*
X207172130Y-164080694D01*
X207174131Y-165230324D01*
X207176057Y-166469433D01*
X207177903Y-167794582D01*
X207179666Y-169202330D01*
X207181342Y-170689239D01*
X207182928Y-172251867D01*
X207184418Y-173886775D01*
X207185810Y-175590524D01*
X207187099Y-177359672D01*
X207188281Y-179190781D01*
X207189353Y-181080411D01*
X207190311Y-183025121D01*
X207191150Y-185021471D01*
X207191867Y-187066023D01*
X207192458Y-189155335D01*
X207192919Y-191285969D01*
X207193245Y-193454483D01*
X207193434Y-195657439D01*
X207193483Y-197503799D01*
X207193455Y-200211004D01*
X207193365Y-202793719D01*
X207193208Y-205254773D01*
X207192975Y-207596992D01*
X207192662Y-209823207D01*
X207192262Y-211936243D01*
X207191767Y-213938931D01*
X207191172Y-215834097D01*
X207190469Y-217624571D01*
X207189653Y-219313180D01*
X207188716Y-220902753D01*
X207187653Y-222396117D01*
X207186456Y-223796101D01*
X207185120Y-225105533D01*
X207183637Y-226327242D01*
X207182001Y-227464055D01*
X207180205Y-228518800D01*
X207178244Y-229494306D01*
X207176109Y-230393402D01*
X207173796Y-231218914D01*
X207171296Y-231973672D01*
X207168605Y-232660503D01*
X207165714Y-233282236D01*
X207162618Y-233841699D01*
X207159311Y-234341720D01*
X207155784Y-234785127D01*
X207152033Y-235174749D01*
X207148050Y-235513413D01*
X207143829Y-235803948D01*
X207139363Y-236049182D01*
X207134646Y-236251943D01*
X207129672Y-236415059D01*
X207124433Y-236541359D01*
X207118923Y-236633671D01*
X207113135Y-236694822D01*
X207107064Y-236727642D01*
X207102649Y-236735269D01*
X206988291Y-236723411D01*
X206943450Y-236687751D01*
X206938349Y-236637587D01*
X206933504Y-236498739D01*
X206928914Y-236269769D01*
X206924577Y-235949240D01*
X206920489Y-235535714D01*
X206916651Y-235027753D01*
X206913059Y-234423920D01*
X206909711Y-233722778D01*
X206906607Y-232922887D01*
X206903743Y-232022812D01*
X206901119Y-231021115D01*
X206898731Y-229916356D01*
X206896579Y-228707100D01*
X206894660Y-227391909D01*
X206892972Y-225969344D01*
X206891514Y-224437969D01*
X206890283Y-222796345D01*
X206889277Y-221043035D01*
X206888496Y-219176602D01*
X206887936Y-217195607D01*
X206887595Y-215098614D01*
X206887473Y-212884184D01*
X206887567Y-210550880D01*
X206887874Y-208097264D01*
X206888394Y-205521899D01*
X206889124Y-202823347D01*
X206890062Y-200000171D01*
X206891051Y-197430627D01*
X206892168Y-194741970D01*
X206893280Y-192177728D01*
X206894398Y-189734999D01*
X206895528Y-187410881D01*
X206896679Y-185202471D01*
X206897860Y-183106865D01*
X206899080Y-181121163D01*
X206900347Y-179242461D01*
X206901669Y-177467856D01*
X206903054Y-175794446D01*
X206904512Y-174219328D01*
X206906051Y-172739600D01*
X206907679Y-171352359D01*
X206909405Y-170054703D01*
X206911237Y-168843728D01*
X206913184Y-167716533D01*
X206915254Y-166670214D01*
X206917456Y-165701870D01*
X206919798Y-164808597D01*
X206922289Y-163987492D01*
X206924937Y-163235654D01*
X206927750Y-162550180D01*
X206930738Y-161928167D01*
X206933908Y-161366712D01*
X206937269Y-160862913D01*
X206940830Y-160413868D01*
X206944599Y-160016673D01*
X206948584Y-159668426D01*
X206952795Y-159366224D01*
X206957239Y-159107165D01*
X206961924Y-158888347D01*
X206966861Y-158706866D01*
X206972056Y-158559821D01*
X206977519Y-158444307D01*
X206983258Y-158357424D01*
X206989281Y-158296268D01*
X206995597Y-158257936D01*
X207002215Y-158239527D01*
X207005610Y-158236891D01*
X207118776Y-158244736D01*
G37*
G36*
X204303501Y-236787550D02*
G01*
X204858101Y-236788820D01*
X205327737Y-236791114D01*
X205719470Y-236794524D01*
X206040359Y-236799143D01*
X206297462Y-236805063D01*
X206497840Y-236812376D01*
X206648550Y-236821175D01*
X206756652Y-236831552D01*
X206829205Y-236843600D01*
X206873268Y-236857410D01*
X206895901Y-236873076D01*
X206902184Y-236883543D01*
X206911228Y-237000797D01*
X206889718Y-237043264D01*
X206820135Y-237050303D01*
X206631543Y-237056775D01*
X206332249Y-237062635D01*
X205930561Y-237067838D01*
X205434786Y-237072339D01*
X204853232Y-237076093D01*
X204194208Y-237079056D01*
X203466020Y-237081183D01*
X202676976Y-237082429D01*
X201835384Y-237082750D01*
X200949552Y-237082101D01*
X200027788Y-237080436D01*
X199996529Y-237080363D01*
X198916060Y-237077773D01*
X197955818Y-237075319D01*
X197108712Y-237072852D01*
X196367652Y-237070224D01*
X195725546Y-237067285D01*
X195175303Y-237063888D01*
X194709833Y-237059882D01*
X194322044Y-237055119D01*
X194004847Y-237049452D01*
X193751149Y-237042729D01*
X193553860Y-237034804D01*
X193405889Y-237025527D01*
X193300145Y-237014749D01*
X193229537Y-237002321D01*
X193186974Y-236988096D01*
X193165366Y-236971923D01*
X193157621Y-236953655D01*
X193156641Y-236936842D01*
X193158273Y-236916743D01*
X193167890Y-236898860D01*
X193192578Y-236883043D01*
X193239421Y-236869144D01*
X193315502Y-236857016D01*
X193427908Y-236846509D01*
X193583722Y-236837475D01*
X193790028Y-236829767D01*
X194053912Y-236823234D01*
X194382457Y-236817730D01*
X194782748Y-236813105D01*
X195261869Y-236809212D01*
X195826906Y-236805901D01*
X196484942Y-236803025D01*
X197243062Y-236800435D01*
X198108350Y-236797983D01*
X199087891Y-236795521D01*
X200008995Y-236793324D01*
X201094294Y-236790861D01*
X202059336Y-236788959D01*
X202911178Y-236787712D01*
X203656880Y-236787212D01*
X204303501Y-236787550D01*
G37*
G36*
X202943808Y-157917372D02*
G01*
X203772406Y-157918907D01*
X204516925Y-157921529D01*
X205171520Y-157925201D01*
X205730345Y-157929887D01*
X206187556Y-157935554D01*
X206537308Y-157942163D01*
X206773756Y-157949681D01*
X206891056Y-157958071D01*
X206903291Y-157961639D01*
X206914520Y-158065713D01*
X206900304Y-158121356D01*
X206885786Y-158137451D01*
X206850640Y-158151711D01*
X206787862Y-158164223D01*
X206690444Y-158175074D01*
X206551382Y-158184350D01*
X206363671Y-158192139D01*
X206120305Y-158198527D01*
X205814279Y-158203600D01*
X205438586Y-158207446D01*
X204986222Y-158210152D01*
X204450181Y-158211803D01*
X203823459Y-158212487D01*
X203099048Y-158212291D01*
X202269944Y-158211301D01*
X201329142Y-158209603D01*
X200269635Y-158207285D01*
X200008995Y-158206675D01*
X198927486Y-158204088D01*
X197966211Y-158201637D01*
X197118084Y-158199173D01*
X196376023Y-158196548D01*
X195732941Y-158193615D01*
X195181756Y-158190223D01*
X194715381Y-158186225D01*
X194326733Y-158181473D01*
X194008728Y-158175819D01*
X193754280Y-158169113D01*
X193556306Y-158161207D01*
X193407721Y-158151954D01*
X193301440Y-158141204D01*
X193230380Y-158128809D01*
X193187454Y-158114622D01*
X193165580Y-158098493D01*
X193157673Y-158080274D01*
X193156641Y-158063157D01*
X193158272Y-158043063D01*
X193167887Y-158025183D01*
X193192569Y-158009368D01*
X193239401Y-157995472D01*
X193315465Y-157983344D01*
X193427845Y-157972838D01*
X193583624Y-157963804D01*
X193789884Y-157956095D01*
X194053708Y-157949562D01*
X194382180Y-157944056D01*
X194782382Y-157939431D01*
X195261397Y-157935537D01*
X195826307Y-157932226D01*
X196484197Y-157929349D01*
X197242149Y-157926759D01*
X198107246Y-157924307D01*
X199086570Y-157921846D01*
X200011982Y-157919639D01*
X201057750Y-157917703D01*
X202036974Y-157916959D01*
X202943808Y-157917372D01*
G37*
G36*
X193050104Y-45744736D02*
G01*
X193080172Y-45762544D01*
X193082711Y-45828186D01*
X193085214Y-46017704D01*
X193087677Y-46327659D01*
X193090096Y-46754607D01*
X193092468Y-47295109D01*
X193094787Y-47945722D01*
X193097050Y-48703005D01*
X193099254Y-49563518D01*
X193101395Y-50523818D01*
X193103467Y-51580464D01*
X193105469Y-52730015D01*
X193107395Y-53969030D01*
X193109241Y-55294067D01*
X193111005Y-56701685D01*
X193112681Y-58188442D01*
X193114266Y-59750898D01*
X193115757Y-61385610D01*
X193117148Y-63089138D01*
X193118437Y-64858041D01*
X193119619Y-66688876D01*
X193120690Y-68578203D01*
X193121647Y-70522580D01*
X193122486Y-72518566D01*
X193123202Y-74562719D01*
X193123792Y-76651599D01*
X193124251Y-78781763D01*
X193124577Y-80949771D01*
X193124764Y-83152181D01*
X193124812Y-84970985D01*
X193124821Y-87652584D01*
X193124838Y-90209804D01*
X193124843Y-92645584D01*
X193124819Y-94962865D01*
X193124748Y-97164585D01*
X193124611Y-99253683D01*
X193124391Y-101233100D01*
X193124070Y-103105775D01*
X193123630Y-104874646D01*
X193123052Y-106542654D01*
X193122318Y-108112738D01*
X193121412Y-109587837D01*
X193120313Y-110970891D01*
X193119005Y-112264839D01*
X193117469Y-113472620D01*
X193115688Y-114597175D01*
X193113643Y-115641441D01*
X193111316Y-116608360D01*
X193108689Y-117500870D01*
X193105745Y-118321910D01*
X193102465Y-119074420D01*
X193098830Y-119761340D01*
X193094824Y-120385609D01*
X193090428Y-120950166D01*
X193085623Y-121457950D01*
X193080393Y-121911902D01*
X193074719Y-122314960D01*
X193068582Y-122670065D01*
X193061965Y-122980154D01*
X193054850Y-123248169D01*
X193047219Y-123477047D01*
X193039053Y-123669729D01*
X193030335Y-123829154D01*
X193021046Y-123958262D01*
X193011169Y-124059991D01*
X193000686Y-124137282D01*
X192989578Y-124193073D01*
X192977827Y-124230305D01*
X192965416Y-124251916D01*
X192952326Y-124260846D01*
X192938540Y-124260034D01*
X192924039Y-124252420D01*
X192908805Y-124240944D01*
X192892820Y-124228543D01*
X192883904Y-124222519D01*
X192878412Y-124194546D01*
X192873189Y-124115953D01*
X192868229Y-123984299D01*
X192863529Y-123797140D01*
X192859085Y-123552034D01*
X192854893Y-123246540D01*
X192850950Y-122878214D01*
X192847251Y-122444615D01*
X192843794Y-121943301D01*
X192840573Y-121371828D01*
X192837585Y-120727755D01*
X192834827Y-120008640D01*
X192832294Y-119212040D01*
X192829983Y-118335513D01*
X192827890Y-117376616D01*
X192826010Y-116332908D01*
X192824341Y-115201946D01*
X192822878Y-113981287D01*
X192821618Y-112668491D01*
X192820556Y-111261113D01*
X192819690Y-109756712D01*
X192819014Y-108152846D01*
X192818526Y-106447073D01*
X192818221Y-104636949D01*
X192818095Y-102720034D01*
X192818145Y-100693883D01*
X192818367Y-98556057D01*
X192818758Y-96304111D01*
X192819312Y-93935603D01*
X192820027Y-91448093D01*
X192820898Y-88839136D01*
X192821923Y-86106291D01*
X192822379Y-84965253D01*
X192823496Y-82275380D01*
X192824608Y-79709925D01*
X192825724Y-77265985D01*
X192826854Y-74940659D01*
X192828005Y-72731046D01*
X192829185Y-70634245D01*
X192830405Y-68647355D01*
X192831670Y-66767473D01*
X192832991Y-64991699D01*
X192834376Y-63317132D01*
X192835833Y-61740870D01*
X192837371Y-60260011D01*
X192838998Y-58871655D01*
X192840722Y-57572900D01*
X192842553Y-56360845D01*
X192844498Y-55232588D01*
X192846567Y-54185229D01*
X192848766Y-53215865D01*
X192851106Y-52321596D01*
X192853594Y-51499521D01*
X192856239Y-50746737D01*
X192859050Y-50060343D01*
X192862034Y-49437439D01*
X192865201Y-48875123D01*
X192868559Y-48370493D01*
X192872116Y-47920649D01*
X192875881Y-47522689D01*
X192879862Y-47173711D01*
X192884067Y-46870815D01*
X192888506Y-46611098D01*
X192893187Y-46391661D01*
X192898117Y-46209600D01*
X192903307Y-46062016D01*
X192908763Y-45946007D01*
X192914495Y-45858671D01*
X192920511Y-45797107D01*
X192926820Y-45758413D01*
X192933429Y-45739690D01*
X192936939Y-45736891D01*
X193050104Y-45744736D01*
G37*
G36*
X207118776Y-45744736D02*
G01*
X207148843Y-45762544D01*
X207151382Y-45828185D01*
X207153884Y-46017704D01*
X207156346Y-46327662D01*
X207158764Y-46754618D01*
X207161134Y-47295134D01*
X207163453Y-47945768D01*
X207165716Y-48703081D01*
X207167919Y-49563633D01*
X207170058Y-50523984D01*
X207172130Y-51580694D01*
X207174131Y-52730324D01*
X207176057Y-53969433D01*
X207177903Y-55294582D01*
X207179666Y-56702330D01*
X207181342Y-58189239D01*
X207182928Y-59751867D01*
X207184418Y-61386775D01*
X207185810Y-63090524D01*
X207187099Y-64859672D01*
X207188281Y-66690781D01*
X207189353Y-68580411D01*
X207190311Y-70525121D01*
X207191150Y-72521471D01*
X207191867Y-74566023D01*
X207192458Y-76655335D01*
X207192919Y-78785969D01*
X207193245Y-80954483D01*
X207193434Y-83157439D01*
X207193483Y-85003799D01*
X207193455Y-87711004D01*
X207193365Y-90293719D01*
X207193208Y-92754773D01*
X207192975Y-95096992D01*
X207192662Y-97323207D01*
X207192262Y-99436243D01*
X207191767Y-101438931D01*
X207191172Y-103334097D01*
X207190469Y-105124571D01*
X207189653Y-106813180D01*
X207188716Y-108402753D01*
X207187653Y-109896117D01*
X207186456Y-111296101D01*
X207185120Y-112605533D01*
X207183637Y-113827242D01*
X207182001Y-114964055D01*
X207180205Y-116018800D01*
X207178244Y-116994306D01*
X207176109Y-117893402D01*
X207173796Y-118718914D01*
X207171296Y-119473672D01*
X207168605Y-120160503D01*
X207165714Y-120782236D01*
X207162618Y-121341699D01*
X207159311Y-121841720D01*
X207155784Y-122285127D01*
X207152033Y-122674749D01*
X207148050Y-123013413D01*
X207143829Y-123303948D01*
X207139363Y-123549182D01*
X207134646Y-123751943D01*
X207129672Y-123915059D01*
X207124433Y-124041359D01*
X207118923Y-124133671D01*
X207113135Y-124194822D01*
X207107064Y-124227642D01*
X207102649Y-124235269D01*
X206988291Y-124223411D01*
X206943450Y-124187751D01*
X206938349Y-124137587D01*
X206933504Y-123998739D01*
X206928914Y-123769769D01*
X206924577Y-123449240D01*
X206920489Y-123035714D01*
X206916651Y-122527753D01*
X206913059Y-121923920D01*
X206909711Y-121222778D01*
X206906607Y-120422887D01*
X206903743Y-119522812D01*
X206901119Y-118521115D01*
X206898731Y-117416356D01*
X206896579Y-116207100D01*
X206894660Y-114891909D01*
X206892972Y-113469344D01*
X206891514Y-111937969D01*
X206890283Y-110296345D01*
X206889277Y-108543035D01*
X206888496Y-106676602D01*
X206887936Y-104695607D01*
X206887595Y-102598614D01*
X206887473Y-100384184D01*
X206887567Y-98050880D01*
X206887874Y-95597264D01*
X206888394Y-93021899D01*
X206889124Y-90323347D01*
X206890062Y-87500171D01*
X206891051Y-84930627D01*
X206892168Y-82241970D01*
X206893280Y-79677728D01*
X206894398Y-77234999D01*
X206895528Y-74910881D01*
X206896679Y-72702471D01*
X206897860Y-70606865D01*
X206899080Y-68621163D01*
X206900347Y-66742461D01*
X206901669Y-64967856D01*
X206903054Y-63294446D01*
X206904512Y-61719328D01*
X206906051Y-60239600D01*
X206907679Y-58852359D01*
X206909405Y-57554703D01*
X206911237Y-56343728D01*
X206913184Y-55216533D01*
X206915254Y-54170214D01*
X206917456Y-53201870D01*
X206919798Y-52308597D01*
X206922289Y-51487492D01*
X206924937Y-50735654D01*
X206927750Y-50050180D01*
X206930738Y-49428167D01*
X206933908Y-48866712D01*
X206937269Y-48362913D01*
X206940830Y-47913868D01*
X206944599Y-47516673D01*
X206948584Y-47168426D01*
X206952795Y-46866224D01*
X206957239Y-46607165D01*
X206961924Y-46388347D01*
X206966861Y-46206866D01*
X206972056Y-46059821D01*
X206977519Y-45944307D01*
X206983258Y-45857424D01*
X206989281Y-45796268D01*
X206995597Y-45757936D01*
X207002215Y-45739527D01*
X207005610Y-45736891D01*
X207118776Y-45744736D01*
G37*
G36*
X204303501Y-124287550D02*
G01*
X204858101Y-124288820D01*
X205327737Y-124291114D01*
X205719470Y-124294524D01*
X206040359Y-124299143D01*
X206297462Y-124305063D01*
X206497840Y-124312376D01*
X206648550Y-124321175D01*
X206756652Y-124331552D01*
X206829205Y-124343600D01*
X206873268Y-124357410D01*
X206895901Y-124373076D01*
X206902184Y-124383543D01*
X206911228Y-124500797D01*
X206889718Y-124543264D01*
X206820135Y-124550303D01*
X206631543Y-124556775D01*
X206332249Y-124562635D01*
X205930561Y-124567838D01*
X205434786Y-124572339D01*
X204853232Y-124576093D01*
X204194208Y-124579056D01*
X203466020Y-124581183D01*
X202676976Y-124582429D01*
X201835384Y-124582750D01*
X200949552Y-124582101D01*
X200027788Y-124580436D01*
X199996529Y-124580363D01*
X198916060Y-124577773D01*
X197955818Y-124575319D01*
X197108712Y-124572852D01*
X196367652Y-124570224D01*
X195725546Y-124567285D01*
X195175303Y-124563888D01*
X194709833Y-124559882D01*
X194322044Y-124555119D01*
X194004847Y-124549452D01*
X193751149Y-124542729D01*
X193553860Y-124534804D01*
X193405889Y-124525527D01*
X193300145Y-124514749D01*
X193229537Y-124502321D01*
X193186974Y-124488096D01*
X193165366Y-124471923D01*
X193157621Y-124453655D01*
X193156641Y-124436842D01*
X193158273Y-124416743D01*
X193167890Y-124398860D01*
X193192578Y-124383043D01*
X193239421Y-124369144D01*
X193315502Y-124357016D01*
X193427908Y-124346509D01*
X193583722Y-124337475D01*
X193790028Y-124329767D01*
X194053912Y-124323234D01*
X194382457Y-124317730D01*
X194782748Y-124313105D01*
X195261869Y-124309212D01*
X195826906Y-124305901D01*
X196484942Y-124303025D01*
X197243062Y-124300435D01*
X198108350Y-124297983D01*
X199087891Y-124295521D01*
X200008995Y-124293324D01*
X201094294Y-124290861D01*
X202059336Y-124288959D01*
X202911178Y-124287712D01*
X203656880Y-124287212D01*
X204303501Y-124287550D01*
G37*
G36*
X202943808Y-45417372D02*
G01*
X203772406Y-45418907D01*
X204516925Y-45421529D01*
X205171520Y-45425201D01*
X205730345Y-45429887D01*
X206187556Y-45435554D01*
X206537308Y-45442163D01*
X206773756Y-45449681D01*
X206891056Y-45458071D01*
X206903291Y-45461639D01*
X206914520Y-45565713D01*
X206900304Y-45621356D01*
X206885786Y-45637451D01*
X206850640Y-45651711D01*
X206787862Y-45664223D01*
X206690444Y-45675074D01*
X206551382Y-45684350D01*
X206363671Y-45692139D01*
X206120305Y-45698527D01*
X205814279Y-45703600D01*
X205438586Y-45707446D01*
X204986222Y-45710152D01*
X204450181Y-45711803D01*
X203823459Y-45712487D01*
X203099048Y-45712291D01*
X202269944Y-45711301D01*
X201329142Y-45709603D01*
X200269635Y-45707285D01*
X200008995Y-45706675D01*
X198927486Y-45704088D01*
X197966211Y-45701637D01*
X197118084Y-45699173D01*
X196376023Y-45696548D01*
X195732941Y-45693615D01*
X195181756Y-45690223D01*
X194715381Y-45686225D01*
X194326733Y-45681473D01*
X194008728Y-45675819D01*
X193754280Y-45669113D01*
X193556306Y-45661207D01*
X193407721Y-45651954D01*
X193301440Y-45641204D01*
X193230380Y-45628809D01*
X193187454Y-45614622D01*
X193165580Y-45598493D01*
X193157673Y-45580274D01*
X193156641Y-45563157D01*
X193158272Y-45543063D01*
X193167887Y-45525183D01*
X193192569Y-45509368D01*
X193239401Y-45495472D01*
X193315465Y-45483344D01*
X193427845Y-45472838D01*
X193583624Y-45463804D01*
X193789884Y-45456095D01*
X194053708Y-45449562D01*
X194382180Y-45444056D01*
X194782382Y-45439431D01*
X195261397Y-45435537D01*
X195826307Y-45432226D01*
X196484197Y-45429349D01*
X197242149Y-45426759D01*
X198107246Y-45424307D01*
X199086570Y-45421846D01*
X200011982Y-45419639D01*
X201057750Y-45417703D01*
X202036974Y-45416959D01*
X202943808Y-45417372D01*
G37*
G36*
X148050104Y-45744736D02*
G01*
X148080172Y-45762544D01*
X148082711Y-45828186D01*
X148085214Y-46017704D01*
X148087677Y-46327659D01*
X148090096Y-46754607D01*
X148092468Y-47295109D01*
X148094787Y-47945722D01*
X148097050Y-48703005D01*
X148099254Y-49563518D01*
X148101395Y-50523818D01*
X148103467Y-51580464D01*
X148105469Y-52730015D01*
X148107395Y-53969030D01*
X148109241Y-55294067D01*
X148111005Y-56701685D01*
X148112681Y-58188442D01*
X148114266Y-59750898D01*
X148115757Y-61385610D01*
X148117148Y-63089138D01*
X148118437Y-64858041D01*
X148119619Y-66688876D01*
X148120690Y-68578203D01*
X148121647Y-70522580D01*
X148122486Y-72518566D01*
X148123202Y-74562719D01*
X148123792Y-76651599D01*
X148124251Y-78781763D01*
X148124577Y-80949771D01*
X148124764Y-83152181D01*
X148124812Y-84970985D01*
X148124821Y-87652584D01*
X148124838Y-90209804D01*
X148124843Y-92645584D01*
X148124819Y-94962865D01*
X148124748Y-97164585D01*
X148124611Y-99253683D01*
X148124391Y-101233100D01*
X148124070Y-103105775D01*
X148123630Y-104874646D01*
X148123052Y-106542654D01*
X148122318Y-108112738D01*
X148121412Y-109587837D01*
X148120313Y-110970891D01*
X148119005Y-112264839D01*
X148117469Y-113472620D01*
X148115688Y-114597175D01*
X148113643Y-115641441D01*
X148111316Y-116608360D01*
X148108689Y-117500870D01*
X148105745Y-118321910D01*
X148102465Y-119074420D01*
X148098830Y-119761340D01*
X148094824Y-120385609D01*
X148090428Y-120950166D01*
X148085623Y-121457950D01*
X148080393Y-121911902D01*
X148074719Y-122314960D01*
X148068582Y-122670065D01*
X148061965Y-122980154D01*
X148054850Y-123248169D01*
X148047219Y-123477047D01*
X148039053Y-123669729D01*
X148030335Y-123829154D01*
X148021046Y-123958262D01*
X148011169Y-124059991D01*
X148000686Y-124137282D01*
X147989578Y-124193073D01*
X147977827Y-124230305D01*
X147965416Y-124251916D01*
X147952326Y-124260846D01*
X147938540Y-124260034D01*
X147924039Y-124252420D01*
X147908805Y-124240944D01*
X147892820Y-124228543D01*
X147883904Y-124222519D01*
X147878412Y-124194546D01*
X147873189Y-124115953D01*
X147868229Y-123984299D01*
X147863529Y-123797140D01*
X147859085Y-123552034D01*
X147854893Y-123246540D01*
X147850950Y-122878214D01*
X147847251Y-122444615D01*
X147843794Y-121943301D01*
X147840573Y-121371828D01*
X147837585Y-120727755D01*
X147834827Y-120008640D01*
X147832294Y-119212040D01*
X147829983Y-118335513D01*
X147827890Y-117376616D01*
X147826010Y-116332908D01*
X147824341Y-115201946D01*
X147822878Y-113981287D01*
X147821618Y-112668491D01*
X147820556Y-111261113D01*
X147819690Y-109756712D01*
X147819014Y-108152846D01*
X147818526Y-106447073D01*
X147818221Y-104636949D01*
X147818095Y-102720034D01*
X147818145Y-100693883D01*
X147818367Y-98556057D01*
X147818758Y-96304111D01*
X147819312Y-93935603D01*
X147820027Y-91448093D01*
X147820898Y-88839136D01*
X147821923Y-86106291D01*
X147822379Y-84965253D01*
X147823496Y-82275380D01*
X147824608Y-79709925D01*
X147825724Y-77265985D01*
X147826854Y-74940659D01*
X147828005Y-72731046D01*
X147829185Y-70634245D01*
X147830405Y-68647355D01*
X147831670Y-66767473D01*
X147832991Y-64991699D01*
X147834376Y-63317132D01*
X147835833Y-61740870D01*
X147837371Y-60260011D01*
X147838998Y-58871655D01*
X147840722Y-57572900D01*
X147842553Y-56360845D01*
X147844498Y-55232588D01*
X147846567Y-54185229D01*
X147848766Y-53215865D01*
X147851106Y-52321596D01*
X147853594Y-51499521D01*
X147856239Y-50746737D01*
X147859050Y-50060343D01*
X147862034Y-49437439D01*
X147865201Y-48875123D01*
X147868559Y-48370493D01*
X147872116Y-47920649D01*
X147875881Y-47522689D01*
X147879862Y-47173711D01*
X147884067Y-46870815D01*
X147888506Y-46611098D01*
X147893187Y-46391661D01*
X147898117Y-46209600D01*
X147903307Y-46062016D01*
X147908763Y-45946007D01*
X147914495Y-45858671D01*
X147920511Y-45797107D01*
X147926820Y-45758413D01*
X147933429Y-45739690D01*
X147936939Y-45736891D01*
X148050104Y-45744736D01*
G37*
G36*
X162118776Y-45744736D02*
G01*
X162148843Y-45762544D01*
X162151382Y-45828185D01*
X162153884Y-46017704D01*
X162156346Y-46327662D01*
X162158764Y-46754618D01*
X162161134Y-47295134D01*
X162163453Y-47945768D01*
X162165716Y-48703081D01*
X162167919Y-49563633D01*
X162170058Y-50523984D01*
X162172130Y-51580694D01*
X162174131Y-52730324D01*
X162176057Y-53969433D01*
X162177903Y-55294582D01*
X162179666Y-56702330D01*
X162181342Y-58189239D01*
X162182928Y-59751867D01*
X162184418Y-61386775D01*
X162185810Y-63090524D01*
X162187099Y-64859672D01*
X162188281Y-66690781D01*
X162189353Y-68580411D01*
X162190311Y-70525121D01*
X162191150Y-72521471D01*
X162191867Y-74566023D01*
X162192458Y-76655335D01*
X162192919Y-78785969D01*
X162193245Y-80954483D01*
X162193434Y-83157439D01*
X162193483Y-85003799D01*
X162193455Y-87711004D01*
X162193365Y-90293719D01*
X162193208Y-92754773D01*
X162192975Y-95096992D01*
X162192662Y-97323207D01*
X162192262Y-99436243D01*
X162191767Y-101438931D01*
X162191172Y-103334097D01*
X162190469Y-105124571D01*
X162189653Y-106813180D01*
X162188716Y-108402753D01*
X162187653Y-109896117D01*
X162186456Y-111296101D01*
X162185120Y-112605533D01*
X162183637Y-113827242D01*
X162182001Y-114964055D01*
X162180205Y-116018800D01*
X162178244Y-116994306D01*
X162176109Y-117893402D01*
X162173796Y-118718914D01*
X162171296Y-119473672D01*
X162168605Y-120160503D01*
X162165714Y-120782236D01*
X162162618Y-121341699D01*
X162159311Y-121841720D01*
X162155784Y-122285127D01*
X162152033Y-122674749D01*
X162148050Y-123013413D01*
X162143829Y-123303948D01*
X162139363Y-123549182D01*
X162134646Y-123751943D01*
X162129672Y-123915059D01*
X162124433Y-124041359D01*
X162118923Y-124133671D01*
X162113135Y-124194822D01*
X162107064Y-124227642D01*
X162102649Y-124235269D01*
X161988291Y-124223411D01*
X161943450Y-124187751D01*
X161938349Y-124137587D01*
X161933504Y-123998739D01*
X161928914Y-123769769D01*
X161924577Y-123449240D01*
X161920489Y-123035714D01*
X161916651Y-122527753D01*
X161913059Y-121923920D01*
X161909711Y-121222778D01*
X161906607Y-120422887D01*
X161903743Y-119522812D01*
X161901119Y-118521115D01*
X161898731Y-117416356D01*
X161896579Y-116207100D01*
X161894660Y-114891909D01*
X161892972Y-113469344D01*
X161891514Y-111937969D01*
X161890283Y-110296345D01*
X161889277Y-108543035D01*
X161888496Y-106676602D01*
X161887936Y-104695607D01*
X161887595Y-102598614D01*
X161887473Y-100384184D01*
X161887567Y-98050880D01*
X161887874Y-95597264D01*
X161888394Y-93021899D01*
X161889124Y-90323347D01*
X161890062Y-87500171D01*
X161891051Y-84930627D01*
X161892168Y-82241970D01*
X161893280Y-79677728D01*
X161894398Y-77234999D01*
X161895528Y-74910881D01*
X161896679Y-72702471D01*
X161897860Y-70606865D01*
X161899080Y-68621163D01*
X161900347Y-66742461D01*
X161901669Y-64967856D01*
X161903054Y-63294446D01*
X161904512Y-61719328D01*
X161906051Y-60239600D01*
X161907679Y-58852359D01*
X161909405Y-57554703D01*
X161911237Y-56343728D01*
X161913184Y-55216533D01*
X161915254Y-54170214D01*
X161917456Y-53201870D01*
X161919798Y-52308597D01*
X161922289Y-51487492D01*
X161924937Y-50735654D01*
X161927750Y-50050180D01*
X161930738Y-49428167D01*
X161933908Y-48866712D01*
X161937269Y-48362913D01*
X161940830Y-47913868D01*
X161944599Y-47516673D01*
X161948584Y-47168426D01*
X161952795Y-46866224D01*
X161957239Y-46607165D01*
X161961924Y-46388347D01*
X161966861Y-46206866D01*
X161972056Y-46059821D01*
X161977519Y-45944307D01*
X161983258Y-45857424D01*
X161989281Y-45796268D01*
X161995597Y-45757936D01*
X162002215Y-45739527D01*
X162005610Y-45736891D01*
X162118776Y-45744736D01*
G37*
G36*
X159303501Y-124287550D02*
G01*
X159858101Y-124288820D01*
X160327737Y-124291114D01*
X160719470Y-124294524D01*
X161040359Y-124299143D01*
X161297462Y-124305063D01*
X161497840Y-124312376D01*
X161648550Y-124321175D01*
X161756652Y-124331552D01*
X161829205Y-124343600D01*
X161873268Y-124357410D01*
X161895901Y-124373076D01*
X161902184Y-124383543D01*
X161911228Y-124500797D01*
X161889718Y-124543264D01*
X161820135Y-124550303D01*
X161631543Y-124556775D01*
X161332249Y-124562635D01*
X160930561Y-124567838D01*
X160434786Y-124572339D01*
X159853232Y-124576093D01*
X159194208Y-124579056D01*
X158466020Y-124581183D01*
X157676976Y-124582429D01*
X156835384Y-124582750D01*
X155949552Y-124582101D01*
X155027788Y-124580436D01*
X154996529Y-124580363D01*
X153916060Y-124577773D01*
X152955818Y-124575319D01*
X152108712Y-124572852D01*
X151367652Y-124570224D01*
X150725546Y-124567285D01*
X150175303Y-124563888D01*
X149709833Y-124559882D01*
X149322044Y-124555119D01*
X149004847Y-124549452D01*
X148751149Y-124542729D01*
X148553860Y-124534804D01*
X148405889Y-124525527D01*
X148300145Y-124514749D01*
X148229537Y-124502321D01*
X148186974Y-124488096D01*
X148165366Y-124471923D01*
X148157621Y-124453655D01*
X148156641Y-124436842D01*
X148158273Y-124416743D01*
X148167890Y-124398860D01*
X148192578Y-124383043D01*
X148239421Y-124369144D01*
X148315502Y-124357016D01*
X148427908Y-124346509D01*
X148583722Y-124337475D01*
X148790028Y-124329767D01*
X149053912Y-124323234D01*
X149382457Y-124317730D01*
X149782748Y-124313105D01*
X150261869Y-124309212D01*
X150826906Y-124305901D01*
X151484942Y-124303025D01*
X152243062Y-124300435D01*
X153108350Y-124297983D01*
X154087891Y-124295521D01*
X155008995Y-124293324D01*
X156094294Y-124290861D01*
X157059336Y-124288959D01*
X157911178Y-124287712D01*
X158656880Y-124287212D01*
X159303501Y-124287550D01*
G37*
G36*
X157943808Y-45417372D02*
G01*
X158772406Y-45418907D01*
X159516925Y-45421529D01*
X160171520Y-45425201D01*
X160730345Y-45429887D01*
X161187556Y-45435554D01*
X161537308Y-45442163D01*
X161773756Y-45449681D01*
X161891056Y-45458071D01*
X161903291Y-45461639D01*
X161914520Y-45565713D01*
X161900304Y-45621356D01*
X161885786Y-45637451D01*
X161850640Y-45651711D01*
X161787862Y-45664223D01*
X161690444Y-45675074D01*
X161551382Y-45684350D01*
X161363671Y-45692139D01*
X161120305Y-45698527D01*
X160814279Y-45703600D01*
X160438586Y-45707446D01*
X159986222Y-45710152D01*
X159450181Y-45711803D01*
X158823459Y-45712487D01*
X158099048Y-45712291D01*
X157269944Y-45711301D01*
X156329142Y-45709603D01*
X155269635Y-45707285D01*
X155008995Y-45706675D01*
X153927486Y-45704088D01*
X152966211Y-45701637D01*
X152118084Y-45699173D01*
X151376023Y-45696548D01*
X150732941Y-45693615D01*
X150181756Y-45690223D01*
X149715381Y-45686225D01*
X149326733Y-45681473D01*
X149008728Y-45675819D01*
X148754280Y-45669113D01*
X148556306Y-45661207D01*
X148407721Y-45651954D01*
X148301440Y-45641204D01*
X148230380Y-45628809D01*
X148187454Y-45614622D01*
X148165580Y-45598493D01*
X148157673Y-45580274D01*
X148156641Y-45563157D01*
X148158272Y-45543063D01*
X148167887Y-45525183D01*
X148192569Y-45509368D01*
X148239401Y-45495472D01*
X148315465Y-45483344D01*
X148427845Y-45472838D01*
X148583624Y-45463804D01*
X148789884Y-45456095D01*
X149053708Y-45449562D01*
X149382180Y-45444056D01*
X149782382Y-45439431D01*
X150261397Y-45435537D01*
X150826307Y-45432226D01*
X151484197Y-45429349D01*
X152242149Y-45426759D01*
X153107246Y-45424307D01*
X154086570Y-45421846D01*
X155011982Y-45419639D01*
X156057750Y-45417703D01*
X157036974Y-45416959D01*
X157943808Y-45417372D01*
G37*
G36*
X103050104Y-45744736D02*
G01*
X103080172Y-45762544D01*
X103082711Y-45828186D01*
X103085214Y-46017704D01*
X103087677Y-46327659D01*
X103090096Y-46754607D01*
X103092468Y-47295109D01*
X103094787Y-47945722D01*
X103097050Y-48703005D01*
X103099254Y-49563518D01*
X103101395Y-50523818D01*
X103103467Y-51580464D01*
X103105469Y-52730015D01*
X103107395Y-53969030D01*
X103109241Y-55294067D01*
X103111005Y-56701685D01*
X103112681Y-58188442D01*
X103114266Y-59750898D01*
X103115757Y-61385610D01*
X103117148Y-63089138D01*
X103118437Y-64858041D01*
X103119619Y-66688876D01*
X103120690Y-68578203D01*
X103121647Y-70522580D01*
X103122486Y-72518566D01*
X103123202Y-74562719D01*
X103123792Y-76651599D01*
X103124251Y-78781763D01*
X103124577Y-80949771D01*
X103124764Y-83152181D01*
X103124812Y-84970985D01*
X103124821Y-87652584D01*
X103124838Y-90209804D01*
X103124843Y-92645584D01*
X103124819Y-94962865D01*
X103124748Y-97164585D01*
X103124611Y-99253683D01*
X103124391Y-101233100D01*
X103124070Y-103105775D01*
X103123630Y-104874646D01*
X103123052Y-106542654D01*
X103122318Y-108112738D01*
X103121412Y-109587837D01*
X103120313Y-110970891D01*
X103119005Y-112264839D01*
X103117469Y-113472620D01*
X103115688Y-114597175D01*
X103113643Y-115641441D01*
X103111316Y-116608360D01*
X103108689Y-117500870D01*
X103105745Y-118321910D01*
X103102465Y-119074420D01*
X103098830Y-119761340D01*
X103094824Y-120385609D01*
X103090428Y-120950166D01*
X103085623Y-121457950D01*
X103080393Y-121911902D01*
X103074719Y-122314960D01*
X103068582Y-122670065D01*
X103061965Y-122980154D01*
X103054850Y-123248169D01*
X103047219Y-123477047D01*
X103039053Y-123669729D01*
X103030335Y-123829154D01*
X103021046Y-123958262D01*
X103011169Y-124059991D01*
X103000686Y-124137282D01*
X102989578Y-124193073D01*
X102977827Y-124230305D01*
X102965416Y-124251916D01*
X102952326Y-124260846D01*
X102938540Y-124260034D01*
X102924039Y-124252420D01*
X102908805Y-124240944D01*
X102892820Y-124228543D01*
X102883904Y-124222519D01*
X102878412Y-124194546D01*
X102873189Y-124115953D01*
X102868229Y-123984299D01*
X102863529Y-123797140D01*
X102859085Y-123552034D01*
X102854893Y-123246540D01*
X102850950Y-122878214D01*
X102847251Y-122444615D01*
X102843794Y-121943301D01*
X102840573Y-121371828D01*
X102837585Y-120727755D01*
X102834827Y-120008640D01*
X102832294Y-119212040D01*
X102829983Y-118335513D01*
X102827890Y-117376616D01*
X102826010Y-116332908D01*
X102824341Y-115201946D01*
X102822878Y-113981287D01*
X102821618Y-112668491D01*
X102820556Y-111261113D01*
X102819690Y-109756712D01*
X102819014Y-108152846D01*
X102818526Y-106447073D01*
X102818221Y-104636949D01*
X102818095Y-102720034D01*
X102818145Y-100693883D01*
X102818367Y-98556057D01*
X102818758Y-96304111D01*
X102819312Y-93935603D01*
X102820027Y-91448093D01*
X102820898Y-88839136D01*
X102821923Y-86106291D01*
X102822379Y-84965253D01*
X102823496Y-82275380D01*
X102824608Y-79709925D01*
X102825724Y-77265985D01*
X102826854Y-74940659D01*
X102828005Y-72731046D01*
X102829185Y-70634245D01*
X102830405Y-68647355D01*
X102831670Y-66767473D01*
X102832991Y-64991699D01*
X102834376Y-63317132D01*
X102835833Y-61740870D01*
X102837371Y-60260011D01*
X102838998Y-58871655D01*
X102840722Y-57572900D01*
X102842553Y-56360845D01*
X102844498Y-55232588D01*
X102846567Y-54185229D01*
X102848766Y-53215865D01*
X102851106Y-52321596D01*
X102853594Y-51499521D01*
X102856239Y-50746737D01*
X102859050Y-50060343D01*
X102862034Y-49437439D01*
X102865201Y-48875123D01*
X102868559Y-48370493D01*
X102872116Y-47920649D01*
X102875881Y-47522689D01*
X102879862Y-47173711D01*
X102884067Y-46870815D01*
X102888506Y-46611098D01*
X102893187Y-46391661D01*
X102898117Y-46209600D01*
X102903307Y-46062016D01*
X102908763Y-45946007D01*
X102914495Y-45858671D01*
X102920511Y-45797107D01*
X102926820Y-45758413D01*
X102933429Y-45739690D01*
X102936939Y-45736891D01*
X103050104Y-45744736D01*
G37*
G36*
X117118776Y-45744736D02*
G01*
X117148843Y-45762544D01*
X117151382Y-45828185D01*
X117153884Y-46017704D01*
X117156346Y-46327662D01*
X117158764Y-46754618D01*
X117161134Y-47295134D01*
X117163453Y-47945768D01*
X117165716Y-48703081D01*
X117167919Y-49563633D01*
X117170058Y-50523984D01*
X117172130Y-51580694D01*
X117174131Y-52730324D01*
X117176057Y-53969433D01*
X117177903Y-55294582D01*
X117179666Y-56702330D01*
X117181342Y-58189239D01*
X117182928Y-59751867D01*
X117184418Y-61386775D01*
X117185810Y-63090524D01*
X117187099Y-64859672D01*
X117188281Y-66690781D01*
X117189353Y-68580411D01*
X117190311Y-70525121D01*
X117191150Y-72521471D01*
X117191867Y-74566023D01*
X117192458Y-76655335D01*
X117192919Y-78785969D01*
X117193245Y-80954483D01*
X117193434Y-83157439D01*
X117193483Y-85003799D01*
X117193455Y-87711004D01*
X117193365Y-90293719D01*
X117193208Y-92754773D01*
X117192975Y-95096992D01*
X117192662Y-97323207D01*
X117192262Y-99436243D01*
X117191767Y-101438931D01*
X117191172Y-103334097D01*
X117190469Y-105124571D01*
X117189653Y-106813180D01*
X117188716Y-108402753D01*
X117187653Y-109896117D01*
X117186456Y-111296101D01*
X117185120Y-112605533D01*
X117183637Y-113827242D01*
X117182001Y-114964055D01*
X117180205Y-116018800D01*
X117178244Y-116994306D01*
X117176109Y-117893402D01*
X117173796Y-118718914D01*
X117171296Y-119473672D01*
X117168605Y-120160503D01*
X117165714Y-120782236D01*
X117162618Y-121341699D01*
X117159311Y-121841720D01*
X117155784Y-122285127D01*
X117152033Y-122674749D01*
X117148050Y-123013413D01*
X117143829Y-123303948D01*
X117139363Y-123549182D01*
X117134646Y-123751943D01*
X117129672Y-123915059D01*
X117124433Y-124041359D01*
X117118923Y-124133671D01*
X117113135Y-124194822D01*
X117107064Y-124227642D01*
X117102649Y-124235269D01*
X116988291Y-124223411D01*
X116943450Y-124187751D01*
X116938349Y-124137587D01*
X116933504Y-123998739D01*
X116928914Y-123769769D01*
X116924577Y-123449240D01*
X116920489Y-123035714D01*
X116916651Y-122527753D01*
X116913059Y-121923920D01*
X116909711Y-121222778D01*
X116906607Y-120422887D01*
X116903743Y-119522812D01*
X116901119Y-118521115D01*
X116898731Y-117416356D01*
X116896579Y-116207100D01*
X116894660Y-114891909D01*
X116892972Y-113469344D01*
X116891514Y-111937969D01*
X116890283Y-110296345D01*
X116889277Y-108543035D01*
X116888496Y-106676602D01*
X116887936Y-104695607D01*
X116887595Y-102598614D01*
X116887473Y-100384184D01*
X116887567Y-98050880D01*
X116887874Y-95597264D01*
X116888394Y-93021899D01*
X116889124Y-90323347D01*
X116890062Y-87500171D01*
X116891051Y-84930627D01*
X116892168Y-82241970D01*
X116893280Y-79677728D01*
X116894398Y-77234999D01*
X116895528Y-74910881D01*
X116896679Y-72702471D01*
X116897860Y-70606865D01*
X116899080Y-68621163D01*
X116900347Y-66742461D01*
X116901669Y-64967856D01*
X116903054Y-63294446D01*
X116904512Y-61719328D01*
X116906051Y-60239600D01*
X116907679Y-58852359D01*
X116909405Y-57554703D01*
X116911237Y-56343728D01*
X116913184Y-55216533D01*
X116915254Y-54170214D01*
X116917456Y-53201870D01*
X116919798Y-52308597D01*
X116922289Y-51487492D01*
X116924937Y-50735654D01*
X116927750Y-50050180D01*
X116930738Y-49428167D01*
X116933908Y-48866712D01*
X116937269Y-48362913D01*
X116940830Y-47913868D01*
X116944599Y-47516673D01*
X116948584Y-47168426D01*
X116952795Y-46866224D01*
X116957239Y-46607165D01*
X116961924Y-46388347D01*
X116966861Y-46206866D01*
X116972056Y-46059821D01*
X116977519Y-45944307D01*
X116983258Y-45857424D01*
X116989281Y-45796268D01*
X116995597Y-45757936D01*
X117002215Y-45739527D01*
X117005610Y-45736891D01*
X117118776Y-45744736D01*
G37*
G36*
X114303501Y-124287550D02*
G01*
X114858101Y-124288820D01*
X115327737Y-124291114D01*
X115719470Y-124294524D01*
X116040359Y-124299143D01*
X116297462Y-124305063D01*
X116497840Y-124312376D01*
X116648550Y-124321175D01*
X116756652Y-124331552D01*
X116829205Y-124343600D01*
X116873268Y-124357410D01*
X116895901Y-124373076D01*
X116902184Y-124383543D01*
X116911228Y-124500797D01*
X116889718Y-124543264D01*
X116820135Y-124550303D01*
X116631543Y-124556775D01*
X116332249Y-124562635D01*
X115930561Y-124567838D01*
X115434786Y-124572339D01*
X114853232Y-124576093D01*
X114194208Y-124579056D01*
X113466020Y-124581183D01*
X112676976Y-124582429D01*
X111835384Y-124582750D01*
X110949552Y-124582101D01*
X110027788Y-124580436D01*
X109996529Y-124580363D01*
X108916060Y-124577773D01*
X107955818Y-124575319D01*
X107108712Y-124572852D01*
X106367652Y-124570224D01*
X105725546Y-124567285D01*
X105175303Y-124563888D01*
X104709833Y-124559882D01*
X104322044Y-124555119D01*
X104004847Y-124549452D01*
X103751149Y-124542729D01*
X103553860Y-124534804D01*
X103405889Y-124525527D01*
X103300145Y-124514749D01*
X103229537Y-124502321D01*
X103186974Y-124488096D01*
X103165366Y-124471923D01*
X103157621Y-124453655D01*
X103156641Y-124436842D01*
X103158273Y-124416743D01*
X103167890Y-124398860D01*
X103192578Y-124383043D01*
X103239421Y-124369144D01*
X103315502Y-124357016D01*
X103427908Y-124346509D01*
X103583722Y-124337475D01*
X103790028Y-124329767D01*
X104053912Y-124323234D01*
X104382457Y-124317730D01*
X104782748Y-124313105D01*
X105261869Y-124309212D01*
X105826906Y-124305901D01*
X106484942Y-124303025D01*
X107243062Y-124300435D01*
X108108350Y-124297983D01*
X109087891Y-124295521D01*
X110008995Y-124293324D01*
X111094294Y-124290861D01*
X112059336Y-124288959D01*
X112911178Y-124287712D01*
X113656880Y-124287212D01*
X114303501Y-124287550D01*
G37*
G36*
X112943808Y-45417372D02*
G01*
X113772406Y-45418907D01*
X114516925Y-45421529D01*
X115171520Y-45425201D01*
X115730345Y-45429887D01*
X116187556Y-45435554D01*
X116537308Y-45442163D01*
X116773756Y-45449681D01*
X116891056Y-45458071D01*
X116903291Y-45461639D01*
X116914520Y-45565713D01*
X116900304Y-45621356D01*
X116885786Y-45637451D01*
X116850640Y-45651711D01*
X116787862Y-45664223D01*
X116690444Y-45675074D01*
X116551382Y-45684350D01*
X116363671Y-45692139D01*
X116120305Y-45698527D01*
X115814279Y-45703600D01*
X115438586Y-45707446D01*
X114986222Y-45710152D01*
X114450181Y-45711803D01*
X113823459Y-45712487D01*
X113099048Y-45712291D01*
X112269944Y-45711301D01*
X111329142Y-45709603D01*
X110269635Y-45707285D01*
X110008995Y-45706675D01*
X108927486Y-45704088D01*
X107966211Y-45701637D01*
X107118084Y-45699173D01*
X106376023Y-45696548D01*
X105732941Y-45693615D01*
X105181756Y-45690223D01*
X104715381Y-45686225D01*
X104326733Y-45681473D01*
X104008728Y-45675819D01*
X103754280Y-45669113D01*
X103556306Y-45661207D01*
X103407721Y-45651954D01*
X103301440Y-45641204D01*
X103230380Y-45628809D01*
X103187454Y-45614622D01*
X103165580Y-45598493D01*
X103157673Y-45580274D01*
X103156641Y-45563157D01*
X103158272Y-45543063D01*
X103167887Y-45525183D01*
X103192569Y-45509368D01*
X103239401Y-45495472D01*
X103315465Y-45483344D01*
X103427845Y-45472838D01*
X103583624Y-45463804D01*
X103789884Y-45456095D01*
X104053708Y-45449562D01*
X104382180Y-45444056D01*
X104782382Y-45439431D01*
X105261397Y-45435537D01*
X105826307Y-45432226D01*
X106484197Y-45429349D01*
X107242149Y-45426759D01*
X108107246Y-45424307D01*
X109086570Y-45421846D01*
X110011982Y-45419639D01*
X111057750Y-45417703D01*
X112036974Y-45416959D01*
X112943808Y-45417372D01*
G37*
G36*
X69303501Y-124287550D02*
G01*
X69858101Y-124288820D01*
X70327737Y-124291114D01*
X70719470Y-124294524D01*
X71040359Y-124299143D01*
X71297462Y-124305063D01*
X71497840Y-124312376D01*
X71648550Y-124321175D01*
X71756652Y-124331552D01*
X71829205Y-124343600D01*
X71873268Y-124357410D01*
X71895901Y-124373076D01*
X71902184Y-124383543D01*
X71911228Y-124500797D01*
X71889718Y-124543264D01*
X71820135Y-124550303D01*
X71631543Y-124556775D01*
X71332249Y-124562635D01*
X70930561Y-124567838D01*
X70434786Y-124572339D01*
X69853232Y-124576093D01*
X69194208Y-124579056D01*
X68466020Y-124581183D01*
X67676976Y-124582429D01*
X66835384Y-124582750D01*
X65949552Y-124582101D01*
X65027788Y-124580436D01*
X64996529Y-124580363D01*
X63916060Y-124577773D01*
X62955818Y-124575319D01*
X62108712Y-124572852D01*
X61367652Y-124570224D01*
X60725546Y-124567285D01*
X60175303Y-124563888D01*
X59709833Y-124559882D01*
X59322044Y-124555119D01*
X59004847Y-124549452D01*
X58751149Y-124542729D01*
X58553860Y-124534804D01*
X58405889Y-124525527D01*
X58300145Y-124514749D01*
X58229537Y-124502321D01*
X58186974Y-124488096D01*
X58165366Y-124471923D01*
X58157621Y-124453655D01*
X58156641Y-124436842D01*
X58158273Y-124416743D01*
X58167890Y-124398860D01*
X58192578Y-124383043D01*
X58239421Y-124369144D01*
X58315502Y-124357016D01*
X58427908Y-124346509D01*
X58583722Y-124337475D01*
X58790028Y-124329767D01*
X59053912Y-124323234D01*
X59382457Y-124317730D01*
X59782748Y-124313105D01*
X60261869Y-124309212D01*
X60826906Y-124305901D01*
X61484942Y-124303025D01*
X62243062Y-124300435D01*
X63108350Y-124297983D01*
X64087891Y-124295521D01*
X65008995Y-124293324D01*
X66094294Y-124290861D01*
X67059336Y-124288959D01*
X67911178Y-124287712D01*
X68656880Y-124287212D01*
X69303501Y-124287550D01*
G37*
G36*
X58050104Y-45744736D02*
G01*
X58080172Y-45762544D01*
X58082711Y-45828186D01*
X58085214Y-46017704D01*
X58087677Y-46327659D01*
X58090096Y-46754607D01*
X58092468Y-47295109D01*
X58094787Y-47945722D01*
X58097050Y-48703005D01*
X58099254Y-49563518D01*
X58101395Y-50523818D01*
X58103467Y-51580464D01*
X58105469Y-52730015D01*
X58107395Y-53969030D01*
X58109241Y-55294067D01*
X58111005Y-56701685D01*
X58112681Y-58188442D01*
X58114266Y-59750898D01*
X58115757Y-61385610D01*
X58117148Y-63089138D01*
X58118437Y-64858041D01*
X58119619Y-66688876D01*
X58120690Y-68578203D01*
X58121647Y-70522580D01*
X58122486Y-72518566D01*
X58123202Y-74562719D01*
X58123792Y-76651599D01*
X58124251Y-78781763D01*
X58124577Y-80949771D01*
X58124764Y-83152181D01*
X58124812Y-84970985D01*
X58124821Y-87652584D01*
X58124838Y-90209804D01*
X58124843Y-92645584D01*
X58124819Y-94962865D01*
X58124748Y-97164585D01*
X58124611Y-99253683D01*
X58124391Y-101233100D01*
X58124070Y-103105775D01*
X58123630Y-104874646D01*
X58123052Y-106542654D01*
X58122318Y-108112738D01*
X58121412Y-109587837D01*
X58120313Y-110970891D01*
X58119005Y-112264839D01*
X58117469Y-113472620D01*
X58115688Y-114597175D01*
X58113643Y-115641441D01*
X58111316Y-116608360D01*
X58108689Y-117500870D01*
X58105745Y-118321910D01*
X58102465Y-119074420D01*
X58098830Y-119761340D01*
X58094824Y-120385609D01*
X58090428Y-120950166D01*
X58085623Y-121457950D01*
X58080393Y-121911902D01*
X58074719Y-122314960D01*
X58068582Y-122670065D01*
X58061965Y-122980154D01*
X58054850Y-123248169D01*
X58047219Y-123477047D01*
X58039053Y-123669729D01*
X58030335Y-123829154D01*
X58021046Y-123958262D01*
X58011169Y-124059991D01*
X58000686Y-124137282D01*
X57989578Y-124193073D01*
X57977827Y-124230305D01*
X57965416Y-124251916D01*
X57952326Y-124260846D01*
X57938540Y-124260034D01*
X57924039Y-124252420D01*
X57908805Y-124240944D01*
X57892820Y-124228543D01*
X57883904Y-124222519D01*
X57878412Y-124194546D01*
X57873189Y-124115953D01*
X57868229Y-123984299D01*
X57863529Y-123797140D01*
X57859085Y-123552034D01*
X57854893Y-123246540D01*
X57850950Y-122878214D01*
X57847251Y-122444615D01*
X57843794Y-121943301D01*
X57840573Y-121371828D01*
X57837585Y-120727755D01*
X57834827Y-120008640D01*
X57832294Y-119212040D01*
X57829983Y-118335513D01*
X57827890Y-117376616D01*
X57826010Y-116332908D01*
X57824341Y-115201946D01*
X57822878Y-113981287D01*
X57821618Y-112668491D01*
X57820556Y-111261113D01*
X57819690Y-109756712D01*
X57819014Y-108152846D01*
X57818526Y-106447073D01*
X57818221Y-104636949D01*
X57818095Y-102720034D01*
X57818145Y-100693883D01*
X57818367Y-98556057D01*
X57818758Y-96304111D01*
X57819312Y-93935603D01*
X57820027Y-91448093D01*
X57820898Y-88839136D01*
X57821923Y-86106291D01*
X57822379Y-84965253D01*
X57823496Y-82275380D01*
X57824608Y-79709925D01*
X57825724Y-77265985D01*
X57826854Y-74940659D01*
X57828005Y-72731046D01*
X57829185Y-70634245D01*
X57830405Y-68647355D01*
X57831670Y-66767473D01*
X57832991Y-64991699D01*
X57834376Y-63317132D01*
X57835833Y-61740870D01*
X57837371Y-60260011D01*
X57838998Y-58871655D01*
X57840722Y-57572900D01*
X57842553Y-56360845D01*
X57844498Y-55232588D01*
X57846567Y-54185229D01*
X57848766Y-53215865D01*
X57851106Y-52321596D01*
X57853594Y-51499521D01*
X57856239Y-50746737D01*
X57859050Y-50060343D01*
X57862034Y-49437439D01*
X57865201Y-48875123D01*
X57868559Y-48370493D01*
X57872116Y-47920649D01*
X57875881Y-47522689D01*
X57879862Y-47173711D01*
X57884067Y-46870815D01*
X57888506Y-46611098D01*
X57893187Y-46391661D01*
X57898117Y-46209600D01*
X57903307Y-46062016D01*
X57908763Y-45946007D01*
X57914495Y-45858671D01*
X57920511Y-45797107D01*
X57926820Y-45758413D01*
X57933429Y-45739690D01*
X57936939Y-45736891D01*
X58050104Y-45744736D01*
G37*
G36*
X72118776Y-45744736D02*
G01*
X72148843Y-45762544D01*
X72151382Y-45828185D01*
X72153884Y-46017704D01*
X72156346Y-46327662D01*
X72158764Y-46754618D01*
X72161134Y-47295134D01*
X72163453Y-47945768D01*
X72165716Y-48703081D01*
X72167919Y-49563633D01*
X72170058Y-50523984D01*
X72172130Y-51580694D01*
X72174131Y-52730324D01*
X72176057Y-53969433D01*
X72177903Y-55294582D01*
X72179666Y-56702330D01*
X72181342Y-58189239D01*
X72182928Y-59751867D01*
X72184418Y-61386775D01*
X72185810Y-63090524D01*
X72187099Y-64859672D01*
X72188281Y-66690781D01*
X72189353Y-68580411D01*
X72190311Y-70525121D01*
X72191150Y-72521471D01*
X72191867Y-74566023D01*
X72192458Y-76655335D01*
X72192919Y-78785969D01*
X72193245Y-80954483D01*
X72193434Y-83157439D01*
X72193483Y-85003799D01*
X72193455Y-87711004D01*
X72193365Y-90293719D01*
X72193208Y-92754773D01*
X72192975Y-95096992D01*
X72192662Y-97323207D01*
X72192262Y-99436243D01*
X72191767Y-101438931D01*
X72191172Y-103334097D01*
X72190469Y-105124571D01*
X72189653Y-106813180D01*
X72188716Y-108402753D01*
X72187653Y-109896117D01*
X72186456Y-111296101D01*
X72185120Y-112605533D01*
X72183637Y-113827242D01*
X72182001Y-114964055D01*
X72180205Y-116018800D01*
X72178244Y-116994306D01*
X72176109Y-117893402D01*
X72173796Y-118718914D01*
X72171296Y-119473672D01*
X72168605Y-120160503D01*
X72165714Y-120782236D01*
X72162618Y-121341699D01*
X72159311Y-121841720D01*
X72155784Y-122285127D01*
X72152033Y-122674749D01*
X72148050Y-123013413D01*
X72143829Y-123303948D01*
X72139363Y-123549182D01*
X72134646Y-123751943D01*
X72129672Y-123915059D01*
X72124433Y-124041359D01*
X72118923Y-124133671D01*
X72113135Y-124194822D01*
X72107064Y-124227642D01*
X72102649Y-124235269D01*
X71988291Y-124223411D01*
X71943450Y-124187751D01*
X71938349Y-124137587D01*
X71933504Y-123998739D01*
X71928914Y-123769769D01*
X71924577Y-123449240D01*
X71920489Y-123035714D01*
X71916651Y-122527753D01*
X71913059Y-121923920D01*
X71909711Y-121222778D01*
X71906607Y-120422887D01*
X71903743Y-119522812D01*
X71901119Y-118521115D01*
X71898731Y-117416356D01*
X71896579Y-116207100D01*
X71894660Y-114891909D01*
X71892972Y-113469344D01*
X71891514Y-111937969D01*
X71890283Y-110296345D01*
X71889277Y-108543035D01*
X71888496Y-106676602D01*
X71887936Y-104695607D01*
X71887595Y-102598614D01*
X71887473Y-100384184D01*
X71887567Y-98050880D01*
X71887874Y-95597264D01*
X71888394Y-93021899D01*
X71889124Y-90323347D01*
X71890062Y-87500171D01*
X71891051Y-84930627D01*
X71892168Y-82241970D01*
X71893280Y-79677728D01*
X71894398Y-77234999D01*
X71895528Y-74910881D01*
X71896679Y-72702471D01*
X71897860Y-70606865D01*
X71899080Y-68621163D01*
X71900347Y-66742461D01*
X71901669Y-64967856D01*
X71903054Y-63294446D01*
X71904512Y-61719328D01*
X71906051Y-60239600D01*
X71907679Y-58852359D01*
X71909405Y-57554703D01*
X71911237Y-56343728D01*
X71913184Y-55216533D01*
X71915254Y-54170214D01*
X71917456Y-53201870D01*
X71919798Y-52308597D01*
X71922289Y-51487492D01*
X71924937Y-50735654D01*
X71927750Y-50050180D01*
X71930738Y-49428167D01*
X71933908Y-48866712D01*
X71937269Y-48362913D01*
X71940830Y-47913868D01*
X71944599Y-47516673D01*
X71948584Y-47168426D01*
X71952795Y-46866224D01*
X71957239Y-46607165D01*
X71961924Y-46388347D01*
X71966861Y-46206866D01*
X71972056Y-46059821D01*
X71977519Y-45944307D01*
X71983258Y-45857424D01*
X71989281Y-45796268D01*
X71995597Y-45757936D01*
X72002215Y-45739527D01*
X72005610Y-45736891D01*
X72118776Y-45744736D01*
G37*
G36*
X67943808Y-45417372D02*
G01*
X68772406Y-45418907D01*
X69516925Y-45421529D01*
X70171520Y-45425201D01*
X70730345Y-45429887D01*
X71187556Y-45435554D01*
X71537308Y-45442163D01*
X71773756Y-45449681D01*
X71891056Y-45458071D01*
X71903291Y-45461639D01*
X71914520Y-45565713D01*
X71900304Y-45621356D01*
X71885786Y-45637451D01*
X71850640Y-45651711D01*
X71787862Y-45664223D01*
X71690444Y-45675074D01*
X71551382Y-45684350D01*
X71363671Y-45692139D01*
X71120305Y-45698527D01*
X70814279Y-45703600D01*
X70438586Y-45707446D01*
X69986222Y-45710152D01*
X69450181Y-45711803D01*
X68823459Y-45712487D01*
X68099048Y-45712291D01*
X67269944Y-45711301D01*
X66329142Y-45709603D01*
X65269635Y-45707285D01*
X65008995Y-45706675D01*
X63927486Y-45704088D01*
X62966211Y-45701637D01*
X62118084Y-45699173D01*
X61376023Y-45696548D01*
X60732941Y-45693615D01*
X60181756Y-45690223D01*
X59715381Y-45686225D01*
X59326733Y-45681473D01*
X59008728Y-45675819D01*
X58754280Y-45669113D01*
X58556306Y-45661207D01*
X58407721Y-45651954D01*
X58301440Y-45641204D01*
X58230380Y-45628809D01*
X58187454Y-45614622D01*
X58165580Y-45598493D01*
X58157673Y-45580274D01*
X58156641Y-45563157D01*
X58158272Y-45543063D01*
X58167887Y-45525183D01*
X58192569Y-45509368D01*
X58239401Y-45495472D01*
X58315465Y-45483344D01*
X58427845Y-45472838D01*
X58583624Y-45463804D01*
X58789884Y-45456095D01*
X59053708Y-45449562D01*
X59382180Y-45444056D01*
X59782382Y-45439431D01*
X60261397Y-45435537D01*
X60826307Y-45432226D01*
X61484197Y-45429349D01*
X62242149Y-45426759D01*
X63107246Y-45424307D01*
X64086570Y-45421846D01*
X65011982Y-45419639D01*
X66057750Y-45417703D01*
X67036974Y-45416959D01*
X67943808Y-45417372D01*
G37*
%TD*%
M02*
