%TF.GenerationSoftware,KiCad,Pcbnew,6.0.11-2627ca5db0~126~ubuntu22.04.1*%
%TF.CreationDate,2025-08-28T10:11:21+02:00*%
%TF.ProjectId,LaserLid,4c617365-724c-4696-942e-6b696361645f,rev?*%
%TF.SameCoordinates,Original*%
%TF.FileFunction,Paste,Top*%
%TF.FilePolarity,Positive*%
%FSLAX46Y46*%
G04 Gerber Fmt 4.6, Leading zero omitted, Abs format (unit mm)*
G04 Created by KiCad (PCBNEW 6.0.11-2627ca5db0~126~ubuntu22.04.1) date 2025-08-28 10:11:21*
%MOMM*%
%LPD*%
G01*
G04 APERTURE LIST*
G04 APERTURE END LIST*
%TO.C,G\u002A\u002A\u002A*%
G36*
X131953885Y-299479699D02*
G01*
X116930326Y-299479699D01*
X116930326Y-297506266D01*
X131953885Y-297506266D01*
X131953885Y-299479699D01*
G37*
G36*
X81549371Y-282417333D02*
G01*
X81567670Y-285407599D01*
X81712492Y-285552546D01*
X81776385Y-285608798D01*
X81852124Y-285649005D01*
X81961790Y-285676492D01*
X82127459Y-285694585D01*
X82371210Y-285706612D01*
X82715121Y-285715899D01*
X82810613Y-285717995D01*
X83763910Y-285738496D01*
X83763910Y-287702757D01*
X82952256Y-287702276D01*
X82290917Y-287684051D01*
X81737010Y-287625087D01*
X81275003Y-287517665D01*
X80889368Y-287354070D01*
X80564573Y-287126585D01*
X80285090Y-286827491D01*
X80035388Y-286449074D01*
X79894446Y-286182852D01*
X79657895Y-285704351D01*
X79639703Y-282565709D01*
X79621510Y-279427068D01*
X81531072Y-279427068D01*
X81549371Y-282417333D01*
G37*
G36*
X93376441Y-272169925D02*
G01*
X84782456Y-272169925D01*
X84782456Y-270196491D01*
X91403008Y-270196491D01*
X91403008Y-266758897D01*
X93376441Y-266758897D01*
X93376441Y-272169925D01*
G37*
G36*
X147995990Y-260392982D02*
G01*
X132972431Y-260392982D01*
X132972431Y-258419549D01*
X147995990Y-258419549D01*
X147995990Y-260392982D01*
G37*
G36*
X164101755Y-260392982D02*
G01*
X149014537Y-260392982D01*
X149014537Y-258419549D01*
X164101755Y-258419549D01*
X164101755Y-260392982D01*
G37*
G36*
X173586968Y-270196491D02*
G01*
X180143860Y-270196491D01*
X180143860Y-272169925D01*
X171613534Y-272169925D01*
X171613534Y-266758897D01*
X173586968Y-266758897D01*
X173586968Y-270196491D01*
G37*
G36*
X115911780Y-260392982D02*
G01*
X100824562Y-260392982D01*
X100824562Y-258419549D01*
X115911780Y-258419549D01*
X115911780Y-260392982D01*
G37*
G36*
X147995990Y-299479699D02*
G01*
X132972431Y-299479699D01*
X132972431Y-297506266D01*
X147995990Y-297506266D01*
X147995990Y-299479699D01*
G37*
G36*
X93376441Y-294691099D02*
G01*
X93376984Y-295337235D01*
X93378904Y-295867975D01*
X93382645Y-296295235D01*
X93388648Y-296630934D01*
X93397355Y-296886990D01*
X93409207Y-297075320D01*
X93424647Y-297207843D01*
X93444116Y-297296476D01*
X93468055Y-297390000D01*
X93570000Y-297480000D01*
X93680000Y-297506266D01*
X99869675Y-297506266D01*
X99869675Y-299479699D01*
X96796841Y-299479699D01*
X96086727Y-299479438D01*
X95491647Y-299478358D01*
X94999320Y-299476013D01*
X94597462Y-299471957D01*
X94273791Y-299465745D01*
X94016024Y-299456930D01*
X93811879Y-299445067D01*
X93649072Y-299429710D01*
X93515320Y-299410414D01*
X93398342Y-299386731D01*
X93285855Y-299358218D01*
X93260873Y-299351358D01*
X92833734Y-299205692D01*
X92486844Y-299018228D01*
X92196638Y-298768281D01*
X91939552Y-298435166D01*
X91692022Y-297998199D01*
X91670544Y-297955356D01*
X91434837Y-297481389D01*
X91415693Y-294820143D01*
X91396548Y-292158897D01*
X93376441Y-292158897D01*
X93376441Y-294691099D01*
G37*
G36*
X173586487Y-294562030D02*
G01*
X173584558Y-295155536D01*
X173579265Y-295712327D01*
X173570981Y-296216722D01*
X173560083Y-296653041D01*
X173546943Y-297005604D01*
X173531938Y-297258728D01*
X173519219Y-297376806D01*
X173370660Y-297912709D01*
X173111799Y-298389322D01*
X172748901Y-298798557D01*
X172288234Y-299132328D01*
X172070582Y-299246419D01*
X171645364Y-299447870D01*
X168382832Y-299466990D01*
X165120301Y-299486111D01*
X165120301Y-297506266D01*
X168200717Y-297506266D01*
X168907771Y-297506067D01*
X169498589Y-297505194D01*
X169984252Y-297503229D01*
X170375844Y-297499755D01*
X170684446Y-297494354D01*
X170921140Y-297486610D01*
X171097008Y-297476104D01*
X171223133Y-297462420D01*
X171310595Y-297445141D01*
X171370478Y-297423848D01*
X171470000Y-297360000D01*
X171550000Y-297260000D01*
X171600000Y-297110000D01*
X171617721Y-292158897D01*
X173586968Y-292158897D01*
X173586487Y-294562030D01*
G37*
G36*
X185332081Y-279458897D02*
G01*
X185350187Y-282323559D01*
X185353606Y-283159299D01*
X185352592Y-283878730D01*
X185347178Y-284479800D01*
X185337398Y-284960457D01*
X185323283Y-285318648D01*
X185304867Y-285552321D01*
X185297864Y-285601686D01*
X185145257Y-286139432D01*
X184887561Y-286614357D01*
X184535980Y-287015465D01*
X184101718Y-287331756D01*
X183595980Y-287552232D01*
X183219919Y-287641333D01*
X183010652Y-287664828D01*
X182713390Y-287684153D01*
X182367438Y-287697330D01*
X182012102Y-287702384D01*
X182005890Y-287702388D01*
X181162406Y-287702757D01*
X181162406Y-285738286D01*
X182147026Y-285717890D01*
X182531880Y-285708084D01*
X182809835Y-285695447D01*
X183001310Y-285677485D01*
X183126723Y-285651708D01*
X183206493Y-285615622D01*
X183245146Y-285583861D01*
X183271520Y-285550251D01*
X183293623Y-285499474D01*
X183340000Y-285450000D01*
X183360000Y-285350000D01*
X183370000Y-285220000D01*
X183390000Y-284660000D01*
X183390000Y-283770000D01*
X183400000Y-283350000D01*
X183400000Y-282790000D01*
X183390000Y-282340000D01*
X183394079Y-279423771D01*
X185332081Y-279458897D01*
G37*
G36*
X115911780Y-299479699D02*
G01*
X100824562Y-299479699D01*
X100824562Y-297506266D01*
X115911780Y-297506266D01*
X115911780Y-299479699D01*
G37*
G36*
X182324186Y-270207350D02*
G01*
X182739050Y-270215664D01*
X183049884Y-270225473D01*
X183279965Y-270239780D01*
X183452572Y-270261590D01*
X183590984Y-270293905D01*
X183718478Y-270339730D01*
X183858334Y-270402067D01*
X183867920Y-270406535D01*
X184331338Y-270690856D01*
X184724827Y-271070147D01*
X185032950Y-271524312D01*
X185240275Y-272033254D01*
X185294631Y-272264157D01*
X185312554Y-272429821D01*
X185328054Y-272715511D01*
X185340979Y-273113954D01*
X185351176Y-273617878D01*
X185358491Y-274220009D01*
X185362771Y-274913077D01*
X185363910Y-275555551D01*
X185363910Y-278472180D01*
X183390477Y-278472180D01*
X183390477Y-272540000D01*
X183320000Y-272390000D01*
X183210000Y-272280000D01*
X183099203Y-272223844D01*
X183002117Y-272196204D01*
X182855753Y-272180102D01*
X182637942Y-272172430D01*
X182326513Y-272170078D01*
X182120187Y-272169925D01*
X181162406Y-272169925D01*
X181162406Y-270186380D01*
X182324186Y-270207350D01*
G37*
G36*
X99869675Y-260392982D02*
G01*
X96750376Y-260392982D01*
X96039631Y-260393129D01*
X95445268Y-260393854D01*
X94956353Y-260395586D01*
X94561948Y-260398755D01*
X94251120Y-260403788D01*
X94012932Y-260411116D01*
X93836449Y-260421166D01*
X93710735Y-260434368D01*
X93624854Y-260451151D01*
X93567872Y-260471943D01*
X93528852Y-260497173D01*
X93503760Y-260520301D01*
X93471932Y-260556345D01*
X93445900Y-260602780D01*
X93425082Y-260671820D01*
X93408897Y-260775679D01*
X93396762Y-260926570D01*
X93388097Y-261136706D01*
X93382319Y-261418301D01*
X93378848Y-261783568D01*
X93377101Y-262244722D01*
X93376497Y-262813974D01*
X93376441Y-263193985D01*
X93376441Y-265740351D01*
X91403008Y-265740351D01*
X91404651Y-263178070D01*
X91405280Y-262537862D01*
X91406705Y-262011403D01*
X91409587Y-261585120D01*
X91414584Y-261245444D01*
X91422356Y-260978804D01*
X91433563Y-260771630D01*
X91448862Y-260610351D01*
X91468915Y-260481397D01*
X91494380Y-260371197D01*
X91525916Y-260266181D01*
X91549563Y-260195504D01*
X91793436Y-259644449D01*
X92114805Y-259191857D01*
X92511359Y-258840144D01*
X92980787Y-258591724D01*
X93137077Y-258537204D01*
X93231460Y-258510385D01*
X93335143Y-258487950D01*
X93459812Y-258469514D01*
X93617151Y-258454689D01*
X93818847Y-258443089D01*
X94076587Y-258434327D01*
X94402054Y-258428016D01*
X94806936Y-258423770D01*
X95302919Y-258421201D01*
X95901688Y-258419924D01*
X96614928Y-258419551D01*
X96692389Y-258419549D01*
X99869675Y-258419549D01*
X99869675Y-260392982D01*
G37*
G36*
X180143860Y-287702757D02*
G01*
X173586968Y-287702757D01*
X173586968Y-291140351D01*
X171613534Y-291140351D01*
X171613534Y-285729323D01*
X180143860Y-285729323D01*
X180143860Y-287702757D01*
G37*
G36*
X131953885Y-260392982D02*
G01*
X116930326Y-260392982D01*
X116930326Y-258419549D01*
X131953885Y-258419549D01*
X131953885Y-260392982D01*
G37*
G36*
X171709023Y-258451378D02*
G01*
X172108329Y-258635779D01*
X172484348Y-258863394D01*
X172843768Y-259178024D01*
X173152536Y-259544061D01*
X173376597Y-259925896D01*
X173404225Y-259990846D01*
X173440312Y-260084247D01*
X173470115Y-260175414D01*
X173494350Y-260277257D01*
X173513733Y-260402684D01*
X173528978Y-260564605D01*
X173540803Y-260775929D01*
X173549922Y-261049565D01*
X173557052Y-261398423D01*
X173562907Y-261835410D01*
X173568204Y-262373438D01*
X173573659Y-263025414D01*
X173573864Y-263050752D01*
X173595608Y-265740351D01*
X171617721Y-265740351D01*
X171590000Y-260720000D01*
X171560000Y-260620000D01*
X171460000Y-260510000D01*
X171341037Y-260463427D01*
X171267702Y-260444344D01*
X171160829Y-260429050D01*
X171009336Y-260417127D01*
X170802140Y-260408157D01*
X170528160Y-260401725D01*
X170176313Y-260397412D01*
X169735518Y-260394801D01*
X169194692Y-260393475D01*
X168542754Y-260393017D01*
X168200717Y-260392982D01*
X165120301Y-260392982D01*
X165120301Y-258415188D01*
X171709023Y-258451378D01*
G37*
G36*
X93376441Y-291140351D02*
G01*
X91403008Y-291140351D01*
X91403008Y-287702757D01*
X84782456Y-287702757D01*
X84782456Y-285729323D01*
X93376441Y-285729323D01*
X93376441Y-291140351D01*
G37*
G36*
X164101755Y-299479699D02*
G01*
X149014537Y-299479699D01*
X149014537Y-297506266D01*
X164101755Y-297506266D01*
X164101755Y-299479699D01*
G37*
G36*
X83763910Y-272169925D02*
G01*
X82824938Y-272171949D01*
X82420401Y-272175609D01*
X82123813Y-272188656D01*
X81915843Y-272217204D01*
X81777163Y-272267365D01*
X81688445Y-272345250D01*
X81630360Y-272456974D01*
X81597105Y-272560228D01*
X81583508Y-272671084D01*
X81571130Y-272896952D01*
X81560217Y-273225526D01*
X81551016Y-273644503D01*
X81543772Y-274141580D01*
X81538732Y-274704453D01*
X81536141Y-275320818D01*
X81535840Y-275623013D01*
X81535840Y-278472180D01*
X79626066Y-278472180D01*
X79631401Y-275464286D01*
X79634147Y-274654768D01*
X79639389Y-273966626D01*
X79647274Y-273393938D01*
X79657949Y-272930781D01*
X79671560Y-272571234D01*
X79688254Y-272309377D01*
X79708178Y-272139286D01*
X79714583Y-272106266D01*
X79892145Y-271571671D01*
X80168246Y-271117391D01*
X80540901Y-270745608D01*
X81008126Y-270458505D01*
X81332218Y-270328069D01*
X81505264Y-270276101D01*
X81683187Y-270239545D01*
X81893081Y-270215874D01*
X82162041Y-270202563D01*
X82517161Y-270197084D01*
X82743356Y-270196491D01*
X83763910Y-270196491D01*
X83763910Y-272169925D01*
G37*
G36*
X46393734Y-196953885D02*
G01*
X44420301Y-196953885D01*
X44420301Y-181930326D01*
X46393734Y-181930326D01*
X46393734Y-196953885D01*
G37*
G36*
X64472932Y-146531072D02*
G01*
X61482667Y-146549371D01*
X58492401Y-146567670D01*
X58347454Y-146712492D01*
X58291202Y-146776385D01*
X58250995Y-146852124D01*
X58223508Y-146961790D01*
X58205415Y-147127459D01*
X58193388Y-147371210D01*
X58184101Y-147715121D01*
X58182005Y-147810613D01*
X58161504Y-148763910D01*
X56197243Y-148763910D01*
X56197724Y-147952256D01*
X56215949Y-147290917D01*
X56274913Y-146737010D01*
X56382335Y-146275003D01*
X56545930Y-145889368D01*
X56773415Y-145564573D01*
X57072509Y-145285090D01*
X57450926Y-145035388D01*
X57717148Y-144894446D01*
X58195649Y-144657895D01*
X61334291Y-144639703D01*
X64472932Y-144621510D01*
X64472932Y-146531072D01*
G37*
G36*
X73703509Y-156403008D02*
G01*
X77141103Y-156403008D01*
X77141103Y-158376441D01*
X71730075Y-158376441D01*
X71730075Y-149782456D01*
X73703509Y-149782456D01*
X73703509Y-156403008D01*
G37*
G36*
X85480451Y-212995990D02*
G01*
X83507018Y-212995990D01*
X83507018Y-197972431D01*
X85480451Y-197972431D01*
X85480451Y-212995990D01*
G37*
G36*
X85480451Y-229101755D02*
G01*
X83507018Y-229101755D01*
X83507018Y-214014537D01*
X85480451Y-214014537D01*
X85480451Y-229101755D01*
G37*
G36*
X77141103Y-238586968D02*
G01*
X73703509Y-238586968D01*
X73703509Y-245143860D01*
X71730075Y-245143860D01*
X71730075Y-236613534D01*
X77141103Y-236613534D01*
X77141103Y-238586968D01*
G37*
G36*
X85480451Y-180911780D02*
G01*
X83507018Y-180911780D01*
X83507018Y-165824562D01*
X85480451Y-165824562D01*
X85480451Y-180911780D01*
G37*
G36*
X46393734Y-212995990D02*
G01*
X44420301Y-212995990D01*
X44420301Y-197972431D01*
X46393734Y-197972431D01*
X46393734Y-212995990D01*
G37*
G36*
X51741103Y-158376441D02*
G01*
X49208901Y-158376441D01*
X48562765Y-158376984D01*
X48032025Y-158378904D01*
X47604765Y-158382645D01*
X47269066Y-158388648D01*
X47013010Y-158397355D01*
X46824680Y-158409207D01*
X46692157Y-158424647D01*
X46603524Y-158444116D01*
X46510000Y-158468055D01*
X46420000Y-158570000D01*
X46393734Y-158680000D01*
X46393734Y-164869675D01*
X44420301Y-164869675D01*
X44420301Y-161796841D01*
X44420562Y-161086727D01*
X44421642Y-160491647D01*
X44423987Y-159999320D01*
X44428043Y-159597462D01*
X44434255Y-159273791D01*
X44443070Y-159016024D01*
X44454933Y-158811879D01*
X44470290Y-158649072D01*
X44489586Y-158515320D01*
X44513269Y-158398342D01*
X44541782Y-158285855D01*
X44548642Y-158260873D01*
X44694308Y-157833734D01*
X44881772Y-157486844D01*
X45131719Y-157196638D01*
X45464834Y-156939552D01*
X45901801Y-156692022D01*
X45944644Y-156670544D01*
X46418611Y-156434837D01*
X49079857Y-156415693D01*
X51741103Y-156396548D01*
X51741103Y-158376441D01*
G37*
G36*
X46393734Y-233200717D02*
G01*
X46393933Y-233907771D01*
X46394806Y-234498589D01*
X46396771Y-234984252D01*
X46400245Y-235375844D01*
X46405646Y-235684446D01*
X46413390Y-235921140D01*
X46423896Y-236097008D01*
X46437580Y-236223133D01*
X46454859Y-236310595D01*
X46476152Y-236370478D01*
X46540000Y-236470000D01*
X46640000Y-236550000D01*
X46790000Y-236600000D01*
X51741103Y-236617721D01*
X51741103Y-238586968D01*
X49337970Y-238586487D01*
X48744464Y-238584558D01*
X48187673Y-238579265D01*
X47683278Y-238570981D01*
X47246959Y-238560083D01*
X46894396Y-238546943D01*
X46641272Y-238531938D01*
X46523194Y-238519219D01*
X45987291Y-238370660D01*
X45510678Y-238111799D01*
X45101443Y-237748901D01*
X44767672Y-237288234D01*
X44653581Y-237070582D01*
X44452130Y-236645364D01*
X44433010Y-233382832D01*
X44413889Y-230120301D01*
X46393734Y-230120301D01*
X46393734Y-233200717D01*
G37*
G36*
X58182110Y-247147026D02*
G01*
X58191916Y-247531880D01*
X58204553Y-247809835D01*
X58222515Y-248001310D01*
X58248292Y-248126723D01*
X58284378Y-248206493D01*
X58316139Y-248245146D01*
X58349749Y-248271520D01*
X58400526Y-248293623D01*
X58450000Y-248340000D01*
X58550000Y-248360000D01*
X58680000Y-248370000D01*
X59240000Y-248390000D01*
X60130000Y-248390000D01*
X60550000Y-248400000D01*
X61110000Y-248400000D01*
X61560000Y-248390000D01*
X64476229Y-248394079D01*
X64441103Y-250332081D01*
X61576441Y-250350187D01*
X60740701Y-250353606D01*
X60021270Y-250352592D01*
X59420200Y-250347178D01*
X58939543Y-250337398D01*
X58581352Y-250323283D01*
X58347679Y-250304867D01*
X58298314Y-250297864D01*
X57760568Y-250145257D01*
X57285643Y-249887561D01*
X56884535Y-249535980D01*
X56568244Y-249101718D01*
X56347768Y-248595980D01*
X56258667Y-248219919D01*
X56235172Y-248010652D01*
X56215847Y-247713390D01*
X56202670Y-247367438D01*
X56197616Y-247012102D01*
X56197612Y-247005890D01*
X56197243Y-246162406D01*
X58161714Y-246162406D01*
X58182110Y-247147026D01*
G37*
G36*
X46393734Y-180911780D02*
G01*
X44420301Y-180911780D01*
X44420301Y-165824562D01*
X46393734Y-165824562D01*
X46393734Y-180911780D01*
G37*
G36*
X73692650Y-247324186D02*
G01*
X73684336Y-247739050D01*
X73674527Y-248049884D01*
X73660220Y-248279965D01*
X73638410Y-248452572D01*
X73606095Y-248590984D01*
X73560270Y-248718478D01*
X73497933Y-248858334D01*
X73493465Y-248867920D01*
X73209144Y-249331338D01*
X72829853Y-249724827D01*
X72375688Y-250032950D01*
X71866746Y-250240275D01*
X71635843Y-250294631D01*
X71470179Y-250312554D01*
X71184489Y-250328054D01*
X70786046Y-250340979D01*
X70282122Y-250351176D01*
X69679991Y-250358491D01*
X68986923Y-250362771D01*
X68344449Y-250363910D01*
X65427820Y-250363910D01*
X65427820Y-248390477D01*
X71360000Y-248390477D01*
X71510000Y-248320000D01*
X71620000Y-248210000D01*
X71676156Y-248099203D01*
X71703796Y-248002117D01*
X71719898Y-247855753D01*
X71727570Y-247637942D01*
X71729922Y-247326513D01*
X71730075Y-247120187D01*
X71730075Y-246162406D01*
X73713620Y-246162406D01*
X73692650Y-247324186D01*
G37*
G36*
X80721930Y-156404651D02*
G01*
X81362138Y-156405280D01*
X81888597Y-156406705D01*
X82314880Y-156409587D01*
X82654556Y-156414584D01*
X82921196Y-156422356D01*
X83128370Y-156433563D01*
X83289649Y-156448862D01*
X83418603Y-156468915D01*
X83528803Y-156494380D01*
X83633819Y-156525916D01*
X83704496Y-156549563D01*
X84255551Y-156793436D01*
X84708143Y-157114805D01*
X85059856Y-157511359D01*
X85308276Y-157980787D01*
X85362796Y-158137077D01*
X85389615Y-158231460D01*
X85412050Y-158335143D01*
X85430486Y-158459812D01*
X85445311Y-158617151D01*
X85456911Y-158818847D01*
X85465673Y-159076587D01*
X85471984Y-159402054D01*
X85476230Y-159806936D01*
X85478799Y-160302919D01*
X85480076Y-160901688D01*
X85480449Y-161614928D01*
X85480451Y-161692389D01*
X85480451Y-164869675D01*
X83507018Y-164869675D01*
X83507018Y-161750376D01*
X83506871Y-161039631D01*
X83506146Y-160445268D01*
X83504414Y-159956353D01*
X83501245Y-159561948D01*
X83496212Y-159251120D01*
X83488884Y-159012932D01*
X83478834Y-158836449D01*
X83465632Y-158710735D01*
X83448849Y-158624854D01*
X83428057Y-158567872D01*
X83402827Y-158528852D01*
X83379699Y-158503760D01*
X83343655Y-158471932D01*
X83297220Y-158445900D01*
X83228180Y-158425082D01*
X83124321Y-158408897D01*
X82973430Y-158396762D01*
X82763294Y-158388097D01*
X82481699Y-158382319D01*
X82116432Y-158378848D01*
X81655278Y-158377101D01*
X81086026Y-158376497D01*
X80706015Y-158376441D01*
X78159649Y-158376441D01*
X78159649Y-156403008D01*
X80721930Y-156404651D01*
G37*
G36*
X58170677Y-245143860D02*
G01*
X56197243Y-245143860D01*
X56197243Y-238586968D01*
X52759649Y-238586968D01*
X52759649Y-236613534D01*
X58170677Y-236613534D01*
X58170677Y-245143860D01*
G37*
G36*
X85480451Y-196953885D02*
G01*
X83507018Y-196953885D01*
X83507018Y-181930326D01*
X85480451Y-181930326D01*
X85480451Y-196953885D01*
G37*
G36*
X85448622Y-236709023D02*
G01*
X85264221Y-237108329D01*
X85036606Y-237484348D01*
X84721976Y-237843768D01*
X84355939Y-238152536D01*
X83974104Y-238376597D01*
X83909154Y-238404225D01*
X83815753Y-238440312D01*
X83724586Y-238470115D01*
X83622743Y-238494350D01*
X83497316Y-238513733D01*
X83335395Y-238528978D01*
X83124071Y-238540803D01*
X82850435Y-238549922D01*
X82501577Y-238557052D01*
X82064590Y-238562907D01*
X81526562Y-238568204D01*
X80874586Y-238573659D01*
X80849248Y-238573864D01*
X78159649Y-238595608D01*
X78159649Y-236617721D01*
X83180000Y-236590000D01*
X83280000Y-236560000D01*
X83390000Y-236460000D01*
X83436573Y-236341037D01*
X83455656Y-236267702D01*
X83470950Y-236160829D01*
X83482873Y-236009336D01*
X83491843Y-235802140D01*
X83498275Y-235528160D01*
X83502588Y-235176313D01*
X83505199Y-234735518D01*
X83506525Y-234194692D01*
X83506983Y-233542754D01*
X83507018Y-233200717D01*
X83507018Y-230120301D01*
X85484812Y-230120301D01*
X85448622Y-236709023D01*
G37*
G36*
X58170677Y-158376441D02*
G01*
X52759649Y-158376441D01*
X52759649Y-156403008D01*
X56197243Y-156403008D01*
X56197243Y-149782456D01*
X58170677Y-149782456D01*
X58170677Y-158376441D01*
G37*
G36*
X46393734Y-229101755D02*
G01*
X44420301Y-229101755D01*
X44420301Y-214014537D01*
X46393734Y-214014537D01*
X46393734Y-229101755D01*
G37*
G36*
X68435714Y-144631401D02*
G01*
X69245232Y-144634147D01*
X69933374Y-144639389D01*
X70506062Y-144647274D01*
X70969219Y-144657949D01*
X71328766Y-144671560D01*
X71590623Y-144688254D01*
X71760714Y-144708178D01*
X71793734Y-144714583D01*
X72328329Y-144892145D01*
X72782609Y-145168246D01*
X73154392Y-145540901D01*
X73441495Y-146008126D01*
X73571931Y-146332218D01*
X73623899Y-146505264D01*
X73660455Y-146683187D01*
X73684126Y-146893081D01*
X73697437Y-147162041D01*
X73702916Y-147517161D01*
X73703509Y-147743356D01*
X73703509Y-148763910D01*
X71730075Y-148763910D01*
X71728051Y-147824938D01*
X71724391Y-147420401D01*
X71711344Y-147123813D01*
X71682796Y-146915843D01*
X71632635Y-146777163D01*
X71554750Y-146688445D01*
X71443026Y-146630360D01*
X71339772Y-146597105D01*
X71228916Y-146583508D01*
X71003048Y-146571130D01*
X70674474Y-146560217D01*
X70255497Y-146551016D01*
X69758420Y-146543772D01*
X69195547Y-146538732D01*
X68579182Y-146536141D01*
X68276987Y-146535840D01*
X65427820Y-146535840D01*
X65427820Y-144626066D01*
X68435714Y-144631401D01*
G37*
G36*
X136393734Y-196953885D02*
G01*
X134420301Y-196953885D01*
X134420301Y-181930326D01*
X136393734Y-181930326D01*
X136393734Y-196953885D01*
G37*
G36*
X154472932Y-146531072D02*
G01*
X151482667Y-146549371D01*
X148492401Y-146567670D01*
X148347454Y-146712492D01*
X148291202Y-146776385D01*
X148250995Y-146852124D01*
X148223508Y-146961790D01*
X148205415Y-147127459D01*
X148193388Y-147371210D01*
X148184101Y-147715121D01*
X148182005Y-147810613D01*
X148161504Y-148763910D01*
X146197243Y-148763910D01*
X146197724Y-147952256D01*
X146215949Y-147290917D01*
X146274913Y-146737010D01*
X146382335Y-146275003D01*
X146545930Y-145889368D01*
X146773415Y-145564573D01*
X147072509Y-145285090D01*
X147450926Y-145035388D01*
X147717148Y-144894446D01*
X148195649Y-144657895D01*
X151334291Y-144639703D01*
X154472932Y-144621510D01*
X154472932Y-146531072D01*
G37*
G36*
X163703509Y-156403008D02*
G01*
X167141103Y-156403008D01*
X167141103Y-158376441D01*
X161730075Y-158376441D01*
X161730075Y-149782456D01*
X163703509Y-149782456D01*
X163703509Y-156403008D01*
G37*
G36*
X175480451Y-212995990D02*
G01*
X173507018Y-212995990D01*
X173507018Y-197972431D01*
X175480451Y-197972431D01*
X175480451Y-212995990D01*
G37*
G36*
X175480451Y-229101755D02*
G01*
X173507018Y-229101755D01*
X173507018Y-214014537D01*
X175480451Y-214014537D01*
X175480451Y-229101755D01*
G37*
G36*
X167141103Y-238586968D02*
G01*
X163703509Y-238586968D01*
X163703509Y-245143860D01*
X161730075Y-245143860D01*
X161730075Y-236613534D01*
X167141103Y-236613534D01*
X167141103Y-238586968D01*
G37*
G36*
X175480451Y-180911780D02*
G01*
X173507018Y-180911780D01*
X173507018Y-165824562D01*
X175480451Y-165824562D01*
X175480451Y-180911780D01*
G37*
G36*
X136393734Y-212995990D02*
G01*
X134420301Y-212995990D01*
X134420301Y-197972431D01*
X136393734Y-197972431D01*
X136393734Y-212995990D01*
G37*
G36*
X141741103Y-158376441D02*
G01*
X139208901Y-158376441D01*
X138562765Y-158376984D01*
X138032025Y-158378904D01*
X137604765Y-158382645D01*
X137269066Y-158388648D01*
X137013010Y-158397355D01*
X136824680Y-158409207D01*
X136692157Y-158424647D01*
X136603524Y-158444116D01*
X136510000Y-158468055D01*
X136420000Y-158570000D01*
X136393734Y-158680000D01*
X136393734Y-164869675D01*
X134420301Y-164869675D01*
X134420301Y-161796841D01*
X134420562Y-161086727D01*
X134421642Y-160491647D01*
X134423987Y-159999320D01*
X134428043Y-159597462D01*
X134434255Y-159273791D01*
X134443070Y-159016024D01*
X134454933Y-158811879D01*
X134470290Y-158649072D01*
X134489586Y-158515320D01*
X134513269Y-158398342D01*
X134541782Y-158285855D01*
X134548642Y-158260873D01*
X134694308Y-157833734D01*
X134881772Y-157486844D01*
X135131719Y-157196638D01*
X135464834Y-156939552D01*
X135901801Y-156692022D01*
X135944644Y-156670544D01*
X136418611Y-156434837D01*
X139079857Y-156415693D01*
X141741103Y-156396548D01*
X141741103Y-158376441D01*
G37*
G36*
X136393734Y-233200717D02*
G01*
X136393933Y-233907771D01*
X136394806Y-234498589D01*
X136396771Y-234984252D01*
X136400245Y-235375844D01*
X136405646Y-235684446D01*
X136413390Y-235921140D01*
X136423896Y-236097008D01*
X136437580Y-236223133D01*
X136454859Y-236310595D01*
X136476152Y-236370478D01*
X136540000Y-236470000D01*
X136640000Y-236550000D01*
X136790000Y-236600000D01*
X141741103Y-236617721D01*
X141741103Y-238586968D01*
X139337970Y-238586487D01*
X138744464Y-238584558D01*
X138187673Y-238579265D01*
X137683278Y-238570981D01*
X137246959Y-238560083D01*
X136894396Y-238546943D01*
X136641272Y-238531938D01*
X136523194Y-238519219D01*
X135987291Y-238370660D01*
X135510678Y-238111799D01*
X135101443Y-237748901D01*
X134767672Y-237288234D01*
X134653581Y-237070582D01*
X134452130Y-236645364D01*
X134433010Y-233382832D01*
X134413889Y-230120301D01*
X136393734Y-230120301D01*
X136393734Y-233200717D01*
G37*
G36*
X148182110Y-247147026D02*
G01*
X148191916Y-247531880D01*
X148204553Y-247809835D01*
X148222515Y-248001310D01*
X148248292Y-248126723D01*
X148284378Y-248206493D01*
X148316139Y-248245146D01*
X148349749Y-248271520D01*
X148400526Y-248293623D01*
X148450000Y-248340000D01*
X148550000Y-248360000D01*
X148680000Y-248370000D01*
X149240000Y-248390000D01*
X150130000Y-248390000D01*
X150550000Y-248400000D01*
X151110000Y-248400000D01*
X151560000Y-248390000D01*
X154476229Y-248394079D01*
X154441103Y-250332081D01*
X151576441Y-250350187D01*
X150740701Y-250353606D01*
X150021270Y-250352592D01*
X149420200Y-250347178D01*
X148939543Y-250337398D01*
X148581352Y-250323283D01*
X148347679Y-250304867D01*
X148298314Y-250297864D01*
X147760568Y-250145257D01*
X147285643Y-249887561D01*
X146884535Y-249535980D01*
X146568244Y-249101718D01*
X146347768Y-248595980D01*
X146258667Y-248219919D01*
X146235172Y-248010652D01*
X146215847Y-247713390D01*
X146202670Y-247367438D01*
X146197616Y-247012102D01*
X146197612Y-247005890D01*
X146197243Y-246162406D01*
X148161714Y-246162406D01*
X148182110Y-247147026D01*
G37*
G36*
X136393734Y-180911780D02*
G01*
X134420301Y-180911780D01*
X134420301Y-165824562D01*
X136393734Y-165824562D01*
X136393734Y-180911780D01*
G37*
G36*
X163692650Y-247324186D02*
G01*
X163684336Y-247739050D01*
X163674527Y-248049884D01*
X163660220Y-248279965D01*
X163638410Y-248452572D01*
X163606095Y-248590984D01*
X163560270Y-248718478D01*
X163497933Y-248858334D01*
X163493465Y-248867920D01*
X163209144Y-249331338D01*
X162829853Y-249724827D01*
X162375688Y-250032950D01*
X161866746Y-250240275D01*
X161635843Y-250294631D01*
X161470179Y-250312554D01*
X161184489Y-250328054D01*
X160786046Y-250340979D01*
X160282122Y-250351176D01*
X159679991Y-250358491D01*
X158986923Y-250362771D01*
X158344449Y-250363910D01*
X155427820Y-250363910D01*
X155427820Y-248390477D01*
X161360000Y-248390477D01*
X161510000Y-248320000D01*
X161620000Y-248210000D01*
X161676156Y-248099203D01*
X161703796Y-248002117D01*
X161719898Y-247855753D01*
X161727570Y-247637942D01*
X161729922Y-247326513D01*
X161730075Y-247120187D01*
X161730075Y-246162406D01*
X163713620Y-246162406D01*
X163692650Y-247324186D01*
G37*
G36*
X170721930Y-156404651D02*
G01*
X171362138Y-156405280D01*
X171888597Y-156406705D01*
X172314880Y-156409587D01*
X172654556Y-156414584D01*
X172921196Y-156422356D01*
X173128370Y-156433563D01*
X173289649Y-156448862D01*
X173418603Y-156468915D01*
X173528803Y-156494380D01*
X173633819Y-156525916D01*
X173704496Y-156549563D01*
X174255551Y-156793436D01*
X174708143Y-157114805D01*
X175059856Y-157511359D01*
X175308276Y-157980787D01*
X175362796Y-158137077D01*
X175389615Y-158231460D01*
X175412050Y-158335143D01*
X175430486Y-158459812D01*
X175445311Y-158617151D01*
X175456911Y-158818847D01*
X175465673Y-159076587D01*
X175471984Y-159402054D01*
X175476230Y-159806936D01*
X175478799Y-160302919D01*
X175480076Y-160901688D01*
X175480449Y-161614928D01*
X175480451Y-161692389D01*
X175480451Y-164869675D01*
X173507018Y-164869675D01*
X173507018Y-161750376D01*
X173506871Y-161039631D01*
X173506146Y-160445268D01*
X173504414Y-159956353D01*
X173501245Y-159561948D01*
X173496212Y-159251120D01*
X173488884Y-159012932D01*
X173478834Y-158836449D01*
X173465632Y-158710735D01*
X173448849Y-158624854D01*
X173428057Y-158567872D01*
X173402827Y-158528852D01*
X173379699Y-158503760D01*
X173343655Y-158471932D01*
X173297220Y-158445900D01*
X173228180Y-158425082D01*
X173124321Y-158408897D01*
X172973430Y-158396762D01*
X172763294Y-158388097D01*
X172481699Y-158382319D01*
X172116432Y-158378848D01*
X171655278Y-158377101D01*
X171086026Y-158376497D01*
X170706015Y-158376441D01*
X168159649Y-158376441D01*
X168159649Y-156403008D01*
X170721930Y-156404651D01*
G37*
G36*
X148170677Y-245143860D02*
G01*
X146197243Y-245143860D01*
X146197243Y-238586968D01*
X142759649Y-238586968D01*
X142759649Y-236613534D01*
X148170677Y-236613534D01*
X148170677Y-245143860D01*
G37*
G36*
X175480451Y-196953885D02*
G01*
X173507018Y-196953885D01*
X173507018Y-181930326D01*
X175480451Y-181930326D01*
X175480451Y-196953885D01*
G37*
G36*
X175448622Y-236709023D02*
G01*
X175264221Y-237108329D01*
X175036606Y-237484348D01*
X174721976Y-237843768D01*
X174355939Y-238152536D01*
X173974104Y-238376597D01*
X173909154Y-238404225D01*
X173815753Y-238440312D01*
X173724586Y-238470115D01*
X173622743Y-238494350D01*
X173497316Y-238513733D01*
X173335395Y-238528978D01*
X173124071Y-238540803D01*
X172850435Y-238549922D01*
X172501577Y-238557052D01*
X172064590Y-238562907D01*
X171526562Y-238568204D01*
X170874586Y-238573659D01*
X170849248Y-238573864D01*
X168159649Y-238595608D01*
X168159649Y-236617721D01*
X173180000Y-236590000D01*
X173280000Y-236560000D01*
X173390000Y-236460000D01*
X173436573Y-236341037D01*
X173455656Y-236267702D01*
X173470950Y-236160829D01*
X173482873Y-236009336D01*
X173491843Y-235802140D01*
X173498275Y-235528160D01*
X173502588Y-235176313D01*
X173505199Y-234735518D01*
X173506525Y-234194692D01*
X173506983Y-233542754D01*
X173507018Y-233200717D01*
X173507018Y-230120301D01*
X175484812Y-230120301D01*
X175448622Y-236709023D01*
G37*
G36*
X148170677Y-158376441D02*
G01*
X142759649Y-158376441D01*
X142759649Y-156403008D01*
X146197243Y-156403008D01*
X146197243Y-149782456D01*
X148170677Y-149782456D01*
X148170677Y-158376441D01*
G37*
G36*
X136393734Y-229101755D02*
G01*
X134420301Y-229101755D01*
X134420301Y-214014537D01*
X136393734Y-214014537D01*
X136393734Y-229101755D01*
G37*
G36*
X158435714Y-144631401D02*
G01*
X159245232Y-144634147D01*
X159933374Y-144639389D01*
X160506062Y-144647274D01*
X160969219Y-144657949D01*
X161328766Y-144671560D01*
X161590623Y-144688254D01*
X161760714Y-144708178D01*
X161793734Y-144714583D01*
X162328329Y-144892145D01*
X162782609Y-145168246D01*
X163154392Y-145540901D01*
X163441495Y-146008126D01*
X163571931Y-146332218D01*
X163623899Y-146505264D01*
X163660455Y-146683187D01*
X163684126Y-146893081D01*
X163697437Y-147162041D01*
X163702916Y-147517161D01*
X163703509Y-147743356D01*
X163703509Y-148763910D01*
X161730075Y-148763910D01*
X161728051Y-147824938D01*
X161724391Y-147420401D01*
X161711344Y-147123813D01*
X161682796Y-146915843D01*
X161632635Y-146777163D01*
X161554750Y-146688445D01*
X161443026Y-146630360D01*
X161339772Y-146597105D01*
X161228916Y-146583508D01*
X161003048Y-146571130D01*
X160674474Y-146560217D01*
X160255497Y-146551016D01*
X159758420Y-146543772D01*
X159195547Y-146538732D01*
X158579182Y-146536141D01*
X158276987Y-146535840D01*
X155427820Y-146535840D01*
X155427820Y-144626066D01*
X158435714Y-144631401D01*
G37*
G36*
X91393734Y-196953885D02*
G01*
X89420301Y-196953885D01*
X89420301Y-181930326D01*
X91393734Y-181930326D01*
X91393734Y-196953885D01*
G37*
G36*
X109472932Y-146531072D02*
G01*
X106482667Y-146549371D01*
X103492401Y-146567670D01*
X103347454Y-146712492D01*
X103291202Y-146776385D01*
X103250995Y-146852124D01*
X103223508Y-146961790D01*
X103205415Y-147127459D01*
X103193388Y-147371210D01*
X103184101Y-147715121D01*
X103182005Y-147810613D01*
X103161504Y-148763910D01*
X101197243Y-148763910D01*
X101197724Y-147952256D01*
X101215949Y-147290917D01*
X101274913Y-146737010D01*
X101382335Y-146275003D01*
X101545930Y-145889368D01*
X101773415Y-145564573D01*
X102072509Y-145285090D01*
X102450926Y-145035388D01*
X102717148Y-144894446D01*
X103195649Y-144657895D01*
X106334291Y-144639703D01*
X109472932Y-144621510D01*
X109472932Y-146531072D01*
G37*
G36*
X118703509Y-156403008D02*
G01*
X122141103Y-156403008D01*
X122141103Y-158376441D01*
X116730075Y-158376441D01*
X116730075Y-149782456D01*
X118703509Y-149782456D01*
X118703509Y-156403008D01*
G37*
G36*
X130480451Y-212995990D02*
G01*
X128507018Y-212995990D01*
X128507018Y-197972431D01*
X130480451Y-197972431D01*
X130480451Y-212995990D01*
G37*
G36*
X130480451Y-229101755D02*
G01*
X128507018Y-229101755D01*
X128507018Y-214014537D01*
X130480451Y-214014537D01*
X130480451Y-229101755D01*
G37*
G36*
X122141103Y-238586968D02*
G01*
X118703509Y-238586968D01*
X118703509Y-245143860D01*
X116730075Y-245143860D01*
X116730075Y-236613534D01*
X122141103Y-236613534D01*
X122141103Y-238586968D01*
G37*
G36*
X130480451Y-180911780D02*
G01*
X128507018Y-180911780D01*
X128507018Y-165824562D01*
X130480451Y-165824562D01*
X130480451Y-180911780D01*
G37*
G36*
X91393734Y-212995990D02*
G01*
X89420301Y-212995990D01*
X89420301Y-197972431D01*
X91393734Y-197972431D01*
X91393734Y-212995990D01*
G37*
G36*
X96741103Y-158376441D02*
G01*
X94208901Y-158376441D01*
X93562765Y-158376984D01*
X93032025Y-158378904D01*
X92604765Y-158382645D01*
X92269066Y-158388648D01*
X92013010Y-158397355D01*
X91824680Y-158409207D01*
X91692157Y-158424647D01*
X91603524Y-158444116D01*
X91510000Y-158468055D01*
X91420000Y-158570000D01*
X91393734Y-158680000D01*
X91393734Y-164869675D01*
X89420301Y-164869675D01*
X89420301Y-161796841D01*
X89420562Y-161086727D01*
X89421642Y-160491647D01*
X89423987Y-159999320D01*
X89428043Y-159597462D01*
X89434255Y-159273791D01*
X89443070Y-159016024D01*
X89454933Y-158811879D01*
X89470290Y-158649072D01*
X89489586Y-158515320D01*
X89513269Y-158398342D01*
X89541782Y-158285855D01*
X89548642Y-158260873D01*
X89694308Y-157833734D01*
X89881772Y-157486844D01*
X90131719Y-157196638D01*
X90464834Y-156939552D01*
X90901801Y-156692022D01*
X90944644Y-156670544D01*
X91418611Y-156434837D01*
X94079857Y-156415693D01*
X96741103Y-156396548D01*
X96741103Y-158376441D01*
G37*
G36*
X91393734Y-233200717D02*
G01*
X91393933Y-233907771D01*
X91394806Y-234498589D01*
X91396771Y-234984252D01*
X91400245Y-235375844D01*
X91405646Y-235684446D01*
X91413390Y-235921140D01*
X91423896Y-236097008D01*
X91437580Y-236223133D01*
X91454859Y-236310595D01*
X91476152Y-236370478D01*
X91540000Y-236470000D01*
X91640000Y-236550000D01*
X91790000Y-236600000D01*
X96741103Y-236617721D01*
X96741103Y-238586968D01*
X94337970Y-238586487D01*
X93744464Y-238584558D01*
X93187673Y-238579265D01*
X92683278Y-238570981D01*
X92246959Y-238560083D01*
X91894396Y-238546943D01*
X91641272Y-238531938D01*
X91523194Y-238519219D01*
X90987291Y-238370660D01*
X90510678Y-238111799D01*
X90101443Y-237748901D01*
X89767672Y-237288234D01*
X89653581Y-237070582D01*
X89452130Y-236645364D01*
X89433010Y-233382832D01*
X89413889Y-230120301D01*
X91393734Y-230120301D01*
X91393734Y-233200717D01*
G37*
G36*
X103182110Y-247147026D02*
G01*
X103191916Y-247531880D01*
X103204553Y-247809835D01*
X103222515Y-248001310D01*
X103248292Y-248126723D01*
X103284378Y-248206493D01*
X103316139Y-248245146D01*
X103349749Y-248271520D01*
X103400526Y-248293623D01*
X103450000Y-248340000D01*
X103550000Y-248360000D01*
X103680000Y-248370000D01*
X104240000Y-248390000D01*
X105130000Y-248390000D01*
X105550000Y-248400000D01*
X106110000Y-248400000D01*
X106560000Y-248390000D01*
X109476229Y-248394079D01*
X109441103Y-250332081D01*
X106576441Y-250350187D01*
X105740701Y-250353606D01*
X105021270Y-250352592D01*
X104420200Y-250347178D01*
X103939543Y-250337398D01*
X103581352Y-250323283D01*
X103347679Y-250304867D01*
X103298314Y-250297864D01*
X102760568Y-250145257D01*
X102285643Y-249887561D01*
X101884535Y-249535980D01*
X101568244Y-249101718D01*
X101347768Y-248595980D01*
X101258667Y-248219919D01*
X101235172Y-248010652D01*
X101215847Y-247713390D01*
X101202670Y-247367438D01*
X101197616Y-247012102D01*
X101197612Y-247005890D01*
X101197243Y-246162406D01*
X103161714Y-246162406D01*
X103182110Y-247147026D01*
G37*
G36*
X91393734Y-180911780D02*
G01*
X89420301Y-180911780D01*
X89420301Y-165824562D01*
X91393734Y-165824562D01*
X91393734Y-180911780D01*
G37*
G36*
X118692650Y-247324186D02*
G01*
X118684336Y-247739050D01*
X118674527Y-248049884D01*
X118660220Y-248279965D01*
X118638410Y-248452572D01*
X118606095Y-248590984D01*
X118560270Y-248718478D01*
X118497933Y-248858334D01*
X118493465Y-248867920D01*
X118209144Y-249331338D01*
X117829853Y-249724827D01*
X117375688Y-250032950D01*
X116866746Y-250240275D01*
X116635843Y-250294631D01*
X116470179Y-250312554D01*
X116184489Y-250328054D01*
X115786046Y-250340979D01*
X115282122Y-250351176D01*
X114679991Y-250358491D01*
X113986923Y-250362771D01*
X113344449Y-250363910D01*
X110427820Y-250363910D01*
X110427820Y-248390477D01*
X116360000Y-248390477D01*
X116510000Y-248320000D01*
X116620000Y-248210000D01*
X116676156Y-248099203D01*
X116703796Y-248002117D01*
X116719898Y-247855753D01*
X116727570Y-247637942D01*
X116729922Y-247326513D01*
X116730075Y-247120187D01*
X116730075Y-246162406D01*
X118713620Y-246162406D01*
X118692650Y-247324186D01*
G37*
G36*
X125721930Y-156404651D02*
G01*
X126362138Y-156405280D01*
X126888597Y-156406705D01*
X127314880Y-156409587D01*
X127654556Y-156414584D01*
X127921196Y-156422356D01*
X128128370Y-156433563D01*
X128289649Y-156448862D01*
X128418603Y-156468915D01*
X128528803Y-156494380D01*
X128633819Y-156525916D01*
X128704496Y-156549563D01*
X129255551Y-156793436D01*
X129708143Y-157114805D01*
X130059856Y-157511359D01*
X130308276Y-157980787D01*
X130362796Y-158137077D01*
X130389615Y-158231460D01*
X130412050Y-158335143D01*
X130430486Y-158459812D01*
X130445311Y-158617151D01*
X130456911Y-158818847D01*
X130465673Y-159076587D01*
X130471984Y-159402054D01*
X130476230Y-159806936D01*
X130478799Y-160302919D01*
X130480076Y-160901688D01*
X130480449Y-161614928D01*
X130480451Y-161692389D01*
X130480451Y-164869675D01*
X128507018Y-164869675D01*
X128507018Y-161750376D01*
X128506871Y-161039631D01*
X128506146Y-160445268D01*
X128504414Y-159956353D01*
X128501245Y-159561948D01*
X128496212Y-159251120D01*
X128488884Y-159012932D01*
X128478834Y-158836449D01*
X128465632Y-158710735D01*
X128448849Y-158624854D01*
X128428057Y-158567872D01*
X128402827Y-158528852D01*
X128379699Y-158503760D01*
X128343655Y-158471932D01*
X128297220Y-158445900D01*
X128228180Y-158425082D01*
X128124321Y-158408897D01*
X127973430Y-158396762D01*
X127763294Y-158388097D01*
X127481699Y-158382319D01*
X127116432Y-158378848D01*
X126655278Y-158377101D01*
X126086026Y-158376497D01*
X125706015Y-158376441D01*
X123159649Y-158376441D01*
X123159649Y-156403008D01*
X125721930Y-156404651D01*
G37*
G36*
X103170677Y-245143860D02*
G01*
X101197243Y-245143860D01*
X101197243Y-238586968D01*
X97759649Y-238586968D01*
X97759649Y-236613534D01*
X103170677Y-236613534D01*
X103170677Y-245143860D01*
G37*
G36*
X130480451Y-196953885D02*
G01*
X128507018Y-196953885D01*
X128507018Y-181930326D01*
X130480451Y-181930326D01*
X130480451Y-196953885D01*
G37*
G36*
X130448622Y-236709023D02*
G01*
X130264221Y-237108329D01*
X130036606Y-237484348D01*
X129721976Y-237843768D01*
X129355939Y-238152536D01*
X128974104Y-238376597D01*
X128909154Y-238404225D01*
X128815753Y-238440312D01*
X128724586Y-238470115D01*
X128622743Y-238494350D01*
X128497316Y-238513733D01*
X128335395Y-238528978D01*
X128124071Y-238540803D01*
X127850435Y-238549922D01*
X127501577Y-238557052D01*
X127064590Y-238562907D01*
X126526562Y-238568204D01*
X125874586Y-238573659D01*
X125849248Y-238573864D01*
X123159649Y-238595608D01*
X123159649Y-236617721D01*
X128180000Y-236590000D01*
X128280000Y-236560000D01*
X128390000Y-236460000D01*
X128436573Y-236341037D01*
X128455656Y-236267702D01*
X128470950Y-236160829D01*
X128482873Y-236009336D01*
X128491843Y-235802140D01*
X128498275Y-235528160D01*
X128502588Y-235176313D01*
X128505199Y-234735518D01*
X128506525Y-234194692D01*
X128506983Y-233542754D01*
X128507018Y-233200717D01*
X128507018Y-230120301D01*
X130484812Y-230120301D01*
X130448622Y-236709023D01*
G37*
G36*
X103170677Y-158376441D02*
G01*
X97759649Y-158376441D01*
X97759649Y-156403008D01*
X101197243Y-156403008D01*
X101197243Y-149782456D01*
X103170677Y-149782456D01*
X103170677Y-158376441D01*
G37*
G36*
X91393734Y-229101755D02*
G01*
X89420301Y-229101755D01*
X89420301Y-214014537D01*
X91393734Y-214014537D01*
X91393734Y-229101755D01*
G37*
G36*
X113435714Y-144631401D02*
G01*
X114245232Y-144634147D01*
X114933374Y-144639389D01*
X115506062Y-144647274D01*
X115969219Y-144657949D01*
X116328766Y-144671560D01*
X116590623Y-144688254D01*
X116760714Y-144708178D01*
X116793734Y-144714583D01*
X117328329Y-144892145D01*
X117782609Y-145168246D01*
X118154392Y-145540901D01*
X118441495Y-146008126D01*
X118571931Y-146332218D01*
X118623899Y-146505264D01*
X118660455Y-146683187D01*
X118684126Y-146893081D01*
X118697437Y-147162041D01*
X118702916Y-147517161D01*
X118703509Y-147743356D01*
X118703509Y-148763910D01*
X116730075Y-148763910D01*
X116728051Y-147824938D01*
X116724391Y-147420401D01*
X116711344Y-147123813D01*
X116682796Y-146915843D01*
X116632635Y-146777163D01*
X116554750Y-146688445D01*
X116443026Y-146630360D01*
X116339772Y-146597105D01*
X116228916Y-146583508D01*
X116003048Y-146571130D01*
X115674474Y-146560217D01*
X115255497Y-146551016D01*
X114758420Y-146543772D01*
X114195547Y-146538732D01*
X113579182Y-146536141D01*
X113276987Y-146535840D01*
X110427820Y-146535840D01*
X110427820Y-144626066D01*
X113435714Y-144631401D01*
G37*
G36*
X181393734Y-196953885D02*
G01*
X179420301Y-196953885D01*
X179420301Y-181930326D01*
X181393734Y-181930326D01*
X181393734Y-196953885D01*
G37*
G36*
X199472932Y-146531072D02*
G01*
X196482667Y-146549371D01*
X193492401Y-146567670D01*
X193347454Y-146712492D01*
X193291202Y-146776385D01*
X193250995Y-146852124D01*
X193223508Y-146961790D01*
X193205415Y-147127459D01*
X193193388Y-147371210D01*
X193184101Y-147715121D01*
X193182005Y-147810613D01*
X193161504Y-148763910D01*
X191197243Y-148763910D01*
X191197724Y-147952256D01*
X191215949Y-147290917D01*
X191274913Y-146737010D01*
X191382335Y-146275003D01*
X191545930Y-145889368D01*
X191773415Y-145564573D01*
X192072509Y-145285090D01*
X192450926Y-145035388D01*
X192717148Y-144894446D01*
X193195649Y-144657895D01*
X196334291Y-144639703D01*
X199472932Y-144621510D01*
X199472932Y-146531072D01*
G37*
G36*
X208703509Y-156403008D02*
G01*
X212141103Y-156403008D01*
X212141103Y-158376441D01*
X206730075Y-158376441D01*
X206730075Y-149782456D01*
X208703509Y-149782456D01*
X208703509Y-156403008D01*
G37*
G36*
X220480451Y-212995990D02*
G01*
X218507018Y-212995990D01*
X218507018Y-197972431D01*
X220480451Y-197972431D01*
X220480451Y-212995990D01*
G37*
G36*
X220480451Y-229101755D02*
G01*
X218507018Y-229101755D01*
X218507018Y-214014537D01*
X220480451Y-214014537D01*
X220480451Y-229101755D01*
G37*
G36*
X212141103Y-238586968D02*
G01*
X208703509Y-238586968D01*
X208703509Y-245143860D01*
X206730075Y-245143860D01*
X206730075Y-236613534D01*
X212141103Y-236613534D01*
X212141103Y-238586968D01*
G37*
G36*
X220480451Y-180911780D02*
G01*
X218507018Y-180911780D01*
X218507018Y-165824562D01*
X220480451Y-165824562D01*
X220480451Y-180911780D01*
G37*
G36*
X181393734Y-212995990D02*
G01*
X179420301Y-212995990D01*
X179420301Y-197972431D01*
X181393734Y-197972431D01*
X181393734Y-212995990D01*
G37*
G36*
X186741103Y-158376441D02*
G01*
X184208901Y-158376441D01*
X183562765Y-158376984D01*
X183032025Y-158378904D01*
X182604765Y-158382645D01*
X182269066Y-158388648D01*
X182013010Y-158397355D01*
X181824680Y-158409207D01*
X181692157Y-158424647D01*
X181603524Y-158444116D01*
X181510000Y-158468055D01*
X181420000Y-158570000D01*
X181393734Y-158680000D01*
X181393734Y-164869675D01*
X179420301Y-164869675D01*
X179420301Y-161796841D01*
X179420562Y-161086727D01*
X179421642Y-160491647D01*
X179423987Y-159999320D01*
X179428043Y-159597462D01*
X179434255Y-159273791D01*
X179443070Y-159016024D01*
X179454933Y-158811879D01*
X179470290Y-158649072D01*
X179489586Y-158515320D01*
X179513269Y-158398342D01*
X179541782Y-158285855D01*
X179548642Y-158260873D01*
X179694308Y-157833734D01*
X179881772Y-157486844D01*
X180131719Y-157196638D01*
X180464834Y-156939552D01*
X180901801Y-156692022D01*
X180944644Y-156670544D01*
X181418611Y-156434837D01*
X184079857Y-156415693D01*
X186741103Y-156396548D01*
X186741103Y-158376441D01*
G37*
G36*
X181393734Y-233200717D02*
G01*
X181393933Y-233907771D01*
X181394806Y-234498589D01*
X181396771Y-234984252D01*
X181400245Y-235375844D01*
X181405646Y-235684446D01*
X181413390Y-235921140D01*
X181423896Y-236097008D01*
X181437580Y-236223133D01*
X181454859Y-236310595D01*
X181476152Y-236370478D01*
X181540000Y-236470000D01*
X181640000Y-236550000D01*
X181790000Y-236600000D01*
X186741103Y-236617721D01*
X186741103Y-238586968D01*
X184337970Y-238586487D01*
X183744464Y-238584558D01*
X183187673Y-238579265D01*
X182683278Y-238570981D01*
X182246959Y-238560083D01*
X181894396Y-238546943D01*
X181641272Y-238531938D01*
X181523194Y-238519219D01*
X180987291Y-238370660D01*
X180510678Y-238111799D01*
X180101443Y-237748901D01*
X179767672Y-237288234D01*
X179653581Y-237070582D01*
X179452130Y-236645364D01*
X179433010Y-233382832D01*
X179413889Y-230120301D01*
X181393734Y-230120301D01*
X181393734Y-233200717D01*
G37*
G36*
X193182110Y-247147026D02*
G01*
X193191916Y-247531880D01*
X193204553Y-247809835D01*
X193222515Y-248001310D01*
X193248292Y-248126723D01*
X193284378Y-248206493D01*
X193316139Y-248245146D01*
X193349749Y-248271520D01*
X193400526Y-248293623D01*
X193450000Y-248340000D01*
X193550000Y-248360000D01*
X193680000Y-248370000D01*
X194240000Y-248390000D01*
X195130000Y-248390000D01*
X195550000Y-248400000D01*
X196110000Y-248400000D01*
X196560000Y-248390000D01*
X199476229Y-248394079D01*
X199441103Y-250332081D01*
X196576441Y-250350187D01*
X195740701Y-250353606D01*
X195021270Y-250352592D01*
X194420200Y-250347178D01*
X193939543Y-250337398D01*
X193581352Y-250323283D01*
X193347679Y-250304867D01*
X193298314Y-250297864D01*
X192760568Y-250145257D01*
X192285643Y-249887561D01*
X191884535Y-249535980D01*
X191568244Y-249101718D01*
X191347768Y-248595980D01*
X191258667Y-248219919D01*
X191235172Y-248010652D01*
X191215847Y-247713390D01*
X191202670Y-247367438D01*
X191197616Y-247012102D01*
X191197612Y-247005890D01*
X191197243Y-246162406D01*
X193161714Y-246162406D01*
X193182110Y-247147026D01*
G37*
G36*
X181393734Y-180911780D02*
G01*
X179420301Y-180911780D01*
X179420301Y-165824562D01*
X181393734Y-165824562D01*
X181393734Y-180911780D01*
G37*
G36*
X208692650Y-247324186D02*
G01*
X208684336Y-247739050D01*
X208674527Y-248049884D01*
X208660220Y-248279965D01*
X208638410Y-248452572D01*
X208606095Y-248590984D01*
X208560270Y-248718478D01*
X208497933Y-248858334D01*
X208493465Y-248867920D01*
X208209144Y-249331338D01*
X207829853Y-249724827D01*
X207375688Y-250032950D01*
X206866746Y-250240275D01*
X206635843Y-250294631D01*
X206470179Y-250312554D01*
X206184489Y-250328054D01*
X205786046Y-250340979D01*
X205282122Y-250351176D01*
X204679991Y-250358491D01*
X203986923Y-250362771D01*
X203344449Y-250363910D01*
X200427820Y-250363910D01*
X200427820Y-248390477D01*
X206360000Y-248390477D01*
X206510000Y-248320000D01*
X206620000Y-248210000D01*
X206676156Y-248099203D01*
X206703796Y-248002117D01*
X206719898Y-247855753D01*
X206727570Y-247637942D01*
X206729922Y-247326513D01*
X206730075Y-247120187D01*
X206730075Y-246162406D01*
X208713620Y-246162406D01*
X208692650Y-247324186D01*
G37*
G36*
X215721930Y-156404651D02*
G01*
X216362138Y-156405280D01*
X216888597Y-156406705D01*
X217314880Y-156409587D01*
X217654556Y-156414584D01*
X217921196Y-156422356D01*
X218128370Y-156433563D01*
X218289649Y-156448862D01*
X218418603Y-156468915D01*
X218528803Y-156494380D01*
X218633819Y-156525916D01*
X218704496Y-156549563D01*
X219255551Y-156793436D01*
X219708143Y-157114805D01*
X220059856Y-157511359D01*
X220308276Y-157980787D01*
X220362796Y-158137077D01*
X220389615Y-158231460D01*
X220412050Y-158335143D01*
X220430486Y-158459812D01*
X220445311Y-158617151D01*
X220456911Y-158818847D01*
X220465673Y-159076587D01*
X220471984Y-159402054D01*
X220476230Y-159806936D01*
X220478799Y-160302919D01*
X220480076Y-160901688D01*
X220480449Y-161614928D01*
X220480451Y-161692389D01*
X220480451Y-164869675D01*
X218507018Y-164869675D01*
X218507018Y-161750376D01*
X218506871Y-161039631D01*
X218506146Y-160445268D01*
X218504414Y-159956353D01*
X218501245Y-159561948D01*
X218496212Y-159251120D01*
X218488884Y-159012932D01*
X218478834Y-158836449D01*
X218465632Y-158710735D01*
X218448849Y-158624854D01*
X218428057Y-158567872D01*
X218402827Y-158528852D01*
X218379699Y-158503760D01*
X218343655Y-158471932D01*
X218297220Y-158445900D01*
X218228180Y-158425082D01*
X218124321Y-158408897D01*
X217973430Y-158396762D01*
X217763294Y-158388097D01*
X217481699Y-158382319D01*
X217116432Y-158378848D01*
X216655278Y-158377101D01*
X216086026Y-158376497D01*
X215706015Y-158376441D01*
X213159649Y-158376441D01*
X213159649Y-156403008D01*
X215721930Y-156404651D01*
G37*
G36*
X193170677Y-245143860D02*
G01*
X191197243Y-245143860D01*
X191197243Y-238586968D01*
X187759649Y-238586968D01*
X187759649Y-236613534D01*
X193170677Y-236613534D01*
X193170677Y-245143860D01*
G37*
G36*
X220480451Y-196953885D02*
G01*
X218507018Y-196953885D01*
X218507018Y-181930326D01*
X220480451Y-181930326D01*
X220480451Y-196953885D01*
G37*
G36*
X220448622Y-236709023D02*
G01*
X220264221Y-237108329D01*
X220036606Y-237484348D01*
X219721976Y-237843768D01*
X219355939Y-238152536D01*
X218974104Y-238376597D01*
X218909154Y-238404225D01*
X218815753Y-238440312D01*
X218724586Y-238470115D01*
X218622743Y-238494350D01*
X218497316Y-238513733D01*
X218335395Y-238528978D01*
X218124071Y-238540803D01*
X217850435Y-238549922D01*
X217501577Y-238557052D01*
X217064590Y-238562907D01*
X216526562Y-238568204D01*
X215874586Y-238573659D01*
X215849248Y-238573864D01*
X213159649Y-238595608D01*
X213159649Y-236617721D01*
X218180000Y-236590000D01*
X218280000Y-236560000D01*
X218390000Y-236460000D01*
X218436573Y-236341037D01*
X218455656Y-236267702D01*
X218470950Y-236160829D01*
X218482873Y-236009336D01*
X218491843Y-235802140D01*
X218498275Y-235528160D01*
X218502588Y-235176313D01*
X218505199Y-234735518D01*
X218506525Y-234194692D01*
X218506983Y-233542754D01*
X218507018Y-233200717D01*
X218507018Y-230120301D01*
X220484812Y-230120301D01*
X220448622Y-236709023D01*
G37*
G36*
X193170677Y-158376441D02*
G01*
X187759649Y-158376441D01*
X187759649Y-156403008D01*
X191197243Y-156403008D01*
X191197243Y-149782456D01*
X193170677Y-149782456D01*
X193170677Y-158376441D01*
G37*
G36*
X181393734Y-229101755D02*
G01*
X179420301Y-229101755D01*
X179420301Y-214014537D01*
X181393734Y-214014537D01*
X181393734Y-229101755D01*
G37*
G36*
X203435714Y-144631401D02*
G01*
X204245232Y-144634147D01*
X204933374Y-144639389D01*
X205506062Y-144647274D01*
X205969219Y-144657949D01*
X206328766Y-144671560D01*
X206590623Y-144688254D01*
X206760714Y-144708178D01*
X206793734Y-144714583D01*
X207328329Y-144892145D01*
X207782609Y-145168246D01*
X208154392Y-145540901D01*
X208441495Y-146008126D01*
X208571931Y-146332218D01*
X208623899Y-146505264D01*
X208660455Y-146683187D01*
X208684126Y-146893081D01*
X208697437Y-147162041D01*
X208702916Y-147517161D01*
X208703509Y-147743356D01*
X208703509Y-148763910D01*
X206730075Y-148763910D01*
X206728051Y-147824938D01*
X206724391Y-147420401D01*
X206711344Y-147123813D01*
X206682796Y-146915843D01*
X206632635Y-146777163D01*
X206554750Y-146688445D01*
X206443026Y-146630360D01*
X206339772Y-146597105D01*
X206228916Y-146583508D01*
X206003048Y-146571130D01*
X205674474Y-146560217D01*
X205255497Y-146551016D01*
X204758420Y-146543772D01*
X204195547Y-146538732D01*
X203579182Y-146536141D01*
X203276987Y-146535840D01*
X200427820Y-146535840D01*
X200427820Y-144626066D01*
X203435714Y-144631401D01*
G37*
G36*
X181393734Y-84453885D02*
G01*
X179420301Y-84453885D01*
X179420301Y-69430326D01*
X181393734Y-69430326D01*
X181393734Y-84453885D01*
G37*
G36*
X199472932Y-34031072D02*
G01*
X196482667Y-34049371D01*
X193492401Y-34067670D01*
X193347454Y-34212492D01*
X193291202Y-34276385D01*
X193250995Y-34352124D01*
X193223508Y-34461790D01*
X193205415Y-34627459D01*
X193193388Y-34871210D01*
X193184101Y-35215121D01*
X193182005Y-35310613D01*
X193161504Y-36263910D01*
X191197243Y-36263910D01*
X191197724Y-35452256D01*
X191215949Y-34790917D01*
X191274913Y-34237010D01*
X191382335Y-33775003D01*
X191545930Y-33389368D01*
X191773415Y-33064573D01*
X192072509Y-32785090D01*
X192450926Y-32535388D01*
X192717148Y-32394446D01*
X193195649Y-32157895D01*
X196334291Y-32139703D01*
X199472932Y-32121510D01*
X199472932Y-34031072D01*
G37*
G36*
X208703509Y-43903008D02*
G01*
X212141103Y-43903008D01*
X212141103Y-45876441D01*
X206730075Y-45876441D01*
X206730075Y-37282456D01*
X208703509Y-37282456D01*
X208703509Y-43903008D01*
G37*
G36*
X220480451Y-100495990D02*
G01*
X218507018Y-100495990D01*
X218507018Y-85472431D01*
X220480451Y-85472431D01*
X220480451Y-100495990D01*
G37*
G36*
X220480451Y-116601755D02*
G01*
X218507018Y-116601755D01*
X218507018Y-101514537D01*
X220480451Y-101514537D01*
X220480451Y-116601755D01*
G37*
G36*
X212141103Y-126086968D02*
G01*
X208703509Y-126086968D01*
X208703509Y-132643860D01*
X206730075Y-132643860D01*
X206730075Y-124113534D01*
X212141103Y-124113534D01*
X212141103Y-126086968D01*
G37*
G36*
X220480451Y-68411780D02*
G01*
X218507018Y-68411780D01*
X218507018Y-53324562D01*
X220480451Y-53324562D01*
X220480451Y-68411780D01*
G37*
G36*
X181393734Y-100495990D02*
G01*
X179420301Y-100495990D01*
X179420301Y-85472431D01*
X181393734Y-85472431D01*
X181393734Y-100495990D01*
G37*
G36*
X186741103Y-45876441D02*
G01*
X184208901Y-45876441D01*
X183562765Y-45876984D01*
X183032025Y-45878904D01*
X182604765Y-45882645D01*
X182269066Y-45888648D01*
X182013010Y-45897355D01*
X181824680Y-45909207D01*
X181692157Y-45924647D01*
X181603524Y-45944116D01*
X181510000Y-45968055D01*
X181420000Y-46070000D01*
X181393734Y-46180000D01*
X181393734Y-52369675D01*
X179420301Y-52369675D01*
X179420301Y-49296841D01*
X179420562Y-48586727D01*
X179421642Y-47991647D01*
X179423987Y-47499320D01*
X179428043Y-47097462D01*
X179434255Y-46773791D01*
X179443070Y-46516024D01*
X179454933Y-46311879D01*
X179470290Y-46149072D01*
X179489586Y-46015320D01*
X179513269Y-45898342D01*
X179541782Y-45785855D01*
X179548642Y-45760873D01*
X179694308Y-45333734D01*
X179881772Y-44986844D01*
X180131719Y-44696638D01*
X180464834Y-44439552D01*
X180901801Y-44192022D01*
X180944644Y-44170544D01*
X181418611Y-43934837D01*
X184079857Y-43915693D01*
X186741103Y-43896548D01*
X186741103Y-45876441D01*
G37*
G36*
X181393734Y-120700717D02*
G01*
X181393933Y-121407771D01*
X181394806Y-121998589D01*
X181396771Y-122484252D01*
X181400245Y-122875844D01*
X181405646Y-123184446D01*
X181413390Y-123421140D01*
X181423896Y-123597008D01*
X181437580Y-123723133D01*
X181454859Y-123810595D01*
X181476152Y-123870478D01*
X181540000Y-123970000D01*
X181640000Y-124050000D01*
X181790000Y-124100000D01*
X186741103Y-124117721D01*
X186741103Y-126086968D01*
X184337970Y-126086487D01*
X183744464Y-126084558D01*
X183187673Y-126079265D01*
X182683278Y-126070981D01*
X182246959Y-126060083D01*
X181894396Y-126046943D01*
X181641272Y-126031938D01*
X181523194Y-126019219D01*
X180987291Y-125870660D01*
X180510678Y-125611799D01*
X180101443Y-125248901D01*
X179767672Y-124788234D01*
X179653581Y-124570582D01*
X179452130Y-124145364D01*
X179433010Y-120882832D01*
X179413889Y-117620301D01*
X181393734Y-117620301D01*
X181393734Y-120700717D01*
G37*
G36*
X193182110Y-134647026D02*
G01*
X193191916Y-135031880D01*
X193204553Y-135309835D01*
X193222515Y-135501310D01*
X193248292Y-135626723D01*
X193284378Y-135706493D01*
X193316139Y-135745146D01*
X193349749Y-135771520D01*
X193400526Y-135793623D01*
X193450000Y-135840000D01*
X193550000Y-135860000D01*
X193680000Y-135870000D01*
X194240000Y-135890000D01*
X195130000Y-135890000D01*
X195550000Y-135900000D01*
X196110000Y-135900000D01*
X196560000Y-135890000D01*
X199476229Y-135894079D01*
X199441103Y-137832081D01*
X196576441Y-137850187D01*
X195740701Y-137853606D01*
X195021270Y-137852592D01*
X194420200Y-137847178D01*
X193939543Y-137837398D01*
X193581352Y-137823283D01*
X193347679Y-137804867D01*
X193298314Y-137797864D01*
X192760568Y-137645257D01*
X192285643Y-137387561D01*
X191884535Y-137035980D01*
X191568244Y-136601718D01*
X191347768Y-136095980D01*
X191258667Y-135719919D01*
X191235172Y-135510652D01*
X191215847Y-135213390D01*
X191202670Y-134867438D01*
X191197616Y-134512102D01*
X191197612Y-134505890D01*
X191197243Y-133662406D01*
X193161714Y-133662406D01*
X193182110Y-134647026D01*
G37*
G36*
X181393734Y-68411780D02*
G01*
X179420301Y-68411780D01*
X179420301Y-53324562D01*
X181393734Y-53324562D01*
X181393734Y-68411780D01*
G37*
G36*
X208692650Y-134824186D02*
G01*
X208684336Y-135239050D01*
X208674527Y-135549884D01*
X208660220Y-135779965D01*
X208638410Y-135952572D01*
X208606095Y-136090984D01*
X208560270Y-136218478D01*
X208497933Y-136358334D01*
X208493465Y-136367920D01*
X208209144Y-136831338D01*
X207829853Y-137224827D01*
X207375688Y-137532950D01*
X206866746Y-137740275D01*
X206635843Y-137794631D01*
X206470179Y-137812554D01*
X206184489Y-137828054D01*
X205786046Y-137840979D01*
X205282122Y-137851176D01*
X204679991Y-137858491D01*
X203986923Y-137862771D01*
X203344449Y-137863910D01*
X200427820Y-137863910D01*
X200427820Y-135890477D01*
X206360000Y-135890477D01*
X206510000Y-135820000D01*
X206620000Y-135710000D01*
X206676156Y-135599203D01*
X206703796Y-135502117D01*
X206719898Y-135355753D01*
X206727570Y-135137942D01*
X206729922Y-134826513D01*
X206730075Y-134620187D01*
X206730075Y-133662406D01*
X208713620Y-133662406D01*
X208692650Y-134824186D01*
G37*
G36*
X215721930Y-43904651D02*
G01*
X216362138Y-43905280D01*
X216888597Y-43906705D01*
X217314880Y-43909587D01*
X217654556Y-43914584D01*
X217921196Y-43922356D01*
X218128370Y-43933563D01*
X218289649Y-43948862D01*
X218418603Y-43968915D01*
X218528803Y-43994380D01*
X218633819Y-44025916D01*
X218704496Y-44049563D01*
X219255551Y-44293436D01*
X219708143Y-44614805D01*
X220059856Y-45011359D01*
X220308276Y-45480787D01*
X220362796Y-45637077D01*
X220389615Y-45731460D01*
X220412050Y-45835143D01*
X220430486Y-45959812D01*
X220445311Y-46117151D01*
X220456911Y-46318847D01*
X220465673Y-46576587D01*
X220471984Y-46902054D01*
X220476230Y-47306936D01*
X220478799Y-47802919D01*
X220480076Y-48401688D01*
X220480449Y-49114928D01*
X220480451Y-49192389D01*
X220480451Y-52369675D01*
X218507018Y-52369675D01*
X218507018Y-49250376D01*
X218506871Y-48539631D01*
X218506146Y-47945268D01*
X218504414Y-47456353D01*
X218501245Y-47061948D01*
X218496212Y-46751120D01*
X218488884Y-46512932D01*
X218478834Y-46336449D01*
X218465632Y-46210735D01*
X218448849Y-46124854D01*
X218428057Y-46067872D01*
X218402827Y-46028852D01*
X218379699Y-46003760D01*
X218343655Y-45971932D01*
X218297220Y-45945900D01*
X218228180Y-45925082D01*
X218124321Y-45908897D01*
X217973430Y-45896762D01*
X217763294Y-45888097D01*
X217481699Y-45882319D01*
X217116432Y-45878848D01*
X216655278Y-45877101D01*
X216086026Y-45876497D01*
X215706015Y-45876441D01*
X213159649Y-45876441D01*
X213159649Y-43903008D01*
X215721930Y-43904651D01*
G37*
G36*
X193170677Y-132643860D02*
G01*
X191197243Y-132643860D01*
X191197243Y-126086968D01*
X187759649Y-126086968D01*
X187759649Y-124113534D01*
X193170677Y-124113534D01*
X193170677Y-132643860D01*
G37*
G36*
X220480451Y-84453885D02*
G01*
X218507018Y-84453885D01*
X218507018Y-69430326D01*
X220480451Y-69430326D01*
X220480451Y-84453885D01*
G37*
G36*
X220448622Y-124209023D02*
G01*
X220264221Y-124608329D01*
X220036606Y-124984348D01*
X219721976Y-125343768D01*
X219355939Y-125652536D01*
X218974104Y-125876597D01*
X218909154Y-125904225D01*
X218815753Y-125940312D01*
X218724586Y-125970115D01*
X218622743Y-125994350D01*
X218497316Y-126013733D01*
X218335395Y-126028978D01*
X218124071Y-126040803D01*
X217850435Y-126049922D01*
X217501577Y-126057052D01*
X217064590Y-126062907D01*
X216526562Y-126068204D01*
X215874586Y-126073659D01*
X215849248Y-126073864D01*
X213159649Y-126095608D01*
X213159649Y-124117721D01*
X218180000Y-124090000D01*
X218280000Y-124060000D01*
X218390000Y-123960000D01*
X218436573Y-123841037D01*
X218455656Y-123767702D01*
X218470950Y-123660829D01*
X218482873Y-123509336D01*
X218491843Y-123302140D01*
X218498275Y-123028160D01*
X218502588Y-122676313D01*
X218505199Y-122235518D01*
X218506525Y-121694692D01*
X218506983Y-121042754D01*
X218507018Y-120700717D01*
X218507018Y-117620301D01*
X220484812Y-117620301D01*
X220448622Y-124209023D01*
G37*
G36*
X193170677Y-45876441D02*
G01*
X187759649Y-45876441D01*
X187759649Y-43903008D01*
X191197243Y-43903008D01*
X191197243Y-37282456D01*
X193170677Y-37282456D01*
X193170677Y-45876441D01*
G37*
G36*
X181393734Y-116601755D02*
G01*
X179420301Y-116601755D01*
X179420301Y-101514537D01*
X181393734Y-101514537D01*
X181393734Y-116601755D01*
G37*
G36*
X203435714Y-32131401D02*
G01*
X204245232Y-32134147D01*
X204933374Y-32139389D01*
X205506062Y-32147274D01*
X205969219Y-32157949D01*
X206328766Y-32171560D01*
X206590623Y-32188254D01*
X206760714Y-32208178D01*
X206793734Y-32214583D01*
X207328329Y-32392145D01*
X207782609Y-32668246D01*
X208154392Y-33040901D01*
X208441495Y-33508126D01*
X208571931Y-33832218D01*
X208623899Y-34005264D01*
X208660455Y-34183187D01*
X208684126Y-34393081D01*
X208697437Y-34662041D01*
X208702916Y-35017161D01*
X208703509Y-35243356D01*
X208703509Y-36263910D01*
X206730075Y-36263910D01*
X206728051Y-35324938D01*
X206724391Y-34920401D01*
X206711344Y-34623813D01*
X206682796Y-34415843D01*
X206632635Y-34277163D01*
X206554750Y-34188445D01*
X206443026Y-34130360D01*
X206339772Y-34097105D01*
X206228916Y-34083508D01*
X206003048Y-34071130D01*
X205674474Y-34060217D01*
X205255497Y-34051016D01*
X204758420Y-34043772D01*
X204195547Y-34038732D01*
X203579182Y-34036141D01*
X203276987Y-34035840D01*
X200427820Y-34035840D01*
X200427820Y-32126066D01*
X203435714Y-32131401D01*
G37*
G36*
X136393734Y-84453885D02*
G01*
X134420301Y-84453885D01*
X134420301Y-69430326D01*
X136393734Y-69430326D01*
X136393734Y-84453885D01*
G37*
G36*
X154472932Y-34031072D02*
G01*
X151482667Y-34049371D01*
X148492401Y-34067670D01*
X148347454Y-34212492D01*
X148291202Y-34276385D01*
X148250995Y-34352124D01*
X148223508Y-34461790D01*
X148205415Y-34627459D01*
X148193388Y-34871210D01*
X148184101Y-35215121D01*
X148182005Y-35310613D01*
X148161504Y-36263910D01*
X146197243Y-36263910D01*
X146197724Y-35452256D01*
X146215949Y-34790917D01*
X146274913Y-34237010D01*
X146382335Y-33775003D01*
X146545930Y-33389368D01*
X146773415Y-33064573D01*
X147072509Y-32785090D01*
X147450926Y-32535388D01*
X147717148Y-32394446D01*
X148195649Y-32157895D01*
X151334291Y-32139703D01*
X154472932Y-32121510D01*
X154472932Y-34031072D01*
G37*
G36*
X163703509Y-43903008D02*
G01*
X167141103Y-43903008D01*
X167141103Y-45876441D01*
X161730075Y-45876441D01*
X161730075Y-37282456D01*
X163703509Y-37282456D01*
X163703509Y-43903008D01*
G37*
G36*
X175480451Y-100495990D02*
G01*
X173507018Y-100495990D01*
X173507018Y-85472431D01*
X175480451Y-85472431D01*
X175480451Y-100495990D01*
G37*
G36*
X175480451Y-116601755D02*
G01*
X173507018Y-116601755D01*
X173507018Y-101514537D01*
X175480451Y-101514537D01*
X175480451Y-116601755D01*
G37*
G36*
X167141103Y-126086968D02*
G01*
X163703509Y-126086968D01*
X163703509Y-132643860D01*
X161730075Y-132643860D01*
X161730075Y-124113534D01*
X167141103Y-124113534D01*
X167141103Y-126086968D01*
G37*
G36*
X175480451Y-68411780D02*
G01*
X173507018Y-68411780D01*
X173507018Y-53324562D01*
X175480451Y-53324562D01*
X175480451Y-68411780D01*
G37*
G36*
X136393734Y-100495990D02*
G01*
X134420301Y-100495990D01*
X134420301Y-85472431D01*
X136393734Y-85472431D01*
X136393734Y-100495990D01*
G37*
G36*
X141741103Y-45876441D02*
G01*
X139208901Y-45876441D01*
X138562765Y-45876984D01*
X138032025Y-45878904D01*
X137604765Y-45882645D01*
X137269066Y-45888648D01*
X137013010Y-45897355D01*
X136824680Y-45909207D01*
X136692157Y-45924647D01*
X136603524Y-45944116D01*
X136510000Y-45968055D01*
X136420000Y-46070000D01*
X136393734Y-46180000D01*
X136393734Y-52369675D01*
X134420301Y-52369675D01*
X134420301Y-49296841D01*
X134420562Y-48586727D01*
X134421642Y-47991647D01*
X134423987Y-47499320D01*
X134428043Y-47097462D01*
X134434255Y-46773791D01*
X134443070Y-46516024D01*
X134454933Y-46311879D01*
X134470290Y-46149072D01*
X134489586Y-46015320D01*
X134513269Y-45898342D01*
X134541782Y-45785855D01*
X134548642Y-45760873D01*
X134694308Y-45333734D01*
X134881772Y-44986844D01*
X135131719Y-44696638D01*
X135464834Y-44439552D01*
X135901801Y-44192022D01*
X135944644Y-44170544D01*
X136418611Y-43934837D01*
X139079857Y-43915693D01*
X141741103Y-43896548D01*
X141741103Y-45876441D01*
G37*
G36*
X136393734Y-120700717D02*
G01*
X136393933Y-121407771D01*
X136394806Y-121998589D01*
X136396771Y-122484252D01*
X136400245Y-122875844D01*
X136405646Y-123184446D01*
X136413390Y-123421140D01*
X136423896Y-123597008D01*
X136437580Y-123723133D01*
X136454859Y-123810595D01*
X136476152Y-123870478D01*
X136540000Y-123970000D01*
X136640000Y-124050000D01*
X136790000Y-124100000D01*
X141741103Y-124117721D01*
X141741103Y-126086968D01*
X139337970Y-126086487D01*
X138744464Y-126084558D01*
X138187673Y-126079265D01*
X137683278Y-126070981D01*
X137246959Y-126060083D01*
X136894396Y-126046943D01*
X136641272Y-126031938D01*
X136523194Y-126019219D01*
X135987291Y-125870660D01*
X135510678Y-125611799D01*
X135101443Y-125248901D01*
X134767672Y-124788234D01*
X134653581Y-124570582D01*
X134452130Y-124145364D01*
X134433010Y-120882832D01*
X134413889Y-117620301D01*
X136393734Y-117620301D01*
X136393734Y-120700717D01*
G37*
G36*
X148182110Y-134647026D02*
G01*
X148191916Y-135031880D01*
X148204553Y-135309835D01*
X148222515Y-135501310D01*
X148248292Y-135626723D01*
X148284378Y-135706493D01*
X148316139Y-135745146D01*
X148349749Y-135771520D01*
X148400526Y-135793623D01*
X148450000Y-135840000D01*
X148550000Y-135860000D01*
X148680000Y-135870000D01*
X149240000Y-135890000D01*
X150130000Y-135890000D01*
X150550000Y-135900000D01*
X151110000Y-135900000D01*
X151560000Y-135890000D01*
X154476229Y-135894079D01*
X154441103Y-137832081D01*
X151576441Y-137850187D01*
X150740701Y-137853606D01*
X150021270Y-137852592D01*
X149420200Y-137847178D01*
X148939543Y-137837398D01*
X148581352Y-137823283D01*
X148347679Y-137804867D01*
X148298314Y-137797864D01*
X147760568Y-137645257D01*
X147285643Y-137387561D01*
X146884535Y-137035980D01*
X146568244Y-136601718D01*
X146347768Y-136095980D01*
X146258667Y-135719919D01*
X146235172Y-135510652D01*
X146215847Y-135213390D01*
X146202670Y-134867438D01*
X146197616Y-134512102D01*
X146197612Y-134505890D01*
X146197243Y-133662406D01*
X148161714Y-133662406D01*
X148182110Y-134647026D01*
G37*
G36*
X136393734Y-68411780D02*
G01*
X134420301Y-68411780D01*
X134420301Y-53324562D01*
X136393734Y-53324562D01*
X136393734Y-68411780D01*
G37*
G36*
X163692650Y-134824186D02*
G01*
X163684336Y-135239050D01*
X163674527Y-135549884D01*
X163660220Y-135779965D01*
X163638410Y-135952572D01*
X163606095Y-136090984D01*
X163560270Y-136218478D01*
X163497933Y-136358334D01*
X163493465Y-136367920D01*
X163209144Y-136831338D01*
X162829853Y-137224827D01*
X162375688Y-137532950D01*
X161866746Y-137740275D01*
X161635843Y-137794631D01*
X161470179Y-137812554D01*
X161184489Y-137828054D01*
X160786046Y-137840979D01*
X160282122Y-137851176D01*
X159679991Y-137858491D01*
X158986923Y-137862771D01*
X158344449Y-137863910D01*
X155427820Y-137863910D01*
X155427820Y-135890477D01*
X161360000Y-135890477D01*
X161510000Y-135820000D01*
X161620000Y-135710000D01*
X161676156Y-135599203D01*
X161703796Y-135502117D01*
X161719898Y-135355753D01*
X161727570Y-135137942D01*
X161729922Y-134826513D01*
X161730075Y-134620187D01*
X161730075Y-133662406D01*
X163713620Y-133662406D01*
X163692650Y-134824186D01*
G37*
G36*
X170721930Y-43904651D02*
G01*
X171362138Y-43905280D01*
X171888597Y-43906705D01*
X172314880Y-43909587D01*
X172654556Y-43914584D01*
X172921196Y-43922356D01*
X173128370Y-43933563D01*
X173289649Y-43948862D01*
X173418603Y-43968915D01*
X173528803Y-43994380D01*
X173633819Y-44025916D01*
X173704496Y-44049563D01*
X174255551Y-44293436D01*
X174708143Y-44614805D01*
X175059856Y-45011359D01*
X175308276Y-45480787D01*
X175362796Y-45637077D01*
X175389615Y-45731460D01*
X175412050Y-45835143D01*
X175430486Y-45959812D01*
X175445311Y-46117151D01*
X175456911Y-46318847D01*
X175465673Y-46576587D01*
X175471984Y-46902054D01*
X175476230Y-47306936D01*
X175478799Y-47802919D01*
X175480076Y-48401688D01*
X175480449Y-49114928D01*
X175480451Y-49192389D01*
X175480451Y-52369675D01*
X173507018Y-52369675D01*
X173507018Y-49250376D01*
X173506871Y-48539631D01*
X173506146Y-47945268D01*
X173504414Y-47456353D01*
X173501245Y-47061948D01*
X173496212Y-46751120D01*
X173488884Y-46512932D01*
X173478834Y-46336449D01*
X173465632Y-46210735D01*
X173448849Y-46124854D01*
X173428057Y-46067872D01*
X173402827Y-46028852D01*
X173379699Y-46003760D01*
X173343655Y-45971932D01*
X173297220Y-45945900D01*
X173228180Y-45925082D01*
X173124321Y-45908897D01*
X172973430Y-45896762D01*
X172763294Y-45888097D01*
X172481699Y-45882319D01*
X172116432Y-45878848D01*
X171655278Y-45877101D01*
X171086026Y-45876497D01*
X170706015Y-45876441D01*
X168159649Y-45876441D01*
X168159649Y-43903008D01*
X170721930Y-43904651D01*
G37*
G36*
X148170677Y-132643860D02*
G01*
X146197243Y-132643860D01*
X146197243Y-126086968D01*
X142759649Y-126086968D01*
X142759649Y-124113534D01*
X148170677Y-124113534D01*
X148170677Y-132643860D01*
G37*
G36*
X175480451Y-84453885D02*
G01*
X173507018Y-84453885D01*
X173507018Y-69430326D01*
X175480451Y-69430326D01*
X175480451Y-84453885D01*
G37*
G36*
X175448622Y-124209023D02*
G01*
X175264221Y-124608329D01*
X175036606Y-124984348D01*
X174721976Y-125343768D01*
X174355939Y-125652536D01*
X173974104Y-125876597D01*
X173909154Y-125904225D01*
X173815753Y-125940312D01*
X173724586Y-125970115D01*
X173622743Y-125994350D01*
X173497316Y-126013733D01*
X173335395Y-126028978D01*
X173124071Y-126040803D01*
X172850435Y-126049922D01*
X172501577Y-126057052D01*
X172064590Y-126062907D01*
X171526562Y-126068204D01*
X170874586Y-126073659D01*
X170849248Y-126073864D01*
X168159649Y-126095608D01*
X168159649Y-124117721D01*
X173180000Y-124090000D01*
X173280000Y-124060000D01*
X173390000Y-123960000D01*
X173436573Y-123841037D01*
X173455656Y-123767702D01*
X173470950Y-123660829D01*
X173482873Y-123509336D01*
X173491843Y-123302140D01*
X173498275Y-123028160D01*
X173502588Y-122676313D01*
X173505199Y-122235518D01*
X173506525Y-121694692D01*
X173506983Y-121042754D01*
X173507018Y-120700717D01*
X173507018Y-117620301D01*
X175484812Y-117620301D01*
X175448622Y-124209023D01*
G37*
G36*
X148170677Y-45876441D02*
G01*
X142759649Y-45876441D01*
X142759649Y-43903008D01*
X146197243Y-43903008D01*
X146197243Y-37282456D01*
X148170677Y-37282456D01*
X148170677Y-45876441D01*
G37*
G36*
X136393734Y-116601755D02*
G01*
X134420301Y-116601755D01*
X134420301Y-101514537D01*
X136393734Y-101514537D01*
X136393734Y-116601755D01*
G37*
G36*
X158435714Y-32131401D02*
G01*
X159245232Y-32134147D01*
X159933374Y-32139389D01*
X160506062Y-32147274D01*
X160969219Y-32157949D01*
X161328766Y-32171560D01*
X161590623Y-32188254D01*
X161760714Y-32208178D01*
X161793734Y-32214583D01*
X162328329Y-32392145D01*
X162782609Y-32668246D01*
X163154392Y-33040901D01*
X163441495Y-33508126D01*
X163571931Y-33832218D01*
X163623899Y-34005264D01*
X163660455Y-34183187D01*
X163684126Y-34393081D01*
X163697437Y-34662041D01*
X163702916Y-35017161D01*
X163703509Y-35243356D01*
X163703509Y-36263910D01*
X161730075Y-36263910D01*
X161728051Y-35324938D01*
X161724391Y-34920401D01*
X161711344Y-34623813D01*
X161682796Y-34415843D01*
X161632635Y-34277163D01*
X161554750Y-34188445D01*
X161443026Y-34130360D01*
X161339772Y-34097105D01*
X161228916Y-34083508D01*
X161003048Y-34071130D01*
X160674474Y-34060217D01*
X160255497Y-34051016D01*
X159758420Y-34043772D01*
X159195547Y-34038732D01*
X158579182Y-34036141D01*
X158276987Y-34035840D01*
X155427820Y-34035840D01*
X155427820Y-32126066D01*
X158435714Y-32131401D01*
G37*
G36*
X91393734Y-84453885D02*
G01*
X89420301Y-84453885D01*
X89420301Y-69430326D01*
X91393734Y-69430326D01*
X91393734Y-84453885D01*
G37*
G36*
X109472932Y-34031072D02*
G01*
X106482667Y-34049371D01*
X103492401Y-34067670D01*
X103347454Y-34212492D01*
X103291202Y-34276385D01*
X103250995Y-34352124D01*
X103223508Y-34461790D01*
X103205415Y-34627459D01*
X103193388Y-34871210D01*
X103184101Y-35215121D01*
X103182005Y-35310613D01*
X103161504Y-36263910D01*
X101197243Y-36263910D01*
X101197724Y-35452256D01*
X101215949Y-34790917D01*
X101274913Y-34237010D01*
X101382335Y-33775003D01*
X101545930Y-33389368D01*
X101773415Y-33064573D01*
X102072509Y-32785090D01*
X102450926Y-32535388D01*
X102717148Y-32394446D01*
X103195649Y-32157895D01*
X106334291Y-32139703D01*
X109472932Y-32121510D01*
X109472932Y-34031072D01*
G37*
G36*
X118703509Y-43903008D02*
G01*
X122141103Y-43903008D01*
X122141103Y-45876441D01*
X116730075Y-45876441D01*
X116730075Y-37282456D01*
X118703509Y-37282456D01*
X118703509Y-43903008D01*
G37*
G36*
X130480451Y-100495990D02*
G01*
X128507018Y-100495990D01*
X128507018Y-85472431D01*
X130480451Y-85472431D01*
X130480451Y-100495990D01*
G37*
G36*
X130480451Y-116601755D02*
G01*
X128507018Y-116601755D01*
X128507018Y-101514537D01*
X130480451Y-101514537D01*
X130480451Y-116601755D01*
G37*
G36*
X122141103Y-126086968D02*
G01*
X118703509Y-126086968D01*
X118703509Y-132643860D01*
X116730075Y-132643860D01*
X116730075Y-124113534D01*
X122141103Y-124113534D01*
X122141103Y-126086968D01*
G37*
G36*
X130480451Y-68411780D02*
G01*
X128507018Y-68411780D01*
X128507018Y-53324562D01*
X130480451Y-53324562D01*
X130480451Y-68411780D01*
G37*
G36*
X91393734Y-100495990D02*
G01*
X89420301Y-100495990D01*
X89420301Y-85472431D01*
X91393734Y-85472431D01*
X91393734Y-100495990D01*
G37*
G36*
X96741103Y-45876441D02*
G01*
X94208901Y-45876441D01*
X93562765Y-45876984D01*
X93032025Y-45878904D01*
X92604765Y-45882645D01*
X92269066Y-45888648D01*
X92013010Y-45897355D01*
X91824680Y-45909207D01*
X91692157Y-45924647D01*
X91603524Y-45944116D01*
X91510000Y-45968055D01*
X91420000Y-46070000D01*
X91393734Y-46180000D01*
X91393734Y-52369675D01*
X89420301Y-52369675D01*
X89420301Y-49296841D01*
X89420562Y-48586727D01*
X89421642Y-47991647D01*
X89423987Y-47499320D01*
X89428043Y-47097462D01*
X89434255Y-46773791D01*
X89443070Y-46516024D01*
X89454933Y-46311879D01*
X89470290Y-46149072D01*
X89489586Y-46015320D01*
X89513269Y-45898342D01*
X89541782Y-45785855D01*
X89548642Y-45760873D01*
X89694308Y-45333734D01*
X89881772Y-44986844D01*
X90131719Y-44696638D01*
X90464834Y-44439552D01*
X90901801Y-44192022D01*
X90944644Y-44170544D01*
X91418611Y-43934837D01*
X94079857Y-43915693D01*
X96741103Y-43896548D01*
X96741103Y-45876441D01*
G37*
G36*
X91393734Y-120700717D02*
G01*
X91393933Y-121407771D01*
X91394806Y-121998589D01*
X91396771Y-122484252D01*
X91400245Y-122875844D01*
X91405646Y-123184446D01*
X91413390Y-123421140D01*
X91423896Y-123597008D01*
X91437580Y-123723133D01*
X91454859Y-123810595D01*
X91476152Y-123870478D01*
X91540000Y-123970000D01*
X91640000Y-124050000D01*
X91790000Y-124100000D01*
X96741103Y-124117721D01*
X96741103Y-126086968D01*
X94337970Y-126086487D01*
X93744464Y-126084558D01*
X93187673Y-126079265D01*
X92683278Y-126070981D01*
X92246959Y-126060083D01*
X91894396Y-126046943D01*
X91641272Y-126031938D01*
X91523194Y-126019219D01*
X90987291Y-125870660D01*
X90510678Y-125611799D01*
X90101443Y-125248901D01*
X89767672Y-124788234D01*
X89653581Y-124570582D01*
X89452130Y-124145364D01*
X89433010Y-120882832D01*
X89413889Y-117620301D01*
X91393734Y-117620301D01*
X91393734Y-120700717D01*
G37*
G36*
X103182110Y-134647026D02*
G01*
X103191916Y-135031880D01*
X103204553Y-135309835D01*
X103222515Y-135501310D01*
X103248292Y-135626723D01*
X103284378Y-135706493D01*
X103316139Y-135745146D01*
X103349749Y-135771520D01*
X103400526Y-135793623D01*
X103450000Y-135840000D01*
X103550000Y-135860000D01*
X103680000Y-135870000D01*
X104240000Y-135890000D01*
X105130000Y-135890000D01*
X105550000Y-135900000D01*
X106110000Y-135900000D01*
X106560000Y-135890000D01*
X109476229Y-135894079D01*
X109441103Y-137832081D01*
X106576441Y-137850187D01*
X105740701Y-137853606D01*
X105021270Y-137852592D01*
X104420200Y-137847178D01*
X103939543Y-137837398D01*
X103581352Y-137823283D01*
X103347679Y-137804867D01*
X103298314Y-137797864D01*
X102760568Y-137645257D01*
X102285643Y-137387561D01*
X101884535Y-137035980D01*
X101568244Y-136601718D01*
X101347768Y-136095980D01*
X101258667Y-135719919D01*
X101235172Y-135510652D01*
X101215847Y-135213390D01*
X101202670Y-134867438D01*
X101197616Y-134512102D01*
X101197612Y-134505890D01*
X101197243Y-133662406D01*
X103161714Y-133662406D01*
X103182110Y-134647026D01*
G37*
G36*
X91393734Y-68411780D02*
G01*
X89420301Y-68411780D01*
X89420301Y-53324562D01*
X91393734Y-53324562D01*
X91393734Y-68411780D01*
G37*
G36*
X118692650Y-134824186D02*
G01*
X118684336Y-135239050D01*
X118674527Y-135549884D01*
X118660220Y-135779965D01*
X118638410Y-135952572D01*
X118606095Y-136090984D01*
X118560270Y-136218478D01*
X118497933Y-136358334D01*
X118493465Y-136367920D01*
X118209144Y-136831338D01*
X117829853Y-137224827D01*
X117375688Y-137532950D01*
X116866746Y-137740275D01*
X116635843Y-137794631D01*
X116470179Y-137812554D01*
X116184489Y-137828054D01*
X115786046Y-137840979D01*
X115282122Y-137851176D01*
X114679991Y-137858491D01*
X113986923Y-137862771D01*
X113344449Y-137863910D01*
X110427820Y-137863910D01*
X110427820Y-135890477D01*
X116360000Y-135890477D01*
X116510000Y-135820000D01*
X116620000Y-135710000D01*
X116676156Y-135599203D01*
X116703796Y-135502117D01*
X116719898Y-135355753D01*
X116727570Y-135137942D01*
X116729922Y-134826513D01*
X116730075Y-134620187D01*
X116730075Y-133662406D01*
X118713620Y-133662406D01*
X118692650Y-134824186D01*
G37*
G36*
X125721930Y-43904651D02*
G01*
X126362138Y-43905280D01*
X126888597Y-43906705D01*
X127314880Y-43909587D01*
X127654556Y-43914584D01*
X127921196Y-43922356D01*
X128128370Y-43933563D01*
X128289649Y-43948862D01*
X128418603Y-43968915D01*
X128528803Y-43994380D01*
X128633819Y-44025916D01*
X128704496Y-44049563D01*
X129255551Y-44293436D01*
X129708143Y-44614805D01*
X130059856Y-45011359D01*
X130308276Y-45480787D01*
X130362796Y-45637077D01*
X130389615Y-45731460D01*
X130412050Y-45835143D01*
X130430486Y-45959812D01*
X130445311Y-46117151D01*
X130456911Y-46318847D01*
X130465673Y-46576587D01*
X130471984Y-46902054D01*
X130476230Y-47306936D01*
X130478799Y-47802919D01*
X130480076Y-48401688D01*
X130480449Y-49114928D01*
X130480451Y-49192389D01*
X130480451Y-52369675D01*
X128507018Y-52369675D01*
X128507018Y-49250376D01*
X128506871Y-48539631D01*
X128506146Y-47945268D01*
X128504414Y-47456353D01*
X128501245Y-47061948D01*
X128496212Y-46751120D01*
X128488884Y-46512932D01*
X128478834Y-46336449D01*
X128465632Y-46210735D01*
X128448849Y-46124854D01*
X128428057Y-46067872D01*
X128402827Y-46028852D01*
X128379699Y-46003760D01*
X128343655Y-45971932D01*
X128297220Y-45945900D01*
X128228180Y-45925082D01*
X128124321Y-45908897D01*
X127973430Y-45896762D01*
X127763294Y-45888097D01*
X127481699Y-45882319D01*
X127116432Y-45878848D01*
X126655278Y-45877101D01*
X126086026Y-45876497D01*
X125706015Y-45876441D01*
X123159649Y-45876441D01*
X123159649Y-43903008D01*
X125721930Y-43904651D01*
G37*
G36*
X103170677Y-132643860D02*
G01*
X101197243Y-132643860D01*
X101197243Y-126086968D01*
X97759649Y-126086968D01*
X97759649Y-124113534D01*
X103170677Y-124113534D01*
X103170677Y-132643860D01*
G37*
G36*
X130480451Y-84453885D02*
G01*
X128507018Y-84453885D01*
X128507018Y-69430326D01*
X130480451Y-69430326D01*
X130480451Y-84453885D01*
G37*
G36*
X130448622Y-124209023D02*
G01*
X130264221Y-124608329D01*
X130036606Y-124984348D01*
X129721976Y-125343768D01*
X129355939Y-125652536D01*
X128974104Y-125876597D01*
X128909154Y-125904225D01*
X128815753Y-125940312D01*
X128724586Y-125970115D01*
X128622743Y-125994350D01*
X128497316Y-126013733D01*
X128335395Y-126028978D01*
X128124071Y-126040803D01*
X127850435Y-126049922D01*
X127501577Y-126057052D01*
X127064590Y-126062907D01*
X126526562Y-126068204D01*
X125874586Y-126073659D01*
X125849248Y-126073864D01*
X123159649Y-126095608D01*
X123159649Y-124117721D01*
X128180000Y-124090000D01*
X128280000Y-124060000D01*
X128390000Y-123960000D01*
X128436573Y-123841037D01*
X128455656Y-123767702D01*
X128470950Y-123660829D01*
X128482873Y-123509336D01*
X128491843Y-123302140D01*
X128498275Y-123028160D01*
X128502588Y-122676313D01*
X128505199Y-122235518D01*
X128506525Y-121694692D01*
X128506983Y-121042754D01*
X128507018Y-120700717D01*
X128507018Y-117620301D01*
X130484812Y-117620301D01*
X130448622Y-124209023D01*
G37*
G36*
X103170677Y-45876441D02*
G01*
X97759649Y-45876441D01*
X97759649Y-43903008D01*
X101197243Y-43903008D01*
X101197243Y-37282456D01*
X103170677Y-37282456D01*
X103170677Y-45876441D01*
G37*
G36*
X91393734Y-116601755D02*
G01*
X89420301Y-116601755D01*
X89420301Y-101514537D01*
X91393734Y-101514537D01*
X91393734Y-116601755D01*
G37*
G36*
X113435714Y-32131401D02*
G01*
X114245232Y-32134147D01*
X114933374Y-32139389D01*
X115506062Y-32147274D01*
X115969219Y-32157949D01*
X116328766Y-32171560D01*
X116590623Y-32188254D01*
X116760714Y-32208178D01*
X116793734Y-32214583D01*
X117328329Y-32392145D01*
X117782609Y-32668246D01*
X118154392Y-33040901D01*
X118441495Y-33508126D01*
X118571931Y-33832218D01*
X118623899Y-34005264D01*
X118660455Y-34183187D01*
X118684126Y-34393081D01*
X118697437Y-34662041D01*
X118702916Y-35017161D01*
X118703509Y-35243356D01*
X118703509Y-36263910D01*
X116730075Y-36263910D01*
X116728051Y-35324938D01*
X116724391Y-34920401D01*
X116711344Y-34623813D01*
X116682796Y-34415843D01*
X116632635Y-34277163D01*
X116554750Y-34188445D01*
X116443026Y-34130360D01*
X116339772Y-34097105D01*
X116228916Y-34083508D01*
X116003048Y-34071130D01*
X115674474Y-34060217D01*
X115255497Y-34051016D01*
X114758420Y-34043772D01*
X114195547Y-34038732D01*
X113579182Y-34036141D01*
X113276987Y-34035840D01*
X110427820Y-34035840D01*
X110427820Y-32126066D01*
X113435714Y-32131401D01*
G37*
G36*
X80721930Y-43904651D02*
G01*
X81362138Y-43905280D01*
X81888597Y-43906705D01*
X82314880Y-43909587D01*
X82654556Y-43914584D01*
X82921196Y-43922356D01*
X83128370Y-43933563D01*
X83289649Y-43948862D01*
X83418603Y-43968915D01*
X83528803Y-43994380D01*
X83633819Y-44025916D01*
X83704496Y-44049563D01*
X84255551Y-44293436D01*
X84708143Y-44614805D01*
X85059856Y-45011359D01*
X85308276Y-45480787D01*
X85362796Y-45637077D01*
X85389615Y-45731460D01*
X85412050Y-45835143D01*
X85430486Y-45959812D01*
X85445311Y-46117151D01*
X85456911Y-46318847D01*
X85465673Y-46576587D01*
X85471984Y-46902054D01*
X85476230Y-47306936D01*
X85478799Y-47802919D01*
X85480076Y-48401688D01*
X85480449Y-49114928D01*
X85480451Y-49192389D01*
X85480451Y-52369675D01*
X83507018Y-52369675D01*
X83507018Y-49250376D01*
X83506871Y-48539631D01*
X83506146Y-47945268D01*
X83504414Y-47456353D01*
X83501245Y-47061948D01*
X83496212Y-46751120D01*
X83488884Y-46512932D01*
X83478834Y-46336449D01*
X83465632Y-46210735D01*
X83448849Y-46124854D01*
X83428057Y-46067872D01*
X83402827Y-46028852D01*
X83379699Y-46003760D01*
X83343655Y-45971932D01*
X83297220Y-45945900D01*
X83228180Y-45925082D01*
X83124321Y-45908897D01*
X82973430Y-45896762D01*
X82763294Y-45888097D01*
X82481699Y-45882319D01*
X82116432Y-45878848D01*
X81655278Y-45877101D01*
X81086026Y-45876497D01*
X80706015Y-45876441D01*
X78159649Y-45876441D01*
X78159649Y-43903008D01*
X80721930Y-43904651D01*
G37*
G36*
X85480451Y-116601755D02*
G01*
X83507018Y-116601755D01*
X83507018Y-101514537D01*
X85480451Y-101514537D01*
X85480451Y-116601755D01*
G37*
G36*
X68435714Y-32131401D02*
G01*
X69245232Y-32134147D01*
X69933374Y-32139389D01*
X70506062Y-32147274D01*
X70969219Y-32157949D01*
X71328766Y-32171560D01*
X71590623Y-32188254D01*
X71760714Y-32208178D01*
X71793734Y-32214583D01*
X72328329Y-32392145D01*
X72782609Y-32668246D01*
X73154392Y-33040901D01*
X73441495Y-33508126D01*
X73571931Y-33832218D01*
X73623899Y-34005264D01*
X73660455Y-34183187D01*
X73684126Y-34393081D01*
X73697437Y-34662041D01*
X73702916Y-35017161D01*
X73703509Y-35243356D01*
X73703509Y-36263910D01*
X71730075Y-36263910D01*
X71728051Y-35324938D01*
X71724391Y-34920401D01*
X71711344Y-34623813D01*
X71682796Y-34415843D01*
X71632635Y-34277163D01*
X71554750Y-34188445D01*
X71443026Y-34130360D01*
X71339772Y-34097105D01*
X71228916Y-34083508D01*
X71003048Y-34071130D01*
X70674474Y-34060217D01*
X70255497Y-34051016D01*
X69758420Y-34043772D01*
X69195547Y-34038732D01*
X68579182Y-34036141D01*
X68276987Y-34035840D01*
X65427820Y-34035840D01*
X65427820Y-32126066D01*
X68435714Y-32131401D01*
G37*
G36*
X46393734Y-116601755D02*
G01*
X44420301Y-116601755D01*
X44420301Y-101514537D01*
X46393734Y-101514537D01*
X46393734Y-116601755D01*
G37*
G36*
X46393734Y-84453885D02*
G01*
X44420301Y-84453885D01*
X44420301Y-69430326D01*
X46393734Y-69430326D01*
X46393734Y-84453885D01*
G37*
G36*
X73692650Y-134824186D02*
G01*
X73684336Y-135239050D01*
X73674527Y-135549884D01*
X73660220Y-135779965D01*
X73638410Y-135952572D01*
X73606095Y-136090984D01*
X73560270Y-136218478D01*
X73497933Y-136358334D01*
X73493465Y-136367920D01*
X73209144Y-136831338D01*
X72829853Y-137224827D01*
X72375688Y-137532950D01*
X71866746Y-137740275D01*
X71635843Y-137794631D01*
X71470179Y-137812554D01*
X71184489Y-137828054D01*
X70786046Y-137840979D01*
X70282122Y-137851176D01*
X69679991Y-137858491D01*
X68986923Y-137862771D01*
X68344449Y-137863910D01*
X65427820Y-137863910D01*
X65427820Y-135890477D01*
X71360000Y-135890477D01*
X71510000Y-135820000D01*
X71620000Y-135710000D01*
X71676156Y-135599203D01*
X71703796Y-135502117D01*
X71719898Y-135355753D01*
X71727570Y-135137942D01*
X71729922Y-134826513D01*
X71730075Y-134620187D01*
X71730075Y-133662406D01*
X73713620Y-133662406D01*
X73692650Y-134824186D01*
G37*
G36*
X46393734Y-68411780D02*
G01*
X44420301Y-68411780D01*
X44420301Y-53324562D01*
X46393734Y-53324562D01*
X46393734Y-68411780D01*
G37*
G36*
X77141103Y-126086968D02*
G01*
X73703509Y-126086968D01*
X73703509Y-132643860D01*
X71730075Y-132643860D01*
X71730075Y-124113534D01*
X77141103Y-124113534D01*
X77141103Y-126086968D01*
G37*
G36*
X64472932Y-34031072D02*
G01*
X61482667Y-34049371D01*
X58492401Y-34067670D01*
X58347454Y-34212492D01*
X58291202Y-34276385D01*
X58250995Y-34352124D01*
X58223508Y-34461790D01*
X58205415Y-34627459D01*
X58193388Y-34871210D01*
X58184101Y-35215121D01*
X58182005Y-35310613D01*
X58161504Y-36263910D01*
X56197243Y-36263910D01*
X56197724Y-35452256D01*
X56215949Y-34790917D01*
X56274913Y-34237010D01*
X56382335Y-33775003D01*
X56545930Y-33389368D01*
X56773415Y-33064573D01*
X57072509Y-32785090D01*
X57450926Y-32535388D01*
X57717148Y-32394446D01*
X58195649Y-32157895D01*
X61334291Y-32139703D01*
X64472932Y-32121510D01*
X64472932Y-34031072D01*
G37*
G36*
X85480451Y-100495990D02*
G01*
X83507018Y-100495990D01*
X83507018Y-85472431D01*
X85480451Y-85472431D01*
X85480451Y-100495990D01*
G37*
G36*
X85480451Y-84453885D02*
G01*
X83507018Y-84453885D01*
X83507018Y-69430326D01*
X85480451Y-69430326D01*
X85480451Y-84453885D01*
G37*
G36*
X85480451Y-68411780D02*
G01*
X83507018Y-68411780D01*
X83507018Y-53324562D01*
X85480451Y-53324562D01*
X85480451Y-68411780D01*
G37*
G36*
X51741103Y-45876441D02*
G01*
X49208901Y-45876441D01*
X48562765Y-45876984D01*
X48032025Y-45878904D01*
X47604765Y-45882645D01*
X47269066Y-45888648D01*
X47013010Y-45897355D01*
X46824680Y-45909207D01*
X46692157Y-45924647D01*
X46603524Y-45944116D01*
X46510000Y-45968055D01*
X46420000Y-46070000D01*
X46393734Y-46180000D01*
X46393734Y-52369675D01*
X44420301Y-52369675D01*
X44420301Y-49296841D01*
X44420562Y-48586727D01*
X44421642Y-47991647D01*
X44423987Y-47499320D01*
X44428043Y-47097462D01*
X44434255Y-46773791D01*
X44443070Y-46516024D01*
X44454933Y-46311879D01*
X44470290Y-46149072D01*
X44489586Y-46015320D01*
X44513269Y-45898342D01*
X44541782Y-45785855D01*
X44548642Y-45760873D01*
X44694308Y-45333734D01*
X44881772Y-44986844D01*
X45131719Y-44696638D01*
X45464834Y-44439552D01*
X45901801Y-44192022D01*
X45944644Y-44170544D01*
X46418611Y-43934837D01*
X49079857Y-43915693D01*
X51741103Y-43896548D01*
X51741103Y-45876441D01*
G37*
G36*
X85448622Y-124209023D02*
G01*
X85264221Y-124608329D01*
X85036606Y-124984348D01*
X84721976Y-125343768D01*
X84355939Y-125652536D01*
X83974104Y-125876597D01*
X83909154Y-125904225D01*
X83815753Y-125940312D01*
X83724586Y-125970115D01*
X83622743Y-125994350D01*
X83497316Y-126013733D01*
X83335395Y-126028978D01*
X83124071Y-126040803D01*
X82850435Y-126049922D01*
X82501577Y-126057052D01*
X82064590Y-126062907D01*
X81526562Y-126068204D01*
X80874586Y-126073659D01*
X80849248Y-126073864D01*
X78159649Y-126095608D01*
X78159649Y-124117721D01*
X83180000Y-124090000D01*
X83280000Y-124060000D01*
X83390000Y-123960000D01*
X83436573Y-123841037D01*
X83455656Y-123767702D01*
X83470950Y-123660829D01*
X83482873Y-123509336D01*
X83491843Y-123302140D01*
X83498275Y-123028160D01*
X83502588Y-122676313D01*
X83505199Y-122235518D01*
X83506525Y-121694692D01*
X83506983Y-121042754D01*
X83507018Y-120700717D01*
X83507018Y-117620301D01*
X85484812Y-117620301D01*
X85448622Y-124209023D01*
G37*
G36*
X73703509Y-43903008D02*
G01*
X77141103Y-43903008D01*
X77141103Y-45876441D01*
X71730075Y-45876441D01*
X71730075Y-37282456D01*
X73703509Y-37282456D01*
X73703509Y-43903008D01*
G37*
G36*
X58170677Y-132643860D02*
G01*
X56197243Y-132643860D01*
X56197243Y-126086968D01*
X52759649Y-126086968D01*
X52759649Y-124113534D01*
X58170677Y-124113534D01*
X58170677Y-132643860D01*
G37*
G36*
X58182110Y-134647026D02*
G01*
X58191916Y-135031880D01*
X58204553Y-135309835D01*
X58222515Y-135501310D01*
X58248292Y-135626723D01*
X58284378Y-135706493D01*
X58316139Y-135745146D01*
X58349749Y-135771520D01*
X58400526Y-135793623D01*
X58450000Y-135840000D01*
X58550000Y-135860000D01*
X58680000Y-135870000D01*
X59240000Y-135890000D01*
X60130000Y-135890000D01*
X60550000Y-135900000D01*
X61110000Y-135900000D01*
X61560000Y-135890000D01*
X64476229Y-135894079D01*
X64441103Y-137832081D01*
X61576441Y-137850187D01*
X60740701Y-137853606D01*
X60021270Y-137852592D01*
X59420200Y-137847178D01*
X58939543Y-137837398D01*
X58581352Y-137823283D01*
X58347679Y-137804867D01*
X58298314Y-137797864D01*
X57760568Y-137645257D01*
X57285643Y-137387561D01*
X56884535Y-137035980D01*
X56568244Y-136601718D01*
X56347768Y-136095980D01*
X56258667Y-135719919D01*
X56235172Y-135510652D01*
X56215847Y-135213390D01*
X56202670Y-134867438D01*
X56197616Y-134512102D01*
X56197612Y-134505890D01*
X56197243Y-133662406D01*
X58161714Y-133662406D01*
X58182110Y-134647026D01*
G37*
G36*
X58170677Y-45876441D02*
G01*
X52759649Y-45876441D01*
X52759649Y-43903008D01*
X56197243Y-43903008D01*
X56197243Y-37282456D01*
X58170677Y-37282456D01*
X58170677Y-45876441D01*
G37*
G36*
X46393734Y-120700717D02*
G01*
X46393933Y-121407771D01*
X46394806Y-121998589D01*
X46396771Y-122484252D01*
X46400245Y-122875844D01*
X46405646Y-123184446D01*
X46413390Y-123421140D01*
X46423896Y-123597008D01*
X46437580Y-123723133D01*
X46454859Y-123810595D01*
X46476152Y-123870478D01*
X46540000Y-123970000D01*
X46640000Y-124050000D01*
X46790000Y-124100000D01*
X51741103Y-124117721D01*
X51741103Y-126086968D01*
X49337970Y-126086487D01*
X48744464Y-126084558D01*
X48187673Y-126079265D01*
X47683278Y-126070981D01*
X47246959Y-126060083D01*
X46894396Y-126046943D01*
X46641272Y-126031938D01*
X46523194Y-126019219D01*
X45987291Y-125870660D01*
X45510678Y-125611799D01*
X45101443Y-125248901D01*
X44767672Y-124788234D01*
X44653581Y-124570582D01*
X44452130Y-124145364D01*
X44433010Y-120882832D01*
X44413889Y-117620301D01*
X46393734Y-117620301D01*
X46393734Y-120700717D01*
G37*
G36*
X46393734Y-100495990D02*
G01*
X44420301Y-100495990D01*
X44420301Y-85472431D01*
X46393734Y-85472431D01*
X46393734Y-100495990D01*
G37*
%TD*%
M02*
