G04 #@! TF.GenerationSoftware,KiCad,Pcbnew,5.1.5+dfsg1-2build2*
G04 #@! TF.CreationDate,2022-08-16T14:09:05+02:00*
G04 #@! TF.ProjectId,qCamPCR,7143616d-5043-4522-9e6b-696361645f70,rev?*
G04 #@! TF.SameCoordinates,Original*
G04 #@! TF.FileFunction,Profile,NP*
%FSLAX46Y46*%
G04 Gerber Fmt 4.6, Leading zero omitted, Abs format (unit mm)*
G04 Created by KiCad (PCBNEW 5.1.5+dfsg1-2build2) date 2022-08-16 14:09:05*
%MOMM*%
%LPD*%
G04 APERTURE LIST*
%ADD10C,0.150000*%
%ADD11C,0.150001*%
G04 APERTURE END LIST*
D10*
X136786292Y-82578410D02*
X136786292Y-92787792D01*
X135986292Y-91887792D02*
X135986292Y-83478233D01*
X127600000Y-82578410D02*
X127600000Y-83478233D01*
X127600000Y-91887792D02*
X127600000Y-92787792D01*
X127600000Y-92787792D02*
X136786292Y-92787792D01*
X127600000Y-91887792D02*
X135986292Y-91887792D01*
X127600000Y-83478233D02*
X135986292Y-83478233D01*
X127600000Y-82578410D02*
X136786292Y-82578410D01*
X126400000Y-91887792D02*
X126400000Y-92787792D01*
X73600000Y-91887792D02*
X73600000Y-92787792D01*
X73600000Y-92787792D02*
X126400000Y-92787792D01*
X73600000Y-91887792D02*
X126400000Y-91887792D01*
X126400000Y-82578410D02*
X126400000Y-83478233D01*
X73600000Y-82578410D02*
X73600000Y-83478233D01*
X73600000Y-83478233D02*
X126400000Y-83478233D01*
X73600000Y-82578410D02*
X126400000Y-82578410D01*
X72400000Y-91887792D02*
X72400000Y-92787792D01*
X63161325Y-92787792D02*
X72400000Y-92787792D01*
X63961325Y-91887792D02*
X72400000Y-91887792D01*
X72400000Y-82578410D02*
X72400000Y-83478233D01*
D11*
X72400000Y-83478410D02*
X63961325Y-83478233D01*
X72400000Y-82578410D02*
X63161325Y-82578410D01*
X63961325Y-83478410D02*
X63961325Y-91887792D01*
D10*
X88000000Y-169981846D02*
X135504168Y-169981846D01*
D11*
X70000000Y-169981846D02*
X64478467Y-169981669D01*
D10*
X88000000Y-162300000D02*
X88000000Y-169981846D01*
X70000000Y-162300000D02*
X88000000Y-162300000D01*
X70000000Y-169981846D02*
X70000000Y-162300000D01*
X64478467Y-169982023D02*
G75*
G02X60491230Y-165994786I0J3987237D01*
G01*
X139491228Y-165994786D02*
G75*
G02X135504168Y-169981846I-3987060J0D01*
G01*
X60491407Y-33963574D02*
G75*
G02X64478467Y-29976514I3987060J0D01*
G01*
X135504168Y-29976160D02*
G75*
G02X139491405Y-33963397I0J-3987237D01*
G01*
D11*
X60491407Y-33963574D02*
X60491230Y-165994786D01*
X135504168Y-29976514D02*
X64478467Y-29976514D01*
D10*
X139491405Y-33963397D02*
X139491405Y-165994786D01*
D11*
X63161325Y-82578410D02*
X63161325Y-92787792D01*
M02*
