M48
; DRILL file {KiCad 5.1.5+dfsg1-2build2} date Di 16 Aug 2022 14:09:04
; FORMAT={-:-/ absolute / inch / decimal}
; #@! TF.CreationDate,2022-08-16T14:09:04+02:00
; #@! TF.GenerationSoftware,Kicad,Pcbnew,5.1.5+dfsg1-2build2
; #@! TF.FileFunction,Plated,1,2,PTH
FMAT,2
INCH
T1C0.0118
T2C0.0157
T3C0.0197
T4C0.0236
T5C0.0394
%
G90
G05
T1
X3.0472Y-5.9795
X3.0472Y-6.0189
X3.0472Y-6.0583
X3.0472Y-6.0976
X3.0472Y-6.137
X3.0866Y-5.9795
X3.0866Y-6.0189
X3.0866Y-6.0583
X3.0866Y-6.0976
X3.0866Y-6.137
X3.126Y-5.9795
X3.126Y-6.0189
X3.126Y-6.0583
X3.126Y-6.0976
X3.126Y-6.137
X3.1654Y-5.9795
X3.1654Y-6.0189
X3.1654Y-6.0583
X3.1654Y-6.0976
X3.1654Y-6.137
X3.2047Y-5.9795
X3.2047Y-6.0189
X3.2047Y-6.0583
X3.2047Y-6.0976
X3.2047Y-6.137
T2
X2.497Y-4.347
X2.497Y-5.157
X2.502Y-4.302
X2.552Y-1.762
X2.572Y-5.657
X2.587Y-5.152
X2.597Y-4.627
X2.6246Y-3.4527
X2.632Y-4.392
X2.632Y-4.622
X2.647Y-5.137
X2.672Y-5.452
X2.707Y-1.582
X2.7296Y-3.4137
X2.732Y-5.112
X2.742Y-4.622
X2.747Y-4.107
X2.747Y-5.152
X2.757Y-1.877
X2.797Y-1.882
X2.797Y-4.462
X2.797Y-4.742
X2.797Y-4.907
X2.802Y-4.412
X2.817Y-4.627
X2.832Y-4.217
X2.832Y-5.127
X2.857Y-5.397
X2.862Y-5.682
X2.892Y-6.077
X2.897Y-5.347
X2.897Y-5.977
X2.8995Y-5.7045
X2.8995Y-5.7445
X2.912Y-6.202
X2.927Y-5.262
X2.952Y-5.962
X2.9786Y-3.4527
X2.982Y-6.347
X2.987Y-5.232
X2.992Y-5.812
X3.017Y-4.402
X3.042Y-4.432
X3.062Y-5.457
X3.062Y-5.772
X3.0836Y-3.4137
X3.092Y-1.872
X3.122Y-1.897
X3.122Y-5.497
X3.177Y-2.092
X3.202Y-2.057
X3.262Y-5.967
X3.272Y-5.432
X3.312Y-5.847
X3.357Y-5.052
X3.357Y-5.672
X3.362Y-5.767
X3.367Y-5.832
X3.372Y-5.247
X3.3746Y-3.4137
X3.397Y-5.152
X3.4766Y-3.4527
X3.492Y-5.377
X3.537Y-5.292
X3.552Y-5.522
X3.552Y-5.857
X3.552Y-5.892
X3.552Y-6.047
X3.562Y-5.162
X3.567Y-5.472
X3.577Y-6.147
X3.592Y-5.292
X3.592Y-5.522
X3.617Y-5.762
X3.6866Y-3.4527
X3.737Y-5.927
X3.752Y-6.057
X3.767Y-6.367
X3.772Y-5.932
X3.802Y-6.017
X3.807Y-5.927
X3.8306Y-3.4527
X3.847Y-5.917
X3.877Y-6.132
X3.897Y-5.672
X3.907Y-5.577
X3.912Y-6.057
X3.927Y-6.087
X3.987Y-6.587
X4.002Y-5.777
X4.017Y-6.107
X4.027Y-5.902
X4.037Y-5.777
X4.0436Y-3.4527
X4.052Y-6.357
X4.082Y-5.772
X4.087Y-5.922
X4.102Y-5.892
X4.107Y-6.412
X4.1846Y-3.4527
X4.222Y-6.357
X4.2596Y-3.4137
X4.2895Y-2.6845
X4.3166Y-3.4137
X4.322Y-2.677
X4.327Y-6.027
X4.352Y-5.997
X4.382Y-6.062
X4.3976Y-3.4527
X4.417Y-5.332
X4.452Y-5.897
X4.457Y-5.792
X4.457Y-5.842
X4.457Y-6.027
X4.467Y-5.997
X4.472Y-1.352
X4.472Y-5.872
X4.477Y-6.062
X4.502Y-2.8945
X4.5026Y-3.4887
X4.532Y-6.417
X4.532Y-6.587
X4.537Y-2.892
X4.8086Y-3.4887
X4.902Y-5.292
X4.927Y-6.477
X4.957Y-5.257
X4.967Y-1.627
X4.987Y-1.472
X5.0006Y-3.4107
X5.007Y-2.8895
X5.022Y-6.467
X5.0245Y-1.6745
X5.027Y-1.312
X5.027Y-1.4445
X5.0345Y-2.9145
X5.0606Y-3.4227
X5.087Y-2.672
X5.097Y-2.022
X5.142Y-2.672
X5.147Y-2.587
X5.157Y-1.917
X5.162Y-1.997
X5.167Y-2.222
X5.192Y-2.672
X5.192Y-2.932
X5.227Y-1.492
X5.227Y-2.927
X5.2496Y-3.4527
X5.252Y-2.347
X5.2646Y-3.4167
X5.272Y-2.672
X5.2766Y-3.4947
X5.287Y-3.767
X5.307Y-2.517
X5.312Y-3.737
X5.352Y-2.347
X5.3645Y-3.897
X5.382Y-2.517
X5.3945Y-3.767
X5.397Y-2.547
X5.402Y-3.802
X5.4045Y-2.5795
X5.4045Y-3.9095
X5.412Y-3.842
X5.422Y-1.762
X5.422Y-2.622
X5.422Y-2.702
X5.427Y-1.987
T4
X2.452Y-3.042
X2.502Y-6.137
X2.522Y-5.307
X2.552Y-6.137
X2.572Y-3.137
X2.607Y-3.992
X2.617Y-3.107
X2.627Y-5.182
X2.637Y-6.287
X2.652Y-6.347
X2.6645Y-2.8045
X2.667Y-3.912
X2.667Y-3.952
X2.667Y-3.992
X2.667Y-4.617
X2.677Y-4.907
X2.677Y-6.392
X2.722Y-1.667
X2.732Y-1.767
X2.8101Y-3.077
X2.832Y-2.422
X2.872Y-2.732
X2.872Y-5.222
X2.907Y-2.662
X2.907Y-2.702
X2.912Y-2.422
X2.917Y-1.892
X2.917Y-1.937
X2.917Y-4.297
X2.917Y-4.627
X2.952Y-5.362
X2.982Y-4.857
X3.062Y-2.727
X3.082Y-2.442
X3.082Y-2.477
X3.092Y-2.587
X3.097Y-2.667
X3.097Y-2.702
X3.122Y-2.557
X3.122Y-2.807
X3.187Y-2.502
X3.232Y-6.282
X3.242Y-2.557
X3.267Y-5.367
X3.287Y-6.282
X3.322Y-6.337
X3.367Y-6.337
X3.442Y-2.557
X3.552Y-6.617
X3.687Y-6.327
X3.897Y-6.022
X4.157Y-2.792
X4.2295Y-2.7395
X4.257Y-6.457
X4.257Y-6.502
X4.302Y-5.967
X4.3995Y-2.8545
X4.412Y-5.482
X4.462Y-6.542
X4.582Y-6.082
X4.587Y-5.317
X4.587Y-5.412
X4.587Y-5.567
X4.652Y-2.437
X4.687Y-6.277
X4.7345Y-2.827
X4.757Y-1.567
X4.767Y-1.527
X4.767Y-2.802
X4.777Y-2.757
X4.852Y-1.447
X4.867Y-2.342
X4.877Y-1.472
X4.932Y-2.342
X4.937Y-6.277
X4.942Y-4.357
X4.982Y-2.857
X5.092Y-2.232
X5.097Y-1.437
X5.097Y-1.477
X5.132Y-4.787
X5.137Y-1.857
X5.152Y-2.342
X5.172Y-6.607
X5.192Y-2.832
X5.212Y-1.572
X5.212Y-1.607
X5.277Y-5.952
X5.307Y-2.347
X5.347Y-2.307
X5.347Y-4.357
X5.412Y-2.827
X5.437Y-5.862
T5
X2.867Y-1.397
X2.967Y-1.397
X4.9213Y-2.4697
X4.9213Y-2.5697
X2.867Y-1.667
X2.967Y-1.667
T3
G00X4.8028Y-1.2854
M15
G01X4.8028Y-1.2618
M16
G05
G00X4.8169Y-1.5197
M15
G01X4.8169Y-1.4961
M16
G05
G00X5.1421Y-1.5197
M15
G01X5.1421Y-1.4961
M16
G05
G00X5.1563Y-1.2854
M15
G01X5.1563Y-1.2618
M16
G05
T0
M30
