G04 #@! TF.GenerationSoftware,KiCad,Pcbnew,5.1.5+dfsg1-2build2*
G04 #@! TF.CreationDate,2022-08-16T14:09:05+02:00*
G04 #@! TF.ProjectId,qCamPCR,7143616d-5043-4522-9e6b-696361645f70,rev?*
G04 #@! TF.SameCoordinates,Original*
G04 #@! TF.FileFunction,Legend,Top*
G04 #@! TF.FilePolarity,Positive*
%FSLAX46Y46*%
G04 Gerber Fmt 4.6, Leading zero omitted, Abs format (unit mm)*
G04 Created by KiCad (PCBNEW 5.1.5+dfsg1-2build2) date 2022-08-16 14:09:05*
%MOMM*%
%LPD*%
G04 APERTURE LIST*
%ADD10C,0.150000*%
%ADD11C,0.300000*%
%ADD12C,0.150001*%
%ADD13C,0.120000*%
%ADD14C,0.050000*%
%ADD15C,0.100000*%
G04 APERTURE END LIST*
D10*
X97000000Y-51692091D02*
X103000000Y-51692091D01*
X100000000Y-48692091D02*
X100000000Y-54692091D01*
D11*
X98857714Y-73042857D02*
X98357714Y-73042857D01*
X98357714Y-73828571D02*
X98357714Y-72328571D01*
X99072000Y-72328571D01*
X99572000Y-73400000D02*
X100286285Y-73400000D01*
X99429142Y-73828571D02*
X99929142Y-72328571D01*
X100429142Y-73828571D01*
X100929142Y-73828571D02*
X100929142Y-72328571D01*
X101786285Y-73828571D01*
X101786285Y-72328571D01*
D10*
X130377023Y-103944880D02*
X130377023Y-102944880D01*
X130377023Y-103421071D02*
X130948452Y-103421071D01*
X130948452Y-103944880D02*
X130948452Y-102944880D01*
X131424642Y-103944880D02*
X131424642Y-102944880D01*
X131996071Y-103944880D01*
X131996071Y-102944880D01*
X132329404Y-102944880D02*
X132900833Y-102944880D01*
X132615119Y-103944880D02*
X132615119Y-102944880D01*
X133805595Y-103849642D02*
X133757976Y-103897261D01*
X133615119Y-103944880D01*
X133519880Y-103944880D01*
X133377023Y-103897261D01*
X133281785Y-103802023D01*
X133234166Y-103706785D01*
X133186547Y-103516309D01*
X133186547Y-103373452D01*
X133234166Y-103182976D01*
X133281785Y-103087738D01*
X133377023Y-102992500D01*
X133519880Y-102944880D01*
X133615119Y-102944880D01*
X133757976Y-102992500D01*
X133805595Y-103040119D01*
X131623095Y-106612000D02*
X131527857Y-106564380D01*
X131385000Y-106564380D01*
X131242142Y-106612000D01*
X131146904Y-106707238D01*
X131099285Y-106802476D01*
X131051666Y-106992952D01*
X131051666Y-107135809D01*
X131099285Y-107326285D01*
X131146904Y-107421523D01*
X131242142Y-107516761D01*
X131385000Y-107564380D01*
X131480238Y-107564380D01*
X131623095Y-107516761D01*
X131670714Y-107469142D01*
X131670714Y-107135809D01*
X131480238Y-107135809D01*
X132099285Y-107564380D02*
X132099285Y-106564380D01*
X132670714Y-107564380D01*
X132670714Y-106564380D01*
X133146904Y-107564380D02*
X133146904Y-106564380D01*
X133385000Y-106564380D01*
X133527857Y-106612000D01*
X133623095Y-106707238D01*
X133670714Y-106802476D01*
X133718333Y-106992952D01*
X133718333Y-107135809D01*
X133670714Y-107326285D01*
X133623095Y-107421523D01*
X133527857Y-107516761D01*
X133385000Y-107564380D01*
X133146904Y-107564380D01*
X62638500Y-106484880D02*
X62638500Y-105484880D01*
X62638500Y-105961071D02*
X63209928Y-105961071D01*
X63209928Y-106484880D02*
X63209928Y-105484880D01*
X63686119Y-105961071D02*
X64019452Y-105961071D01*
X64162309Y-106484880D02*
X63686119Y-106484880D01*
X63686119Y-105484880D01*
X64162309Y-105484880D01*
X64543261Y-106199166D02*
X65019452Y-106199166D01*
X64448023Y-106484880D02*
X64781357Y-105484880D01*
X65114690Y-106484880D01*
X65305166Y-105484880D02*
X65876595Y-105484880D01*
X65590880Y-106484880D02*
X65590880Y-105484880D01*
X66209928Y-105961071D02*
X66543261Y-105961071D01*
X66686119Y-106484880D02*
X66209928Y-106484880D01*
X66209928Y-105484880D01*
X66686119Y-105484880D01*
X67686119Y-106484880D02*
X67352785Y-106008690D01*
X67114690Y-106484880D02*
X67114690Y-105484880D01*
X67495642Y-105484880D01*
X67590880Y-105532500D01*
X67638500Y-105580119D01*
X67686119Y-105675357D01*
X67686119Y-105818214D01*
X67638500Y-105913452D01*
X67590880Y-105961071D01*
X67495642Y-106008690D01*
X67114690Y-106008690D01*
X135313880Y-56542166D02*
X134837690Y-56875500D01*
X135313880Y-57113595D02*
X134313880Y-57113595D01*
X134313880Y-56732642D01*
X134361500Y-56637404D01*
X134409119Y-56589785D01*
X134504357Y-56542166D01*
X134647214Y-56542166D01*
X134742452Y-56589785D01*
X134790071Y-56637404D01*
X134837690Y-56732642D01*
X134837690Y-57113595D01*
X134313880Y-56208833D02*
X135313880Y-55542166D01*
X134313880Y-55542166D02*
X135313880Y-56208833D01*
X134313880Y-53390904D02*
X134313880Y-52819476D01*
X135313880Y-53105190D02*
X134313880Y-53105190D01*
X134313880Y-52581380D02*
X135313880Y-51914714D01*
X134313880Y-51914714D02*
X135313880Y-52581380D01*
X135313880Y-49620547D02*
X135313880Y-50096738D01*
X134313880Y-50096738D01*
X134790071Y-49287214D02*
X134790071Y-48953880D01*
X135313880Y-48811023D02*
X135313880Y-49287214D01*
X134313880Y-49287214D01*
X134313880Y-48811023D01*
X135313880Y-48382452D02*
X134313880Y-48382452D01*
X134313880Y-48144357D01*
X134361500Y-48001500D01*
X134456738Y-47906261D01*
X134551976Y-47858642D01*
X134742452Y-47811023D01*
X134885309Y-47811023D01*
X135075785Y-47858642D01*
X135171023Y-47906261D01*
X135266261Y-48001500D01*
X135313880Y-48144357D01*
X135313880Y-48382452D01*
X135313880Y-46858642D02*
X135313880Y-47430071D01*
X135313880Y-47144357D02*
X134313880Y-47144357D01*
X134456738Y-47239595D01*
X134551976Y-47334833D01*
X134599595Y-47430071D01*
X135313880Y-45501023D02*
X135313880Y-45977214D01*
X134313880Y-45977214D01*
X135313880Y-45167690D02*
X134313880Y-45167690D01*
X134313880Y-44834357D02*
X135313880Y-44501023D01*
X134313880Y-44167690D01*
X134790071Y-43834357D02*
X134790071Y-43501023D01*
X135313880Y-43358166D02*
X135313880Y-43834357D01*
X134313880Y-43834357D01*
X134313880Y-43358166D01*
X67051666Y-71766380D02*
X67385000Y-72766380D01*
X67718333Y-71766380D01*
X68385000Y-72242571D02*
X68527857Y-72290190D01*
X68575476Y-72337809D01*
X68623095Y-72433047D01*
X68623095Y-72575904D01*
X68575476Y-72671142D01*
X68527857Y-72718761D01*
X68432619Y-72766380D01*
X68051666Y-72766380D01*
X68051666Y-71766380D01*
X68385000Y-71766380D01*
X68480238Y-71814000D01*
X68527857Y-71861619D01*
X68575476Y-71956857D01*
X68575476Y-72052095D01*
X68527857Y-72147333D01*
X68480238Y-72194952D01*
X68385000Y-72242571D01*
X68051666Y-72242571D01*
X69051666Y-71766380D02*
X69051666Y-72575904D01*
X69099285Y-72671142D01*
X69146904Y-72718761D01*
X69242142Y-72766380D01*
X69432619Y-72766380D01*
X69527857Y-72718761D01*
X69575476Y-72671142D01*
X69623095Y-72575904D01*
X69623095Y-71766380D01*
X70051666Y-72718761D02*
X70194523Y-72766380D01*
X70432619Y-72766380D01*
X70527857Y-72718761D01*
X70575476Y-72671142D01*
X70623095Y-72575904D01*
X70623095Y-72480666D01*
X70575476Y-72385428D01*
X70527857Y-72337809D01*
X70432619Y-72290190D01*
X70242142Y-72242571D01*
X70146904Y-72194952D01*
X70099285Y-72147333D01*
X70051666Y-72052095D01*
X70051666Y-71956857D01*
X70099285Y-71861619D01*
X70146904Y-71814000D01*
X70242142Y-71766380D01*
X70480238Y-71766380D01*
X70623095Y-71814000D01*
X64948095Y-77402000D02*
X64852857Y-77354380D01*
X64710000Y-77354380D01*
X64567142Y-77402000D01*
X64471904Y-77497238D01*
X64424285Y-77592476D01*
X64376666Y-77782952D01*
X64376666Y-77925809D01*
X64424285Y-78116285D01*
X64471904Y-78211523D01*
X64567142Y-78306761D01*
X64710000Y-78354380D01*
X64805238Y-78354380D01*
X64948095Y-78306761D01*
X64995714Y-78259142D01*
X64995714Y-77925809D01*
X64805238Y-77925809D01*
X65424285Y-78354380D02*
X65424285Y-77354380D01*
X65995714Y-78354380D01*
X65995714Y-77354380D01*
X66471904Y-78354380D02*
X66471904Y-77354380D01*
X66710000Y-77354380D01*
X66852857Y-77402000D01*
X66948095Y-77497238D01*
X66995714Y-77592476D01*
X67043333Y-77782952D01*
X67043333Y-77925809D01*
X66995714Y-78116285D01*
X66948095Y-78211523D01*
X66852857Y-78306761D01*
X66710000Y-78354380D01*
X66471904Y-78354380D01*
X62551095Y-72385428D02*
X63313000Y-72385428D01*
X62932047Y-72766380D02*
X62932047Y-72004476D01*
X63693952Y-71766380D02*
X64313000Y-71766380D01*
X63979666Y-72147333D01*
X64122523Y-72147333D01*
X64217761Y-72194952D01*
X64265380Y-72242571D01*
X64313000Y-72337809D01*
X64313000Y-72575904D01*
X64265380Y-72671142D01*
X64217761Y-72718761D01*
X64122523Y-72766380D01*
X63836809Y-72766380D01*
X63741571Y-72718761D01*
X63693952Y-72671142D01*
X64598714Y-71766380D02*
X64932047Y-72766380D01*
X65265380Y-71766380D01*
X65503476Y-71766380D02*
X66122523Y-71766380D01*
X65789190Y-72147333D01*
X65932047Y-72147333D01*
X66027285Y-72194952D01*
X66074904Y-72242571D01*
X66122523Y-72337809D01*
X66122523Y-72575904D01*
X66074904Y-72671142D01*
X66027285Y-72718761D01*
X65932047Y-72766380D01*
X65646333Y-72766380D01*
X65551095Y-72718761D01*
X65503476Y-72671142D01*
X121000000Y-156295501D02*
X127203655Y-156295501D01*
X121000000Y-130295501D02*
X127203655Y-130295501D01*
D12*
X114969062Y-31669433D02*
X114969062Y-34174613D01*
X114969190Y-71681075D02*
X114969062Y-69175902D01*
X80426570Y-115715503D02*
X65501593Y-94368916D01*
X78274273Y-117232705D02*
X80426570Y-115715503D01*
X93499077Y-134341770D02*
X85154513Y-122424746D01*
X93499077Y-141107068D02*
X93499077Y-134341770D01*
X106501277Y-141107068D02*
X93499077Y-141107068D01*
X106501277Y-134341770D02*
X106501277Y-141107068D01*
X138291803Y-94369115D02*
X134445606Y-94369104D01*
X118250710Y-122137301D02*
X116098403Y-120620099D01*
X114969133Y-31669858D02*
X117968261Y-31669787D01*
X119979681Y-33680973D02*
X119979422Y-36680147D01*
X119979376Y-66671430D02*
X119979422Y-60531985D01*
X119979493Y-66671182D02*
X117474242Y-66671430D01*
X84977992Y-31670142D02*
X84978134Y-34174967D01*
X84978087Y-31669858D02*
X114969062Y-31670142D01*
X79967773Y-36680147D02*
X82472953Y-36680147D01*
X119979422Y-36680147D02*
X117474242Y-36680147D01*
X116099919Y-120633272D02*
X106501029Y-134341664D01*
X93499077Y-134341770D02*
X83900187Y-120633378D01*
X83900435Y-120633272D02*
X81718143Y-122161403D01*
X119542106Y-115717533D02*
X121724398Y-117245665D01*
X104500748Y-135105834D02*
X133844561Y-93198909D01*
X61693674Y-93198909D02*
X66155793Y-93198909D01*
X104500748Y-139106538D02*
X104500748Y-135105834D01*
X133844561Y-93198909D02*
X138306326Y-93198909D01*
X95499252Y-135105834D02*
X95499252Y-139106893D01*
X66155793Y-93198909D02*
X95499394Y-135105834D01*
X103500660Y-139106538D02*
X103500660Y-141106713D01*
X96499694Y-139106538D02*
X96499694Y-141106713D01*
X95499252Y-139106538D02*
X104501102Y-139106538D01*
X119626663Y-60178917D02*
X118427196Y-60179013D01*
X118145176Y-59755521D02*
X119168405Y-57356232D01*
X119450521Y-57180033D02*
X119626805Y-57180168D01*
X134445748Y-94368998D02*
X119520771Y-115715584D01*
X119979380Y-56827139D02*
X119979422Y-36680502D01*
X65531004Y-94399227D02*
X61694028Y-94399227D01*
X84978027Y-71681720D02*
X81978934Y-71681436D01*
X79967791Y-69670296D02*
X79967773Y-66671430D01*
X84978027Y-71681472D02*
X114969417Y-71681436D01*
X79967819Y-66671430D02*
X79967773Y-36680147D01*
X79967880Y-36680431D02*
X79967773Y-33681302D01*
X81979200Y-31669808D02*
X84978134Y-31670142D01*
X117968251Y-71681447D02*
X114969417Y-71681436D01*
X119979454Y-66671136D02*
X119979422Y-69670275D01*
D13*
X75865422Y-45823000D02*
X76382578Y-45823000D01*
X75865422Y-47243000D02*
X76382578Y-47243000D01*
D10*
X71876000Y-46150000D02*
X67476000Y-46150000D01*
X73451000Y-51675000D02*
X67476000Y-51675000D01*
D13*
X84447000Y-131044000D02*
X84447000Y-128284000D01*
X84447000Y-128284000D02*
X84172000Y-128284000D01*
X84447000Y-131044000D02*
X84447000Y-133804000D01*
X84447000Y-133804000D02*
X84172000Y-133804000D01*
X77027000Y-131044000D02*
X77027000Y-128284000D01*
X77027000Y-128284000D02*
X77302000Y-128284000D01*
X77027000Y-131044000D02*
X77027000Y-133804000D01*
X77027000Y-133804000D02*
X77302000Y-133804000D01*
X77302000Y-133804000D02*
X77302000Y-135494000D01*
X133093922Y-57380000D02*
X133611078Y-57380000D01*
X133093922Y-58800000D02*
X133611078Y-58800000D01*
D10*
X69983000Y-168304000D02*
X88017000Y-168304000D01*
X69983000Y-162335000D02*
X69983000Y-168304000D01*
X88017000Y-162335000D02*
X88017000Y-168304000D01*
D14*
X88000000Y-136750000D02*
X88000000Y-162280000D01*
X88000000Y-162280000D02*
X70000000Y-162280000D01*
X70000000Y-162280000D02*
X70000000Y-136750000D01*
X70000000Y-136750000D02*
X88000000Y-136750000D01*
D13*
X122874000Y-163810000D02*
X121414000Y-163810000D01*
X122874000Y-160650000D02*
X120714000Y-160650000D01*
X122874000Y-160650000D02*
X122874000Y-161580000D01*
X122874000Y-163810000D02*
X122874000Y-162880000D01*
X122858000Y-167874000D02*
X122858000Y-166944000D01*
X122858000Y-164714000D02*
X122858000Y-165644000D01*
X122858000Y-164714000D02*
X120698000Y-164714000D01*
X122858000Y-167874000D02*
X121398000Y-167874000D01*
X130475000Y-56377000D02*
X132425000Y-56377000D01*
X130475000Y-56377000D02*
X128525000Y-56377000D01*
X130475000Y-46257000D02*
X132425000Y-46257000D01*
X130475000Y-46257000D02*
X127025000Y-46257000D01*
D10*
X107900000Y-151800000D02*
X92100000Y-151800000D01*
X92450000Y-148200000D02*
X92450000Y-146900000D01*
X107550000Y-148200000D02*
X107550000Y-146900000D01*
X91650000Y-152200000D02*
X91650000Y-148200000D01*
X108350000Y-152200000D02*
X108350000Y-148200000D01*
X108300000Y-152200000D02*
X107900000Y-152200000D01*
X91700000Y-152200000D02*
X92100000Y-152200000D01*
X92450000Y-146900000D02*
X107550000Y-146900000D01*
X108350000Y-148200000D02*
X107550000Y-148200000D01*
X91650000Y-148200000D02*
X92450000Y-148200000D01*
X107900000Y-151800000D02*
X107900000Y-152200000D01*
X92100000Y-151800000D02*
X92100000Y-152200000D01*
D13*
X131230000Y-40560000D02*
X129730000Y-40560000D01*
X131230000Y-40560000D02*
X131230000Y-33300000D01*
X121730000Y-40560000D02*
X121730000Y-33300000D01*
X123230000Y-40560000D02*
X121730000Y-40560000D01*
X118290000Y-158455000D02*
X118290000Y-158565000D01*
X118290000Y-158565000D02*
X118890000Y-158565000D01*
X118290000Y-128025000D02*
X118290000Y-127915000D01*
X118290000Y-127915000D02*
X118890000Y-127915000D01*
X115700000Y-131190000D02*
X116100000Y-130990000D01*
X116100000Y-130990000D02*
X115700000Y-130790000D01*
X115700000Y-130790000D02*
X115700000Y-131190000D01*
D15*
X68850000Y-87698074D02*
G75*
G03X68850000Y-87698074I-350000J0D01*
G01*
D14*
X68500000Y-88048074D02*
X68500000Y-87348074D01*
X68150000Y-87698074D02*
X68850000Y-87698074D01*
D15*
X68800000Y-88048074D02*
X68950000Y-88048074D01*
X68950000Y-88048074D02*
X68950000Y-87848074D01*
X77950000Y-88048074D02*
X77950000Y-87848074D01*
X77800000Y-88048074D02*
X77950000Y-88048074D01*
D14*
X77150000Y-87698074D02*
X77850000Y-87698074D01*
X77500000Y-88048074D02*
X77500000Y-87348074D01*
D15*
X77850000Y-87698074D02*
G75*
G03X77850000Y-87698074I-350000J0D01*
G01*
X86850000Y-87698074D02*
G75*
G03X86850000Y-87698074I-350000J0D01*
G01*
D14*
X86500000Y-88048074D02*
X86500000Y-87348074D01*
X86150000Y-87698074D02*
X86850000Y-87698074D01*
D15*
X86800000Y-88048074D02*
X86950000Y-88048074D01*
X86950000Y-88048074D02*
X86950000Y-87848074D01*
X95950000Y-88048074D02*
X95950000Y-87848074D01*
X95800000Y-88048074D02*
X95950000Y-88048074D01*
D14*
X95150000Y-87698074D02*
X95850000Y-87698074D01*
X95500000Y-88048074D02*
X95500000Y-87348074D01*
D15*
X95850000Y-87698074D02*
G75*
G03X95850000Y-87698074I-350000J0D01*
G01*
X104950000Y-88048074D02*
X104950000Y-87848074D01*
X104800000Y-88048074D02*
X104950000Y-88048074D01*
D14*
X104150000Y-87698074D02*
X104850000Y-87698074D01*
X104500000Y-88048074D02*
X104500000Y-87348074D01*
D15*
X104850000Y-87698074D02*
G75*
G03X104850000Y-87698074I-350000J0D01*
G01*
X113850000Y-87698074D02*
G75*
G03X113850000Y-87698074I-350000J0D01*
G01*
D14*
X113500000Y-88048074D02*
X113500000Y-87348074D01*
X113150000Y-87698074D02*
X113850000Y-87698074D01*
D15*
X113800000Y-88048074D02*
X113950000Y-88048074D01*
X113950000Y-88048074D02*
X113950000Y-87848074D01*
X122950000Y-88048074D02*
X122950000Y-87848074D01*
X122800000Y-88048074D02*
X122950000Y-88048074D01*
D14*
X122150000Y-87698074D02*
X122850000Y-87698074D01*
X122500000Y-88048074D02*
X122500000Y-87348074D01*
D15*
X122850000Y-87698074D02*
G75*
G03X122850000Y-87698074I-350000J0D01*
G01*
X131850000Y-87698074D02*
G75*
G03X131850000Y-87698074I-350000J0D01*
G01*
D14*
X131500000Y-88048074D02*
X131500000Y-87348074D01*
X131150000Y-87698074D02*
X131850000Y-87698074D01*
D15*
X131800000Y-88048074D02*
X131950000Y-88048074D01*
X131950000Y-88048074D02*
X131950000Y-87848074D01*
D13*
X111688578Y-162028000D02*
X111171422Y-162028000D01*
X111688578Y-163448000D02*
X111171422Y-163448000D01*
X111171422Y-157456000D02*
X111688578Y-157456000D01*
X111171422Y-158876000D02*
X111688578Y-158876000D01*
X111688578Y-159742000D02*
X111171422Y-159742000D01*
X111688578Y-161162000D02*
X111171422Y-161162000D01*
X129920000Y-166552578D02*
X129920000Y-166035422D01*
X128500000Y-166552578D02*
X128500000Y-166035422D01*
X128396000Y-162488578D02*
X128396000Y-161971422D01*
X126976000Y-162488578D02*
X126976000Y-161971422D01*
X131167000Y-70081078D02*
X131167000Y-69563922D01*
X132587000Y-70081078D02*
X132587000Y-69563922D01*
X135555422Y-147042000D02*
X136072578Y-147042000D01*
X135555422Y-148462000D02*
X136072578Y-148462000D01*
X128881000Y-70111078D02*
X128881000Y-69593922D01*
X130301000Y-70111078D02*
X130301000Y-69593922D01*
X132178922Y-44972000D02*
X132696078Y-44972000D01*
X132178922Y-43552000D02*
X132696078Y-43552000D01*
X128303922Y-43552000D02*
X128821078Y-43552000D01*
X128303922Y-44972000D02*
X128821078Y-44972000D01*
X133453000Y-61626422D02*
X133453000Y-62143578D01*
X134873000Y-61626422D02*
X134873000Y-62143578D01*
X137159000Y-61641422D02*
X137159000Y-62158578D01*
X135739000Y-61641422D02*
X135739000Y-62158578D01*
X132587000Y-61641422D02*
X132587000Y-62158578D01*
X131167000Y-61641422D02*
X131167000Y-62158578D01*
X128881000Y-61641422D02*
X128881000Y-62158578D01*
X130301000Y-61641422D02*
X130301000Y-62158578D01*
X132587000Y-66174078D02*
X132587000Y-65656922D01*
X131167000Y-66174078D02*
X131167000Y-65656922D01*
X130301000Y-66144078D02*
X130301000Y-65626922D01*
X128881000Y-66144078D02*
X128881000Y-65626922D01*
X136072578Y-129315001D02*
X135555422Y-129315001D01*
X136072578Y-130735001D02*
X135555422Y-130735001D01*
X136072578Y-132968000D02*
X135555422Y-132968000D01*
X136072578Y-131548000D02*
X135555422Y-131548000D01*
X136072578Y-133834000D02*
X135555422Y-133834000D01*
X136072578Y-135254000D02*
X135555422Y-135254000D01*
X126468000Y-118537422D02*
X126468000Y-119054578D01*
X127888000Y-118537422D02*
X127888000Y-119054578D01*
X130174000Y-118537422D02*
X130174000Y-119054578D01*
X128754000Y-118537422D02*
X128754000Y-119054578D01*
X64698578Y-137136000D02*
X64181422Y-137136000D01*
X64698578Y-138556000D02*
X64181422Y-138556000D01*
X64181422Y-135104000D02*
X64698578Y-135104000D01*
X64181422Y-136524000D02*
X64698578Y-136524000D01*
X65254000Y-115498578D02*
X65254000Y-114981422D01*
X66674000Y-115498578D02*
X66674000Y-114981422D01*
X65254000Y-122610578D02*
X65254000Y-122093422D01*
X66674000Y-122610578D02*
X66674000Y-122093422D01*
X68706000Y-115498578D02*
X68706000Y-114981422D01*
X67286000Y-115498578D02*
X67286000Y-114981422D01*
X68706000Y-122610578D02*
X68706000Y-122093422D01*
X67286000Y-122610578D02*
X67286000Y-122093422D01*
X72770000Y-115498578D02*
X72770000Y-114981422D01*
X71350000Y-115498578D02*
X71350000Y-114981422D01*
X72770000Y-122610578D02*
X72770000Y-122093422D01*
X71350000Y-122610578D02*
X71350000Y-122093422D01*
X73382000Y-115498578D02*
X73382000Y-114981422D01*
X74802000Y-115498578D02*
X74802000Y-114981422D01*
X73382000Y-122610578D02*
X73382000Y-122093422D01*
X74802000Y-122610578D02*
X74802000Y-122093422D01*
D10*
X70282000Y-61138000D02*
X73330000Y-61138000D01*
X73330000Y-61138000D02*
X73330000Y-54026000D01*
X73330000Y-54026000D02*
X70282000Y-54026000D01*
X67234000Y-61138000D02*
X66472000Y-61138000D01*
X66472000Y-61138000D02*
X64186000Y-59614000D01*
X64186000Y-59614000D02*
X64186000Y-55550000D01*
X64186000Y-55550000D02*
X66472000Y-54026000D01*
X66472000Y-54026000D02*
X67234000Y-54026000D01*
X66472000Y-61836500D02*
X67234000Y-61836500D01*
X64186000Y-63360500D02*
X66472000Y-61836500D01*
X64186000Y-67424500D02*
X64186000Y-63360500D01*
X66472000Y-68948500D02*
X64186000Y-67424500D01*
X67234000Y-68948500D02*
X66472000Y-68948500D01*
X73330000Y-61836500D02*
X70282000Y-61836500D01*
X73330000Y-68948500D02*
X73330000Y-61836500D01*
X70282000Y-68948500D02*
X73330000Y-68948500D01*
D13*
X76119422Y-62206000D02*
X76636578Y-62206000D01*
X76119422Y-63626000D02*
X76636578Y-63626000D01*
X91162000Y-159431422D02*
X91162000Y-159948578D01*
X92582000Y-159431422D02*
X92582000Y-159948578D01*
X111688578Y-165734000D02*
X111171422Y-165734000D01*
X111688578Y-164314000D02*
X111171422Y-164314000D01*
X76197922Y-64746000D02*
X76715078Y-64746000D01*
X76197922Y-66166000D02*
X76715078Y-66166000D01*
X76119422Y-68706000D02*
X76636578Y-68706000D01*
X76119422Y-67286000D02*
X76636578Y-67286000D01*
X111171422Y-168020000D02*
X111688578Y-168020000D01*
X111171422Y-166600000D02*
X111688578Y-166600000D01*
X124626500Y-162425078D02*
X124626500Y-161907922D01*
X126046500Y-162425078D02*
X126046500Y-161907922D01*
X118340000Y-162425078D02*
X118340000Y-161907922D01*
X119760000Y-162425078D02*
X119760000Y-161907922D01*
X119760000Y-166552578D02*
X119760000Y-166035422D01*
X118340000Y-166552578D02*
X118340000Y-166035422D01*
X136072578Y-150748000D02*
X135555422Y-150748000D01*
X136072578Y-149328000D02*
X135555422Y-149328000D01*
X116054000Y-162410078D02*
X116054000Y-161892922D01*
X117474000Y-162410078D02*
X117474000Y-161892922D01*
X117474000Y-166552578D02*
X117474000Y-166035422D01*
X116054000Y-166552578D02*
X116054000Y-166035422D01*
X127808422Y-122427000D02*
X128325578Y-122427000D01*
X127808422Y-121007000D02*
X128325578Y-121007000D01*
X122425922Y-58800000D02*
X122943078Y-58800000D01*
X122425922Y-57380000D02*
X122943078Y-57380000D01*
X126499078Y-57380000D02*
X125981922Y-57380000D01*
X126499078Y-58800000D02*
X125981922Y-58800000D01*
X72055422Y-70080000D02*
X72572578Y-70080000D01*
X72055422Y-71500000D02*
X72572578Y-71500000D01*
X129537922Y-57380000D02*
X130055078Y-57380000D01*
X129537922Y-58800000D02*
X130055078Y-58800000D01*
X76382578Y-48109000D02*
X75865422Y-48109000D01*
X76382578Y-49529000D02*
X75865422Y-49529000D01*
X110917422Y-141858000D02*
X111434578Y-141858000D01*
X110917422Y-140438000D02*
X111434578Y-140438000D01*
X110917422Y-144144000D02*
X111434578Y-144144000D01*
X110917422Y-142724000D02*
X111434578Y-142724000D01*
X110917422Y-145010000D02*
X111434578Y-145010000D01*
X110917422Y-146430000D02*
X111434578Y-146430000D01*
X77192000Y-56815422D02*
X77192000Y-57332578D01*
X78612000Y-56815422D02*
X78612000Y-57332578D01*
X76453000Y-56815422D02*
X76453000Y-57332578D01*
X75033000Y-56815422D02*
X75033000Y-57332578D01*
X76197922Y-59666000D02*
X76715078Y-59666000D01*
X76197922Y-61086000D02*
X76715078Y-61086000D01*
X74294000Y-130221422D02*
X74294000Y-130738578D01*
X72874000Y-130221422D02*
X72874000Y-130738578D01*
X64642000Y-114981422D02*
X64642000Y-115498578D01*
X63222000Y-114981422D02*
X63222000Y-115498578D01*
X63222000Y-122093422D02*
X63222000Y-122610578D01*
X64642000Y-122093422D02*
X64642000Y-122610578D01*
X69318000Y-114981422D02*
X69318000Y-115498578D01*
X70738000Y-114981422D02*
X70738000Y-115498578D01*
X70738000Y-122093422D02*
X70738000Y-122610578D01*
X69318000Y-122093422D02*
X69318000Y-122610578D01*
X62799000Y-130734000D02*
X62799000Y-132684000D01*
X62799000Y-130734000D02*
X62799000Y-128784000D01*
X71669000Y-130734000D02*
X71669000Y-132684000D01*
X71669000Y-130734000D02*
X71669000Y-127284000D01*
X137460000Y-46185000D02*
X137460000Y-43500000D01*
X135540000Y-46185000D02*
X137460000Y-46185000D01*
X135540000Y-43500000D02*
X135540000Y-46185000D01*
X135540000Y-47500000D02*
X135540000Y-50185000D01*
X135540000Y-50185000D02*
X137460000Y-50185000D01*
X137460000Y-50185000D02*
X137460000Y-47500000D01*
X137460000Y-54185000D02*
X137460000Y-51500000D01*
X135540000Y-54185000D02*
X137460000Y-54185000D01*
X135540000Y-51500000D02*
X135540000Y-54185000D01*
X135540000Y-55500000D02*
X135540000Y-58185000D01*
X135540000Y-58185000D02*
X137460000Y-58185000D01*
X137460000Y-58185000D02*
X137460000Y-55500000D01*
D10*
X121675000Y-67750000D02*
X121675000Y-60250000D01*
X126200000Y-67750000D02*
X121675000Y-67750000D01*
X127475000Y-62175000D02*
X127475000Y-60250000D01*
X126200000Y-60250000D02*
X121675000Y-60250000D01*
X127475000Y-67683000D02*
X127475000Y-65825000D01*
X126200000Y-67100000D02*
X122200000Y-67100000D01*
X126200000Y-60900000D02*
X122200000Y-60900000D01*
X122200000Y-67100000D02*
X122200000Y-60900000D01*
X126950000Y-67750000D02*
X126950000Y-65825000D01*
X126950000Y-62175000D02*
X126950000Y-60250000D01*
X127413000Y-65825000D02*
X126950000Y-65825000D01*
X127413000Y-62175000D02*
X126950000Y-62175000D01*
X126950000Y-67750000D02*
X127475000Y-67750000D01*
X126950000Y-60250000D02*
X127475000Y-60250000D01*
X126200000Y-67750000D02*
X126200000Y-67100000D01*
X126200000Y-60900000D02*
X126200000Y-60317000D01*
X77192000Y-36684000D02*
X77775000Y-36684000D01*
X70342000Y-36684000D02*
X70992000Y-36684000D01*
X77842000Y-37434000D02*
X77842000Y-37959000D01*
X70342000Y-37434000D02*
X70342000Y-37959000D01*
X75917000Y-37897000D02*
X75917000Y-37434000D01*
X72267000Y-37897000D02*
X72267000Y-37434000D01*
X75917000Y-37434000D02*
X77842000Y-37434000D01*
X70342000Y-37434000D02*
X72267000Y-37434000D01*
X70992000Y-32684000D02*
X77192000Y-32684000D01*
X77192000Y-36684000D02*
X77192000Y-32684000D01*
X70992000Y-36684000D02*
X70992000Y-32684000D01*
X70409000Y-37959000D02*
X72267000Y-37959000D01*
X77842000Y-36684000D02*
X77842000Y-32159000D01*
X75917000Y-37959000D02*
X77842000Y-37959000D01*
X70342000Y-36684000D02*
X70342000Y-32159000D01*
X70342000Y-32159000D02*
X77842000Y-32159000D01*
X70342000Y-39017000D02*
X77842000Y-39017000D01*
X70342000Y-43542000D02*
X70342000Y-39017000D01*
X75917000Y-44817000D02*
X77842000Y-44817000D01*
X77842000Y-43542000D02*
X77842000Y-39017000D01*
X70409000Y-44817000D02*
X72267000Y-44817000D01*
X70992000Y-43542000D02*
X70992000Y-39542000D01*
X77192000Y-43542000D02*
X77192000Y-39542000D01*
X70992000Y-39542000D02*
X77192000Y-39542000D01*
X70342000Y-44292000D02*
X72267000Y-44292000D01*
X75917000Y-44292000D02*
X77842000Y-44292000D01*
X72267000Y-44755000D02*
X72267000Y-44292000D01*
X75917000Y-44755000D02*
X75917000Y-44292000D01*
X70342000Y-44292000D02*
X70342000Y-44817000D01*
X77842000Y-44292000D02*
X77842000Y-44817000D01*
X70342000Y-43542000D02*
X70992000Y-43542000D01*
X77192000Y-43542000D02*
X77775000Y-43542000D01*
D13*
X69195000Y-42979000D02*
X68265000Y-42979000D01*
X66035000Y-42979000D02*
X66965000Y-42979000D01*
X66035000Y-42979000D02*
X66035000Y-45139000D01*
X69195000Y-42979000D02*
X69195000Y-44439000D01*
X124260000Y-71796000D02*
X122800000Y-71796000D01*
X124260000Y-68636000D02*
X122100000Y-68636000D01*
X124260000Y-68636000D02*
X124260000Y-69566000D01*
X124260000Y-71796000D02*
X124260000Y-70866000D01*
X66782000Y-98605000D02*
X66782000Y-100065000D01*
X63622000Y-98605000D02*
X63622000Y-100765000D01*
X63622000Y-98605000D02*
X64552000Y-98605000D01*
X66782000Y-98605000D02*
X65852000Y-98605000D01*
X136574000Y-139172000D02*
X135114000Y-139172000D01*
X136574000Y-136012000D02*
X134414000Y-136012000D01*
X136574000Y-136012000D02*
X136574000Y-136942000D01*
X136574000Y-139172000D02*
X136574000Y-138242000D01*
X76884000Y-53447000D02*
X76884000Y-52517000D01*
X76884000Y-50287000D02*
X76884000Y-51217000D01*
X76884000Y-50287000D02*
X74724000Y-50287000D01*
X76884000Y-53447000D02*
X75424000Y-53447000D01*
X66528000Y-110924000D02*
X65598000Y-110924000D01*
X63368000Y-110924000D02*
X64298000Y-110924000D01*
X63368000Y-110924000D02*
X63368000Y-113084000D01*
X66528000Y-110924000D02*
X66528000Y-112384000D01*
X66528000Y-118036000D02*
X65598000Y-118036000D01*
X63368000Y-118036000D02*
X64298000Y-118036000D01*
X63368000Y-118036000D02*
X63368000Y-120196000D01*
X66528000Y-118036000D02*
X66528000Y-119496000D01*
X70272000Y-110940000D02*
X69342000Y-110940000D01*
X67112000Y-110940000D02*
X68042000Y-110940000D01*
X67112000Y-110940000D02*
X67112000Y-113100000D01*
X70272000Y-110940000D02*
X70272000Y-112400000D01*
X70338000Y-118036000D02*
X70338000Y-119496000D01*
X67178000Y-118036000D02*
X67178000Y-120196000D01*
X67178000Y-118036000D02*
X68108000Y-118036000D01*
X70338000Y-118036000D02*
X69408000Y-118036000D01*
X120950000Y-44130000D02*
X120950000Y-56730000D01*
X120950000Y-56730000D02*
X126050000Y-56730000D01*
X126050000Y-56730000D02*
X126050000Y-44130000D01*
X135701000Y-71354000D02*
X134241000Y-71354000D01*
X135701000Y-68194000D02*
X133541000Y-68194000D01*
X135701000Y-68194000D02*
X135701000Y-69124000D01*
X135701000Y-71354000D02*
X135701000Y-70424000D01*
X135701000Y-67544000D02*
X135701000Y-66614000D01*
X135701000Y-64384000D02*
X135701000Y-65314000D01*
X135701000Y-64384000D02*
X133541000Y-64384000D01*
X135701000Y-67544000D02*
X134241000Y-67544000D01*
X62932000Y-46961000D02*
G75*
G02X63632000Y-46261000I700000J0D01*
G01*
X64232000Y-46261000D02*
G75*
G02X64932000Y-46961000I0J-700000D01*
G01*
X64932000Y-48361000D02*
G75*
G02X64232000Y-49061000I-700000J0D01*
G01*
X63632000Y-49061000D02*
G75*
G02X62932000Y-48361000I0J700000D01*
G01*
X64232000Y-49061000D02*
X63632000Y-49061000D01*
X64932000Y-46961000D02*
X64932000Y-48361000D01*
X63632000Y-46261000D02*
X64232000Y-46261000D01*
X62932000Y-48361000D02*
X62932000Y-46961000D01*
X138256000Y-153200000D02*
X137656000Y-153200000D01*
X138256000Y-155700000D02*
X137656000Y-155700000D01*
X138256000Y-153200000D02*
X138256000Y-155700000D01*
X136056000Y-156650000D02*
X136156000Y-156650000D01*
X134556000Y-152250000D02*
X134556000Y-156650000D01*
X137656000Y-153200000D02*
X137656000Y-152250000D01*
X136056000Y-152250000D02*
X136156000Y-152250000D01*
X137656000Y-156650000D02*
X137656000Y-155700000D01*
X126922000Y-167874000D02*
X126922000Y-166944000D01*
X126922000Y-164714000D02*
X126922000Y-165644000D01*
X126922000Y-164714000D02*
X124762000Y-164714000D01*
X126922000Y-167874000D02*
X125462000Y-167874000D01*
X91131000Y-164418936D02*
X91131000Y-165623064D01*
X89311000Y-164418936D02*
X89311000Y-165623064D01*
X76029936Y-71446000D02*
X77234064Y-71446000D01*
X76029936Y-69626000D02*
X77234064Y-69626000D01*
X76326000Y-130221422D02*
X76326000Y-130738578D01*
X74906000Y-130221422D02*
X74906000Y-130738578D01*
X74341422Y-126595000D02*
X74858578Y-126595000D01*
X74341422Y-128015000D02*
X74858578Y-128015000D01*
D10*
X78898904Y-46539285D02*
X78517952Y-46805952D01*
X78898904Y-46996428D02*
X78098904Y-46996428D01*
X78098904Y-46691666D01*
X78137000Y-46615476D01*
X78175095Y-46577380D01*
X78251285Y-46539285D01*
X78365571Y-46539285D01*
X78441761Y-46577380D01*
X78479857Y-46615476D01*
X78517952Y-46691666D01*
X78517952Y-46996428D01*
X78098904Y-46272619D02*
X78098904Y-45777380D01*
X78403666Y-46044047D01*
X78403666Y-45929761D01*
X78441761Y-45853571D01*
X78479857Y-45815476D01*
X78556047Y-45777380D01*
X78746523Y-45777380D01*
X78822714Y-45815476D01*
X78860809Y-45853571D01*
X78898904Y-45929761D01*
X78898904Y-46158333D01*
X78860809Y-46234523D01*
X78822714Y-46272619D01*
X78898904Y-45015476D02*
X78898904Y-45472619D01*
X78898904Y-45244047D02*
X78098904Y-45244047D01*
X78213190Y-45320238D01*
X78289380Y-45396428D01*
X78327476Y-45472619D01*
X70821904Y-52208380D02*
X70821904Y-53017904D01*
X70869523Y-53113142D01*
X70917142Y-53160761D01*
X71012380Y-53208380D01*
X71202857Y-53208380D01*
X71298095Y-53160761D01*
X71345714Y-53113142D01*
X71393333Y-53017904D01*
X71393333Y-52208380D01*
X72393333Y-53208380D02*
X71821904Y-53208380D01*
X72107619Y-53208380D02*
X72107619Y-52208380D01*
X72012380Y-52351238D01*
X71917142Y-52446476D01*
X71821904Y-52494095D01*
X73250476Y-52541714D02*
X73250476Y-53208380D01*
X73012380Y-52160761D02*
X72774285Y-52875047D01*
X73393333Y-52875047D01*
X85014095Y-126757380D02*
X85014095Y-127566904D01*
X85061714Y-127662142D01*
X85109333Y-127709761D01*
X85204571Y-127757380D01*
X85395047Y-127757380D01*
X85490285Y-127709761D01*
X85537904Y-127662142D01*
X85585523Y-127566904D01*
X85585523Y-126757380D01*
X85966476Y-126757380D02*
X86633142Y-126757380D01*
X86204571Y-127757380D01*
X132569214Y-59899714D02*
X132531119Y-59937809D01*
X132416833Y-59975904D01*
X132340642Y-59975904D01*
X132226357Y-59937809D01*
X132150166Y-59861619D01*
X132112071Y-59785428D01*
X132073976Y-59633047D01*
X132073976Y-59518761D01*
X132112071Y-59366380D01*
X132150166Y-59290190D01*
X132226357Y-59214000D01*
X132340642Y-59175904D01*
X132416833Y-59175904D01*
X132531119Y-59214000D01*
X132569214Y-59252095D01*
X133331119Y-59975904D02*
X132873976Y-59975904D01*
X133102547Y-59975904D02*
X133102547Y-59175904D01*
X133026357Y-59290190D01*
X132950166Y-59366380D01*
X132873976Y-59404476D01*
X133788261Y-59518761D02*
X133712071Y-59480666D01*
X133673976Y-59442571D01*
X133635880Y-59366380D01*
X133635880Y-59328285D01*
X133673976Y-59252095D01*
X133712071Y-59214000D01*
X133788261Y-59175904D01*
X133940642Y-59175904D01*
X134016833Y-59214000D01*
X134054928Y-59252095D01*
X134093023Y-59328285D01*
X134093023Y-59366380D01*
X134054928Y-59442571D01*
X134016833Y-59480666D01*
X133940642Y-59518761D01*
X133788261Y-59518761D01*
X133712071Y-59556857D01*
X133673976Y-59594952D01*
X133635880Y-59671142D01*
X133635880Y-59823523D01*
X133673976Y-59899714D01*
X133712071Y-59937809D01*
X133788261Y-59975904D01*
X133940642Y-59975904D01*
X134016833Y-59937809D01*
X134054928Y-59899714D01*
X134093023Y-59823523D01*
X134093023Y-59671142D01*
X134054928Y-59594952D01*
X134016833Y-59556857D01*
X133940642Y-59518761D01*
X80761904Y-82100880D02*
X80761904Y-81100880D01*
X80761904Y-81577071D02*
X81333333Y-81577071D01*
X81333333Y-82100880D02*
X81333333Y-81100880D01*
X82333333Y-82100880D02*
X81761904Y-82100880D01*
X82047619Y-82100880D02*
X82047619Y-81100880D01*
X81952380Y-81243738D01*
X81857142Y-81338976D01*
X81761904Y-81386595D01*
X83285714Y-82100880D02*
X82714285Y-82100880D01*
X83000000Y-82100880D02*
X83000000Y-81100880D01*
X82904761Y-81243738D01*
X82809523Y-81338976D01*
X82714285Y-81386595D01*
X116761904Y-82100880D02*
X116761904Y-81100880D01*
X116761904Y-81577071D02*
X117333333Y-81577071D01*
X117333333Y-82100880D02*
X117333333Y-81100880D01*
X118333333Y-82100880D02*
X117761904Y-82100880D01*
X118047619Y-82100880D02*
X118047619Y-81100880D01*
X117952380Y-81243738D01*
X117857142Y-81338976D01*
X117761904Y-81386595D01*
X118714285Y-81196119D02*
X118761904Y-81148500D01*
X118857142Y-81100880D01*
X119095238Y-81100880D01*
X119190476Y-81148500D01*
X119238095Y-81196119D01*
X119285714Y-81291357D01*
X119285714Y-81386595D01*
X119238095Y-81529452D01*
X118666666Y-82100880D01*
X119285714Y-82100880D01*
X86220595Y-135139380D02*
X86220595Y-135948904D01*
X86268214Y-136044142D01*
X86315833Y-136091761D01*
X86411071Y-136139380D01*
X86601547Y-136139380D01*
X86696785Y-136091761D01*
X86744404Y-136044142D01*
X86792023Y-135948904D01*
X86792023Y-135139380D01*
X87792023Y-136139380D02*
X87220595Y-136139380D01*
X87506309Y-136139380D02*
X87506309Y-135139380D01*
X87411071Y-135282238D01*
X87315833Y-135377476D01*
X87220595Y-135425095D01*
X121844095Y-159205880D02*
X121844095Y-160015404D01*
X121891714Y-160110642D01*
X121939333Y-160158261D01*
X122034571Y-160205880D01*
X122225047Y-160205880D01*
X122320285Y-160158261D01*
X122367904Y-160110642D01*
X122415523Y-160015404D01*
X122415523Y-159205880D01*
X123320285Y-159539214D02*
X123320285Y-160205880D01*
X123082190Y-159158261D02*
X122844095Y-159872547D01*
X123463142Y-159872547D01*
X121717095Y-168286380D02*
X121717095Y-169095904D01*
X121764714Y-169191142D01*
X121812333Y-169238761D01*
X121907571Y-169286380D01*
X122098047Y-169286380D01*
X122193285Y-169238761D01*
X122240904Y-169191142D01*
X122288523Y-169095904D01*
X122288523Y-168286380D01*
X123240904Y-168286380D02*
X122764714Y-168286380D01*
X122717095Y-168762571D01*
X122764714Y-168714952D01*
X122859952Y-168667333D01*
X123098047Y-168667333D01*
X123193285Y-168714952D01*
X123240904Y-168762571D01*
X123288523Y-168857809D01*
X123288523Y-169095904D01*
X123240904Y-169191142D01*
X123193285Y-169238761D01*
X123098047Y-169286380D01*
X122859952Y-169286380D01*
X122764714Y-169238761D01*
X122717095Y-169191142D01*
X129553023Y-45269404D02*
X129553023Y-45917023D01*
X129591119Y-45993214D01*
X129629214Y-46031309D01*
X129705404Y-46069404D01*
X129857785Y-46069404D01*
X129933976Y-46031309D01*
X129972071Y-45993214D01*
X130010166Y-45917023D01*
X130010166Y-45269404D01*
X130810166Y-46069404D02*
X130353023Y-46069404D01*
X130581595Y-46069404D02*
X130581595Y-45269404D01*
X130505404Y-45383690D01*
X130429214Y-45459880D01*
X130353023Y-45497976D01*
X131076833Y-45269404D02*
X131572071Y-45269404D01*
X131305404Y-45574166D01*
X131419690Y-45574166D01*
X131495880Y-45612261D01*
X131533976Y-45650357D01*
X131572071Y-45726547D01*
X131572071Y-45917023D01*
X131533976Y-45993214D01*
X131495880Y-46031309D01*
X131419690Y-46069404D01*
X131191119Y-46069404D01*
X131114928Y-46031309D01*
X131076833Y-45993214D01*
X109358404Y-150903142D02*
X109310785Y-150950761D01*
X109167928Y-150998380D01*
X109072690Y-150998380D01*
X108929833Y-150950761D01*
X108834595Y-150855523D01*
X108786976Y-150760285D01*
X108739357Y-150569809D01*
X108739357Y-150426952D01*
X108786976Y-150236476D01*
X108834595Y-150141238D01*
X108929833Y-150046000D01*
X109072690Y-149998380D01*
X109167928Y-149998380D01*
X109310785Y-150046000D01*
X109358404Y-150093619D01*
X109786976Y-150998380D02*
X109786976Y-149998380D01*
X110120309Y-150712666D01*
X110453642Y-149998380D01*
X110453642Y-150998380D01*
X111453642Y-150998380D02*
X110882214Y-150998380D01*
X111167928Y-150998380D02*
X111167928Y-149998380D01*
X111072690Y-150141238D01*
X110977452Y-150236476D01*
X110882214Y-150284095D01*
X132559666Y-38365380D02*
X132559666Y-39079666D01*
X132512047Y-39222523D01*
X132416809Y-39317761D01*
X132273952Y-39365380D01*
X132178714Y-39365380D01*
X133559666Y-39365380D02*
X132988238Y-39365380D01*
X133273952Y-39365380D02*
X133273952Y-38365380D01*
X133178714Y-38508238D01*
X133083476Y-38603476D01*
X132988238Y-38651095D01*
X112430166Y-129106880D02*
X112430166Y-129821166D01*
X112382547Y-129964023D01*
X112287309Y-130059261D01*
X112144452Y-130106880D01*
X112049214Y-130106880D01*
X112811119Y-129106880D02*
X113430166Y-129106880D01*
X113096833Y-129487833D01*
X113239690Y-129487833D01*
X113334928Y-129535452D01*
X113382547Y-129583071D01*
X113430166Y-129678309D01*
X113430166Y-129916404D01*
X113382547Y-130011642D01*
X113334928Y-130059261D01*
X113239690Y-130106880D01*
X112953976Y-130106880D01*
X112858738Y-130059261D01*
X112811119Y-130011642D01*
X67761904Y-82100880D02*
X67761904Y-81100880D01*
X68000000Y-81100880D01*
X68142857Y-81148500D01*
X68238095Y-81243738D01*
X68285714Y-81338976D01*
X68333333Y-81529452D01*
X68333333Y-81672309D01*
X68285714Y-81862785D01*
X68238095Y-81958023D01*
X68142857Y-82053261D01*
X68000000Y-82100880D01*
X67761904Y-82100880D01*
X69285714Y-82100880D02*
X68714285Y-82100880D01*
X69000000Y-82100880D02*
X69000000Y-81100880D01*
X68904761Y-81243738D01*
X68809523Y-81338976D01*
X68714285Y-81386595D01*
X76761904Y-82100880D02*
X76761904Y-81100880D01*
X77000000Y-81100880D01*
X77142857Y-81148500D01*
X77238095Y-81243738D01*
X77285714Y-81338976D01*
X77333333Y-81529452D01*
X77333333Y-81672309D01*
X77285714Y-81862785D01*
X77238095Y-81958023D01*
X77142857Y-82053261D01*
X77000000Y-82100880D01*
X76761904Y-82100880D01*
X77714285Y-81196119D02*
X77761904Y-81148500D01*
X77857142Y-81100880D01*
X78095238Y-81100880D01*
X78190476Y-81148500D01*
X78238095Y-81196119D01*
X78285714Y-81291357D01*
X78285714Y-81386595D01*
X78238095Y-81529452D01*
X77666666Y-82100880D01*
X78285714Y-82100880D01*
X85761904Y-82100880D02*
X85761904Y-81100880D01*
X86000000Y-81100880D01*
X86142857Y-81148500D01*
X86238095Y-81243738D01*
X86285714Y-81338976D01*
X86333333Y-81529452D01*
X86333333Y-81672309D01*
X86285714Y-81862785D01*
X86238095Y-81958023D01*
X86142857Y-82053261D01*
X86000000Y-82100880D01*
X85761904Y-82100880D01*
X86666666Y-81100880D02*
X87285714Y-81100880D01*
X86952380Y-81481833D01*
X87095238Y-81481833D01*
X87190476Y-81529452D01*
X87238095Y-81577071D01*
X87285714Y-81672309D01*
X87285714Y-81910404D01*
X87238095Y-82005642D01*
X87190476Y-82053261D01*
X87095238Y-82100880D01*
X86809523Y-82100880D01*
X86714285Y-82053261D01*
X86666666Y-82005642D01*
X94761904Y-82100880D02*
X94761904Y-81100880D01*
X95000000Y-81100880D01*
X95142857Y-81148500D01*
X95238095Y-81243738D01*
X95285714Y-81338976D01*
X95333333Y-81529452D01*
X95333333Y-81672309D01*
X95285714Y-81862785D01*
X95238095Y-81958023D01*
X95142857Y-82053261D01*
X95000000Y-82100880D01*
X94761904Y-82100880D01*
X96190476Y-81434214D02*
X96190476Y-82100880D01*
X95952380Y-81053261D02*
X95714285Y-81767547D01*
X96333333Y-81767547D01*
X103761904Y-82100880D02*
X103761904Y-81100880D01*
X104000000Y-81100880D01*
X104142857Y-81148500D01*
X104238095Y-81243738D01*
X104285714Y-81338976D01*
X104333333Y-81529452D01*
X104333333Y-81672309D01*
X104285714Y-81862785D01*
X104238095Y-81958023D01*
X104142857Y-82053261D01*
X104000000Y-82100880D01*
X103761904Y-82100880D01*
X105238095Y-81100880D02*
X104761904Y-81100880D01*
X104714285Y-81577071D01*
X104761904Y-81529452D01*
X104857142Y-81481833D01*
X105095238Y-81481833D01*
X105190476Y-81529452D01*
X105238095Y-81577071D01*
X105285714Y-81672309D01*
X105285714Y-81910404D01*
X105238095Y-82005642D01*
X105190476Y-82053261D01*
X105095238Y-82100880D01*
X104857142Y-82100880D01*
X104761904Y-82053261D01*
X104714285Y-82005642D01*
X112761904Y-82100880D02*
X112761904Y-81100880D01*
X113000000Y-81100880D01*
X113142857Y-81148500D01*
X113238095Y-81243738D01*
X113285714Y-81338976D01*
X113333333Y-81529452D01*
X113333333Y-81672309D01*
X113285714Y-81862785D01*
X113238095Y-81958023D01*
X113142857Y-82053261D01*
X113000000Y-82100880D01*
X112761904Y-82100880D01*
X114190476Y-81100880D02*
X114000000Y-81100880D01*
X113904761Y-81148500D01*
X113857142Y-81196119D01*
X113761904Y-81338976D01*
X113714285Y-81529452D01*
X113714285Y-81910404D01*
X113761904Y-82005642D01*
X113809523Y-82053261D01*
X113904761Y-82100880D01*
X114095238Y-82100880D01*
X114190476Y-82053261D01*
X114238095Y-82005642D01*
X114285714Y-81910404D01*
X114285714Y-81672309D01*
X114238095Y-81577071D01*
X114190476Y-81529452D01*
X114095238Y-81481833D01*
X113904761Y-81481833D01*
X113809523Y-81529452D01*
X113761904Y-81577071D01*
X113714285Y-81672309D01*
X121761904Y-82100880D02*
X121761904Y-81100880D01*
X122000000Y-81100880D01*
X122142857Y-81148500D01*
X122238095Y-81243738D01*
X122285714Y-81338976D01*
X122333333Y-81529452D01*
X122333333Y-81672309D01*
X122285714Y-81862785D01*
X122238095Y-81958023D01*
X122142857Y-82053261D01*
X122000000Y-82100880D01*
X121761904Y-82100880D01*
X122666666Y-81100880D02*
X123333333Y-81100880D01*
X122904761Y-82100880D01*
X130761904Y-82100880D02*
X130761904Y-81100880D01*
X131000000Y-81100880D01*
X131142857Y-81148500D01*
X131238095Y-81243738D01*
X131285714Y-81338976D01*
X131333333Y-81529452D01*
X131333333Y-81672309D01*
X131285714Y-81862785D01*
X131238095Y-81958023D01*
X131142857Y-82053261D01*
X131000000Y-82100880D01*
X130761904Y-82100880D01*
X131904761Y-81529452D02*
X131809523Y-81481833D01*
X131761904Y-81434214D01*
X131714285Y-81338976D01*
X131714285Y-81291357D01*
X131761904Y-81196119D01*
X131809523Y-81148500D01*
X131904761Y-81100880D01*
X132095238Y-81100880D01*
X132190476Y-81148500D01*
X132238095Y-81196119D01*
X132285714Y-81291357D01*
X132285714Y-81338976D01*
X132238095Y-81434214D01*
X132190476Y-81481833D01*
X132095238Y-81529452D01*
X131904761Y-81529452D01*
X131809523Y-81577071D01*
X131761904Y-81624690D01*
X131714285Y-81719928D01*
X131714285Y-81910404D01*
X131761904Y-82005642D01*
X131809523Y-82053261D01*
X131904761Y-82100880D01*
X132095238Y-82100880D01*
X132190476Y-82053261D01*
X132238095Y-82005642D01*
X132285714Y-81910404D01*
X132285714Y-81719928D01*
X132238095Y-81624690D01*
X132190476Y-81577071D01*
X132095238Y-81529452D01*
X113930333Y-163126880D02*
X113597000Y-162650690D01*
X113358904Y-163126880D02*
X113358904Y-162126880D01*
X113739857Y-162126880D01*
X113835095Y-162174500D01*
X113882714Y-162222119D01*
X113930333Y-162317357D01*
X113930333Y-162460214D01*
X113882714Y-162555452D01*
X113835095Y-162603071D01*
X113739857Y-162650690D01*
X113358904Y-162650690D01*
X114311285Y-162222119D02*
X114358904Y-162174500D01*
X114454142Y-162126880D01*
X114692238Y-162126880D01*
X114787476Y-162174500D01*
X114835095Y-162222119D01*
X114882714Y-162317357D01*
X114882714Y-162412595D01*
X114835095Y-162555452D01*
X114263666Y-163126880D01*
X114882714Y-163126880D01*
X108532833Y-158745380D02*
X108199500Y-158269190D01*
X107961404Y-158745380D02*
X107961404Y-157745380D01*
X108342357Y-157745380D01*
X108437595Y-157793000D01*
X108485214Y-157840619D01*
X108532833Y-157935857D01*
X108532833Y-158078714D01*
X108485214Y-158173952D01*
X108437595Y-158221571D01*
X108342357Y-158269190D01*
X107961404Y-158269190D01*
X108866166Y-157745380D02*
X109485214Y-157745380D01*
X109151880Y-158126333D01*
X109294738Y-158126333D01*
X109389976Y-158173952D01*
X109437595Y-158221571D01*
X109485214Y-158316809D01*
X109485214Y-158554904D01*
X109437595Y-158650142D01*
X109389976Y-158697761D01*
X109294738Y-158745380D01*
X109009023Y-158745380D01*
X108913785Y-158697761D01*
X108866166Y-158650142D01*
X108532833Y-160967880D02*
X108199500Y-160491690D01*
X107961404Y-160967880D02*
X107961404Y-159967880D01*
X108342357Y-159967880D01*
X108437595Y-160015500D01*
X108485214Y-160063119D01*
X108532833Y-160158357D01*
X108532833Y-160301214D01*
X108485214Y-160396452D01*
X108437595Y-160444071D01*
X108342357Y-160491690D01*
X107961404Y-160491690D01*
X109389976Y-160301214D02*
X109389976Y-160967880D01*
X109151880Y-159920261D02*
X108913785Y-160634547D01*
X109532833Y-160634547D01*
X129106833Y-169349880D02*
X128773500Y-168873690D01*
X128535404Y-169349880D02*
X128535404Y-168349880D01*
X128916357Y-168349880D01*
X129011595Y-168397500D01*
X129059214Y-168445119D01*
X129106833Y-168540357D01*
X129106833Y-168683214D01*
X129059214Y-168778452D01*
X129011595Y-168826071D01*
X128916357Y-168873690D01*
X128535404Y-168873690D01*
X130011595Y-168349880D02*
X129535404Y-168349880D01*
X129487785Y-168826071D01*
X129535404Y-168778452D01*
X129630642Y-168730833D01*
X129868738Y-168730833D01*
X129963976Y-168778452D01*
X130011595Y-168826071D01*
X130059214Y-168921309D01*
X130059214Y-169159404D01*
X130011595Y-169254642D01*
X129963976Y-169302261D01*
X129868738Y-169349880D01*
X129630642Y-169349880D01*
X129535404Y-169302261D01*
X129487785Y-169254642D01*
X127455833Y-160269380D02*
X127122500Y-159793190D01*
X126884404Y-160269380D02*
X126884404Y-159269380D01*
X127265357Y-159269380D01*
X127360595Y-159317000D01*
X127408214Y-159364619D01*
X127455833Y-159459857D01*
X127455833Y-159602714D01*
X127408214Y-159697952D01*
X127360595Y-159745571D01*
X127265357Y-159793190D01*
X126884404Y-159793190D01*
X128312976Y-159269380D02*
X128122500Y-159269380D01*
X128027261Y-159317000D01*
X127979642Y-159364619D01*
X127884404Y-159507476D01*
X127836785Y-159697952D01*
X127836785Y-160078904D01*
X127884404Y-160174142D01*
X127932023Y-160221761D01*
X128027261Y-160269380D01*
X128217738Y-160269380D01*
X128312976Y-160221761D01*
X128360595Y-160174142D01*
X128408214Y-160078904D01*
X128408214Y-159840809D01*
X128360595Y-159745571D01*
X128312976Y-159697952D01*
X128217738Y-159650333D01*
X128027261Y-159650333D01*
X127932023Y-159697952D01*
X127884404Y-159745571D01*
X127836785Y-159840809D01*
X131680166Y-72421904D02*
X131413500Y-72040952D01*
X131223023Y-72421904D02*
X131223023Y-71621904D01*
X131527785Y-71621904D01*
X131603976Y-71660000D01*
X131642071Y-71698095D01*
X131680166Y-71774285D01*
X131680166Y-71888571D01*
X131642071Y-71964761D01*
X131603976Y-72002857D01*
X131527785Y-72040952D01*
X131223023Y-72040952D01*
X131946833Y-71621904D02*
X132480166Y-71621904D01*
X132137309Y-72421904D01*
X132789833Y-148267880D02*
X132456500Y-147791690D01*
X132218404Y-148267880D02*
X132218404Y-147267880D01*
X132599357Y-147267880D01*
X132694595Y-147315500D01*
X132742214Y-147363119D01*
X132789833Y-147458357D01*
X132789833Y-147601214D01*
X132742214Y-147696452D01*
X132694595Y-147744071D01*
X132599357Y-147791690D01*
X132218404Y-147791690D01*
X133361261Y-147696452D02*
X133266023Y-147648833D01*
X133218404Y-147601214D01*
X133170785Y-147505976D01*
X133170785Y-147458357D01*
X133218404Y-147363119D01*
X133266023Y-147315500D01*
X133361261Y-147267880D01*
X133551738Y-147267880D01*
X133646976Y-147315500D01*
X133694595Y-147363119D01*
X133742214Y-147458357D01*
X133742214Y-147505976D01*
X133694595Y-147601214D01*
X133646976Y-147648833D01*
X133551738Y-147696452D01*
X133361261Y-147696452D01*
X133266023Y-147744071D01*
X133218404Y-147791690D01*
X133170785Y-147886928D01*
X133170785Y-148077404D01*
X133218404Y-148172642D01*
X133266023Y-148220261D01*
X133361261Y-148267880D01*
X133551738Y-148267880D01*
X133646976Y-148220261D01*
X133694595Y-148172642D01*
X133742214Y-148077404D01*
X133742214Y-147886928D01*
X133694595Y-147791690D01*
X133646976Y-147744071D01*
X133551738Y-147696452D01*
X129521166Y-72485404D02*
X129254500Y-72104452D01*
X129064023Y-72485404D02*
X129064023Y-71685404D01*
X129368785Y-71685404D01*
X129444976Y-71723500D01*
X129483071Y-71761595D01*
X129521166Y-71837785D01*
X129521166Y-71952071D01*
X129483071Y-72028261D01*
X129444976Y-72066357D01*
X129368785Y-72104452D01*
X129064023Y-72104452D01*
X129902119Y-72485404D02*
X130054500Y-72485404D01*
X130130690Y-72447309D01*
X130168785Y-72409214D01*
X130244976Y-72294928D01*
X130283071Y-72142547D01*
X130283071Y-71837785D01*
X130244976Y-71761595D01*
X130206880Y-71723500D01*
X130130690Y-71685404D01*
X129978309Y-71685404D01*
X129902119Y-71723500D01*
X129864023Y-71761595D01*
X129825928Y-71837785D01*
X129825928Y-72028261D01*
X129864023Y-72104452D01*
X129902119Y-72142547D01*
X129978309Y-72180642D01*
X130130690Y-72180642D01*
X130206880Y-72142547D01*
X130244976Y-72104452D01*
X130283071Y-72028261D01*
X131923214Y-42973904D02*
X131656547Y-42592952D01*
X131466071Y-42973904D02*
X131466071Y-42173904D01*
X131770833Y-42173904D01*
X131847023Y-42212000D01*
X131885119Y-42250095D01*
X131923214Y-42326285D01*
X131923214Y-42440571D01*
X131885119Y-42516761D01*
X131847023Y-42554857D01*
X131770833Y-42592952D01*
X131466071Y-42592952D01*
X132685119Y-42973904D02*
X132227976Y-42973904D01*
X132456547Y-42973904D02*
X132456547Y-42173904D01*
X132380357Y-42288190D01*
X132304166Y-42364380D01*
X132227976Y-42402476D01*
X133142261Y-42516761D02*
X133066071Y-42478666D01*
X133027976Y-42440571D01*
X132989880Y-42364380D01*
X132989880Y-42326285D01*
X133027976Y-42250095D01*
X133066071Y-42212000D01*
X133142261Y-42173904D01*
X133294642Y-42173904D01*
X133370833Y-42212000D01*
X133408928Y-42250095D01*
X133447023Y-42326285D01*
X133447023Y-42364380D01*
X133408928Y-42440571D01*
X133370833Y-42478666D01*
X133294642Y-42516761D01*
X133142261Y-42516761D01*
X133066071Y-42554857D01*
X133027976Y-42592952D01*
X132989880Y-42669142D01*
X132989880Y-42821523D01*
X133027976Y-42897714D01*
X133066071Y-42935809D01*
X133142261Y-42973904D01*
X133294642Y-42973904D01*
X133370833Y-42935809D01*
X133408928Y-42897714D01*
X133447023Y-42821523D01*
X133447023Y-42669142D01*
X133408928Y-42592952D01*
X133370833Y-42554857D01*
X133294642Y-42516761D01*
X128568714Y-42957904D02*
X128302047Y-42576952D01*
X128111571Y-42957904D02*
X128111571Y-42157904D01*
X128416333Y-42157904D01*
X128492523Y-42196000D01*
X128530619Y-42234095D01*
X128568714Y-42310285D01*
X128568714Y-42424571D01*
X128530619Y-42500761D01*
X128492523Y-42538857D01*
X128416333Y-42576952D01*
X128111571Y-42576952D01*
X129330619Y-42957904D02*
X128873476Y-42957904D01*
X129102047Y-42957904D02*
X129102047Y-42157904D01*
X129025857Y-42272190D01*
X128949666Y-42348380D01*
X128873476Y-42386476D01*
X129711571Y-42957904D02*
X129863952Y-42957904D01*
X129940142Y-42919809D01*
X129978238Y-42881714D01*
X130054428Y-42767428D01*
X130092523Y-42615047D01*
X130092523Y-42310285D01*
X130054428Y-42234095D01*
X130016333Y-42196000D01*
X129940142Y-42157904D01*
X129787761Y-42157904D01*
X129711571Y-42196000D01*
X129673476Y-42234095D01*
X129635380Y-42310285D01*
X129635380Y-42500761D01*
X129673476Y-42576952D01*
X129711571Y-42615047D01*
X129787761Y-42653142D01*
X129940142Y-42653142D01*
X130016333Y-42615047D01*
X130054428Y-42576952D01*
X130092523Y-42500761D01*
X133775714Y-64230404D02*
X133509047Y-63849452D01*
X133318571Y-64230404D02*
X133318571Y-63430404D01*
X133623333Y-63430404D01*
X133699523Y-63468500D01*
X133737619Y-63506595D01*
X133775714Y-63582785D01*
X133775714Y-63697071D01*
X133737619Y-63773261D01*
X133699523Y-63811357D01*
X133623333Y-63849452D01*
X133318571Y-63849452D01*
X134080476Y-63506595D02*
X134118571Y-63468500D01*
X134194761Y-63430404D01*
X134385238Y-63430404D01*
X134461428Y-63468500D01*
X134499523Y-63506595D01*
X134537619Y-63582785D01*
X134537619Y-63658976D01*
X134499523Y-63773261D01*
X134042380Y-64230404D01*
X134537619Y-64230404D01*
X134842380Y-63506595D02*
X134880476Y-63468500D01*
X134956666Y-63430404D01*
X135147142Y-63430404D01*
X135223333Y-63468500D01*
X135261428Y-63506595D01*
X135299523Y-63582785D01*
X135299523Y-63658976D01*
X135261428Y-63773261D01*
X134804285Y-64230404D01*
X135299523Y-64230404D01*
X138271404Y-62541285D02*
X137890452Y-62807952D01*
X138271404Y-62998428D02*
X137471404Y-62998428D01*
X137471404Y-62693666D01*
X137509500Y-62617476D01*
X137547595Y-62579380D01*
X137623785Y-62541285D01*
X137738071Y-62541285D01*
X137814261Y-62579380D01*
X137852357Y-62617476D01*
X137890452Y-62693666D01*
X137890452Y-62998428D01*
X137547595Y-62236523D02*
X137509500Y-62198428D01*
X137471404Y-62122238D01*
X137471404Y-61931761D01*
X137509500Y-61855571D01*
X137547595Y-61817476D01*
X137623785Y-61779380D01*
X137699976Y-61779380D01*
X137814261Y-61817476D01*
X138271404Y-62274619D01*
X138271404Y-61779380D01*
X137471404Y-61512714D02*
X137471404Y-61017476D01*
X137776166Y-61284142D01*
X137776166Y-61169857D01*
X137814261Y-61093666D01*
X137852357Y-61055571D01*
X137928547Y-61017476D01*
X138119023Y-61017476D01*
X138195214Y-61055571D01*
X138233309Y-61093666D01*
X138271404Y-61169857D01*
X138271404Y-61398428D01*
X138233309Y-61474619D01*
X138195214Y-61512714D01*
X131362714Y-64293904D02*
X131096047Y-63912952D01*
X130905571Y-64293904D02*
X130905571Y-63493904D01*
X131210333Y-63493904D01*
X131286523Y-63532000D01*
X131324619Y-63570095D01*
X131362714Y-63646285D01*
X131362714Y-63760571D01*
X131324619Y-63836761D01*
X131286523Y-63874857D01*
X131210333Y-63912952D01*
X130905571Y-63912952D01*
X131667476Y-63570095D02*
X131705571Y-63532000D01*
X131781761Y-63493904D01*
X131972238Y-63493904D01*
X132048428Y-63532000D01*
X132086523Y-63570095D01*
X132124619Y-63646285D01*
X132124619Y-63722476D01*
X132086523Y-63836761D01*
X131629380Y-64293904D01*
X132124619Y-64293904D01*
X132810333Y-63760571D02*
X132810333Y-64293904D01*
X132619857Y-63455809D02*
X132429380Y-64027238D01*
X132924619Y-64027238D01*
X128492404Y-62604785D02*
X128111452Y-62871452D01*
X128492404Y-63061928D02*
X127692404Y-63061928D01*
X127692404Y-62757166D01*
X127730500Y-62680976D01*
X127768595Y-62642880D01*
X127844785Y-62604785D01*
X127959071Y-62604785D01*
X128035261Y-62642880D01*
X128073357Y-62680976D01*
X128111452Y-62757166D01*
X128111452Y-63061928D01*
X127768595Y-62300023D02*
X127730500Y-62261928D01*
X127692404Y-62185738D01*
X127692404Y-61995261D01*
X127730500Y-61919071D01*
X127768595Y-61880976D01*
X127844785Y-61842880D01*
X127920976Y-61842880D01*
X128035261Y-61880976D01*
X128492404Y-62338119D01*
X128492404Y-61842880D01*
X127692404Y-61119071D02*
X127692404Y-61500023D01*
X128073357Y-61538119D01*
X128035261Y-61500023D01*
X127997166Y-61423833D01*
X127997166Y-61233357D01*
X128035261Y-61157166D01*
X128073357Y-61119071D01*
X128149547Y-61080976D01*
X128340023Y-61080976D01*
X128416214Y-61119071D01*
X128454309Y-61157166D01*
X128492404Y-61233357D01*
X128492404Y-61423833D01*
X128454309Y-61500023D01*
X128416214Y-61538119D01*
X131489714Y-68294404D02*
X131223047Y-67913452D01*
X131032571Y-68294404D02*
X131032571Y-67494404D01*
X131337333Y-67494404D01*
X131413523Y-67532500D01*
X131451619Y-67570595D01*
X131489714Y-67646785D01*
X131489714Y-67761071D01*
X131451619Y-67837261D01*
X131413523Y-67875357D01*
X131337333Y-67913452D01*
X131032571Y-67913452D01*
X131794476Y-67570595D02*
X131832571Y-67532500D01*
X131908761Y-67494404D01*
X132099238Y-67494404D01*
X132175428Y-67532500D01*
X132213523Y-67570595D01*
X132251619Y-67646785D01*
X132251619Y-67722976D01*
X132213523Y-67837261D01*
X131756380Y-68294404D01*
X132251619Y-68294404D01*
X132937333Y-67494404D02*
X132784952Y-67494404D01*
X132708761Y-67532500D01*
X132670666Y-67570595D01*
X132594476Y-67684880D01*
X132556380Y-67837261D01*
X132556380Y-68142023D01*
X132594476Y-68218214D01*
X132632571Y-68256309D01*
X132708761Y-68294404D01*
X132861142Y-68294404D01*
X132937333Y-68256309D01*
X132975428Y-68218214D01*
X133013523Y-68142023D01*
X133013523Y-67951547D01*
X132975428Y-67875357D01*
X132937333Y-67837261D01*
X132861142Y-67799166D01*
X132708761Y-67799166D01*
X132632571Y-67837261D01*
X132594476Y-67875357D01*
X132556380Y-67951547D01*
X128492404Y-66541785D02*
X128111452Y-66808452D01*
X128492404Y-66998928D02*
X127692404Y-66998928D01*
X127692404Y-66694166D01*
X127730500Y-66617976D01*
X127768595Y-66579880D01*
X127844785Y-66541785D01*
X127959071Y-66541785D01*
X128035261Y-66579880D01*
X128073357Y-66617976D01*
X128111452Y-66694166D01*
X128111452Y-66998928D01*
X127768595Y-66237023D02*
X127730500Y-66198928D01*
X127692404Y-66122738D01*
X127692404Y-65932261D01*
X127730500Y-65856071D01*
X127768595Y-65817976D01*
X127844785Y-65779880D01*
X127920976Y-65779880D01*
X128035261Y-65817976D01*
X128492404Y-66275119D01*
X128492404Y-65779880D01*
X127692404Y-65513214D02*
X127692404Y-64979880D01*
X128492404Y-65322738D01*
X131869142Y-130551380D02*
X131535809Y-130075190D01*
X131297714Y-130551380D02*
X131297714Y-129551380D01*
X131678666Y-129551380D01*
X131773904Y-129599000D01*
X131821523Y-129646619D01*
X131869142Y-129741857D01*
X131869142Y-129884714D01*
X131821523Y-129979952D01*
X131773904Y-130027571D01*
X131678666Y-130075190D01*
X131297714Y-130075190D01*
X132250095Y-129646619D02*
X132297714Y-129599000D01*
X132392952Y-129551380D01*
X132631047Y-129551380D01*
X132726285Y-129599000D01*
X132773904Y-129646619D01*
X132821523Y-129741857D01*
X132821523Y-129837095D01*
X132773904Y-129979952D01*
X132202476Y-130551380D01*
X132821523Y-130551380D01*
X133392952Y-129979952D02*
X133297714Y-129932333D01*
X133250095Y-129884714D01*
X133202476Y-129789476D01*
X133202476Y-129741857D01*
X133250095Y-129646619D01*
X133297714Y-129599000D01*
X133392952Y-129551380D01*
X133583428Y-129551380D01*
X133678666Y-129599000D01*
X133726285Y-129646619D01*
X133773904Y-129741857D01*
X133773904Y-129789476D01*
X133726285Y-129884714D01*
X133678666Y-129932333D01*
X133583428Y-129979952D01*
X133392952Y-129979952D01*
X133297714Y-130027571D01*
X133250095Y-130075190D01*
X133202476Y-130170428D01*
X133202476Y-130360904D01*
X133250095Y-130456142D01*
X133297714Y-130503761D01*
X133392952Y-130551380D01*
X133583428Y-130551380D01*
X133678666Y-130503761D01*
X133726285Y-130456142D01*
X133773904Y-130360904D01*
X133773904Y-130170428D01*
X133726285Y-130075190D01*
X133678666Y-130027571D01*
X133583428Y-129979952D01*
X131869142Y-132456380D02*
X131535809Y-131980190D01*
X131297714Y-132456380D02*
X131297714Y-131456380D01*
X131678666Y-131456380D01*
X131773904Y-131504000D01*
X131821523Y-131551619D01*
X131869142Y-131646857D01*
X131869142Y-131789714D01*
X131821523Y-131884952D01*
X131773904Y-131932571D01*
X131678666Y-131980190D01*
X131297714Y-131980190D01*
X132250095Y-131551619D02*
X132297714Y-131504000D01*
X132392952Y-131456380D01*
X132631047Y-131456380D01*
X132726285Y-131504000D01*
X132773904Y-131551619D01*
X132821523Y-131646857D01*
X132821523Y-131742095D01*
X132773904Y-131884952D01*
X132202476Y-132456380D01*
X132821523Y-132456380D01*
X133297714Y-132456380D02*
X133488190Y-132456380D01*
X133583428Y-132408761D01*
X133631047Y-132361142D01*
X133726285Y-132218285D01*
X133773904Y-132027809D01*
X133773904Y-131646857D01*
X133726285Y-131551619D01*
X133678666Y-131504000D01*
X133583428Y-131456380D01*
X133392952Y-131456380D01*
X133297714Y-131504000D01*
X133250095Y-131551619D01*
X133202476Y-131646857D01*
X133202476Y-131884952D01*
X133250095Y-131980190D01*
X133297714Y-132027809D01*
X133392952Y-132075428D01*
X133583428Y-132075428D01*
X133678666Y-132027809D01*
X133726285Y-131980190D01*
X133773904Y-131884952D01*
X131996142Y-134996380D02*
X131662809Y-134520190D01*
X131424714Y-134996380D02*
X131424714Y-133996380D01*
X131805666Y-133996380D01*
X131900904Y-134044000D01*
X131948523Y-134091619D01*
X131996142Y-134186857D01*
X131996142Y-134329714D01*
X131948523Y-134424952D01*
X131900904Y-134472571D01*
X131805666Y-134520190D01*
X131424714Y-134520190D01*
X132329476Y-133996380D02*
X132948523Y-133996380D01*
X132615190Y-134377333D01*
X132758047Y-134377333D01*
X132853285Y-134424952D01*
X132900904Y-134472571D01*
X132948523Y-134567809D01*
X132948523Y-134805904D01*
X132900904Y-134901142D01*
X132853285Y-134948761D01*
X132758047Y-134996380D01*
X132472333Y-134996380D01*
X132377095Y-134948761D01*
X132329476Y-134901142D01*
X133567571Y-133996380D02*
X133662809Y-133996380D01*
X133758047Y-134044000D01*
X133805666Y-134091619D01*
X133853285Y-134186857D01*
X133900904Y-134377333D01*
X133900904Y-134615428D01*
X133853285Y-134805904D01*
X133805666Y-134901142D01*
X133758047Y-134948761D01*
X133662809Y-134996380D01*
X133567571Y-134996380D01*
X133472333Y-134948761D01*
X133424714Y-134901142D01*
X133377095Y-134805904D01*
X133329476Y-134615428D01*
X133329476Y-134377333D01*
X133377095Y-134186857D01*
X133424714Y-134091619D01*
X133472333Y-134044000D01*
X133567571Y-133996380D01*
X125852380Y-119502357D02*
X125376190Y-119835690D01*
X125852380Y-120073785D02*
X124852380Y-120073785D01*
X124852380Y-119692833D01*
X124900000Y-119597595D01*
X124947619Y-119549976D01*
X125042857Y-119502357D01*
X125185714Y-119502357D01*
X125280952Y-119549976D01*
X125328571Y-119597595D01*
X125376190Y-119692833D01*
X125376190Y-120073785D01*
X125852380Y-118549976D02*
X125852380Y-119121404D01*
X125852380Y-118835690D02*
X124852380Y-118835690D01*
X124995238Y-118930928D01*
X125090476Y-119026166D01*
X125138095Y-119121404D01*
X124852380Y-117930928D02*
X124852380Y-117835690D01*
X124900000Y-117740452D01*
X124947619Y-117692833D01*
X125042857Y-117645214D01*
X125233333Y-117597595D01*
X125471428Y-117597595D01*
X125661904Y-117645214D01*
X125757142Y-117692833D01*
X125804761Y-117740452D01*
X125852380Y-117835690D01*
X125852380Y-117930928D01*
X125804761Y-118026166D01*
X125757142Y-118073785D01*
X125661904Y-118121404D01*
X125471428Y-118169023D01*
X125233333Y-118169023D01*
X125042857Y-118121404D01*
X124947619Y-118073785D01*
X124900000Y-118026166D01*
X124852380Y-117930928D01*
X131566380Y-119438857D02*
X131090190Y-119772190D01*
X131566380Y-120010285D02*
X130566380Y-120010285D01*
X130566380Y-119629333D01*
X130614000Y-119534095D01*
X130661619Y-119486476D01*
X130756857Y-119438857D01*
X130899714Y-119438857D01*
X130994952Y-119486476D01*
X131042571Y-119534095D01*
X131090190Y-119629333D01*
X131090190Y-120010285D01*
X131566380Y-118486476D02*
X131566380Y-119057904D01*
X131566380Y-118772190D02*
X130566380Y-118772190D01*
X130709238Y-118867428D01*
X130804476Y-118962666D01*
X130852095Y-119057904D01*
X131566380Y-117534095D02*
X131566380Y-118105523D01*
X131566380Y-117819809D02*
X130566380Y-117819809D01*
X130709238Y-117915047D01*
X130804476Y-118010285D01*
X130852095Y-118105523D01*
X63860642Y-140076380D02*
X63527309Y-139600190D01*
X63289214Y-140076380D02*
X63289214Y-139076380D01*
X63670166Y-139076380D01*
X63765404Y-139124000D01*
X63813023Y-139171619D01*
X63860642Y-139266857D01*
X63860642Y-139409714D01*
X63813023Y-139504952D01*
X63765404Y-139552571D01*
X63670166Y-139600190D01*
X63289214Y-139600190D01*
X64813023Y-140076380D02*
X64241595Y-140076380D01*
X64527309Y-140076380D02*
X64527309Y-139076380D01*
X64432071Y-139219238D01*
X64336833Y-139314476D01*
X64241595Y-139362095D01*
X65193976Y-139171619D02*
X65241595Y-139124000D01*
X65336833Y-139076380D01*
X65574928Y-139076380D01*
X65670166Y-139124000D01*
X65717785Y-139171619D01*
X65765404Y-139266857D01*
X65765404Y-139362095D01*
X65717785Y-139504952D01*
X65146357Y-140076380D01*
X65765404Y-140076380D01*
X67035642Y-136393380D02*
X66702309Y-135917190D01*
X66464214Y-136393380D02*
X66464214Y-135393380D01*
X66845166Y-135393380D01*
X66940404Y-135441000D01*
X66988023Y-135488619D01*
X67035642Y-135583857D01*
X67035642Y-135726714D01*
X66988023Y-135821952D01*
X66940404Y-135869571D01*
X66845166Y-135917190D01*
X66464214Y-135917190D01*
X67988023Y-136393380D02*
X67416595Y-136393380D01*
X67702309Y-136393380D02*
X67702309Y-135393380D01*
X67607071Y-135536238D01*
X67511833Y-135631476D01*
X67416595Y-135679095D01*
X68321357Y-135393380D02*
X68940404Y-135393380D01*
X68607071Y-135774333D01*
X68749928Y-135774333D01*
X68845166Y-135821952D01*
X68892785Y-135869571D01*
X68940404Y-135964809D01*
X68940404Y-136202904D01*
X68892785Y-136298142D01*
X68845166Y-136345761D01*
X68749928Y-136393380D01*
X68464214Y-136393380D01*
X68368976Y-136345761D01*
X68321357Y-136298142D01*
X65068714Y-117443404D02*
X64802047Y-117062452D01*
X64611571Y-117443404D02*
X64611571Y-116643404D01*
X64916333Y-116643404D01*
X64992523Y-116681500D01*
X65030619Y-116719595D01*
X65068714Y-116795785D01*
X65068714Y-116910071D01*
X65030619Y-116986261D01*
X64992523Y-117024357D01*
X64916333Y-117062452D01*
X64611571Y-117062452D01*
X65830619Y-117443404D02*
X65373476Y-117443404D01*
X65602047Y-117443404D02*
X65602047Y-116643404D01*
X65525857Y-116757690D01*
X65449666Y-116833880D01*
X65373476Y-116871976D01*
X66516333Y-116910071D02*
X66516333Y-117443404D01*
X66325857Y-116605309D02*
X66135380Y-117176738D01*
X66630619Y-117176738D01*
X65132214Y-124999904D02*
X64865547Y-124618952D01*
X64675071Y-124999904D02*
X64675071Y-124199904D01*
X64979833Y-124199904D01*
X65056023Y-124238000D01*
X65094119Y-124276095D01*
X65132214Y-124352285D01*
X65132214Y-124466571D01*
X65094119Y-124542761D01*
X65056023Y-124580857D01*
X64979833Y-124618952D01*
X64675071Y-124618952D01*
X65894119Y-124999904D02*
X65436976Y-124999904D01*
X65665547Y-124999904D02*
X65665547Y-124199904D01*
X65589357Y-124314190D01*
X65513166Y-124390380D01*
X65436976Y-124428476D01*
X66617928Y-124199904D02*
X66236976Y-124199904D01*
X66198880Y-124580857D01*
X66236976Y-124542761D01*
X66313166Y-124504666D01*
X66503642Y-124504666D01*
X66579833Y-124542761D01*
X66617928Y-124580857D01*
X66656023Y-124657047D01*
X66656023Y-124847523D01*
X66617928Y-124923714D01*
X66579833Y-124961809D01*
X66503642Y-124999904D01*
X66313166Y-124999904D01*
X66236976Y-124961809D01*
X66198880Y-124923714D01*
X67481714Y-117443404D02*
X67215047Y-117062452D01*
X67024571Y-117443404D02*
X67024571Y-116643404D01*
X67329333Y-116643404D01*
X67405523Y-116681500D01*
X67443619Y-116719595D01*
X67481714Y-116795785D01*
X67481714Y-116910071D01*
X67443619Y-116986261D01*
X67405523Y-117024357D01*
X67329333Y-117062452D01*
X67024571Y-117062452D01*
X68243619Y-117443404D02*
X67786476Y-117443404D01*
X68015047Y-117443404D02*
X68015047Y-116643404D01*
X67938857Y-116757690D01*
X67862666Y-116833880D01*
X67786476Y-116871976D01*
X68929333Y-116643404D02*
X68776952Y-116643404D01*
X68700761Y-116681500D01*
X68662666Y-116719595D01*
X68586476Y-116833880D01*
X68548380Y-116986261D01*
X68548380Y-117291023D01*
X68586476Y-117367214D01*
X68624571Y-117405309D01*
X68700761Y-117443404D01*
X68853142Y-117443404D01*
X68929333Y-117405309D01*
X68967428Y-117367214D01*
X69005523Y-117291023D01*
X69005523Y-117100547D01*
X68967428Y-117024357D01*
X68929333Y-116986261D01*
X68853142Y-116948166D01*
X68700761Y-116948166D01*
X68624571Y-116986261D01*
X68586476Y-117024357D01*
X68548380Y-117100547D01*
X67354714Y-125952404D02*
X67088047Y-125571452D01*
X66897571Y-125952404D02*
X66897571Y-125152404D01*
X67202333Y-125152404D01*
X67278523Y-125190500D01*
X67316619Y-125228595D01*
X67354714Y-125304785D01*
X67354714Y-125419071D01*
X67316619Y-125495261D01*
X67278523Y-125533357D01*
X67202333Y-125571452D01*
X66897571Y-125571452D01*
X68116619Y-125952404D02*
X67659476Y-125952404D01*
X67888047Y-125952404D02*
X67888047Y-125152404D01*
X67811857Y-125266690D01*
X67735666Y-125342880D01*
X67659476Y-125380976D01*
X68383285Y-125152404D02*
X68916619Y-125152404D01*
X68573761Y-125952404D01*
X71736214Y-113315904D02*
X71469547Y-112934952D01*
X71279071Y-113315904D02*
X71279071Y-112515904D01*
X71583833Y-112515904D01*
X71660023Y-112554000D01*
X71698119Y-112592095D01*
X71736214Y-112668285D01*
X71736214Y-112782571D01*
X71698119Y-112858761D01*
X71660023Y-112896857D01*
X71583833Y-112934952D01*
X71279071Y-112934952D01*
X72002880Y-112515904D02*
X72498119Y-112515904D01*
X72231452Y-112820666D01*
X72345738Y-112820666D01*
X72421928Y-112858761D01*
X72460023Y-112896857D01*
X72498119Y-112973047D01*
X72498119Y-113163523D01*
X72460023Y-113239714D01*
X72421928Y-113277809D01*
X72345738Y-113315904D01*
X72117166Y-113315904D01*
X72040976Y-113277809D01*
X72002880Y-113239714D01*
X72802880Y-112592095D02*
X72840976Y-112554000D01*
X72917166Y-112515904D01*
X73107642Y-112515904D01*
X73183833Y-112554000D01*
X73221928Y-112592095D01*
X73260023Y-112668285D01*
X73260023Y-112744476D01*
X73221928Y-112858761D01*
X72764785Y-113315904D01*
X73260023Y-113315904D01*
X71926714Y-124999904D02*
X71660047Y-124618952D01*
X71469571Y-124999904D02*
X71469571Y-124199904D01*
X71774333Y-124199904D01*
X71850523Y-124238000D01*
X71888619Y-124276095D01*
X71926714Y-124352285D01*
X71926714Y-124466571D01*
X71888619Y-124542761D01*
X71850523Y-124580857D01*
X71774333Y-124618952D01*
X71469571Y-124618952D01*
X72193380Y-124199904D02*
X72688619Y-124199904D01*
X72421952Y-124504666D01*
X72536238Y-124504666D01*
X72612428Y-124542761D01*
X72650523Y-124580857D01*
X72688619Y-124657047D01*
X72688619Y-124847523D01*
X72650523Y-124923714D01*
X72612428Y-124961809D01*
X72536238Y-124999904D01*
X72307666Y-124999904D01*
X72231476Y-124961809D01*
X72193380Y-124923714D01*
X72955285Y-124199904D02*
X73450523Y-124199904D01*
X73183857Y-124504666D01*
X73298142Y-124504666D01*
X73374333Y-124542761D01*
X73412428Y-124580857D01*
X73450523Y-124657047D01*
X73450523Y-124847523D01*
X73412428Y-124923714D01*
X73374333Y-124961809D01*
X73298142Y-124999904D01*
X73069571Y-124999904D01*
X72993380Y-124961809D01*
X72955285Y-124923714D01*
X76041404Y-115754285D02*
X75660452Y-116020952D01*
X76041404Y-116211428D02*
X75241404Y-116211428D01*
X75241404Y-115906666D01*
X75279500Y-115830476D01*
X75317595Y-115792380D01*
X75393785Y-115754285D01*
X75508071Y-115754285D01*
X75584261Y-115792380D01*
X75622357Y-115830476D01*
X75660452Y-115906666D01*
X75660452Y-116211428D01*
X75241404Y-115487619D02*
X75241404Y-114992380D01*
X75546166Y-115259047D01*
X75546166Y-115144761D01*
X75584261Y-115068571D01*
X75622357Y-115030476D01*
X75698547Y-114992380D01*
X75889023Y-114992380D01*
X75965214Y-115030476D01*
X76003309Y-115068571D01*
X76041404Y-115144761D01*
X76041404Y-115373333D01*
X76003309Y-115449523D01*
X75965214Y-115487619D01*
X75508071Y-114306666D02*
X76041404Y-114306666D01*
X75203309Y-114497142D02*
X75774738Y-114687619D01*
X75774738Y-114192380D01*
X76041404Y-122358285D02*
X75660452Y-122624952D01*
X76041404Y-122815428D02*
X75241404Y-122815428D01*
X75241404Y-122510666D01*
X75279500Y-122434476D01*
X75317595Y-122396380D01*
X75393785Y-122358285D01*
X75508071Y-122358285D01*
X75584261Y-122396380D01*
X75622357Y-122434476D01*
X75660452Y-122510666D01*
X75660452Y-122815428D01*
X75241404Y-122091619D02*
X75241404Y-121596380D01*
X75546166Y-121863047D01*
X75546166Y-121748761D01*
X75584261Y-121672571D01*
X75622357Y-121634476D01*
X75698547Y-121596380D01*
X75889023Y-121596380D01*
X75965214Y-121634476D01*
X76003309Y-121672571D01*
X76041404Y-121748761D01*
X76041404Y-121977333D01*
X76003309Y-122053523D01*
X75965214Y-122091619D01*
X75241404Y-120872571D02*
X75241404Y-121253523D01*
X75622357Y-121291619D01*
X75584261Y-121253523D01*
X75546166Y-121177333D01*
X75546166Y-120986857D01*
X75584261Y-120910666D01*
X75622357Y-120872571D01*
X75698547Y-120834476D01*
X75889023Y-120834476D01*
X75965214Y-120872571D01*
X76003309Y-120910666D01*
X76041404Y-120986857D01*
X76041404Y-121177333D01*
X76003309Y-121253523D01*
X75965214Y-121291619D01*
X63551095Y-53478380D02*
X63551095Y-54287904D01*
X63598714Y-54383142D01*
X63646333Y-54430761D01*
X63741571Y-54478380D01*
X63932047Y-54478380D01*
X64027285Y-54430761D01*
X64074904Y-54383142D01*
X64122523Y-54287904D01*
X64122523Y-53478380D01*
X64551095Y-53573619D02*
X64598714Y-53526000D01*
X64693952Y-53478380D01*
X64932047Y-53478380D01*
X65027285Y-53526000D01*
X65074904Y-53573619D01*
X65122523Y-53668857D01*
X65122523Y-53764095D01*
X65074904Y-53906952D01*
X64503476Y-54478380D01*
X65122523Y-54478380D01*
X63551095Y-61225380D02*
X63551095Y-62034904D01*
X63598714Y-62130142D01*
X63646333Y-62177761D01*
X63741571Y-62225380D01*
X63932047Y-62225380D01*
X64027285Y-62177761D01*
X64074904Y-62130142D01*
X64122523Y-62034904D01*
X64122523Y-61225380D01*
X64503476Y-61225380D02*
X65122523Y-61225380D01*
X64789190Y-61606333D01*
X64932047Y-61606333D01*
X65027285Y-61653952D01*
X65074904Y-61701571D01*
X65122523Y-61796809D01*
X65122523Y-62034904D01*
X65074904Y-62130142D01*
X65027285Y-62177761D01*
X64932047Y-62225380D01*
X64646333Y-62225380D01*
X64551095Y-62177761D01*
X64503476Y-62130142D01*
X74441214Y-63112833D02*
X74479309Y-63150928D01*
X74517404Y-63265214D01*
X74517404Y-63341404D01*
X74479309Y-63455690D01*
X74403119Y-63531880D01*
X74326928Y-63569976D01*
X74174547Y-63608071D01*
X74060261Y-63608071D01*
X73907880Y-63569976D01*
X73831690Y-63531880D01*
X73755500Y-63455690D01*
X73717404Y-63341404D01*
X73717404Y-63265214D01*
X73755500Y-63150928D01*
X73793595Y-63112833D01*
X73793595Y-62808071D02*
X73755500Y-62769976D01*
X73717404Y-62693785D01*
X73717404Y-62503309D01*
X73755500Y-62427119D01*
X73793595Y-62389023D01*
X73869785Y-62350928D01*
X73945976Y-62350928D01*
X74060261Y-62389023D01*
X74517404Y-62846166D01*
X74517404Y-62350928D01*
X93879142Y-159856666D02*
X93926761Y-159904285D01*
X93974380Y-160047142D01*
X93974380Y-160142380D01*
X93926761Y-160285238D01*
X93831523Y-160380476D01*
X93736285Y-160428095D01*
X93545809Y-160475714D01*
X93402952Y-160475714D01*
X93212476Y-160428095D01*
X93117238Y-160380476D01*
X93022000Y-160285238D01*
X92974380Y-160142380D01*
X92974380Y-160047142D01*
X93022000Y-159904285D01*
X93069619Y-159856666D01*
X93307714Y-158999523D02*
X93974380Y-158999523D01*
X92926761Y-159237619D02*
X93641047Y-159475714D01*
X93641047Y-158856666D01*
X113930333Y-165381142D02*
X113882714Y-165428761D01*
X113739857Y-165476380D01*
X113644619Y-165476380D01*
X113501761Y-165428761D01*
X113406523Y-165333523D01*
X113358904Y-165238285D01*
X113311285Y-165047809D01*
X113311285Y-164904952D01*
X113358904Y-164714476D01*
X113406523Y-164619238D01*
X113501761Y-164524000D01*
X113644619Y-164476380D01*
X113739857Y-164476380D01*
X113882714Y-164524000D01*
X113930333Y-164571619D01*
X114835095Y-164476380D02*
X114358904Y-164476380D01*
X114311285Y-164952571D01*
X114358904Y-164904952D01*
X114454142Y-164857333D01*
X114692238Y-164857333D01*
X114787476Y-164904952D01*
X114835095Y-164952571D01*
X114882714Y-165047809D01*
X114882714Y-165285904D01*
X114835095Y-165381142D01*
X114787476Y-165428761D01*
X114692238Y-165476380D01*
X114454142Y-165476380D01*
X114358904Y-165428761D01*
X114311285Y-165381142D01*
X74504714Y-65589333D02*
X74542809Y-65627428D01*
X74580904Y-65741714D01*
X74580904Y-65817904D01*
X74542809Y-65932190D01*
X74466619Y-66008380D01*
X74390428Y-66046476D01*
X74238047Y-66084571D01*
X74123761Y-66084571D01*
X73971380Y-66046476D01*
X73895190Y-66008380D01*
X73819000Y-65932190D01*
X73780904Y-65817904D01*
X73780904Y-65741714D01*
X73819000Y-65627428D01*
X73857095Y-65589333D01*
X73780904Y-64903619D02*
X73780904Y-65056000D01*
X73819000Y-65132190D01*
X73857095Y-65170285D01*
X73971380Y-65246476D01*
X74123761Y-65284571D01*
X74428523Y-65284571D01*
X74504714Y-65246476D01*
X74542809Y-65208380D01*
X74580904Y-65132190D01*
X74580904Y-64979809D01*
X74542809Y-64903619D01*
X74504714Y-64865523D01*
X74428523Y-64827428D01*
X74238047Y-64827428D01*
X74161857Y-64865523D01*
X74123761Y-64903619D01*
X74085666Y-64979809D01*
X74085666Y-65132190D01*
X74123761Y-65208380D01*
X74161857Y-65246476D01*
X74238047Y-65284571D01*
X79013214Y-67811833D02*
X79051309Y-67849928D01*
X79089404Y-67964214D01*
X79089404Y-68040404D01*
X79051309Y-68154690D01*
X78975119Y-68230880D01*
X78898928Y-68268976D01*
X78746547Y-68307071D01*
X78632261Y-68307071D01*
X78479880Y-68268976D01*
X78403690Y-68230880D01*
X78327500Y-68154690D01*
X78289404Y-68040404D01*
X78289404Y-67964214D01*
X78327500Y-67849928D01*
X78365595Y-67811833D01*
X78289404Y-67545166D02*
X78289404Y-67011833D01*
X79089404Y-67354690D01*
X108532833Y-167730642D02*
X108485214Y-167778261D01*
X108342357Y-167825880D01*
X108247119Y-167825880D01*
X108104261Y-167778261D01*
X108009023Y-167683023D01*
X107961404Y-167587785D01*
X107913785Y-167397309D01*
X107913785Y-167254452D01*
X107961404Y-167063976D01*
X108009023Y-166968738D01*
X108104261Y-166873500D01*
X108247119Y-166825880D01*
X108342357Y-166825880D01*
X108485214Y-166873500D01*
X108532833Y-166921119D01*
X109104261Y-167254452D02*
X109009023Y-167206833D01*
X108961404Y-167159214D01*
X108913785Y-167063976D01*
X108913785Y-167016357D01*
X108961404Y-166921119D01*
X109009023Y-166873500D01*
X109104261Y-166825880D01*
X109294738Y-166825880D01*
X109389976Y-166873500D01*
X109437595Y-166921119D01*
X109485214Y-167016357D01*
X109485214Y-167063976D01*
X109437595Y-167159214D01*
X109389976Y-167206833D01*
X109294738Y-167254452D01*
X109104261Y-167254452D01*
X109009023Y-167302071D01*
X108961404Y-167349690D01*
X108913785Y-167444928D01*
X108913785Y-167635404D01*
X108961404Y-167730642D01*
X109009023Y-167778261D01*
X109104261Y-167825880D01*
X109294738Y-167825880D01*
X109389976Y-167778261D01*
X109437595Y-167730642D01*
X109485214Y-167635404D01*
X109485214Y-167444928D01*
X109437595Y-167349690D01*
X109389976Y-167302071D01*
X109294738Y-167254452D01*
X125360333Y-160174142D02*
X125312714Y-160221761D01*
X125169857Y-160269380D01*
X125074619Y-160269380D01*
X124931761Y-160221761D01*
X124836523Y-160126523D01*
X124788904Y-160031285D01*
X124741285Y-159840809D01*
X124741285Y-159697952D01*
X124788904Y-159507476D01*
X124836523Y-159412238D01*
X124931761Y-159317000D01*
X125074619Y-159269380D01*
X125169857Y-159269380D01*
X125312714Y-159317000D01*
X125360333Y-159364619D01*
X125836523Y-160269380D02*
X126027000Y-160269380D01*
X126122238Y-160221761D01*
X126169857Y-160174142D01*
X126265095Y-160031285D01*
X126312714Y-159840809D01*
X126312714Y-159459857D01*
X126265095Y-159364619D01*
X126217476Y-159317000D01*
X126122238Y-159269380D01*
X125931761Y-159269380D01*
X125836523Y-159317000D01*
X125788904Y-159364619D01*
X125741285Y-159459857D01*
X125741285Y-159697952D01*
X125788904Y-159793190D01*
X125836523Y-159840809D01*
X125931761Y-159888428D01*
X126122238Y-159888428D01*
X126217476Y-159840809D01*
X126265095Y-159793190D01*
X126312714Y-159697952D01*
X118724642Y-160174142D02*
X118677023Y-160221761D01*
X118534166Y-160269380D01*
X118438928Y-160269380D01*
X118296071Y-160221761D01*
X118200833Y-160126523D01*
X118153214Y-160031285D01*
X118105595Y-159840809D01*
X118105595Y-159697952D01*
X118153214Y-159507476D01*
X118200833Y-159412238D01*
X118296071Y-159317000D01*
X118438928Y-159269380D01*
X118534166Y-159269380D01*
X118677023Y-159317000D01*
X118724642Y-159364619D01*
X119677023Y-160269380D02*
X119105595Y-160269380D01*
X119391309Y-160269380D02*
X119391309Y-159269380D01*
X119296071Y-159412238D01*
X119200833Y-159507476D01*
X119105595Y-159555095D01*
X120296071Y-159269380D02*
X120391309Y-159269380D01*
X120486547Y-159317000D01*
X120534166Y-159364619D01*
X120581785Y-159459857D01*
X120629404Y-159650333D01*
X120629404Y-159888428D01*
X120581785Y-160078904D01*
X120534166Y-160174142D01*
X120486547Y-160221761D01*
X120391309Y-160269380D01*
X120296071Y-160269380D01*
X120200833Y-160221761D01*
X120153214Y-160174142D01*
X120105595Y-160078904D01*
X120057976Y-159888428D01*
X120057976Y-159650333D01*
X120105595Y-159459857D01*
X120153214Y-159364619D01*
X120200833Y-159317000D01*
X120296071Y-159269380D01*
X118534142Y-169191142D02*
X118486523Y-169238761D01*
X118343666Y-169286380D01*
X118248428Y-169286380D01*
X118105571Y-169238761D01*
X118010333Y-169143523D01*
X117962714Y-169048285D01*
X117915095Y-168857809D01*
X117915095Y-168714952D01*
X117962714Y-168524476D01*
X118010333Y-168429238D01*
X118105571Y-168334000D01*
X118248428Y-168286380D01*
X118343666Y-168286380D01*
X118486523Y-168334000D01*
X118534142Y-168381619D01*
X119486523Y-169286380D02*
X118915095Y-169286380D01*
X119200809Y-169286380D02*
X119200809Y-168286380D01*
X119105571Y-168429238D01*
X119010333Y-168524476D01*
X118915095Y-168572095D01*
X120438904Y-169286380D02*
X119867476Y-169286380D01*
X120153190Y-169286380D02*
X120153190Y-168286380D01*
X120057952Y-168429238D01*
X119962714Y-168524476D01*
X119867476Y-168572095D01*
X131996142Y-150395142D02*
X131948523Y-150442761D01*
X131805666Y-150490380D01*
X131710428Y-150490380D01*
X131567571Y-150442761D01*
X131472333Y-150347523D01*
X131424714Y-150252285D01*
X131377095Y-150061809D01*
X131377095Y-149918952D01*
X131424714Y-149728476D01*
X131472333Y-149633238D01*
X131567571Y-149538000D01*
X131710428Y-149490380D01*
X131805666Y-149490380D01*
X131948523Y-149538000D01*
X131996142Y-149585619D01*
X132948523Y-150490380D02*
X132377095Y-150490380D01*
X132662809Y-150490380D02*
X132662809Y-149490380D01*
X132567571Y-149633238D01*
X132472333Y-149728476D01*
X132377095Y-149776095D01*
X133329476Y-149585619D02*
X133377095Y-149538000D01*
X133472333Y-149490380D01*
X133710428Y-149490380D01*
X133805666Y-149538000D01*
X133853285Y-149585619D01*
X133900904Y-149680857D01*
X133900904Y-149776095D01*
X133853285Y-149918952D01*
X133281857Y-150490380D01*
X133900904Y-150490380D01*
X115740142Y-160174142D02*
X115692523Y-160221761D01*
X115549666Y-160269380D01*
X115454428Y-160269380D01*
X115311571Y-160221761D01*
X115216333Y-160126523D01*
X115168714Y-160031285D01*
X115121095Y-159840809D01*
X115121095Y-159697952D01*
X115168714Y-159507476D01*
X115216333Y-159412238D01*
X115311571Y-159317000D01*
X115454428Y-159269380D01*
X115549666Y-159269380D01*
X115692523Y-159317000D01*
X115740142Y-159364619D01*
X116692523Y-160269380D02*
X116121095Y-160269380D01*
X116406809Y-160269380D02*
X116406809Y-159269380D01*
X116311571Y-159412238D01*
X116216333Y-159507476D01*
X116121095Y-159555095D01*
X117025857Y-159269380D02*
X117644904Y-159269380D01*
X117311571Y-159650333D01*
X117454428Y-159650333D01*
X117549666Y-159697952D01*
X117597285Y-159745571D01*
X117644904Y-159840809D01*
X117644904Y-160078904D01*
X117597285Y-160174142D01*
X117549666Y-160221761D01*
X117454428Y-160269380D01*
X117168714Y-160269380D01*
X117073476Y-160221761D01*
X117025857Y-160174142D01*
X115676642Y-169191142D02*
X115629023Y-169238761D01*
X115486166Y-169286380D01*
X115390928Y-169286380D01*
X115248071Y-169238761D01*
X115152833Y-169143523D01*
X115105214Y-169048285D01*
X115057595Y-168857809D01*
X115057595Y-168714952D01*
X115105214Y-168524476D01*
X115152833Y-168429238D01*
X115248071Y-168334000D01*
X115390928Y-168286380D01*
X115486166Y-168286380D01*
X115629023Y-168334000D01*
X115676642Y-168381619D01*
X116629023Y-169286380D02*
X116057595Y-169286380D01*
X116343309Y-169286380D02*
X116343309Y-168286380D01*
X116248071Y-168429238D01*
X116152833Y-168524476D01*
X116057595Y-168572095D01*
X117486166Y-168619714D02*
X117486166Y-169286380D01*
X117248071Y-168238761D02*
X117009976Y-168953047D01*
X117629023Y-168953047D01*
X127487642Y-123915642D02*
X127440023Y-123963261D01*
X127297166Y-124010880D01*
X127201928Y-124010880D01*
X127059071Y-123963261D01*
X126963833Y-123868023D01*
X126916214Y-123772785D01*
X126868595Y-123582309D01*
X126868595Y-123439452D01*
X126916214Y-123248976D01*
X126963833Y-123153738D01*
X127059071Y-123058500D01*
X127201928Y-123010880D01*
X127297166Y-123010880D01*
X127440023Y-123058500D01*
X127487642Y-123106119D01*
X128440023Y-124010880D02*
X127868595Y-124010880D01*
X128154309Y-124010880D02*
X128154309Y-123010880D01*
X128059071Y-123153738D01*
X127963833Y-123248976D01*
X127868595Y-123296595D01*
X129344785Y-123010880D02*
X128868595Y-123010880D01*
X128820976Y-123487071D01*
X128868595Y-123439452D01*
X128963833Y-123391833D01*
X129201928Y-123391833D01*
X129297166Y-123439452D01*
X129344785Y-123487071D01*
X129392404Y-123582309D01*
X129392404Y-123820404D01*
X129344785Y-123915642D01*
X129297166Y-123963261D01*
X129201928Y-124010880D01*
X128963833Y-124010880D01*
X128868595Y-123963261D01*
X128820976Y-123915642D01*
X121520214Y-59963214D02*
X121482119Y-60001309D01*
X121367833Y-60039404D01*
X121291642Y-60039404D01*
X121177357Y-60001309D01*
X121101166Y-59925119D01*
X121063071Y-59848928D01*
X121024976Y-59696547D01*
X121024976Y-59582261D01*
X121063071Y-59429880D01*
X121101166Y-59353690D01*
X121177357Y-59277500D01*
X121291642Y-59239404D01*
X121367833Y-59239404D01*
X121482119Y-59277500D01*
X121520214Y-59315595D01*
X122282119Y-60039404D02*
X121824976Y-60039404D01*
X122053547Y-60039404D02*
X122053547Y-59239404D01*
X121977357Y-59353690D01*
X121901166Y-59429880D01*
X121824976Y-59467976D01*
X122967833Y-59239404D02*
X122815452Y-59239404D01*
X122739261Y-59277500D01*
X122701166Y-59315595D01*
X122624976Y-59429880D01*
X122586880Y-59582261D01*
X122586880Y-59887023D01*
X122624976Y-59963214D01*
X122663071Y-60001309D01*
X122739261Y-60039404D01*
X122891642Y-60039404D01*
X122967833Y-60001309D01*
X123005928Y-59963214D01*
X123044023Y-59887023D01*
X123044023Y-59696547D01*
X123005928Y-59620357D01*
X122967833Y-59582261D01*
X122891642Y-59544166D01*
X122739261Y-59544166D01*
X122663071Y-59582261D01*
X122624976Y-59620357D01*
X122586880Y-59696547D01*
X126346214Y-59899714D02*
X126308119Y-59937809D01*
X126193833Y-59975904D01*
X126117642Y-59975904D01*
X126003357Y-59937809D01*
X125927166Y-59861619D01*
X125889071Y-59785428D01*
X125850976Y-59633047D01*
X125850976Y-59518761D01*
X125889071Y-59366380D01*
X125927166Y-59290190D01*
X126003357Y-59214000D01*
X126117642Y-59175904D01*
X126193833Y-59175904D01*
X126308119Y-59214000D01*
X126346214Y-59252095D01*
X127108119Y-59975904D02*
X126650976Y-59975904D01*
X126879547Y-59975904D02*
X126879547Y-59175904D01*
X126803357Y-59290190D01*
X126727166Y-59366380D01*
X126650976Y-59404476D01*
X127374785Y-59175904D02*
X127908119Y-59175904D01*
X127565261Y-59975904D01*
X72307714Y-72726714D02*
X72269619Y-72764809D01*
X72155333Y-72802904D01*
X72079142Y-72802904D01*
X71964857Y-72764809D01*
X71888666Y-72688619D01*
X71850571Y-72612428D01*
X71812476Y-72460047D01*
X71812476Y-72345761D01*
X71850571Y-72193380D01*
X71888666Y-72117190D01*
X71964857Y-72041000D01*
X72079142Y-72002904D01*
X72155333Y-72002904D01*
X72269619Y-72041000D01*
X72307714Y-72079095D01*
X72612476Y-72079095D02*
X72650571Y-72041000D01*
X72726761Y-72002904D01*
X72917238Y-72002904D01*
X72993428Y-72041000D01*
X73031523Y-72079095D01*
X73069619Y-72155285D01*
X73069619Y-72231476D01*
X73031523Y-72345761D01*
X72574380Y-72802904D01*
X73069619Y-72802904D01*
X73564857Y-72002904D02*
X73641047Y-72002904D01*
X73717238Y-72041000D01*
X73755333Y-72079095D01*
X73793428Y-72155285D01*
X73831523Y-72307666D01*
X73831523Y-72498142D01*
X73793428Y-72650523D01*
X73755333Y-72726714D01*
X73717238Y-72764809D01*
X73641047Y-72802904D01*
X73564857Y-72802904D01*
X73488666Y-72764809D01*
X73450571Y-72726714D01*
X73412476Y-72650523D01*
X73374380Y-72498142D01*
X73374380Y-72307666D01*
X73412476Y-72155285D01*
X73450571Y-72079095D01*
X73488666Y-72041000D01*
X73564857Y-72002904D01*
X128949714Y-59899714D02*
X128911619Y-59937809D01*
X128797333Y-59975904D01*
X128721142Y-59975904D01*
X128606857Y-59937809D01*
X128530666Y-59861619D01*
X128492571Y-59785428D01*
X128454476Y-59633047D01*
X128454476Y-59518761D01*
X128492571Y-59366380D01*
X128530666Y-59290190D01*
X128606857Y-59214000D01*
X128721142Y-59175904D01*
X128797333Y-59175904D01*
X128911619Y-59214000D01*
X128949714Y-59252095D01*
X129254476Y-59252095D02*
X129292571Y-59214000D01*
X129368761Y-59175904D01*
X129559238Y-59175904D01*
X129635428Y-59214000D01*
X129673523Y-59252095D01*
X129711619Y-59328285D01*
X129711619Y-59404476D01*
X129673523Y-59518761D01*
X129216380Y-59975904D01*
X129711619Y-59975904D01*
X130473523Y-59975904D02*
X130016380Y-59975904D01*
X130244952Y-59975904D02*
X130244952Y-59175904D01*
X130168761Y-59290190D01*
X130092571Y-59366380D01*
X130016380Y-59404476D01*
X78822714Y-49460285D02*
X78860809Y-49498380D01*
X78898904Y-49612666D01*
X78898904Y-49688857D01*
X78860809Y-49803142D01*
X78784619Y-49879333D01*
X78708428Y-49917428D01*
X78556047Y-49955523D01*
X78441761Y-49955523D01*
X78289380Y-49917428D01*
X78213190Y-49879333D01*
X78137000Y-49803142D01*
X78098904Y-49688857D01*
X78098904Y-49612666D01*
X78137000Y-49498380D01*
X78175095Y-49460285D01*
X78175095Y-49155523D02*
X78137000Y-49117428D01*
X78098904Y-49041238D01*
X78098904Y-48850761D01*
X78137000Y-48774571D01*
X78175095Y-48736476D01*
X78251285Y-48698380D01*
X78327476Y-48698380D01*
X78441761Y-48736476D01*
X78898904Y-49193619D01*
X78898904Y-48698380D01*
X78175095Y-48393619D02*
X78137000Y-48355523D01*
X78098904Y-48279333D01*
X78098904Y-48088857D01*
X78137000Y-48012666D01*
X78175095Y-47974571D01*
X78251285Y-47936476D01*
X78327476Y-47936476D01*
X78441761Y-47974571D01*
X78898904Y-48431714D01*
X78898904Y-47936476D01*
X107421642Y-141822642D02*
X107374023Y-141870261D01*
X107231166Y-141917880D01*
X107135928Y-141917880D01*
X106993071Y-141870261D01*
X106897833Y-141775023D01*
X106850214Y-141679785D01*
X106802595Y-141489309D01*
X106802595Y-141346452D01*
X106850214Y-141155976D01*
X106897833Y-141060738D01*
X106993071Y-140965500D01*
X107135928Y-140917880D01*
X107231166Y-140917880D01*
X107374023Y-140965500D01*
X107421642Y-141013119D01*
X107802595Y-141013119D02*
X107850214Y-140965500D01*
X107945452Y-140917880D01*
X108183547Y-140917880D01*
X108278785Y-140965500D01*
X108326404Y-141013119D01*
X108374023Y-141108357D01*
X108374023Y-141203595D01*
X108326404Y-141346452D01*
X107754976Y-141917880D01*
X108374023Y-141917880D01*
X108707357Y-140917880D02*
X109326404Y-140917880D01*
X108993071Y-141298833D01*
X109135928Y-141298833D01*
X109231166Y-141346452D01*
X109278785Y-141394071D01*
X109326404Y-141489309D01*
X109326404Y-141727404D01*
X109278785Y-141822642D01*
X109231166Y-141870261D01*
X109135928Y-141917880D01*
X108850214Y-141917880D01*
X108754976Y-141870261D01*
X108707357Y-141822642D01*
X107358142Y-143854642D02*
X107310523Y-143902261D01*
X107167666Y-143949880D01*
X107072428Y-143949880D01*
X106929571Y-143902261D01*
X106834333Y-143807023D01*
X106786714Y-143711785D01*
X106739095Y-143521309D01*
X106739095Y-143378452D01*
X106786714Y-143187976D01*
X106834333Y-143092738D01*
X106929571Y-142997500D01*
X107072428Y-142949880D01*
X107167666Y-142949880D01*
X107310523Y-142997500D01*
X107358142Y-143045119D01*
X107739095Y-143045119D02*
X107786714Y-142997500D01*
X107881952Y-142949880D01*
X108120047Y-142949880D01*
X108215285Y-142997500D01*
X108262904Y-143045119D01*
X108310523Y-143140357D01*
X108310523Y-143235595D01*
X108262904Y-143378452D01*
X107691476Y-143949880D01*
X108310523Y-143949880D01*
X109167666Y-143283214D02*
X109167666Y-143949880D01*
X108929571Y-142902261D02*
X108691476Y-143616547D01*
X109310523Y-143616547D01*
X107421642Y-146077142D02*
X107374023Y-146124761D01*
X107231166Y-146172380D01*
X107135928Y-146172380D01*
X106993071Y-146124761D01*
X106897833Y-146029523D01*
X106850214Y-145934285D01*
X106802595Y-145743809D01*
X106802595Y-145600952D01*
X106850214Y-145410476D01*
X106897833Y-145315238D01*
X106993071Y-145220000D01*
X107135928Y-145172380D01*
X107231166Y-145172380D01*
X107374023Y-145220000D01*
X107421642Y-145267619D01*
X107802595Y-145267619D02*
X107850214Y-145220000D01*
X107945452Y-145172380D01*
X108183547Y-145172380D01*
X108278785Y-145220000D01*
X108326404Y-145267619D01*
X108374023Y-145362857D01*
X108374023Y-145458095D01*
X108326404Y-145600952D01*
X107754976Y-146172380D01*
X108374023Y-146172380D01*
X109278785Y-145172380D02*
X108802595Y-145172380D01*
X108754976Y-145648571D01*
X108802595Y-145600952D01*
X108897833Y-145553333D01*
X109135928Y-145553333D01*
X109231166Y-145600952D01*
X109278785Y-145648571D01*
X109326404Y-145743809D01*
X109326404Y-145981904D01*
X109278785Y-146077142D01*
X109231166Y-146124761D01*
X109135928Y-146172380D01*
X108897833Y-146172380D01*
X108802595Y-146124761D01*
X108754976Y-146077142D01*
X77705214Y-55010214D02*
X77667119Y-55048309D01*
X77552833Y-55086404D01*
X77476642Y-55086404D01*
X77362357Y-55048309D01*
X77286166Y-54972119D01*
X77248071Y-54895928D01*
X77209976Y-54743547D01*
X77209976Y-54629261D01*
X77248071Y-54476880D01*
X77286166Y-54400690D01*
X77362357Y-54324500D01*
X77476642Y-54286404D01*
X77552833Y-54286404D01*
X77667119Y-54324500D01*
X77705214Y-54362595D01*
X78009976Y-54362595D02*
X78048071Y-54324500D01*
X78124261Y-54286404D01*
X78314738Y-54286404D01*
X78390928Y-54324500D01*
X78429023Y-54362595D01*
X78467119Y-54438785D01*
X78467119Y-54514976D01*
X78429023Y-54629261D01*
X77971880Y-55086404D01*
X78467119Y-55086404D01*
X78733785Y-54286404D02*
X79267119Y-54286404D01*
X78924261Y-55086404D01*
X75038214Y-54946714D02*
X75000119Y-54984809D01*
X74885833Y-55022904D01*
X74809642Y-55022904D01*
X74695357Y-54984809D01*
X74619166Y-54908619D01*
X74581071Y-54832428D01*
X74542976Y-54680047D01*
X74542976Y-54565761D01*
X74581071Y-54413380D01*
X74619166Y-54337190D01*
X74695357Y-54261000D01*
X74809642Y-54222904D01*
X74885833Y-54222904D01*
X75000119Y-54261000D01*
X75038214Y-54299095D01*
X75342976Y-54299095D02*
X75381071Y-54261000D01*
X75457261Y-54222904D01*
X75647738Y-54222904D01*
X75723928Y-54261000D01*
X75762023Y-54299095D01*
X75800119Y-54375285D01*
X75800119Y-54451476D01*
X75762023Y-54565761D01*
X75304880Y-55022904D01*
X75800119Y-55022904D01*
X76257261Y-54565761D02*
X76181071Y-54527666D01*
X76142976Y-54489571D01*
X76104880Y-54413380D01*
X76104880Y-54375285D01*
X76142976Y-54299095D01*
X76181071Y-54261000D01*
X76257261Y-54222904D01*
X76409642Y-54222904D01*
X76485833Y-54261000D01*
X76523928Y-54299095D01*
X76562023Y-54375285D01*
X76562023Y-54413380D01*
X76523928Y-54489571D01*
X76485833Y-54527666D01*
X76409642Y-54565761D01*
X76257261Y-54565761D01*
X76181071Y-54603857D01*
X76142976Y-54641952D01*
X76104880Y-54718142D01*
X76104880Y-54870523D01*
X76142976Y-54946714D01*
X76181071Y-54984809D01*
X76257261Y-55022904D01*
X76409642Y-55022904D01*
X76485833Y-54984809D01*
X76523928Y-54946714D01*
X76562023Y-54870523D01*
X76562023Y-54718142D01*
X76523928Y-54641952D01*
X76485833Y-54603857D01*
X76409642Y-54565761D01*
X79203714Y-60890285D02*
X79241809Y-60928380D01*
X79279904Y-61042666D01*
X79279904Y-61118857D01*
X79241809Y-61233142D01*
X79165619Y-61309333D01*
X79089428Y-61347428D01*
X78937047Y-61385523D01*
X78822761Y-61385523D01*
X78670380Y-61347428D01*
X78594190Y-61309333D01*
X78518000Y-61233142D01*
X78479904Y-61118857D01*
X78479904Y-61042666D01*
X78518000Y-60928380D01*
X78556095Y-60890285D01*
X78556095Y-60585523D02*
X78518000Y-60547428D01*
X78479904Y-60471238D01*
X78479904Y-60280761D01*
X78518000Y-60204571D01*
X78556095Y-60166476D01*
X78632285Y-60128380D01*
X78708476Y-60128380D01*
X78822761Y-60166476D01*
X79279904Y-60623619D01*
X79279904Y-60128380D01*
X79279904Y-59747428D02*
X79279904Y-59595047D01*
X79241809Y-59518857D01*
X79203714Y-59480761D01*
X79089428Y-59404571D01*
X78937047Y-59366476D01*
X78632285Y-59366476D01*
X78556095Y-59404571D01*
X78518000Y-59442666D01*
X78479904Y-59518857D01*
X78479904Y-59671238D01*
X78518000Y-59747428D01*
X78556095Y-59785523D01*
X78632285Y-59823619D01*
X78822761Y-59823619D01*
X78898952Y-59785523D01*
X78937047Y-59747428D01*
X78975142Y-59671238D01*
X78975142Y-59518857D01*
X78937047Y-59442666D01*
X78898952Y-59404571D01*
X78822761Y-59366476D01*
X73742714Y-134550285D02*
X73780809Y-134588380D01*
X73818904Y-134702666D01*
X73818904Y-134778857D01*
X73780809Y-134893142D01*
X73704619Y-134969333D01*
X73628428Y-135007428D01*
X73476047Y-135045523D01*
X73361761Y-135045523D01*
X73209380Y-135007428D01*
X73133190Y-134969333D01*
X73057000Y-134893142D01*
X73018904Y-134778857D01*
X73018904Y-134702666D01*
X73057000Y-134588380D01*
X73095095Y-134550285D01*
X73018904Y-134283619D02*
X73018904Y-133788380D01*
X73323666Y-134055047D01*
X73323666Y-133940761D01*
X73361761Y-133864571D01*
X73399857Y-133826476D01*
X73476047Y-133788380D01*
X73666523Y-133788380D01*
X73742714Y-133826476D01*
X73780809Y-133864571D01*
X73818904Y-133940761D01*
X73818904Y-134169333D01*
X73780809Y-134245523D01*
X73742714Y-134283619D01*
X73018904Y-133293142D02*
X73018904Y-133216952D01*
X73057000Y-133140761D01*
X73095095Y-133102666D01*
X73171285Y-133064571D01*
X73323666Y-133026476D01*
X73514142Y-133026476D01*
X73666523Y-133064571D01*
X73742714Y-133102666D01*
X73780809Y-133140761D01*
X73818904Y-133216952D01*
X73818904Y-133293142D01*
X73780809Y-133369333D01*
X73742714Y-133407428D01*
X73666523Y-133445523D01*
X73514142Y-133483619D01*
X73323666Y-133483619D01*
X73171285Y-133445523D01*
X73095095Y-133407428D01*
X73057000Y-133369333D01*
X73018904Y-133293142D01*
X62630214Y-115817785D02*
X62668309Y-115855880D01*
X62706404Y-115970166D01*
X62706404Y-116046357D01*
X62668309Y-116160642D01*
X62592119Y-116236833D01*
X62515928Y-116274928D01*
X62363547Y-116313023D01*
X62249261Y-116313023D01*
X62096880Y-116274928D01*
X62020690Y-116236833D01*
X61944500Y-116160642D01*
X61906404Y-116046357D01*
X61906404Y-115970166D01*
X61944500Y-115855880D01*
X61982595Y-115817785D01*
X61906404Y-115551119D02*
X61906404Y-115055880D01*
X62211166Y-115322547D01*
X62211166Y-115208261D01*
X62249261Y-115132071D01*
X62287357Y-115093976D01*
X62363547Y-115055880D01*
X62554023Y-115055880D01*
X62630214Y-115093976D01*
X62668309Y-115132071D01*
X62706404Y-115208261D01*
X62706404Y-115436833D01*
X62668309Y-115513023D01*
X62630214Y-115551119D01*
X62706404Y-114293976D02*
X62706404Y-114751119D01*
X62706404Y-114522547D02*
X61906404Y-114522547D01*
X62020690Y-114598738D01*
X62096880Y-114674928D01*
X62134976Y-114751119D01*
X62630214Y-122866285D02*
X62668309Y-122904380D01*
X62706404Y-123018666D01*
X62706404Y-123094857D01*
X62668309Y-123209142D01*
X62592119Y-123285333D01*
X62515928Y-123323428D01*
X62363547Y-123361523D01*
X62249261Y-123361523D01*
X62096880Y-123323428D01*
X62020690Y-123285333D01*
X61944500Y-123209142D01*
X61906404Y-123094857D01*
X61906404Y-123018666D01*
X61944500Y-122904380D01*
X61982595Y-122866285D01*
X61906404Y-122599619D02*
X61906404Y-122104380D01*
X62211166Y-122371047D01*
X62211166Y-122256761D01*
X62249261Y-122180571D01*
X62287357Y-122142476D01*
X62363547Y-122104380D01*
X62554023Y-122104380D01*
X62630214Y-122142476D01*
X62668309Y-122180571D01*
X62706404Y-122256761D01*
X62706404Y-122485333D01*
X62668309Y-122561523D01*
X62630214Y-122599619D01*
X61982595Y-121799619D02*
X61944500Y-121761523D01*
X61906404Y-121685333D01*
X61906404Y-121494857D01*
X61944500Y-121418666D01*
X61982595Y-121380571D01*
X62058785Y-121342476D01*
X62134976Y-121342476D01*
X62249261Y-121380571D01*
X62706404Y-121837714D01*
X62706404Y-121342476D01*
X71101214Y-117748214D02*
X71063119Y-117786309D01*
X70948833Y-117824404D01*
X70872642Y-117824404D01*
X70758357Y-117786309D01*
X70682166Y-117710119D01*
X70644071Y-117633928D01*
X70605976Y-117481547D01*
X70605976Y-117367261D01*
X70644071Y-117214880D01*
X70682166Y-117138690D01*
X70758357Y-117062500D01*
X70872642Y-117024404D01*
X70948833Y-117024404D01*
X71063119Y-117062500D01*
X71101214Y-117100595D01*
X71367880Y-117024404D02*
X71863119Y-117024404D01*
X71596452Y-117329166D01*
X71710738Y-117329166D01*
X71786928Y-117367261D01*
X71825023Y-117405357D01*
X71863119Y-117481547D01*
X71863119Y-117672023D01*
X71825023Y-117748214D01*
X71786928Y-117786309D01*
X71710738Y-117824404D01*
X71482166Y-117824404D01*
X71405976Y-117786309D01*
X71367880Y-117748214D01*
X72129785Y-117024404D02*
X72625023Y-117024404D01*
X72358357Y-117329166D01*
X72472642Y-117329166D01*
X72548833Y-117367261D01*
X72586928Y-117405357D01*
X72625023Y-117481547D01*
X72625023Y-117672023D01*
X72586928Y-117748214D01*
X72548833Y-117786309D01*
X72472642Y-117824404D01*
X72244071Y-117824404D01*
X72167880Y-117786309D01*
X72129785Y-117748214D01*
X69767714Y-125876214D02*
X69729619Y-125914309D01*
X69615333Y-125952404D01*
X69539142Y-125952404D01*
X69424857Y-125914309D01*
X69348666Y-125838119D01*
X69310571Y-125761928D01*
X69272476Y-125609547D01*
X69272476Y-125495261D01*
X69310571Y-125342880D01*
X69348666Y-125266690D01*
X69424857Y-125190500D01*
X69539142Y-125152404D01*
X69615333Y-125152404D01*
X69729619Y-125190500D01*
X69767714Y-125228595D01*
X70034380Y-125152404D02*
X70529619Y-125152404D01*
X70262952Y-125457166D01*
X70377238Y-125457166D01*
X70453428Y-125495261D01*
X70491523Y-125533357D01*
X70529619Y-125609547D01*
X70529619Y-125800023D01*
X70491523Y-125876214D01*
X70453428Y-125914309D01*
X70377238Y-125952404D01*
X70148666Y-125952404D01*
X70072476Y-125914309D01*
X70034380Y-125876214D01*
X71215333Y-125419071D02*
X71215333Y-125952404D01*
X71024857Y-125114309D02*
X70834380Y-125685738D01*
X71329619Y-125685738D01*
X62789095Y-125741380D02*
X62789095Y-126550904D01*
X62836714Y-126646142D01*
X62884333Y-126693761D01*
X62979571Y-126741380D01*
X63170047Y-126741380D01*
X63265285Y-126693761D01*
X63312904Y-126646142D01*
X63360523Y-126550904D01*
X63360523Y-125741380D01*
X64265285Y-125741380D02*
X64074809Y-125741380D01*
X63979571Y-125789000D01*
X63931952Y-125836619D01*
X63836714Y-125979476D01*
X63789095Y-126169952D01*
X63789095Y-126550904D01*
X63836714Y-126646142D01*
X63884333Y-126693761D01*
X63979571Y-126741380D01*
X64170047Y-126741380D01*
X64265285Y-126693761D01*
X64312904Y-126646142D01*
X64360523Y-126550904D01*
X64360523Y-126312809D01*
X64312904Y-126217571D01*
X64265285Y-126169952D01*
X64170047Y-126122333D01*
X63979571Y-126122333D01*
X63884333Y-126169952D01*
X63836714Y-126217571D01*
X63789095Y-126312809D01*
X138525404Y-45345476D02*
X137725404Y-45345476D01*
X137725404Y-45155000D01*
X137763500Y-45040714D01*
X137839690Y-44964523D01*
X137915880Y-44926428D01*
X138068261Y-44888333D01*
X138182547Y-44888333D01*
X138334928Y-44926428D01*
X138411119Y-44964523D01*
X138487309Y-45040714D01*
X138525404Y-45155000D01*
X138525404Y-45345476D01*
X138525404Y-44507380D02*
X138525404Y-44355000D01*
X138487309Y-44278809D01*
X138449214Y-44240714D01*
X138334928Y-44164523D01*
X138182547Y-44126428D01*
X137877785Y-44126428D01*
X137801595Y-44164523D01*
X137763500Y-44202619D01*
X137725404Y-44278809D01*
X137725404Y-44431190D01*
X137763500Y-44507380D01*
X137801595Y-44545476D01*
X137877785Y-44583571D01*
X138068261Y-44583571D01*
X138144452Y-44545476D01*
X138182547Y-44507380D01*
X138220642Y-44431190D01*
X138220642Y-44278809D01*
X138182547Y-44202619D01*
X138144452Y-44164523D01*
X138068261Y-44126428D01*
X138525404Y-49663428D02*
X137725404Y-49663428D01*
X137725404Y-49472952D01*
X137763500Y-49358666D01*
X137839690Y-49282476D01*
X137915880Y-49244380D01*
X138068261Y-49206285D01*
X138182547Y-49206285D01*
X138334928Y-49244380D01*
X138411119Y-49282476D01*
X138487309Y-49358666D01*
X138525404Y-49472952D01*
X138525404Y-49663428D01*
X138525404Y-48444380D02*
X138525404Y-48901523D01*
X138525404Y-48672952D02*
X137725404Y-48672952D01*
X137839690Y-48749142D01*
X137915880Y-48825333D01*
X137953976Y-48901523D01*
X137725404Y-47949142D02*
X137725404Y-47872952D01*
X137763500Y-47796761D01*
X137801595Y-47758666D01*
X137877785Y-47720571D01*
X138030166Y-47682476D01*
X138220642Y-47682476D01*
X138373023Y-47720571D01*
X138449214Y-47758666D01*
X138487309Y-47796761D01*
X138525404Y-47872952D01*
X138525404Y-47949142D01*
X138487309Y-48025333D01*
X138449214Y-48063428D01*
X138373023Y-48101523D01*
X138220642Y-48139619D01*
X138030166Y-48139619D01*
X137877785Y-48101523D01*
X137801595Y-48063428D01*
X137763500Y-48025333D01*
X137725404Y-47949142D01*
X138525404Y-53727428D02*
X137725404Y-53727428D01*
X137725404Y-53536952D01*
X137763500Y-53422666D01*
X137839690Y-53346476D01*
X137915880Y-53308380D01*
X138068261Y-53270285D01*
X138182547Y-53270285D01*
X138334928Y-53308380D01*
X138411119Y-53346476D01*
X138487309Y-53422666D01*
X138525404Y-53536952D01*
X138525404Y-53727428D01*
X138525404Y-52508380D02*
X138525404Y-52965523D01*
X138525404Y-52736952D02*
X137725404Y-52736952D01*
X137839690Y-52813142D01*
X137915880Y-52889333D01*
X137953976Y-52965523D01*
X137725404Y-52241714D02*
X137725404Y-51746476D01*
X138030166Y-52013142D01*
X138030166Y-51898857D01*
X138068261Y-51822666D01*
X138106357Y-51784571D01*
X138182547Y-51746476D01*
X138373023Y-51746476D01*
X138449214Y-51784571D01*
X138487309Y-51822666D01*
X138525404Y-51898857D01*
X138525404Y-52127428D01*
X138487309Y-52203619D01*
X138449214Y-52241714D01*
X138525404Y-57537428D02*
X137725404Y-57537428D01*
X137725404Y-57346952D01*
X137763500Y-57232666D01*
X137839690Y-57156476D01*
X137915880Y-57118380D01*
X138068261Y-57080285D01*
X138182547Y-57080285D01*
X138334928Y-57118380D01*
X138411119Y-57156476D01*
X138487309Y-57232666D01*
X138525404Y-57346952D01*
X138525404Y-57537428D01*
X138525404Y-56318380D02*
X138525404Y-56775523D01*
X138525404Y-56546952D02*
X137725404Y-56546952D01*
X137839690Y-56623142D01*
X137915880Y-56699333D01*
X137953976Y-56775523D01*
X137992071Y-55632666D02*
X138525404Y-55632666D01*
X137687309Y-55823142D02*
X138258738Y-56013619D01*
X138258738Y-55518380D01*
X126019166Y-68273880D02*
X126019166Y-68988166D01*
X125971547Y-69131023D01*
X125876309Y-69226261D01*
X125733452Y-69273880D01*
X125638214Y-69273880D01*
X126447738Y-68369119D02*
X126495357Y-68321500D01*
X126590595Y-68273880D01*
X126828690Y-68273880D01*
X126923928Y-68321500D01*
X126971547Y-68369119D01*
X127019166Y-68464357D01*
X127019166Y-68559595D01*
X126971547Y-68702452D01*
X126400119Y-69273880D01*
X127019166Y-69273880D01*
X68805666Y-32269380D02*
X68805666Y-32983666D01*
X68758047Y-33126523D01*
X68662809Y-33221761D01*
X68519952Y-33269380D01*
X68424714Y-33269380D01*
X69758047Y-32269380D02*
X69281857Y-32269380D01*
X69234238Y-32745571D01*
X69281857Y-32697952D01*
X69377095Y-32650333D01*
X69615190Y-32650333D01*
X69710428Y-32697952D01*
X69758047Y-32745571D01*
X69805666Y-32840809D01*
X69805666Y-33078904D01*
X69758047Y-33174142D01*
X69710428Y-33221761D01*
X69615190Y-33269380D01*
X69377095Y-33269380D01*
X69281857Y-33221761D01*
X69234238Y-33174142D01*
X68805666Y-38746380D02*
X68805666Y-39460666D01*
X68758047Y-39603523D01*
X68662809Y-39698761D01*
X68519952Y-39746380D01*
X68424714Y-39746380D01*
X69710428Y-38746380D02*
X69519952Y-38746380D01*
X69424714Y-38794000D01*
X69377095Y-38841619D01*
X69281857Y-38984476D01*
X69234238Y-39174952D01*
X69234238Y-39555904D01*
X69281857Y-39651142D01*
X69329476Y-39698761D01*
X69424714Y-39746380D01*
X69615190Y-39746380D01*
X69710428Y-39698761D01*
X69758047Y-39651142D01*
X69805666Y-39555904D01*
X69805666Y-39317809D01*
X69758047Y-39222571D01*
X69710428Y-39174952D01*
X69615190Y-39127333D01*
X69424714Y-39127333D01*
X69329476Y-39174952D01*
X69281857Y-39222571D01*
X69234238Y-39317809D01*
X64725761Y-44096119D02*
X64630523Y-44048500D01*
X64535285Y-43953261D01*
X64392428Y-43810404D01*
X64297190Y-43762785D01*
X64201952Y-43762785D01*
X64249571Y-44000880D02*
X64154333Y-43953261D01*
X64059095Y-43858023D01*
X64011476Y-43667547D01*
X64011476Y-43334214D01*
X64059095Y-43143738D01*
X64154333Y-43048500D01*
X64249571Y-43000880D01*
X64440047Y-43000880D01*
X64535285Y-43048500D01*
X64630523Y-43143738D01*
X64678142Y-43334214D01*
X64678142Y-43667547D01*
X64630523Y-43858023D01*
X64535285Y-43953261D01*
X64440047Y-44000880D01*
X64249571Y-44000880D01*
X65011476Y-43000880D02*
X65630523Y-43000880D01*
X65297190Y-43381833D01*
X65440047Y-43381833D01*
X65535285Y-43429452D01*
X65582904Y-43477071D01*
X65630523Y-43572309D01*
X65630523Y-43810404D01*
X65582904Y-43905642D01*
X65535285Y-43953261D01*
X65440047Y-44000880D01*
X65154333Y-44000880D01*
X65059095Y-43953261D01*
X65011476Y-43905642D01*
X126193761Y-71782119D02*
X126098523Y-71734500D01*
X126003285Y-71639261D01*
X125860428Y-71496404D01*
X125765190Y-71448785D01*
X125669952Y-71448785D01*
X125717571Y-71686880D02*
X125622333Y-71639261D01*
X125527095Y-71544023D01*
X125479476Y-71353547D01*
X125479476Y-71020214D01*
X125527095Y-70829738D01*
X125622333Y-70734500D01*
X125717571Y-70686880D01*
X125908047Y-70686880D01*
X126003285Y-70734500D01*
X126098523Y-70829738D01*
X126146142Y-71020214D01*
X126146142Y-71353547D01*
X126098523Y-71544023D01*
X126003285Y-71639261D01*
X125908047Y-71686880D01*
X125717571Y-71686880D01*
X127003285Y-71020214D02*
X127003285Y-71686880D01*
X126765190Y-70639261D02*
X126527095Y-71353547D01*
X127146142Y-71353547D01*
X64979761Y-97436119D02*
X64884523Y-97388500D01*
X64789285Y-97293261D01*
X64646428Y-97150404D01*
X64551190Y-97102785D01*
X64455952Y-97102785D01*
X64503571Y-97340880D02*
X64408333Y-97293261D01*
X64313095Y-97198023D01*
X64265476Y-97007547D01*
X64265476Y-96674214D01*
X64313095Y-96483738D01*
X64408333Y-96388500D01*
X64503571Y-96340880D01*
X64694047Y-96340880D01*
X64789285Y-96388500D01*
X64884523Y-96483738D01*
X64932142Y-96674214D01*
X64932142Y-97007547D01*
X64884523Y-97198023D01*
X64789285Y-97293261D01*
X64694047Y-97340880D01*
X64503571Y-97340880D01*
X65836904Y-96340880D02*
X65360714Y-96340880D01*
X65313095Y-96817071D01*
X65360714Y-96769452D01*
X65455952Y-96721833D01*
X65694047Y-96721833D01*
X65789285Y-96769452D01*
X65836904Y-96817071D01*
X65884523Y-96912309D01*
X65884523Y-97150404D01*
X65836904Y-97245642D01*
X65789285Y-97293261D01*
X65694047Y-97340880D01*
X65455952Y-97340880D01*
X65360714Y-97293261D01*
X65313095Y-97245642D01*
X132416761Y-138139619D02*
X132321523Y-138092000D01*
X132226285Y-137996761D01*
X132083428Y-137853904D01*
X131988190Y-137806285D01*
X131892952Y-137806285D01*
X131940571Y-138044380D02*
X131845333Y-137996761D01*
X131750095Y-137901523D01*
X131702476Y-137711047D01*
X131702476Y-137377714D01*
X131750095Y-137187238D01*
X131845333Y-137092000D01*
X131940571Y-137044380D01*
X132131047Y-137044380D01*
X132226285Y-137092000D01*
X132321523Y-137187238D01*
X132369142Y-137377714D01*
X132369142Y-137711047D01*
X132321523Y-137901523D01*
X132226285Y-137996761D01*
X132131047Y-138044380D01*
X131940571Y-138044380D01*
X132940571Y-137472952D02*
X132845333Y-137425333D01*
X132797714Y-137377714D01*
X132750095Y-137282476D01*
X132750095Y-137234857D01*
X132797714Y-137139619D01*
X132845333Y-137092000D01*
X132940571Y-137044380D01*
X133131047Y-137044380D01*
X133226285Y-137092000D01*
X133273904Y-137139619D01*
X133321523Y-137234857D01*
X133321523Y-137282476D01*
X133273904Y-137377714D01*
X133226285Y-137425333D01*
X133131047Y-137472952D01*
X132940571Y-137472952D01*
X132845333Y-137520571D01*
X132797714Y-137568190D01*
X132750095Y-137663428D01*
X132750095Y-137853904D01*
X132797714Y-137949142D01*
X132845333Y-137996761D01*
X132940571Y-138044380D01*
X133131047Y-138044380D01*
X133226285Y-137996761D01*
X133273904Y-137949142D01*
X133321523Y-137853904D01*
X133321523Y-137663428D01*
X133273904Y-137568190D01*
X133226285Y-137520571D01*
X133131047Y-137472952D01*
X78505261Y-53494119D02*
X78410023Y-53446500D01*
X78314785Y-53351261D01*
X78171928Y-53208404D01*
X78076690Y-53160785D01*
X77981452Y-53160785D01*
X78029071Y-53398880D02*
X77933833Y-53351261D01*
X77838595Y-53256023D01*
X77790976Y-53065547D01*
X77790976Y-52732214D01*
X77838595Y-52541738D01*
X77933833Y-52446500D01*
X78029071Y-52398880D01*
X78219547Y-52398880D01*
X78314785Y-52446500D01*
X78410023Y-52541738D01*
X78457642Y-52732214D01*
X78457642Y-53065547D01*
X78410023Y-53256023D01*
X78314785Y-53351261D01*
X78219547Y-53398880D01*
X78029071Y-53398880D01*
X78933833Y-53398880D02*
X79124309Y-53398880D01*
X79219547Y-53351261D01*
X79267166Y-53303642D01*
X79362404Y-53160785D01*
X79410023Y-52970309D01*
X79410023Y-52589357D01*
X79362404Y-52494119D01*
X79314785Y-52446500D01*
X79219547Y-52398880D01*
X79029071Y-52398880D01*
X78933833Y-52446500D01*
X78886214Y-52494119D01*
X78838595Y-52589357D01*
X78838595Y-52827452D01*
X78886214Y-52922690D01*
X78933833Y-52970309D01*
X79029071Y-53017928D01*
X79219547Y-53017928D01*
X79314785Y-52970309D01*
X79362404Y-52922690D01*
X79410023Y-52827452D01*
X64821071Y-109691619D02*
X64725833Y-109644000D01*
X64630595Y-109548761D01*
X64487738Y-109405904D01*
X64392500Y-109358285D01*
X64297261Y-109358285D01*
X64344880Y-109596380D02*
X64249642Y-109548761D01*
X64154404Y-109453523D01*
X64106785Y-109263047D01*
X64106785Y-108929714D01*
X64154404Y-108739238D01*
X64249642Y-108644000D01*
X64344880Y-108596380D01*
X64535357Y-108596380D01*
X64630595Y-108644000D01*
X64725833Y-108739238D01*
X64773452Y-108929714D01*
X64773452Y-109263047D01*
X64725833Y-109453523D01*
X64630595Y-109548761D01*
X64535357Y-109596380D01*
X64344880Y-109596380D01*
X65725833Y-109596380D02*
X65154404Y-109596380D01*
X65440119Y-109596380D02*
X65440119Y-108596380D01*
X65344880Y-108739238D01*
X65249642Y-108834476D01*
X65154404Y-108882095D01*
X66344880Y-108596380D02*
X66440119Y-108596380D01*
X66535357Y-108644000D01*
X66582976Y-108691619D01*
X66630595Y-108786857D01*
X66678214Y-108977333D01*
X66678214Y-109215428D01*
X66630595Y-109405904D01*
X66582976Y-109501142D01*
X66535357Y-109548761D01*
X66440119Y-109596380D01*
X66344880Y-109596380D01*
X66249642Y-109548761D01*
X66202023Y-109501142D01*
X66154404Y-109405904D01*
X66106785Y-109215428D01*
X66106785Y-108977333D01*
X66154404Y-108786857D01*
X66202023Y-108691619D01*
X66249642Y-108644000D01*
X66344880Y-108596380D01*
X61633357Y-119805595D02*
X61557166Y-119767500D01*
X61480976Y-119691309D01*
X61366690Y-119577023D01*
X61290500Y-119538928D01*
X61214309Y-119538928D01*
X61252404Y-119729404D02*
X61176214Y-119691309D01*
X61100023Y-119615119D01*
X61061928Y-119462738D01*
X61061928Y-119196071D01*
X61100023Y-119043690D01*
X61176214Y-118967500D01*
X61252404Y-118929404D01*
X61404785Y-118929404D01*
X61480976Y-118967500D01*
X61557166Y-119043690D01*
X61595261Y-119196071D01*
X61595261Y-119462738D01*
X61557166Y-119615119D01*
X61480976Y-119691309D01*
X61404785Y-119729404D01*
X61252404Y-119729404D01*
X62357166Y-119729404D02*
X61900023Y-119729404D01*
X62128595Y-119729404D02*
X62128595Y-118929404D01*
X62052404Y-119043690D01*
X61976214Y-119119880D01*
X61900023Y-119157976D01*
X62661928Y-119005595D02*
X62700023Y-118967500D01*
X62776214Y-118929404D01*
X62966690Y-118929404D01*
X63042880Y-118967500D01*
X63080976Y-119005595D01*
X63119071Y-119081785D01*
X63119071Y-119157976D01*
X63080976Y-119272261D01*
X62623833Y-119729404D01*
X63119071Y-119729404D01*
X68059571Y-109707619D02*
X67964333Y-109660000D01*
X67869095Y-109564761D01*
X67726238Y-109421904D01*
X67631000Y-109374285D01*
X67535761Y-109374285D01*
X67583380Y-109612380D02*
X67488142Y-109564761D01*
X67392904Y-109469523D01*
X67345285Y-109279047D01*
X67345285Y-108945714D01*
X67392904Y-108755238D01*
X67488142Y-108660000D01*
X67583380Y-108612380D01*
X67773857Y-108612380D01*
X67869095Y-108660000D01*
X67964333Y-108755238D01*
X68011952Y-108945714D01*
X68011952Y-109279047D01*
X67964333Y-109469523D01*
X67869095Y-109564761D01*
X67773857Y-109612380D01*
X67583380Y-109612380D01*
X68964333Y-109612380D02*
X68392904Y-109612380D01*
X68678619Y-109612380D02*
X68678619Y-108612380D01*
X68583380Y-108755238D01*
X68488142Y-108850476D01*
X68392904Y-108898095D01*
X69916714Y-109612380D02*
X69345285Y-109612380D01*
X69631000Y-109612380D02*
X69631000Y-108612380D01*
X69535761Y-108755238D01*
X69440523Y-108850476D01*
X69345285Y-108898095D01*
X71425071Y-119788119D02*
X71329833Y-119740500D01*
X71234595Y-119645261D01*
X71091738Y-119502404D01*
X70996500Y-119454785D01*
X70901261Y-119454785D01*
X70948880Y-119692880D02*
X70853642Y-119645261D01*
X70758404Y-119550023D01*
X70710785Y-119359547D01*
X70710785Y-119026214D01*
X70758404Y-118835738D01*
X70853642Y-118740500D01*
X70948880Y-118692880D01*
X71139357Y-118692880D01*
X71234595Y-118740500D01*
X71329833Y-118835738D01*
X71377452Y-119026214D01*
X71377452Y-119359547D01*
X71329833Y-119550023D01*
X71234595Y-119645261D01*
X71139357Y-119692880D01*
X70948880Y-119692880D01*
X72329833Y-119692880D02*
X71758404Y-119692880D01*
X72044119Y-119692880D02*
X72044119Y-118692880D01*
X71948880Y-118835738D01*
X71853642Y-118930976D01*
X71758404Y-118978595D01*
X72663166Y-118692880D02*
X73282214Y-118692880D01*
X72948880Y-119073833D01*
X73091738Y-119073833D01*
X73186976Y-119121452D01*
X73234595Y-119169071D01*
X73282214Y-119264309D01*
X73282214Y-119502404D01*
X73234595Y-119597642D01*
X73186976Y-119645261D01*
X73091738Y-119692880D01*
X72806023Y-119692880D01*
X72710785Y-119645261D01*
X72663166Y-119597642D01*
X121240809Y-42318190D02*
X121240809Y-42794380D01*
X120907476Y-41794380D02*
X121240809Y-42318190D01*
X121574142Y-41794380D01*
X122431285Y-42794380D02*
X121859857Y-42794380D01*
X122145571Y-42794380D02*
X122145571Y-41794380D01*
X122050333Y-41937238D01*
X121955095Y-42032476D01*
X121859857Y-42080095D01*
X137242761Y-71274119D02*
X137147523Y-71226500D01*
X137052285Y-71131261D01*
X136909428Y-70988404D01*
X136814190Y-70940785D01*
X136718952Y-70940785D01*
X136766571Y-71178880D02*
X136671333Y-71131261D01*
X136576095Y-71036023D01*
X136528476Y-70845547D01*
X136528476Y-70512214D01*
X136576095Y-70321738D01*
X136671333Y-70226500D01*
X136766571Y-70178880D01*
X136957047Y-70178880D01*
X137052285Y-70226500D01*
X137147523Y-70321738D01*
X137195142Y-70512214D01*
X137195142Y-70845547D01*
X137147523Y-71036023D01*
X137052285Y-71131261D01*
X136957047Y-71178880D01*
X136766571Y-71178880D01*
X138052285Y-70178880D02*
X137861809Y-70178880D01*
X137766571Y-70226500D01*
X137718952Y-70274119D01*
X137623714Y-70416976D01*
X137576095Y-70607452D01*
X137576095Y-70988404D01*
X137623714Y-71083642D01*
X137671333Y-71131261D01*
X137766571Y-71178880D01*
X137957047Y-71178880D01*
X138052285Y-71131261D01*
X138099904Y-71083642D01*
X138147523Y-70988404D01*
X138147523Y-70750309D01*
X138099904Y-70655071D01*
X138052285Y-70607452D01*
X137957047Y-70559833D01*
X137766571Y-70559833D01*
X137671333Y-70607452D01*
X137623714Y-70655071D01*
X137576095Y-70750309D01*
X137242761Y-67400619D02*
X137147523Y-67353000D01*
X137052285Y-67257761D01*
X136909428Y-67114904D01*
X136814190Y-67067285D01*
X136718952Y-67067285D01*
X136766571Y-67305380D02*
X136671333Y-67257761D01*
X136576095Y-67162523D01*
X136528476Y-66972047D01*
X136528476Y-66638714D01*
X136576095Y-66448238D01*
X136671333Y-66353000D01*
X136766571Y-66305380D01*
X136957047Y-66305380D01*
X137052285Y-66353000D01*
X137147523Y-66448238D01*
X137195142Y-66638714D01*
X137195142Y-66972047D01*
X137147523Y-67162523D01*
X137052285Y-67257761D01*
X136957047Y-67305380D01*
X136766571Y-67305380D01*
X137528476Y-66305380D02*
X138195142Y-66305380D01*
X137766571Y-67305380D01*
X63098666Y-49795380D02*
X63098666Y-50509666D01*
X63051047Y-50652523D01*
X62955809Y-50747761D01*
X62812952Y-50795380D01*
X62717714Y-50795380D01*
X63574857Y-50795380D02*
X63574857Y-49795380D01*
X63955809Y-49795380D01*
X64051047Y-49843000D01*
X64098666Y-49890619D01*
X64146285Y-49985857D01*
X64146285Y-50128714D01*
X64098666Y-50223952D01*
X64051047Y-50271571D01*
X63955809Y-50319190D01*
X63574857Y-50319190D01*
X65098666Y-50795380D02*
X64527238Y-50795380D01*
X64812952Y-50795380D02*
X64812952Y-49795380D01*
X64717714Y-49938238D01*
X64622476Y-50033476D01*
X64527238Y-50081095D01*
X134008761Y-155879833D02*
X134056380Y-155736976D01*
X134056380Y-155498880D01*
X134008761Y-155403642D01*
X133961142Y-155356023D01*
X133865904Y-155308404D01*
X133770666Y-155308404D01*
X133675428Y-155356023D01*
X133627809Y-155403642D01*
X133580190Y-155498880D01*
X133532571Y-155689357D01*
X133484952Y-155784595D01*
X133437333Y-155832214D01*
X133342095Y-155879833D01*
X133246857Y-155879833D01*
X133151619Y-155832214D01*
X133104000Y-155784595D01*
X133056380Y-155689357D01*
X133056380Y-155451261D01*
X133104000Y-155308404D01*
X133056380Y-154975071D02*
X134056380Y-154736976D01*
X133342095Y-154546500D01*
X134056380Y-154356023D01*
X133056380Y-154117928D01*
X134056380Y-153213166D02*
X134056380Y-153784595D01*
X134056380Y-153498880D02*
X133056380Y-153498880D01*
X133199238Y-153594119D01*
X133294476Y-153689357D01*
X133342095Y-153784595D01*
X107714285Y-81100880D02*
X108285714Y-81100880D01*
X108000000Y-82100880D02*
X108000000Y-81100880D01*
X108619047Y-82100880D02*
X108619047Y-81100880D01*
X108619047Y-81577071D02*
X109190476Y-81577071D01*
X109190476Y-82100880D02*
X109190476Y-81100880D01*
X110190476Y-82100880D02*
X109619047Y-82100880D01*
X109904761Y-82100880D02*
X109904761Y-81100880D01*
X109809523Y-81243738D01*
X109714285Y-81338976D01*
X109619047Y-81386595D01*
X126130261Y-169508619D02*
X126035023Y-169461000D01*
X125939785Y-169365761D01*
X125796928Y-169222904D01*
X125701690Y-169175285D01*
X125606452Y-169175285D01*
X125654071Y-169413380D02*
X125558833Y-169365761D01*
X125463595Y-169270523D01*
X125415976Y-169080047D01*
X125415976Y-168746714D01*
X125463595Y-168556238D01*
X125558833Y-168461000D01*
X125654071Y-168413380D01*
X125844547Y-168413380D01*
X125939785Y-168461000D01*
X126035023Y-168556238D01*
X126082642Y-168746714D01*
X126082642Y-169080047D01*
X126035023Y-169270523D01*
X125939785Y-169365761D01*
X125844547Y-169413380D01*
X125654071Y-169413380D01*
X127035023Y-169413380D02*
X126463595Y-169413380D01*
X126749309Y-169413380D02*
X126749309Y-168413380D01*
X126654071Y-168556238D01*
X126558833Y-168651476D01*
X126463595Y-168699095D01*
X133214285Y-81100880D02*
X133785714Y-81100880D01*
X133500000Y-82100880D02*
X133500000Y-81100880D01*
X134119047Y-82100880D02*
X134119047Y-81100880D01*
X134119047Y-81577071D02*
X134690476Y-81577071D01*
X134690476Y-82100880D02*
X134690476Y-81100880D01*
X135119047Y-81196119D02*
X135166666Y-81148500D01*
X135261904Y-81100880D01*
X135500000Y-81100880D01*
X135595238Y-81148500D01*
X135642857Y-81196119D01*
X135690476Y-81291357D01*
X135690476Y-81386595D01*
X135642857Y-81529452D01*
X135071428Y-82100880D01*
X135690476Y-82100880D01*
X92398142Y-165187666D02*
X92445761Y-165235285D01*
X92493380Y-165378142D01*
X92493380Y-165473380D01*
X92445761Y-165616238D01*
X92350523Y-165711476D01*
X92255285Y-165759095D01*
X92064809Y-165806714D01*
X91921952Y-165806714D01*
X91731476Y-165759095D01*
X91636238Y-165711476D01*
X91541000Y-165616238D01*
X91493380Y-165473380D01*
X91493380Y-165378142D01*
X91541000Y-165235285D01*
X91588619Y-165187666D01*
X91493380Y-164854333D02*
X91493380Y-164235285D01*
X91874333Y-164568619D01*
X91874333Y-164425761D01*
X91921952Y-164330523D01*
X91969571Y-164282904D01*
X92064809Y-164235285D01*
X92302904Y-164235285D01*
X92398142Y-164282904D01*
X92445761Y-164330523D01*
X92493380Y-164425761D01*
X92493380Y-164711476D01*
X92445761Y-164806714D01*
X92398142Y-164854333D01*
X76117714Y-72726714D02*
X76079619Y-72764809D01*
X75965333Y-72802904D01*
X75889142Y-72802904D01*
X75774857Y-72764809D01*
X75698666Y-72688619D01*
X75660571Y-72612428D01*
X75622476Y-72460047D01*
X75622476Y-72345761D01*
X75660571Y-72193380D01*
X75698666Y-72117190D01*
X75774857Y-72041000D01*
X75889142Y-72002904D01*
X75965333Y-72002904D01*
X76079619Y-72041000D01*
X76117714Y-72079095D01*
X76879619Y-72802904D02*
X76422476Y-72802904D01*
X76651047Y-72802904D02*
X76651047Y-72002904D01*
X76574857Y-72117190D01*
X76498666Y-72193380D01*
X76422476Y-72231476D01*
X77260571Y-72802904D02*
X77412952Y-72802904D01*
X77489142Y-72764809D01*
X77527238Y-72726714D01*
X77603428Y-72612428D01*
X77641523Y-72460047D01*
X77641523Y-72155285D01*
X77603428Y-72079095D01*
X77565333Y-72041000D01*
X77489142Y-72002904D01*
X77336761Y-72002904D01*
X77260571Y-72041000D01*
X77222476Y-72079095D01*
X77184380Y-72155285D01*
X77184380Y-72345761D01*
X77222476Y-72421952D01*
X77260571Y-72460047D01*
X77336761Y-72498142D01*
X77489142Y-72498142D01*
X77565333Y-72460047D01*
X77603428Y-72421952D01*
X77641523Y-72345761D01*
X76028714Y-133915333D02*
X76066809Y-133953428D01*
X76104904Y-134067714D01*
X76104904Y-134143904D01*
X76066809Y-134258190D01*
X75990619Y-134334380D01*
X75914428Y-134372476D01*
X75762047Y-134410571D01*
X75647761Y-134410571D01*
X75495380Y-134372476D01*
X75419190Y-134334380D01*
X75343000Y-134258190D01*
X75304904Y-134143904D01*
X75304904Y-134067714D01*
X75343000Y-133953428D01*
X75381095Y-133915333D01*
X76104904Y-133153428D02*
X76104904Y-133610571D01*
X76104904Y-133382000D02*
X75304904Y-133382000D01*
X75419190Y-133458190D01*
X75495380Y-133534380D01*
X75533476Y-133610571D01*
X74466666Y-126016904D02*
X74200000Y-125635952D01*
X74009523Y-126016904D02*
X74009523Y-125216904D01*
X74314285Y-125216904D01*
X74390476Y-125255000D01*
X74428571Y-125293095D01*
X74466666Y-125369285D01*
X74466666Y-125483571D01*
X74428571Y-125559761D01*
X74390476Y-125597857D01*
X74314285Y-125635952D01*
X74009523Y-125635952D01*
X75228571Y-126016904D02*
X74771428Y-126016904D01*
X75000000Y-126016904D02*
X75000000Y-125216904D01*
X74923809Y-125331190D01*
X74847619Y-125407380D01*
X74771428Y-125445476D01*
M02*
