<?xml version="1.0" encoding="UTF-8" standalone="no"?>
<!-- Created with Inkscape (http://www.inkscape.org/) -->

<svg
   width="210mm"
   height="297mm"
   viewBox="0 0 210 297"
   version="1.1"
   id="svg1743"
   inkscape:version="1.1.2 (0a00cf5339, 2022-02-04)"
   sodipodi:docname="TopCoverCAD.svg"
   xmlns:inkscape="http://www.inkscape.org/namespaces/inkscape"
   xmlns:sodipodi="http://sodipodi.sourceforge.net/DTD/sodipodi-0.dtd"
   xmlns="http://www.w3.org/2000/svg"
   xmlns:svg="http://www.w3.org/2000/svg">
  <sodipodi:namedview
     id="namedview1745"
     pagecolor="#ffffff"
     bordercolor="#000000"
     borderopacity="0.25"
     inkscape:pageshadow="2"
     inkscape:pageopacity="0.0"
     inkscape:pagecheckerboard="0"
     inkscape:document-units="mm"
     showgrid="false"
     inkscape:zoom="0.7198092"
     inkscape:cx="359.81757"
     inkscape:cy="534.16933"
     inkscape:window-width="1850"
     inkscape:window-height="1016"
     inkscape:window-x="0"
     inkscape:window-y="0"
     inkscape:window-maximized="1"
     inkscape:current-layer="layer1" />
  <defs
     id="defs1740" />
  <g
     inkscape:label="Layer 1"
     inkscape:groupmode="layer"
     id="layer1">
    <g
       id="g1014"
       transform="matrix(0,0.35277777,0.35277777,0,76.611368,222.9161)">
      <path
         d="m 0,0 0.934,0.029 0.931,0.088 0.924,0.147 0.912,0.204 0.898,0.26 0.879,0.317 0.858,0.371 0.833,0.425 0.805,0.476 0.773,0.525 0.739,0.573 0.701,0.618 0.661,0.662 0.619,0.701 0.573,0.739 0.525,0.773 0.476,0.804 0.425,0.834 0.371,0.858 0.317,0.879 0.26,0.898 0.204,0.912 0.147,0.924 0.088,0.93 0.029,0.935"
         style="fill:none;stroke:#808080;stroke-width:0.51;stroke-linecap:butt;stroke-linejoin:miter;stroke-miterlimit:10;stroke-dasharray:43.2, 3.6, 3.6, 3.6;stroke-dashoffset:36.914;stroke-opacity:1"
         id="path1016" />
    </g>
    <g
       id="g1018"
       transform="matrix(0,0.35277777,0.35277777,0,81.861368,85.666108)">
      <path
         d="m 0,0 0.029,-0.934 0.088,-0.931 0.147,-0.924 0.204,-0.912 0.26,-0.898 0.317,-0.879 0.371,-0.858 0.425,-0.833 0.476,-0.805 0.525,-0.773 0.573,-0.739 0.618,-0.701 0.662,-0.661 0.701,-0.619 0.739,-0.573 0.773,-0.525 0.804,-0.476 0.834,-0.425 0.858,-0.371 0.879,-0.317 0.898,-0.26 0.912,-0.204 0.924,-0.147 0.93,-0.088 0.935,-0.029"
         style="fill:none;stroke:#808080;stroke-width:0.51;stroke-linecap:butt;stroke-linejoin:miter;stroke-miterlimit:10;stroke-dasharray:43.2, 3.6, 3.6, 3.6;stroke-dashoffset:36.914;stroke-opacity:1"
         id="path1020" />
    </g>
    <g
       id="g1022"
       transform="matrix(0,0.35277777,0.35277777,0,161.61133,90.916111)">
      <path
         d="m 0,0 -0.934,-0.029 -0.931,-0.088 -0.924,-0.147 -0.912,-0.204 -0.898,-0.26 -0.879,-0.317 -0.858,-0.371 -0.833,-0.425 -0.805,-0.476 -0.773,-0.525 -0.739,-0.573 -0.701,-0.618 -0.661,-0.662 -0.619,-0.701 -0.573,-0.739 -0.525,-0.773 -0.476,-0.804 -0.425,-0.833 -0.371,-0.859 -0.317,-0.879 -0.26,-0.898 -0.204,-0.912 -0.147,-0.924 -0.088,-0.93 -0.029,-0.935"
         style="fill:none;stroke:#808080;stroke-width:0.51;stroke-linecap:butt;stroke-linejoin:miter;stroke-miterlimit:10;stroke-dasharray:43.2, 3.6, 3.6, 3.6;stroke-dashoffset:36.914;stroke-opacity:1"
         id="path1024" />
    </g>
    <g
       id="g1026"
       transform="matrix(0,0.35277777,0.35277777,0,156.36137,228.1661)">
      <path
         d="m 0,0 -0.029,0.934 -0.088,0.931 -0.147,0.924 -0.204,0.912 -0.26,0.898 -0.317,0.879 -0.371,0.858 -0.425,0.833 -0.476,0.805 -0.525,0.773 -0.573,0.739 -0.618,0.701 -0.662,0.661 -0.701,0.619 -0.739,0.573 -0.773,0.525 -0.804,0.476 -0.833,0.425 -0.858,0.371 -0.88,0.317 -0.898,0.26 -0.912,0.204 -0.924,0.147 -0.93,0.088 -0.935,0.029"
         style="fill:none;stroke:#808080;stroke-width:0.51;stroke-linecap:butt;stroke-linejoin:miter;stroke-miterlimit:10;stroke-dasharray:43.2, 3.6, 3.6, 3.6;stroke-dashoffset:36.914;stroke-opacity:1"
         id="path1028" />
    </g>
    <g
       id="g1146"
       transform="matrix(0,0.35277777,0.35277777,0,123.99426,108.6161)">
      <path
         d="M 0,0 V 32.598"
         style="fill:none;stroke:#000000;stroke-width:0.51;stroke-linecap:round;stroke-linejoin:round;stroke-miterlimit:10;stroke-dasharray:43.2, 3.6, 3.6, 3.6;stroke-dashoffset:32.301;stroke-opacity:1"
         id="path1148" />
    </g>
    <g
       id="g1150"
       transform="matrix(0,0.35277777,0.35277777,0,118.99423,103.61611)">
      <path
         d="M 0,0 H -32.598"
         style="fill:none;stroke:#000000;stroke-width:0.51;stroke-linecap:round;stroke-linejoin:round;stroke-miterlimit:10;stroke-dasharray:43.2, 3.6, 3.6, 3.6;stroke-dashoffset:32.301;stroke-opacity:1"
         id="path1152" />
    </g>
    <g
       id="g1154"
       transform="matrix(0,0.35277777,0.35277777,0,113.99424,108.6161)">
      <path
         d="M 0,0 V -32.598"
         style="fill:none;stroke:#000000;stroke-width:0.51;stroke-linecap:round;stroke-linejoin:round;stroke-miterlimit:10;stroke-dasharray:43.2, 3.6, 3.6, 3.6;stroke-dashoffset:32.301;stroke-opacity:1"
         id="path1156" />
    </g>
    <g
       id="g1158"
       transform="matrix(0,0.35277777,0.35277777,0,118.99423,113.61613)">
      <path
         d="M 0,0 H 32.598"
         style="fill:none;stroke:#000000;stroke-width:0.51;stroke-linecap:round;stroke-linejoin:round;stroke-miterlimit:10;stroke-dasharray:43.2, 3.6, 3.6, 3.6;stroke-dashoffset:32.301;stroke-opacity:1"
         id="path1160" />
    </g>
    <g
       id="g1174"
       transform="matrix(0,0.35277777,0.35277777,0,173.83699,156.91611)">
      <path
         d="M 0,0 V -305.038"
         style="fill:none;stroke:#808080;stroke-width:0.51;stroke-linecap:round;stroke-linejoin:round;stroke-miterlimit:10;stroke-dasharray:43.2, 3.6, 3.6, 3.6;stroke-dashoffset:4.081;stroke-opacity:1"
         id="path1176" />
    </g>
    <g
       id="g1178"
       transform="matrix(0,0.35277777,0.35277777,0,162.68131,144.61612)">
      <path
         d="M 0,0 V -263.41"
         style="fill:none;stroke:#808080;stroke-width:0.51;stroke-linecap:round;stroke-linejoin:round;stroke-miterlimit:10;stroke-dasharray:43.2, 3.6, 3.6, 3.6;stroke-dashoffset:-2.105;stroke-opacity:1"
         id="path1180" />
    </g>
    <g
       id="g1182"
       transform="matrix(0,0.35277777,0.35277777,0,136.11136,86.916105)">
      <path
         d="M 0,0 H 118.205"
         style="fill:none;stroke:#808080;stroke-width:0.51;stroke-linecap:round;stroke-linejoin:round;stroke-miterlimit:10;stroke-dasharray:43.2, 3.6, 3.6, 3.6;stroke-dashoffset:16.498;stroke-opacity:1"
         id="path1184" />
    </g>
    <g
       id="g1186"
       transform="matrix(0,0.35277777,0.35277777,0,136.11136,86.916105)">
      <path
         d="M 0,0 V -113.386"
         style="fill:none;stroke:#808080;stroke-width:0.51;stroke-linecap:round;stroke-linejoin:round;stroke-miterlimit:10;stroke-dasharray:43.2, 3.6, 3.6, 3.6;stroke-dashoffset:18.907;stroke-opacity:1"
         id="path1188" />
    </g>
    <g
       id="g1190"
       transform="matrix(0,0.35277777,0.35277777,0,96.111338,86.916105)">
      <path
         d="M 0,0 H 118.205"
         style="fill:none;stroke:#808080;stroke-width:0.51;stroke-linecap:round;stroke-linejoin:round;stroke-miterlimit:10;stroke-dasharray:43.2, 3.6, 3.6, 3.6;stroke-dashoffset:16.498;stroke-opacity:1"
         id="path1192" />
    </g>
    <g
       id="g1194"
       transform="matrix(0,0.35277777,0.35277777,0,136.11136,128.6161)">
      <path
         d="M 0,0 V -113.386"
         style="fill:none;stroke:#808080;stroke-width:0.51;stroke-linecap:round;stroke-linejoin:round;stroke-miterlimit:10;stroke-dasharray:43.2, 3.6, 3.6, 3.6;stroke-dashoffset:18.907;stroke-opacity:1"
         id="path1196" />
    </g>
    <g
       id="g1198"
       transform="matrix(0,0.35277777,0.35277777,0,119.11135,197.00637)">
      <path
         d="M 0,0 H -445.87"
         style="fill:none;stroke:#808080;stroke-width:0.51;stroke-linecap:round;stroke-linejoin:round;stroke-miterlimit:10;stroke-dasharray:43.2, 3.6, 3.6, 3.6;stroke-dashoffset:14.665;stroke-opacity:1"
         id="path1200" />
    </g>
    <g
       id="g1202"
       transform="matrix(0,0.35277777,0.35277777,0,156.36137,228.1661)">
      <path
         d="M 0,0 V -211.181"
         style="fill:none;stroke:#808080;stroke-width:0.51;stroke-linecap:round;stroke-linejoin:round;stroke-miterlimit:10;stroke-dasharray:43.2, 3.6, 3.6, 3.6;stroke-dashoffset:-2.991;stroke-opacity:1"
         id="path1204" />
    </g>
    <g
       id="g1206"
       transform="matrix(0,0.35277777,0.35277777,0,76.611368,90.916111)">
      <path
         d="M 0,0 H 374.173"
         style="fill:none;stroke:#808080;stroke-width:0.51;stroke-linecap:round;stroke-linejoin:round;stroke-miterlimit:10;stroke-dasharray:43.2, 3.6, 3.6, 3.6;stroke-dashoffset:-3.487;stroke-opacity:1"
         id="path1208" />
    </g>
    <g
       id="g1210"
       transform="matrix(0,0.35277777,0.35277777,0,156.36137,85.666108)">
      <path
         d="M 0,0 V -211.181"
         style="fill:none;stroke:#808080;stroke-width:0.51;stroke-linecap:round;stroke-linejoin:round;stroke-miterlimit:10;stroke-dasharray:43.2, 3.6, 3.6, 3.6;stroke-dashoffset:-2.991;stroke-opacity:1"
         id="path1212" />
    </g>
    <g
       id="g1214"
       transform="matrix(0,0.35277777,0.35277777,0,161.61133,90.916111)">
      <path
         d="M 0,0 H 374.173"
         style="fill:none;stroke:#808080;stroke-width:0.51;stroke-linecap:round;stroke-linejoin:round;stroke-miterlimit:10;stroke-dasharray:43.2, 3.6, 3.6, 3.6;stroke-dashoffset:-3.487;stroke-opacity:1"
         id="path1216" />
    </g>
    <g
       id="g1234"
       transform="matrix(0,0.35277777,0.35277777,0,144.4493,108.6161)">
      <path
         d="M 0,0 V -144.312"
         style="fill:none;stroke:#808080;stroke-width:0.51;stroke-linecap:round;stroke-linejoin:round;stroke-miterlimit:10;stroke-dasharray:43.2, 3.6, 3.6, 3.6;stroke-dashoffset:3.444;stroke-opacity:1"
         id="path1236" />
    </g>
    <g
       id="g1238"
       transform="matrix(0,0.35277777,0.35277777,0,136.11136,88.616106)">
      <path
         d="M 0,0 V -113.386"
         style="fill:none;stroke:#808080;stroke-width:0.51;stroke-linecap:round;stroke-linejoin:round;stroke-miterlimit:10;stroke-dasharray:43.2, 3.6, 3.6, 3.6;stroke-dashoffset:18.907;stroke-opacity:1"
         id="path1240" />
    </g>
    <g
       id="g1242"
       transform="matrix(0,0.35277777,0.35277777,0,128.0034,194.61609)">
      <path
         d="M 0,0 V -50.412"
         style="fill:none;stroke:#808080;stroke-width:0.51;stroke-linecap:round;stroke-linejoin:round;stroke-miterlimit:10;stroke-dasharray:43.2, 3.6, 3.6, 3.6;stroke-dashoffset:23.394;stroke-opacity:1"
         id="path1244" />
    </g>
    <g
       id="g1246"
       transform="matrix(0,0.35277777,0.35277777,0,147.11136,137.52874)">
      <path
         d="M 0,0 H 38.764"
         style="fill:none;stroke:#808080;stroke-width:0.51;stroke-linecap:round;stroke-linejoin:round;stroke-miterlimit:10;stroke-dasharray:43.2, 3.6, 3.6, 3.6;stroke-dashoffset:29.218;stroke-opacity:1"
         id="path1248" />
    </g>
    <g
       id="g1250"
       transform="matrix(0,0.35277777,0.35277777,0,91.111348,137.52874)">
      <path
         d="M 0,0 H 38.764"
         style="fill:none;stroke:#808080;stroke-width:0.51;stroke-linecap:round;stroke-linejoin:round;stroke-miterlimit:10;stroke-dasharray:43.2, 3.6, 3.6, 3.6;stroke-dashoffset:29.218;stroke-opacity:1"
         id="path1252" />
    </g>
    <g
       id="g1274"
       transform="matrix(0,0.35277777,0.35277777,0,155.12739,90.885384)">
      <path
         d="M 0,0 1.1,0.2 2,0.7 2.8,1.4 3.3,2.4 3.4,3.4 3.3,4.5 2.8,5.4 2,6.2 1.1,6.7 0,6.8 -1,6.7 -2,6.2 -2.7,5.4 -3.2,4.5 -3.4,3.4 -3.2,2.4 -2.7,1.4 -2,0.7 -1,0.2 0,0 m 374.2,-211.1 1.1,0.1 0.9,0.5 0.8,0.8 0.4,0.9 0.2,1.1 -0.2,1 -0.4,1 -0.8,0.7 -0.9,0.5 -1.1,0.2 -1,-0.2 -1,-0.5 -0.7,-0.7 -0.5,-1 -0.2,-1 0.2,-1.1 0.5,-0.9 0.7,-0.8 1,-0.5 1,-0.1 m -232.6,19.7 0.2,-1.9 0.5,-1.8 0.8,-1.6 1,-1.6 1.3,-1.3 1.5,-1 1.7,-0.8 1.8,-0.5 1.9,-0.2 1.8,0.2 1.8,0.5 1.7,0.8 1.5,1 1.3,1.3 1.1,1.6 0.7,1.6 0.5,1.8 0.2,1.9 m 0,0 v 178.5 m 0,0 -0.2,1.9 -0.5,1.8 -0.7,1.7 -1.1,1.5 -1.3,1.3 -1.5,1.1 -1.7,0.7 -1.8,0.5 -1.8,0.2 -1.9,-0.2 -1.8,-0.5 -1.7,-0.7 -1.5,-1.1 -1.3,-1.3 -1,-1.5 -0.8,-1.7 -0.5,-1.8 -0.2,-1.9 m 0,0 v -178.5 m -91.4,49.2 3.6,0.2 3.6,0.5 3.5,0.8 3.4,1.1 3.4,1.5 3.1,1.7 3,2 2.8,2.3 2.6,2.5 2.4,2.8 2,2.9 1.8,3.2 1.6,3.2 1.2,3.5 0.9,3.5 0.5,3.5 0.3,3.6 -0.1,3.6 -0.4,3.6 -0.7,3.6 -1.1,3.4 -1.4,3.4 -1.6,3.2 -2,3 -2.2,2.9 -2.4,2.6 -2.7,2.4 -2.9,2.2 -3.1,1.8 -3.3,1.6 -3.4,1.3 -3.4,1 -3.6,0.6 -3.6,0.4 h -3.6 l -3.6,-0.4 -3.5,-0.6 -3.5,-1 -3.4,-1.3 -3.2,-1.6 -3.1,-1.8 -2.9,-2.2 -2.7,-2.4 -2.5,-2.6 -2.2,-2.9 -2,-3 -1.6,-3.2 -1.4,-3.4 -1,-3.4 -0.8,-3.6 -0.4,-3.6 -0.1,-3.6 0.3,-3.6 0.6,-3.5 0.9,-3.5 1.2,-3.5 1.5,-3.2 1.8,-3.2 2.1,-2.9 2.3,-2.8 2.6,-2.5 2.8,-2.3 3,-2 3.2,-1.7 3.3,-1.5 3.4,-1.1 3.5,-0.8 3.6,-0.5 3.6,-0.2 m 324,160.5 H 0 m 389.1,-14.9 -0.2,2.4 -0.5,2.2 -0.9,2.2 -1.2,2 -1.6,1.8 -1.7,1.5 -2,1.2 -2.2,0.9 -2.3,0.5 -2.3,0.2 m 14.9,-226 V 3.4 m -14.9,-226 2.3,0.2 2.3,0.5 2.2,0.9 2,1.2 1.7,1.5 1.6,1.8 1.2,2 0.9,2.2 0.5,2.2 0.2,2.4 M 0,-222.6 h 374.2 m -389,14.9 0.1,-2.4 0.6,-2.2 0.9,-2.2 1.2,-2 1.5,-1.8 1.8,-1.5 2,-1.2 2.1,-0.9 2.3,-0.5 2.3,-0.2 M -14.8,3.4 V -207.7 M 0,18.3 -2.3,18.1 -4.6,17.6 -6.7,16.7 -8.7,15.5 -10.5,14 -12,12.2 -13.2,10.2 -14.1,8 -14.7,5.8 -14.8,3.4 M 0,-211.1 l 1.1,0.1 0.9,0.5 0.8,0.8 0.5,0.9 0.1,1.1 -0.1,1 -0.5,1 -0.8,0.7 -0.9,0.5 -1.1,0.2 -1,-0.2 -1,-0.5 -0.7,-0.7 -0.5,-1 -0.2,-1 0.2,-1.1 0.5,-0.9 0.7,-0.8 1,-0.5 1,-0.1 M 374.2,0 l 1.1,0.2 0.9,0.5 0.8,0.7 0.4,1 0.2,1 -0.2,1.1 -0.4,0.9 -0.8,0.8 -0.9,0.5 -1.1,0.1 -1,-0.1 -1,-0.5 -0.7,-0.8 -0.5,-0.9 -0.2,-1.1 0.2,-1 0.5,-1 0.7,-0.7 1,-0.5 1,-0.2"
         style="fill:none;stroke:#000000;stroke-width:0.709;stroke-linecap:round;stroke-linejoin:round;stroke-miterlimit:10;stroke-dasharray:none;stroke-opacity:1"
         id="path1276" />
    </g>
  </g>
</svg>
