999
dxfrw 0.6.3
  0
SECTION
  2
HEADER
  9
$ACADVER
  1
AC1021
  9
$DWGCODEPAGE
  3
ANSI_1252
  9
$INSBASE
 10
0
 20
0
 30
0
  9
$EXTMIN
 10
66.226304
 20
68.833958
 30
0
  9
$EXTMAX
 10
173.837
 20
257.287127
 30
0
  9
$LIMMIN
 10
0
 20
0
  9
$LIMMAX
 10
420
 20
297
  9
$ORTHOMODE
 70
    0
  9
$REGENMODE
 70
    1
  9
$FILLMODE
 70
    1
  9
$QTEXTMODE
 70
    0
  9
$MIRRTEXT
 70
    0
  9
$LTSCALE
 40
1
  9
$ATTMODE
 70
    0
  9
$TEXTSIZE
 40
2.5
  9
$TRACEWID
 40
15.68
  9
$TEXTSTYLE
  7
STANDARD
  9
$CLAYER
  8
0
  9
$CELTYPE
  6
BYLAYER
  9
$CECOLOR
 62
  256
  9
$CELTSCALE
 40
1
  9
$DISPSILH
 70
    0
  9
$DIMSCALE
 40
2.5
  9
$DIMASZ
 40
2.5
  9
$DIMEXO
 40
0.625
  9
$DIMDLI
 40
3.75
  9
$DIMRND
 40
0
  9
$DIMDLE
 40
0
  9
$DIMEXE
 40
1.25
  9
$DIMTP
 40
0
  9
$DIMTM
 40
0
  9
$DIMTXT
 40
2.5
  9
$DIMCEN
 40
2.5
  9
$DIMTSZ
 40
0
  9
$DIMTOL
 70
    0
  9
$DIMLIM
 70
    0
  9
$DIMTIH
 70
    0
  9
$DIMTOH
 70
    0
  9
$DIMSE1
 70
    0
  9
$DIMSE2
 70
    0
  9
$DIMTAD
 70
    1
  9
$DIMZIN
 70
    8
  9
$DIMBLK
  1

  9
$DIMASO
 70
    1
  9
$DIMSHO
 70
    1
  9
$DIMPOST
  1

  9
$DIMAPOST
  1

  9
$DIMALT
 70
    0
  9
$DIMALTD
 70
    3
  9
$DIMALTF
 40
0.03937
  9
$DIMLFAC
 40
1
  9
$DIMTOFL
 70
    1
  9
$DIMTVP
 40
0
  9
$DIMTIX
 70
    0
  9
$DIMSOXD
 70
    0
  9
$DIMSAH
 70
    0
  9
$DIMBLK1
  1

  9
$DIMBLK2
  1

  9
$DIMSTYLE
  2
Standard
  9
$DIMCLRD
 70
    0
  9
$DIMCLRE
 70
    0
  9
$DIMCLRT
 70
    0
  9
$DIMTFAC
 40
1
  9
$DIMGAP
 40
0.625
  9
$DIMJUST
 70
    0
  9
$DIMSD1
 70
    0
  9
$DIMSD2
 70
    0
  9
$DIMTOLJ
 70
    0
  9
$DIMTZIN
 70
    8
  9
$DIMALTZ
 70
    0
  9
$DIMALTTZ
 70
    0
  9
$DIMUPT
 70
    0
  9
$DIMDEC
 70
    2
  9
$DIMTDEC
 70
    2
  9
$DIMALTU
 70
    2
  9
$DIMALTTD
 70
    3
  9
$DIMTXSTY
  7
STANDARD
  9
$DIMAUNIT
 70
    0
  9
$DIMADEC
 70
    0
  9
$DIMALTRND
 40
0
  9
$DIMAZIN
 70
    0
  9
$DIMDSEP
 70
   44
  9
$DIMATFIT
 70
    3
  9
$DIMFRAC
 70
    0
  9
$DIMLDRBLK
  1
STANDARD
  9
$DIMLUNIT
 70
    2
  9
$DIMLWD
 70
   -2
  9
$DIMLWE
 70
   -2
  9
$DIMTMOVE
 70
    0
  9
$DIMFXL
 40
1
  9
$DIMFXLON
 70
    0
  9
$DIMJOGANG
 40
0.7854
  9
$DIMTFILL
 70
    0
  9
$DIMTFILLCLR
 70
    0
  9
$DIMARCSYM
 70
    0
  9
$DIMLTYPE
  6

  9
$DIMLTEX1
  6

  9
$DIMLTEX2
  6

  9
$LUNITS
 70
    2
  9
$LUPREC
 70
    4
  9
$SKETCHINC
 40
1
  9
$FILLETRAD
 40
0
  9
$AUNITS
 70
    0
  9
$AUPREC
 70
    2
  9
$MENU
  1
.
  9
$ELEVATION
 40
0
  9
$PELEVATION
 40
0
  9
$THICKNESS
 40
0
  9
$LIMCHECK
 70
    0
  9
$CHAMFERA
 40
0
  9
$CHAMFERB
 40
0
  9
$CHAMFERC
 40
0
  9
$CHAMFERD
 40
0
  9
$SKPOLY
 70
    0
  9
$USRTIMER
 70
    1
  9
$ANGBASE
 50
0
  9
$ANGDIR
 70
    0
  9
$PDMODE
 70
   34
  9
$PDSIZE
 40
0
  9
$PLINEWID
 40
0
  9
$SPLFRAME
 70
    0
  9
$SPLINETYPE
 70
    2
  9
$SPLINESEGS
 70
    8
  9
$HANDSEED
  5
20000
  9
$SURFTAB1
 70
    6
  9
$SURFTAB2
 70
    6
  9
$SURFTYPE
 70
    6
  9
$SURFU
 70
    6
  9
$SURFV
 70
    6
  9
$UCSBASE
  2

  9
$UCSNAME
  2

  9
$UCSORG
 10
0
 20
0
 30
0
  9
$UCSXDIR
 10
1
 20
0
 30
0
  9
$UCSYDIR
 10
0
 20
1
 30
0
  9
$UCSORTHOREF
  2

  9
$UCSORTHOVIEW
 70
    0
  9
$UCSORGTOP
 10
0
 20
0
 30
0
  9
$UCSORGBOTTOM
 10
0
 20
0
 30
0
  9
$UCSORGLEFT
 10
0
 20
0
 30
0
  9
$UCSORGRIGHT
 10
0
 20
0
 30
0
  9
$UCSORGFRONT
 10
0
 20
0
 30
0
  9
$UCSORGBACK
 10
0
 20
0
 30
0
  9
$PUCSBASE
  2

  9
$PUCSNAME
  2

  9
$PUCSORG
 10
0
 20
0
 30
0
  9
$PUCSXDIR
 10
1
 20
0
 30
0
  9
$PUCSYDIR
 10
0
 20
1
 30
0
  9
$PUCSORTHOREF
  2

  9
$PUCSORTHOVIEW
 70
    0
  9
$PUCSORGTOP
 10
0
 20
0
 30
0
  9
$PUCSORGBOTTOM
 10
0
 20
0
 30
0
  9
$PUCSORGLEFT
 10
0
 20
0
 30
0
  9
$PUCSORGRIGHT
 10
0
 20
0
 30
0
  9
$PUCSORGFRONT
 10
0
 20
0
 30
0
  9
$PUCSORGBACK
 10
0
 20
0
 30
0
  9
$USERI1
 70
    0
  9
$USERI2
 70
    0
  9
$USERI3
 70
    0
  9
$USERI4
 70
    0
  9
$USERI5
 70
    0
  9
$USERR1
 40
0
  9
$USERR2
 40
0
  9
$USERR3
 40
0
  9
$USERR4
 40
0
  9
$USERR5
 40
0
  9
$WORLDVIEW
 70
    1
  9
$SHADEDGE
 70
    3
  9
$SHADEDIF
 70
   70
  9
$TILEMODE
 70
    1
  9
$MAXACTVP
 70
   64
  9
$PINSBASE
 10
0
 20
0
 30
0
  9
$PLIMCHECK
 70
    0
  9
$PEXTMIN
 10
0
 20
0
 30
0
  9
$PEXTMAX
 10
0
 20
0
 30
0
  9
$GRIDMODE
 70
    0
  9
$SNAPSTYLE
 70
    0
  9
$PLIMMIN
 10
0
 20
0
  9
$PLIMMAX
 10
210
 20
297
  9
$UNITMODE
 70
    0
  9
$VISRETAIN
 70
    1
  9
$PLINEGEN
 70
    0
  9
$PSLTSCALE
 70
    1
  9
$TREEDEPTH
 70
 3020
  9
$CMLSTYLE
  2
Standard
  9
$CMLJUST
 70
    0
  9
$CMLSCALE
 40
20
  9
$PROXYGRAPHICS
 70
    1
  9
$MEASUREMENT
 70
    1
  9
$CELWEIGHT
370
   -1
  9
$ENDCAPS
280
    0
  9
$JOINSTYLE
280
    0
  9
$LWDISPLAY
290
    0
  9
$INSUNITS
 70
    4
  9
$HYPERLINKBASE
  1

  9
$STYLESHEET
  1

  9
$XEDIT
290
    1
  9
$CEPSNTYPE
380
    0
  9
$PSTYLEMODE
290
    1
  9
$EXTNAMES
290
    1
  9
$PSVPSCALE
 40
1
  9
$OLESTARTUP
290
    0
  9
$SORTENTS
280
  127
  9
$INDEXCTL
280
    0
  9
$HIDETEXT
280
    1
  9
$XCLIPFRAME
290
    0
  9
$HALOGAP
280
    0
  9
$OBSCOLOR
 70
  257
  9
$OBSLTYPE
280
    0
  9
$INTERSECTIONDISPLAY
280
    0
  9
$INTERSECTIONCOLOR
 70
  257
  9
$DIMASSOC
280
    1
  9
$PROJECTNAME
  1

  9
$CAMERADISPLAY
290
    0
  9
$LENSLENGTH
 40
50
  9
$CAMERAHEIGHT
 40
0
  9
$STEPSPERSEC
 40
2
  9
$STEPSIZE
 40
50
  9
$3DDWFPREC
 40
2
  9
$PSOLWIDTH
 40
5
  9
$PSOLHEIGHT
 40
80
  9
$LOFTANG1
 40
1.570796326794897
  9
$LOFTANG2
 40
1.570796326794897
  9
$LOFTMAG1
 40
0
  9
$LOFTMAG2
 40
0
  9
$LOFTPARAM
 70
    7
  9
$LOFTNORMALS
280
    1
  9
$LATITUDE
 40
1
  9
$LONGITUDE
 40
1
  9
$NORTHDIRECTION
 40
0
  9
$TIMEZONE
 70
-8000
  9
$LIGHTGLYPHDISPLAY
280
    1
  9
$TILEMODELIGHTSYNCH
280
    1
  9
$SOLIDHIST
280
    1
  9
$SHOWHIST
280
    1
  9
$DWFFRAME
280
    2
  9
$DGNFRAME
280
    0
  9
$REALWORLDSCALE
290
    1
  9
$INTERFERECOLOR
 62
    1
  9
$CSHADOW
280
    0
  9
$SHADOWPLANELOCATION
 40
0
  0
ENDSEC
  0
SECTION
  2
CLASSES
  0
ENDSEC
  0
SECTION
  2
TABLES
  0
TABLE
  2
VPORT
  5
8
330
0
100
AcDbSymbolTable
 70
    1
  0
VPORT
  5
31
330
2
100
AcDbSymbolTableRecord
100
AcDbViewportTableRecord
  2
*ACTIVE
 70
    0
 10
0
 20
0
 11
1
 21
1
 12
143.2594166065905
 22
118.8771407090997
 13
0
 23
0
 14
10
 24
10
 15
10
 25
10
 16
0
 26
0
 36
1
 17
0
 27
0
 37
0
 40
179.4535506055324
 41
1.783816425120773
 42
50
 43
0
 44
0
 50
0
 51
0
 71
    0
 72
  100
 73
    1
 74
    3
 75
    0
 76
    0
 77
    0
 78
    0
281
    0
 65
    1
110
0
120
0
130
0
111
1
121
0
131
0
112
0
122
1
132
0
 79
    0
146
0
348
10020
 60
    7
 61
    5
292
1
282
    1
141
0
142
0
 63
  250
421
3358443
  0
ENDTAB
  0
TABLE
  2
LTYPE
  5
5
330
0
100
AcDbSymbolTable
 70
    4
  0
LTYPE
  5
14
330
5
100
AcDbSymbolTableRecord
100
AcDbLinetypeTableRecord
  2
ByBlock
 70
    0
  3

 72
   65
 73
    0
 40
0
  0
LTYPE
  5
15
330
5
100
AcDbSymbolTableRecord
100
AcDbLinetypeTableRecord
  2
ByLayer
 70
    0
  3

 72
   65
 73
    0
 40
0
  0
LTYPE
  5
16
330
5
100
AcDbSymbolTableRecord
100
AcDbLinetypeTableRecord
  2
Continuous
 70
    0
  3
Solid line
 72
   65
 73
    0
 40
0
  0
LTYPE
  5
32
330
5
100
AcDbSymbolTableRecord
100
AcDbLinetypeTableRecord
  2
DOT
 70
    0
  3
Dot . . . . . . . . . . . . . . . . . . . . . .
 72
   65
 73
    2
 40
6.35
 49
0
 74
    0
 49
-6.35
 74
    0
  0
LTYPE
  5
33
330
5
100
AcDbSymbolTableRecord
100
AcDbLinetypeTableRecord
  2
DOTTINY
 70
    0
  3
Dot (.15x) .....................................
 72
   65
 73
    2
 40
0.9525
 49
0
 74
    0
 49
-0.9525
 74
    0
  0
LTYPE
  5
34
330
5
100
AcDbSymbolTableRecord
100
AcDbLinetypeTableRecord
  2
DOT2
 70
    0
  3
Dot (.5x) .....................................
 72
   65
 73
    2
 40
3.175
 49
0
 74
    0
 49
-3.175
 74
    0
  0
LTYPE
  5
35
330
5
100
AcDbSymbolTableRecord
100
AcDbLinetypeTableRecord
  2
DOTX2
 70
    0
  3
Dot (2x) .  .  .  .  .  .  .  .  .  .  .  .  .
 72
   65
 73
    2
 40
12.7
 49
0
 74
    0
 49
-12.7
 74
    0
  0
LTYPE
  5
36
330
5
100
AcDbSymbolTableRecord
100
AcDbLinetypeTableRecord
  2
DASHED
 70
    0
  3
Dashed _ _ _ _ _ _ _ _ _ _ _ _ _ _ _ _ _
 72
   65
 73
    2
 40
19.05
 49
12.7
 74
    0
 49
-6.35
 74
    0
  0
LTYPE
  5
37
330
5
100
AcDbSymbolTableRecord
100
AcDbLinetypeTableRecord
  2
DASHEDTINY
 70
    0
  3
Dashed (.15x) _ _ _ _ _ _ _ _ _ _ _ _ _ _ _ _ _
 72
   65
 73
    2
 40
2.8575
 49
1.905
 74
    0
 49
-0.9525
 74
    0
  0
LTYPE
  5
38
330
5
100
AcDbSymbolTableRecord
100
AcDbLinetypeTableRecord
  2
DASHED2
 70
    0
  3
Dashed (.5x) _ _ _ _ _ _ _ _ _ _ _ _ _ _ _ _ _
 72
   65
 73
    2
 40
9.524999999999999
 49
6.35
 74
    0
 49
-3.175
 74
    0
  0
LTYPE
  5
39
330
5
100
AcDbSymbolTableRecord
100
AcDbLinetypeTableRecord
  2
DASHEDX2
 70
    0
  3
Dashed (2x) ____  ____  ____  ____  ____  ___
 72
   65
 73
    2
 40
38.09999999999999
 49
25.4
 74
    0
 49
-12.7
 74
    0
  0
LTYPE
  5
3A
330
5
100
AcDbSymbolTableRecord
100
AcDbLinetypeTableRecord
  2
DASHDOT
 70
    0
  3
Dash dot __ . __ . __ . __ . __ . __ . __ . __
 72
   65
 73
    4
 40
25.4
 49
12.7
 74
    0
 49
-6.35
 74
    0
 49
0
 74
    0
 49
-6.35
 74
    0
  0
LTYPE
  5
3B
330
5
100
AcDbSymbolTableRecord
100
AcDbLinetypeTableRecord
  2
DASHDOTTINY
 70
    0
  3
Dash dot (.15x) _._._._._._._._._._._._._._._.
 72
   65
 73
    4
 40
3.81
 49
1.905
 74
    0
 49
-0.9525
 74
    0
 49
0
 74
    0
 49
-0.9525
 74
    0
  0
LTYPE
  5
3C
330
5
100
AcDbSymbolTableRecord
100
AcDbLinetypeTableRecord
  2
DASHDOT2
 70
    0
  3
Dash dot (.5x) _._._._._._._._._._._._._._._.
 72
   65
 73
    4
 40
12.7
 49
6.35
 74
    0
 49
-3.175
 74
    0
 49
0
 74
    0
 49
-3.175
 74
    0
  0
LTYPE
  5
3D
330
5
100
AcDbSymbolTableRecord
100
AcDbLinetypeTableRecord
  2
DASHDOTX2
 70
    0
  3
Dash dot (2x) ____  .  ____  .  ____  .  ___
 72
   65
 73
    4
 40
50.8
 49
25.4
 74
    0
 49
-12.7
 74
    0
 49
0
 74
    0
 49
-12.7
 74
    0
  0
LTYPE
  5
3E
330
5
100
AcDbSymbolTableRecord
100
AcDbLinetypeTableRecord
  2
DIVIDE
 70
    0
  3
Divide ____ . . ____ . . ____ . . ____ . . ____
 72
   65
 73
    6
 40
31.75
 49
12.7
 74
    0
 49
-6.35
 74
    0
 49
0
 74
    0
 49
-6.35
 74
    0
 49
0
 74
    0
 49
-6.35
 74
    0
  0
LTYPE
  5
3F
330
5
100
AcDbSymbolTableRecord
100
AcDbLinetypeTableRecord
  2
DIVIDETINY
 70
    0
  3
Divide (.15x) __..__..__..__..__..__..__..__.._
 72
   65
 73
    6
 40
4.7625
 49
1.905
 74
    0
 49
-0.9525
 74
    0
 49
0
 74
    0
 49
-0.9525
 74
    0
 49
0
 74
    0
 49
-0.9525
 74
    0
  0
LTYPE
  5
40
330
5
100
AcDbSymbolTableRecord
100
AcDbLinetypeTableRecord
  2
DIVIDE2
 70
    0
  3
Divide (.5x) __..__..__..__..__..__..__..__.._
 72
   65
 73
    6
 40
15.875
 49
6.35
 74
    0
 49
-3.175
 74
    0
 49
0
 74
    0
 49
-3.175
 74
    0
 49
0
 74
    0
 49
-3.175
 74
    0
  0
LTYPE
  5
41
330
5
100
AcDbSymbolTableRecord
100
AcDbLinetypeTableRecord
  2
DIVIDEX2
 70
    0
  3
Divide (2x) ________  .  .  ________  .  .  _
 72
   65
 73
    6
 40
63.5
 49
25.4
 74
    0
 49
-12.7
 74
    0
 49
0
 74
    0
 49
-12.7
 74
    0
 49
0
 74
    0
 49
-12.7
 74
    0
  0
LTYPE
  5
42
330
5
100
AcDbSymbolTableRecord
100
AcDbLinetypeTableRecord
  2
BORDER
 70
    0
  3
Border __ __ . __ __ . __ __ . __ __ . __ __ .
 72
   65
 73
    6
 40
44.45
 49
12.7
 74
    0
 49
-6.35
 74
    0
 49
12.7
 74
    0
 49
-6.35
 74
    0
 49
0
 74
    0
 49
-6.35
 74
    0
  0
LTYPE
  5
43
330
5
100
AcDbSymbolTableRecord
100
AcDbLinetypeTableRecord
  2
BORDERTINY
 70
    0
  3
Border (.15x) __.__.__.__.__.__.__.__.__.__.__.
 72
   65
 73
    6
 40
6.6675
 49
1.905
 74
    0
 49
-0.9525
 74
    0
 49
1.905
 74
    0
 49
-0.9525
 74
    0
 49
0
 74
    0
 49
-0.9525
 74
    0
  0
LTYPE
  5
44
330
5
100
AcDbSymbolTableRecord
100
AcDbLinetypeTableRecord
  2
BORDER2
 70
    0
  3
Border (.5x) __.__.__.__.__.__.__.__.__.__.__.
 72
   65
 73
    6
 40
22.225
 49
6.35
 74
    0
 49
-3.175
 74
    0
 49
6.35
 74
    0
 49
-3.175
 74
    0
 49
0
 74
    0
 49
-3.175
 74
    0
  0
LTYPE
  5
45
330
5
100
AcDbSymbolTableRecord
100
AcDbLinetypeTableRecord
  2
BORDERX2
 70
    0
  3
Border (2x) ____  ____  .  ____  ____  .  ___
 72
   65
 73
    6
 40
88.89999999999999
 49
25.4
 74
    0
 49
-12.7
 74
    0
 49
25.4
 74
    0
 49
-12.7
 74
    0
 49
0
 74
    0
 49
-12.7
 74
    0
  0
LTYPE
  5
46
330
5
100
AcDbSymbolTableRecord
100
AcDbLinetypeTableRecord
  2
CENTER
 70
    0
  3
Center ____ _ ____ _ ____ _ ____ _ ____ _ ____
 72
   65
 73
    4
 40
50.8
 49
31.75
 74
    0
 49
-6.35
 74
    0
 49
6.35
 74
    0
 49
-6.35
 74
    0
  0
LTYPE
  5
47
330
5
100
AcDbSymbolTableRecord
100
AcDbLinetypeTableRecord
  2
CENTERTINY
 70
    0
  3
Center (.15x) ___ _ ___ _ ___ _ ___ _ ___ _ ___
 72
   65
 73
    4
 40
7.619999999999999
 49
4.7625
 74
    0
 49
-0.9525
 74
    0
 49
0.9525
 74
    0
 49
-0.9525
 74
    0
  0
LTYPE
  5
48
330
5
100
AcDbSymbolTableRecord
100
AcDbLinetypeTableRecord
  2
CENTER2
 70
    0
  3
Center (.5x) ___ _ ___ _ ___ _ ___ _ ___ _ ___
 72
   65
 73
    4
 40
28.575
 49
19.05
 74
    0
 49
-3.175
 74
    0
 49
3.175
 74
    0
 49
-3.175
 74
    0
  0
LTYPE
  5
49
330
5
100
AcDbSymbolTableRecord
100
AcDbLinetypeTableRecord
  2
CENTERX2
 70
    0
  3
Center (2x) ________  __  ________  __  _____
 72
   65
 73
    4
 40
101.6
 49
63.5
 74
    0
 49
-12.7
 74
    0
 49
12.7
 74
    0
 49
-12.7
 74
    0
  0
ENDTAB
  0
TABLE
  2
LAYER
  5
2
330
0
100
AcDbSymbolTable
 70
    1
  0
LAYER
  5
10
330
2
100
AcDbSymbolTableRecord
100
AcDbLayerTableRecord
  2
0
 70
    0
 62
    7
  6
CONTINUOUS
370
   -3
390
F
  0
LAYER
  5
4A
330
2
100
AcDbSymbolTableRecord
100
AcDbLayerTableRecord
  2
Layer_1
 70
    0
 62
    7
  6
CONTINUOUS
370
   -3
390
F
  0
ENDTAB
  0
TABLE
  2
STYLE
  5
3
330
0
100
AcDbSymbolTable
 70
    3
  0
STYLE
  5
4B
330
2
100
AcDbSymbolTableRecord
100
AcDbTextStyleTableRecord
  2
Standard
 70
    0
 40
0
 41
1
 50
0
 71
    0
 42
1
  3
txt
  4

  0
ENDTAB
  0
TABLE
  2
VIEW
  5
6
330
0
100
AcDbSymbolTable
 70
    0
  0
ENDTAB
  0
TABLE
  2
UCS
  5
7
330
0
100
AcDbSymbolTable
 70
    0
  0
ENDTAB
  0
TABLE
  2
APPID
  5
9
330
0
100
AcDbSymbolTable
 70
    1
  0
APPID
  5
12
330
9
100
AcDbSymbolTableRecord
100
AcDbRegAppTableRecord
  2
ACAD
 70
    0
  0
APPID
  5
4C
330
9
100
AcDbSymbolTableRecord
100
AcDbRegAppTableRecord
  2
LibreCad
 70
    0
  0
ENDTAB
  0
TABLE
  2
DIMSTYLE
  5
A
330
0
100
AcDbSymbolTable
 70
    1
100
AcDbDimStyleTable
 71
    1
  0
DIMSTYLE
105
4D
330
A
100
AcDbSymbolTableRecord
100
AcDbDimStyleTableRecord
  2
Standard
 70
    0
 40
1
 41
2.5
 42
0.625
 43
0.38
 44
1.25
 45
0
 46
0
 47
0
 48
0
 49
1
140
2.5
141
0.09
142
2.5
143
25.4
144
1
145
0
146
1
147
0.625
148
0
 71
    0
 72
    0
 73
    0
 74
    1
 75
    0
 76
    0
 77
    0
 78
    1
 79
    0
170
    0
171
    2
172
    0
173
    0
174
    0
175
    0
176
    0
177
    0
178
    0
179
    0
271
    2
272
    4
273
    2
274
    2
275
    0
276
    0
277
    2
278
    0
279
    0
280
    0
281
    0
282
    0
283
    1
284
    0
285
    0
286
    0
288
    0
289
    3
340
standard
341

371
   -2
372
   -2
  0
ENDTAB
  0
TABLE
  2
BLOCK_RECORD
  5
1
330
0
100
AcDbSymbolTable
 70
    2
  0
BLOCK_RECORD
  5
1F
330
1
100
AcDbSymbolTableRecord
100
AcDbBlockTableRecord
  2
*Model_Space
 70
    0
280
    1
281
    0
  0
BLOCK_RECORD
  5
1E
330
1
100
AcDbSymbolTableRecord
100
AcDbBlockTableRecord
  2
*Paper_Space
 70
    0
280
    1
281
    0
  0
ENDTAB
  0
ENDSEC
  0
SECTION
  2
BLOCKS
  0
BLOCK
  5
20
330
1F
100
AcDbEntity
  8
0
100
AcDbBlockBegin
  2
*Model_Space
 70
    0
 10
0
 20
0
 30
0
  3
*Model_Space
  1

  0
ENDBLK
  5
21
330
1F
100
AcDbEntity
  8
0
100
AcDbBlockEnd
  0
BLOCK
  5
1C
330
1B
100
AcDbEntity
  8
0
100
AcDbBlockBegin
  2
*Paper_Space
 70
    0
 10
0
 20
0
 30
0
  3
*Paper_Space
  1

  0
ENDBLK
  5
1D
330
1F
100
AcDbEntity
  8
0
100
AcDbBlockEnd
  0
ENDSEC
  0
SECTION
  2
ENTITIES
  0
LWPOLYLINE
  5
4E
100
AcDbEntity
  8
Layer_1
  6
ByLayer
 62
    7
370
   -1
100
AcDbPolyline
 90
   26
 70
    0
 43
0
 10
76.6114
 20
74.084
 10
76.62163099999999
 20
73.75450499999999
 10
76.652675
 20
73.426069
 10
76.704533
 20
73.10010200000001
 10
76.7765
 20
72.778369
 10
76.868222
 20
72.461574
 10
76.980053
 20
72.151482
 10
77.110934
 20
71.848799
 10
77.260864
 20
71.554935
 10
77.428787
 20
71.270948
 10
77.613995
 20
70.998251
 10
77.816137
 20
70.737548
 10
78.034154
 20
70.490251
 10
78.26769299999999
 20
70.257064
 10
78.51499
 20
70.038695
 10
78.775693
 20
69.83655299999999
 10
79.04839
 20
69.65134399999999
 10
79.332024
 20
69.483422
 10
79.62624099999999
 20
69.333491
 10
79.92892399999999
 20
69.202611
 10
80.23901600000001
 20
69.09078
 10
80.55581100000001
 20
68.99905800000001
 10
80.877544
 20
68.927091
 10
81.20351100000001
 20
68.87523299999999
 10
81.531595
 20
68.844188
 10
81.861442
 20
68.833958
  0
LWPOLYLINE
  5
4F
100
AcDbEntity
  8
Layer_1
  6
ByLayer
 62
    7
370
   -1
100
AcDbPolyline
 90
   26
 70
    0
 43
0
 10
81.8614
 20
211.3339
 10
81.53190499999999
 20
211.323669
 10
81.203469
 20
211.292625
 10
80.87750200000001
 20
211.240767
 10
80.555769
 20
211.1688
 10
80.238974
 20
211.077078
 10
79.928882
 20
210.965247
 10
79.626199
 20
210.834366
 10
79.332335
 20
210.684436
 10
79.048348
 20
210.516513
 10
78.775651
 20
210.331305
 10
78.514948
 20
210.129163
 10
78.267651
 20
209.911146
 10
78.034464
 20
209.677607
 10
77.816095
 20
209.43031
 10
77.613953
 20
209.169607
 10
77.42874399999999
 20
208.89691
 10
77.260822
 20
208.613276
 10
77.110891
 20
208.319059
 10
76.980011
 20
208.016376
 10
76.86818
 20
207.706284
 10
76.77645800000001
 20
207.389489
 10
76.704491
 20
207.067756
 10
76.65263299999999
 20
206.741789
 10
76.621588
 20
206.413705
 10
76.611358
 20
206.083858
  0
LWPOLYLINE
  5
50
100
AcDbEntity
  8
Layer_1
  6
ByLayer
 62
    7
370
   -1
100
AcDbPolyline
 90
   26
 70
    0
 43
0
 10
161.611
 20
206.0839
 10
161.600769
 20
206.413395
 10
161.569725
 20
206.741831
 10
161.517867
 20
207.067798
 10
161.4459
 20
207.389531
 10
161.354178
 20
207.706326
 10
161.242347
 20
208.016418
 10
161.111466
 20
208.319101
 10
160.961536
 20
208.612965
 10
160.793613
 20
208.896952
 10
160.608405
 20
209.169649
 10
160.406263
 20
209.430352
 10
160.188246
 20
209.677649
 10
159.954707
 20
209.910836
 10
159.70741
 20
210.129205
 10
159.446707
 20
210.331347
 10
159.17401
 20
210.516556
 10
158.890376
 20
210.684478
 10
158.596512
 20
210.834409
 10
158.293476
 20
210.965289
 10
157.983384
 20
211.07712
 10
157.666589
 20
211.168842
 10
157.344856
 20
211.240809
 10
157.018889
 20
211.292667
 10
156.690805
 20
211.323712
 10
156.360958
 20
211.333942
  0
LWPOLYLINE
  5
51
100
AcDbEntity
  8
Layer_1
  6
ByLayer
 62
    7
370
   -1
100
AcDbPolyline
 90
   26
 70
    0
 43
0
 10
156.361
 20
68.834
 10
156.690495
 20
68.84423099999999
 10
157.018931
 20
68.875275
 10
157.344898
 20
68.927133
 10
157.666631
 20
68.9991
 10
157.983426
 20
69.090822
 10
158.293518
 20
69.202653
 10
158.596201
 20
69.333534
 10
158.890065
 20
69.483464
 10
159.174052
 20
69.651387
 10
159.446749
 20
69.836595
 10
159.707452
 20
70.038737
 10
159.954749
 20
70.256754
 10
160.187936
 20
70.49029299999999
 10
160.406305
 20
70.73759
 10
160.608447
 20
70.998293
 10
160.793656
 20
71.27099
 10
160.961578
 20
71.554624
 10
161.111509
 20
71.848488
 10
161.242389
 20
72.151172
 10
161.35422
 20
72.46161600000001
 10
161.445942
 20
72.77841100000001
 10
161.517909
 20
73.100144
 10
161.569767
 20
73.42611100000001
 10
161.600812
 20
73.754195
 10
161.611042
 20
74.084042
  0
LWPOLYLINE
  5
52
100
AcDbEntity
  8
Layer_1
  6
ByLayer
 62
    7
370
   -1
100
AcDbPolyline
 90
    2
 70
    0
 43
0
 10
123.994
 20
188.384
 10
135.493857
 20
188.384
  0
LWPOLYLINE
  5
53
100
AcDbEntity
  8
Layer_1
  6
ByLayer
 62
    7
370
   -1
100
AcDbPolyline
 90
    2
 70
    0
 43
0
 10
118.994
 20
193.384
 10
118.994
 20
204.883857
  0
LWPOLYLINE
  5
54
100
AcDbEntity
  8
Layer_1
  6
ByLayer
 62
    7
370
   -1
100
AcDbPolyline
 90
    2
 70
    0
 43
0
 10
113.994
 20
188.384
 10
102.494143
 20
188.384
  0
LWPOLYLINE
  5
55
100
AcDbEntity
  8
Layer_1
  6
ByLayer
 62
    7
370
   -1
100
AcDbPolyline
 90
    2
 70
    0
 43
0
 10
118.994
 20
183.384
 10
118.994
 20
171.884143
  0
LWPOLYLINE
  5
56
100
AcDbEntity
  8
Layer_1
  6
ByLayer
 62
    7
370
   -1
100
AcDbPolyline
 90
    2
 70
    0
 43
0
 10
173.837
 20
140.084
 10
66.226304
 20
140.084
  0
LWPOLYLINE
  5
57
100
AcDbEntity
  8
Layer_1
  6
ByLayer
 62
    7
370
   -1
100
AcDbPolyline
 90
    2
 70
    0
 43
0
 10
162.681
 20
152.384
 10
69.755747
 20
152.384
  0
LWPOLYLINE
  5
58
100
AcDbEntity
  8
Layer_1
  6
ByLayer
 62
    7
370
   -1
100
AcDbPolyline
 90
    2
 70
    0
 43
0
 10
136.111
 20
210.0839
 10
136.111
 20
168.383777
  0
LWPOLYLINE
  5
59
100
AcDbEntity
  8
Layer_1
  6
ByLayer
 62
    7
370
   -1
100
AcDbPolyline
 90
    2
 70
    0
 43
0
 10
136.111
 20
210.0839
 10
96.11091399999999
 20
210.0839
  0
LWPOLYLINE
  5
5A
100
AcDbEntity
  8
Layer_1
  6
ByLayer
 62
    7
370
   -1
100
AcDbPolyline
 90
    2
 70
    0
 43
0
 10
96.1113
 20
210.0839
 10
96.1113
 20
168.383777
  0
LWPOLYLINE
  5
5B
100
AcDbEntity
  8
Layer_1
  6
ByLayer
 62
    7
370
   -1
100
AcDbPolyline
 90
    2
 70
    0
 43
0
 10
136.111
 20
168.384
 10
96.11091399999999
 20
168.384
  0
LWPOLYLINE
  5
5C
100
AcDbEntity
  8
Layer_1
  6
ByLayer
 62
    7
370
   -1
100
AcDbPolyline
 90
    2
 70
    0
 43
0
 10
119.111
 20
99.994
 10
119.111
 20
257.287127
  0
LWPOLYLINE
  5
5D
100
AcDbEntity
  8
Layer_1
  6
ByLayer
 62
    7
370
   -1
100
AcDbPolyline
 90
    2
 70
    0
 43
0
 10
156.361
 20
68.834
 10
81.860989
 20
68.834
  0
LWPOLYLINE
  5
5E
100
AcDbEntity
  8
Layer_1
  6
ByLayer
 62
    7
370
   -1
100
AcDbPolyline
 90
    2
 70
    0
 43
0
 10
76.6114
 20
206.0839
 10
76.6114
 20
74.08389699999999
  0
LWPOLYLINE
  5
5F
100
AcDbEntity
  8
Layer_1
  6
ByLayer
 62
    7
370
   -1
100
AcDbPolyline
 90
    2
 70
    0
 43
0
 10
156.361
 20
211.3339
 10
81.860989
 20
211.3339
  0
LWPOLYLINE
  5
60
100
AcDbEntity
  8
Layer_1
  6
ByLayer
 62
    7
370
   -1
100
AcDbPolyline
 90
    2
 70
    0
 43
0
 10
161.611
 20
206.0839
 10
161.611
 20
74.08389699999999
  0
LWPOLYLINE
  5
61
100
AcDbEntity
  8
Layer_1
  6
ByLayer
 62
    7
370
   -1
100
AcDbPolyline
 90
    2
 70
    0
 43
0
 10
144.449
 20
188.384
 10
93.538901
 20
188.384
  0
LWPOLYLINE
  5
62
100
AcDbEntity
  8
Layer_1
  6
ByLayer
 62
    7
370
   -1
100
AcDbPolyline
 90
    2
 70
    0
 43
0
 10
136.111
 20
208.3839
 10
96.11091399999999
 20
208.3839
  0
LWPOLYLINE
  5
63
100
AcDbEntity
  8
Layer_1
  6
ByLayer
 62
    7
370
   -1
100
AcDbPolyline
 90
    2
 70
    0
 43
0
 10
128.003
 20
102.384
 10
110.218755
 20
102.384
  0
LWPOLYLINE
  5
64
100
AcDbEntity
  8
Layer_1
  6
ByLayer
 62
    7
370
   -1
100
AcDbPolyline
 90
    2
 70
    0
 43
0
 10
147.111
 20
159.471
 10
147.111
 20
145.795914
  0
LWPOLYLINE
  5
65
100
AcDbEntity
  8
Layer_1
  6
ByLayer
 62
    7
370
   -1
100
AcDbPolyline
 90
    2
 70
    0
 43
0
 10
91.1113
 20
159.471
 10
91.1113
 20
145.795914
  0
LWPOLYLINE
  5
66
100
AcDbEntity
  8
Layer_1
  6
ByLayer
 62
    7
370
   -1
100
AcDbPolyline
 90
   20
 70
    1
 43
0
 10
155.127
 20
206.1146
 10
155.197556
 20
205.726544
 10
155.373945
 20
205.409044
 10
155.620889
 20
205.126822
 10
155.973667
 20
204.950433
 10
156.326445
 20
204.915155
 10
156.714501
 20
204.950433
 10
157.032001
 20
205.126822
 10
157.314224
 20
205.409044
 10
157.490613
 20
205.726544
 10
157.52589
 20
206.1146
 10
157.490613
 20
206.467378
 10
157.314224
 20
206.820156
 10
157.032001
 20
207.067101
 10
156.714501
 20
207.24349
 10
156.326445
 20
207.314045
 10
155.973667
 20
207.24349
 10
155.620889
 20
207.067101
 10
155.373945
 20
206.820156
 10
155.197556
 20
206.467378
  0
LWPOLYLINE
  5
67
100
AcDbEntity
  8
Layer_1
  6
ByLayer
 62
    7
370
   -1
100
AcDbPolyline
 90
   20
 70
    1
 43
0
 10
80.655564
 20
74.10507200000001
 10
80.690842
 20
73.717017
 10
80.867231
 20
73.39951600000001
 10
81.14945299999999
 20
73.117294
 10
81.466954
 20
72.97618300000001
 10
81.855009
 20
72.905627
 10
82.207787
 20
72.97618300000001
 10
82.560565
 20
73.117294
 10
82.80750999999999
 20
73.39951600000001
 10
82.98389899999999
 20
73.717017
 10
83.054455
 20
74.10507200000001
 10
82.98389899999999
 20
74.45784999999999
 10
82.80750999999999
 20
74.81062799999999
 10
82.560565
 20
75.057573
 10
82.207787
 20
75.23396200000001
 10
81.855009
 20
75.304518
 10
81.466954
 20
75.23396200000001
 10
81.14945299999999
 20
75.057573
 10
80.867231
 20
74.81062799999999
 10
80.690842
 20
74.45784999999999
  0
LWPOLYLINE
  5
68
100
AcDbEntity
  8
Layer_1
  6
ByLayer
 62
    7
370
   -1
100
AcDbPolyline
 90
   38
 70
    1
 43
0
 10
87.60529099999999
 20
156.161235
 10
86.935013
 20
156.09068
 10
86.300012
 20
155.914291
 10
85.735567
 20
155.632068
 10
85.17112299999999
 20
155.27929
 10
84.71251100000001
 20
154.820679
 10
84.35973300000001
 20
154.291512
 10
84.077511
 20
153.691789
 10
83.901122
 20
153.056789
 10
83.830566
 20
152.386511
 10
83.901122
 20
151.75151
 10
84.077511
 20
151.11651
 10
84.35973300000001
 20
150.516787
 10
84.71251100000001
 20
149.98762
 10
85.17112299999999
 20
149.529009
 10
85.735567
 20
149.140953
 10
86.300012
 20
148.894008
 10
86.935013
 20
148.717619
 10
87.60529099999999
 20
148.647064
 10
150.576164
 20
148.647064
 10
151.246442
 20
148.717619
 10
151.881442
 20
148.894008
 10
152.481165
 20
149.140953
 10
153.010332
 20
149.529009
 10
153.468943
 20
149.98762
 10
153.856999
 20
150.516787
 10
154.103944
 20
151.11651
 10
154.280333
 20
151.75151
 10
154.350888
 20
152.386511
 10
154.280333
 20
153.056789
 10
154.103944
 20
153.691789
 10
153.856999
 20
154.291512
 10
153.468943
 20
154.820679
 10
153.010332
 20
155.27929
 10
152.481165
 20
155.632068
 10
151.881442
 20
155.914291
 10
151.246442
 20
156.09068
 10
150.576164
 20
156.161235
  0
LWPOLYLINE
  5
69
100
AcDbEntity
  8
Layer_1
  6
ByLayer
 62
    7
370
   -1
100
AcDbPolyline
 90
   69
 70
    1
 43
0
 10
104.961968
 20
188.405144
 10
105.032524
 20
187.135144
 10
105.208913
 20
185.865143
 10
105.491135
 20
184.63042
 10
105.879191
 20
183.430975
 10
106.408358
 20
182.231529
 10
107.008081
 20
181.137918
 10
107.713637
 20
180.079584
 10
108.525026
 20
179.091805
 10
109.406971
 20
178.174582
 10
110.39475
 20
177.327915
 10
111.417806
 20
176.622359
 10
112.546695
 20
175.987359
 10
113.675585
 20
175.422914
 10
114.910308
 20
174.99958
 10
116.145031
 20
174.68208
 10
117.379754
 20
174.505691
 10
118.649755
 20
174.399858
 10
119.919756
 20
174.435136
 10
121.189756
 20
174.576247
 10
122.459757
 20
174.823191
 10
123.659202
 20
175.211247
 10
124.858648
 20
175.705136
 10
125.987537
 20
176.269581
 10
127.045871
 20
176.975137
 10
128.068927
 20
177.751249
 10
128.98615
 20
178.597916
 10
129.832817
 20
179.550417
 10
130.608929
 20
180.573473
 10
131.243929
 20
181.667085
 10
131.808374
 20
182.831252
 10
132.266986
 20
184.030697
 10
132.619764
 20
185.230142
 10
132.83143
 20
186.500143
 10
132.972542
 20
187.770144
 10
132.972542
 20
189.040145
 10
132.83143
 20
190.310146
 10
132.619764
 20
191.544869
 10
132.266986
 20
192.779592
 10
131.808374
 20
193.979037
 10
131.243929
 20
195.107926
 10
130.608929
 20
196.201538
 10
129.832817
 20
197.224594
 10
128.98615
 20
198.177095
 10
128.068927
 20
199.05904
 10
127.045871
 20
199.835152
 10
125.987537
 20
200.540708
 10
124.858648
 20
201.105152
 10
123.659202
 20
201.599042
 10
122.459757
 20
201.95182
 10
121.189756
 20
202.234042
 10
119.919756
 20
202.375153
 10
118.649755
 20
202.410431
 10
117.379754
 20
202.304598
 10
116.145031
 20
202.092931
 10
114.910308
 20
201.775431
 10
113.675585
 20
201.352097
 10
112.546695
 20
200.82293
 10
111.417806
 20
200.18793
 10
110.39475
 20
199.447096
 10
109.406971
 20
198.635706
 10
108.525026
 20
197.718484
 10
107.713637
 20
196.730705
 10
107.008081
 20
195.672371
 10
106.408358
 20
194.543482
 10
105.879191
 20
193.379314
 10
105.491135
 20
192.179869
 10
105.208913
 20
190.945146
 10
105.032524
 20
189.675145
  0
LWPOLYLINE
  5
6A
100
AcDbEntity
  8
Layer_1
  6
ByLayer
 62
    7
370
   -1
100
AcDbPolyline
 90
    2
 70
    0
 43
0
 10
161.582837
 20
74.10507200000001
 10
161.582837
 20
206.1146
  0
LWPOLYLINE
  5
6B
100
AcDbEntity
  8
Layer_1
  6
ByLayer
 62
    7
370
   -1
100
AcDbPolyline
 90
   11
 70
    0
 43
0
 10
156.326445
 20
68.84868
 10
157.173112
 20
68.919236
 10
157.949224
 20
69.095625
 10
158.725336
 20
69.41312499999999
 10
159.430892
 20
69.836459
 10
160.065892
 20
70.400903
 10
160.595059
 20
71.000626
 10
161.018393
 20
71.706182
 10
161.335893
 20
72.482294
 10
161.512282
 20
73.293683
 10
161.582837
 20
74.10507200000001
  0
LWPOLYLINE
  5
6C
100
AcDbEntity
  8
Layer_1
  6
ByLayer
 62
    7
370
   -1
100
AcDbPolyline
 90
    2
 70
    0
 43
0
 10
81.855009
 20
68.84868
 10
156.326445
 20
68.84868
  0
LWPOLYLINE
  5
6D
100
AcDbEntity
  8
Layer_1
  6
ByLayer
 62
    7
370
   -1
100
AcDbPolyline
 90
   11
 70
    0
 43
0
 10
76.598617
 20
74.10507200000001
 10
76.669173
 20
73.293683
 10
76.845562
 20
72.482294
 10
77.163062
 20
71.706182
 10
77.58639599999999
 20
71.000626
 10
78.11556299999999
 20
70.400903
 10
78.750563
 20
69.836459
 10
79.456119
 20
69.41312499999999
 10
80.232231
 20
69.095625
 10
81.008342
 20
68.919236
 10
81.855009
 20
68.84868
  0
LWPOLYLINE
  5
6E
100
AcDbEntity
  8
Layer_1
  6
ByLayer
 62
    7
370
   -1
100
AcDbPolyline
 90
    2
 70
    0
 43
0
 10
76.598617
 20
206.1146
 10
76.598617
 20
74.10507200000001
  0
LWPOLYLINE
  5
6F
100
AcDbEntity
  8
Layer_1
  6
ByLayer
 62
    7
370
   -1
100
AcDbPolyline
 90
   11
 70
    0
 43
0
 10
81.855009
 20
211.335714
 10
81.008342
 20
211.300437
 10
80.232231
 20
211.08877
 10
79.456119
 20
210.77127
 10
78.750563
 20
210.347936
 10
78.11556299999999
 20
209.818769
 10
77.58639599999999
 20
209.183769
 10
77.163062
 20
208.478213
 10
76.845562
 20
207.737379
 10
76.669173
 20
206.925989
 10
76.598617
 20
206.1146
  0
LWPOLYLINE
  5
70
100
AcDbEntity
  8
Layer_1
  6
ByLayer
 62
    7
370
   -1
100
AcDbPolyline
 90
    2
 70
    0
 43
0
 10
156.326445
 20
211.335714
 10
81.855009
 20
211.335714
  0
LWPOLYLINE
  5
71
100
AcDbEntity
  8
Layer_1
  6
ByLayer
 62
    7
370
   -1
100
AcDbPolyline
 90
   11
 70
    0
 43
0
 10
161.582837
 20
206.1146
 10
161.512282
 20
206.925989
 10
161.335893
 20
207.737379
 10
161.018393
 20
208.478213
 10
160.595059
 20
209.183769
 10
160.065892
 20
209.818769
 10
159.430892
 20
210.347936
 10
158.725336
 20
210.77127
 10
157.949224
 20
211.08877
 10
157.173112
 20
211.300437
 10
156.326445
 20
211.335714
  0
LWPOLYLINE
  5
72
100
AcDbEntity
  8
Layer_1
  6
ByLayer
 62
    7
370
   -1
100
AcDbPolyline
 90
   20
 70
    1
 43
0
 10
80.655564
 20
206.1146
 10
80.690842
 20
205.726544
 10
80.867231
 20
205.409044
 10
81.14945299999999
 20
205.126822
 10
81.466954
 20
204.950433
 10
81.855009
 20
204.915155
 10
82.207787
 20
204.950433
 10
82.560565
 20
205.126822
 10
82.80750999999999
 20
205.409044
 10
82.98389899999999
 20
205.726544
 10
83.054455
 20
206.1146
 10
82.98389899999999
 20
206.467378
 10
82.80750999999999
 20
206.820156
 10
82.560565
 20
207.067101
 10
82.207787
 20
207.24349
 10
81.855009
 20
207.314045
 10
81.466954
 20
207.24349
 10
81.14945299999999
 20
207.067101
 10
80.867231
 20
206.820156
 10
80.690842
 20
206.467378
  0
LWPOLYLINE
  5
73
100
AcDbEntity
  8
Layer_1
  6
ByLayer
 62
    7
370
   -1
100
AcDbPolyline
 90
   20
 70
    1
 43
0
 10
155.127
 20
74.10507200000001
 10
155.197556
 20
73.717017
 10
155.373945
 20
73.39951600000001
 10
155.620889
 20
73.117294
 10
155.973667
 20
72.97618300000001
 10
156.326445
 20
72.905627
 10
156.714501
 20
72.97618300000001
 10
157.032001
 20
73.117294
 10
157.314224
 20
73.39951600000001
 10
157.490613
 20
73.717017
 10
157.52589
 20
74.10507200000001
 10
157.490613
 20
74.45784999999999
 10
157.314224
 20
74.81062799999999
 10
157.032001
 20
75.057573
 10
156.714501
 20
75.23396200000001
 10
156.326445
 20
75.304518
 10
155.973667
 20
75.23396200000001
 10
155.620889
 20
75.057573
 10
155.373945
 20
74.81062799999999
 10
155.197556
 20
74.45784999999999
  0
ENDSEC
  0
SECTION
  2
OBJECTS
  0
DICTIONARY
  5
C
330
0
100
AcDbDictionary
281
    1
  3
ACAD_GROUP
350
D
  0
DICTIONARY
  5
D
330
C
100
AcDbDictionary
281
    1
  0
ENDSEC
  0
EOF
